<svg version="1.1" id="Layer_1" xmlns="http://www.w3.org/2000/svg" xmlns:xlink="http://www.w3.org/1999/xlink" x="0px" y="0px" viewBox="0 0 256.5 381" style="enable-background:new 0 0 256.5 381;" xml:space="preserve">
	<g transform="translate(25,0)">
		<style type="text/css">
			.st5 {
				fill: #842B33;
			}

			.st6 {
				fill: #E34B4F;
			}

			.st7 {
				opacity: 0.5;
				fill: #CE4547;
				enable-background: new;
			}

			.st8 {
				opacity: 0.5;
			}

			.st9 {
				fill: #97192E;
			}

			.st10 {
				fill: #EF7C70;
			}
		</style>
		<g>
			<g>
				<path class="st5"
					d="M96,153c-0.1-2.2,0.3-4.2,0.8-6.3c0.1-0.8,0.3-1.6,0.4-2.5c0.2-1.5,0.3-2.9-0.6-4.2       c-1.6-2.2-7.2,0.2-8.8,1.2c0,0,0,0,0,0c-4.2,1.9-7.3,4.8-9.5,9.3c-2.3,4.7-3.4,10.1-3.5,15.3c-0.1,5.3,2.1,6.7,6.8,5.6       c3.7-0.9,8.7-2.4,11.5-5.2c1.2-1.2,2-2.4,2.5-3.6C96,159.4,96.1,156.4,96,153z" />
				<path class="st6"
					d="M85.5,169.9c-1.7,0.6-3.5,1.1-5.2,1.5c-3.9,0.9-5.2-1.8-5.2-5.6c0-3.6,0.7-7.3,1.8-10.8       c1.4-4.3,3.2-8.3,6.8-11c1-0.8,3.6-2.4,6.3-3.5c2.3-0.9,5.3-1.9,6.5,0.1c1,1.6,0.1,4.6-0.5,6.9c-0.2,1.3-0.4,2.6-0.5,3.9       c0.4,3.8,0.8,8.3-0.7,11.8C93.1,166.9,89.3,168.6,85.5,169.9z" />
				<path class="st7"
					d="M96.5,140.6c-1.1-1.7-3.5-1.1-5.7-0.4c1.2-0.3,2.4-0.4,3.4,0.2c2.1,1.3-0.1,4.8-0.5,6.4       c-0.8,3.8-0.2,7.9-1.5,11.6c-1,2.8-2.8,4.8-5.6,5.9c-2,0.9-7,3.2-9.1,1.4c-1.9-1.5-1.7-4.7-1.4-6.9c0.2-1.7,0.6-3.4,1.1-5.1       c-0.1,0.4-0.3,0.8-0.4,1.1c-1.2,3.4-1.8,7.1-1.8,10.8c0,3.8,1.2,6.5,5.2,5.6c1.7-0.4,3.5-0.9,5.2-1.5c3.8-1.3,7.6-3.1,9.2-6.7       c1.6-3.5,1.1-8,0.7-11.8c0.1-1.3,0.3-2.6,0.5-3.9C96.6,145.2,97.6,142.2,96.5,140.6z" />
			</g>
			<g class="st8">
				<g>
					<path class="st6"
						d="M79.7,168.6C79.6,168.7,79.6,168.7,79.7,168.6C79.6,168.7,79.6,168.7,79.7,168.6z" />
					<path class="st6"
						d="M85.5,153.9c-1.2,0.8-2.2,1.6-3.2,2.5c0,0-0.1,0-0.2,0.1c0,0.1-0.1,0.1-0.1,0.2c-0.2,0.1-0.3,0.3-0.5,0.4        c-1.2,0.4-2.3,0.8-3.2,1.5c-1.1,0.8-1.7,1.9-2.2,3.1c0,0,0,0,0,0c0.8-1.3,1.5-2.4,2.9-3.2c0.6-0.3,1.3-0.6,1.9-0.8        c-2.4,2.3-4,5-4.5,8.9c0,0,0,0,0,0c0.3-1.3,0.7-2.5,1.2-3.6c0,0.2,0,0.4,0,0.6c0,1.1,0.1,2.5-0.2,3.6c0,0,0,0,0,0        c0.6-1.5,0.3-3.3,0.5-4.9c0.9-1.7,2.1-3.2,3.5-4.5c-0.3,1-0.4,2-0.4,3.1c0,1.8,0.2,6.2-1.4,7.8c1.1-1,1.5-2.6,1.7-4.4        c0.2,0.6,0.4,1.2,0.6,1.8c0.3,1.1,0.4,2.2,0.3,3.4c0,0,0,0,0,0c0.4-2-0.1-4-0.9-5.8c0.2-2.3,0.1-4.8,0.7-6.4        c0,0,0.1-0.1,0.1-0.1c0.1,0,0.2-0.1,0.2-0.1c0,0,0.1-0.1,0-0.1c1-0.9,2-1.8,3.2-2.8C85.7,153.9,85.6,153.8,85.5,153.9z" />
					<path class="st6"
						d="M78.8,169.3c0.1-0.1,0.2-0.1,0.4-0.2C79,169.1,78.9,169.1,78.8,169.3C78.8,169.2,78.8,169.3,78.8,169.3z" />
					<path class="st6" d="M79.3,168.9c0,0-0.1,0.1-0.2,0.1C79.2,169,79.3,169,79.3,168.9z" />
					<path class="st6" d="M79.6,168.7c-0.1,0.1-0.2,0.1-0.2,0.2C79.4,168.9,79.5,168.8,79.6,168.7z" />
				</g>
				<path class="st6"
					d="M86.2,153.4c-1.4,0.4-2.8,0.1-4.2,0.6c-1.6,0.6-2.9,1.4-4,2.6c0,0,0,0,0,0c1.5-1.3,3.3-2.2,5.2-2.6       c1-0.2,2.1-0.1,3.1-0.5C86.3,153.5,86.3,153.3,86.2,153.4z" />
				<path class="st6"
					d="M95.2,147.2c-0.4,0.2-0.9,0.3-1.3,0.3c-1.8-0.2-2.9-1.9-4.5-2.7c-1.4-0.7-2.7-0.8-4.2-0.6c0,0,0,0,0,0       c1.4-0.1,2.9,0.2,4.2,0.9c-0.2,0-0.3,0-0.4,0.1c-1,0.2-1.8,0.3-2.8,0.1c0,0,0,0,0,0c0.6,0.2,1.2,0.3,1.9,0.3       c0.3,0,0.6-0.1,0.9-0.2c0.3-0.1,0.6,0,0.9,0c0.4,0.2,0.8,0.5,1.1,0.9c0.6,0.6,1.2,1.1,2,1.3c-2.3,0-4.7-0.9-6.9-0.7       c-2.4,0.2-5,1.3-6.3,3.5c0,0,0,0,0,0c1.3-1.7,3-2.5,4.9-2.8c-0.2,0.2-0.5,0.4-0.7,0.6c-0.5,0.4-1,0.8-1.5,1.1       c-0.4,0.3-0.9,0.7-1.4,0.8c0,0,0,0,0,0c0.6,0,1.3-0.5,1.8-0.8c0.5-0.3,0.9-0.6,1.3-1c0.4-0.3,0.7-0.6,1.1-0.8       c1.9-0.2,4,0,5.8,0.2c0.9,0.1,2,0.2,2.9,0c0.2,0,0.4,0,0.5-0.1c0,0,0.1-0.1,0.1-0.1c0.2-0.1,0.4-0.2,0.6-0.3       C95.3,147.3,95.3,147.1,95.2,147.2z" />
				<path class="st6"
					d="M96.4,145.8c-1.1-0.3-1.3-1.4-1.8-2.2c-0.3-0.7-0.9-1.2-1.5-1.6c-1-0.8-2.6-0.8-3.7-0.3c0,0-0.1,0.1,0,0.1       c2.1-0.5,3.8,0.2,4.9,2c0.2,0.3,0.3,0.5,0.5,0.8c-0.4-0.3-0.8-0.3-1.5-0.2c-1.8,0.1-3.6,0-4.9-1.5c0,0,0,0,0,0       c0.6,0.8,1.4,1.5,2.4,1.7c0.7,0.1,1.4,0.2,2.1,0.1c1-0.1,1.5-0.1,2.3,0.4C95.4,145.4,95.8,145.7,96.4,145.8       C96.4,145.8,96.4,145.8,96.4,145.8z" />
				<path class="st6"
					d="M94.7,157C94.7,157,94.7,157,94.7,157c-0.1-0.7-0.7-1.3-1.2-1.7c-0.3-0.3-0.7-0.5-1-0.8       c-0.2-0.1-0.3-0.3-0.3-0.5c0.1-1.2,0.4-2.4,1.2-3.8c0,0,0,0,0,0c-1,1.3-1.9,3-1.8,4.7c0,0.8,0.1,1.4,0.3,2.1       c-0.7,1.2-0.4,2.7,0,4c0,0,0,0,0,0c-0.2-1.2-0.3-2.4,0-3.6c0,0.2,0.1,0.3,0.1,0.5c0.8,2.7,1.1,4.5,0.2,7.3c0,0.1,0.1,0.1,0.1,0       c0.9-2,1-3.7,0.6-5.8c-0.1-0.5-0.2-1-0.3-1.4c0.2,0.2,0.3,0.4,0.5,0.7c0.9,1.3,1.4,2.7,1.2,4.3c0,0,0,0,0,0       c0.2-1.3,0.1-2.4-0.5-3.5c-0.4-0.8-0.9-1.4-1.3-2.1c-0.2-1-0.3-1.9-0.3-2.8C92.9,155.4,94.3,155.8,94.7,157z" />
				<path class="st6"
					d="M87.4,159.9c0.6-1.1,1.2-2.2,1.6-3.4c0-0.1-0.1-0.1-0.1,0c-1.9,3.7-5.5,7.6-3,11.9c0,0,0,0,0,0       c-1.5-3.2-0.1-5.5,1.3-7.9c-0.1,0.8,0.1,1.6,0.3,2.4c0.3,1.4,0.4,2.7,0.1,4.1c0,0,0,0,0,0c0.2-0.9,0.3-1.9,0.2-2.8       C87.8,162.7,87.2,161.3,87.4,159.9z" />
			</g>
			<g>
				<path class="st6"
					d="M92.9,140.6c-4.2,1.6-7.4,3-10.7,6.3c-3.8,3.8-5.3,9.1-5.2,14.4c0,0.1,0.2,0,0.2-0.1       c1-5.2,2.9-10.8,6.7-14.5C86.4,144.1,89.7,142.4,92.9,140.6C92.9,140.7,92.9,140.6,92.9,140.6z" />
				<path class="st6"
					d="M92.5,164c-2.6,3.5-13,7.9-16.4,4.6c0,0-0.1,0-0.1,0.1C79.4,173.9,90.1,168,92.5,164       C92.6,163.9,92.5,163.9,92.5,164z" />
			</g>
		</g>
		<g>
			<g>
				<path class="st5"
					d="M100.5,162.7c0.5,1.2,1.3,2.4,2.5,3.6c2.8,2.8,7.8,4.3,11.5,5.2c4.6,1.1,6.9-0.3,6.8-5.6       c-0.1-5.2-1.2-10.6-3.5-15.3c-2.2-4.5-5.3-7.3-9.5-9.3c0,0,0,0,0,0c-1.5-1-7.2-3.5-8.8-1.2c-0.9,1.3-0.9,2.7-0.6,4.2       c0.1,0.8,0.3,1.6,0.4,2.5c0.6,2,0.9,4.1,0.8,6.3C99.9,156.4,100,159.4,100.5,162.7z" />
				<path class="st6"
					d="M101.3,163.2c-1.6-3.5-1.1-8-0.7-11.8c-0.1-1.3-0.3-2.6-0.5-3.9c-0.7-2.3-1.6-5.3-0.5-6.9       c1.3-2,4.3-0.9,6.5-0.1c2.7,1.1,5.3,2.7,6.3,3.5c3.6,2.7,5.3,6.7,6.8,11c1.2,3.4,1.8,7.1,1.8,10.8c0,3.8-1.2,6.5-5.2,5.6       c-1.7-0.4-3.5-0.9-5.2-1.5C106.8,168.6,103,166.9,101.3,163.2z" />
				<path class="st7"
					d="M99.5,140.6c1.1-1.7,3.5-1.1,5.7-0.4c-1.2-0.3-2.4-0.4-3.4,0.2c-2.1,1.3,0.1,4.8,0.5,6.4       c0.8,3.8,0.2,7.9,1.5,11.6c1,2.8,2.8,4.8,5.6,5.9c2,0.9,7,3.2,9.1,1.4c1.9-1.5,1.7-4.7,1.4-6.9c-0.2-1.7-0.6-3.4-1.1-5.1       c0.1,0.4,0.3,0.8,0.4,1.1c1.2,3.4,1.8,7.1,1.8,10.8c0,3.8-1.2,6.5-5.2,5.6c-1.7-0.4-3.5-0.9-5.2-1.5c-3.8-1.3-7.6-3.1-9.2-6.7       c-1.6-3.5-1.1-8-0.7-11.8c-0.1-1.3-0.3-2.6-0.5-3.9C99.4,145.2,98.5,142.2,99.5,140.6z" />
			</g>
			<g class="st8">
				<g>
					<path class="st6"
						d="M116.4,168.6C116.4,168.7,116.4,168.7,116.4,168.6C116.5,168.7,116.4,168.7,116.4,168.6z" />
					<path class="st6"
						d="M110.5,153.9c1.2,0.8,2.2,1.6,3.2,2.5c0,0,0.1,0,0.2,0.1c0,0.1,0.1,0.1,0.1,0.2c0.2,0.1,0.3,0.3,0.5,0.4        c1.2,0.4,2.3,0.8,3.2,1.5c1.1,0.8,1.7,1.9,2.2,3.1c0,0,0,0,0,0c-0.8-1.3-1.5-2.4-2.9-3.2c-0.6-0.3-1.3-0.6-1.9-0.8        c2.4,2.3,4,5,4.5,8.9c0,0,0,0,0,0c-0.3-1.3-0.7-2.5-1.2-3.6c0,0.2,0,0.4,0,0.6c0,1.1-0.1,2.5,0.2,3.6c0,0,0,0,0,0        c-0.6-1.5-0.3-3.3-0.5-4.9c-0.9-1.7-2.1-3.2-3.5-4.5c0.3,1,0.4,2,0.4,3.1c0,1.8-0.2,6.2,1.4,7.8c-1.1-1-1.5-2.6-1.7-4.4        c-0.2,0.6-0.4,1.2-0.6,1.8c-0.3,1.1-0.4,2.2-0.3,3.4c0,0,0,0,0,0c-0.4-2,0.1-4,0.9-5.8c-0.2-2.3-0.1-4.8-0.7-6.4        c0,0-0.1-0.1-0.1-0.1c-0.1,0-0.2-0.1-0.2-0.1c0,0-0.1-0.1,0-0.1c-1-0.9-2-1.8-3.2-2.8C110.4,153.9,110.4,153.8,110.5,153.9z" />
					<path class="st6"
						d="M117.2,169.3c-0.1-0.1-0.2-0.1-0.4-0.2C117,169.1,117.1,169.1,117.2,169.3        C117.3,169.2,117.3,169.3,117.2,169.3z" />
					<path class="st6" d="M116.7,168.9c0.1,0,0.1,0.1,0.2,0.1C116.8,169,116.8,169,116.7,168.9z" />
					<path class="st6" d="M116.5,168.7c0.1,0.1,0.2,0.1,0.2,0.2C116.6,168.9,116.5,168.8,116.5,168.7z" />
				</g>
				<path class="st6"
					d="M109.8,153.4c1.4,0.4,2.8,0.1,4.2,0.6c1.6,0.6,2.9,1.4,4,2.6c0,0,0,0,0,0c-1.5-1.3-3.3-2.2-5.2-2.6       c-1-0.2-2.1-0.1-3.1-0.5C109.8,153.5,109.7,153.3,109.8,153.4z" />
				<path class="st6"
					d="M100.9,147.2c0.4,0.2,0.9,0.3,1.3,0.3c1.8-0.2,2.9-1.9,4.5-2.7c1.4-0.7,2.7-0.8,4.2-0.6c0,0,0,0,0,0       c-1.4-0.1-2.9,0.2-4.2,0.9c0.2,0,0.3,0,0.4,0.1c1,0.2,1.8,0.3,2.8,0.1c0,0,0,0,0,0c-0.6,0.2-1.2,0.3-1.9,0.3       c-0.3,0-0.6-0.1-0.9-0.2c-0.3-0.1-0.6,0-0.9,0c-0.4,0.2-0.8,0.5-1.1,0.9c-0.6,0.6-1.2,1.1-2,1.3c2.3,0,4.7-0.9,6.9-0.7       c2.4,0.2,5,1.3,6.3,3.5c0,0,0,0,0,0c-1.3-1.7-3-2.5-4.9-2.8c0.2,0.2,0.5,0.4,0.7,0.6c0.5,0.4,1,0.8,1.5,1.1       c0.4,0.3,0.9,0.7,1.4,0.8c0,0,0,0,0,0c-0.6,0-1.3-0.5-1.8-0.8c-0.5-0.3-0.9-0.6-1.3-1c-0.4-0.3-0.7-0.6-1.1-0.8       c-1.9-0.2-4,0-5.8,0.2c-0.9,0.1-2,0.2-2.9,0c-0.2,0-0.4,0-0.5-0.1c0,0-0.1-0.1-0.1-0.1c-0.2-0.1-0.4-0.2-0.6-0.3       C100.8,147.3,100.8,147.1,100.9,147.2z" />
				<path class="st6"
					d="M99.6,145.8c1.1-0.3,1.3-1.4,1.8-2.2c0.3-0.7,0.9-1.2,1.5-1.6c1-0.8,2.6-0.8,3.7-0.3c0,0,0.1,0.1,0,0.1       c-2.1-0.5-3.8,0.2-4.9,2c-0.2,0.3-0.3,0.5-0.5,0.8c0.4-0.3,0.8-0.3,1.5-0.2c1.8,0.1,3.6,0,4.9-1.5c0,0,0,0,0,0       c-0.6,0.8-1.4,1.5-2.4,1.7c-0.7,0.1-1.4,0.2-2.1,0.1c-1-0.1-1.5-0.1-2.3,0.4C100.6,145.4,100.3,145.7,99.6,145.8       C99.6,145.8,99.6,145.8,99.6,145.8z" />
				<path class="st6"
					d="M101.3,157C101.3,157,101.3,157,101.3,157c0.1-0.7,0.7-1.3,1.2-1.7c0.3-0.3,0.7-0.5,1-0.8       c0.2-0.1,0.3-0.3,0.3-0.5c-0.1-1.2-0.4-2.4-1.2-3.8c0,0,0,0,0,0c1,1.3,1.9,3,1.8,4.7c0,0.8-0.1,1.4-0.3,2.1       c0.7,1.2,0.4,2.7,0,4c0,0,0,0,0,0c0.2-1.2,0.3-2.4-0.1-3.6c0,0.2-0.1,0.3-0.1,0.5c-0.8,2.7-1.1,4.5-0.2,7.3       c0,0.1-0.1,0.1-0.1,0c-0.9-2-1-3.7-0.6-5.8c0.1-0.5,0.2-1,0.3-1.4c-0.2,0.2-0.3,0.4-0.5,0.7c-0.9,1.3-1.4,2.7-1.2,4.3       c0,0,0,0,0,0c-0.2-1.3-0.1-2.4,0.5-3.5c0.4-0.8,0.9-1.4,1.3-2.1c0.2-1,0.3-1.9,0.3-2.8C103.2,155.4,101.7,155.8,101.3,157z" />
				<path class="st6"
					d="M108.7,159.9c-0.6-1.1-1.2-2.2-1.6-3.4c0-0.1,0.1-0.1,0.1,0c1.9,3.7,5.5,7.6,3,11.9c0,0,0,0,0,0       c1.5-3.2,0.1-5.5-1.3-7.9c0.1,0.8-0.1,1.6-0.3,2.4c-0.3,1.4-0.4,2.7-0.1,4.1c0,0,0,0,0,0c-0.2-0.9-0.3-1.9-0.2-2.8       C108.3,162.7,108.8,161.3,108.7,159.9z" />
			</g>
			<g>
				<path class="st6"
					d="M103.2,140.6c4.2,1.6,7.4,3,10.7,6.3c3.8,3.8,5.3,9.1,5.2,14.4c0,0.1-0.2,0-0.2-0.1       c-1-5.2-2.9-10.8-6.7-14.5C109.6,144.1,106.4,142.4,103.2,140.6C103.2,140.7,103.2,140.6,103.2,140.6z" />
				<path class="st6"
					d="M103.5,164c2.6,3.5,13,7.9,16.4,4.6c0,0,0.1,0,0,0.1C116.6,173.9,105.9,168,103.5,164       C103.4,163.9,103.5,163.9,103.5,164z" />
			</g>
		</g>
		<g>
			<g>
				<path class="st9"
					d="M119.1,163.1c-0.1-0.9-0.3-1.8-0.5-2.8c-1.5-3.4-4.7-6-8.1-8c-0.3-0.2-0.6-0.5-0.9-0.7       c-0.8-0.9-1.6-1.7-2.5-2.5c0,0,0,0,0,0c1,0.2,2.1,0.2,3.1,0.3c0.6,0.1,1.2,0.1,1.8,0.2c0.2,0.5,0.8,0.9,1.2,1.3       c0.7,0.6,1.5,1.1,2.2,1.6c0,0,0,0,0,0c-1.1-0.9-2.4-1.8-3.2-2.9c1.3,0.2,2.5,0.6,3.6,1.3c0,0,0,0,0.1,0.1       c-0.3-0.3-0.7-0.7-1.1-1c-2.9-1.6-6.7-1.6-9.9-2.8c-2.1-1.7-4.2-3.4-5-6c-0.9-2.9-0.8-6.1-0.7-9.1v0c0,0,0-0.1,0-0.1       c-0.1-0.2-0.2-0.4-0.2-0.7c0-0.1-0.1-0.1-0.2-0.2c-0.3-0.2-0.7-0.2-1.1-0.1c-0.2,0.1-0.5,0.2-0.6,0.4c0,0,0-0.1,0-0.1       c-0.1,0.1-0.1,0.3-0.2,0.4c0,0.1,0,0.1,0,0.2c0,0,0,0,0,0.1c0,0.1,0,0.2,0,0.2c0,0.2-0.1,0.5,0,0.7c0.1,2.8,0.1,5.6-0.7,8.2       c-0.8,2.6-2.9,4.3-5,6c-3.2,1.2-7,1.2-9.9,2.8c-0.4,0.3-0.8,0.6-1.1,1c0,0,0,0,0.1-0.1c1.1-0.7,2.3-1.1,3.6-1.3       c-0.8,1.1-2.2,2-3.2,2.9v0c0.8-0.6,1.5-1,2.2-1.6c0.4-0.4,1-0.8,1.2-1.3c0.6-0.1,1.2-0.2,1.8-0.2c1-0.1,2.1-0.1,3.1-0.3       c0,0,0,0,0,0c-0.9,0.8-1.7,1.6-2.5,2.5c-0.3,0.2-0.6,0.5-0.9,0.7c-3.4,2-6.6,4.6-8.1,8c-0.3,0.9-0.5,1.8-0.5,2.8       c0.9-4.2,4.2-7.3,7.8-9.9c-0.1,0.1-0.2,0.2-0.3,0.3c-0.5,0.6-0.8,1.3-1,1.9c-0.5,0.8-1,1.7-1.4,2.6c-0.4,1.1-0.7,2.3-0.9,3.5       c0.1-0.2,0.2-0.5,0.3-0.7c0.5-1.6,1.1-3.1,1.9-4.6c0,0.2,0,0.5,0,0.8c0,0.4,0,0.9-0.1,1.3c0,1.6-0.2,3.2-0.4,4.8       c0.2-0.5,0.3-1.1,0.5-1.6c0.1-0.5,0.1-0.9,0.2-1.4c0-0.5,0-0.9,0-1.4c0-0.5,0.1-1,0.1-1.5c0-0.4,0.1-0.8,0.2-1.2       c1-2.7,4.2-5,7-6.4c-0.2,0.2-0.5,0.3-0.7,0.5c-0.8,0.7-1.5,1.6-2,2.5c-2.1,3.2-2.4,7.2-0.9,10.8c0.2,0.3,0.4,0.6,0.6,0.8       c-0.4-2.5-0.4-4.9,0.1-7.1c0,0.6,0.1,1.2,0.3,2c0.3,1.3,1,2.5,1.3,3.9c0-0.5-0.1-1.1-0.3-1.6c-0.1-0.3-0.2-0.7-0.3-1       c-0.6-1.3-1.2-2.9-0.8-4.2c0.2-0.6,0.4-1.2,0.7-1.7c0.7-1.4,1.5-2.6,2.7-3.9c1.7-1.9,4.2-3.1,5.5-5.2c0-0.1,0.1-0.2,0.1-0.3       c0.3-0.4,0.6-0.9,0.8-1.4c0.1,0.2,0.2,0.5,0.3,0.7c0.4,0.7,0.9,1.3,1.4,1.9c1.3,1.6,3.3,2.7,4.8,4.3c1.2,1.2,2,2.5,2.7,3.9       c0.3,0.5,0.6,1.1,0.7,1.7c0.4,1.4-0.2,2.9-0.8,4.2c-0.1,0.3-0.2,0.7-0.3,1c-0.2,0.6-0.2,1.1-0.3,1.6c0.4-1.3,1.1-2.6,1.3-3.9       c0.2-0.8,0.3-1.4,0.3-2c0.5,2.2,0.6,4.6,0.1,7.1c0.2-0.3,0.4-0.5,0.6-0.8c1.5-3.6,1.1-7.6-0.9-10.8c-0.5-0.9-1.2-1.8-2-2.5       c-0.2-0.2-0.4-0.4-0.7-0.5c2.7,1.4,5.9,3.7,7,6.4c0.1,0.4,0.2,0.8,0.2,1.2c0,0.5,0.1,1,0.1,1.5c0,0.5,0,0.9,0,1.4       c0,0.5,0.1,0.9,0.2,1.4c0.1,0.5,0.3,1.1,0.5,1.6c-0.2-1.6-0.3-3.1-0.4-4.8c0-0.4,0-0.9-0.1-1.3c0-0.3,0-0.5,0-0.8       c0.8,1.4,1.4,2.9,1.9,4.6c0.1,0.2,0.2,0.5,0.3,0.7c-0.2-1.2-0.5-2.4-0.9-3.5c-0.4-0.9-0.9-1.7-1.4-2.6c-0.2-0.6-0.5-1.2-1-1.9       c-0.1-0.1-0.2-0.2-0.3-0.3C115,155.8,118.2,158.9,119.1,163.1z" />
				<path class="st10"
					d="M97.1,131.9c0.1-0.4,0.4-0.4,0.7-0.5c0.3,0,0.6,0.1,0.8,0.3c0.1,0.1,0.2,0.3,0.3,0.4c0,0.4,0,0.7-0.1,1.1       c-0.1,0-0.2,0.1-0.3,0.1c-0.3,0.1-0.7,0-1,0c-0.2,0-0.4-0.1-0.5-0.2c0-0.3,0-0.7-0.1-1C97.1,132,97.1,131.9,97.1,131.9z" />
				<path class="st10"
					d="M97.7,136.7c0.4,0.1,0.8,0,1.2-0.2c0,0.3,0,0.5,0,0.8c-0.3,0.2-0.5,0.3-1,0.3c-0.3,0-0.6-0.1-0.7-0.4       c0-0.3,0-0.6,0-0.8C97.3,136.6,97.5,136.7,97.7,136.7z" />
				<path class="st10"
					d="M97.2,135c0.2,0.2,0.5,0.2,0.8,0.3c0.1,0,0.5,0,0.8-0.1c0,0.4,0,0.7,0,1.1c0,0,0,0,0,0       c-0.2,0.2-0.5,0.2-0.8,0.2c-0.4,0-0.7-0.1-0.8-0.4C97.2,135.7,97.2,135.4,97.2,135z" />
				<path class="st10"
					d="M98.8,134.9c-0.3,0.2-0.8,0.2-1.2,0.1c-0.3-0.1-0.4-0.3-0.5-0.5c0-0.3,0-0.7,0-1c0.1,0.1,0.1,0.1,0.2,0.1       c0.1,0.1,1.1,0.1,1.5,0C98.9,134,98.8,134.4,98.8,134.9z" />
				<path class="st10"
					d="M97.2,137.6c0.1,0.2,0.3,0.3,0.6,0.3c0.4,0.1,0.8,0,1.2-0.3c0,0.3,0,0.6,0.1,0.8c-0.3,0.3-0.6,0.4-1,0.4       c-0.3,0-0.7-0.1-0.9-0.4C97.1,138.1,97.1,137.9,97.2,137.6z" />
				<path class="st10"
					d="M97,138.7c0.3,0.6,1.5,0.5,2,0c0,0.4,0.1,0.7,0.2,1c0,0,0,0,0,0c-0.3,0.8-2,0.8-2.3-0.1       C96.9,139.4,97,139.1,97,138.7z" />
				<path class="st10"
					d="M96.8,140c0.1,0.5,0.7,0.6,1.2,0.6c0.4,0,1-0.2,1.2-0.6c0.1,0.4,0.2,0.9,0.4,1.3c0,0,0,0-0.1,0       c-0.3,0.3-1,0.4-1.4,0.4c-0.5,0-1.3,0-1.7-0.5C96.6,140.9,96.7,140.4,96.8,140z" />
				<path class="st10"
					d="M96.4,141.4c0.3,0.6,1.2,0.6,1.8,0.6c0.3,0,1.2-0.2,1.4-0.5c0.1,0.2,0.2,0.5,0.3,0.7       c-0.5,0.6-1.2,0.9-2,0.9c0,0,0,0,0,0c0,0,0,0,0,0c0,0,0,0,0,0c-0.6,0-1.4-0.4-1.8-1C96.2,141.9,96.3,141.7,96.4,141.4z" />
				<path class="st10"
					d="M97.7,143.6c-0.2,0.4-0.3,0.7-0.5,1.1c-2.2,4-7.3,5.9-9,10.4c-0.8,2.2-1.3,4.7-1,7.1       c-0.7-3.2-0.5-6.4,1.1-9.2c0.9-1.2,1.7-2.2,2.9-3.2c0.1-0.1,0.1-0.1,0.2-0.2c0,0,0-0.1,0.1-0.1c0.1-0.1,0.2-0.3,0.3-0.4       c0,0,0,0,0,0c-1.6,0.6-3.2,1.9-4.5,2.8c-1.4,1-3,2.5-3.5,4.2c0,0,0,0.1,0,0.1c0.1-0.3,0.1-0.8,0.2-1.1c0.6-1.8,1.3-1.8,2.1-2.8       c0.1-0.1,1.9-1.8,3.2-2.8c0.2-0.2,0.3-0.4,0.5-0.6c0,0,0.1,0,0.1-0.1c-0.2,0-0.3,0-0.5,0c-2.2,0.3-4.6,0.3-6.8,1.1       c1-0.4,2.1-0.7,3.3-1c1.2-0.3,2.4-0.4,3.6-0.7c0,0,0.1,0,0.1,0c0.3-0.1,0.7-0.2,1-0.3c0,0,0,0-0.1,0.1c0.3-0.1,0.6-0.2,0.9-0.3       c1.4-1.1,2.9-2.2,3.9-3.7c0.3-0.5,0.6-1,0.8-1.6c0.1,0.7,1,1.1,1.7,1.1C97.7,143.5,97.7,143.5,97.7,143.6       C97.7,143.6,97.7,143.6,97.7,143.6z" />
				<path class="st10"
					d="M112.2,155c0.1,0.3,0.1,0.8,0.2,1.1c0,0,0-0.1,0-0.1c-0.5-1.8-2.1-3.2-3.5-4.2c-1.3-0.9-2.9-2.2-4.5-2.8       c0,0,0,0,0,0c0.1,0.1,0.2,0.3,0.3,0.4c0,0,0,0.1,0.1,0.1c0.1,0.1,0.2,0.1,0.2,0.2c1.1,1,2,2.1,2.9,3.2c1.6,2.8,1.8,6,1.1,9.2       c0.2-2.4-0.2-4.9-1-7.1c-1.8-4.5-6.9-6.4-9-10.4c-0.3-0.4-0.5-0.8-0.7-1.2c0.7,0,1.6-0.4,1.9-1c0.2,0.5,0.5,1,0.7,1.4       c1,1.5,2.5,2.6,3.9,3.7c0.3,0.1,0.6,0.2,0.9,0.3c0,0,0,0-0.1-0.1c0.3,0.1,0.7,0.2,1,0.3c0,0,0.1,0,0.1,0       c1.2,0.3,2.4,0.4,3.6,0.7c1.2,0.3,2.3,0.6,3.3,1c-2.1-0.7-4.5-0.8-6.8-1.1c-0.2,0-0.3,0-0.5,0c0,0,0.1,0,0.1,0.1       c0.2,0.2,0.3,0.4,0.5,0.6c1.3,1,3.1,2.8,3.2,2.8C110.9,153.3,111.6,153.3,112.2,155z" />
			</g>
			<path class="st10"
				d="M106,151.4c-2.4-2.6-5.2-4.4-7-7.5c0,0,0,0,0,0c1.2,2.4,2.9,4.3,5,6c2.8,2.3,4.2,5.1,5,8.6      c0,0.1,0.1,0,0.1,0C108.7,155.8,107.8,153.4,106,151.4z" />
			<path class="st10"
				d="M96.7,141.8c-1.3,2.9-3.3,4.8-6.1,6.2c0,0,0,0.1,0,0C93.7,146.9,95.7,144.9,96.7,141.8      C96.8,141.8,96.8,141.8,96.7,141.8z" />
			<path class="st10"
				d="M88.5,150.4c-0.7,0.5-1.3,0.8-2,1.4c-0.6,0.5-1.1,1.1-1.6,1.7c0,0,0,0.1,0,0c0.6-0.5,1.1-1.2,1.7-1.6      c0.3-0.2,0.5-0.5,0.8-0.7C87.8,150.9,88.2,150.7,88.5,150.4C88.5,150.4,88.5,150.4,88.5,150.4z" />
			<path class="st10"
				d="M88.7,152.5c-1.4,2.3-2,4.6-1.7,7.3c0,0,0.1,0,0.1,0C87,157.2,87.5,154.8,88.7,152.5      C88.8,152.5,88.7,152.5,88.7,152.5z" />
			<path class="st10"
				d="M97.5,132.8C97.5,132.7,97.5,132.8,97.5,132.8c-0.2,2.7-0.2,5.3-0.4,8c0,0.1,0.1,0,0.1,0      C97.7,138,97.7,135.5,97.5,132.8z" />
			<path class="st10"
				d="M107.3,150.4C107.3,150.4,107.2,150.4,107.3,150.4c1.3,1.2,2.6,2.3,3.8,3.6c0,0,0.1,0,0.1-0.1      C110.2,152.4,108.8,151.4,107.3,150.4z" />
			<path class="st10"
				d="M99.2,142c1.3,3,3.4,5.2,6.5,5.6c-0.3-0.1-0.6-0.2-1-0.3c-2.1-1.7-4.2-3.4-5-6c-0.9-2.9-0.8-6.1-0.7-9.1      l0,0c0,0,0-0.1,0-0.1c-0.1-0.2-0.2-0.4-0.2-0.7c0-0.1-0.1-0.1-0.2-0.2c-0.1-0.1-0.3-0.1-0.4-0.2C98.1,134.7,97.7,138.6,99.2,142      z" />
			<path class="st10"
				d="M98,142.2c-1.5,3.5-5,5.3-7.3,8.3c-2.6,3.4-4,7.6-3.1,11.6c-0.1-1.7,0-3.3,0.4-4.8c0,0.6,0.1,1.2,0.2,2      c0.3,1.3,1,2.5,1.3,3.9c0-0.5-0.1-1.1-0.3-1.6c-0.1-0.3-0.2-0.7-0.3-1c-0.6-1.3-1.2-2.9-0.8-4.2c0.2-0.6,0.4-1.2,0.8-1.7      c0.7-1.4,1.5-2.6,2.7-3.9c1.7-1.9,4.2-3.1,5.5-5.2c0-0.1,0.1-0.2,0.1-0.3c0.3-0.4,0.5-0.8,0.7-1.3C97.9,143.3,98,142.7,98,142.2      z" />
		</g>
	</g>
</svg>