<svg id="neck" enable-background="new 0 0 300 300" height="512" viewBox="0 0 300 300" width="512" xmlns="http://www.w3.org/2000/svg"><g><circle cx="186" cy="152.004" fill="#eaeaea" r="86"/><circle cx="48" cy="186.004" fill="#4c241d" r="4"/><path d="m252.18 50.449c-1.023 0-2.047-.391-2.828-1.172-1.562-1.562-1.562-4.094 0-5.656l11.793-11.793c1.562-1.562 4.094-1.562 5.656 0s1.562 4.094 0 5.656l-11.793 11.793c-.782.781-1.805 1.172-2.828 1.172z" fill="#4c241d"/><path d="m263.973 50.449c-1.023 0-2.047-.391-2.828-1.172l-11.793-11.793c-1.562-1.562-1.562-4.094 0-5.656s4.094-1.562 5.656 0l11.793 11.793c1.562 1.562 1.562 4.094 0 5.656-.782.781-1.805 1.172-2.828 1.172z" fill="#4c241d"/><path d="m272 250.004-36.581-17.071c-14.287-6.668-23.419-21.007-23.419-36.773v-50.157h-124v50.157c0 15.766-9.132 30.105-23.419 36.772l-36.581 17.072 77.042 14.911c31.008 6.002 62.889 5.903 93.859-.291z" fill="#e66353"/><path d="m271.996 254.004c-.566 0-1.141-.121-1.688-.375l-36.582-17.07c-15.628-7.297-25.726-23.153-25.726-40.399v-46.156h-116v46.156c0 17.246-10.098 33.102-25.727 40.398l-36.582 17.07c-2.002.926-4.381.066-5.316-1.934-.934-2-.068-4.383 1.934-5.316l36.582-17.07c12.824-5.984 21.109-18.996 21.109-33.148v-50.156c0-2.211 1.791-4 4-4h124c2.211 0 4 1.789 4 4v50.156c0 14.152 8.285 27.164 21.109 33.148l36.582 17.07c2.004.934 2.867 3.316 1.934 5.316-.68 1.454-2.121 2.31-3.629 2.31z" fill="#4c241d"/><g><path d="m86 92.004s-14-18-24-8c-5.657 5.657 0 32 0 32s4 8 8 16 16 4 16 4" fill="#ffded5"/><path d="m79.574 141.043c-5 0-10.367-1.68-13.152-7.25l-8-16c-.15-.301-.262-.621-.332-.949-1.436-6.68-5.596-28.992 1.082-35.668 2.977-2.977 6.664-4.418 10.611-4.168 9.826.609 18.426 11.32 19.375 12.539 1.354 1.742 1.041 4.25-.699 5.609-1.744 1.359-4.256 1.043-5.613-.691-1.842-2.355-8.291-9.152-13.568-9.473-1.713-.125-3.094.48-4.449 1.84-2.127 2.129-1.65 15.312.979 27.84l7.771 15.543c2.354 4.707 11.082 2.02 11.17 1.988 2.105-.672 4.355.465 5.045 2.551.689 2.094-.438 4.348-2.527 5.043-2.074.691-4.822 1.246-7.693 1.246z" fill="#4c241d"/></g><g><path d="m215.486 92.004s14-18 24-8c5.657 5.657 0 32 0 32s-4 8-8 16-16 4-16 4" fill="#ffded5"/><path d="m221.91 141.043c-2.871 0-5.621-.555-7.691-1.246-2.094-.695-3.227-2.961-2.527-5.059.699-2.094 2.949-3.234 5.059-2.527.074.023 8.797 2.707 11.156-1.996l7.77-15.543c2.629-12.531 3.105-25.715.98-27.84-1.359-1.363-2.809-1.945-4.457-1.84-5.312.328-11.73 7.117-13.559 9.469-1.355 1.742-3.863 2.066-5.613.699-1.742-1.355-2.059-3.867-.699-5.613.945-1.219 9.547-11.93 19.375-12.539 3.938-.25 7.637 1.191 10.609 4.168 6.68 6.676 2.52 28.988 1.082 35.668-.07.328-.184.648-.332.949l-8 16c-2.786 5.566-8.153 7.25-13.153 7.25z" fill="#4c241d"/></g><g fill="#4c241d"><path d="m159.996 258.004c-.621 0-1.25-.145-1.84-.449-1.961-1.02-2.723-3.438-1.707-5.395l52-100c1.02-1.965 3.43-2.727 5.395-1.707 1.961 1.02 2.723 3.438 1.707 5.395l-52 100c-.715 1.371-2.11 2.156-3.555 2.156z"/><path d="m172 262.004c-1.234 0-2.426-.574-3.195-1.594-.996-1.324-1.074-3.121-.195-4.527l40-64c1.168-1.875 3.633-2.445 5.512-1.27 1.871 1.168 2.441 3.637 1.27 5.512l-34.484 55.172 17.996-5.141c.473-.137.965-.188 1.461-.137l44 4c2.199.199 3.82 2.145 3.621 4.348-.203 2.199-2.102 3.844-4.348 3.621l-43.254-3.934-27.285 7.797c-.365.102-.732.153-1.099.153z"/><path d="m179.996 218.004c-1.961 0-3.672-1.438-3.957-3.434l-4-28c-.312-2.188 1.207-4.215 3.395-4.527 2.18-.324 4.215 1.207 4.527 3.395l4 28c.312 2.188-1.207 4.215-3.395 4.527-.191.027-.383.039-.57.039z"/><path d="m120.006 218.004c-.189 0-.379-.012-.572-.039-2.186-.312-3.705-2.34-3.393-4.527l4-28c.312-2.191 2.336-3.719 4.525-3.395 2.186.312 3.705 2.34 3.393 4.527l-4 28c-.285 1.996-1.996 3.434-3.953 3.434z"/><path d="m200.004 254.004c-.297 0-.602-.031-.902-.102-2.152-.496-3.496-2.645-3-4.797l10.773-46.691c.496-2.152 2.66-3.496 4.797-3 2.152.496 3.496 2.645 3 4.797l-10.773 46.691c-.426 1.852-2.075 3.102-3.895 3.102z"/><path d="m140.004 258.004c-1.445 0-2.84-.785-3.553-2.156l-52-100c-1.02-1.957-.256-4.375 1.703-5.395 1.965-1.016 4.375-.254 5.395 1.707l52.002 100c1.016 1.957.254 4.375-1.707 5.395-.586.304-1.219.449-1.84.449z"/><path d="m128 262.004c-.365 0-.734-.051-1.1-.152l-27.281-7.797-43.258 3.934c-2.197.227-4.145-1.422-4.346-3.621-.199-2.203 1.422-4.148 3.623-4.348l44-4c.488-.043.986.004 1.461.137l17.992 5.141-34.484-55.172c-1.17-1.875-.602-4.344 1.273-5.512 1.875-1.172 4.342-.602 5.512 1.27l40 64c.877 1.406.799 3.203-.197 4.527-.767 1.019-1.959 1.593-3.195 1.593z"/><path d="m99.996 254.004c-1.82 0-3.467-1.25-3.895-3.102l-10.775-46.691c-.496-2.152.846-4.301 2.998-4.797 2.139-.504 4.299.844 4.799 3l10.775 46.691c.496 2.152-.846 4.301-2.998 4.797-.303.071-.605.102-.904.102z"/></g><g><path d="m76 50.004 7.476 94.165c.003.042.006.084.009.126.493 6.56 6.782 11.047 13.268 9.947 15.945-2.705 34.059-4.238 53.247-4.238s37.302 1.533 53.247 4.238c6.486 1.1 12.775-3.386 13.268-9.947.003-.042.006-.084.009-.126l7.476-94.165" fill="#ffded5"/><path d="m94.791 158.406c-3.473 0-6.881-1.148-9.637-3.305-3.334-2.609-5.346-6.34-5.658-10.504l-7.484-94.277c-.174-2.203 1.469-4.129 3.672-4.305 2.219-.16 4.129 1.473 4.305 3.672l7.477 94.164c.15 2.039 1.078 3.742 2.619 4.949 1.68 1.312 3.863 1.863 5.998 1.496 33.148-5.617 74.684-5.617 107.832 0 2.137.371 4.324-.18 6.004-1.5 1.539-1.203 2.469-2.906 2.609-4.801l7.484-94.309c.176-2.199 2.043-3.828 4.305-3.672 2.203.176 3.848 2.102 3.672 4.305l-7.477 94.164c-.32 4.277-2.328 8.008-5.664 10.613-3.445 2.699-7.91 3.828-12.27 3.09-32.285-5.477-72.883-5.477-105.158 0-.873.15-1.754.22-2.629.22z" fill="#4c241d"/></g><path d="m148 154.004c-2.211 0-4-1.789-4-4v-12c0-2.211 1.789-4 4-4s4 1.789 4 4v12c0 2.211-1.789 4-4 4z" fill="#4c241d"/><g><path d="m136 74.004v4l12 4 12-4v-4" fill="#ffded5"/><path d="m148 86.004c-.426 0-.855-.07-1.266-.207l-12-4c-1.633-.543-2.734-2.07-2.734-3.793v-4c0-2.211 1.791-4 4-4s4 1.789 4 4v1.117l8 2.668 8-2.668v-1.117c0-2.211 1.789-4 4-4s4 1.789 4 4v4c0 1.723-1.102 3.25-2.734 3.793l-12 4c-.411.136-.84.207-1.266.207z" fill="#4c241d"/></g><g><path d="m128 110.004 16-4 4 4 4-4 16 4" fill="#ffded5"/><path d="m168.004 114.004c-.32 0-.648-.039-.973-.121l-13.805-3.449-2.398 2.398c-1.562 1.562-4.094 1.562-5.656 0l-2.398-2.398-13.803 3.449c-2.135.547-4.314-.762-4.852-2.91-.535-2.141.768-4.312 2.91-4.848l16.002-4c1.355-.348 2.805.059 3.797 1.051l1.172 1.172 1.172-1.172c.992-.992 2.441-1.398 3.797-1.051l16 4c2.145.535 3.449 2.707 2.91 4.848-.453 1.82-2.082 3.031-3.875 3.031z" fill="#e66353"/></g><path d="m157.39 258.004h-14.781c-1.812 0-3.398-1.219-3.865-2.973l-26.609-100c-.568-2.133.701-4.324 2.836-4.895 2.141-.551 4.326.703 4.895 2.84l25.818 97.027h8.633l25.816-97.027c.57-2.141 2.793-3.387 4.895-2.84 2.137.57 3.406 2.762 2.84 4.895l-26.609 100c-.47 1.754-2.056 2.973-3.869 2.973z" fill="#4c241d"/><path d="m156 186.004h-12c-1.336 0-2.586-.668-3.328-1.781l-8-12c-1.225-1.84-.729-4.32 1.109-5.547s4.318-.73 5.547 1.109l6.812 10.219h7.719l6.812-10.219c1.223-1.84 3.703-2.336 5.547-1.109 1.84 1.227 2.336 3.707 1.109 5.547l-8 12c-.741 1.113-1.991 1.781-3.327 1.781z" fill="#4c241d"/></g></svg>