			<svg version="1.1" id="Layer_1" xmlns="http://www.w3.org/2000/svg" xmlns:xlink="http://www.w3.org/1999/xlink"
				x="0px" y="0px" viewBox="0 0 256.5 381" style="enable-background:new 0 0 256.5 381;" xml:space="preserve">
				<style type="text/css">
					.st0 {
						fill: #F4D9BF;
					}

					.st1 {
						opacity: 0.7;
						fill: #F4D9BF;
						enable-background: new;
					}

					.st2 {
						fill: #C39368;
					}

					.st3 {
						opacity: 0.8;
						fill: #F4D9BF;
						enable-background: new;
					}

					.st4 {
						opacity: 0.5;
						fill: #F4D9BF;
						enable-background: new;
					}

					.st5 {
						opacity: 0.5;
					}

					.st6 {
						fill: #E4003A;
					}

					.st7 {
						fill: #FFFF9A;
					}

					.st8 {
						fill: #05C8C3;
					}

					.st9 {
						fill: #0584C3;
					}

					.st10 {
						fill: #A62637;
					}

					.st11 {
						opacity: 0.6;
						fill: #E83F4C;
						enable-background: new;
					}

					.st12 {
						fill: #E83F4C;
					}

					.st13 {
						fill: #9C2637;
					}

					.st14 {
						fill: #C41B35;
					}

					.st15 {
						opacity: 0.5;
						fill: #0584C3;
						enable-background: new;
					}
				</style>
				<g>
					<g>
						<g>
							<g>
								<g>
									<path class="st0" d="M190.5,214.8c-2.5-6.9-7.6-9.2-7.6-9.2c-3.5-15.1-14.7-46.6-25.9-58.8c-11.2-12.2-30-14.6-30-14.6l0-5.6
						l-4,0l-4,0l0,5.6c0,0-18.8,2.5-30,14.7c-11.1,12.2-22.2,43.8-25.7,58.9c0,0-5.1,2.3-7.6,9.2s-0.8,12.6,1.4,12.6
						c0,0,0.9,3.8,3.5,4.1c0,0,1.5,2.8,4.2,2.3c0,0,2,2.2,3.4,0.5s-1.3-4.8-0.6-10.1c0.7-5.3,2.7-6.2,3.3-4c0.6,2.2-0.3,7.5,0.9,8.4
						c1.2,0.9,5.1-3.5,4-10.7s-3.7-8.6-3.7-8.6s4.1-34.2,26.9-56.4c0,0-5.2,30.8-2.6,62.5l0.1,4.1c0.1,4.9,0.7,23.2,3.4,41.2
						c0,0,5.1,47.3,2.5,50.8c-2.7,3.5-20.3,10.8-20.3,10.8s-1.5-0.9-2.3,1.1c-0.8,2,0.7,4.6,3.8,4c0,0,1.3,1.1,4.4,0.1
						c0,0,2.4,1.3,5.3-0.1c0,0,2.1,1.4,5.1,0.3c0,0,1.7,1.4,5.9,0c4.2-1.4,6.2-2.8,9.4-2.7c3.3,0.1,9.2-0.7,7.8-7.8
						c-1.4-7.1-2.5-4.8-2.2-11.9c0.2-7.1-0.2-44-0.2-44l0.6-31.3c1.1,0.4,3.4,0.9,6.9,0.1l0.7,31.2c0,0-0.3,36.9,0,44
						c0.3,7.1-0.8,4.8-2.2,11.9c-1.4,7.1,4.6,7.9,7.8,7.8c3.2-0.1,5.2,1.2,9.4,2.6c4.2,1.4,5.9,0,5.9,0c3,1.1,5.1-0.3,5.1-0.3
						c2.9,1.5,5.3,0.1,5.3,0.1c3.1,1,4.4-0.1,4.4-0.1c3.1,0.5,4.6-2.1,3.8-4.1s-2.3-1.1-2.3-1.1s-17.7-7.3-20.4-10.8
						c-2.7-3.5,2.3-50.8,2.3-50.8c3.1-21.1,3.3-42.5,3.3-42.5l0.3-6.6l0,0c1.8-30.4-3.1-58.7-3.1-58.7
						c22.8,22.1,27.1,56.4,27.1,56.4s-2.6,1.4-3.7,8.6c-1.1,7.2,2.8,11.6,4,10.6c1.2-0.9,0.3-6.2,0.9-8.4c0.6-2.2,2.6-1.3,3.3,4
						s-2,8.4-0.6,10.1c1.4,1.7,3.4-0.5,3.4-0.5c2.7,0.5,4.2-2.3,4.2-2.3c2.6-0.3,3.5-4.1,3.5-4.1C191.3,227.5,193,221.7,190.5,214.8
						z" />
									<path class="st1" d="M127,130.7l0-4l-8.1,0l0,3.7C121.3,131.3,124.2,131.2,127,130.7z" />
									<g>
										<g>
											<g>
												<g>
													<path class="st2" d="M182.5,226c0.4-3,0.1-6-1.2-8.7c0,0,0,0,0,0c1.4,2.6,1.8,5.4,1.6,8.3c-0.2,2.7-0.4,6.4-2.1,8.6
										c0,0-0.1,0-0.1-0.1C182,231.7,182.1,228.6,182.5,226z" />
													<path class="st2" d="M185,215.8C185,215.8,185.1,215.8,185,215.8c1.1,2.9,1.8,5.6,1.8,8.7c0.1,2.6-0.2,5.7-1.9,7.8
										c0,0-0.1,0-0.1-0.1C187.7,227.3,186.6,220.9,185,215.8z" />
													<path class="st2" d="M187.7,214.2C187.7,214.2,187.7,214.2,187.7,214.2c2.6,4.1,3,9.4,1.1,13.8c0,0-0.1,0-0.1,0
										C190.1,223.3,190.1,218.6,187.7,214.2z" />
												</g>
											</g>
											<path class="st2" d="M100.8,144.3c0,0-1.2,3.9-2,8.9C98.9,153.2,100.5,147.6,100.8,144.3z" />
											<path class="st2" d="M145,144.2c0,0,1.3,3.9,2,8.9C147.1,153.1,145.4,147.6,145,144.2z" />
											<g>
												<g>
													<path class="st2" d="M63.7,226.2c-0.4-3-0.1-6,1.1-8.8c0,0,0,0,0,0c-1.4,2.6-1.8,5.4-1.5,8.3c0.2,2.7,0.4,6.4,2.2,8.6
										c0,0,0.1,0,0.1-0.1C64.2,231.9,64.1,228.9,63.7,226.2z" />
													<path class="st2" d="M61.1,216.1C61.1,216,61.1,216,61.1,216.1c-1.1,2.9-1.8,5.6-1.8,8.7c0,2.6,0.2,5.7,1.9,7.7
										c0,0,0.1,0,0.1-0.1C58.5,227.5,59.5,221.2,61.1,216.1z" />
													<path class="st2" d="M58.4,214.5C58.5,214.4,58.4,214.4,58.4,214.5c-2.6,4.1-3,9.4-1,13.8c0,0,0.1,0,0.1,0
										C56.1,223.6,56.1,218.9,58.4,214.5z" />
												</g>
											</g>
										</g>
										<g>
											<g>
												<g>
													<path class="st2"
														d="M101.2,320.3c-1.2,0-2.8,0.4-3.6,1.4c-1.5,2-1.6,6.4,1.6,6.9c0,0,0.1-0.1,0-0.1
										c-2.5-1-2.8-4.2-1.5-6.3c0.9-1.4,2.9-1.6,4.3-1.5c1.2,0.1,1.8,0.6,2.7,1.1l0,0C103.7,320.8,102.7,320.3,101.2,320.3z" />
													<path class="st2" d="M91.3,322.6c-1.2,2,0.4,5.1,2.7,5.4c0,0,0.1-0.1,0-0.1c-2-0.5-3.2-3.1-2.6-5c0.8-2.6,3.7-2.1,5.7-1.7
										c0,0,0,0,0,0C94.9,320.4,92.6,320.4,91.3,322.6z" />
													<path class="st2" d="M86.4,323c-1,1.9,0,4.1,1.8,4.8c0,0,0.1,0,0,0c-1.3-0.9-2-1.8-2-3.4c0.1-2.3,2.6-3.9,4.6-2.5
										c0,0,0,0,0,0C89.3,320.6,87.3,321.4,86.4,323z" />
													<path class="st2" d="M82.6,323.6c-0.8,1.5,0,4,1.6,4.5c0,0,0.1,0,0-0.1c-1.2-0.7-1.9-2.1-1.7-3.5c0.2-1.9,2-2.8,3.6-2
										c0,0,0,0,0,0C84.9,321.4,83.2,322.4,82.6,323.6z" />
													<path class="st2"
														d="M82.8,322.6c-0.2-0.1-0.4-0.2-0.7-0.3c-0.3,0-0.8,0-1,0.1c-0.5,0.1-0.9,0.8-1.1,1.3c0,0,0,0,0.1,0
										c0.1-0.2,0.3-0.5,0.5-0.7c0.3-0.4,0.6-0.3,1-0.4C81.9,322.5,82.3,322.7,82.8,322.6C82.8,322.7,82.8,322.7,82.8,322.6z" />
												</g>
											</g>
										</g>
										<g>
											<g>
												<g>
													<path class="st2" d="M145.5,320.2c1.2,0,2.8,0.4,3.6,1.4c1.5,2,1.6,6.4-1.5,6.9c0,0-0.1-0.1,0-0.1c2.5-1,2.8-4.2,1.5-6.3
										c-0.9-1.4-2.9-1.5-4.4-1.5c-1.2,0.1-1.8,0.6-2.7,1.1l0,0C142.9,320.7,143.9,320.3,145.5,320.2z" />
													<path class="st2" d="M155.3,322.5c1.2,2-0.4,5.1-2.7,5.5c0,0-0.1-0.1,0-0.1c2-0.5,3.2-3.1,2.6-5c-0.8-2.6-3.7-2.1-5.7-1.7
										c0,0,0,0,0,0C151.7,320.3,154,320.3,155.3,322.5z" />
													<path class="st2" d="M160.2,322.9c1,1.9,0.1,4.1-1.8,4.9c0,0-0.1,0,0,0c1.3-0.9,2-1.8,1.9-3.4c-0.1-2.3-2.6-3.9-4.6-2.5
										c0,0,0,0,0,0C157.3,320.5,159.4,321.3,160.2,322.9z" />
													<path class="st2" d="M164.1,323.5c0.8,1.5,0.1,4-1.6,4.5c0,0-0.1,0-0.1-0.1c1.2-0.7,1.9-2.1,1.7-3.5c-0.2-1.9-2-2.8-3.6-2
										c0,0,0,0,0,0C161.7,321.2,163.4,322.2,164.1,323.5z" />
													<path class="st2" d="M163.9,322.5c0.2-0.1,0.4-0.2,0.7-0.3c0.3-0.1,0.8,0,1,0.1c0.5,0.1,0.9,0.8,1.1,1.3c0,0,0,0-0.1,0
										c-0.1-0.2-0.3-0.5-0.5-0.7c-0.3-0.4-0.6-0.3-1-0.4C164.7,322.4,164.3,322.5,163.9,322.5
										C163.9,322.6,163.8,322.5,163.9,322.5z" />
												</g>
											</g>
										</g>
									</g>
								</g>
								<path class="st3" d="M124.2,205.6c0,0.7-0.3,1.3-0.7,1.3s-0.7-0.6-0.7-1.3c0-0.7,0.3-1.3,0.7-1.3
					C123.9,204.4,124.2,204.9,124.2,205.6z" />
								<path class="st4" d="M68.6,210.4c6.1,1.2,6.1,13.1,4.9,13.6c-1.2,0.4-1.2-2-1.3-4.2c-0.2-2.2-2.1-2-2.1-2
					c-2.8,0.2-3.3,6.8-3.4,8.2c-0.2,1.4-0.2,1.7-1.2,1.8c-1,0.1-1.1-1.1-1.1-1.1c-1-3.5,0.9-10.1,0.9-10.1c-2,1.9-2.5,7.8-2.6,8.9
					c0,1.1,0.1,2-0.9,2.1c-1,0-1.3-1.4-1.3-1.4c-1.2-4.5,1.2-10.8,1.2-10.8c-1.6,1.9-2.3,6.4-2.5,7.7c-0.2,1.3-0.7,1.5-0.7,1.5
					c-1,0.6-1.2-0.8-1.2-0.8c-1-4.1,1.2-9.2,1.2-9.2c-2.3,2.9-2.3,7.8-2.5,8.3c-0.2,0.6-0.3,0.4-0.3,0.4c-0.8-0.1-1-1.3-1.1-2.1
					c-0.2,3.9,1.1,6.7,2.6,6.7c0,0,0.9,3.8,3.5,4.1c0,0,1.5,2.8,4.2,2.3c0,0,2,2.2,3.4,0.5s-1.3-4.8-0.6-10.1c0.7-5.3,2.7-6.2,3.3-4
					c0.6,2.2-0.3,7.5,0.9,8.4c1.2,0.9,5.1-3.5,4-10.7s-3.7-8.6-3.7-8.6s4.1-34.2,26.9-56.4l1.4-6.1C71.9,169,68.6,210.4,68.6,210.4z
					" />
								<path class="st4" d="M166.9,323.6c-0.1-0.3-0.2-0.5-0.4-0.7h-0.2c0,0,0.7,1.3-0.5,1.9s-1.3-1.7-2.5-2.2c0,0,0.9,1.6-0.5,1.9
					c-1.5,0.3-2.2-1.8-3.6-2.6c0,0,1.5,1.9-0.3,2.7c-1.7,0.8-2.7-2.2-4.7-3.2c0,0,1.1,1.5-0.5,2.3c-1.6,0.8-3.8-1.9-5.2-2.4
					c0,0,1.1,2.4-2.1,3.1c-3.2,0.7-5.3-2.5-10.6-2.8c-5.2-0.3-6.9-1.4-5.5-5.6c1.4-4.2,2.1-4.9,1.8-8.5c-0.3-3,2.9-61.8,4-80
					c-3.8,1.5-7.8,2.2-11.9,2.3c-4.8,0.1-10.4-0.2-14.3-3.3c1,16.9,4.6,78,4.3,81.1c-0.3,3.6,0.4,4.2,1.8,8.5
					c1.4,4.2-0.3,5.3-5.5,5.7c-5.2,0.3-7.4,3.5-10.6,2.8c-3.2-0.7-2.1-3-2.1-3c-1.5,0.5-3.7,3.2-5.2,2.4c-1.6-0.8-0.5-2.3-0.5-2.3
					c-2,0.9-2.9,4-4.6,3.2c-1.7-0.8-0.3-2.7-0.3-2.7c-1.4,0.8-2.1,2.9-3.6,2.6s-0.5-1.9-0.5-1.9c-1.2,0.6-1.3,2.8-2.5,2.3
					c-1.3-0.5-0.5-1.9-0.5-1.9h-0.1c-0.2,0.2-0.3,0.4-0.4,0.7c-0.8,2,0.7,4.6,3.8,4c0,0,1.3,1.1,4.4,0.1c0,0,2.4,1.3,5.3-0.1
					c0,0,2.1,1.4,5.1,0.3c0,0,1.7,1.4,5.9,0c4.2-1.4,6.2-2.8,9.4-2.7c3.3,0.1,9.2-0.7,7.8-7.8c-1.4-7.1-2.5-4.8-2.2-11.9
					c0.2-7.1-0.2-44-0.2-44l0.6-31.3c1.1,0.4,3.4,0.9,6.9,0.1l0.7,31.2c0,0-0.3,36.9,0,44c0.3,7.1-0.8,4.8-2.2,11.9
					c-1.4,7.1,4.6,7.9,7.8,7.8c3.2-0.1,5.2,1.2,9.4,2.6c4.2,1.4,5.9,0,5.9,0c3,1.1,5.1-0.3,5.1-0.3c2.9,1.5,5.3,0.1,5.3,0.1
					c3.1,1,4.4-0.1,4.4-0.1C166.2,328.2,167.7,325.6,166.9,323.6z" />
								<path class="st4" d="M190.6,222.7c0,0-0.1,0.2-0.3-0.4c-0.1-0.6-0.2-5.4-2.5-8.3c0,0,2.2,5.1,1.2,9.2c0,0-0.2,1.4-1.2,0.8
					c0,0-0.5-0.2-0.7-1.5s-0.9-5.8-2.5-7.7c0,0,2.4,6.2,1.3,10.8c0,0-0.3,1.4-1.3,1.4c-1,0-0.9-0.9-0.9-2s-0.6-7.1-2.6-8.9
					c0,0,1.9,6.5,0.9,10.1c0,0-0.1,1.1-1.1,1.1c-1-0.1-1.1-0.4-1.2-1.7c-0.1-1.4-0.7-7.9-3.4-8.2c0,0-1.8-0.2-2,2.1
					c-0.2,2.2-0.1,4.7-1.3,4.2c-1.2-0.4-1.3-12.4,4.9-13.6c0,0-3.4-41.4-31.9-63.1l1.4,6.1c0,0,0.2,0.2,0.4,0.6
					c22.5,22.1,26.7,56,26.7,56s-2.6,1.4-3.7,8.6c-1.1,7.2,2.8,11.6,4,10.6c1.2-0.9,0.3-6.2,0.9-8.4c0.6-2.2,2.6-1.3,3.3,4
					s-2,8.4-0.6,10.1c1.4,1.7,3.4-0.5,3.4-0.5c2.7,0.5,4.2-2.3,4.2-2.3c2.6-0.3,3.5-4.1,3.5-4.1c1.5,0,2.8-2.8,2.6-6.8
					C191.6,221.5,191.3,222.6,190.6,222.7z" />
							</g>
						</g>
						<g>
							<g>
								<path class="st0 all" d="M70.8,58.8c0,0-6.1-2.6-16.1,10.2c-10.1,12.8-6.1,38.5-4.5,45.2c0,0,2.1,9.9-1,13.7l1.8,1.4
					c0,0,3-4.2,2.6-9.3c0,0,1.9,10.4,8.2,13.7l4.2-1.4c0,0-4.8-6.3-5-14.5c0,0,3.2,9.3,8.3,13.9l7.4-3c0,0-3.2-3.6-5-9.7
					c0,0,3.5,6.8,7.3,8.5l7.2-4.1c0,0-5.5-5.4-7.2-11.9c0,0,2.7,7,7.2,9.7l1.1-0.8c0,0-7.4-7.7-4.7-27.1
					C85.2,74,70.8,58.8,70.8,58.8z" />
								<g class="st5">
									<path class="st0" d="M69.8,100.5c0,0,4.1,8.1,13.4,11.9c-1.2-4.3-1.9-10.5-0.7-19C85.2,74,70.8,58.8,70.8,58.8S68.7,58,65,59.8
						C64.6,61.2,58.5,80.5,69.8,100.5z" />
								</g>
							</g>
							<g>
								<path class="st0" d="M179.2,58.8c0,0,6.1-2.6,16.1,10.2c10.1,12.8,6.1,38.5,4.5,45.2c0,0-2.1,9.9,1,13.7l-1.8,1.4
					c0,0-3-4.2-2.6-9.3c0,0-1.9,10.4-8.1,13.7l-4.2-1.4c0,0,4.8-6.3,5-14.5c0,0-3.2,9.3-8.3,13.9l-7.4-3c0,0,3.2-3.6,5-9.7
					c0,0-3.5,6.8-7.3,8.5l-7.2-4.1c0,0,5.5-5.4,7.2-11.9c0,0-2.6,7-7.2,9.7l-1.1-0.8c0,0,7.4-7.7,4.7-27.1
					C164.7,74,179.2,58.8,179.2,58.8z" />
								<g>
									<path class="st4" d="M180.1,100.5c0,0-4.1,8.1-13.4,11.9c1.2-4.3,1.9-10.5,0.7-19c-2.8-19.4,11.7-34.6,11.7-34.6
						s2.1-0.8,5.8,0.9C185.4,61.2,191.5,80.5,180.1,100.5z" />
								</g>
							</g>
							<path class="st0" d="M167.9,35.8c0,0-20-27.1-69-10.5c-49,16.6-34.4,78.9-13.1,86.3l75.4-1.3c0,0,20.1-6.8,23.1-33
				C187.4,51.2,167.9,35.8,167.9,35.8z" />
							<path class="st0" d="M165.5,67.2c-3.1-1.3-9.1-3-17.5-3.9c-0.6-6.9-2.4-10-2.4-10c0.6,4.8-0.7,9.7-0.7,9.7l0,0
				c-7.1-0.7-14.7-1.2-20.3-1.4c-0.6-5.5-0.4-10.3-0.4-10.3c-1.8,4-1.7,10.2-1.7,10.2c-4-0.2-15,0.9-18.8,1.7
				c-0.3-9.1,2.1-14.9,2.1-14.9c-3.5,4.4-5.6,15.8-5.6,15.8l0,0c-10.9,2.8-18.5,6.3-18.5,6.3s-0.9,8.6,1.9,18.6c0,0,2,6.7,0.8,12.3
				c-1.2,5.6-0.4,11.9,9.8,18.6s23.2,9.3,27.3,9.6c0,0,1.8,0.2,3.5,0c4.1-0.4,17.1-2.9,27.3-9.6c10.2-6.7,11-12.9,9.8-18.6
				c-1.2-5.6,0.8-12.3,0.8-12.3C165.7,78.9,165.5,67.2,165.5,67.2z" />
						</g>
					</g>
					<g>
						<path id="redSmallArtery" class="st6 all" d="M137.6,185.1c1-0.1,2.1-0.3,3.1-0.4c0.6-0.1,0.7-0.8,0.6-1.4c0-0.1-0.1-0.1-0.2-0.1c-1.4,0-2.8,0.4-4.2,0.5
			c-0.7,0-1.4,0.1-2.1,0.2c0.7-0.5,1.3-1,2-1.6c0.6-0.5,1.8-1.6,0.9-2.3c0,0,0,0,0,0c-0.2-0.1-0.4,0-0.6,0.2
			c-0.7,1.1-1.8,1.9-2.8,2.6c-1.4,0.7-3,1-4.5,1.3c-0.8,0-6.7,0.4-8.8,0.6c-0.1,0-0.2,0-0.3,0c-1.7-0.1-3.4-0.1-4.9-0.4
			c-0.8-0.3-1.6-0.8-2.4-1.5c-0.4-0.5-0.9-1-1.2-1.6c-0.1-0.3-0.3-0.3-0.5-0.2c-0.1,0-0.2,0.1-0.3,0.3c-0.1,0.5,1.5,2.8,2.1,3.2
			c0.2,0.1,0.4,0.3,0.6,0.4c0,0-0.1,0-0.1,0c-1.6-0.1-3.4-0.9-4.7-1.9c-0.1-0.1-0.6-0.7-1-0.9c-0.2,0.1-0.4,0.4-0.6,0.6
			c-0.1,1.1,1.4,2.2,2.1,2.6c0.2,0.1,0.5,0.3,0.8,0.4c0.8,0.4,1.7,0.6,2.6,0.8c-1.3,0.5-2.4,1.2-3.3,2.1c-0.6,0.5-1.1,1-1.5,1.7
			c-0.1,0.2-0.2,0.4-0.2,0.6c-0.2,0.8,0.6,1.5,1.1,0.6c0.1-0.3,0.3-0.5,0.5-0.7c0.6-1.1,1.5-1.8,2.4-2.4c4.2-2.3,9.9-2.2,14.1-2.5
			c2.1-0.1,4.1-0.2,6.2-0.2c3.2-0.1,5.3,1.3,8.1,2.8c0.2,0.1,0.7-0.8,0.5-1C140,186.3,138.9,185.6,137.6,185.1z" />
						<g>
							<path id="wholeLargeRedArtery" class="st6 all" d="M187.5,213.7c-1.7-2.2-3.8-3.2-5.7-5.1c0,0-2.5-5.2-2.5-5.3c-0.4-2.1-1.1-4.3-1.8-6.4c-0.5-2-1.1-4-1.8-6
				c-0.4-1.3-0.9-2.6-1.4-3.9c0.7,1,1.4,2,1.9,3.2c0.9,1.9,1.4,3.9,2.2,5.9c0,0,0.1,0,0,0c-0.6-2.2-1.1-4.4-2.1-6.5
				c-0.7-1.5-1.6-2.6-2.5-3.9c-1.2-3.2-2.4-6.4-3.8-9.6c-0.5-1.1-1-2.2-1.6-3.3c-0.6-1.4-1.3-2.9-1.9-4.3c-1.1-2.7-2.5-5.4-4.1-7.8
				c-0.7-1-1.3-2.1-2-3.1c-0.1-0.1-0.2-0.3-0.3-0.4c1.3,1.2,2.2,2.6,3.2,4.1c0.5,0.8,1,1.5,1.5,2.3c0.5,0.7,1.1,1.3,1.5,2.1
				c-1.6-2.9-3.2-5.6-5.4-8.1c-4.1-4.6-7.7-9.6-12.9-13.2c-4.7-3.3-11.2-6.1-17.1-4.9c11.2-2.4,19.2,4.2,25.4,10.1c0,0,0.1,0,0,0
				c-4.2-4.4-8.2-8.1-14.1-10.3c-1.2-0.4-2.6-0.8-3.9-1c-2.6-0.5-5.6-0.7-8.2,0c-1.4,0.4-2.4,0.9-3.6,1.7c-0.6-0.4-0.7-2.9-0.8-3.6
				c-0.4-3.2-0.2-6.6,0.4-9.8c0.2-1.3,0.5-2.7,0.9-4c0.9-3.4,2.6-6.9,5-9.6c0.7-0.8,1.5-1.6,2.3-2.3c1.6-1.3,3.2-2.6,4.6-4.1
				c0.1-0.1,0.2-0.3,0.4-0.4c1.1-0.8,2.2-1.5,3.5-1.9c0.4-0.1,0.8-0.3,1.2-0.4c1.7-0.5,3.2-1.3,4.4-3c0.4-0.5,0.8-1.1,1.1-1.7
				c2.3-1.1,3.3-3.3,3.6-5.8c0,0,0-0.1,0,0c-0.2,1.4-0.7,2.7-1.6,3.8c-0.5,0.6-1.1,1.1-1.7,1.6c0.8-1.8,1.3-3.7,1.6-5.6c0,0,0,0,0,0
				C151,95.9,150,99,148,101c0.2-0.5,0.3-1,0.3-1.5c0-1.7,0.4-3.5,0.8-5.2c0,0-0.1-0.1-0.1,0c-0.4,1.2-0.8,2.3-1,3.5
				c-0.2,1.2-0.1,2.4-0.5,3.6c-1.8,1.5-3.7,1.8-5.9,2.5c0.1-0.1,0.2-0.2,0.3-0.3c1-1.1,2-2.3,2.6-3.8c0.6-1.3,1-2.7,1.2-4
				c0.7-1.6,1.8-3,2.2-4.7c0.6-2.5,0.5-4.9,0.3-7.5c0,0,0,0,0,0c0.1,2.9,0,5.9-1.1,8.6c-0.3,0.7-0.7,1.4-1.1,2.1
				c0.3-3.3-0.1-6.6,0-10.3c0,0,0,0,0,0c-0.3,4.2,0.2,8.6-0.8,12.7c-1,3-2.8,5.4-5,7.7c-1.1,0.9-2.2,1.7-3.3,2.5
				c0.9-1.7,0.7-3.7,0.1-5.6c0,0,0,0,0-0.1c0.2-0.2,0.3-0.5,0.4-0.8c0.9-1.7,0.9-3.5,0.4-5.4c0.1,1.2,0.1,2.3-0.2,3.5
				c-0.1,0.2-0.1,0.4-0.2,0.7c0,0,0,0.1-0.1,0.1c-0.1,0.4-0.3,1-0.6,1.4c-0.9-2.7-1.4-5.3-1.6-8c0.3-0.2,0.5-0.6,0.6-0.9
				c1-1.6,1.1-3.6,1-5.5c0,0,0,0,0,0c-0.1,1.4-0.2,2.6-0.7,3.9c-0.2,0.6-0.6,1.1-0.9,1.7c-0.1-2.4,0.1-4.9,0.6-7.5
				c-1,3.4-1.6,6.8-1.2,10.3c-1.2-2.6-2.5-5.3-2.1-8.2c0,0-0.1-0.1-0.1,0c-0.4,1.8-0.2,3.8,0.4,5.5c0.2,0.7,0.5,1.6,0.9,2.4
				c0.6,1.9,1.4,3.8,1.9,5.8c0.6,2.4,0.9,4.3,0.4,6.5c-0.2,0.5-0.5,1.1-0.9,1.6c-2.5,1.8-4.8,3.8-6.4,6.7c-2.1,3.9-3.3,8.2-4,12.5
				c-0.4,2.4-0.7,4.8-0.6,7.3c0.1,1.3,1.1,6.4,0.9,6.6c-1.1,0.9-2.4,2.2-2.2,2.6c-0.6-0.9-1.4-1.8-2.3-2.5
				c1.4-5.6,1.3-11.6,0.1-17.2c-0.3-1.6-0.8-3.2-1.4-4.8c-0.5-1.5-1.2-3-2-4.4c-1.6-3-3.9-4.9-6.4-6.7c-0.3-0.5-0.6-1-0.9-1.6
				c-0.4-2.1-0.2-4.1,0.4-6.5c0.5-1.9,1.3-3.8,1.9-5.8c0.3-0.8,0.6-1.7,0.9-2.4c0.6-1.7,0.8-3.7,0.4-5.5c0-0.1-0.1,0-0.1,0
				c0.4,2.9-0.8,5.6-2.1,8.2c0.4-3.5-0.2-6.9-1.2-10.3c0.5,2.6,0.7,5.1,0.6,7.5c-0.3-0.6-0.7-1.1-0.9-1.7c-0.5-1.3-0.6-2.5-0.7-3.9
				c0,0,0,0,0,0c-0.1,1.9,0,3.9,1,5.5c0.1,0.3,0.3,0.7,0.6,0.9c-0.2,2.7-0.8,5.2-1.7,8c-0.2-0.4-0.4-1-0.6-1.4c0,0,0-0.1-0.1-0.1
				c-0.1-0.2-0.1-0.4-0.2-0.7c-0.3-1.2-0.3-2.3-0.2-3.5c-0.4,1.9-0.5,3.7,0.4,5.4c0.1,0.3,0.2,0.7,0.4,0.8c0,0,0,0,0,0.1
				c-0.7,1.9-0.8,3.9,0.1,5.6c-1.1-0.8-2.3-1.6-3.3-2.5c-2.2-2.2-4-4.7-5-7.7c-1-4-0.5-8.5-0.8-12.7c0,0,0,0,0,0
				c0.1,3.7-0.3,6.9,0,10.3c-0.4-0.7-0.8-1.4-1.1-2.1c-1.2-2.7-1.2-5.7-1.1-8.6c0,0,0,0,0,0c-0.2,2.5-0.4,5,0.3,7.5
				c0.4,1.8,1.5,3.1,2.2,4.7c0.2,1.3,0.6,2.6,1.2,4c0.7,1.5,1.6,2.8,2.6,3.8c0.1,0.1,0.2,0.2,0.3,0.3c-2.2-0.7-4.1-1-5.9-2.5
				c-0.4-1.2-0.3-2.4-0.5-3.6c-0.2-1.2-0.6-2.4-1-3.5c0,0-0.1,0-0.1,0c0.3,1.7,0.8,3.4,0.8,5.2c0,0.6,0.1,1.1,0.3,1.5
				c-2.1-2-3-5.1-3.6-7.8c0,0,0,0,0,0c0.3,1.9,0.8,3.8,1.6,5.6c-0.6-0.5-1.2-1-1.7-1.6c-1-1.1-1.4-2.4-1.6-3.8c0,0,0,0,0,0
				c0.3,2.4,1.2,4.7,3.6,5.8c0.3,0.6,0.7,1.2,1.1,1.7c1.3,1.6,2.8,2.5,4.4,3c0.4,0.2,0.8,0.3,1.2,0.4c1.4,0.4,2.5,1.1,3.5,1.9
				c0.1,0.1,0.2,0.3,0.4,0.4c1.4,1.4,3,2.8,4.6,4.1c0.8,0.8,1.6,1.5,2.3,2.3c2.6,3,4.3,6.8,5.2,10.7c0.3,1.2,0.6,2.4,0.8,3.7
				c0.8,4.4,0.6,8.5-0.5,12.8c-1.4-0.9-2.8-1.6-4-1.9c-2.6-0.7-5.5-0.5-8.2,0c-1.3,0.2-2.6,0.6-3.9,1c-5.9,2.1-9.8,5.8-14.1,10.3
				c0,0,0,0.1,0,0c6.2-5.9,14.2-12.6,25.4-10.1c-5.8-1.3-12.4,1.6-17.1,4.9c-5.2,3.6-8.8,8.6-12.9,13.2c-2.2,2.5-3.8,5.2-5.4,8.1
				c0.4-0.7,1.1-1.4,1.6-2.1c0.5-0.8,1-1.5,1.5-2.3c0.9-1.5,1.9-2.9,3.2-4.1c-0.1,0.1-0.2,0.3-0.3,0.4c-0.7,1-1.4,2.1-2,3.1
				c-1.6,2.4-3,5.1-4.1,7.8c-0.6,1.4-1.3,2.8-1.9,4.3c-0.6,1.1-1.1,2.2-1.6,3.3c-1.4,3.2-2.6,6.4-3.8,9.6c-0.9,1.2-1.9,2.4-2.5,3.9
				c-1,2.1-1.5,4.2-2.1,6.5c0,0,0,0,0,0c0.8-1.9,1.3-3.9,2.2-5.9c0.5-1.1,1.2-2.2,1.9-3.2c-0.5,1.3-0.9,2.6-1.4,3.9
				c-0.7,1.9-1.3,3.9-1.8,6c-0.7,2.1-1.3,4.3-1.8,6.4c0,0.1-2.5,5.3-2.5,5.3c-1.9,1.9-4,2.9-5.7,5.1c-1.7,2.1-2,5.2-2,7.8
				c0,0.1,0.1,0,0.1,0c0.2-3.3,1-6.4,3.3-8.9c1.3-1.4,3.1-2.1,4.5-3.5c-0.4,0.8-0.8,1.5-1.2,2.2c-0.7,1.1-1.4,2.2-2,3.3
				c0,0,0,0-0.1,0.1c-1.8,3.1-1.7,6.3-1.5,9.7c0,0,0,0,0,0c0-2.8,0.2-5.4,1-7.9c1-2.4,2.9-4.4,4-6.8c0.9-1.9,1.8-3.8,2.4-5.8
				c-0.2,0.9-0.3,1.9-0.4,2.8c-0.1,1.4-0.2,2.8-0.2,4.1c-1.5,2.3-3.3,4.3-3.9,7.1c-0.7,3.1-0.7,6.6,0.2,9.7c0,0.1,0.1,0,0.1,0
				c-0.7-2.8-0.5-5.9,0-8.7c0.5-3,2.3-5.1,3.7-7.6c0,3.9,0.2,7.7-0.3,11.6c0,0.1,0.1,0,0.1,0c1.2-5.1,0.1-10.3,0.9-15.4
				c0.2-1.2,0.4-2.4,0.7-3.7c0,1.8,0.4,3.5,1.2,5.2c-0.2,2.2,0.1,4,0.8,6.1c0,0,0,0,0,0c-0.3-1-0.5-1.9-0.6-2.9
				c-0.1-0.9,0-1.8,0-2.6c0.1,0.1,0.2,0.3,0.2,0.5c2.6,4.8,5.6,9.7,4.8,15.5c0,0.1,0.1,0,0.1,0c0.8-3.8-0.1-7.7-1.8-11.1
				c-0.8-1.7-1.7-3.2-2.4-4.8c-1.9-5.7-1.1-10.1,0.8-15.8c1-3.1,2.1-6.1,3.3-9.1c-0.2,1.9-0.2,3.9-0.2,5.8c0,5.2-1.2,10.9-3.2,15.7
				c2.2-3.6,3-7.8,3.6-11.9c0.6-3.9,0.3-8,0.7-11.9c0.5-1.1,0.9-2.3,1.4-3.4c1-2.6,2.1-5.1,3.2-7.6c-0.5,2.9-0.6,5.8-0.6,8.8
				c0,0,0,0,0,0c0.2-3.8,0.6-7.4,1.5-10.9c1.4-2.9,2.9-5.7,4.5-8.4c-1.5,4.8-0.6,10-2.9,14.5c0,0,0,0,0,0c1.4-2.6,1.7-5.4,2.1-8.3
				c0.4-3.2,1.1-6.2,2.4-8.9c1.4-2.1,2.8-4.1,4.5-5.9c-0.4,1.2-0.7,2.4-0.9,3.6c-0.5,2.1-0.9,7.3-3,8.6c0,0,0,0,0,0
				c1.7-0.9,2.4-4.6,2.9-6.2c0.1-0.4,0.2-0.8,0.3-1.2c-0.1,0.6-0.2,1.3-0.2,2c0,1,0.4,2,0.2,3c0.4-1.3,0-2.9,0.2-4.4
				c0.1-1,0.3-1.9,0.5-2.8c1.2-4.8,5.3-8.6,9.4-11c4.2-2.5,9.8-4.3,14.7-2.8c1.4,0.4,2.8,1.2,4,2.1c3.4,2.1,3.8,6.9,4.1,10.5
				c0,0.5,0.1,26.4,0.3,31.3c0.2,5.2,0.1,12.3-0.1,17.4c-0.2,6.1-4.3,8.3-8.5,12.4c-4.6,4.5-9.2,10-11.5,16.2
				c-0.9,1-1.8,2.1-2.4,3.4c-0.8,1.7-0.9,3.4-0.8,5.3c0,0,0,0,0,0c0.1-2.1,0.4-3.9,1.6-5.7c0.3-0.5,0.7-1,1.1-1.4
				c-0.8,2.7-1.1,5.5-0.7,8.4c0.4,3.4,2.7,7.6,1.2,10.9c1.5-1.5,0.8-4.7,0.5-6.6c-0.6-3.4-1.3-6.5-0.6-9.9c0.7-3.5,2.5-6.7,4.2-9.9
				c-0.4,1.1-0.6,2.3-0.8,3.5c-0.8,6.4,0.7,13.5,1,19.9c0.1,1,0.1,1.9,0.2,2.9c-1.5,4.8-2.4,9.1-2,14.3c0,0,0.1,0,0.1,0
				c0.2-3,0.5-5.8,1.2-8.8c0.2-1,0.6-2,0.9-2.9c0.2,4.6,0.5,9.2,0.8,13.9c-0.4,1.4-0.8,2.9-1.2,4.3c-1.1,1.2-2.5,2.2-3.1,3.7
				c-0.8,2-1.1,3.9-0.7,6c0,0,0.1,0,0.1,0c-0.1-2.5,0.6-4.6,1.9-6.7c0.5-0.7,1.1-1.4,1.6-2.1c-0.9,3.4-1.8,6.9-2.3,10.4
				c-0.6,5.1-0.3,11.9,1.8,16.7c0.1,0.1,0.2,0.2,0.2,0.3c-1.2-3.1-1.6-6.7-1.6-10.4c0.3,0.8,0.7,1.5,1,2.2c0.6,1.5,1.6,4,1.4,5.6
				c0.2-1.2-0.2-3.1-0.6-4.2c-0.6-1.6-1.2-3.2-1.7-4.8c0.1-3,0.4-5.9,0.8-8.5c0.6-3.5,1.7-6.8,2.7-10.2c0.2,2,0.3,4,0.6,6
				c0.1,1.6,0.2,3.2,0.2,4.9c0,5.3,0.7,10.8,1.2,16.1c-1.4,3.3-1.4,6.6-0.9,10.3c0,0,0,0,0,0c-0.1-2-0.3-3.9,0-5.9
				c0.2-1,0.6-2,1.1-3c0.3,2.6,0.6,5.1,0.9,7.7c-0.1,0.7-0.2,1.4-0.4,2c-0.5,1.5-1.5,2.8-2.6,3.9c-1.4,0.3-2.9,0.4-4.3,0.9
				c-1.8,0.7-3.3,1.6-4.8,2.8c1.8-1.1,3.8-2.1,5.9-2.5c0.7-0.1,1.6-0.2,2.4-0.4c-0.7,0.6-1.4,1.1-2.2,1.5c-1.6,0.9-3.4,1.5-5.2,2.1
				c-1.5,0.5-3,0.9-4.3,1.4c-0.5,0.2-1,0.4-1.4,0.7c-1.8,0.5-3.4,1.1-5,2.1c-1.8,1.1-2.7,2.4-3.6,4.1c0,0,0,0,0,0
				c1.1-1.8,2.3-3.1,4.2-4.2c1.2-0.7,2.4-1.1,3.7-1.6c-1.5,1.1-2.5,2.6-2.7,4.4c0,0,0,0.1,0,0.1c0,0,0-0.1,0-0.1c0,0.1,0,0.2,0,0.3
				c0.1,0.4,0.2,0.8,0.3,1.2c0-3.5,2.6-5.4,5.9-6.9c-0.2,0.3-0.4,0.6-0.7,0.9c-0.5,0.7-0.9,1.5-1.3,2.3c-0.3,0.6-0.6,1.8-1.2,2.2
				c0,0,0,0.1,0,0c0.7-0.4,1.2-1.4,1.6-2.1c0.9-1.3,1.8-3.1,3-4.1c0.6-0.2,1.2-0.5,1.8-0.7c2.4-0.6,4.7-1.3,6.5-2.2
				c-0.1,0.4-0.3,0.8-0.4,1.1c-0.4,1-1.1,2-2,2.7c0,0,0,0,0,0c1.4-0.9,2.7-2.6,3.2-4.3c0.1-0.1,0.2-0.1,0.3-0.2
				c1.8-1.3,3.3-3.6,3.9-5.5c0.2,2.5,0.6,3.5-0.7,7.9c-0.1,0.3-0.3,0.6-0.7,0.9c-1.2,1.6-3.2,2.8-5.2,3.5c1.5-0.1,2.9-1.2,4.3-2
				c-0.5,1.2-0.9,2.4-2.1,3.3c-1.5,1.2-4.5,2.3-6.8,2.3c0.2,0.1,0.5,0.2,0.8,0.2c1.8,0,3.7-0.7,5.1-1.4c2.4-1.1,2.9-2.8,3.8-4.8
				c1.4-0.7,2-2.6,2.3-4.3c0.9,2.6,2.5,5.1,1.8,7.8c1.1-2.8-0.6-6.1-1.6-9c0-0.1,0-0.1,0-0.2c0.2-1.7,0.2-3.5,0.1-5.3
				c0.2,0.5,0.4,1,0.6,1.5c1.2,2.7,5.6,9.5,3.3,12.5c0.1-0.1,0.2-0.2,0.3-0.2c1.1-1.8,0.1-5-0.5-6.6c-0.8-2.3-2.2-4.6-3.1-6.9
				c-0.3-0.7-0.5-1.3-0.7-2c-0.2-2-0.5-4-0.7-5.9c-0.4-3.6-0.6-7.2-0.9-10.9c-0.4-4-0.6-8-0.8-12c2.1,9,6.1,17.6,5.2,27.1
				c0,0,0.1,0,0.1,0c0.6-4.5,0.2-9.3-0.8-13.7c1.2,2.5,2.5,4.9,3.3,7.5c0,0,0,0,0,0c-0.4-1.5-0.9-3-1.5-4.4
				c-0.8-1.8-1.5-3.8-2.5-5.5c-1.5-5.3-3-10.5-4.1-15.9c0-0.6-0.1-1.2-0.1-1.8c1.7,3.1,4.7,5.9,4.4,9.6c0,0,0.1-0.1,0.1-0.1
				c1-4.1-2.8-7.5-4.6-11.2c0-0.4,0-0.8-0.1-1.2c0-2.5,0.1-5,0-7.6c-0.2-4.3-0.4-8.6-0.7-12.9c0.7,3,1.4,5.9,2.3,8.8
				c1,3.4,2.2,6.8,3,10.3c0.7,3,1.8,7.3,1.1,10.5c0.1-0.2,0.2-0.4,0.3-0.6c0.3-1.9,0-3.9-0.2-5.8c-0.3-3.6-0.8-7.1-1.9-10.6
				c-0.1-0.3-0.2-0.5-0.2-0.8c1.1,2,2.3,3.9,3,6c0,0,0.1,0,0.1,0c-1-3.8-3-7.3-4.6-10.9c-1.7-5.9-3.1-11.8-3.6-17.9
				c-0.1-1.2-0.2-2.6-0.2-4c0.3,0.8,0.6,1.6,0.9,2.4c1.1,2.4,2.4,4.6,3.7,6.8c1.4,2.4,1.9,4.8,2.5,7.5c0,0.1,0.1,0,0.1,0
				c-0.3-1.7-0.4-3.6-1-5.2c-2-5.5-5.9-10.4-6-16.5c0-1.8,0.5-3.6,1.4-5.1c0.6-1,1.4-2,2.2-2.9c1.9-1.8,4.2-3.4,6.2-5.2
				c2-1.6,3.7-3.5,4.7-5.7c1.8,3.2,4.3,6.1,7.1,8.5c0.6,0.5,1.2,1.1,1.8,1.6c1.2,1.1,2.3,2.4,3.1,3.8c0.9,1.5,1.4,3.3,1.4,5.1
				c0,6.1-4,11-6,16.5c-0.6,1.6-0.7,3.5-1,5.2c0,0.1,0.1,0.1,0.1,0c0.6-2.7,1.1-5.1,2.5-7.5c1.3-2.2,2.7-4.4,3.7-6.8
				c0.3-0.8,0.7-1.6,0.9-2.4c0,1.4-0.1,2.8-0.2,4c-0.5,6.1-1.9,12-3.6,17.9c-1.6,3.6-3.5,7.1-4.6,10.9c0,0,0.1,0.1,0.1,0
				c0.7-2.1,1.9-4,3-6c-0.1,0.3-0.2,0.5-0.2,0.8c-1.1,3.4-1.6,7-1.9,10.6c-0.2,1.9-0.5,3.9-0.2,5.8c0.1,0.2,0.2,0.4,0.3,0.6
				c-0.6-3.1,0.4-7.4,1.1-10.5c0.8-3.5,2-6.9,3-10.3c0.8-2.9,1.6-5.9,2.3-8.8c-0.3,4.3-0.5,8.6-0.6,12.9c-0.1,2.5,0,5,0,7.6
				c0,0.4,0,0.8-0.1,1.2c-1.8,3.6-5.6,7-4.6,11.2c0,0,0.1,0.1,0.1,0.1c-0.3-3.7,2.7-6.5,4.4-9.6c0,0.6-0.1,1.2-0.1,1.8
				c-1.1,5.4-2.6,10.5-4.1,15.9c-1,1.7-1.7,3.7-2.5,5.5c-0.6,1.4-1.1,2.9-1.5,4.4c0,0,0,0,0,0c0.8-2.6,2.2-5,3.3-7.5
				c-1,4.4-1.4,9.3-0.8,13.7c0,0,0.1,0,0.1,0c-0.8-9.5,3.1-18.1,5.2-27.1c-0.2,4-0.5,8-0.8,12c-0.3,3.6-0.5,7.2-0.9,10.9
				c-0.2,1.9-0.5,3.9-0.7,5.9c-0.2,0.6-0.4,1.3-0.7,2c-1,2.3-2.3,4.5-3.1,6.9c-0.6,1.7-1.6,4.8-0.5,6.6c0.1,0.1,0.2,0.2,0.3,0.2
				c-2.3-3,2.1-9.7,3.3-12.5c0.2-0.5,0.4-1,0.6-1.5c-0.1,1.8-0.1,3.6,0.1,5.3c0,0.1,0,0.1,0,0.2c-1,3-2.8,6.2-1.6,9
				c-0.7-2.7,0.9-5.2,1.8-7.8c0.3,1.7,0.9,3.6,2.3,4.3c0.9,2,1.4,3.7,3.8,4.8c1.4,0.7,3.3,1.3,5.1,1.4c0.2-0.1,0.5-0.1,0.8-0.2
				c-2.3,0-5.3-1.1-6.8-2.3c-1.1-0.9-1.6-2.1-2.1-3.3c1.4,0.8,2.8,1.8,4.3,2c-2-0.7-4.1-1.9-5.2-3.5c-0.3-0.3-0.6-0.6-0.7-0.9
				c-1.2-4.4-0.9-5.5-0.6-7.9c0.6,1.9,2.2,4.2,3.9,5.5c0.1,0.1,0.2,0.1,0.3,0.2c0.4,1.7,1.8,3.4,3.1,4.3c-0.9-0.7-1.6-1.6-2-2.7
				c-0.2-0.4-0.3-0.8-0.4-1.1c1.8,1,4.2,1.6,6.5,2.2c0.6,0.2,1.2,0.4,1.8,0.7c1.2,1,2.1,2.8,3,4.1c0.4,0.6,0.9,1.7,1.6,2.1
				c0,0,0,0,0,0c-0.6-0.4-0.8-1.5-1.1-2.2c-0.4-0.8-0.8-1.6-1.3-2.3c-0.2-0.3-0.4-0.6-0.7-0.9c3.3,1.5,5.9,3.4,5.9,6.9
				c0.1-0.4,0.2-0.8,0.4-1.2c0-0.1,0-0.2,0-0.3c0,0,0,0.1,0,0.1c0,0,0-0.1,0-0.1c-0.1-1.8-1.2-3.3-2.7-4.4c1.2,0.5,2.5,0.9,3.7,1.6
				c1.9,1.1,3.1,2.4,4.2,4.2c0,0,0,0,0,0c-1-1.8-1.8-3.1-3.6-4.1c-1.7-1-3.2-1.6-5-2.1c-0.5-0.3-0.9-0.5-1.4-0.7
				c-1.3-0.5-2.8-0.9-4.3-1.4c-1.8-0.6-3.6-1.2-5.2-2.1c-0.8-0.4-1.5-0.9-2.2-1.5c0.8,0.2,1.6,0.3,2.4,0.4c2.1,0.3,4.1,1.3,5.9,2.5
				c-1.5-1.2-3-2.1-4.8-2.8c-1.3-0.5-2.9-0.6-4.3-0.9c-1.2-1.1-2.1-2.4-2.6-3.9c-0.2-0.6-0.3-1.3-0.4-2c0.3-2.6,0.6-5.1,0.9-7.7
				c0.4,1,0.9,1.9,1.1,3c0.3,2,0.1,3.9,0,5.9c0,0,0,0,0,0c0.4-3.7,0.4-7-0.9-10.3c0.6-5.3,1.2-10.8,1.2-16.1c0-1.6,0.1-3.2,0.1-4.9
				c0.2-2,0.4-4,0.6-6c0.9,3.4,2.1,6.8,2.6,10.2c0.4,2.5,0.7,5.5,0.8,8.5c-0.5,1.6-1.1,3.2-1.7,4.8c-0.4,1.1-0.9,3-0.6,4.2
				c-0.2-1.6,0.8-4.1,1.4-5.6c0.3-0.7,0.7-1.5,1-2.2c0,3.7-0.4,7.3-1.6,10.4c0.1-0.1,0.2-0.2,0.2-0.3c2.1-4.8,2.4-11.6,1.8-16.7
				c-0.4-3.5-1.3-7-2.3-10.4c0.5,0.7,1.1,1.3,1.6,2.1c1.4,2.1,2,4.2,1.9,6.7c0,0,0.1,0.1,0.1,0c0.3-2.1,0.1-4-0.7-6
				c-0.6-1.5-2-2.5-3.1-3.7c-0.4-1.4-0.8-2.9-1.2-4.3c0.3-4.6,0.6-9.2,0.8-13.9c0.3,1,0.6,1.9,0.9,2.9c0.7,3,1,5.7,1.2,8.8
				c0,0,0.1,0.1,0.1,0c0.3-5.3-0.6-9.5-2-14.3c0.1-1,0.1-1.9,0.1-2.9c0.4-6.5,1.8-13.5,1-19.9c-0.1-1.2-0.4-2.4-0.8-3.5
				c1.8,3.1,3.5,6.3,4.2,9.9c0.7,3.4-0.1,6.6-0.6,9.9c-0.3,1.8-1,5,0.5,6.6c-1.5-3.3,0.8-7.5,1.2-10.9c0.4-2.9,0.1-5.7-0.7-8.4
				c0.4,0.5,0.8,0.9,1.1,1.4c1.2,1.8,1.4,3.6,1.6,5.7c0,0,0,0,0,0c0.1-1.9,0.1-3.6-0.8-5.3c-0.6-1.2-1.5-2.3-2.4-3.4
				c-2.2-6.2-6.9-11.7-11.5-16.2c-1.2-1.2-2.4-2.4-3.4-3.7c-1.3-2.1-2.2-4.4-2.6-7.2c-0.2-1.4-0.3-2.9-0.4-4.3c0,0,0,0,0-0.1
				c0.2-2.1,0.1-4.2,0.1-6.3c0-5.2-0.2-30.6-0.3-34.3c-0.1-1.4-0.1-4.9-0.1-5.4c0,0,0-0.1,0-0.1c-0.1-1.3-0.1-2.6-0.2-3.9
				c-0.1-1.3-0.3-2.5,0.3-3.7c0.5-1.1,1.4-2,2.4-2.7c1.2-0.9,2.6-1.7,4-2.1c4.9-1.5,10.5,0.3,14.6,2.8c4,2.4,8.2,6.2,9.4,11
				c0.2,0.9,0.4,1.9,0.5,2.8c0.2,1.4-0.2,3,0.2,4.4c-0.2-1,0.2-2,0.2-3c0-0.6-0.1-1.3-0.2-2c0.1,0.4,0.2,0.8,0.3,1.2
				c0.4,1.6,1.2,5.3,2.9,6.2c0,0,0,0,0,0c-2.1-1.3-2.5-6.5-3-8.6c-0.3-1.2-0.5-2.4-0.9-3.6c1.6,1.9,3.1,3.9,4.5,5.9
				c1.3,2.8,2,5.7,2.4,8.9c0.4,2.9,0.7,5.7,2.1,8.3c0,0,0.1,0,0,0c-2.3-4.5-1.4-9.8-2.9-14.5c1.6,2.7,3.1,5.5,4.5,8.4
				c0.9,3.5,1.3,7.1,1.5,10.9c0,0,0,0,0,0c0-3.1-0.1-6-0.6-8.8c1.1,2.5,2.2,5.1,3.2,7.6c0.5,1.1,0.9,2.3,1.4,3.4
				c0.4,3.9,0.1,8,0.7,11.9c0.6,4.1,1.4,8.3,3.6,11.9c-1.9-4.8-3.2-10.5-3.2-15.7c0-1.9,0-3.8-0.2-5.8c1.2,3,2.3,6.1,3.3,9.1
				c1.9,5.7,2.7,10.1,0.8,15.8c-0.7,1.5-1.6,3.1-2.4,4.8c-1.7,3.4-2.6,7.4-1.8,11.1c0,0,0.1,0.1,0.1,0c-0.8-5.8,2.2-10.6,4.8-15.5
				c0.1-0.1,0.2-0.3,0.2-0.5c0,0.9,0.1,1.8,0,2.6c-0.1,1-0.3,2-0.6,2.9c0,0,0,0,0,0c0.7-2.1,1-3.9,0.8-6.1c0.8-1.7,1.2-3.4,1.2-5.2
				c0.2,1.2,0.5,2.4,0.7,3.7c0.9,5.1-0.2,10.3,0.9,15.4c0,0.1,0.1,0.1,0.1,0c-0.6-3.9-0.3-7.7-0.3-11.6c1.3,2.5,3.2,4.6,3.7,7.6
				c0.5,2.8,0.6,5.9-0.1,8.7c0,0,0.1,0.1,0.1,0c0.9-3.1,0.9-6.6,0.2-9.7c-0.6-2.9-2.4-4.8-3.9-7.1c0-1.4-0.1-2.8-0.2-4.1
				c-0.1-0.9-0.2-1.9-0.4-2.8c0.6,2,1.5,3.9,2.4,5.8c1.1,2.4,2.9,4.4,4,6.8c0.9,2.6,1,5.1,1.1,7.9c0,0,0,0,0,0
				c0.2-3.4,0.3-6.6-1.5-9.7c0,0,0,0-0.1-0.1c-0.6-1.1-1.4-2.2-2.1-3.3c-0.4-0.7-0.8-1.5-1.2-2.2c1.4,1.3,3.2,2.1,4.5,3.5
				c2.3,2.5,3.1,5.6,3.3,8.9c0,0,0.1,0.1,0.1,0C189.5,219,189.1,215.9,187.5,213.7z" />
							<g>
								<path class="st7" d="M105.2,140.4c-3.3,1-6.1,2.5-8.7,4.6c0,0,0,0.1,0,0c1.3-0.9,2.6-1.8,4.1-2.4
					C102.1,142,105.6,140.3,105.2,140.4z" />
								<path class="st7"
									d="M93.6,147.9c-1.3,1.3-2.9,2.4-3.9,3.8c-1.3,1.8-2.6,3.5-3.9,5.2c-2.5,3.4-4.7,7.2-6.3,11.1
					c-0.1,0.1,0.1,0.1,0.2,0c1.7-3.6,3.8-7.1,6.1-10.4C88,154.1,90.8,151,93.6,147.9C93.7,147.9,93.7,147.9,93.6,147.9z" />
								<path class="st7" d="M121.7,143.9c-1.6-2.8-5-5.2-8.2-5.4c0,0,0,0,0,0c1.7,0.3,3.4,1.3,4.8,2.3c1.3,0.9,2.2,2.1,3.3,3.2
					C121.6,144.1,121.7,143.9,121.7,143.9z" />
								<path class="st7" d="M124.7,131.5c0.2-3.9,1.2-7.4,2.2-11.1c0-0.1-0.1-0.1-0.1,0c-0.5,1.7-1.2,3.3-1.5,5
					c-0.4,2.1-0.7,4.1-0.9,6.2c-0.2,2.8,0.1,5.6,0.9,8.3c0,0.1,0.1,0,0.1-0.1C124.9,137,124.5,134.3,124.7,131.5z" />
								<path class="st7" d="M112.4,111.1C112.4,111,112.4,111.1,112.4,111.1c5.8,6.5,7,14.3,8,22.7c0,0.1,0.1,0,0.1-0.1
					C120.4,125.4,118.4,116.9,112.4,111.1z" />
								<path class="st7" d="M108.8,262.4c-0.4-4.5-0.1-9.1-1.2-13.6c0,0,0,0,0,0c0.3,2.5,0.2,5.1,0.3,7.7c0.2,2,0.2,4.1,0.3,6.1
					c0.3,4.9,0.8,9.9,1.4,14.8c0,0.1,0.1,0,0.1-0.1C109.5,272.4,109.2,267.4,108.8,262.4z" />
								<path class="st7" d="M137.6,242.6C137.6,242.6,137.6,242.6,137.6,242.6c-1.1,5.5-1.4,10.9-1.8,16.5c-0.3,5.5,0.1,10.9-0.7,16.3
					c0,0.1,0.1,0,0.1,0c0.7-2.3,0.9-4.6,0.9-7c0-2.7,0.2-5.5,0.1-8.1C136.1,254.4,136.6,248.4,137.6,242.6z" />
								<path class="st7" d="M134.3,138.2c-5-0.2-11,2.8-11.5,8.3c0,0,0,0,0,0C123.7,141.2,129.4,138.4,134.3,138.2
					C134.3,138.2,134.3,138.2,134.3,138.2z" />
							</g>
						</g>
						<g>
							<g>
								<path id="blueSmallArtery" class="st9 all" d="M113.9,187.6c-0.9-0.1-1.8-0.2-2.7-0.3c-0.6-0.1-0.7-0.8-0.5-1.4c0-0.1,0.1-0.1,0.2-0.1
					c1.2,0,2.5,0.4,3.7,0.4c0.6,0,1.2,0.1,1.8,0.1c-0.6-0.5-1.2-1-1.8-1.6c-0.5-0.5-1.6-1.5-0.8-2.3c0,0,0,0,0,0
					c0.1-0.1,0.4,0,0.5,0.2c0.7,1.1,1.6,1.9,2.5,2.5c1.2,0.7,2.6,1,3.9,1.2c0.7,0,5.8,0.2,7.7,0.4c0.1,0,0.2,0,0.3,0
					c1.5-0.1,2.9-0.1,4.2-0.6c0.7-0.3,1.4-0.8,2-1.6c0.4-0.5,0.7-1,1-1.6c0.1-0.3,0.2-0.3,0.4-0.2c0.1,0,0.2,0.1,0.2,0.3
					c0.1,0.5-1.2,2.8-1.7,3.3c-0.1,0.1-0.3,0.3-0.5,0.4c0,0,0.1,0,0.1,0c1.4-0.1,2.9-1,4-2.1c0.1-0.1,0.5-0.7,0.8-0.9
					c0.2,0.1,0.4,0.4,0.5,0.6c0.1,1.1-1.2,2.3-1.8,2.7c-0.2,0.1-0.4,0.3-0.7,0.4c-0.7,0.4-1.5,0.7-2.2,0.8c1.1,0.5,2.1,1.1,2.9,2
					c0.5,0.5,1,1,1.3,1.7c0.1,0.2,0.2,0.4,0.2,0.6c0.2,0.8-0.5,1.5-0.9,0.6c-0.1-0.2-0.3-0.5-0.4-0.7c-0.6-1.1-1.3-1.8-2.2-2.3
					c-3.8-2.2-8.6-2-12.3-2.1c-1.8-0.1-3.6-0.1-5.4-0.1c-2.8,0-4.5,1.4-6.9,3.1c-0.2,0.1-0.6-0.8-0.4-1
					C111.8,188.9,112.8,188.1,113.9,187.6z" />
								<path id="blueLargeArtery" class="st9" d="M143.1,228c-0.8-4.6-3.5-8.6-6.8-11.9c-2.9-2.8-5.5-5.3-7.4-8.9c-3.2-5.9-2.2-12.4-2.3-18.9c0-2,0-4,0-6
					c0-4.2,0-8.4,0-12.6c0-3.1,0.9-6.4-1-9.1c0,0-0.1,0-0.1,0c-1.5,3.2-1,6.1-1,9.6c0,4.2,0,8.4,0,12.6c0,3.4-0.1,6.8-0.1,10.2
					c0,2.3,0.3,4.5,0,6.8c-0.3,2.2-1.2,4.4-2.5,6.2c-2.8,4.2-6.9,6.9-10.8,10c-2.8,2.3-5.5,4.9-6.8,7.9c-1.1,0.7-2,1.8-2.8,2.9
					c-0.5,0.8-0.8,1.5-1.1,2.4c-0.2,0.9-0.1,1.8-0.2,2.6c0,0,0,0,0,0c0.7-1.4,0.9-2.8,1.8-4c0.5-0.6,1-1.1,1.5-1.6
					c0,0.1,0,0.3-0.1,0.5c-0.2,0.7-0.3,1.5-0.4,2.2c0,1.3,0.1,2.8,0.5,4.1c0.3,2.5,1,4.9,2.3,7.2c0,0.1,0.1,0,0.1-0.1
					c-0.4-1.2-0.7-2.5-0.9-3.8c0,0,0,0,0,0c-0.1-2.2-0.2-4.2-0.2-6.1c0-0.2,0.1-0.4,0.1-0.7c0.4,2.9,2,4.9,4.3,6.8c0,0,0.1,0,0,0
					c-2-3.5-3.7-7.2-3-11.1c1.1-2.4,2.6-4.3,4.9-6.4c1-0.9,2.1-1.8,3.1-2.6c-0.2,0.4-0.4,0.8-0.6,1.1c-1.4,2.6-1.4,5.1-0.1,7.8
					c0,0,0.1,0,0.1,0c-0.9-4.5,1.1-7.9,3.5-11.1c1.4-1.2,2.8-2.4,4.1-3.9c0,0,0.1-0.1,0.1-0.1c1.5-1.5,2.9-3.1,3.6-5
					c0.6,2.6,2,5,3.7,7c2,2.4,4.6,4.7,6.3,7.3c0.3,0.5,0.6,1.1,0.8,1.6c0.2,1,0.4,2.1,0.6,3.1c0,2-0.5,4-1.1,6
					c-0.1,0.3,0.3,0.3,0.4,0.1c0-0.1,0.1-0.2,0.1-0.2c1.7-1.8,2.2-5.4,1.6-8.4c0.2,0.3,0.5,0.6,0.7,1c1.7,2.6,2.8,5.7,3.7,8.7
					c0.1,2.8-0.4,5.7-1,8.4c-0.1,0.2,0.3,0.1,0.3,0c0.1-0.1,0.1-0.2,0.1-0.4c0.1,0,0.2-0.1,0.2-0.1c1.1-2.3,1.9-5,1.8-7.7
					c0.2,0.4,0.4,0.7,0.6,1.1c0.9,1.8,2.1,3.9,2.3,5.9c0,0.1,0.2,0,0.2-0.1C146.7,234.9,144.9,230.9,143.1,228z" />
								<path class="st8" d="M125.5,185.6c0-3,0.2-6.2-0.3-9.2c0,0,0,0,0,0c0.3,3.3,0,6.7,0,10c0,3.4,0.1,6.8,0.1,10.2
					c0,0.1,0.1,0,0.1,0C125.6,193,125.5,189.3,125.5,185.6z" />
							</g>
						</g>
						<g>
							<path id="redSmallHeart" class="st6 all" d="M139.5,149.7c0,0,0,0.1,0,0.1c-0.5-3.2,1.7-5.1,1.6-5c-1.1,0.4-1.7,1.5-1.9,2.9c0,0.1,0,0.3-0.1,0.4
				c0,0,0,0,0-0.1c-0.3-1-0.2-1.9,0.1-2.9c-0.1,0.1-0.1,0.1-0.1,0.2c-0.1,0.2-0.2,0.4-0.3,0.6c0,0.1,0,0.1-0.1,0.1c0,0,0,0,0,0
				c-0.1,0.3-0.1,0.6-0.1,1.1c0.1,0.7,0.3,1.4,0.4,2.1c-0.1,1-0.2,2-0.5,3c-0.5,1.9-2.3,3.7-4.3,3.9c-0.4,0-0.9-0.1-1.2-0.1
				c-0.3-0.1-0.7,0.4-0.6,0.6c-0.1,0.1-0.2,0.2-0.3,0.3c-0.2,0.4,0,0.6,0.2,0.7c0,0.1,0,0.1,0.1,0.1c0.5,0.5,1.2,0.4,2,0
				c1.6-0.3,3.1-1.2,4-2.6c0.8-1.3,0.9-2.8,1.3-4.2c0-2.3,2.4-3.6,2.4-3.6C141.1,147.8,139.9,148.5,139.5,149.7z" />
							<g>
								<g>
									<g>
										<g>
											<path class="st10" d="M129.9,171.5c-0.4-1-0.8-2-1-3.1c0,0,0-0.1,0-0.1c0,0,0,0,0-0.1c-0.1-0.8-0.1-1.6,0.1-2.4
								c0.1-0.3,0.3-0.8,0.4-1.2c0-0.1,0.1-0.1,0.1-0.1c0.1-0.1,0.1-0.3,0-0.4c-0.3-0.6-1.2-0.9-1.9-0.9c-0.7,0-1.5,0-2,0.4
								c-0.3,0.2-0.4,0.7-0.4,1.1c-0.3,1.7-2,3.1-3.3,4c-0.7,0.4-1.2,0.9-1.6,1.5c-0.1,0.1-0.2,0.3-0.3,0.5v0c0,0,0,0,0,0
								c0,0,0,0,0,0.1c-0.1,0.3,0,0.6,0.4,0.7c0.4,0.2,0.6,0,0.7-0.4c0.1-0.2,0.2-0.4,0.4-0.6c0.4-0.6,1-0.9,1.6-1.2
								c0.6-0.3,1.2-0.6,1.8-1c-0.4,0.6-0.9,1.2-1.4,1.8c-0.4,0.5-0.9,1.1-1,1.8c0,0,0,0.1,0,0.1c1.2,0.6,1.7-0.7,2.3-1.5
								c0.7-0.9,1.7-1.6,2.2-2.6c-0.2,0.7-0.3,1.4-0.3,2.1c0.1,0.6,0.3,2.7,1,2.9c0.3,0.1,1-0.1,1.1-0.4s-0.2-1.2-0.3-1.6
								c0-0.2-0.1-0.5-0.1-0.7c0.2,0.9,0.6,1.7,0.9,2.6c0,0,0,0.1,0,0.1c0,0.2,0.1,0.3,0.3,0.3c0.3,0.1,0.6-0.1,0.9-0.3
								C130.5,172.8,130,171.7,129.9,171.5z" />
											<path class="st11" d="M120.6,171.4c-0.1,0-0.1,0.1-0.2,0c-0.3-0.1-0.5-0.4-0.4-0.7c0.2-0.1,0.4,0.1,0.5,0.1
								C120.7,170.9,120.7,171.1,120.6,171.4C120.6,171.3,120.6,171.4,120.6,171.4z" />
											<path class="st11" d="M122.8,172.1c-0.2,0-0.3-0.2-0.3-0.4c0,0,0.1-0.1,0.1-0.1c0.1,0,0.2,0,0.3,0.1c0.1,0.1,0.2,0.2,0.2,0.3
								C123,172.1,122.9,172.1,122.8,172.1z" />
											<path class="st11" d="M128,172.7C128,172.7,128,172.7,128,172.7c0,0-0.1,0-0.1,0.1c-0.2,0.1-0.3,0-0.4,0
								c-0.1-0.2,0.3-0.3,0.5-0.3c0.1,0,0.2,0,0.3,0.1C128.2,172.6,128.1,172.7,128,172.7z" />
											<path id="redHeart" class="st12 all" d="M128.8,171.7C128.8,171.7,128.8,171.7,128.8,171.7c-0.3-0.8-0.5-1.6-0.7-2.4c0-0.3,0-0.6,0-0.9
								c-0.1,0.6-0.2,1.1-0.2,1.7c0,0.3,0.1,0.7,0.1,1c0.1,0.4,0.1,0.8,0.2,1.2c-0.2-0.1-0.4,0-0.6,0c-0.2,0.1-0.3,0.2-0.4,0.3
								c-0.7-0.8-0.6-3.9-0.5-5.5c0,0,0,0,0,0.1c-0.4,1.1-0.9,1.9-1.8,2.7c-0.3,0.3-1,1.5-1.7,2c0-0.4-0.4-0.5-0.7-0.4
								c0.3-0.7,1.3-1.6,1.4-1.8c0.2-0.3,0.4-0.6,0.6-0.9c0.3-0.3,0.5-0.7,0.6-1.1c0,0,0,0,0,0c0-0.2-0.1-0.4-0.1-0.5
								c-0.1,0.3-0.2,0.7-0.3,1c-0.8,0.6-1.9,0.9-2.7,1.4c-0.3,0.2-0.6,0.5-0.8,0.7c-0.2,0.1-0.3,0.3-0.4,0.5c0,0,0,0.1-0.1,0.1
								c-0.1-0.3-0.6-0.4-0.8-0.3c0,0,0,0,0-0.1c0.8-1.4,2.6-2,3.8-3.1c0.7-0.7,1.3-1.8,1.4-2.8c0.1-0.5,0.3-0.9,0.9-1.1
								c0.5-0.2,1.2-0.1,1.8-0.1c0.3,0,1.7,0.6,1.2,1.2c-0.1,0.5-0.2,1-0.4,1.5c-0.2,1.6-0.2,2.9,0.6,4.5c0.3,0.6,0.6,1.1,0.8,1.8
								c-0.2-0.1-0.5-0.1-0.7,0.1c-0.1,0.1-0.2,0.2-0.2,0.3C129,172.4,129,172.1,128.8,171.7z" />
											<path class="st11" d="M129.6,173c-0.1,0.1-0.2,0-0.3,0c0-0.1,0-0.2,0-0.3c0.1-0.1,0.1-0.1,0.2-0.2c0.2-0.1,0.4,0,0.5,0.2
								C129.9,172.8,129.8,172.9,129.6,173z" />
										</g>
										<g>
											<path class="st12" d="M124.9,168.6c-0.2,0.4-0.5,0.8-0.7,1.1c-0.4,0.5-0.8,1-1.1,1.5c0.8-1,2.4-2.1,2.3-3.6c0,0,0,0,0,0
								C125.3,168,125.1,168.3,124.9,168.6z" />
											<path class="st12" d="M124.4,167.4c-1.2,1.2-3.4,1.4-4.1,3.1c0,0.1,0.1,0.1,0.1,0C121.5,169.1,123.4,168.8,124.4,167.4
								C124.5,167.3,124.4,167.3,124.4,167.4z" />
											<path class="st12" d="M127.2,169.9c0-0.6,0.1-1.2-0.1-1.7c0,0,0,0,0,0c0,0.6-0.2,1.2-0.2,1.8c0,0.7,0.2,1.3,0.4,1.9
								c0,0.1,0.1,0,0.1-0.1C127.4,171.2,127.3,170.6,127.2,169.9z" />
											<path class="st12" d="M128.6,169.9C128.6,169.9,128.6,169.9,128.6,169.9c0,0.5,0.1,0.9,0.2,1.4c0.1,0.4,0.2,0.7,0.4,1
								c0.1,0.1,0.1,0,0.1-0.1C129.2,171.4,128.7,170.7,128.6,169.9z" />
										</g>
									</g>
									<g class="heart">
										<g>
											<path class="st13" d="M138.1,156.2c-0.4-3.2-3.7-6-6.8-7.1c-0.3-0.2-0.7-0.5-1.1-0.6c-0.9-0.2-1.9-0.3-2.8-0.2
								c-1.6,0.3-2.9,1.7-3.5,3.1c0,0-0.1,0-0.1,0.1c-1.8,0.5-3.3,1.4-4.2,3.2c-0.6,1.2-1.1,2.8-0.8,4.1c0.2,1,0.9,1.6,1.6,2.3
								c0.2,1.6,0.5,3.2,1.5,4.5c0.5,0.6,1.3,0.9,2,1.1c1.3,0.4,2.5,0.9,3.8,1.2c1.9,0.5,4.1,0.7,6,0.6c1.4,0,3.1,0.7,4.2-0.6
								C140.5,165,138.4,159.6,138.1,156.2z" />
											<path class="st12" d="M132.7,168c-1.9-0.3-3.7-0.3-5.5-0.8c-0.8-0.2-1.8-0.5-2.8-0.8c-1.3-0.3-2.5-0.9-2.9-2.2
								c-0.6-0.9-0.9-2-1.1-3c0.3,0.3,0.7,0.7,0.9,1.1c-0.1-0.5-0.3-1.1-0.6-1.5c-0.3-0.4-0.6-0.7-1-1.1c-0.1-0.1-0.1-0.1-0.1-0.2
								c-0.2-0.2-0.3-0.4-0.4-0.6c-0.6-1.1-0.2-2.1,0-3.2c0.5-2.1,2.8-3.3,4.8-4.2c0.2-0.1,0.4-0.1,0.6-0.1c0.7-0.1,1.4-0.3,2.2-0.1
								c0,0,0.1-0.1,0.1-0.1c-0.7-0.6-1.9-0.5-2.8-0.1c0.9-1.3,2.5-2.4,4-2.5c0.1,0,0.1,0,0.2,0c1.2-0.1,2.3,0.2,3.4,0.9
								c2.9,0.7,4.8,3.3,5.8,6c0.6,1.5,0.9,3.2,1.1,4.7c0.3,2,0.6,4.1,0,6.1C137.7,169.2,134.5,168.3,132.7,168z" />
											<path class="st14" d="M138.5,160.4c-0.2-1.5-0.5-3.2-1.1-4.7c-1-2.7-2.8-5.3-5.8-6c-1.1-0.7-2.2-1.1-3.4-0.9
								c-0.1,0-0.1,0-0.2,0c-1.5,0-3.1,1.2-4,2.5c0.9-0.4,2.1-0.5,2.8,0.1c0,0,0,0.1-0.1,0.1c-0.7-0.2-1.4-0.1-2.2,0.1
								c-0.2,0-0.4,0.1-0.6,0.1c-2,0.9-4.2,2.1-4.8,4.2c-0.3,1.1-0.6,2.2,0,3.2c0.1,0.2,0.3,0.4,0.4,0.6c0.1,0.1,0.1,0.1,0.1,0.2
								c0.3,0.4,0.7,0.7,1,1.1c0.3,0.4,0.5,0.9,0.6,1.5c-0.2-0.4-0.6-0.8-0.9-1.1c0.2,1,0.6,2.1,1.1,3c0.5,1.3,1.6,1.9,2.9,2.2
								c1,0.4,2,0.6,2.8,0.8c1.8,0.5,3.6,0.5,5.5,0.8c1.8,0.3,5,1.1,5.7-1.4C139,164.6,138.8,162.5,138.5,160.4z M136.7,165
								c-0.4,0.6-1.2-0.1-1.7-0.6c-0.3-0.2-0.7-0.4-1-0.6c-1-0.4-2.1-0.8-3.1-1.3c-0.2-0.1-0.1-0.4,0.1-0.5c0.9-0.7,1.7-1.2,2-2.4
								c0.1-0.6,0.2-1.4,0-2c-0.7,1.5-1.5,2.7-3,3.3c-0.1,0.1-0.3,0.2-0.5,0.3c-0.2,0.1-0.3,0.2-0.5,0.3c-0.1,0.1-0.2,0.1-0.3,0
								c-0.1,0-0.2-0.1-0.2-0.2c0-0.2,0-0.4,0-0.7c0-0.1,0-0.1,0.1-0.1c-0.2-2.5-0.8-5.2-3.5-5.4c1.5,1.6,2.2,3.4,2.5,5.7
								c0.2,1.5,0.5,3.4-0.2,4.8c0,0,0,0,0,0.1c0,0.2-0.2,0.4-0.4,0.4c-1.7,0-4.2-0.6-4.8-2.4c-0.1-0.3,0.3-0.5,0.5-0.5
								c0.1,0,0.2,0,0.3,0.1c-0.8-1.2-1.8-2.4-2.3-3.7c-0.1-0.4-0.2-0.7-0.2-1c-0.4-1.1-0.3-2.4,0.3-3.6c0.2-0.3,0.4-0.6,0.6-0.7
								c1.4-1.6,4.2-1.3,6.1-2.5c-0.2-0.3-0.5-0.6-0.8-0.9c-0.2-0.2,0.2-0.6,0.4-0.6c0.5,0,2.2-0.3,2.3,0.5c0.2,1.1,0.4,2.2,1.2,3.1
								c0.3,0.3,0.6,0.6,0.8,0.9c0.5,0.3,1.1,0.6,1.7,0.7c0.5,0.1,1.1,0.2,1.5,0.5c1.5,1.4,2.2,3.4,2.6,5.4
								C137.4,162.4,137.4,164,136.7,165z" />
											<path class="st13" d="M128.3,158.6c-0.3-1.2-0.9-1.7-1.9-2.4c0,0,0,0,0,0c1.9,1.9,1.7,4.2,1.8,6.7c0,0.1,0.1,0,0.1,0
								C128.7,161.4,128.7,160.1,128.3,158.6z" />
											<path class="st13" d="M132.7,158.7c-0.1,0.2-0.2,0.3-0.3,0.5c-0.5,0.8-1.2,1.3-2,1.9c-0.1,0.1-0.1,0.2,0,0.2
								c1-0.2,1.7-1.1,2.2-2C132.7,159,132.7,158.9,132.7,158.7z" />
										</g>
										<path class="st12" d="M124.6,153.7c-1.3-0.4-2.8,0.4-3.4,1.7c-0.7,1.4-0.7,2.9,0,4.2c0.4,1.2,1.1,2.3,2,3.1
							c0.1,0.1,0.2-0.1,0.2-0.2c-0.9-2.5-0.8-6.4,1.2-8.3C124.7,154,124.8,153.7,124.6,153.7z" />
										<path class="st12" d="M127.7,154.9c-0.3,0-0.6,0.4-0.4,0.6c0.5,0.6,0.9,1.1,1.2,1.8c0.3,1,0.5,2,0.5,3c0,0.2,0.3,0.2,0.4,0.1
							C131.6,158.8,130.4,155,127.7,154.9z" />
										<path class="st12" d="M135.5,158.7c-0.3-0.8-0.9-1.5-1.7-1.8c0.1,0.5,0.1,1,0.1,1.4c0,0.6-0.1,1.2-0.3,1.8
							c-0.1,0.4-0.2,0.9-0.5,1.1c-0.1,0.2-0.2,0.3-0.3,0.5c0,0,0,0,0.1,0c0.7,0.1,1.5-0.1,2.1-0.6
							C135.5,160.5,135.9,159.6,135.5,158.7z" />
									</g>
								</g>
								<g>
									<path id="blueHeart" class="st9 all" d="M142.2,156.4c0.2,0.1,0.4,0.2,0.5,0.4c0-0.1-0.1-0.2-0.1-0.2c-0.2-0.2-0.4-0.4-0.7-0.4
						c0-0.1-0.1-0.2-0.1-0.2c-0.3-0.4-0.6-0.8-0.9-1.1c0.4,0.1,0.8,0.2,1.2,0.1c0.1-0.1,0.1-0.1,0.2-0.1c0.1,0,0.1-0.1,0.2-0.1
						c-0.3,0.1-0.6,0.1-0.8,0.1c0.1-0.1,0.2-0.2,0.3-0.3c0.2-0.1,0.5-0.2,0.7-0.4c0,0,0,0,0,0c-0.2,0.1-0.5,0.2-0.7,0.3
						c-0.2,0.1-0.4,0.2-0.5,0.4c-0.1,0-0.2,0-0.2,0c0,0,0,0,0-0.1c-0.2,0-0.4-0.1-0.5-0.2c-0.1-0.1-0.1-0.1-0.2-0.2
						c-0.2-0.2-0.4-0.4-0.5-0.6c-0.2-0.4-0.4-0.8-0.5-1.3c0.1,0.1,0.3,0.2,0.5,0.3c-0.1-0.1-0.2-0.3-0.3-0.4
						c-0.1-0.1-0.2-0.2-0.3-0.4c-0.2-0.8-0.3-1.6-0.6-2.3c0.2,0.3,0.6,0.6,0.9,0.8c1,0.6,1.5,1.9,1.9,3c0,0,0.1,0,0.1,0
						c-0.2-0.7-0.4-1.3-0.7-2c0.1,0.1,0.1,0.1,0.2,0.2c0.2,0.1,0.4,0.3,0.6,0.4c-0.1-0.1-0.1-0.2-0.2-0.3c-0.1-0.1-0.2-0.2-0.4-0.3
						c-0.2-0.2-0.4-0.4-0.6-0.6c0,0,0,0,0,0c-0.6-0.8-1.5-1.3-2.1-2.1c-0.9-1-2.1-1.9-3.5-1.8c-2,0.2-3.3,2-3.9,3.7
						c-0.1,0.2-0.1,0.3-0.1,0.5c-0.2,1-0.2,2,0.4,2.7c0.4,0.4,1.1,1.1,1.7,0.7c0.8-0.5,0.4-1.9,0.5-2.7c0.1-1.1,0.7-2.3,1.7-2.8
						c0.6-0.3,1.4-0.3,1.9,0.1c0.8,0.6,0.4,1.4,0.5,2.3c0,0.4,0.1,0.8,0.2,1.1c-0.1-0.4-0.1-0.7-0.1-1.1c0-0.3,0.1-0.5,0.1-0.8
						c0.1,0.3,0.2,0.7,0.3,1c0.1,0.3,0.2,0.6,0.3,0.9c0.2,0.9,0.1,1.8,0.3,2.8c-0.1,0.5,0,1,0.3,1.4c0.2,0.3,0.4,0.9,0.8,1
						c-0.3-0.1-0.6-0.8-0.7-1.1c-0.1-0.3-0.2-0.6-0.2-0.9c0.2,0.4,0.7,1,1.1,1.1c0,0,0,0,0,0c-0.7-0.3-0.9-1.1-1.1-1.8c0,0,0,0,0,0
						c0,0,0,0,0,0c0-0.2-0.1-0.5-0.1-0.7c0-0.3,0-0.7,0-1c0.4,0.7,0.9,1.2,1.6,1.5c0.2,0.2,0.4,0.4,0.7,0.6c0,0,0.1,0.1,0.1,0.1
						c-0.1,0.7,0.1,1.9,0.7,2.3c-0.6-0.5-0.5-1.4-0.5-2.1c0.6,0.6,1,1.8,0.9,2.6c0,0,0.1-0.1,0.1-0.1c0.1-0.5,0-1-0.2-1.5
						C142.2,156.4,142.2,156.4,142.2,156.4z" />
									<path class="st15" d="M142.8,156.8c0-0.1-0.1-0.2-0.1-0.2c-0.2-0.2-0.4-0.4-0.7-0.4c0-0.1-0.1-0.2-0.1-0.2
						c-0.3-0.4-0.6-0.8-0.9-1.1c0.4,0.1,0.8,0.2,1.2,0.1c0.1-0.1,0.1-0.1,0.2-0.1c0.1,0,0.1-0.1,0.2-0.1c-0.3,0.1-0.5,0.1-0.7,0.1
						c-0.6,0.1-1.1,0-1.6-0.5c-1-0.9-1.3-2.1-1.7-3.3c-0.2-0.6-0.4-1.4-0.9-1.9c-1.3-1.3-3.3-1.7-4.5,0.7c-0.3,0.5-0.6,3.2-1.5,3.1
						c-0.6-0.1-0.8-0.5-0.9-1.1c-0.1,0.8,0,1.5,0.5,2.1c0.4,0.4,1.1,1.1,1.7,0.7c0.8-0.5,0.4-1.9,0.5-2.7c0.1-1.1,0.7-2.3,1.7-2.8
						c0.6-0.3,1.4-0.3,1.9,0.1c0.8,0.6,0.4,1.4,0.5,2.3c0,0.4,0.1,0.8,0.2,1.1c-0.1-0.4-0.1-0.7-0.1-1.1c0-0.3,0.1-0.5,0.1-0.8
						c0.1,0.3,0.2,0.7,0.3,1c0.1,0.3,0.2,0.6,0.3,0.9c0.2,0.9,0.1,1.8,0.3,2.8c-0.1,0.5,0,1,0.3,1.4c0.2,0.3,0.4,0.9,0.8,1
						c-0.3-0.1-0.6-0.8-0.7-1.1c-0.1-0.3-0.2-0.6-0.2-0.9c0.2,0.4,0.7,1,1.1,1.1c0,0,0,0,0,0c-0.7-0.3-0.9-1.1-1.1-1.8c0,0,0,0,0,0
						c0,0,0,0,0,0c0-0.2-0.1-0.5-0.1-0.7c0-0.3,0-0.7,0-1c0.4,0.7,0.9,1.2,1.6,1.5c0.2,0.2,0.4,0.4,0.7,0.6c0,0,0.1,0.1,0.1,0.1
						c-0.1,0.7,0.1,1.9,0.7,2.3c-0.6-0.5-0.5-1.4-0.5-2.1c0.6,0.6,1,1.8,0.9,2.6c0,0,0.1-0.1,0.1-0.1c0.1-0.5,0-1-0.2-1.5
						c0,0,0.1,0,0.1,0.1C142.4,156.5,142.6,156.7,142.8,156.8z" />
								</g>
							</g>
							<path class="st8" d="M135.1,147.1c-2.4,0-3.6,2.5-3.9,4.5c0,0,0,0,0,0C131.7,149.5,132.9,147.8,135.1,147.1
				C135.1,147.1,135.1,147.1,135.1,147.1z" />
						</g>
					</g>
				</g>
			</svg>