<svg height="512pt" viewBox="-41 0 512 512" width="512pt" xmlns="http://www.w3.org/2000/svg"><path d="m262.550781 504.5v-121.421875c0-12.304687 3.886719-24.296875 11.109375-34.261719l29.003906-40.027344c7.222657-9.964843 11.109376-21.957031 11.109376-34.265624v-149.589844h-165.964844v379.566406zm0 0" fill="#fecaa8"/><path d="m286.113281 70.753906c-15.277343 0-27.660156 12.386719-27.660156 27.660156v-29.417968c0-15.273438-12.382813-27.660156-27.660156-27.660156-15.277344 0-27.664063 12.386718-27.664063 27.660156v-33.835938c0-15.277344-12.382812-27.660156-27.660156-27.660156s-27.660156 12.382812-27.660156 27.660156v32.914063c0-15.277344-12.382813-27.664063-27.660156-27.664063-15.277344 0-27.660157 12.386719-27.660157 27.664063v204.894531h55.320313v-43.15625h40.71875c45.332031 0 89.382812 15.039062 125.246094 42.761719v-174.160157c0-15.273437-12.382813-27.660156-27.660157-27.660156zm0 0" fill="#fecaa8"/><path d="m359.601562 143.511719c0-41.082031-33.300781-74.382813-74.382812-74.382813-27.460938 0-51.425781 14.890625-64.3125 37.03125-12.882812-22.140625-36.851562-37.03125-64.3125-37.03125-41.082031 0-74.382812 33.300782-74.382812 74.382813 0 104.089843 138.695312 193.71875 138.695312 193.71875s138.695312-89.628907 138.695312-193.71875zm0 0" fill="#f55"/><path d="m359.609375 143.515625c0 104.089844-138.707031 193.71875-138.707031 193.71875s-14.210938-9.183594-33.53125-25.078125c22.144531-15.21875 134.941406-97.324219 134.941406-191.195312 0-19.066407-7.167969-36.460938-18.960938-49.609376 32.320313 8.089844 56.257813 37.324219 56.257813 72.164063zm0 0" fill="#f72b2b"/><path d="m119.125 219.695312v-53.785156c0-16.125-13.074219-29.195312-29.199219-29.195312s-29.199219 13.070312-29.199219 29.195312v108.613282c0 12.308593 3.890626 24.300781 11.109376 34.265624l29.003906 40.027344c7.222656 9.964844 11.113281 21.957032 11.113281 34.265625v121.417969h65.566406v-226.410156c0-32.25-26.144531-58.394532-58.394531-58.394532zm0 0" fill="#ffdfc7"/><path d="m409.535156 104.71875c0 33.699219-27.320312 61.019531-61.019531 61.019531s-61.019531-27.320312-61.019531-61.019531c0-33.703125 27.320312-61.023438 61.019531-61.023438s61.019531 27.320313 61.019531 61.023438zm0 0" fill="#38aaff"/><path d="m262.550781 457.671875c-4.144531 0-7.5 3.359375-7.5 7.5v39.328125c0 4.140625 3.355469 7.5 7.5 7.5s7.5-3.359375 7.5-7.5v-39.328125c0-4.140625-3.359375-7.5-7.5-7.5zm0 0"/><path d="m77.910156 304.390625c-6.332031-8.742187-9.679687-19.070313-9.679687-29.867187v-27.070313c0-4.140625-3.359375-7.5-7.5-7.5-4.144531 0-7.5 3.359375-7.5 7.5v27.070313c0 13.980468 4.332031 27.347656 12.535156 38.667968l29.003906 40.027344c6.335938 8.738281 9.683594 19.066406 9.683594 29.863281v121.417969c0 4.140625 3.355469 7.5 7.5 7.5 4.140625 0 7.5-3.359375 7.5-7.5v-121.421875c0-13.976563-4.335937-27.347656-12.535156-38.664063zm0 0"/><path d="m15.820312 116.363281-2.074218 1.582031-1.65625-1.28125c-3.269532-2.535156-7.984375-1.9375-10.519532 1.339844-2.535156 3.273438-1.9375 7.984375 1.339844 10.523438l6.210938 4.808594c1.351562 1.046874 2.972656 1.570312 4.589844 1.570312 1.605468 0 3.207031-.511719 4.550781-1.539062l6.65625-5.074219c3.292969-2.511719 3.925781-7.21875 1.414062-10.511719-2.511719-3.296875-7.21875-3.929688-10.511719-1.417969zm0 0"/><path d="m380.792969 245.046875-2.074219 1.582031-1.652344-1.28125c-3.273437-2.535156-7.984375-1.9375-10.519531 1.335938-2.539063 3.277344-1.9375 7.988281 1.335937 10.523437l6.210938 4.808594c1.351562 1.046875 2.972656 1.570313 4.59375 1.570313 1.601562 0 3.203125-.511719 4.546875-1.535157l6.660156-5.078125c3.292969-2.511718 3.925781-7.21875 1.414063-10.511718-2.515625-3.292969-7.222656-3.925782-10.515625-1.414063zm0 0"/><path d="m428.371094 197.203125c-2.515625-3.292969-7.21875-3.925781-10.515625-1.414063l-2.070313 1.582032-1.65625-1.28125c-3.273437-2.535156-7.984375-1.9375-10.519531 1.339844-2.535156 3.273437-1.9375 7.984374 1.335937 10.519531l6.210938 4.8125c1.351562 1.046875 2.972656 1.570312 4.59375 1.570312 1.601562 0 3.203125-.511719 4.546875-1.539062l6.660156-5.078125c3.289063-2.511719 3.925781-7.214844 1.414063-10.511719zm0 0"/><path d="m53.828125 70.136719c-2.511719-3.292969-7.21875-3.929688-10.511719-1.414063l-2.074218 1.582032-1.65625-1.28125c-3.273438-2.539063-7.984376-1.9375-10.519532 1.335937-2.535156 3.277344-1.9375 7.988281 1.339844 10.523437l6.210938 4.808594c1.351562 1.046875 2.96875 1.570313 4.589843 1.570313 1.605469 0 3.207031-.511719 4.550781-1.535157l6.65625-5.078124c3.292969-2.515626 3.925782-7.21875 1.414063-10.511719zm0 0"/><path d="m348.515625 36.195312c-21.726563 0-41.109375 10.175782-53.675781 26.003907-3.179688-.375-6.40625-.570313-9.621094-.570313-6.683594 0-13.265625.835938-19.621094 2.417969-2.414062-17.050781-17.101562-30.207031-34.808594-30.207031-7.492187 0-14.445312 2.355468-20.160156 6.367187v-5.046875c.003906-19.386718-15.769531-35.160156-35.160156-35.160156-19.386719 0-35.160156 15.773438-35.160156 35.160156v4.121094c-5.710938-4.011719-12.664063-6.367188-20.160156-6.367188-19.386719 0-35.160157 15.773438-35.160157 35.160157v34.125c0 .460937.046875.910156.125 1.347656-4.929687 8.804687-8.203125 18.496094-9.609375 28.625-13.085937 5.613281-22.273437 18.621094-22.273437 33.738281v44.523438c0 4.140625 3.355469 7.5 7.5 7.5 4.140625 0 7.5-3.359375 7.5-7.5v-44.523438c0-11.964844 9.730469-21.695312 21.695312-21.695312 11.964844 0 21.699219 9.730468 21.699219 21.695312v53.785156c0 4.144532 3.355469 7.5 7.5 7.5 28.0625 0 50.894531 22.832032 50.894531 50.894532v61.46875c0 4.144531 3.355469 7.5 7.5 7.5 4.140625 0 7.5-3.355469 7.5-7.5v-19.648438c18.117188 14.726563 31.175781 23.207032 31.816407 23.621094 1.238281.800781 2.652343 1.203125 4.070312 1.203125 1.414062 0 2.832031-.402344 4.070312-1.203125 2.148438-1.390625 43.605469-28.4375 81.296876-70.183594v1.175782c0 10.796874-3.347657 21.125-9.683594 29.867187l-29.003906 40.023437c-8.203126 11.320313-12.539063 24.691407-12.539063 38.667969v46.59375c0 4.140625 3.359375 7.5 7.5 7.5 4.144531 0 7.5-3.359375 7.5-7.5v-46.597656c0-10.792969 3.351563-21.121094 9.6875-29.863281l29.003906-40.023438c8.199219-11.320312 12.535157-24.6875 12.535157-38.667968v-18.921876c3.71875-4.71875 7.335937-9.578124 10.800781-14.566406 2.363281-3.402344 1.519531-8.074218-1.882813-10.4375-3.402344-2.363281-8.074218-1.519531-10.4375 1.882813-33.820312 48.714843-84.285156 85.605469-98.851562 95.699219-6.472656-4.46875-19.996094-14.199219-35.882813-27.800782v-22.289062c0-33.800782-25.578125-61.734375-58.398437-65.46875v-46.710938c0-19.792968-15.753906-35.964844-35.378906-36.664062 6.550781-30.464844 33.433593-52.617188 65.347656-52.617188 23.71875 0 45.875 12.761719 57.835937 33.304688 1.34375 2.308594 3.8125 3.726562 6.480469 3.726562s5.136719-1.417968 6.480469-3.726562c11.957031-20.542969 34.117187-33.304688 57.832031-33.304688.269531 0 .542969.011719.8125.015625-3.867188 8.574219-6.039062 18.074219-6.039062 28.074219 0 37.679688 30.570312 68.34375 68.210937 68.511719-2.503906 9.78125-6.207031 19.792969-11.09375 29.863281-1.808594 3.726562-.253906 8.214844 3.472656 10.019531 1.054688.515625 2.171875.753907 3.269531.753907 2.78125 0 5.457032-1.554688 6.753907-4.226563 6.234375-12.851563 10.730469-25.683594 13.425781-38.195313 30.332031-7.054687 53.003906-34.285156 53.003906-66.726562.003906-37.785156-30.734375-68.523438-68.519531-68.523438zm-246.980469 46.707032c-.527344.480468-1.03125.980468-1.546875 1.472656v-16.300781c0-11.117188 9.042969-20.164063 20.160157-20.164063 9.503906 0 17.472656 6.621094 19.589843 15.484375-14.148437 2.96875-27.332031 9.628907-38.203125 19.507813zm53.773438-21.246094v-26.496094c0-11.117187 9.042968-20.160156 20.160156-20.160156s20.160156 9.042969 20.160156 20.160156v36.445313c-11.816406-6.425781-25.210937-9.976563-39.035156-9.976563-.429688 0-.855469.023438-1.285156.027344zm65.597656 31.210938c-3.101562-3.929688-6.550781-7.539063-10.273438-10.804688v-13.066406c0-11.113282 9.042969-20.160156 20.160157-20.160156 11.117187 0 20.160156 9.046874 20.160156 20.160156 0 .070312.007813.136718.007813.203125-11.640626 5.386719-21.988282 13.460937-30.054688 23.667969zm127.609375 65.371093c-29.511719 0-53.519531-24.007812-53.519531-53.519531 0-29.515625 24.007812-53.523438 53.519531-53.523438s53.519531 24.011719 53.519531 53.523438c0 29.507812-24.007812 53.519531-53.519531 53.519531zm0 0"/><path d="m367.699219 97.21875h-11.683594v-11.683594c0-4.144531-3.355469-7.5-7.5-7.5s-7.5 3.355469-7.5 7.5v11.683594h-11.683594c-4.140625 0-7.5 3.355469-7.5 7.5 0 4.140625 3.359375 7.5 7.5 7.5h11.683594v11.679688c0 4.144531 3.355469 7.5 7.5 7.5s7.5-3.355469 7.5-7.5v-11.679688h11.683594c4.140625 0 7.5-3.359375 7.5-7.5 0-4.144531-3.359375-7.5-7.5-7.5zm0 0"/></svg>