<svg version="1.1" id="Layer_1" xmlns="http://www.w3.org/2000/svg" xmlns:xlink="http://www.w3.org/1999/xlink" x="0px" y="0px" viewBox="0 0 256.5 381" style="enable-background:new 0 0 256.5 381;" xml:space="preserve">
    <style type="text/css">
        .st9 {
            fill: #0584C3;
        }
    </style>
    <path id="blueSmallArtery" class="st9 all" d="M113.9,187.6c-0.9-0.1-1.8-0.2-2.7-0.3c-0.6-0.1-0.7-0.8-0.5-1.4c0-0.1,0.1-0.1,0.2-0.1
c1.2,0,2.5,0.4,3.7,0.4c0.6,0,1.2,0.1,1.8,0.1c-0.6-0.5-1.2-1-1.8-1.6c-0.5-0.5-1.6-1.5-0.8-2.3c0,0,0,0,0,0
c0.1-0.1,0.4,0,0.5,0.2c0.7,1.1,1.6,1.9,2.5,2.5c1.2,0.7,2.6,1,3.9,1.2c0.7,0,5.8,0.2,7.7,0.4c0.1,0,0.2,0,0.3,0
c1.5-0.1,2.9-0.1,4.2-0.6c0.7-0.3,1.4-0.8,2-1.6c0.4-0.5,0.7-1,1-1.6c0.1-0.3,0.2-0.3,0.4-0.2c0.1,0,0.2,0.1,0.2,0.3
c0.1,0.5-1.2,2.8-1.7,3.3c-0.1,0.1-0.3,0.3-0.5,0.4c0,0,0.1,0,0.1,0c1.4-0.1,2.9-1,4-2.1c0.1-0.1,0.5-0.7,0.8-0.9
c0.2,0.1,0.4,0.4,0.5,0.6c0.1,1.1-1.2,2.3-1.8,2.7c-0.2,0.1-0.4,0.3-0.7,0.4c-0.7,0.4-1.5,0.7-2.2,0.8c1.1,0.5,2.1,1.1,2.9,2
c0.5,0.5,1,1,1.3,1.7c0.1,0.2,0.2,0.4,0.2,0.6c0.2,0.8-0.5,1.5-0.9,0.6c-0.1-0.2-0.3-0.5-0.4-0.7c-0.6-1.1-1.3-1.8-2.2-2.3
c-3.8-2.2-8.6-2-12.3-2.1c-1.8-0.1-3.6-0.1-5.4-0.1c-2.8,0-4.5,1.4-6.9,3.1c-0.2,0.1-0.6-0.8-0.4-1
C111.8,188.9,112.8,188.1,113.9,187.6z" />
</svg>