<svg version="1.1" id="Layer_1" xmlns="http://www.w3.org/2000/svg" xmlns:xlink="http://www.w3.org/1999/xlink" x="0px" y="0px" viewBox="0 0 256.5 381" style="enable-background:new 0 0 256.5 381;" xml:space="preserve">
    <g>
        <style type="text/css">
        .st8 {
            fill: #05C8C3;
        }

        .st9 {
            fill: #0584C3;
        }
    </style>
        <path id="blueLargeArtery" class="st9" d="M143.1,228c-0.8-4.6-3.5-8.6-6.8-11.9c-2.9-2.8-5.5-5.3-7.4-8.9c-3.2-5.9-2.2-12.4-2.3-18.9c0-2,0-4,0-6
    c0-4.2,0-8.4,0-12.6c0-3.1,0.9-6.4-1-9.1c0,0-0.1,0-0.1,0c-1.5,3.2-1,6.1-1,9.6c0,4.2,0,8.4,0,12.6c0,3.4-0.1,6.8-0.1,10.2
    c0,2.3,0.3,4.5,0,6.8c-0.3,2.2-1.2,4.4-2.5,6.2c-2.8,4.2-6.9,6.9-10.8,10c-2.8,2.3-5.5,4.9-6.8,7.9c-1.1,0.7-2,1.8-2.8,2.9
    c-0.5,0.8-0.8,1.5-1.1,2.4c-0.2,0.9-0.1,1.8-0.2,2.6c0,0,0,0,0,0c0.7-1.4,0.9-2.8,1.8-4c0.5-0.6,1-1.1,1.5-1.6
    c0,0.1,0,0.3-0.1,0.5c-0.2,0.7-0.3,1.5-0.4,2.2c0,1.3,0.1,2.8,0.5,4.1c0.3,2.5,1,4.9,2.3,7.2c0,0.1,0.1,0,0.1-0.1
    c-0.4-1.2-0.7-2.5-0.9-3.8c0,0,0,0,0,0c-0.1-2.2-0.2-4.2-0.2-6.1c0-0.2,0.1-0.4,0.1-0.7c0.4,2.9,2,4.9,4.3,6.8c0,0,0.1,0,0,0
    c-2-3.5-3.7-7.2-3-11.1c1.1-2.4,2.6-4.3,4.9-6.4c1-0.9,2.1-1.8,3.1-2.6c-0.2,0.4-0.4,0.8-0.6,1.1c-1.4,2.6-1.4,5.1-0.1,7.8
    c0,0,0.1,0,0.1,0c-0.9-4.5,1.1-7.9,3.5-11.1c1.4-1.2,2.8-2.4,4.1-3.9c0,0,0.1-0.1,0.1-0.1c1.5-1.5,2.9-3.1,3.6-5
    c0.6,2.6,2,5,3.7,7c2,2.4,4.6,4.7,6.3,7.3c0.3,0.5,0.6,1.1,0.8,1.6c0.2,1,0.4,2.1,0.6,3.1c0,2-0.5,4-1.1,6
    c-0.1,0.3,0.3,0.3,0.4,0.1c0-0.1,0.1-0.2,0.1-0.2c1.7-1.8,2.2-5.4,1.6-8.4c0.2,0.3,0.5,0.6,0.7,1c1.7,2.6,2.8,5.7,3.7,8.7
    c0.1,2.8-0.4,5.7-1,8.4c-0.1,0.2,0.3,0.1,0.3,0c0.1-0.1,0.1-0.2,0.1-0.4c0.1,0,0.2-0.1,0.2-0.1c1.1-2.3,1.9-5,1.8-7.7
    c0.2,0.4,0.4,0.7,0.6,1.1c0.9,1.8,2.1,3.9,2.3,5.9c0,0.1,0.2,0,0.2-0.1C146.7,234.9,144.9,230.9,143.1,228z" />
        <path class="st8" d="M125.5,185.6c0-3,0.2-6.2-0.3-9.2c0,0,0,0,0,0c0.3,3.3,0,6.7,0,10c0,3.4,0.1,6.8,0.1,10.2
    c0,0.1,0.1,0,0.1,0C125.6,193,125.5,189.3,125.5,185.6z" />
    </g>
</svg>