<svg version="1.1" id="Layer_1" xmlns="http://www.w3.org/2000/svg" xmlns:xlink="http://www.w3.org/1999/xlink" x="0px" y="0px" viewBox="0 0 256.5 381" style="enable-background:new 0 0 256.5 381;" xml:space="preserve">
    <style type="text/css">
        .st6 {
            fill: #E4003A;
        }

        .st7 {
            fill: #FFFF9A;
        }

        .st8 {
            fill: #05C8C3;
        }

        .st9 {
            fill: #0584C3;
        }

        .st10 {
            fill: #A62637;
        }

        .st11 {
            opacity: 0.6;
            fill: #E83F4C;
            enable-background: new;
        }

        .st12 {
            fill: #E83F4C;
        }

        .st13 {
            fill: #9C2637;
        }

        .st14 {
            fill: #C41B35;
        }

        .st15 {
            opacity: 0.5;
            fill: #0584C3;
            enable-background: new;
        }

        .test {
            fill: green;
        }

        .ani {
            transform-origin: 129px 158px;
        }

        .ani:hover {
            animation: 1.5s ease 0s infinite beat;
        }

        @keyframes beat {

            0%,
            100% {
                transform: scale(1, 1);
            }

            50% {
                transform: scale(1.1, 1.1);
            }

            30%,
            80% {
                transform: scale(0.92, 0.95);
            }
        }
</style>
        <path id="redSmallHeart" class="st6 all" d="M139.5,149.7c0,0,0,0.1,0,0.1c-0.5-3.2,1.7-5.1,1.6-5c-1.1,0.4-1.7,1.5-1.9,2.9c0,0.1,0,0.3-0.1,0.4
c0,0,0,0,0-0.1c-0.3-1-0.2-1.9,0.1-2.9c-0.1,0.1-0.1,0.1-0.1,0.2c-0.1,0.2-0.2,0.4-0.3,0.6c0,0.1,0,0.1-0.1,0.1c0,0,0,0,0,0
c-0.1,0.3-0.1,0.6-0.1,1.1c0.1,0.7,0.3,1.4,0.4,2.1c-0.1,1-0.2,2-0.5,3c-0.5,1.9-2.3,3.7-4.3,3.9c-0.4,0-0.9-0.1-1.2-0.1
c-0.3-0.1-0.7,0.4-0.6,0.6c-0.1,0.1-0.2,0.2-0.3,0.3c-0.2,0.4,0,0.6,0.2,0.7c0,0.1,0,0.1,0.1,0.1c0.5,0.5,1.2,0.4,2,0
c1.6-0.3,3.1-1.2,4-2.6c0.8-1.3,0.9-2.8,1.3-4.2c0-2.3,2.4-3.6,2.4-3.6C141.1,147.8,139.9,148.5,139.5,149.7z" />
        <g>
            <g>
                <g>
                    <g>
                        <path class="st10" d="M129.9,171.5c-0.4-1-0.8-2-1-3.1c0,0,0-0.1,0-0.1c0,0,0,0,0-0.1c-0.1-0.8-0.1-1.6,0.1-2.4
            c0.1-0.3,0.3-0.8,0.4-1.2c0-0.1,0.1-0.1,0.1-0.1c0.1-0.1,0.1-0.3,0-0.4c-0.3-0.6-1.2-0.9-1.9-0.9c-0.7,0-1.5,0-2,0.4
            c-0.3,0.2-0.4,0.7-0.4,1.1c-0.3,1.7-2,3.1-3.3,4c-0.7,0.4-1.2,0.9-1.6,1.5c-0.1,0.1-0.2,0.3-0.3,0.5v0c0,0,0,0,0,0
            c0,0,0,0,0,0.1c-0.1,0.3,0,0.6,0.4,0.7c0.4,0.2,0.6,0,0.7-0.4c0.1-0.2,0.2-0.4,0.4-0.6c0.4-0.6,1-0.9,1.6-1.2
            c0.6-0.3,1.2-0.6,1.8-1c-0.4,0.6-0.9,1.2-1.4,1.8c-0.4,0.5-0.9,1.1-1,1.8c0,0,0,0.1,0,0.1c1.2,0.6,1.7-0.7,2.3-1.5
            c0.7-0.9,1.7-1.6,2.2-2.6c-0.2,0.7-0.3,1.4-0.3,2.1c0.1,0.6,0.3,2.7,1,2.9c0.3,0.1,1-0.1,1.1-0.4s-0.2-1.2-0.3-1.6
            c0-0.2-0.1-0.5-0.1-0.7c0.2,0.9,0.6,1.7,0.9,2.6c0,0,0,0.1,0,0.1c0,0.2,0.1,0.3,0.3,0.3c0.3,0.1,0.6-0.1,0.9-0.3
            C130.5,172.8,130,171.7,129.9,171.5z" />
                        <path class="test st11" d="M120.6,171.4c-0.1,0-0.1,0.1-0.2,0c-0.3-0.1-0.5-0.4-0.4-0.7c0.2-0.1,0.4,0.1,0.5,0.1
            C120.7,170.9,120.7,171.1,120.6,171.4C120.6,171.3,120.6,171.4,120.6,171.4z" />
                        <path class="st11" d="M122.8,172.1c-0.2,0-0.3-0.2-0.3-0.4c0,0,0.1-0.1,0.1-0.1c0.1,0,0.2,0,0.3,0.1c0.1,0.1,0.2,0.2,0.2,0.3
            C123,172.1,122.9,172.1,122.8,172.1z" />
                        <path class="st11" d="M128,172.7C128,172.7,128,172.7,128,172.7c0,0-0.1,0-0.1,0.1c-0.2,0.1-0.3,0-0.4,0
            c-0.1-0.2,0.3-0.3,0.5-0.3c0.1,0,0.2,0,0.3,0.1C128.2,172.6,128.1,172.7,128,172.7z" />
                        <path id="redHeart" class="st12 all" d="M128.8,171.7C128.8,171.7,128.8,171.7,128.8,171.7c-0.3-0.8-0.5-1.6-0.7-2.4c0-0.3,0-0.6,0-0.9
            c-0.1,0.6-0.2,1.1-0.2,1.7c0,0.3,0.1,0.7,0.1,1c0.1,0.4,0.1,0.8,0.2,1.2c-0.2-0.1-0.4,0-0.6,0c-0.2,0.1-0.3,0.2-0.4,0.3
            c-0.7-0.8-0.6-3.9-0.5-5.5c0,0,0,0,0,0.1c-0.4,1.1-0.9,1.9-1.8,2.7c-0.3,0.3-1,1.5-1.7,2c0-0.4-0.4-0.5-0.7-0.4
            c0.3-0.7,1.3-1.6,1.4-1.8c0.2-0.3,0.4-0.6,0.6-0.9c0.3-0.3,0.5-0.7,0.6-1.1c0,0,0,0,0,0c0-0.2-0.1-0.4-0.1-0.5
            c-0.1,0.3-0.2,0.7-0.3,1c-0.8,0.6-1.9,0.9-2.7,1.4c-0.3,0.2-0.6,0.5-0.8,0.7c-0.2,0.1-0.3,0.3-0.4,0.5c0,0,0,0.1-0.1,0.1
            c-0.1-0.3-0.6-0.4-0.8-0.3c0,0,0,0,0-0.1c0.8-1.4,2.6-2,3.8-3.1c0.7-0.7,1.3-1.8,1.4-2.8c0.1-0.5,0.3-0.9,0.9-1.1
            c0.5-0.2,1.2-0.1,1.8-0.1c0.3,0,1.7,0.6,1.2,1.2c-0.1,0.5-0.2,1-0.4,1.5c-0.2,1.6-0.2,2.9,0.6,4.5c0.3,0.6,0.6,1.1,0.8,1.8
            c-0.2-0.1-0.5-0.1-0.7,0.1c-0.1,0.1-0.2,0.2-0.2,0.3C129,172.4,129,172.1,128.8,171.7z" />
                        <path class="st11" d="M129.6,173c-0.1,0.1-0.2,0-0.3,0c0-0.1,0-0.2,0-0.3c0.1-0.1,0.1-0.1,0.2-0.2c0.2-0.1,0.4,0,0.5,0.2
            C129.9,172.8,129.8,172.9,129.6,173z" />
                    </g>
                    <g>
                        <path class="st12" d="M124.9,168.6c-0.2,0.4-0.5,0.8-0.7,1.1c-0.4,0.5-0.8,1-1.1,1.5c0.8-1,2.4-2.1,2.3-3.6c0,0,0,0,0,0
            C125.3,168,125.1,168.3,124.9,168.6z" />
                        <path class="st12" d="M124.4,167.4c-1.2,1.2-3.4,1.4-4.1,3.1c0,0.1,0.1,0.1,0.1,0C121.5,169.1,123.4,168.8,124.4,167.4
            C124.5,167.3,124.4,167.3,124.4,167.4z" />
                        <path class="st12" d="M127.2,169.9c0-0.6,0.1-1.2-0.1-1.7c0,0,0,0,0,0c0,0.6-0.2,1.2-0.2,1.8c0,0.7,0.2,1.3,0.4,1.9
            c0,0.1,0.1,0,0.1-0.1C127.4,171.2,127.3,170.6,127.2,169.9z" />
                        <path class="st12" d="M128.6,169.9C128.6,169.9,128.6,169.9,128.6,169.9c0,0.5,0.1,0.9,0.2,1.4c0.1,0.4,0.2,0.7,0.4,1
            c0.1,0.1,0.1,0,0.1-0.1C129.2,171.4,128.7,170.7,128.6,169.9z" />
                    </g>
                </g>
                <g class="ani">
                    <g>
                        <path class="st13" d="M138.1,156.2c-0.4-3.2-3.7-6-6.8-7.1c-0.3-0.2-0.7-0.5-1.1-0.6c-0.9-0.2-1.9-0.3-2.8-0.2
            c-1.6,0.3-2.9,1.7-3.5,3.1c0,0-0.1,0-0.1,0.1c-1.8,0.5-3.3,1.4-4.2,3.2c-0.6,1.2-1.1,2.8-0.8,4.1c0.2,1,0.9,1.6,1.6,2.3
            c0.2,1.6,0.5,3.2,1.5,4.5c0.5,0.6,1.3,0.9,2,1.1c1.3,0.4,2.5,0.9,3.8,1.2c1.9,0.5,4.1,0.7,6,0.6c1.4,0,3.1,0.7,4.2-0.6
            C140.5,165,138.4,159.6,138.1,156.2z" />
                        <path class="st12" d="M132.7,168c-1.9-0.3-3.7-0.3-5.5-0.8c-0.8-0.2-1.8-0.5-2.8-0.8c-1.3-0.3-2.5-0.9-2.9-2.2
            c-0.6-0.9-0.9-2-1.1-3c0.3,0.3,0.7,0.7,0.9,1.1c-0.1-0.5-0.3-1.1-0.6-1.5c-0.3-0.4-0.6-0.7-1-1.1c-0.1-0.1-0.1-0.1-0.1-0.2
            c-0.2-0.2-0.3-0.4-0.4-0.6c-0.6-1.1-0.2-2.1,0-3.2c0.5-2.1,2.8-3.3,4.8-4.2c0.2-0.1,0.4-0.1,0.6-0.1c0.7-0.1,1.4-0.3,2.2-0.1
            c0,0,0.1-0.1,0.1-0.1c-0.7-0.6-1.9-0.5-2.8-0.1c0.9-1.3,2.5-2.4,4-2.5c0.1,0,0.1,0,0.2,0c1.2-0.1,2.3,0.2,3.4,0.9
            c2.9,0.7,4.8,3.3,5.8,6c0.6,1.5,0.9,3.2,1.1,4.7c0.3,2,0.6,4.1,0,6.1C137.7,169.2,134.5,168.3,132.7,168z" />
                        <path class="st14" d="M138.5,160.4c-0.2-1.5-0.5-3.2-1.1-4.7c-1-2.7-2.8-5.3-5.8-6c-1.1-0.7-2.2-1.1-3.4-0.9
            c-0.1,0-0.1,0-0.2,0c-1.5,0-3.1,1.2-4,2.5c0.9-0.4,2.1-0.5,2.8,0.1c0,0,0,0.1-0.1,0.1c-0.7-0.2-1.4-0.1-2.2,0.1
            c-0.2,0-0.4,0.1-0.6,0.1c-2,0.9-4.2,2.1-4.8,4.2c-0.3,1.1-0.6,2.2,0,3.2c0.1,0.2,0.3,0.4,0.4,0.6c0.1,0.1,0.1,0.1,0.1,0.2
            c0.3,0.4,0.7,0.7,1,1.1c0.3,0.4,0.5,0.9,0.6,1.5c-0.2-0.4-0.6-0.8-0.9-1.1c0.2,1,0.6,2.1,1.1,3c0.5,1.3,1.6,1.9,2.9,2.2
            c1,0.4,2,0.6,2.8,0.8c1.8,0.5,3.6,0.5,5.5,0.8c1.8,0.3,5,1.1,5.7-1.4C139,164.6,138.8,162.5,138.5,160.4z M136.7,165
            c-0.4,0.6-1.2-0.1-1.7-0.6c-0.3-0.2-0.7-0.4-1-0.6c-1-0.4-2.1-0.8-3.1-1.3c-0.2-0.1-0.1-0.4,0.1-0.5c0.9-0.7,1.7-1.2,2-2.4
            c0.1-0.6,0.2-1.4,0-2c-0.7,1.5-1.5,2.7-3,3.3c-0.1,0.1-0.3,0.2-0.5,0.3c-0.2,0.1-0.3,0.2-0.5,0.3c-0.1,0.1-0.2,0.1-0.3,0
            c-0.1,0-0.2-0.1-0.2-0.2c0-0.2,0-0.4,0-0.7c0-0.1,0-0.1,0.1-0.1c-0.2-2.5-0.8-5.2-3.5-5.4c1.5,1.6,2.2,3.4,2.5,5.7
            c0.2,1.5,0.5,3.4-0.2,4.8c0,0,0,0,0,0.1c0,0.2-0.2,0.4-0.4,0.4c-1.7,0-4.2-0.6-4.8-2.4c-0.1-0.3,0.3-0.5,0.5-0.5
            c0.1,0,0.2,0,0.3,0.1c-0.8-1.2-1.8-2.4-2.3-3.7c-0.1-0.4-0.2-0.7-0.2-1c-0.4-1.1-0.3-2.4,0.3-3.6c0.2-0.3,0.4-0.6,0.6-0.7
            c1.4-1.6,4.2-1.3,6.1-2.5c-0.2-0.3-0.5-0.6-0.8-0.9c-0.2-0.2,0.2-0.6,0.4-0.6c0.5,0,2.2-0.3,2.3,0.5c0.2,1.1,0.4,2.2,1.2,3.1
            c0.3,0.3,0.6,0.6,0.8,0.9c0.5,0.3,1.1,0.6,1.7,0.7c0.5,0.1,1.1,0.2,1.5,0.5c1.5,1.4,2.2,3.4,2.6,5.4
            C137.4,162.4,137.4,164,136.7,165z" />
                        <path class="st13" d="M128.3,158.6c-0.3-1.2-0.9-1.7-1.9-2.4c0,0,0,0,0,0c1.9,1.9,1.7,4.2,1.8,6.7c0,0.1,0.1,0,0.1,0
            C128.7,161.4,128.7,160.1,128.3,158.6z" />
                        <path class="st13" d="M132.7,158.7c-0.1,0.2-0.2,0.3-0.3,0.5c-0.5,0.8-1.2,1.3-2,1.9c-0.1,0.1-0.1,0.2,0,0.2
            c1-0.2,1.7-1.1,2.2-2C132.7,159,132.7,158.9,132.7,158.7z" />
                    </g>
                    <path class="st12" d="M124.6,153.7c-1.3-0.4-2.8,0.4-3.4,1.7c-0.7,1.4-0.7,2.9,0,4.2c0.4,1.2,1.1,2.3,2,3.1
        c0.1,0.1,0.2-0.1,0.2-0.2c-0.9-2.5-0.8-6.4,1.2-8.3C124.7,154,124.8,153.7,124.6,153.7z" />
                    <path class="st12" d="M127.7,154.9c-0.3,0-0.6,0.4-0.4,0.6c0.5,0.6,0.9,1.1,1.2,1.8c0.3,1,0.5,2,0.5,3c0,0.2,0.3,0.2,0.4,0.1
        C131.6,158.8,130.4,155,127.7,154.9z" />
                    <path class="st12" d="M135.5,158.7c-0.3-0.8-0.9-1.5-1.7-1.8c0.1,0.5,0.1,1,0.1,1.4c0,0.6-0.1,1.2-0.3,1.8
        c-0.1,0.4-0.2,0.9-0.5,1.1c-0.1,0.2-0.2,0.3-0.3,0.5c0,0,0,0,0.1,0c0.7,0.1,1.5-0.1,2.1-0.6
        C135.5,160.5,135.9,159.6,135.5,158.7z" />
                </g>
            </g>
            <g>
                <path id="blueHeart" class="st9 all" d="M142.2,156.4c0.2,0.1,0.4,0.2,0.5,0.4c0-0.1-0.1-0.2-0.1-0.2c-0.2-0.2-0.4-0.4-0.7-0.4
    c0-0.1-0.1-0.2-0.1-0.2c-0.3-0.4-0.6-0.8-0.9-1.1c0.4,0.1,0.8,0.2,1.2,0.1c0.1-0.1,0.1-0.1,0.2-0.1c0.1,0,0.1-0.1,0.2-0.1
    c-0.3,0.1-0.6,0.1-0.8,0.1c0.1-0.1,0.2-0.2,0.3-0.3c0.2-0.1,0.5-0.2,0.7-0.4c0,0,0,0,0,0c-0.2,0.1-0.5,0.2-0.7,0.3
    c-0.2,0.1-0.4,0.2-0.5,0.4c-0.1,0-0.2,0-0.2,0c0,0,0,0,0-0.1c-0.2,0-0.4-0.1-0.5-0.2c-0.1-0.1-0.1-0.1-0.2-0.2
    c-0.2-0.2-0.4-0.4-0.5-0.6c-0.2-0.4-0.4-0.8-0.5-1.3c0.1,0.1,0.3,0.2,0.5,0.3c-0.1-0.1-0.2-0.3-0.3-0.4
    c-0.1-0.1-0.2-0.2-0.3-0.4c-0.2-0.8-0.3-1.6-0.6-2.3c0.2,0.3,0.6,0.6,0.9,0.8c1,0.6,1.5,1.9,1.9,3c0,0,0.1,0,0.1,0
    c-0.2-0.7-0.4-1.3-0.7-2c0.1,0.1,0.1,0.1,0.2,0.2c0.2,0.1,0.4,0.3,0.6,0.4c-0.1-0.1-0.1-0.2-0.2-0.3c-0.1-0.1-0.2-0.2-0.4-0.3
    c-0.2-0.2-0.4-0.4-0.6-0.6c0,0,0,0,0,0c-0.6-0.8-1.5-1.3-2.1-2.1c-0.9-1-2.1-1.9-3.5-1.8c-2,0.2-3.3,2-3.9,3.7
    c-0.1,0.2-0.1,0.3-0.1,0.5c-0.2,1-0.2,2,0.4,2.7c0.4,0.4,1.1,1.1,1.7,0.7c0.8-0.5,0.4-1.9,0.5-2.7c0.1-1.1,0.7-2.3,1.7-2.8
    c0.6-0.3,1.4-0.3,1.9,0.1c0.8,0.6,0.4,1.4,0.5,2.3c0,0.4,0.1,0.8,0.2,1.1c-0.1-0.4-0.1-0.7-0.1-1.1c0-0.3,0.1-0.5,0.1-0.8
    c0.1,0.3,0.2,0.7,0.3,1c0.1,0.3,0.2,0.6,0.3,0.9c0.2,0.9,0.1,1.8,0.3,2.8c-0.1,0.5,0,1,0.3,1.4c0.2,0.3,0.4,0.9,0.8,1
    c-0.3-0.1-0.6-0.8-0.7-1.1c-0.1-0.3-0.2-0.6-0.2-0.9c0.2,0.4,0.7,1,1.1,1.1c0,0,0,0,0,0c-0.7-0.3-0.9-1.1-1.1-1.8c0,0,0,0,0,0
    c0,0,0,0,0,0c0-0.2-0.1-0.5-0.1-0.7c0-0.3,0-0.7,0-1c0.4,0.7,0.9,1.2,1.6,1.5c0.2,0.2,0.4,0.4,0.7,0.6c0,0,0.1,0.1,0.1,0.1
    c-0.1,0.7,0.1,1.9,0.7,2.3c-0.6-0.5-0.5-1.4-0.5-2.1c0.6,0.6,1,1.8,0.9,2.6c0,0,0.1-0.1,0.1-0.1c0.1-0.5,0-1-0.2-1.5
    C142.2,156.4,142.2,156.4,142.2,156.4z" />
                <path class="st15" d="M142.8,156.8c0-0.1-0.1-0.2-0.1-0.2c-0.2-0.2-0.4-0.4-0.7-0.4c0-0.1-0.1-0.2-0.1-0.2
    c-0.3-0.4-0.6-0.8-0.9-1.1c0.4,0.1,0.8,0.2,1.2,0.1c0.1-0.1,0.1-0.1,0.2-0.1c0.1,0,0.1-0.1,0.2-0.1c-0.3,0.1-0.5,0.1-0.7,0.1
    c-0.6,0.1-1.1,0-1.6-0.5c-1-0.9-1.3-2.1-1.7-3.3c-0.2-0.6-0.4-1.4-0.9-1.9c-1.3-1.3-3.3-1.7-4.5,0.7c-0.3,0.5-0.6,3.2-1.5,3.1
    c-0.6-0.1-0.8-0.5-0.9-1.1c-0.1,0.8,0,1.5,0.5,2.1c0.4,0.4,1.1,1.1,1.7,0.7c0.8-0.5,0.4-1.9,0.5-2.7c0.1-1.1,0.7-2.3,1.7-2.8
    c0.6-0.3,1.4-0.3,1.9,0.1c0.8,0.6,0.4,1.4,0.5,2.3c0,0.4,0.1,0.8,0.2,1.1c-0.1-0.4-0.1-0.7-0.1-1.1c0-0.3,0.1-0.5,0.1-0.8
    c0.1,0.3,0.2,0.7,0.3,1c0.1,0.3,0.2,0.6,0.3,0.9c0.2,0.9,0.1,1.8,0.3,2.8c-0.1,0.5,0,1,0.3,1.4c0.2,0.3,0.4,0.9,0.8,1
    c-0.3-0.1-0.6-0.8-0.7-1.1c-0.1-0.3-0.2-0.6-0.2-0.9c0.2,0.4,0.7,1,1.1,1.1c0,0,0,0,0,0c-0.7-0.3-0.9-1.1-1.1-1.8c0,0,0,0,0,0
    c0,0,0,0,0,0c0-0.2-0.1-0.5-0.1-0.7c0-0.3,0-0.7,0-1c0.4,0.7,0.9,1.2,1.6,1.5c0.2,0.2,0.4,0.4,0.7,0.6c0,0,0.1,0.1,0.1,0.1
    c-0.1,0.7,0.1,1.9,0.7,2.3c-0.6-0.5-0.5-1.4-0.5-2.1c0.6,0.6,1,1.8,0.9,2.6c0,0,0.1-0.1,0.1-0.1c0.1-0.5,0-1-0.2-1.5
    c0,0,0.1,0,0.1,0.1C142.4,156.5,142.6,156.7,142.8,156.8z" />
            </g>
        </g>
        <path class="st8" d="M135.1,147.1c-2.4,0-3.6,2.5-3.9,4.5c0,0,0,0,0,0C131.7,149.5,132.9,147.8,135.1,147.1
C135.1,147.1,135.1,147.1,135.1,147.1z" />
</svg>
