<svg version="1.1" id="Layer_1" xmlns="http://www.w3.org/2000/svg" xmlns:xlink="http://www.w3.org/1999/xlink" x="0px" y="0px" viewBox="0 0 256.5 381" style="enable-background:new 0 0 256.5 381;" xml:space="preserve">
    <style type="text/css">
        .st6 {
            fill: #E4003A;
        }
</style>

    <path id="redSmallArtery" class="st6" d="M137.6,185.1c1-0.1,2.1-0.3,3.1-0.4c0.6-0.1,0.7-0.8,0.6-1.4c0-0.1-0.1-0.1-0.2-0.1c-1.4,0-2.8,0.4-4.2,0.5
c-0.7,0-1.4,0.1-2.1,0.2c0.7-0.5,1.3-1,2-1.6c0.6-0.5,1.8-1.6,0.9-2.3c0,0,0,0,0,0c-0.2-0.1-0.4,0-0.6,0.2
c-0.7,1.1-1.8,1.9-2.8,2.6c-1.4,0.7-3,1-4.5,1.3c-0.8,0-6.7,0.4-8.8,0.6c-0.1,0-0.2,0-0.3,0c-1.7-0.1-3.4-0.1-4.9-0.4
c-0.8-0.3-1.6-0.8-2.4-1.5c-0.4-0.5-0.9-1-1.2-1.6c-0.1-0.3-0.3-0.3-0.5-0.2c-0.1,0-0.2,0.1-0.3,0.3c-0.1,0.5,1.5,2.8,2.1,3.2
c0.2,0.1,0.4,0.3,0.6,0.4c0,0-0.1,0-0.1,0c-1.6-0.1-3.4-0.9-4.7-1.9c-0.1-0.1-0.6-0.7-1-0.9c-0.2,0.1-0.4,0.4-0.6,0.6
c-0.1,1.1,1.4,2.2,2.1,2.6c0.2,0.1,0.5,0.3,0.8,0.4c0.8,0.4,1.7,0.6,2.6,0.8c-1.3,0.5-2.4,1.2-3.3,2.1c-0.6,0.5-1.1,1-1.5,1.7
c-0.1,0.2-0.2,0.4-0.2,0.6c-0.2,0.8,0.6,1.5,1.1,0.6c0.1-0.3,0.3-0.5,0.5-0.7c0.6-1.1,1.5-1.8,2.4-2.4c4.2-2.3,9.9-2.2,14.1-2.5
c2.1-0.1,4.1-0.2,6.2-0.2c3.2-0.1,5.3,1.3,8.1,2.8c0.2,0.1,0.7-0.8,0.5-1C140,186.3,138.9,185.6,137.6,185.1z" />


</svg>