<svg width="138" height="137" viewBox="0 0 138 137" fill="none" xmlns="http://www.w3.org/2000/svg">
<g clip-path="url(#clip0_19_4634)">
<rect x="14" y="137.189" width="107" height="107" rx="20" transform="rotate(-90 14 137.189)" fill="url(#paint0_linear_19_4634)"/>
<g clip-path="url(#clip1_19_4634)">
<path d="M127.719 174.751C125.469 168.563 120.878 166.501 120.878 166.501C117.728 152.961 107.738 124.715 97.657 113.686C87.5764 102.746 70.6554 100.504 70.6554 100.504V95.483H67.0552H63.4549V100.504C63.4549 100.504 46.5339 102.746 36.4533 113.686C26.3727 124.626 16.3821 152.871 13.2319 166.501C13.2319 166.501 8.64159 168.563 6.39146 174.751C4.14132 180.938 5.67141 186.049 7.65153 186.049C7.65153 186.049 8.46158 189.456 10.8017 189.725C10.8017 189.725 12.1518 192.236 14.582 191.788C14.582 191.788 16.3821 193.761 17.6421 192.236C18.9022 190.712 16.4721 187.932 17.1021 183.18C17.7321 178.427 19.5323 177.62 20.0723 179.593C20.6123 181.566 19.8023 186.318 20.8823 187.125C21.9624 187.932 25.4726 183.987 24.4826 177.53C23.4925 171.074 21.1524 169.819 21.1524 169.819C21.1524 169.819 24.9326 139.152 45.4538 119.245C45.4538 119.245 40.7736 146.774 43.0237 175.289L43.1137 178.965C43.2037 183.359 43.6537 199.768 46.1739 215.909C46.1739 215.909 50.7642 258.322 48.334 261.461C45.9039 264.599 30.0629 271.145 30.0629 271.145C30.0629 271.145 28.7128 270.338 27.9928 272.132C27.2727 273.925 28.6228 276.256 31.413 275.718C31.413 275.718 32.5831 276.705 35.4632 275.808C35.4632 275.808 37.6234 276.974 40.2335 275.718C40.2335 275.718 42.1236 276.974 44.8238 275.987C44.8238 275.987 46.3539 277.243 50.1341 275.987C53.9144 274.732 55.7145 273.477 58.5946 273.566C61.4748 273.656 66.8751 272.939 65.6151 266.572C64.355 260.206 63.3649 262.268 63.635 255.901C63.905 249.535 63.5449 216.447 63.5449 216.447L64.175 188.38C65.165 188.739 67.3252 189.187 70.3854 188.47L71.0154 216.447C71.0154 216.447 70.7454 249.535 70.9254 255.901C71.1954 262.268 70.2053 260.206 68.9453 266.572C67.6852 272.939 73.0855 273.656 75.9657 273.566C78.8459 273.477 80.646 274.732 84.4262 275.987C88.2065 277.243 89.7365 275.987 89.7365 275.987C92.4367 276.974 94.3268 275.718 94.3268 275.718C96.937 277.063 99.0971 275.808 99.0971 275.808C101.887 276.705 103.057 275.718 103.057 275.718C105.848 276.167 107.198 273.835 106.478 272.132C105.758 270.338 104.407 271.145 104.407 271.145C104.407 271.145 88.4765 264.599 86.1363 261.461C83.7062 258.322 88.2965 215.909 88.2965 215.909C91.1766 196.989 91.3566 177.799 91.3566 177.799L91.6267 171.881C93.2468 144.622 88.9265 119.245 88.9265 119.245C109.448 139.152 113.228 169.819 113.228 169.819C113.228 169.819 110.888 171.074 109.898 177.53C108.908 183.987 112.418 187.932 113.498 187.125C114.578 186.318 113.768 181.566 114.308 179.593C114.848 177.62 116.648 178.427 117.278 183.18C117.908 187.932 115.478 190.712 116.738 192.236C117.998 193.761 119.798 191.788 119.798 191.788C122.229 192.236 123.579 189.725 123.579 189.725C125.919 189.456 126.729 186.049 126.729 186.049C128.439 186.139 129.969 180.938 127.719 174.751Z" fill="#F4D9BF"/>
<path opacity="0.7" d="M70.6554 99.1567V95.57H63.365V98.8877C65.5251 99.6948 68.1353 99.6948 70.6554 99.1567Z" fill="#F4D9BF"/>
<path opacity="0.5" d="M80.556 103.103C80.376 107.408 76.3257 112.967 65.2551 112.07C55.5345 111.263 53.8244 105.525 53.5543 103.014C51.7542 103.641 49.7741 104.448 47.794 105.435C47.794 107.677 47.704 116.375 45.0938 120.768C44.4638 124.624 42.9337 135.922 42.4837 150C49.2341 150.987 73.0855 153.856 91.6267 149.642C91.0866 135.205 89.4665 123.727 88.9265 120.41C86.6764 115.567 86.4064 108.394 86.3164 105.525C84.3362 104.538 82.3561 103.731 80.556 103.103Z" fill="#F4D9BF"/>
<path d="M90.3666 123.551C85.3263 118.888 85.5963 104.631 85.5963 104.631L80.826 102.479C81.4561 110.101 74.8857 112.522 68.9453 112.97H65.1651C59.2247 112.611 52.5643 110.101 53.2844 102.479L48.5141 104.631C48.5141 104.631 48.7841 118.798 43.7438 123.551C43.7438 123.551 41.6736 135.836 41.7637 148.569C41.7637 148.569 50.7642 150.81 65.5251 150.721H69.3053C83.6162 150.81 92.2567 148.569 92.2567 148.569C92.3467 135.836 90.3666 123.551 90.3666 123.551Z" fill="#DFEFE7"/>
<path d="M20.1623 34.8672C20.1623 34.8672 14.672 32.5358 5.67146 44.0135C-3.41909 55.4912 0.181127 78.5362 1.62122 84.544C1.62122 84.544 3.51133 93.4213 0.72116 96.8287L2.34126 98.0841C2.34126 98.0841 5.04142 94.4076 4.6814 89.7448C4.6814 89.7448 6.39151 99.0704 11.9718 102.03L15.7521 100.774C15.7521 100.774 11.4318 95.0353 11.2518 87.7721C11.2518 87.7721 14.132 96.201 18.7223 100.236L25.3827 97.5461C25.3827 97.5461 22.5025 94.318 20.8824 88.8481C20.8824 88.8481 24.0326 94.9457 27.4528 96.47L33.9332 92.7936C33.9332 92.7936 28.9829 87.9514 27.4528 82.1229C27.4528 82.1229 29.8829 88.3998 33.9332 90.8209L34.9233 90.1035C34.9233 90.1035 28.2628 83.199 30.693 65.8031C33.2131 48.497 20.1623 34.8672 20.1623 34.8672Z" fill="#333328"/>
<path d="M3.33141 82.4801C3.2414 81.5834 3.06139 80.5971 2.88138 79.6107C2.88138 79.521 3.06139 80.6867 3.33141 82.4801Z" fill="#333328"/>
<path opacity="0.5" d="M33.9332 90.9105L34.9233 90.1932C34.9233 90.1932 28.2629 83.2886 30.6931 65.8928C33.1232 48.497 20.1624 34.8672 20.1624 34.8672C20.1624 34.8672 17.6423 33.7912 13.142 36.7503C7.29163 62.9337 20.9725 83.737 20.9725 83.737C15.3921 77.1911 12.692 65.2651 12.692 65.2651C12.2419 76.0254 20.7924 95.3043 20.7924 95.3043L17.9123 96.8287C9.63177 87.5928 7.56164 66.4308 7.56164 66.4308C1.9813 80.6882 11.5219 100.146 11.5219 100.146C6.39157 96.0217 4.23144 87.0547 3.33138 82.4816C4.32144 90.9105 2.61134 95.4837 1.44127 97.4564L2.34132 98.1737C2.34132 98.1737 5.04149 94.4973 4.68146 89.8345C4.68146 89.8345 6.39157 99.1601 12.0619 102.119L15.8421 100.864C15.8421 100.864 11.5219 95.125 11.3419 87.8618C11.3419 87.8618 14.222 96.2907 18.8123 100.326L25.4727 97.6357C25.4727 97.6357 22.5926 94.4076 20.9725 88.9378C20.9725 88.9378 24.1227 95.0353 27.5429 96.5597L34.0233 92.8832C34.0233 92.8832 29.073 88.0411 27.5429 82.2126C27.4529 82.2126 29.793 88.4894 33.9332 90.9105Z" fill="#444437"/>
<path d="M19.2623 72.1697C19.2623 72.1697 22.9526 79.4329 31.3231 82.8404C30.243 78.9846 29.613 73.4251 30.693 65.8032C33.2132 48.4073 20.1624 34.7776 20.1624 34.7776C20.1624 34.7776 18.2723 34.0603 14.9421 35.5846C14.4921 36.9297 9.00172 54.3255 19.2623 72.1697Z" fill="#333328"/>
<path d="M117.729 34.8672C117.729 34.8672 123.219 32.5358 132.219 44.0135C141.31 55.4912 137.71 78.5362 136.27 84.544C136.27 84.544 134.38 93.4213 137.17 96.8287L135.55 98.0841C135.55 98.0841 132.849 94.4076 133.209 89.7448C133.209 89.7448 131.499 99.0704 125.919 102.03L122.139 100.774C122.139 100.774 126.459 95.0353 126.639 87.7721C126.639 87.7721 123.759 96.201 119.169 100.236L112.508 97.5461C112.508 97.5461 115.388 94.318 117.008 88.8481C117.008 88.8481 113.858 94.9457 110.438 96.47L103.958 92.7936C103.958 92.7936 108.908 87.9514 110.438 82.1229C110.438 82.1229 108.098 88.3998 103.958 90.8209L102.968 90.1035C102.968 90.1035 109.628 83.199 107.198 65.8031C104.678 48.497 117.729 34.8672 117.729 34.8672Z" fill="#333328"/>
<path d="M134.56 82.4801C134.65 81.5834 134.83 80.5971 135.01 79.6107C135.01 79.521 134.83 80.6867 134.56 82.4801Z" fill="#333328"/>
<path opacity="0.5" d="M103.958 90.9105L102.968 90.1932C102.968 90.1932 109.628 83.2886 107.198 65.8928C104.768 48.497 117.729 34.8672 117.729 34.8672C117.729 34.8672 120.249 33.7912 124.749 36.7503C130.599 62.9337 116.918 83.737 116.918 83.737C122.499 77.1911 125.199 65.2651 125.199 65.2651C125.649 76.0254 117.098 95.3043 117.098 95.3043L119.979 96.8287C128.349 87.5031 130.419 66.4308 130.419 66.4308C136 80.6882 126.459 100.146 126.459 100.146C131.589 96.0217 133.75 87.0547 134.65 82.4816C133.66 90.9105 135.37 95.4837 136.54 97.4564L135.73 98.1737C135.73 98.1737 133.029 94.4973 133.389 89.8345C133.389 89.8345 131.679 99.1601 126.099 102.119L122.319 100.864C122.319 100.864 126.639 95.125 126.819 87.8618C126.819 87.8618 123.939 96.2907 119.349 100.326L112.688 97.6357C112.688 97.6357 115.568 94.4076 117.189 88.9378C117.189 88.9378 114.038 95.0353 110.618 96.5597L104.138 92.8832C104.138 92.8832 109.088 88.0411 110.618 82.2126C110.438 82.2126 108.008 88.4894 103.958 90.9105Z" fill="#444437"/>
<path d="M118.629 72.1697C118.629 72.1697 114.938 79.4329 106.568 82.8404C107.648 78.9846 108.278 73.4251 107.198 65.8032C104.678 48.4073 117.728 34.7776 117.728 34.7776C117.728 34.7776 119.619 34.0603 122.949 35.5846C123.309 36.9297 128.799 54.3255 118.629 72.1697Z" fill="#333328"/>
<path d="M107.558 14.2415C107.558 14.2415 89.5566 -10.0589 45.4539 4.82618C1.35123 19.7113 14.492 75.5753 33.6632 82.2108L101.527 81.0451C101.527 81.0451 119.618 74.9476 122.319 51.4542C125.109 27.9609 107.558 14.2415 107.558 14.2415Z" fill="#4D4D3F"/>
<path d="M107.558 14.2415C107.558 14.2415 89.5566 -10.0589 45.4539 4.82618C1.35123 19.7113 14.492 75.5753 33.6632 82.2108L101.527 81.0451C101.527 81.0451 119.618 74.9476 122.319 51.4542C125.109 27.9609 107.558 14.2415 107.558 14.2415Z" fill="#4D4D3F"/>
<g opacity="0.5">
<path opacity="0.5" d="M113.138 52.7997C109.088 51.634 108.728 46.2538 108.728 46.2538L110.978 47.2402C112.688 21.7741 96.8472 21.2361 96.8472 21.2361C106.748 26.7059 106.568 39.3493 106.568 39.3493C99.7273 36.3902 90.4568 35.9418 90.4568 35.9418C89.0167 23.9261 81.4562 20.2497 81.4562 20.2497C85.6865 26.7956 84.4264 35.7625 84.4264 35.7625C77.136 34.2381 70.5656 34.3278 70.5656 34.3278C69.1255 22.4914 71.7356 15.7662 71.7356 15.7662C64.5352 22.3121 64.3552 33.9691 64.3552 33.9691C61.025 33.2518 52.1144 34.5968 52.1144 34.5968C51.7544 24.5538 55.4446 17.8286 55.4446 17.8286C43.2039 22.4018 42.0338 36.7489 42.0338 36.7489C33.7533 38.8113 28.533 41.7703 28.533 41.7703C27.4529 31.1894 32.5833 24.1055 32.5833 24.1055C21.7826 30.203 22.7727 49.8406 22.7727 49.8406L27.0029 47.9575C27.0029 47.9575 27.813 52.979 22.2326 55.5794C18.9924 57.1038 13.5021 47.6885 17.8224 32.1757C11.342 53.248 21.2426 78.1761 33.6633 82.4802L101.527 81.3145C101.527 81.3145 119.619 75.217 122.319 51.7236C123.489 41.591 120.879 33.3414 117.638 27.1542C124.209 44.1914 117.188 53.9654 113.138 52.7997Z" fill="#444437"/>
</g>
<path d="M33.6633 64.5467C33.6633 64.5467 33.0332 61.229 27.7229 62.7533C22.4126 64.2777 22.2326 77.9971 33.6633 76.8314V64.5467Z" fill="#E3C19E"/>
<path d="M30.4229 66.6091C29.5228 66.2505 28.4428 66.7885 27.9927 67.5058C27.2727 68.4922 27.4527 69.7476 27.5427 70.9133H27.6327C27.7227 70.0166 27.7227 69.1199 28.1727 68.3129C28.9828 66.7885 30.4229 67.4162 31.3229 68.3129C31.4129 68.4922 31.5929 68.5819 31.683 68.7612C31.683 69.5682 31.5929 70.2856 31.1429 70.9133C30.7829 71.541 29.7928 72.617 28.9828 72.7067C28.9828 72.7067 28.8928 72.7963 28.9828 72.7963C29.9728 72.9757 31.0529 71.8996 31.5929 71.272C31.863 70.9133 32.223 70.2856 32.313 69.6579C33.033 70.8236 33.4831 72.1687 33.7531 73.424C33.7531 73.6034 34.0231 73.424 34.0231 73.3343C33.9331 70.8236 32.943 67.5955 30.4229 66.6091Z" fill="#C39368"/>
<path d="M30.1529 62.3932C31.143 65.1729 32.1331 70.2841 30.0629 76.6506C31.143 76.9196 32.3131 77.0093 33.7531 76.8299V64.5452C33.6631 64.5452 33.2131 62.3035 30.1529 62.3932Z" fill="#F4D9BF"/>
<path d="M101.347 64.5471C101.347 64.5471 101.977 61.2293 107.288 62.7537C112.598 64.278 112.778 77.9974 101.347 76.8317V64.5471Z" fill="#E3C19E"/>
<path d="M104.588 66.6095C105.488 66.2509 106.478 66.7889 107.018 67.5062C107.738 68.4926 107.558 69.748 107.468 70.9137H107.378C107.288 70.017 107.288 69.1203 106.838 68.3133C106.028 66.7889 104.498 67.4166 103.687 68.3133C103.597 68.4926 103.417 68.5823 103.327 68.7616C103.327 69.5686 103.417 70.286 103.868 70.9137C104.228 71.5414 105.218 72.6174 106.028 72.7071C106.028 72.7071 106.118 72.7967 106.028 72.7967C105.038 72.9761 103.958 71.9 103.417 71.2723C103.147 70.9137 102.877 70.286 102.697 69.6583C101.977 70.824 101.527 72.169 101.257 73.4244C101.257 73.6037 100.987 73.4244 100.987 73.3347C101.077 70.824 102.067 67.5959 104.588 66.6095Z" fill="#C39368"/>
<path d="M104.858 62.3946C101.797 62.3946 101.347 64.6363 101.347 64.6363V76.921C102.517 77.0106 103.507 77.0107 104.408 76.8313C103.147 70.2855 104.137 64.995 104.858 62.3946Z" fill="#F4D9BF"/>
<path d="M105.398 42.3971C102.607 41.2314 97.1171 39.707 89.6466 38.9C89.1066 32.7128 87.4865 29.933 87.4865 29.933C88.0266 34.2372 86.8565 38.631 86.8565 38.631C80.4661 38.0033 73.6257 37.5549 68.5854 37.3756C68.0453 32.3541 68.2253 28.1397 68.2253 28.1397C66.6052 31.7264 66.6952 37.2859 66.6952 37.2859C63.095 37.1066 53.1944 38.0929 49.7742 38.8103C49.5042 30.6504 51.6643 25.4496 51.6643 25.4496C48.6042 29.3054 46.624 39.5276 46.624 39.5276C36.7234 42.0384 29.973 45.1768 29.973 45.1768C29.973 45.1768 29.163 52.8884 31.6831 61.8553C31.6831 61.8553 33.4832 67.8631 32.4032 72.8846C31.3231 77.9061 32.0431 83.5553 41.2237 89.5631C50.4043 95.5709 62.105 97.992 65.7952 98.1713C65.7952 98.1713 67.4153 98.3507 68.9454 98.1713C72.6356 97.8127 84.3363 95.5709 93.5169 89.5631C102.697 83.5553 103.417 77.9958 102.337 72.8846C101.257 67.8631 103.057 61.8553 103.057 61.8553C105.578 52.8884 105.398 42.3971 105.398 42.3971Z" fill="#F4D9BF"/>
<path d="M95.4069 70.7317C95.5869 71.7181 93.7868 72.7941 91.3567 73.0631C88.9265 73.3321 86.9464 72.8838 86.8564 71.8974C86.7664 70.911 88.4765 69.835 90.9066 69.566C93.2468 69.2073 95.3169 69.7453 95.4069 70.7317Z" fill="#F9CBC0"/>
<path d="M39.7836 70.734C39.6036 71.7203 41.4037 72.7963 43.8339 73.0653C46.264 73.3344 48.2441 72.886 48.3341 71.8997C48.5141 70.9133 46.714 69.8373 44.2839 69.5682C41.9437 69.2096 39.8736 69.7476 39.7836 70.734Z" fill="#F9CBC0"/>
<path d="M45.5441 54.502C45.5441 54.502 47.7042 49.8392 50.9444 50.6462C54.1846 51.4533 55.5347 56.8334 55.5347 56.8334C55.5347 56.8334 51.6644 48.4942 45.5441 54.502Z" fill="#333328"/>
<path d="M88.5664 53.7861C88.5664 53.7861 86.1363 49.213 82.8961 50.289C79.6559 51.2754 78.7558 56.7452 78.7558 56.7452C78.7558 56.7452 82.086 48.3163 88.5664 53.7861Z" fill="#333328"/>
<path d="M53.1943 63.9201C53.0143 66.3412 51.9343 68.2242 50.8542 68.1346C49.7741 68.0449 49.1441 65.9825 49.3241 63.6511C49.5041 61.23 50.5842 59.347 51.6642 59.4367C52.7443 59.5263 53.3743 61.499 53.1943 63.9201Z" fill="#461A00"/>
<path d="M51.1243 61.9459C51.0343 62.6632 50.6743 63.2012 50.3143 63.1116C50.0443 63.0219 49.8643 62.3942 49.9543 61.6768C50.0443 60.9595 50.4043 60.4215 50.7643 60.5112C51.1243 60.6008 51.3044 61.2285 51.1243 61.9459Z" fill="white"/>
<path d="M85.9566 63.2011C86.0466 65.6222 85.2365 67.5949 84.1565 67.5949C83.0764 67.5949 82.1764 65.7118 82.0863 63.2908C81.9963 60.8697 82.8064 58.897 83.8865 58.897C84.9665 58.8073 85.8666 60.78 85.9566 63.2011Z" fill="#461A00"/>
<path d="M83.7064 61.407C83.7064 62.1244 83.3463 62.7521 83.0763 62.6624C82.7163 62.6624 82.5363 62.0347 82.5363 61.3174C82.5363 60.6 82.8963 59.9723 83.1663 60.062C83.4363 60.062 83.7064 60.6897 83.7064 61.407Z" fill="white"/>
<path d="M64.5352 75.3048C65.5252 75.6635 66.5153 75.6635 67.5053 75.4842C65.6152 75.4842 63.5451 74.8565 63.0951 72.7044C62.825 71.18 64.5351 70.8214 65.6152 70.7317C66.6953 70.642 67.8654 71.0904 68.6754 71.7181C67.8654 70.911 66.4253 70.373 65.1652 70.373C65.3452 70.0143 65.4352 69.6557 65.4352 69.297C65.6152 68.2209 65.0752 67.3243 64.6252 66.4276C64.9852 67.6829 65.6152 69.2073 64.8052 70.373C63.9051 70.4627 63.0951 70.911 62.645 71.7181C62.195 72.6147 62.555 73.6011 63.1851 74.4081C63.6351 74.8565 64.0851 75.1255 64.5352 75.3048Z" fill="#C39368"/>
<path d="M33.6632 22.7598C33.6632 22.7598 24.4827 28.947 24.3027 47.6879L29.883 45.0875L25.1127 46.6119C25.1127 46.6119 24.6627 32.8925 33.6632 22.7598Z" fill="#050800"/>
<path d="M105.397 42.3956L109.088 43.8303C109.088 43.8303 109.808 28.9452 101.437 24.103C101.437 24.103 108.638 28.3175 108.548 43.2026L105.397 42.3956Z" fill="#050800"/>
<path d="M81.1862 77.4574C81.1862 77.9954 81.2762 78.4437 81.4562 78.9817C77.406 81.2235 72.9057 82.4788 68.3154 83.1065C65.6152 83.4652 62.9151 83.5549 60.3049 83.3755C57.9648 83.1962 54.9946 83.0169 53.1945 81.2235C53.1045 81.1338 53.0145 81.1338 52.8345 81.0441C53.1945 81.4925 53.5545 81.9408 54.0945 82.2995C54.3645 82.5685 54.6346 82.8375 54.9046 83.1962C55.0846 83.3755 55.3546 83.6445 55.6246 83.8239C56.4347 84.9896 57.0647 86.5139 57.7848 87.6796C58.5948 89.0247 59.4949 90.2801 60.6649 91.3561C63.0951 93.6875 66.6953 93.5978 69.7555 92.9701C76.6859 91.4458 78.396 84.4516 81.8162 79.3404C82.1762 79.8784 82.7163 80.1474 83.2563 80.3268C82.2662 79.6991 81.5462 78.5334 81.1862 77.4574Z" fill="#C39368"/>
<path d="M77.9459 85.7973C76.0558 89.4737 72.8156 91.9845 68.8553 92.8812C65.2551 93.6882 62.0149 92.6122 59.6748 89.9221C58.2347 88.308 57.4246 85.7973 55.9845 84.0039C55.8045 83.6452 55.5345 83.3762 55.1745 83.1072C55.0845 83.0175 54.9945 82.9279 54.9045 82.8382C58.1447 84.4522 63.275 84.1832 66.0652 83.9142C70.9254 83.3762 77.2258 82.2105 81.4561 79.2514C80.106 81.3138 79.1159 83.5556 77.9459 85.7973Z" fill="#EF7B80"/>
<path d="M61.0248 91.1779C63.2749 92.8816 65.9751 93.5093 68.8553 92.8816C71.1954 92.3436 73.2655 91.2676 74.9756 89.6535C70.6554 87.1428 64.175 87.3222 61.0248 91.1779Z" fill="#E94B49"/>
<path d="M76.5957 85.7073C77.4058 84.9899 78.1258 84.0932 78.6658 83.1965C79.2059 82.2102 79.6559 81.2238 79.8359 80.2375C75.7857 82.4792 70.3853 83.4656 66.0651 83.9139C63.8149 84.1829 60.2147 84.3622 57.2445 83.6449C59.0446 87.949 63.2749 89.1147 67.9552 88.756C71.2854 88.487 74.1656 87.411 76.5957 85.7073Z" fill="white"/>
<path d="M67.8653 89.7441V89.6544C67.6853 88.5784 65.7051 89.3854 65.1651 89.5647C63.635 90.1028 64.8051 90.9994 65.8852 90.9994C66.3352 90.9994 67.8653 90.5511 67.8653 89.7441Z" fill="#EF7B80"/>
<path d="M63.6351 90.641C63.6351 90.641 63.6351 90.5514 63.6351 90.641C63.4551 90.1927 62.645 90.641 62.465 90.7307C61.835 91.0894 62.375 91.3584 62.825 91.2687C63.0951 91.179 63.6351 90.91 63.6351 90.641Z" fill="#EF7B80"/>
</g>
<mask id="mask0_19_4634" style="mask-type:alpha" maskUnits="userSpaceOnUse" x="13" y="29" width="109" height="109">
<rect x="13.6757" y="137.378" width="108.162" height="107.541" rx="20" transform="rotate(-90 13.6757 137.378)" fill="url(#paint1_linear_19_4634)"/>
</mask>
<g mask="url(#mask0_19_4634)">
<path d="M127.719 174.751C125.469 168.564 120.878 166.501 120.878 166.501C117.728 152.961 107.738 124.715 97.657 113.686C87.5764 102.746 70.6554 100.505 70.6554 100.505V95.4831H67.0552H63.4549V100.505C63.4549 100.505 46.5339 102.746 36.4533 113.686C26.3727 124.626 16.3821 152.871 13.2319 166.501C13.2319 166.501 8.64159 168.564 6.39146 174.751C4.14132 180.938 5.67141 186.049 7.65153 186.049C7.65153 186.049 8.46158 189.457 10.8017 189.726C10.8017 189.726 12.1518 192.236 14.582 191.788C14.582 191.788 16.3821 193.761 17.6421 192.236C18.9022 190.712 16.4721 187.932 17.1021 183.18C17.7321 178.427 19.5323 177.62 20.0723 179.593C20.6123 181.566 19.8023 186.318 20.8823 187.125C21.9624 187.932 25.4726 183.987 24.4826 177.53C23.4925 171.074 21.1524 169.819 21.1524 169.819C21.1524 169.819 24.9326 139.152 45.4538 119.245C45.4538 119.245 40.7736 146.774 43.0237 175.289L43.1137 178.965C43.2037 183.359 43.6537 199.768 46.1739 215.909C46.1739 215.909 50.7642 258.323 48.334 261.461C45.9039 264.599 30.0629 271.145 30.0629 271.145C30.0629 271.145 28.7128 270.338 27.9928 272.132C27.2727 273.925 28.6228 276.256 31.413 275.718C31.413 275.718 32.5831 276.705 35.4632 275.808C35.4632 275.808 37.6234 276.974 40.2335 275.718C40.2335 275.718 42.1236 276.974 44.8238 275.987C44.8238 275.987 46.3539 277.243 50.1341 275.987C53.9144 274.732 55.7145 273.477 58.5946 273.566C61.4748 273.656 66.8751 272.939 65.6151 266.572C64.355 260.206 63.3649 262.268 63.635 255.901C63.905 249.535 63.5449 216.447 63.5449 216.447L64.175 188.38C65.165 188.739 67.3252 189.188 70.3854 188.47L71.0154 216.447C71.0154 216.447 70.7454 249.535 70.9254 255.901C71.1954 262.268 70.2053 260.206 68.9453 266.572C67.6852 272.939 73.0855 273.656 75.9657 273.566C78.8459 273.477 80.646 274.732 84.4262 275.987C88.2065 277.243 89.7365 275.987 89.7365 275.987C92.4367 276.974 94.3268 275.718 94.3268 275.718C96.937 277.063 99.0971 275.808 99.0971 275.808C101.887 276.705 103.057 275.718 103.057 275.718C105.848 276.167 107.198 273.835 106.478 272.132C105.758 270.338 104.407 271.145 104.407 271.145C104.407 271.145 88.4765 264.599 86.1363 261.461C83.7062 258.323 88.2965 215.909 88.2965 215.909C91.1766 196.989 91.3566 177.799 91.3566 177.799L91.6267 171.881C93.2468 144.622 88.9265 119.245 88.9265 119.245C109.448 139.152 113.228 169.819 113.228 169.819C113.228 169.819 110.888 171.074 109.898 177.53C108.908 183.987 112.418 187.932 113.498 187.125C114.578 186.318 113.768 181.566 114.308 179.593C114.848 177.62 116.648 178.427 117.278 183.18C117.908 187.932 115.478 190.712 116.738 192.236C117.998 193.761 119.798 191.788 119.798 191.788C122.229 192.236 123.579 189.726 123.579 189.726C125.919 189.457 126.729 186.049 126.729 186.049C128.439 186.139 129.969 180.938 127.719 174.751Z" fill="#F4D9BF"/>
<path opacity="0.7" d="M70.6554 99.1569V95.5701H63.365V98.8879C65.5251 99.6949 68.1352 99.6949 70.6554 99.1569Z" fill="#F4D9BF"/>
<path d="M47.164 111.353C47.164 111.353 46.084 114.85 45.3639 119.333C45.3639 119.333 46.804 114.312 47.164 111.353Z" fill="#C39368"/>
<path d="M86.9464 111.353C86.9464 111.353 88.1165 114.85 88.7465 119.333C88.6565 119.333 87.3064 114.312 86.9464 111.353Z" fill="#C39368"/>
<path opacity="0.5" d="M80.556 103.104C80.376 107.408 76.3257 112.967 65.2551 112.071C55.5345 111.264 53.8244 105.525 53.5543 103.014C51.7542 103.642 49.7741 104.449 47.794 105.435C47.794 107.677 47.704 116.375 45.0938 120.768C44.4638 124.624 42.9337 135.923 42.4837 150.001C49.2341 150.987 73.0855 153.856 91.6267 149.642C91.0866 135.205 89.4665 123.728 88.9265 120.41C86.6764 115.568 86.4064 108.394 86.3163 105.525C84.3362 104.538 82.3561 103.731 80.556 103.104Z" fill="#F4D9BF"/>
<path opacity="0.5" d="M18.0024 170.535C23.4927 171.611 23.4927 182.282 22.4126 182.73C21.3326 183.089 21.3326 180.937 21.2426 178.964C21.0625 176.991 19.4424 177.171 19.4424 177.171C16.9223 177.35 16.4723 183.268 16.3823 184.524C16.2022 185.689 16.2022 186.048 15.3022 186.048C14.4021 186.048 14.3121 185.062 14.3121 185.062C13.4121 181.923 15.1222 176.005 15.1222 176.005C13.3221 177.619 12.872 182.999 12.782 183.986C12.692 184.972 12.872 185.779 11.882 185.779C10.8919 185.779 10.7119 184.524 10.7119 184.524C9.72185 180.489 11.792 174.839 11.792 174.839C10.3519 176.543 9.72185 180.578 9.54184 181.744C9.36183 182.91 8.9118 183.089 8.9118 183.089C8.01175 183.627 7.83174 182.372 7.83174 182.372C6.93168 178.695 8.9118 174.122 8.9118 174.122C6.84168 176.722 6.75167 181.116 6.66166 181.565C6.57166 182.103 6.39165 181.923 6.39165 181.923C5.67161 181.834 5.49159 180.758 5.40159 180.04C5.22158 183.537 6.39165 186.048 7.74173 186.048C7.74173 186.048 8.55178 189.455 10.8919 189.724C10.8919 189.724 12.242 192.235 14.6722 191.787C14.6722 191.787 16.4723 193.76 17.7323 192.235C18.9924 190.711 16.5623 187.931 17.1923 183.179C17.8223 178.426 19.6225 177.619 20.1625 179.592C20.7025 181.565 19.8925 186.317 20.9725 187.124C22.0526 187.931 25.5628 183.986 24.5728 177.529C23.5827 171.073 21.2426 169.818 21.2426 169.818C21.2426 169.818 25.0228 139.151 45.544 119.244L46.8041 113.775C20.9725 133.412 18.0024 170.535 18.0024 170.535Z" fill="#F4D9BF"/>
<path opacity="0.5" d="M127.809 181.834C127.809 181.834 127.719 182.013 127.539 181.475C127.449 180.937 127.359 176.633 125.289 174.032C125.289 174.032 127.269 178.605 126.369 182.282C126.369 182.282 126.189 183.448 125.289 182.999C125.289 182.999 124.839 182.82 124.659 181.654C124.479 180.399 123.849 176.453 122.409 174.75C122.409 174.75 124.569 180.309 123.489 184.434C123.489 184.434 123.219 185.689 122.319 185.689C121.419 185.689 121.509 184.882 121.509 183.896C121.419 182.91 120.969 177.529 119.169 175.915C119.169 175.915 120.879 181.744 119.979 184.972C119.979 184.972 119.889 185.958 118.989 185.958C118.088 185.869 117.998 185.6 117.908 184.434C117.818 183.179 117.368 177.35 114.848 177.081C114.848 177.081 113.228 176.902 113.048 178.874C112.868 180.847 112.958 183.089 111.878 182.641C110.798 182.282 110.798 171.522 116.288 170.446C116.288 170.446 113.318 133.322 87.6666 113.775L88.9267 119.244C88.9267 119.244 89.1067 119.424 89.2867 119.782C109.448 139.689 113.228 169.997 113.228 169.997C113.228 169.997 110.888 171.253 109.898 177.709C108.908 184.165 112.418 188.11 113.498 187.303C114.578 186.496 113.768 181.744 114.308 179.771C114.848 177.798 116.648 178.605 117.278 183.358C117.908 188.11 115.478 190.89 116.738 192.415C117.998 193.939 119.799 191.966 119.799 191.966C122.229 192.415 123.579 189.904 123.579 189.904C125.919 189.635 126.729 186.227 126.729 186.227C128.079 186.227 129.249 183.717 129.069 180.13C128.709 180.758 128.439 181.744 127.809 181.834Z" fill="#F4D9BF"/>
<path d="M90.3666 123.551C85.3263 118.888 85.5963 104.631 85.5963 104.631L80.826 102.479C81.4561 110.101 74.8857 112.522 68.9453 112.97H65.1651C59.2247 112.611 52.5643 110.101 53.2844 102.479L48.5141 104.631C48.5141 104.631 48.7841 118.799 43.7438 123.551C43.7438 123.551 41.6736 135.836 41.7637 148.569C41.7637 148.569 50.7642 150.811 65.5251 150.721H69.3053C83.6162 150.811 92.2567 148.569 92.2567 148.569C92.3467 135.836 90.3666 123.551 90.3666 123.551Z" fill="#DFEFE7"/>
<path d="M20.1623 34.8671C20.1623 34.8671 14.672 32.5357 5.67146 44.0134C-3.41909 55.4911 0.181127 78.5361 1.62122 84.5439C1.62122 84.5439 3.51133 93.4212 0.72116 96.8286L2.34126 98.084C2.34126 98.084 5.04142 94.4075 4.6814 89.7447C4.6814 89.7447 6.39151 99.0703 11.9718 102.029L15.7521 100.774C15.7521 100.774 11.4318 95.0352 11.2518 87.772C11.2518 87.772 14.132 96.2009 18.7223 100.236L25.3827 97.546C25.3827 97.546 22.5025 94.3179 20.8824 88.848C20.8824 88.848 24.0326 94.9455 27.4528 96.4699L33.9332 92.7935C33.9332 92.7935 28.9829 87.9513 27.4528 82.1228C27.4528 82.1228 29.8829 88.3997 33.9332 90.8208L34.9233 90.1034C34.9233 90.1034 28.2628 83.1989 30.693 65.803C33.2131 48.4969 20.1623 34.8671 20.1623 34.8671Z" fill="#333328"/>
<path opacity="0.5" d="M33.9332 90.9106L34.9233 90.1932C34.9233 90.1932 28.2629 83.2887 30.693 65.8928C33.1232 48.497 20.1624 34.8673 20.1624 34.8673C20.1624 34.8673 17.6422 33.7912 13.142 36.7503C7.29161 62.9338 20.9724 83.737 20.9724 83.737C15.3921 77.1912 12.6919 65.2652 12.6919 65.2652C12.2419 76.0255 20.7924 95.3044 20.7924 95.3044L17.9123 96.8287C9.63175 87.5928 7.56163 66.4309 7.56163 66.4309C1.98129 80.6883 11.5219 100.147 11.5219 100.147C6.39156 96.0217 4.23142 87.0548 3.33137 82.4817C4.32143 90.9106 2.61132 95.4837 1.44125 97.4564L2.34131 98.1738C2.34131 98.1738 5.04147 94.4973 4.68145 89.8345C4.68145 89.8345 6.39155 99.1601 12.0619 102.119L15.8421 100.864C15.8421 100.864 11.5219 95.125 11.3419 87.8618C11.3419 87.8618 14.222 96.2907 18.8123 100.326L25.4727 97.6358C25.4727 97.6358 22.5925 94.4077 20.9724 88.9378C20.9724 88.9378 24.1226 95.0354 27.5428 96.5597L34.0232 92.8833C34.0232 92.8833 29.0729 88.0412 27.5428 82.2127C27.4528 82.2127 29.793 88.4895 33.9332 90.9106Z" fill="#444437"/>
<path d="M19.2623 72.1696C19.2623 72.1696 22.9526 79.4328 31.3231 82.8402C30.243 78.9844 29.613 73.4249 30.693 65.803C33.2132 48.4072 20.1624 34.7775 20.1624 34.7775C20.1624 34.7775 18.2723 34.0601 14.9421 35.5845C14.492 36.9295 9.0017 54.3254 19.2623 72.1696Z" fill="#333328"/>
<path d="M117.728 34.8671C117.728 34.8671 123.219 32.5357 132.219 44.0134C141.31 55.4911 137.71 78.5361 136.27 84.5439C136.27 84.5439 134.38 93.4212 137.17 96.8286L135.55 98.084C135.55 98.084 132.849 94.4075 133.209 89.7447C133.209 89.7447 131.499 99.0703 125.919 102.029L122.139 100.774C122.139 100.774 126.459 95.0352 126.639 87.772C126.639 87.772 123.759 96.2009 119.169 100.236L112.508 97.546C112.508 97.546 115.388 94.3179 117.008 88.848C117.008 88.848 113.858 94.9455 110.438 96.4699L103.958 92.7935C103.958 92.7935 108.908 87.9513 110.438 82.1228C110.438 82.1228 108.098 88.3997 103.958 90.8208L102.968 90.1034C102.968 90.1034 109.628 83.1989 107.198 65.803C104.678 48.4969 117.728 34.8671 117.728 34.8671Z" fill="#333328"/>
<path opacity="0.5" d="M103.958 90.9106L102.968 90.1932C102.968 90.1932 109.628 83.2887 107.198 65.8928C104.768 48.497 117.728 34.8673 117.728 34.8673C117.728 34.8673 120.249 33.7912 124.749 36.7503C130.599 62.9338 116.918 83.737 116.918 83.737C122.499 77.1912 125.199 65.2652 125.199 65.2652C125.649 76.0255 117.098 95.3044 117.098 95.3044L119.979 96.8287C128.349 87.5031 130.419 66.4309 130.419 66.4309C136 80.6883 126.459 100.147 126.459 100.147C131.589 96.0217 133.749 87.0548 134.65 82.4817C133.659 90.9106 135.37 95.4837 136.54 97.4564L135.73 98.1738C135.73 98.1738 133.029 94.4973 133.389 89.8345C133.389 89.8345 131.679 99.1601 126.099 102.119L122.319 100.864C122.319 100.864 126.639 95.125 126.819 87.8618C126.819 87.8618 123.939 96.2907 119.349 100.326L112.688 97.6358C112.688 97.6358 115.568 94.4077 117.188 88.9378C117.188 88.9378 114.038 95.0354 110.618 96.5597L104.138 92.8833C104.138 92.8833 109.088 88.0412 110.618 82.2127C110.438 82.2127 108.008 88.4895 103.958 90.9106Z" fill="#444437"/>
<path d="M118.629 72.1696C118.629 72.1696 114.938 79.4328 106.568 82.8402C107.648 78.9844 108.278 73.4249 107.198 65.803C104.678 48.4072 117.728 34.7775 117.728 34.7775C117.728 34.7775 119.619 34.0601 122.949 35.5845C123.309 36.9295 128.799 54.3254 118.629 72.1696Z" fill="#333328"/>
<path d="M107.558 14.2415C107.558 14.2415 89.5566 -10.0588 45.4539 4.82626C1.35121 19.7114 14.492 75.5753 33.6632 82.2108L101.527 81.0451C101.527 81.0451 119.618 74.9476 122.319 51.4543C125.109 27.9609 107.558 14.2415 107.558 14.2415Z" fill="#4D4D3F"/>
<path d="M107.558 14.2415C107.558 14.2415 89.5566 -10.0588 45.4539 4.82626C1.35121 19.7114 14.492 75.5753 33.6632 82.2108L101.527 81.0451C101.527 81.0451 119.618 74.9476 122.319 51.4543C125.109 27.9609 107.558 14.2415 107.558 14.2415Z" fill="#4D4D3F"/>
<g opacity="0.5">
<path opacity="0.5" d="M113.138 52.7997C109.088 51.634 108.728 46.2539 108.728 46.2539L110.978 47.2402C112.688 21.7741 96.8471 21.2361 96.8471 21.2361C106.748 26.706 106.568 39.3493 106.568 39.3493C99.7273 36.3902 90.4568 35.9419 90.4568 35.9419C89.0167 23.9262 81.4562 20.2498 81.4562 20.2498C85.6865 26.7956 84.4264 35.7626 84.4264 35.7626C77.1359 34.2382 70.5655 34.3278 70.5655 34.3278C69.1255 22.4915 71.7356 15.7663 71.7356 15.7663C64.5352 22.3122 64.3552 33.9692 64.3552 33.9692C61.025 33.2518 52.1144 34.5969 52.1144 34.5969C51.7544 24.5539 55.4446 17.8287 55.4446 17.8287C43.2039 22.4018 42.0338 36.7489 42.0338 36.7489C33.7533 38.8113 28.533 41.7704 28.533 41.7704C27.4529 31.1894 32.5832 24.1056 32.5832 24.1056C21.7826 30.2031 22.7726 49.8406 22.7726 49.8406L27.0029 47.9576C27.0029 47.9576 27.8129 52.9791 22.2326 55.5795C18.9924 57.1038 13.5021 47.6886 17.8223 32.1758C11.3419 53.2481 21.2425 78.1761 33.6633 82.4802L101.527 81.3146C101.527 81.3146 119.619 75.217 122.319 51.7237C123.489 41.5911 120.879 33.3415 117.638 27.1543C124.209 44.1915 117.188 53.9654 113.138 52.7997Z" fill="#444437"/>
</g>
<path d="M33.6633 64.5467C33.6633 64.5467 33.0332 61.2289 27.7229 62.7533C22.4126 64.2777 22.2326 77.9971 33.6633 76.8314V64.5467Z" fill="#E3C19E"/>
<path d="M30.4229 66.6095C29.5228 66.2508 28.4428 66.7888 27.9927 67.5061C27.2727 68.4925 27.4527 69.7479 27.5427 70.9136H27.6327C27.7227 70.0169 27.7227 69.1202 28.1727 68.3132C28.9828 66.7888 30.4229 67.4165 31.3229 68.3132C31.4129 68.4925 31.5929 68.5822 31.683 68.7615C31.683 69.5685 31.5929 70.2859 31.1429 70.9136C30.7829 71.5413 29.7928 72.6173 28.9828 72.707C28.9828 72.707 28.8928 72.7966 28.9828 72.7966C29.9728 72.976 31.0529 71.8999 31.5929 71.2723C31.863 70.9136 32.223 70.2859 32.313 69.6582C33.033 70.8239 33.4831 72.1689 33.7531 73.4243C33.7531 73.6037 34.0231 73.4243 34.0231 73.3346C33.9331 70.8239 32.943 67.5958 30.4229 66.6095Z" fill="#C39368"/>
<path d="M30.1529 62.3932C31.143 65.173 32.1331 70.2841 30.0629 76.6506C31.143 76.9197 32.3131 77.0093 33.7531 76.83V64.5453C33.6631 64.5453 33.2131 62.3036 30.1529 62.3932Z" fill="#F4D9BF"/>
<path d="M101.347 64.5472C101.347 64.5472 101.977 61.2294 107.288 62.7538C112.598 64.2781 112.778 77.9976 101.347 76.8319V64.5472Z" fill="#E3C19E"/>
<path d="M104.588 66.6094C105.488 66.2507 106.478 66.7887 107.018 67.5061C107.738 68.4924 107.558 69.7478 107.468 70.9135H107.378C107.288 70.0168 107.288 69.1201 106.838 68.3131C106.028 66.7887 104.498 67.4164 103.687 68.3131C103.597 68.4924 103.417 68.5821 103.327 68.7615C103.327 69.5685 103.417 70.2858 103.867 70.9135C104.227 71.5412 105.218 72.6172 106.028 72.7069C106.028 72.7069 106.118 72.7966 106.028 72.7966C105.038 72.9759 103.957 71.8999 103.417 71.2722C103.147 70.9135 102.877 70.2858 102.697 69.6581C101.977 70.8238 101.527 72.1689 101.257 73.4243C101.257 73.6036 100.987 73.4243 100.987 73.3346C101.077 70.8238 102.067 67.5958 104.588 66.6094Z" fill="#C39368"/>
<path d="M104.858 62.3948C101.797 62.3948 101.347 64.6365 101.347 64.6365V76.9212C102.517 77.0109 103.507 77.0109 104.407 76.8316C103.147 70.2857 104.137 64.9952 104.858 62.3948Z" fill="#F4D9BF"/>
<path d="M105.398 42.3971C102.607 41.2314 97.1171 39.7071 89.6466 38.9001C89.1066 32.7129 87.4865 29.9331 87.4865 29.9331C88.0266 34.2372 86.8565 38.631 86.8565 38.631C80.4661 38.0034 73.6257 37.555 68.5854 37.3757C68.0453 32.3542 68.2253 28.1397 68.2253 28.1397C66.6052 31.7265 66.6952 37.286 66.6952 37.286C63.095 37.1067 53.1944 38.093 49.7742 38.8104C49.5042 30.6505 51.6643 25.4497 51.6643 25.4497C48.6042 29.3054 46.624 39.5277 46.624 39.5277C36.7234 42.0385 29.973 45.1769 29.973 45.1769C29.973 45.1769 29.163 52.8885 31.6831 61.8554C31.6831 61.8554 33.4832 67.8632 32.4032 72.8847C31.3231 77.9062 32.0431 83.5553 41.2237 89.5632C50.4043 95.571 62.105 97.9921 65.7952 98.1714C65.7952 98.1714 67.4153 98.3508 68.9454 98.1714C72.6356 97.8128 84.3363 95.571 93.5169 89.5632C102.697 83.5553 103.417 77.9958 102.337 72.8847C101.257 67.8632 103.057 61.8554 103.057 61.8554C105.578 52.8885 105.398 42.3971 105.398 42.3971Z" fill="#F4D9BF"/>
<path d="M95.4069 70.7318C95.5869 71.7181 93.7868 72.7941 91.3566 73.0632C88.9265 73.3322 86.9464 72.8838 86.8564 71.8975C86.7664 70.9111 88.4765 69.8351 90.9066 69.566C93.2468 69.2074 95.3169 69.7454 95.4069 70.7318Z" fill="#F9CBC0"/>
<path d="M39.7836 70.7348C39.6036 71.7211 41.4037 72.7971 43.8338 73.0662C46.264 73.3352 48.2441 72.8868 48.3341 71.9005C48.5141 70.9141 46.714 69.8381 44.2839 69.5691C41.9437 69.2104 39.8736 69.7484 39.7836 70.7348Z" fill="#F9CBC0"/>
<path d="M45.544 54.5025C45.544 54.5025 47.7042 49.8397 50.9444 50.6467C54.1846 51.4538 55.5347 56.8339 55.5347 56.8339C55.5347 56.8339 51.6644 48.4947 45.544 54.5025Z" fill="#333328"/>
<path d="M88.5664 53.7865C88.5664 53.7865 86.1363 49.2134 82.8961 50.2894C79.6559 51.2758 78.7558 56.7456 78.7558 56.7456C78.7558 56.7456 82.086 48.3167 88.5664 53.7865Z" fill="#333328"/>
<path d="M53.1943 63.9204C53.0143 66.3414 51.9342 68.2245 50.8542 68.1348C49.7741 68.0452 49.1441 65.9828 49.3241 63.6514C49.5041 61.2303 50.5842 59.3472 51.6642 59.4369C52.7443 59.5266 53.3743 61.4993 53.1943 63.9204Z" fill="#461A00"/>
<path d="M51.1243 61.946C51.0343 62.6633 50.6743 63.2013 50.3143 63.1117C50.0443 63.022 49.8643 62.3943 49.9543 61.677C50.0443 60.9596 50.4043 60.4216 50.7643 60.5113C51.1243 60.6009 51.3043 61.2286 51.1243 61.946Z" fill="white"/>
<path d="M85.9566 63.2015C86.0466 65.6226 85.2365 67.5953 84.1564 67.5953C83.0764 67.5953 82.1763 65.7122 82.0863 63.2912C81.9963 60.8701 82.8064 58.8974 83.8864 58.8974C84.9665 58.8077 85.8665 60.7804 85.9566 63.2015Z" fill="#461A00"/>
<path d="M83.7063 61.4076C83.7063 62.1249 83.3463 62.7526 83.0763 62.6629C82.7162 62.6629 82.5362 62.0352 82.5362 61.3179C82.5362 60.6005 82.8963 59.9729 83.1663 60.0625C83.4363 60.0625 83.7063 60.6902 83.7063 61.4076Z" fill="white"/>
<path d="M64.5351 75.3048C65.5252 75.6635 66.5153 75.6635 67.5053 75.4842C65.6152 75.4842 63.5451 74.8565 63.095 72.7044C62.825 71.18 64.5351 70.8214 65.6152 70.7317C66.6953 70.642 67.8653 71.0904 68.6754 71.718C67.8653 70.911 66.4253 70.373 65.1652 70.373C65.3452 70.0143 65.4352 69.6556 65.4352 69.297C65.6152 68.2209 65.0752 67.3242 64.6251 66.4276C64.9852 67.6829 65.6152 69.2073 64.8051 70.373C63.9051 70.4627 63.095 70.911 62.645 71.718C62.195 72.6147 62.555 73.6011 63.1851 74.4081C63.6351 74.8565 64.0851 75.1255 64.5351 75.3048Z" fill="#C39368"/>
<path d="M33.6632 22.76C33.6632 22.76 24.4827 28.9471 24.3026 47.688L29.883 45.0876L25.1127 46.612C25.1127 46.612 24.6627 32.8926 33.6632 22.76Z" fill="#050800"/>
<path d="M105.397 42.3953L109.088 43.83C109.088 43.83 109.808 28.9449 101.437 24.1028C101.437 24.1028 108.638 28.3172 108.548 43.2023L105.397 42.3953Z" fill="#050800"/>
<path d="M81.1862 77.4576C81.1862 77.9956 81.2762 78.4439 81.4562 78.982C77.4059 81.2237 72.9057 82.4791 68.3154 83.1067C65.6152 83.4654 62.9151 83.5551 60.3049 83.3757C57.9648 83.1964 54.9946 83.0171 53.1945 81.2237C53.1045 81.134 53.0145 81.134 52.8344 81.0443C53.1945 81.4927 53.5545 81.941 54.0945 82.2997C54.3645 82.5687 54.6345 82.8377 54.9046 83.1964C55.0846 83.3757 55.3546 83.6447 55.6246 83.8241C56.4347 84.9898 57.0647 86.5142 57.7847 87.6799C58.5948 89.0249 59.4948 90.2803 60.6649 91.3563C63.0951 93.6877 66.6953 93.598 69.7555 92.9704C76.6859 91.446 78.396 84.4518 81.8162 79.3406C82.1762 79.8786 82.7163 80.1477 83.2563 80.327C82.2662 79.6993 81.5462 78.5336 81.1862 77.4576Z" fill="#C39368"/>
<path d="M77.9459 85.7973C76.0558 89.4738 72.8156 91.9845 68.8553 92.8812C65.2551 93.6882 62.0149 92.6122 59.6748 89.9221C58.2347 88.3081 57.4246 85.7973 55.9845 84.0039C55.8045 83.6453 55.5345 83.3762 55.1745 83.1072C55.0845 83.0176 54.9945 82.9279 54.9045 82.8382C58.1447 84.4523 63.275 84.1833 66.0651 83.9143C70.9254 83.3762 77.2258 82.2105 81.4561 79.2514C80.106 81.3138 79.1159 83.5556 77.9459 85.7973Z" fill="#EF7B80"/>
<path d="M61.0248 91.178C63.2749 92.8817 65.9751 93.5093 68.8553 92.8817C71.1954 92.3436 73.2655 91.2676 74.9756 89.6536C70.6554 87.1428 64.175 87.3222 61.0248 91.178Z" fill="#E94B49"/>
<path d="M76.5957 85.7075C77.4058 84.9901 78.1258 84.0934 78.6658 83.1967C79.2059 82.2104 79.6559 81.224 79.8359 80.2376C75.7857 82.4794 70.3853 83.4657 66.0651 83.9141C63.8149 84.1831 60.2147 84.3624 57.2445 83.6451C59.0446 87.9492 63.2749 89.1149 67.9552 88.7562C71.2854 88.4872 74.1656 87.4112 76.5957 85.7075Z" fill="white"/>
<path d="M67.8653 89.744V89.6544C67.6853 88.5783 65.7052 89.3854 65.1651 89.5647C63.635 90.1027 64.8051 90.9994 65.8852 90.9994C66.3352 90.9994 67.8653 90.551 67.8653 89.744Z" fill="#EF7B80"/>
<path d="M63.6351 90.6411C63.6351 90.6411 63.6351 90.5514 63.6351 90.6411C63.4551 90.1928 62.645 90.6411 62.465 90.7308C61.835 91.0895 62.375 91.3585 62.825 91.2688C63.0951 91.1791 63.6351 90.9101 63.6351 90.6411Z" fill="#EF7B80"/>
</g>
</g>
<defs>
<linearGradient id="paint0_linear_19_4634" x1="67.5" y1="137.189" x2="67.5" y2="244.189" gradientUnits="userSpaceOnUse">
<stop stop-color="#FFC05F"/>
<stop offset="0.398049" stop-color="#FFD68A"/>
<stop offset="0.656298" stop-color="#F9AE46"/>
<stop offset="1" stop-color="#FFC460"/>
</linearGradient>
<linearGradient id="paint1_linear_19_4634" x1="67.7568" y1="137.378" x2="67.7568" y2="244.919" gradientUnits="userSpaceOnUse">
<stop stop-color="#FFC05F"/>
<stop offset="0.398049" stop-color="#FFD68A"/>
<stop offset="0.656298" stop-color="#F9AE46"/>
<stop offset="1" stop-color="#FFC460"/>
</linearGradient>
<clipPath id="clip0_19_4634">
<rect width="138" height="137" fill="white"/>
</clipPath>
<clipPath id="clip1_19_4634">
<rect width="138" height="108.484" fill="white"/>
</clipPath>
</defs>
</svg>
