<svg version="1.1" id="Layer_1" xmlns="http://www.w3.org/2000/svg" xmlns:xlink="http://www.w3.org/1999/xlink" x="0px" y="0px" viewBox="0 0 256.5 381" style="enable-background:new 0 0 256.5 381;" xml:space="preserve">
	<g transform="translate(14,-8)">
		<style type="text/css">
			.st39 {
				opacity: 0.8;
				fill: #A53542;
				enable-background: new;
			}

			.st40 {
				fill: #E4003A;
			}

			.st41 {
				fill: #A62637;
			}

			.st42 {
				opacity: 0.6;
				fill: #E83F4C;
				enable-background: new;
			}

			.st43 {
				fill: #E83F4C;
			}

			.st44 {
				fill: #7E1637;
			}

			.st45 {
				fill: #C41B35;
			}

			.st46 {
				fill: #9C2637;
			}

			.st47 {
				fill: #0584C3;
			}

			.st48 {
				opacity: 0.5;
				fill: #0584C3;
				enable-background: new;
			}

			.st49 {
				fill: #05C8C3;
			}
		</style>
		<path class="st39"
			d="M128.1,166.1c0.2,0.1,0.4,0.2,0.6,0.4c0-0.1-0.1-0.2-0.1-0.2c-0.2-0.2-0.4-0.4-0.7-0.5     c0-0.1-0.1-0.2-0.1-0.2c-0.3-0.4-0.6-0.8-1-1.1c0.4,0.1,0.8,0.2,1.3,0.1c0,0,0.1-0.1,0.2-0.1c0.1,0,0.2-0.1,0.2-0.1     c-0.1,0-0.3,0.1-0.4,0.1c-0.1,0-0.2,0-0.3,0c0,0,0,0,0,0c0,0-0.1,0-0.1,0c0.1-0.1,0.2-0.2,0.3-0.3c0.2-0.2,0.5-0.2,0.7-0.4     c0,0,0,0,0,0c-0.2,0.1-0.5,0.2-0.7,0.3c-0.2,0.1-0.4,0.2-0.5,0.4c-0.1,0-0.2,0-0.3,0c0,0,0,0,0,0c-0.2,0-0.4-0.1-0.6-0.2     c-0.1,0-0.2-0.1-0.2-0.2c-0.2-0.2-0.4-0.4-0.5-0.7c-0.2-0.4-0.4-0.8-0.5-1.3c0.1,0.1,0.3,0.2,0.5,0.3c-0.1-0.2-0.2-0.3-0.3-0.5     c0-0.1-0.1-0.1-0.2-0.2c0.1-0.4,0.2-0.8,0.2-1.1c0-0.2,0-0.3,0-0.5c1,0.6,1.4,1.9,1.8,3c0,0,0,0,0,0c-0.2-0.7-0.4-1.4-0.7-2     c0.1,0.1,0.2,0.1,0.2,0.2c0.2,0.1,0.4,0.3,0.6,0.4c-0.1-0.1-0.1-0.2-0.2-0.3c-0.1-0.1-0.2-0.2-0.4-0.3c-0.2-0.2-0.4-0.4-0.6-0.6     c0,0,0,0,0,0c-0.2-0.2-0.4-0.5-0.6-0.7c0.5-1.8,2.3-2.8,2.3-2.8c-1.1,0.5-2.2,1.2-2.7,2.4c0,0,0,0,0,0c0,0,0,0,0,0     c-0.5-3.2,1.7-5.1,1.7-5.1c-1.2,0.4-1.7,1.6-2,3c0,0.1,0,0.3-0.1,0.4c0,0,0,0,0,0c-0.3-1-0.2-2,0-3c-0.1,0-0.1,0.1-0.2,0.2     c-0.1,0.2-0.2,0.5-0.3,0.7c0,0,0,0.1,0,0.2c0,0,0,0,0,0c-0.1,0.3-0.2,0.7-0.1,1.1c0.1,0.8,0.3,1.5,0.4,2.2c0,0,0,0,0,0.1     c-0.2-0.2-0.5-0.4-0.7-0.7c-0.9-1-2.2-2-3.6-1.8c-1.5,0.1-2.6,1.2-3.3,2.4c-0.1,0-0.3-0.1-0.4-0.2c-0.3-0.3-0.7-0.5-1.2-0.6     c-0.9-0.2-2-0.3-2.9-0.2c-1.6,0.3-3,1.7-3.6,3.2c0,0-0.1,0-0.1,0.1c-1.8,0.5-3.4,1.4-4.3,3.3c-0.6,1.3-1.1,2.8-0.8,4.3     c0.2,1,0.9,1.7,1.6,2.3c0.2,1.7,0.5,3.2,1.6,4.7c0.5,0.7,1.4,0.9,2.1,1.2c0.1,0,0.2,0,0.2,0.1c-0.7,0.8-1.5,1.5-2.3,2     c-0.7,0.5-1.3,0.9-1.7,1.5c-0.1,0.2-0.2,0.3-0.3,0.5v0c0,0,0,0,0,0c0,0,0,0,0,0.1c-0.1,0.3,0,0.6,0.4,0.8c0.4,0.2,0.6,0,0.7-0.4     c0.1-0.2,0.2-0.4,0.4-0.6c0.4-0.6,1-0.9,1.6-1.3c0.6-0.3,1.3-0.6,1.8-1c-0.4,0.7-1,1.3-1.5,1.9c-0.4,0.5-1,1.2-1,1.8     c0,0,0,0,0,0.1c1.2,0.6,1.7-0.7,2.4-1.5c0.8-1,1.7-1.6,2.2-2.7c-0.2,0.7-0.3,1.4-0.3,2.2c0.1,0.6,0.3,2.7,1,3     c0.3,0.1,1-0.1,1.2-0.5c0.1-0.4-0.2-1.2-0.3-1.6c0-0.2-0.1-0.5-0.1-0.7c0.2,0.9,0.6,1.8,0.9,2.7c0,0,0,0.1,0,0.1     c0,0.2,0.1,0.3,0.3,0.3c0.3,0.1,0.6-0.1,0.9-0.3c0.3-0.2-0.2-1.3-0.3-1.5c-0.4-1.1-0.8-2.1-1-3.2c0,0,0-0.1,0-0.1c0,0,0,0,0,0     c1.6,0.3,3.3,0.4,4.8,0.3c1.4,0,3.2,0.7,4.3-0.6c2.8-3.1,0.6-8.6,0.2-12.2c0-0.1,0-0.2-0.1-0.4c0.2-0.2,0.3-0.4,0.5-0.7     c0.1-0.1,0.1-0.2,0.2-0.3c0,0.1,0,0.2,0,0.3c0,0.5,0,1,0.3,1.5c0.2,0.3,0.4,1,0.8,1c-0.3-0.1-0.6-0.8-0.7-1.1     c-0.2-0.3-0.2-0.7-0.3-1c0.2,0.5,0.7,1,1.1,1.1c0,0,0,0,0,0c-0.7-0.3-1-1.1-1.1-1.9c0,0,0,0,0,0c0,0,0,0,0,0c0-0.1,0-0.1,0-0.2     c0.1-0.3,0.2-0.6,0.3-0.9c0.3,0.4,0.8,0.8,1.3,1c0.2,0.2,0.5,0.4,0.7,0.6c0,0,0.1,0.1,0.1,0.1c-0.1,0.7,0.1,1.9,0.7,2.4     c-0.6-0.5-0.5-1.4-0.5-2.2c0.6,0.7,1.1,1.8,0.9,2.6c0,0,0.1-0.1,0.1-0.1c0.1-0.5,0-1-0.2-1.5C128,166.1,128.1,166.1,128.1,166.1z      M124.7,159.2c0,0.1,0,0.2,0,0.3c0-0.2-0.1-0.4-0.2-0.6C124.6,159.1,124.7,159.2,124.7,159.2z M123.2,163.8c-0.8-1.6-2.2-3-3.8-4     c0.3-0.6,0.7-1.1,1.3-1.4c0.6-0.3,1.4-0.3,2,0.1c0.8,0.7,0.5,1.4,0.5,2.3c0,0.4,0.1,0.8,0.3,1.2c-0.1-0.4-0.1-0.8-0.1-1.1     c0-0.3,0.1-0.5,0.1-0.8c0.1,0.3,0.2,0.7,0.3,1c0.1,0.3,0.2,0.6,0.3,0.9c0,0,0,0.1,0,0.2C124,162.7,123.6,163.3,123.2,163.8z" />
		<g>
			<g>
				<path class="st40"
					d="M124.7,159.2C124.7,159.2,124.7,159.2,124.7,159.2c-0.6-3.1,1.6-5,1.6-5c-1.2,0.4-1.7,1.5-1.9,2.9       c0,0.1,0,0.3,0,0.4c0,0,0,0,0,0c-0.3-1-0.2-1.9,0-2.9c-0.1,0-0.1,0.1-0.2,0.2c-0.1,0.2-0.2,0.4-0.3,0.6c0,0,0,0.1,0,0.1       c0,0,0,0,0,0c-0.1,0.3-0.2,0.6-0.1,1c0.1,0.7,0.3,1.4,0.4,2.1c-0.1,1-0.2,2-0.5,3c-0.5,1.9-2.3,3.7-4.3,3.9       c-0.4,0-0.9-0.1-1.2-0.1c-0.3,0-0.7,0.3-0.6,0.7c-0.1,0.1-0.2,0.2-0.3,0.3c-0.2,0.3,0,0.6,0.2,0.7c0,0,0,0.1,0.1,0.1       c0.5,0.5,1.2,0.4,2,0c1.6-0.3,3.1-1.2,4-2.7c0.8-1.3,0.9-2.8,1.3-4.2c0-2.3,2.4-3.6,2.4-3.6C126.2,157.3,125.1,158,124.7,159.2       z" />
				<g>
					<g>
						<g>
							<g>
								<path class="st41"
									d="M115.1,181c-0.4-1-0.8-2-1-3.1c0,0,0-0.1,0-0.1c0,0,0,0,0-0.1c-0.1-0.8-0.1-1.6,0.1-2.4           c0.1-0.3,0.3-0.8,0.4-1.2c0,0,0.1-0.1,0.1-0.1c0-0.2,0-0.3,0-0.4c-0.3-0.6-1.2-0.8-1.9-0.8c-0.7,0-1.5,0-2,0.4           c-0.3,0.2-0.4,0.7-0.4,1.1c-0.3,1.7-2,3.1-3.3,4c-0.7,0.4-1.2,0.9-1.6,1.5c-0.1,0.2-0.2,0.3-0.3,0.5v0c0,0,0,0,0,0           c0,0,0,0,0,0.1c0,0.3,0,0.5,0.4,0.7c0.4,0.2,0.6,0,0.7-0.4c0.1-0.2,0.2-0.4,0.4-0.5c0.4-0.5,1-0.9,1.6-1.2           c0.6-0.3,1.2-0.5,1.8-1c-0.4,0.7-0.9,1.2-1.4,1.8c-0.4,0.5-0.9,1.1-1,1.8c0,0,0,0,0,0.1c1.2,0.6,1.7-0.7,2.3-1.5           c0.7-0.9,1.7-1.6,2.2-2.6c-0.2,0.7-0.3,1.4-0.2,2.1c0.1,0.6,0.3,2.7,1,2.9c0.3,0.1,1-0.1,1.1-0.4s-0.2-1.2-0.3-1.6           c0-0.2-0.1-0.5-0.1-0.7c0.2,0.9,0.6,1.7,0.9,2.6c0,0,0,0.1,0,0.1c0,0.2,0.1,0.3,0.3,0.3c0.3,0.1,0.6-0.1,0.9-0.3           C115.7,182.3,115.2,181.2,115.1,181z" />
								<path class="st42"
									d="M105.8,180.9c0,0-0.1,0-0.2,0c-0.3-0.1-0.5-0.4-0.4-0.7c0.2-0.1,0.4,0.1,0.5,0.1           C105.9,180.5,105.9,180.6,105.8,180.9C105.9,180.8,105.8,180.9,105.8,180.9z" />
								<path class="st42"
									d="M108,181.6c-0.2,0-0.3-0.2-0.3-0.4c0,0,0.1-0.1,0.1-0.1c0.1,0,0.2,0,0.3,0.1c0.1,0.1,0.2,0.2,0.2,0.3           C108.3,181.6,108.1,181.6,108,181.6z" />
								<path class="st42"
									d="M113.2,182.2C113.2,182.2,113.2,182.2,113.2,182.2c-0.1,0-0.1,0-0.1,0c-0.2,0-0.3,0-0.4,0           c-0.1-0.2,0.3-0.3,0.5-0.3c0.1,0,0.2,0,0.3,0.1C113.4,182.1,113.3,182.2,113.2,182.2z" />
								<path class="st43"
									d="M114,181.2C114,181.2,114,181.2,114,181.2c-0.3-0.8-0.5-1.6-0.7-2.4c0-0.3,0-0.6,0-0.9           c-0.1,0.6-0.2,1.2-0.2,1.7c0,0.3,0.1,0.7,0.1,1c0.1,0.4,0.2,0.8,0.2,1.2c-0.2-0.1-0.4,0-0.6,0c-0.1,0.1-0.3,0.2-0.4,0.3           c-0.7-0.8-0.6-3.9-0.5-5.5c0,0,0,0,0,0c-0.4,1.1-1,2-1.8,2.7c-0.3,0.3-1,1.5-1.7,2c0-0.3-0.4-0.5-0.7-0.4           c0.3-0.7,1.3-1.6,1.4-1.8c0.2-0.3,0.4-0.6,0.6-0.9c0.3-0.3,0.5-0.7,0.6-1c0,0,0,0,0,0c0-0.2-0.1-0.4-0.1-0.5           c-0.1,0.3-0.2,0.7-0.3,1c-0.8,0.6-1.9,0.8-2.7,1.4c-0.3,0.2-0.6,0.5-0.8,0.7c-0.2,0.2-0.3,0.3-0.4,0.5c0,0,0,0.1,0,0.1           c-0.1-0.3-0.6-0.4-0.8-0.3c0,0,0,0,0,0c0.8-1.4,2.6-2,3.8-3.1c0.7-0.7,1.3-1.8,1.4-2.8c0.1-0.5,0.3-0.9,0.9-1.1           c0.5-0.2,1.2-0.1,1.8-0.1c0.3,0,1.7,0.6,1.2,1.2c0,0.5-0.2,1-0.4,1.5c-0.2,1.6-0.2,2.9,0.6,4.5c0.3,0.6,0.6,1.1,0.8,1.8           c-0.2-0.1-0.5,0-0.7,0.1c-0.1,0.1-0.2,0.2-0.2,0.3C114.2,181.9,114.2,181.5,114,181.2z" />
								<path class="st42"
									d="M114.8,182.5c-0.2,0.1-0.2,0-0.3,0c0-0.1,0-0.2,0-0.3c0.1-0.1,0.2-0.1,0.2-0.2c0.2-0.1,0.4,0,0.5,0.2           C115.1,182.3,115,182.4,114.8,182.5z" />
							</g>
							<g>
								<path class="st43"
									d="M110.1,178.2c-0.2,0.4-0.5,0.8-0.7,1.1c-0.4,0.5-0.8,1-1.1,1.5c0.8-1,2.4-2.2,2.3-3.6c0,0,0,0,0,0           C110.5,177.5,110.3,177.8,110.1,178.2z" />
								<path class="st43"
									d="M109.7,176.9c-1.2,1.2-3.4,1.5-4.1,3.1c0,0.1,0.1,0.1,0.1,0C106.7,178.6,108.7,178.3,109.7,176.9           C109.7,176.8,109.7,176.8,109.7,176.9z" />
								<path class="st43"
									d="M112.5,179.4c0-0.6,0.1-1.2-0.1-1.7c0,0,0,0,0,0c0,0.6-0.2,1.2-0.2,1.8c0,0.7,0.2,1.3,0.4,1.9           c0,0.1,0.1,0,0.1-0.1C112.6,180.7,112.5,180.1,112.5,179.4z" />
								<path class="st43"
									d="M113.8,179.4C113.8,179.4,113.8,179.4,113.8,179.4c0,0.5,0.1,0.9,0.2,1.4c0.1,0.3,0.2,0.7,0.4,1           c0,0,0.1,0,0.1-0.1C114.4,180.9,113.9,180.2,113.8,179.4z" />
							</g>
						</g>
						<g>
							<g>
								<path class="st44"
									d="M123.2,165.7c-0.4-3.2-3.7-6-6.9-7.1c-0.3-0.2-0.7-0.5-1.1-0.6c-0.9-0.2-1.9-0.3-2.8-0.2           c-1.5,0.3-2.9,1.7-3.5,3.1c0,0-0.1,0-0.1,0.1c-1.8,0.5-3.3,1.4-4.2,3.2c-0.6,1.2-1.1,2.8-0.8,4.2c0.2,1,0.9,1.6,1.6,2.3           c0.2,1.6,0.5,3.2,1.5,4.5c0.5,0.7,1.3,0.9,2,1.1c1.3,0.5,2.5,0.9,3.8,1.2c1.9,0.5,4.1,0.7,6,0.6c1.4,0,3.1,0.7,4.2-0.6           C125.7,174.5,123.6,169.1,123.2,165.7z" />
								<path class="st43"
									d="M118,177.5c-1.8-0.3-3.7-0.3-5.5-0.8c-0.8-0.2-1.8-0.5-2.8-0.8c-1.3-0.3-2.5-0.9-3-2.2           c-0.6-0.9-0.9-2-1.2-3c0.3,0.3,0.7,0.7,0.9,1.1c-0.2-0.5-0.3-1-0.6-1.5c-0.3-0.4-0.6-0.7-1-1.1c-0.1-0.1-0.1-0.1-0.1-0.2           c-0.2-0.2-0.3-0.4-0.4-0.6c-0.5-1-0.2-2.1,0-3.2c0.5-2.1,2.8-3.3,4.8-4.2c0.2,0,0.4-0.1,0.6-0.1c0.7-0.1,1.4-0.3,2.2-0.1           c0,0,0.1-0.1,0.1-0.1c-0.7-0.6-1.9-0.5-2.8-0.1c0.9-1.3,2.5-2.5,4-2.5c0.1,0,0.1,0,0.2,0c1.2-0.1,2.3,0.2,3.4,0.9           c3,0.7,4.8,3.3,5.8,6c0.6,1.5,0.9,3.2,1.1,4.7c0.3,2,0.6,4.1,0,6.1C123,178.7,119.7,177.8,118,177.5z" />
								<path class="st45"
									d="M123.7,169.9c-0.2-1.5-0.5-3.2-1.1-4.7c-1-2.7-2.8-5.3-5.8-6c-1.1-0.7-2.2-1.1-3.4-0.9           c-0.1,0-0.1,0-0.2,0c-1.5,0-3.1,1.2-4,2.5c1-0.4,2.1-0.5,2.8,0.1c0,0,0,0.1-0.1,0.1c-0.7-0.2-1.4-0.1-2.2,0.1           c-0.2,0-0.4,0.1-0.6,0.1c-2,0.9-4.2,2.1-4.8,4.2c-0.3,1.1-0.6,2.2,0,3.2c0.1,0.2,0.3,0.4,0.4,0.6c0,0.1,0.1,0.1,0.1,0.2           c0.3,0.4,0.7,0.7,1,1.1c0.3,0.4,0.5,1,0.6,1.5c-0.2-0.4-0.6-0.8-0.9-1.1c0.2,1,0.6,2.1,1.2,3c0.5,1.3,1.6,1.8,3,2.2           c1,0.4,2,0.6,2.8,0.8c1.8,0.5,3.6,0.5,5.5,0.8c1.8,0.2,5,1.1,5.7-1.5C124.2,174,124,171.9,123.7,169.9z M121.9,174.5           c-0.4,0.6-1.2-0.1-1.7-0.6c-0.3-0.2-0.7-0.4-1-0.6c-1-0.4-2.1-0.8-3-1.3c-0.2-0.1,0-0.4,0.1-0.5c0.8-0.7,1.7-1.2,2-2.4           c0.1-0.6,0.2-1.4,0-2c-0.7,1.5-1.5,2.7-3,3.3c-0.2,0.1-0.3,0.2-0.5,0.3c-0.2,0.1-0.3,0.2-0.5,0.3c-0.1,0.1-0.2,0.1-0.3,0           c-0.1,0-0.2-0.1-0.2-0.2c0-0.2,0-0.4,0-0.7c0,0,0-0.1,0-0.2c-0.2-2.5-0.8-5.2-3.5-5.4c1.5,1.6,2.2,3.4,2.5,5.7           c0.2,1.5,0.5,3.4-0.2,4.8c0,0,0,0,0,0c0,0.2-0.2,0.4-0.4,0.5c-1.7,0-4.2-0.6-4.8-2.4c-0.1-0.3,0.3-0.5,0.5-0.5           c0.1,0,0.2,0,0.3,0c-0.8-1.2-1.8-2.4-2.3-3.7c-0.1-0.3-0.2-0.7-0.2-1c-0.4-1.1-0.3-2.4,0.3-3.6c0.2-0.3,0.4-0.6,0.6-0.7           c1.4-1.6,4.2-1.3,6.1-2.5c-0.2-0.3-0.5-0.6-0.8-0.9c-0.2-0.2,0.2-0.6,0.4-0.6c0.5,0,2.2-0.3,2.3,0.5           c0.2,1.1,0.4,2.2,1.2,3.1c0.3,0.3,0.6,0.6,0.8,0.8c0.5,0.3,1.1,0.5,1.7,0.7c0.5,0.1,1.1,0.2,1.5,0.5           c1.5,1.4,2.2,3.4,2.6,5.4C122.6,171.9,122.6,173.5,121.9,174.5z" />
								<path class="st46"
									d="M113.5,168.1c-0.3-1.2-0.9-1.7-1.9-2.4c0,0,0,0,0,0c1.9,1.9,1.7,4.2,1.8,6.7c0,0.1,0.1,0,0.1,0           C113.9,170.9,113.9,169.6,113.5,168.1z" />
								<path class="st46"
									d="M117.9,168.2c-0.1,0.2-0.2,0.3-0.3,0.5c-0.5,0.8-1.2,1.3-2,1.9c-0.1,0-0.1,0.2,0,0.2           c1-0.3,1.7-1.1,2.2-2C117.9,168.5,117.9,168.3,117.9,168.2z" />
							</g>
							<path class="st43"
								d="M109.8,163.2c-1.3-0.4-2.8,0.4-3.3,1.7c-0.6,1.4-0.7,2.9,0,4.2c0.4,1.2,1.1,2.3,2,3          c0.1,0.1,0.2-0.1,0.2-0.2c-0.9-2.5-0.8-6.3,1.1-8.3C109.9,163.5,110,163.2,109.8,163.2z" />
							<path class="st43"
								d="M112.9,164.4c-0.3,0-0.6,0.4-0.4,0.6c0.5,0.6,0.9,1.1,1.2,1.8c0.3,1,0.5,2,0.5,3          c0,0.2,0.3,0.2,0.4,0.1C116.8,168.3,115.5,164.5,112.9,164.4z" />
							<path class="st43"
								d="M120.7,168.2c-0.3-0.8-1-1.5-1.7-1.8c0.1,0.5,0.1,1,0.1,1.4c0,0.6-0.1,1.2-0.3,1.8          c-0.1,0.5-0.2,0.9-0.5,1.1c-0.1,0.2-0.2,0.3-0.3,0.5c0,0,0,0,0.1,0c0.7,0.1,1.5-0.1,2.1-0.5          C120.7,170,121.1,169.1,120.7,168.2z" />
						</g>
					</g>
					<g>
						<path class="st47"
							d="M127.4,165.9c0.2,0.1,0.4,0.2,0.5,0.3c0-0.1-0.1-0.2-0.1-0.2c-0.2-0.2-0.4-0.3-0.7-0.4         c0-0.1-0.1-0.2-0.1-0.2c-0.3-0.4-0.6-0.8-1-1.1c0.4,0.1,0.8,0.2,1.2,0.1c0,0,0.1-0.1,0.2-0.1c0.1,0,0.2-0.1,0.2-0.1         c-0.3,0.1-0.6,0.1-0.8,0.2c0.1-0.1,0.2-0.2,0.3-0.3c0.2-0.2,0.5-0.2,0.7-0.4c0,0,0,0,0,0c-0.2,0.1-0.5,0.2-0.7,0.3         c-0.2,0.1-0.3,0.2-0.5,0.4c-0.1,0-0.2,0-0.2,0c0,0,0,0,0,0c-0.2,0-0.4-0.1-0.5-0.2c-0.1,0-0.2-0.1-0.2-0.2         c-0.2-0.2-0.4-0.4-0.5-0.6c-0.2-0.4-0.4-0.8-0.5-1.3c0.1,0.1,0.3,0.2,0.5,0.3c-0.1-0.1-0.2-0.3-0.3-0.5         c-0.1-0.1-0.2-0.2-0.3-0.4c-0.2-0.8-0.3-1.6-0.6-2.3c0.2,0.3,0.6,0.6,0.9,0.8c1,0.6,1.5,1.9,1.9,3c0,0,0,0,0,0         c-0.2-0.7-0.4-1.3-0.7-2c0.1,0.1,0.2,0.1,0.2,0.2c0.2,0.1,0.4,0.3,0.6,0.4c-0.1-0.1-0.1-0.2-0.2-0.3         c-0.1-0.1-0.2-0.2-0.4-0.3c-0.2-0.2-0.4-0.4-0.6-0.6c0,0,0,0,0,0c-0.6-0.8-1.5-1.3-2.2-2c-0.9-1-2.1-1.9-3.5-1.8         c-2,0.2-3.3,2-3.9,3.7c-0.1,0.2-0.1,0.3-0.2,0.5c-0.2,1-0.2,2,0.4,2.7c0.4,0.4,1.1,1.1,1.7,0.7c0.8-0.5,0.4-1.9,0.5-2.7         c0.1-1.1,0.7-2.3,1.7-2.8c0.6-0.3,1.4-0.3,2,0.1c0.8,0.6,0.4,1.4,0.5,2.2c0,0.4,0.1,0.8,0.3,1.1c-0.1-0.4-0.1-0.7-0.1-1.1         c0-0.3,0.1-0.5,0.1-0.8c0.1,0.3,0.2,0.7,0.3,1c0.1,0.3,0.2,0.6,0.3,0.8c0.2,0.9,0.1,1.8,0.3,2.8c0,0.5,0,1,0.3,1.5         c0.2,0.3,0.4,1,0.8,1c-0.3-0.1-0.6-0.8-0.7-1.1c-0.2-0.3-0.2-0.6-0.2-1c0.2,0.4,0.7,1,1.1,1.1c0,0,0,0,0,0         c-0.7-0.3-1-1.1-1.1-1.8c0,0,0,0,0,0c0,0,0,0,0,0c0-0.2-0.1-0.5-0.1-0.7c0-0.3,0-0.7,0-1c0.4,0.7,0.9,1.2,1.6,1.5         c0.2,0.2,0.5,0.4,0.7,0.6c0,0,0.1,0,0.1,0.1c-0.1,0.7,0.1,1.9,0.7,2.3c-0.6-0.5-0.5-1.4-0.5-2.1c0.6,0.6,1,1.8,0.9,2.6         c0,0,0.1-0.1,0.1-0.1c0.1-0.5,0-1-0.2-1.5C127.4,165.9,127.4,165.9,127.4,165.9z" />
						<path class="st48"
							d="M128,166.3c0-0.1-0.1-0.2-0.1-0.2c-0.2-0.2-0.4-0.3-0.7-0.4c0-0.1-0.1-0.2-0.1-0.2         c-0.3-0.4-0.6-0.8-1-1.1c0.4,0.1,0.8,0.2,1.2,0.1c0,0,0.1-0.1,0.2-0.1c0.1,0,0.2-0.1,0.2-0.1c-0.3,0.1-0.5,0.1-0.7,0.1         c-0.6,0.1-1.1,0-1.6-0.5c-1-0.9-1.3-2.1-1.7-3.3c-0.2-0.6-0.4-1.4-0.9-1.9c-1.3-1.3-3.3-1.7-4.5,0.7         c-0.3,0.5-0.6,3.2-1.5,3.1c-0.6,0-0.8-0.5-0.9-1.1c-0.1,0.8,0,1.5,0.5,2.1c0.4,0.4,1.1,1.1,1.7,0.7c0.8-0.5,0.4-1.9,0.5-2.7         c0.1-1.1,0.7-2.3,1.7-2.8c0.6-0.3,1.4-0.3,2,0.1c0.8,0.6,0.4,1.4,0.5,2.2c0,0.4,0.1,0.8,0.3,1.1c-0.1-0.4-0.1-0.7-0.1-1.1         c0-0.3,0.1-0.5,0.1-0.8c0.1,0.3,0.2,0.7,0.3,1c0.1,0.3,0.2,0.6,0.3,0.8c0.2,0.9,0.1,1.8,0.3,2.8c0,0.5,0,1,0.3,1.5         c0.2,0.3,0.4,1,0.8,1c-0.3-0.1-0.6-0.8-0.7-1.1c-0.2-0.3-0.2-0.6-0.2-1c0.2,0.4,0.7,1,1.1,1.1c0,0,0,0,0,0         c-0.7-0.3-1-1.1-1.1-1.8c0,0,0,0,0,0c0,0,0,0,0,0c0-0.2-0.1-0.5-0.1-0.7c0-0.3,0-0.7,0-1c0.4,0.7,0.9,1.2,1.6,1.5         c0.2,0.2,0.5,0.4,0.7,0.6c0,0,0.1,0,0.1,0.1c-0.1,0.7,0.1,1.9,0.7,2.3c-0.6-0.5-0.5-1.4-0.5-2.1c0.6,0.6,1,1.8,0.9,2.6         c0,0,0.1-0.1,0.1-0.1c0.1-0.5,0-1-0.2-1.5c0,0,0.1,0,0.1,0C127.6,166,127.8,166.1,128,166.3z" />
					</g>
				</g>
				<path class="st49"
					d="M120.2,156.6c-2.4,0-3.5,2.5-3.9,4.5c0,0,0,0,0,0C116.9,159,118.1,157.3,120.2,156.6       C120.2,156.6,120.3,156.6,120.2,156.6z" />
			</g>
		</g>
	</g>
</svg>