<svg version="1.1" id="Layer_1" xmlns="http://www.w3.org/2000/svg" xmlns:xlink="http://www.w3.org/1999/xlink" x="0px" y="0px" viewBox="0 0 256.5 381" style="enable-background:new 0 0 256.5 381;" xml:space="preserve">
	<g transform="translate(14,-8)">
		<style type="text/css">
			.st13 {
				fill: #F0A0A2;
			}

			.st16 {
				fill: #BF2A4B;
			}

			.st17 {
				fill: #EF7D81;
			}

			.st18 {
				opacity: 0.4;
				fill: #EF7D81;
				enable-background: new;
			}

			.st19 {
				fill: #CE4B59;
			}

			.st20 {
				opacity: 0.5;
				fill: #FFFFFF;
				enable-background: new;
			}

			.st21 {
				fill: #F5A687;
			}
		</style>
		<path class="st13"
			d="M109,204.3c1.4-0.5,2.9,0.2,4.3,0.3c0.5,0,1.2,0,1.6-0.3c0.4-0.3,0.8-0.6,1.2-1c1-0.9,2.1-0.7,3.2-0.7       c0.7,0,1.3-0.2,1.8-0.5c0.9-0.5,1.1-1.9,2.4-1.9c0.6,0,1.3-0.3,1.8-0.8c0,0,0,0,0,0.1c0,0-0.1,0-0.1,0.1       c-0.1,0.8-0.2,1.4-0.1,2.1c0.1,0.9,1.1,2,0.6,3c-0.1,0.3-0.2,0.9-0.3,1.2c-0.3,1.4,0.4,2.7,0.7,4.1c0.2,1.3-0.8,2.6-0.8,3.9       c0,2.5-1.5,3-2.7,4.4c0.8-0.7,1.6-1.4,2.3-2.2c1.4-1.7,2-3.7,2.3-5.9c0.4-2.3,0.4-4.5,0.1-6.9c-0.2-2-0.6-4-0.6-5.9       c0-1,0.3-2.5,0-3.5c-0.3-0.7-2.3,1.3-2.7,1.6c-2.8,1.7-5.8,3.1-9,3.6c-3.6,0.6-7.3,0.5-10.9,0.1c-2-0.2-3.9-0.5-5.9-0.8       c-1.8-0.3-6.4-2.4-7.6,0.1c-1.4,2.7-0.9,5.9-0.9,8.9c0,2.1-0.1,4.2,0,6.3c0.1,1.3,0.3,2.4,1.7,2.7c0.3,0.1,0.4,0.1,0.5,0.1       c-0.1-0.3-0.1-0.6,0.1-0.9c0.2-0.4,0.5-1,0.4-1.4c-0.2-1.5-0.8-2.5-0.4-4.2c0.2-0.9,0.7-1.7,0.8-2.6c0.1-0.5-0.3-1.5-0.4-2       c-0.1-0.8,0.5-2.2,0.6-3.1c0-0.3,0-0.7-0.1-1c0.3,0.3,0.7,0.6,1,0.7c1.4,0.3,2.7-0.1,3.9,1.1c0.7,0.7,1.7,1,2.6,1.2       c0.5,0.1,1-0.2,1.5-0.3c1.5-0.6,3.3,0.5,4.8,0.7C107.6,204.9,108.2,204.6,109,204.3z" />
		<g>
			<path class="st16"
				d="M135.2,204.7c-0.5-1.8,0-2.7,0.3-4.4c0-0.2,0-0.4-0.1-0.7c-0.4-1.3-0.7-2.2-0.3-3.6        c0.3-1.2-0.1-2.2-0.6-3.2c-0.6-1.3,0.4-3-0.2-4.5c-0.3-0.7-1-1-1.6-1.2c-0.7-0.4-0.9-1.2-1.6-1.5c-0.9-0.5-1.7-0.5-2.6-0.4        c-0.9,0.1-1.5,0.6-2.1,1.3c-0.2,0.2-0.3,0.5-0.4,0.7c-0.2,0.3-0.3,0.6-0.3,1c0,0,0,0.1,0,0.1c-0.2,0.4-0.5,0.7-1.1,0.9        c-0.6,0.2-1.5,0.1-2,0.6c-0.3,0.3-0.6,0.7-0.8,1.1c-0.1,0.1-0.2,0.3-0.3,0.5c-0.5,0.7-1,1.3-2.1,1.5c-0.6,0.1-1,0.3-1.4,0.8        c-0.5,0.9,0.3,1.6-1.4,1.8c0,0,0,0,0,0h0c-0.2,0-0.4,0-0.7,0.1c-0.5,0-1.2-0.3-1.7-0.1c-1.3,0.4-2.4,1.6-3.8,1.6        c-1.1,0-2.2-1.1-3.3-0.9c-0.5,0.1-1,0.3-1.6,0.4c-1.6,0.5-2.7-0.7-3.8-1.5c-0.1,0-0.1-0.1-0.2-0.1c-0.1,0-0.2-0.1-0.4-0.1        c-0.3,0-0.6-0.1-0.9-0.1c-0.2,0-0.3-0.1-0.5-0.1c-0.1,0-0.2,0-0.2-0.1c-0.5-0.2-0.8-0.6-1-1c0,0-0.1-0.1-0.1-0.1        c-0.6-0.9-1.3-1.5-2.3-1.9c-0.7-0.3-1.4-0.2-2-0.2c-0.3,0.1-0.5,0.1-0.9,0.1c-0.1,0-0.2-0.1-0.4-0.1c-0.2-0.6-0.5-1-0.9-1.4        c0-0.1-0.1-0.2-0.1-0.3c-1.2-0.9-2.6-0.2-4,0.2c-0.8,0-1.6,0.3-2.1,0.9c-1.8,1.3-1,3.7-1.2,5.9c-0.1,1.3-1.3,2.6-1.2,4        c0.2,1.6,0.7,2.7,0,4.2c-0.5,1.2-0.7,2.2-0.3,3.4c0.5,1.6-0.3,3.3,0.4,4.9c0.6,1.3,2.4,2.5,2.7,3.8s1.5,1.4,2.2,2.3        c0.6,1.6-0.3,3,0,4.7c0.2,0.8,1.1,0.8,1.6,0.4c0.8-0.6,0.5-2.3,0.5-3.1c0-1.1-0.8-1.8,0.5-2.4c0.3-0.2,0.5-0.5,0.6-0.8        c0.5-1-0.7-2.1-0.1-3.1c0.2-0.4,0.5-1,0.4-1.5c-0.2-1.6-0.8-2.6-0.4-4.3c0.2-1,0.7-1.7,0.8-2.7c0.1-0.6-0.4-1.6-0.5-2.1        c-0.2-0.8,0.5-2.3,0.6-3.2c0-0.3,0-0.7-0.1-1c0.3,0.3,0.7,0.7,1.1,0.7c1.5,0.3,2.8-0.1,4,1.1c0.7,0.7,1.8,1.1,2.7,1.3        c0.5,0.1,1.1-0.2,1.5-0.3c1.5-0.7,3.5,0.5,5,0.8c0.9,0.1,1.5-0.2,2.3-0.5c1.4-0.5,3,0.2,4.4,0.3c0.6,0,1.2,0,1.7-0.3        c0.5-0.3,0.8-0.6,1.3-1c1-1,2.2-0.8,3.4-0.7c0.7,0,1.3-0.2,1.9-0.5c1-0.5,1.2-2,2.5-2c0.7,0,1.4-0.3,1.9-0.8c0,0,0,0.1,0,0.1        c0,0-0.1,0-0.1,0.1c-0.1,0.8-0.2,1.4-0.1,2.2c0.1,1,1.2,2.1,0.6,3.1c-0.1,0.3-0.2,0.9-0.3,1.2c-0.3,1.5,0.5,2.8,0.7,4.2        c0.2,1.3-0.8,2.7-0.8,4.1c0,2.6-1.5,3.1-2.9,4.6c-0.2,0.2-0.3,0.5-0.4,0.8c-0.3,1.8-0.7,3.2-2.7,3.3c-1.2,0-2,0.3-2.4,1        c-0.4,0.2-0.7,0.5-1.1,0.8c-4.4,2.1-11.4-2.1-12.6,5.1c-0.2,1.2,0.3,2.1,1,3c0.2,0.3,2.2,0.6,1.3,1.6c0,0-0.3,0.3-0.3,0.5        c-0.1,0.5,0.3,0.7,0.7,0.8c0.1,0.1,0.2,0.2,0.4,0.2c0.3,0.2,0.6,0.3,0.8,0.7c0.1,0.1,0.1,0.2,0.1,0.3c0,0.2-0.1,0.5-0.2,0.8        c-0.2,0.3-0.2,0.7-0.1,1.1c0,0,0,0,0,0.1c0,0.1,0.1,0.1,0.1,0.2c0,0,0,0,0,0c0,0,0,0,0,0c0.4,0.3,1,0.2,1.5,0.1        c0.1-0.1,0.1-0.2,0-0.3c-0.1-0.3-0.2-0.5-0.3-0.8c0,0,0,0,0-0.1c-0.2-0.8,1.4-1.1,1.7-1.3c0.7-0.4,0.8-1.4,0.5-2.1        c-0.2-0.4-1.4-1.5-0.2-1.8c0.5-0.1,0.8-0.2,1.1-0.6c0.5-0.6-0.5-1.5-0.8-2c0.6,0.2,1.2,0.4,1.8,0.3c0.6-0.1,1.1-0.3,1.7-0.5        c1.3-0.5,2.6,0.1,4,0.3c2.6,0.3,6-0.6,7.8-2.7c0.2,0,0.4,0,0.6-0.1c2.4-0.5,2-3.4,4.3-4.1c2.5-0.8,2.1-3.1,2.3-5.3        c0.1-1.2,1.2-2.2,1.4-3.3c0.3-1.9-0.9-3.5,0-5.5C135.7,206.7,135.5,205.7,135.2,204.7z" />
			<path class="st17"
				d="M134.7,208c-0.2,0.4-0.2,1-0.3,1.4c-0.3,1.8,1.1,2.7,0.2,4.7c-0.3,0.5-0.6,0.9-1,1.3        c-0.2,0.2-0.4,0.4-0.6,0.6c-0.1,0.1-0.4,0.4-0.4,0.5c0,0,0,0,0,0c0,0,0,0,0,0.1c0,0,0,0,0,0c0.3-0.3,0.7-0.5,1-0.9        c-0.1,0.2-0.2,0.5-0.3,0.9c-0.5,2.4,0.5,3.9-2.4,4.8c-0.5,0.2-1,0.4-1.3,0.9c-0.7,1.4-0.9,3.1-2.8,3.2c-0.5,0-1.3,0.1-1.6,0.4        c0,0-0.1,0.1-0.1,0.1c0.4,0,0.8,0.1,1.2,0.1c0,0,0,0,0,0c-1.9,1.6-4.5,2-6.8,2.2c-1.3,0.1-3.2-0.6-4.4-0.1s-2.2,0.8-3.5,0.4        c-0.6-0.2-1.6-0.9-2.1-0.9c-0.8,0-1.1,0.4-1.5,1c0,0.1,0,0.1,0.1,0c0.4-0.4,0.8-0.6,1.3-0.5c0,0.2,0,0.4-0.1,0.6        c-0.1,0.2-0.5,0.9-0.8,0.8l0,0c0.2,0.2,0.6-0.2,0.8-0.3c0.3-0.2,0.5-0.6,0.5-1c0.5,0.1,0.9,0.2,1.4,0.4c0.1,0.4,0.3,0.6,0.6,1        c1.2,1.7-1.2,1.3-1.6,1.8c-0.5,0.6,0.1,0.9,0.5,1.4c0,0,0,0,0,0c0,0,0,0,0,0.1c0,0,0,0,0,0.1c0.3,0.4,0.3,0.7,0.3,1        c0,0.4-0.2,0.8-0.7,1c-0.5,0.3-1.3,0.4-1.7,0.9c0,0,0,0.1,0,0.1c0,0.3,0.4,1.6,0.3,1.6c-0.3,0.1-0.9,0-1.2-0.2        c-0.5-0.6,0.3-1.4,0.2-2c0-0.1,0-0.2-0.1-0.2c0,0,0-0.1,0-0.1c-0.3-0.4-0.8-0.7-1.3-0.9c-0.2-0.1-0.4-0.3-0.4-0.6        c0.1-0.3,0.3-0.5,0.4-0.7c0,0,0.1-0.1,0.1-0.1c0.3-0.7-0.2-1-1.1-1.4c-1.6-0.6-1.5-2.7-1.1-4.1c0.4-1.8,1.9-2.8,3.6-2.8        c1.5-0.1,3,0.1,4.5,0.1c1.2,0,2.4-0.1,3.5-0.6c0.3-0.1,0.6-0.3,0.8-0.5c0.3-0.2,0.5-0.3,0.7-0.5c-0.1,0.4-0.1,0.8-0.1,1.5        c0,0.1,0,0.1,0.1,0.1c0-0.7,0.3-1.2,0.6-1.5c0.2-0.3,0.5-0.4,0.8-0.5c0.6-0.2,1.2-0.3,1.9-0.4c1.9-0.3,2-1.9,2.1-3.4        c0-0.3,0.2-0.6,0.4-0.8c0.9-1.1,2.2-1.5,3-2.5c0.1-0.2,0.1-0.3,0.2-0.5c0.2,0.3,0.5,0.7,0.9,0.9c0,0,0,0,0,0l0.1-0.1        c0,0,0,0,0,0c-0.1,0.1-0.6-1.1-0.6-1.2c-0.2-0.4-0.3-0.9-0.3-1.3c-0.2-1.7,0.3-2.4,0.5-3.9c0.2-1.6-0.9-2.9-0.8-4.5        c0,0.1,0.7-1.4,0.7-1.8c0-0.2,0-0.3,0-0.4c0.3,0.4,0.6,0.8,1.1,1.1c0,0,0.1,0,0.1-0.1s0-0.1,0-0.1s0,0,0,0        c0-0.2-0.4-0.8-0.5-1c-0.2-0.5-0.5-0.9-0.6-1.4c-0.4-1.3-0.4-2.6-0.5-4c0.1-0.3,0.3-0.6,0.6-0.8c0.2-0.2,0.4-0.3,0.5-0.6        c0,0,0,0,0.1,0c0.2-0.1,0.2-0.3,0.3-0.5c0.2-0.4,0.2-0.8,0.4-1.2c0.1-0.3,0.3-0.5,0.5-0.7c0.6-0.3,1.4-0.4,1.3-1.3        c0-0.2,0-0.4-0.1-0.5c0.2,0,0.3,0,0.5-0.1c0.3-0.2,0.5-0.4,0.6-0.8c0,0,0,0,0,0c-0.1,0.2-0.3,0.4-0.5,0.6        c-0.2,0.1-0.4,0.1-0.6,0c0-0.3,0-0.5,0-0.8c0-0.2,0.1-0.4,0.2-0.6c-0.3,0.2-0.5,0.5-0.5,1c-0.1,0.7,0.7,1.9-0.6,2        c-0.3,0-0.6,0.2-0.8,0.5c-0.2,0.2-0.3,0.5-0.3,0.8c0,0,0,0.1-0.1,0.1c-0.1,0.4-0.2,0.9-0.4,1.2c-0.1,0.1-0.2,0.1-0.4,0.2        c-0.6,0.1-0.8,0.9-1.1,1.5c-0.9,1.5-3,0.5-3.8,2.1c-1.3,2.5-3.2,1-5.1,2c0,0-0.1,0-0.1,0.1c0.2-0.3,0.4-0.6,0.5-1c0,0,0,0,0,0        c-0.3,0.5-0.9,1-1.3,1.3c-0.3,0.2-0.5,0.5-0.7,0.8c-0.1,0.1-0.1,0.1-0.2,0.2c-1.2,1-3.1,0.3-4.4,0c-1.6-0.4-3.1,0.8-4.7,0.6        c-1.6-0.2-3.1-1.4-4.7-0.6c-1,0.5-2.6,0.1-3.6-0.7c-0.1-0.1-0.2-0.2-0.3-0.3c-0.4-0.4-1.2-1.5-1-2.1c0,0,0,0,0,0        c-0.2,0.4-0.1,0.9,0.1,1.4c-0.1-0.1-0.3-0.1-0.4-0.2c-1.5-0.2-3,0.5-4-1.1c-0.3-0.5-0.4-1.4-0.8-1.9c-0.6-0.6-1.8-0.7-2.2-1.5        c-0.5-1-0.2-2.2,0-3.2c0,0,0,0,0,0c-0.2,0.6-0.6,1.7-0.6,2.6c-0.1-0.1-0.3-0.3-0.4-0.5c-0.2-0.4-0.3-1.1-0.1-1.5c0,0,0,0,0,0        c-0.3,0.3-0.4,0.9-0.3,1.3s0.3,0.9,0.8,1c0,0.4,0.2,0.7,0.4,0.9c0.3,0.3,0.7,0.3,1,0.5c1,0.3,1.2,1.2,1.6,2        c0.1,0.2,0.2,0.3,0.3,0.5c0.1,1.1-0.3,2.1-0.5,3.1c-0.1,0.2-0.2,0.4-0.3,0.6c-0.2,0.3-0.6,1.2-1,1c0,0,0,0,0,0        c0.3,0.2,0.7-0.2,1-0.5c0.1-0.1,0.1-0.2,0.2-0.3c0,0.3,0.2,0.8,0.2,1.1c0.4,1.4-0.2,2.8-0.7,4.1c0,0,0,0,0,0.1        c-0.3,0.3-0.5,0.6-0.6,1c0,0.2-0.1,0.8,0.1,1c0,0,0.1,0,0,0c-0.1-0.3,0.2-1,0.3-1.2c-0.1,1.2,0.7,2.1,0.7,3.3        c0,0.8-0.5,1.6-0.5,2.4c0.3,0.9,1.2,2.5-0.4,3c-0.1,0-0.3,0.1-0.4,0.2c-0.3,0.3-0.3,0.9-0.2,1.3c0.1,0.5,0.2,1,0.2,1.5        c0.2,0.8,0.2,1.9-0.5,2.2c-0.5,0.3-1.1-0.2-1.1-0.8c0-0.5,0.2-1,0.3-1.4c0,0,0,0,0-0.1c0.1-0.2,0.1-0.5,0.1-0.7        c0,0,0-0.1,0-0.1c0,0,0,0,0,0c0-0.4,0-0.7-0.2-1.1c0-0.6-0.3-0.9-0.8-1.4c-0.6-0.5-1.4-0.7-1.6-1.8c-0.1-0.4,0.1-0.5-0.3-0.8        c-0.8-0.7-1.5-1.3-1.9-2.2c-0.4-0.5-0.7-1.1-0.7-1.9c0-0.7,0.2-1.6,0.1-2.4c0,0,0,0.1,0.1,0.1c0.2,0.3,0.5,1,0.5,1.4        c0,0,0,0,0,0c0.1-0.4-0.1-0.8-0.2-1.2c-0.1-0.5-0.4-1.1-0.7-1.6c0,0,0,0,0,0c-0.2-0.4-0.3-0.7-0.3-1.1c-0.1-1.2,1-2.7,1.1-3.9        l0,0c0.2,0.2,0.3,0.3,0.5,0.5c0,0,0.1-0.1,0.1-0.1c-0.3-0.3-0.5-0.6-0.7-1c-0.2-0.7-0.6-1.5-0.5-2.3c0.1-1,0.6-1.8,1-2.7        c0.2-0.9,0.4-1.8,0.3-2.8c0-0.9-0.1-2,0.3-2.8c0.2-0.4,0.5-0.8,0.8-1c0.1-0.1,0.3-0.3,0.4-0.4v0c0.3-0.1,0.6-0.1,0.9-0.1        c0.8-0.1,1.6,0,2.5,0.2c-0.5-0.3-1.1-0.5-1.8-0.5c1.2-0.2,2.3-0.8,3.5,0.3c0.2,0.2,0.5,0.7,0.9,1.1c0,0,0,0.1,0,0.1        c0.1,0.2,0.2,0.5,0.3,0.7c0.1,0.2,0.2,0.4,0.2,0.6c0,0,0,0,0.1,0c0.1-0.2,0.1-0.6,0-0.9c0,0,0.1,0,0.2,0.1        c1.6,0.2,2.7-0.3,4,1c0.7,0.6,1,1.3,1.5,1.8c-0.2,0-0.4,0-0.6,0c0,0-0.1,0.1,0,0.1c0.5,0.1,1.1,0.3,1.6,0.4        c1.2,0.4,2.1,0.5,3.2,1.3c0.8,0.6,1.7,0.7,2.6,0.5c1-0.2,1.2-0.6,2.5-0.3c0.6,0.2,1.1,0.5,1.8,0.6c0.9,0.1,1.6,0.1,2.4-0.4        c1-0.6,1.9-1.1,3.1-0.9c0.3,0,0.7,0.1,1,0c0.8,0,1.8-0.2,2.1-0.9c0,0,0,0,0,0c-0.2,0.2-0.5,0.3-0.8,0.3        c0.1-0.1,0.2-0.2,0.2-0.3c0.3-0.5,0.2-0.4,0.4-0.9c0.4-1.2,1.5-0.8,2.2-1.1c0.3-0.1,0.5-0.3,0.7-0.4c0,0.2,0,0.5,0,0.7        c0,0.1,0.1,0.1,0.1,0c0.3-0.3,0.4-0.8,0.5-1.1c0.1-0.4,0.4-0.7,0.5-1.1c0.7-1.1,1.5-1.3,2.7-1.6c0.2-0.1,0.5-0.2,0.8-0.5        c0,0.3,0.1,0.5,0.2,0.7c0,0,0.1,0,0.1,0c-0.1-0.4,0.1-1,0.1-1.4c0-0.1,0-0.2,0-0.2c0-0.2,0.1-0.3,0.1-0.5c0.5-2.3,4-2.8,5.2-1        c0.3,0.5,0.7,0.8,1.2,0.9c0.4,0.3,0.9,0.7,1.2,1.2c0.9,1.3-0.3,2.6,0,3.9c0.4,1.4,1.4,1.2,0.7,3.4c-0.1,0.5-0.3,0.8-0.3,1.2        c-0.4,0.7-0.5,1.6-0.4,2.4c0,0.1,0.1,0,0.1,0c0.1-0.4,0.2-0.8,0.3-1.2c0,0.1,0,0.1,0.1,0.2c0.6,1.2,0.6,2.3,0.1,3.6        c-0.3,0.8-0.4,1.2-0.1,2.1C135.1,205.6,135.3,206.6,134.7,208z" />
			<path class="st18"
				d="M134.4,209.4c0.1-0.4,0.1-1,0.3-1.4c0.7-1.4,0.4-2.4-0.1-3.8c-0.3-0.8-0.2-1.2,0.1-2.1        c0.4-1.3,0.5-2.4-0.1-3.6c0-0.1,0-0.1-0.1-0.2c-0.2,0.4-0.3,0.8-0.3,1.2c0,0-0.1,0.1-0.1,0c-0.1-0.8,0-1.7,0.4-2.4        c0.1-0.4,0.2-0.8,0.3-1.2c0.7-2.2-0.3-2-0.7-3.4c-0.4-1.3,0.8-2.6,0-3.9c-0.3-0.5-0.8-0.8-1.2-1.2c-0.5-0.2-0.9-0.4-1.2-0.9        c-1.1-1.8-4.6-1.2-5.2,1c0,0.2-0.1,0.3-0.1,0.5c0,0.1,0,0.2,0,0.2c0,0.4-0.2,1-0.1,1.4c0,0,0,0.1-0.1,0        c-0.1-0.2-0.2-0.5-0.2-0.7c-0.2,0.2-0.5,0.4-0.8,0.5c-1.2,0.3-2,0.5-2.7,1.6c-0.1,0.4-0.4,0.7-0.5,1.1        c-0.1,0.4-0.3,0.8-0.5,1.1c0,0-0.1,0-0.1,0c0-0.2,0-0.5,0-0.7c-0.2,0.2-0.5,0.3-0.7,0.4c-0.8,0.3-1.8-0.1-2.2,1.1        c-0.2,0.5-0.1,0.4-0.4,0.9c-0.1,0.1-0.1,0.2-0.2,0.3c0.3,0,0.6-0.1,0.8-0.3c0,0,0,0,0,0c-0.4,0.7-1.3,1-2.1,0.9        c-0.3,0.1-0.7,0-1,0c-1.2-0.2-2.1,0.3-3.1,0.9c-0.8,0.5-1.5,0.5-2.4,0.4c-0.6-0.1-1.2-0.5-1.8-0.6c-1.3-0.3-1.5,0.1-2.5,0.3        c-0.9,0.2-1.8,0.1-2.6-0.5c-1-0.8-2-0.9-3.2-1.3c-0.5-0.1-1-0.2-1.6-0.4c0,0,0-0.1,0-0.1c0.2,0,0.4,0,0.6,0        c-0.6-0.5-0.9-1.2-1.5-1.8c-1.4-1.2-2.5-0.7-4-1c0,0-0.1,0-0.2-0.1c0.1,0.3,0.2,0.6,0,0.9c0,0-0.1,0-0.1,0        c0-0.2-0.2-0.5-0.2-0.6c-0.1-0.2-0.2-0.5-0.3-0.7c0,0,0-0.1,0-0.1c-0.3-0.4-0.7-0.9-0.9-1.1c-1.1-1-2.3-0.4-3.5-0.3        c0.7,0,1.3,0.2,1.8,0.5c-0.8-0.2-1.7-0.3-2.5-0.2c-0.3,0-0.6,0-0.9,0.1v0c-0.2,0.1-0.3,0.3-0.4,0.4c-0.3,0.2-0.6,0.6-0.8,1        c-0.4,0.8-0.4,1.9-0.3,2.8c0,1-0.1,1.9-0.3,2.8c-0.4,0.9-0.8,1.7-1,2.7c-0.1,0.9,0.3,1.6,0.5,2.3c0.2,0.4,0.4,0.7,0.7,1        c0,0,0,0.1-0.1,0.1c-0.2-0.1-0.4-0.3-0.5-0.5l0,0c-0.1,1.2-1.2,2.7-1.1,3.9c0,0.4,0.1,0.7,0.3,1.1c0,0,0,0,0,0        c0.3,0.5,0.6,1,0.7,1.6c0.1,0.3,0.3,0.8,0.2,1.2c0,0,0,0,0,0c0.1-0.4-0.3-1-0.5-1.4c0,0,0-0.1-0.1-0.1c0,0.8-0.2,1.7-0.1,2.4        c0,0.8,0.3,1.4,0.7,1.9c0.4,0.8,1.1,1.5,1.9,2.2c0.4,0.3,0.2,0.4,0.3,0.8c0.2,1.1,1,1.2,1.6,1.8c0.6,0.5,0.8,0.8,0.8,1.4        c0.1,0.3,0.2,0.7,0.2,1.1c0,0,0,0,0,0c0,0,0,0.1,0,0.1c0,0.2-0.1,0.5-0.1,0.7c0,0,0,0,0,0.1c-0.1,0.5-0.3,0.9-0.3,1.4        c0,0.6,0.6,1,1.1,0.8c0.7-0.3,0.6-1.4,0.5-2.2c0-0.5-0.1-1-0.2-1.5c-0.1-0.4,0-0.9,0.2-1.3c0.1-0.1,0.2-0.2,0.4-0.2        c1.6-0.5,0.7-2.2,0.4-3c0.1-0.8,0.5-1.6,0.5-2.4c0.1-1.2-0.7-2.1-0.7-3.3c-0.1,0.2-0.4,0.9-0.3,1.2c0,0,0,0.1,0,0        c-0.2-0.2-0.1-0.8-0.1-1c0.1-0.4,0.3-0.7,0.6-1c0,0,0,0,0-0.1c0.5-1.3,1.1-2.7,0.7-4.1c-0.1-0.3-0.3-0.8-0.2-1.1        c-0.1,0.1-0.1,0.2-0.2,0.3c-0.2,0.2-0.6,0.7-1,0.5c0,0,0,0,0,0c0.4,0.1,0.8-0.7,1-1c0.1-0.2,0.2-0.4,0.3-0.6        c0.2-1,0.7-2.1,0.5-3.1c-0.1-0.2-0.2-0.3-0.3-0.5c-0.4-0.8-0.6-1.8-1.6-2c-0.4-0.1-0.7-0.2-1-0.5c-0.2-0.2-0.4-0.6-0.4-0.9        c-0.4-0.1-0.6-0.6-0.8-1c-0.1-0.4,0-1,0.3-1.3h0c-0.3,0.5-0.1,1.1,0.1,1.5c0.1,0.2,0.2,0.3,0.4,0.5c0-0.9,0.4-1.9,0.6-2.6        c0,0,0,0,0,0c-0.2,1-0.5,2.2,0,3.2c0.4,0.8,1.6,0.9,2.2,1.5c0.5,0.4,0.5,1.3,0.8,1.9c1,1.7,2.5,1,4,1.1c0.1,0,0.3,0.1,0.4,0.2        c-0.2-0.5-0.3-1-0.1-1.4c0,0,0,0,0,0c-0.2,0.6,0.7,1.7,1,2.1c0.1,0.1,0.2,0.2,0.3,0.3c1,0.7,2.6,1.2,3.6,0.7        c1.5-0.8,3.1,0.4,4.7,0.6c1.6,0.2,3.1-1,4.7-0.6c1.2,0.3,3.2,1,4.4,0c0.1-0.1,0.1-0.1,0.2-0.2c0.2-0.3,0.5-0.5,0.7-0.8        c0.4-0.4,1-0.8,1.3-1.3c0,0,0,0,0,0c-0.1,0.4-0.3,0.7-0.5,1c0,0,0.1,0,0.1-0.1c1.9-1,3.8,0.5,5.1-2c0.8-1.6,2.8-0.5,3.8-2.1        c0.2-0.7,0.4-1.4,1.1-1.5c0.2,0,0.3-0.1,0.4-0.2c0.2-0.3,0.3-0.8,0.4-1.2c0,0,0-0.1,0.1-0.1c0-0.3,0.1-0.5,0.3-0.8        c0.2-0.2,0.5-0.4,0.8-0.5c1.2-0.2,0.5-1.3,0.6-2c0-0.5,0.3-0.8,0.5-1c-0.1,0.2-0.2,0.4-0.2,0.6c0,0.3,0,0.5,0,0.8        c0.2,0,0.4,0.1,0.6,0c0.2-0.1,0.4-0.3,0.5-0.6h0c-0.1,0.4-0.2,0.6-0.6,0.8c-0.2,0.1-0.3,0.1-0.5,0.1c0,0.2,0,0.4,0.1,0.5        c0.1,0.9-0.7,1-1.3,1.3c-0.2,0.2-0.4,0.4-0.5,0.7c-0.1,0.4-0.2,0.8-0.4,1.2c-0.1,0.2-0.2,0.4-0.3,0.5c0,0,0,0-0.1,0        c-0.1,0.2-0.3,0.4-0.5,0.6c-0.3,0.2-0.5,0.5-0.6,0.8c0.1,1.4,0.1,2.7,0.5,4c0.2,0.5,0.4,0.9,0.6,1.4c0.1,0.2,0.5,0.9,0.5,1        c0,0,0,0,0,0c0,0,0,0.1,0,0.1s0,0.1-0.1,0.1c-0.5-0.3-0.8-0.7-1.1-1.1c0,0.1,0,0.2,0,0.4c0,0.4-0.7,1.9-0.7,1.8        c-0.1,1.6,1,3,0.8,4.5c-0.2,1.5-0.7,2.3-0.5,3.9c0.1,0.5,0.2,0.9,0.3,1.3c0,0.1,0.5,1.3,0.6,1.2c0,0,0,0,0,0l-0.1,0.1        c0,0,0,0,0,0c-0.4-0.2-0.7-0.5-0.9-0.9c0,0.2-0.1,0.3-0.2,0.5c-0.9,1.1-2.2,1.4-3,2.5c-0.2,0.2-0.3,0.5-0.4,0.8        c-0.1,1.5-0.2,3.2-2.1,3.4c-0.7,0.1-1.4,0.2-1.9,0.4c-0.3,0.1-0.6,0.3-0.8,0.5c-0.4,0.3-0.6,0.8-0.6,1.5c0,0-0.1,0-0.1-0.1        c-0.1-0.6,0-1.1,0.1-1.5c-0.2,0.2-0.4,0.4-0.7,0.5c-0.3,0.2-0.6,0.3-0.8,0.5c-1,0.5-2.2,0.7-3.5,0.6c-1.5,0-3-0.2-4.5-0.1        c-1.7,0.1-3.1,1-3.6,2.8c-0.3,1.3-0.5,3.5,1.1,4.1c0.9,0.3,1.4,0.7,1.1,1.4c0,0-0.1,0.1-0.1,0.1c-0.1,0.2-0.3,0.4-0.4,0.7        s0.1,0.5,0.4,0.6c0.5,0.2,1,0.5,1.3,0.9c0,0,0,0.1,0,0.1c0.1,0.1,0.1,0.2,0.1,0.2c0.1,0.6-0.8,1.4-0.2,2        c0.3,0.2,1,0.2,1.2,0.2c0,0-0.3-1.2-0.3-1.6c0,0,0-0.1,0-0.1c0.3-0.5,1.2-0.6,1.7-0.9c0.4-0.2,0.6-0.6,0.7-1        c0.1-0.3,0-0.6-0.3-1c0,0,0,0,0-0.1c0,0,0,0,0-0.1c0,0,0,0,0,0c-0.4-0.5-1-0.8-0.5-1.4c0.4-0.5,2.7-0.1,1.6-1.8        c-0.2-0.3-0.5-0.6-0.6-1c-0.5-0.2-0.9-0.3-1.4-0.4c0,0.4-0.2,0.8-0.5,1c-0.2,0.1-0.5,0.5-0.8,0.3c0,0,0,0,0,0        c0.3,0.1,0.8-0.5,0.8-0.8c0.1-0.2,0-0.4,0.1-0.6c-0.5,0-1,0.1-1.3,0.5c0,0.1-0.1,0-0.1,0c0.4-0.7,0.8-1,1.5-1        c0.6,0,1.5,0.7,2.1,0.9c1.3,0.3,2.3,0.1,3.5-0.4c1.2-0.5,3.1,0.2,4.4,0.1c2.3-0.2,5-0.6,6.8-2.2c0,0,0,0,0,0        c-0.4,0-0.8,0-1.2-0.1c0,0,0,0,0.1-0.1c0.4-0.3,1.2-0.4,1.6-0.4c1.9,0,2.1-1.8,2.8-3.2c0.3-0.5,0.7-0.8,1.3-0.9        c2.9-0.9,1.9-2.4,2.4-4.8c0.1-0.3,0.2-0.6,0.3-0.9c-0.3,0.3-0.7,0.6-1,0.9c0,0,0,0,0,0c0,0,0,0,0-0.1s0,0,0,0        c0-0.1,0.3-0.4,0.4-0.5c0.2-0.2,0.4-0.4,0.6-0.6c0.4-0.4,0.7-0.9,1-1.3C135.5,212.1,134.1,211.2,134.4,209.4z M83.6,205.7        c0-0.4,0.2-0.7,0.4-0.9c0.5-1.9,2.4-0.6,3.1,0.6c0.7,1.3,0.2,3.6-1.3,3.9C83.9,209.6,83.5,207.1,83.6,205.7z M87.4,213.7        c-0.3,0.8-1.2,1.2-1.9,0.6c-0.6-0.5-1.2-1.7-0.9-2.6c0.1-0.3,0.2-0.5,0.4-0.7c0,0,0-0.1,0.1-0.2c0.5-0.6,1.3-0.4,1.7,0.2        C87.3,211.8,87.6,212.8,87.4,213.7z M87.3,201.2c-0.8,1.2-2.6,1.2-3-0.3c-0.4-1.4,0.1-3.4,1.5-3.8c0.5-0.3,1-0.4,1.5,0.4        C88,198.5,88.1,200.2,87.3,201.2z M87.6,192.8c-0.4,0.6-1.2,0.7-1.4-0.1c-0.2-0.8,0.1-1.6,0.7-1.9c0.3-0.1,0.4,0,0.4,0.2        c0,0,0,0,0.1,0C88.3,191,88,192.3,87.6,192.8z M90.6,213.1c0,0.4-0.2,0.8-0.5,1c-0.4,0.2-0.7-0.2-0.7-0.6c0,0,0,0,0-0.1        c-0.1-0.4,0-0.7,0.3-1c0,0,0,0,0-0.1c0.1-0.1,0.2-0.2,0.2-0.2c0,0,0,0,0,0c0.1-0.1,0.3-0.1,0.4,0        C90.5,212.3,90.6,212.8,90.6,213.1z M90.5,205c0.4,0.2,0.7,0.6,0.8,1c0.1,0.9-0.5,2.3-1.4,2.5c-0.9,0.2-1.1-0.8-1-1.5        c0.1-0.7,0.4-1.6,1.1-1.9C90.2,205,90.3,204.9,90.5,205z M89.2,199.3c0-0.1,0-0.2,0.1-0.3c0.4-0.5,0.9-0.8,1.5-0.5        c0.5,0.3,0.7,1.1,0.7,1.7c-0.1,1.1-0.6,2.8-1.9,2.9C87.9,203.3,88.5,200.6,89.2,199.3z M91.7,195.1c-0.1,0.4-0.5,1-1,1        c-0.6,0-0.9-0.5-1-1c-0.1-0.7,0.2-1.4,0.5-2c0.1-0.2,0.5-0.3,0.6-0.2c0.1,0,0.3,0,0.4,0c0.3,0.2,0.5,0.6,0.5,1        C91.7,194.3,91.8,194.8,91.7,195.1z M95,199c-0.7,0.7-1.8,0.4-2.2-0.4c-0.5-1.1-0.8-3.9,1-3.6c0.1,0,0.2,0.1,0.2,0.1        c0.3,0.1,0.7,0.4,0.9,0.7C95.4,196.8,95.8,198.1,95,199z M96.5,193c0.1,0.2-0.2,0.5-0.4,0.5c-0.4,0-0.8-0.3-0.6-0.7        c0.2-0.5,0.7-0.4,1-0.1C96.6,192.8,96.6,192.9,96.5,193C96.5,193,96.5,193,96.5,193z M98.4,201.2c-0.5-0.5-0.8-1.5-0.7-2.2        c0.2-0.7,0.7-0.9,1.2-0.8c0.3,0,0.7,0.1,1,0.3c0.6,0.3,1.4,0.9,1.5,1.6C102,202.2,99.4,202.1,98.4,201.2z M101.2,196.7        c-0.7,0.3-1.6,0.1-2.1-0.5c-0.1-0.2,0.1-0.5,0.2-0.5c0.5-0.2,0.9-0.2,1.4-0.1c0.1,0,0.1,0,0.1,0.1c0.3,0.1,0.5,0.2,0.7,0.5        C101.7,196.3,101.4,196.6,101.2,196.7z M106.6,202c-0.6,0.1-1.7,0-1.8-0.8c-0.1-0.3,0.2-0.6,0.4-0.8c0.1-0.1,0.3-0.1,0.4-0.1        c0.5-0.2,1.1,0,1.5,0.3C107.7,201.3,107.2,201.9,106.6,202z M105.2,198.3c-0.1,0-0.1-0.2-0.1-0.3c0.2-0.8,1.1-1.5,1.9-1.2        c0.5-0.1,0.8,0,0.8,0.5C107.7,198.4,105.9,198.6,105.2,198.3z M109.7,200.1c-0.2,0.2-0.4,0.3-0.5,0.2c0,0,0,0,0,0        c-0.1-0.2,0-0.5,0.2-0.5c0.1,0,0.2-0.1,0.2-0.1C109.9,199.5,109.8,199.9,109.7,200.1z M114.1,201.8c-0.4,0.3-0.9,0.3-1.4,0.1        c-0.3-0.1-0.8-0.4-0.8-0.8c-0.1-0.5,0.3-0.8,0.7-0.9c0.2-0.2,0.6-0.4,0.9-0.4c0.4,0,1.1,0,1.3,0.5        C114.9,200.9,114.5,201.5,114.1,201.8z M114.5,197.4c-0.4,0.4-1.7,1.1-2,0.3c-0.3-0.7,0.6-1.2,1.2-1.3        c0.2-0.1,0.4-0.1,0.6-0.1C114.9,196.3,115,196.9,114.5,197.4z M119.1,194.3c0.2-0.4,0.5-0.6,0.9-0.7c0.2,0,0.3,0.1,0.2,0.3        c0,0.2-0.2,0.2-0.3,0.3c0,0,0,0,0,0c-0.1,0.2-0.3,0.3-0.5,0.4C119.1,194.8,119,194.6,119.1,194.3z M121,199.1        c-0.5,0.5-1.3,0.9-2,0.8c-0.7-0.1-1-0.8-0.6-1.4c0.4-0.6,1.1-1,1.7-1.1c0.4-0.1,0.9-0.2,1.2,0.1        C121.8,197.9,121.3,198.8,121,199.1z M123.4,190.5c0.1-0.1,0.3-0.2,0.4-0.1c0.4-0.2,1.1-0.3,1,0.3c-0.1,0.5-0.4,0.9-0.7,1.3        c-0.3,0.3-0.8,0.7-1.2,0.6C122,192.2,123,190.9,123.4,190.5z M124.9,196.7c-0.4,0.3-1,0.6-1.5,0.4c-0.6-0.2-0.5-1.1-0.2-1.6        c0.4-0.5,0.9-1,1.5-1.2c0,0,0,0,0,0c0.1,0,0.2-0.1,0.3-0.1c0,0,0.1,0,0.1,0c0.3,0,0.6,0.2,0.7,0.7        C125.8,195.7,125.5,196.3,124.9,196.7z M127.6,191.6c-0.1,0.1-0.4,0.1-0.4-0.1c-0.1-0.5,0.1-0.8,0.4-1.2        c0.3-0.3,0.6-0.1,0.5,0.2C128.4,190.9,127.9,191.4,127.6,191.6z M129.4,186.9c-0.2,0.5-0.7,0.9-1.1,1.1        c-0.3,0.2-1,0.5-1.3,0.1c-0.8-1,1.1-2,1.7-2.2c0.1,0,0.2,0,0.3,0C129.4,186,129.6,186.4,129.4,186.9z M105.5,227        C105.5,226.9,105.5,226.9,105.5,227c0.1-0.2,0.3-0.3,0.4-0.2c0.2,0,0.4,0.3,0.1,0.5c0,0,0,0-0.1,0.1c-0.1,0.1-0.3,0.2-0.5,0        l0,0C105.3,227.3,105.4,227.1,105.5,227z M106.1,230.2c-0.7,0.2-1.1-0.5-1-1.2c0.1-0.5,0.5-1,1-1.2c0.3-0.3,0.8-0.6,1.3-0.4        c0.6,0.3,0.4,1.2,0.1,1.6C107.2,229.5,106.7,230,106.1,230.2z M107.1,230.9c0-0.2,0.2-0.4,0.4-0.5c0.3-0.2,0.5-0.1,0.5,0.2        c0,0.1,0,0.2-0.1,0.3c0,0,0,0,0,0.1c-0.1,0.2-0.4,0.4-0.5,0.3c0,0-0.1,0-0.1,0C107.1,231.2,107.1,231,107.1,230.9z         M108.4,231.9c0.1-0.1,0.3-0.2,0.5-0.2c0.6-0.1,0.9,0.6,1,1.1c0.2,1.1-0.9,1.8-1.9,1.5c-0.4-0.1-0.8-0.3-0.8-0.8        c-0.1-0.6,0.4-1.2,0.8-1.6C108.1,231.8,108.3,231.8,108.4,231.9z M114.3,227.7c-0.8,0.2-1.8,0.6-2.6,0.3        c-1.8-0.5-3.3-1.8-5.2-1.5c-0.4,0.1-0.2-0.5,0-0.6c3.4-1.6,6.7,1.1,10-1.3c0.1-0.1,0.2-0.1,0.3-0.1c0.1-0.1,0.3-0.1,0.3,0.1        C117.7,226.4,115.5,227.3,114.3,227.7z M132.9,193.3c0.1-0.1,0.2-0.1,0.3,0c0.2,0,0.4,0,0.6,0.1c0.8,0.5,0.4,2,0.2,2.7        c-0.3,0.8-0.6,1.8-1.4,2.2c-0.9,0.4-1.1-1.4-1.1-1.9C131.6,195.2,131.9,193.9,132.9,193.3z M131,188.9c0-0.4,0.2-0.7,0.5-1        c0.3-0.2,0.6-0.1,0.5,0.2c0,0.1,0,0.2,0,0.3c-0.1,0.2-0.2,0.4-0.4,0.6C131.3,189.1,131,189.2,131,188.9z M127.4,200.2        c-0.4-1.2-0.4-3.1,1-3.5c0.1,0,0.1,0,0.2,0c1.2-0.5,1.1,2.6,0.9,3.2c-0.1,0.5-0.5,1.2-1.1,1.2        C127.9,201.2,127.6,200.6,127.4,200.2z M127.4,205.6c0.1-0.4,0.4-0.8,0.8-0.8c0.4-0.1,0.6,0.2,0.8,0.6c0,0,0,0,0,0        c0.2,0.2,0.3,0.5,0.3,0.7c0.2,0.6,0.2,1.6-0.3,2c-0.5,0.4-1,0.1-1.3-0.5C127.4,207.1,127.1,206.3,127.4,205.6z M120.8,222.7        c0.4-0.3,1.3-0.8,1.7-0.1c0,0,0,0,0,0.1c0,0,0,0.1,0.1,0.1c0.1,0.4-0.2,0.8-0.5,0.9c-0.3,0.2-0.7,0.3-1,0.3        C120.2,224,120.3,223.1,120.8,222.7z M123.8,226.9c-0.8,0.5-1.9,0.8-2.7,0.5c-0.9-0.2-1.1-1.3-0.3-1.9        c0.6-0.5,1.7-0.8,2.4-0.3c0.2,0,0.5,0,0.7,0.1C124.7,225.6,124.4,226.5,123.8,226.9z M123.9,220.8c-0.5-0.7-0.2-1.9,0.3-2.5        c0.5-0.5,1.1-1.1,1.7-1.4c0.3-0.2,0.6-0.2,0.8,0c0.4,0.1,0.7,0.5,0.7,1c-0.1,0.9-0.7,2-1.3,2.6        C125.6,221.1,124.5,221.7,123.9,220.8z M128.3,223.1c-0.1,0.5-0.5,0.9-0.8,1.2c-0.3,0.2-0.8,0.6-1.1,0.4        c-0.5-0.3-0.1-1.1,0.2-1.4c0.2-0.2,0.6-0.5,0.9-0.4c0.2-0.1,0.5-0.2,0.7-0.1C128.3,222.8,128.3,223,128.3,223.1z M128.2,214        c-0.8-0.1-1-1.2-1-1.9c0-0.9,0.3-1.7,1-2.2c0.2-0.2,0.4-0.1,0.4,0.1c0.3-0.1,0.5-0.1,0.8,0.2        C129.9,211.1,129.6,214.2,128.2,214z M131.9,219.2c-0.2,0.5-0.7,0.9-1.2,1.1c-0.3,0.2-0.8,0.4-1.1,0.1c-0.2-0.2-0.1-0.6,0-0.9        c0.2-0.7,0.9-1.6,1.7-1.4c0.1,0,0.2,0.1,0.2,0.2c0,0,0.1,0,0.2,0C131.9,218.5,132,218.8,131.9,219.2z M133.8,213.2        c-0.3,0.7-0.8,1.6-1.6,1.8c-0.8,0.2-1.3-0.3-1.2-1.2c0-0.9,0.4-1.6,1-2.2c0.4-0.3,1.1-0.7,1.5-0.4c0.1,0,0.2,0.1,0.3,0.1        C134.3,211.7,134,212.6,133.8,213.2z M132.8,206C132.9,205.9,132.9,205.9,132.8,206c0.3-0.2,0.8-0.5,1,0        c0.2,0.7-0.7,1.7-1.3,1.8c-0.1,0-0.3,0-0.3-0.1C132,207.1,132.3,206.2,132.8,206z M132.3,204.7c-0.8-0.2-0.7-1.5-0.6-2.1        c0.2-0.8,0.6-1.6,1.4-1.9c0.3-0.1,0.4,0.1,0.3,0.3c0.2,0,0.3,0,0.5,0.3C134.5,202.2,133.6,205.1,132.3,204.7z" />
			<path class="st19"
				d="M129.8,192.6c-0.5,0.1-1,0.1-1.3,0.5c-0.4,0.5-0.6,1.2-0.7,1.8c-0.1,0.6-0.9,0.7-1.2,1.2        c-0.3,0.5-0.3,1.1-0.5,1.7c0,0,0,0,0,0c0.2-0.6,0.4-1.7,1.1-1.9c0.3-0.1,0.5-0.1,0.7-0.4c0.2-0.2,0.2-0.8,0.3-1.1        c0.2-1,0.8-1.2,1.5-1.8C129.8,192.7,129.9,192.6,129.8,192.6z" />
			<path class="st18"
				d="M91.7,198.9c-0.3-0.7-0.6-1.5-1.4-1.7c-0.4-0.1-0.7-0.2-1-0.5c-0.2-0.2-0.4-0.6-0.4-0.9        c-0.4-0.1-0.6-0.6-0.8-1c-0.1-0.4,0-1,0.3-1.3c0.1-0.6,0.4-1.1,0.7-1.6c-1.9,0.9-2.1,3.2-0.7,4.7c0.2,0.2,0.5,0.5,0.5,0.8        c0,1,0.3,1.1,0.8,1.1c0.3-0.2,0.6-0.3,0.9-0.2c0.1,0,0.2,0,0.2,0C91.2,198.5,91.5,198.6,91.7,198.9z" />
			<path class="st18"
				d="M129.2,194.5c1.1-0.7,1.1-1.5,1.7-2.6c0.3-0.6,1.2-0.9,1.5-1.3c0.4-0.5,0.6-1.1,0.8-1.7        c-0.7,0.9-1.4,1.7-2.4,1.7c-0.3,0-0.5-0.1-0.7-0.3c0,0,0,0.1,0,0.1c0,0.3,0,0.5,0,0.8c0.2,0,0.4,0.1,0.6,0        c0.2-0.1,0.4-0.3,0.5-0.6h0c-0.1,0.4-0.2,0.6-0.6,0.8c-0.2,0.1-0.3,0.1-0.5,0.1c0,0.2,0,0.4,0.1,0.5c0.1,0.9-0.7,1-1.3,1.3        c-0.2,0.2-0.4,0.4-0.5,0.7c-0.1,0.4-0.2,0.8-0.4,1.2c-0.1,0.2-0.2,0.4-0.3,0.5c0,0,0,0-0.1,0c-0.1,0.2-0.3,0.4-0.5,0.6        c-0.3,0.2-0.5,0.5-0.6,0.8c0.1,0.6,0.1,1.1,0.1,1.7c0.1-0.3,0.2-0.7,0.4-1C127.7,196.8,128.2,195,129.2,194.5z" />
			<g>
				<path class="st20"
					d="M86.3,197.1c-1.3,0.7-2.2,2.1-1.5,3.6c0,0,0.1,0,0.1,0C84.7,199.3,85.2,198,86.3,197.1         C86.3,197.2,86.3,197.1,86.3,197.1z" />
				<path class="st20"
					d="M84.6,204.5C84.6,204.5,84.6,204.5,84.6,204.5c-0.8,1.1-1.1,2.3-0.3,3.5c0,0,0.1,0,0.1,0         C84,206.7,84.1,205.7,84.6,204.5z" />
				<path class="st20"
					d="M85.1,211.3C85.1,211.3,85.1,211.3,85.1,211.3c-0.3,0.6-0.4,1.1-0.2,1.8c0.1,0.5,0.5,0.8,0.9,1         c0,0,0.1-0.1,0.1-0.1C85.4,213.1,84.9,212.4,85.1,211.3z" />
				<path class="st20"
					d="M90.7,195.8c-0.2-0.3-0.4-0.5-0.5-0.9c0-0.2,0-0.5,0-0.7c0-0.2,0.1-0.3,0.1-0.4c0,0,0,0,0,0         c-0.1,0.2-0.2,0.4-0.3,0.6c-0.1,0.2-0.1,0.5-0.1,0.8c0,0.4,0.3,0.7,0.6,0.9C90.6,196,90.7,195.8,90.7,195.8z" />
				<path class="st20"
					d="M94,198.5c-0.3-0.3-0.6-0.4-0.8-0.8c-0.2-0.4-0.2-0.8-0.2-1.2c0,0,0,0,0,0c-0.2,0.5-0.3,1-0.1,1.6         c0.2,0.5,0.6,0.7,1,0.5C94,198.7,94,198.6,94,198.5z" />
				<path class="st20"
					d="M100.6,201.3c-1-0.2-2.2-0.7-2.5-1.9c0,0,0,0,0,0c0,0.6,0.2,1.2,0.6,1.6c0.5,0.6,1.2,0.5,1.9,0.4         C100.6,201.4,100.6,201.3,100.6,201.3z" />
				<path class="st20"
					d="M127.8,198.9c0-0.5,0-1,0.2-1.5c0,0,0,0,0,0c-0.6,0.9-0.8,2-0.1,2.9c0.1,0.1,0.2,0,0.2-0.1         C128,199.7,127.8,199.3,127.8,198.9z" />
				<path class="st20"
					d="M127.9,205.4C127.9,205.4,127.9,205.4,127.9,205.4c-0.5,0.5-0.6,1.7,0.1,2.1c0.1,0,0.2-0.1,0.2-0.2         C128,206.7,127.6,206.1,127.9,205.4z" />
				<path class="st20"
					d="M128.4,210.4c-0.3,0-0.7,0.4-0.8,0.8c-0.3,0.6-0.3,1.4,0.2,1.8c0.1,0.1,0.2,0,0.2-0.1         c-0.1-0.4-0.2-0.8-0.1-1.2C127.9,211.2,128.1,210.6,128.4,210.4C128.4,210.4,128.4,210.4,128.4,210.4z" />
				<path class="st20"
					d="M126,217.5c-0.8-0.1-2,0.9-1.8,1.8c0,0.1,0.2,0,0.2,0c0.2-0.3,0.3-0.7,0.6-1         C125.2,218,125.7,217.7,126,217.5C126.1,217.6,126.1,217.5,126,217.5z" />
				<path class="st20"
					d="M106.4,227.8c-0.6,0.3-1.5,1.3-0.8,2c0.1,0.1,0.2,0,0.2-0.1c0-0.3,0-0.6,0-0.9         C105.9,228.4,106.1,228.1,106.4,227.8C106.4,227.8,106.4,227.8,106.4,227.8z" />
				<path class="st20"
					d="M115.5,225.7c-1.1,0.3-2.3,0.4-3.5,0.3c-1-0.1-2-0.4-3-0.2c0,0,0,0,0,0c1.1,0,2.2,0.4,3.3,0.5         c1.1,0.1,2.2,0,3.1-0.5C115.6,225.8,115.6,225.7,115.5,225.7z" />
				<path class="st20"
					d="M116.4,225.2c-0.1,0-0.2,0.2-0.3,0.2c0,0,0,0,0,0c0.1,0.2,0.3,0,0.5-0.1         C116.6,225.3,116.6,225.1,116.4,225.2z" />
			</g>
			<g>
				<path class="st21"
					d="M90.2,217.6c0.2-0.4,0.5-0.8,0.7-1.2c0,0,0,0,0,0c-0.3,0.6-0.7,0.8-1.2,1c-1.1-0.9-0.1-2.2-1-3.2         c0,0-0.1-0.6-0.1-1.2c0.2-0.6,0.5-1.3,0.4-1.9c-0.1-1.1-0.8-1.7-0.6-2.9c0.2-1.2,0.5-1.8,0.3-3c0-0.2-0.1-0.5-0.2-0.8         c-0.2-1.3-0.5-2.4,0-3.9c0.2-0.5,0.2-1,0.2-1.5c0.2-0.9,0.3-1.9,0.2-2.8c0-0.1,0-0.2,0-0.2c0,0,0-0.1-0.1-0.2v0         c0,0,0,0,0-0.1c-0.1-0.1-0.2-0.2-0.2-0.3c0.1,0.4,0.1,0.8,0,1.3c0,0,0,0,0,0c-0.1,0.5-0.3,1.1-0.3,1.5c-0.2,1,0,2-0.6,3         c-0.4,0.7-0.2,1.6,0.1,2.4c0,0.4,0.1,0.8,0.2,1.2c0.2,1.1-0.2,2.2-0.2,3.4c0,0.3-0.1,0.5,0,0.8c0.1,0.2,0.2,0.6,0.3,0.9         c0.2,0.7,0.2,1.3,0.1,2.3c0,0.5-0.2,1.3,0.2,1.8c0.9,1.1,0.1,2.5,1.1,3.4c0,0-0.1,0-0.1,0c-0.6,0-1.2-0.2-1.6-0.7         c0,0,0,0,0,0C88,217.8,89.3,218.1,90.2,217.6z" />
				<path class="st21"
					d="M131,205.5c-0.1-0.2-0.1-0.5-0.1-0.8c0.3-1.3,0.7-2.5,0.6-3.8c-0.1-2-1-3.4-0.9-5.5         c0-0.9,0-1.7-0.4-2.4c-0.1-0.1-0.3-0.2-0.5-0.3c0.5,0.9,0.4,1.7,0.4,2.5c-0.1,0.5-0.4,1-0.3,1.5c0.1,1,0.6,2,1,2.9         c0.2,0.7,0.3,1.4,0.3,2.1c0,1.6-1,3.1-0.8,4.7c0.2,2.2,0.7,4,0.2,6.2c-0.4,1.5-1.3,2.8-1.8,4.2c-0.7,1.8-0.8,3.6-2.3,5         c-1.6,1.5-3.3,1.9-5.2,2.6c-0.7,0.2-1.4,0.5-2,0.9c0.1-0.5,0.3-1,0.7-1.3c0,0,0,0,0,0c-0.8,0.5-1.7,2.1-1,3         c0.4,0.5,0.8,1.1,1.5,1.2c0.1,0,0.2,0,0.3,0c0.6,0,1.2-0.1,1.8-0.3c-0.9,0.1-1.8,0.1-2.5-0.4c-0.6-0.4-0.8-1.2-0.7-2         c2.6-0.9,6.3-1.4,8.1-3.9c0,0,0.1-0.1,0.1-0.1c0.7-0.6,1.6-1.2,1.8-2.2c0.4-1.4,0.4-2.9,0.8-4.3c0.4-1,0.9-1.9,1.1-3         c0.1-0.4,0.2-0.8,0.2-1.2c0.3-1,0.6-2,0.6-3.2C131.6,206.9,131.1,206.2,131,205.5z" />
				<path class="st21"
					d="M131,186c-0.4,0.1-0.8,0.4-1,0.7c-0.2,0.3-0.3,0.7-0.5,1c-0.2,0.5-0.7,0.5-1.1,0.7         c-0.2,0.1-0.4,0.2-0.6,0.3c-0.9,0.4-1.4,1.3-1.8,2.2c-0.5,0.9-0.8,1.5-1.5,1.9c-0.8,0.1-1.3,0.4-1.9,1.2         c-0.1,0.2-0.2,0.3-0.3,0.5c-1.1,1.2-2.6,1.8-4.2,2.1c-0.6,0.1-1.1,0.3-1.6,0.6c-2,1.2-3.6,1.5-5.6,1.5         c-0.5-0.1-1-0.2-1.5-0.4c-1.1-0.4-2.2,0.2-3.2,0.6c-0.4,0.2-0.8,0.4-1.2,0.5c-0.7,0.1-1.5-0.6-2.1-1.2c0,0-0.1-0.1-0.2-0.1         c-2-1.1-4.4-1-6.1-2.7c-0.5-0.5-1.1-1.3-1.7-1.6c0,0,0,0,0,0c-0.3-0.2-0.6-0.5-1-0.5c-0.1,0-0.1,0-0.2,0         c-0.4,0.1-0.8,0.2-1.2,0c-0.6-0.3-0.8-0.9-1-1.5c-0.6-0.9-1.4-1.5-2.5-1.6c0,0,0,0,0,0c1.1,0.2,1.7,1,2.2,1.8         c0.2,0.6,0.2,1.1,0.7,1.6c0.4,0.4,1.4,0.5,1.8,0.4c1.5-0.2,2.4,1.6,3.3,2.5c0.4,0.4,1,0.5,1.5,0.7c0.4,0.2,0.9,0.5,1.3,0.6         c0.7,0.1,1.3,0.3,2,0.5c0.5,0.2,1.1,0.8,1.5,1.1c1.3,0.8,2.2,0.5,3.3,0.1c0.7-0.3,1.3-0.6,2.1-0.7c0.7,0,1.4,0.2,2.1,0.3         c1.5,0.1,3,0.3,4.3-0.5c0.1,0,0.2-0.1,0.4-0.2c0.5-0.6,1.1-1.1,1.8-1.3c1.3-0.5,2.6-0.2,3.9-0.7c0.1,0,0.2,0,0.2,0         c0.1-0.1,0.2-0.1,0.3-0.2c0.4-0.3,0.7-0.7,1-1.2c0.1-0.1,0.2-0.3,0.2-0.4c0.6-0.5,1.2-1,1.9-1.3c1.8-0.8,1.1-3.5,2.9-4.4         c0.3,0,0.6,0,0.9,0c0.3,0,0.7-0.3,0.9-0.5c0.6-0.6,0.6-2.1,1.5-2.1C131.2,186.1,131.1,186,131,186z" />
			</g>
		</g>
	</g>
</svg>