<svg version="1.1" id="Layer_1" xmlns="http://www.w3.org/2000/svg" xmlns:xlink="http://www.w3.org/1999/xlink" x="0px" y="0px" viewBox="0 0 256.5 381" style="enable-background:new 0 0 256.5 381;" xml:space="preserve">
	<g transform="translate(14,-8)">
		<style type="text/css">
			.st5 {
				fill: #70232A;
			}

			.st6 {
				fill: #A53542;
			}

			.st7 {
				opacity: 0.5;
				fill: #A53542;
				enable-background: new;
			}
		</style>
		<g>
			<path class="st5"
				d="M112.7,173.3c-1.8,0.1-3.5,0-5.3,0c-2.1,0-4.4-0.5-6.5-0.9c-2.5-0.5-5-0.5-7.5-0.2        c-1.7,0.2-3.1,0.7-4.4,1.7c-1.2,1.4-2.2,3.1-3,4.8c-0.5,1.3-0.8,2.6-1.1,4c-0.2,1-0.3,2-0.4,3c-0.1,1.2-0.3,2.5-0.2,3.8        c0.1,1.1,0.4,2.6,1.3,3.4c0.5,0.4,1.3,0.5,1.9,0.4c2.4-0.7,3.8-2.5,5.6-4.1c1.9-1.7,4.7-2.2,7.2-3c0.2,0,0.4,0,0.5,0        c1-0.2,1.9-0.7,2.8-1.1c2.3-0.8,4.5-1.8,6.4-3.1c0.9-0.6,1.9-1.3,2.8-2.2c0.7-0.8,1.5-1.7,1.8-2.6c0,0-0.1,0.1-0.1,0.1        c0.1-0.3,0.2-0.6,0.2-0.9C115,174.9,114.3,173.8,112.7,173.3z" />
			<path class="st6"
				d="M98.6,186.2c-1.1,0.4-2.2,0.8-3.2,1.2c-1.3,0.7-2.5,1.4-3.6,2.5c-1.1,1-2.7,2.7-4.2,2.9        c-2.3,0.4-3.1-2.1-2.8-4.1c0-1.4,0.2-2.8,0.4-4.2c0.4-2.7,0.9-5.4,2.2-7.8c0.4-0.7,0.8-1.3,1.4-1.9c1.2-1.3,2.8-2.1,4.6-2.4        c2.8-0.4,5.4,0,8,0.5c-1.6,1-2.1,5.5-2.2,6.7c-0.2,2-0.2,4.2,0.8,6.1C99.5,185.9,99.1,186,98.6,186.2z" />
			<path class="st6"
				d="M114,178.2c-1.4,1.7-3,3.1-4.9,4.1c-2.5,1.2-5.2,2.4-7.9,3.2c-0.1,0-0.2,0-0.2,0c-1.2-0.3-1.4-2-1.5-3.4        c-0.2-2,0-8.7,3-9c0.8,0.1,1.7,0.2,2.5,0.3c2.7,0.3,5.7,0.7,8.4,0.2c0.9,0.4,1.4,1.6,1.3,2.7        C114.6,177.1,114.3,177.7,114,178.2z" />
			<path class="st7"
				d="M94.3,183.8c-2,0.7-3.7,1.8-5.5,2.8c-1,0.5-2,1-3.2,0.7c-0.2,0-0.5-0.2-0.6-0.3c-0.1,0.6-0.1,1.2-0.1,1.8        c-0.2,2,0.5,4.5,2.8,4.1c1.5-0.3,3.1-1.9,4.2-2.9c1.1-1,2.3-1.8,3.6-2.5c1.1-0.5,2.2-0.8,3.2-1.2c0.5-0.1,0.9-0.3,1.4-0.4        c-0.5-1-0.8-2.2-0.9-3.3C97.5,182.9,95.8,183.3,94.3,183.8z" />
			<path class="st7"
				d="M95.5,173.7c1.7,0.1,3.3,0.3,4.9,0.5c0.3-0.6,0.6-1,1-1.3c-2.6-0.4-5.2-0.9-8-0.5c-1.8,0.3-3.4,1-4.6,2.4        c-0.1,0.1-0.2,0.2-0.2,0.3C90.6,174,93.1,173.6,95.5,173.7z" />
			<path class="st7"
				d="M113.3,173.7c-2.7,0.4-5.7,0-8.4-0.2c-0.8-0.1-1.7-0.2-2.5-0.3c-0.7,0.1-1.2,0.5-1.7,1.2        c0.5,0.1,1,0.1,1.5,0.2c1.3,0.2,2.7,0.3,4,0.1c0.7-0.1,1.8,0,2.4,0.2c1.5,0.3,1.4,1,0.5,2.2c-2.4,3.3-6,4.5-9.8,5.4        c0.1,1.4,0.4,2.9,1.5,3.2c0.1,0,0.2,0,0.2,0c2.7-0.8,5.4-2,7.9-3.2c2-1,3.5-2.4,4.9-4.1c0.4-0.5,0.7-1.1,0.7-1.8        C114.7,175.3,114.2,174.1,113.3,173.7z" />
		</g>
		<path class="st6"
			d="M93.9,174.6c-1.6,0.3-3.1,0.6-4.5,1.5c-1.5,0.9-2.3,3.1-2.9,4.7c-1,2.7-2,7.7-0.1,10.2c0,0,0.1,0,0.1-0.1       c-1.4-2.5-0.4-6.3,0.5-8.8c0.5-1.4,1-2.7,1.8-3.9C90,176.4,92,175.2,93.9,174.6C94,174.7,94,174.6,93.9,174.6z" />
		<path class="st6"
			d="M100.6,177.2c0.7-1,1.7-2,2.7-2.2c-0.5,0.1-1.2,0.1-1.7,0.4c-0.6,0.3-0.9,1-1.2,1.5       c-0.3,0.6-0.5,1.3-0.5,2C100,178.4,100.2,177.8,100.6,177.2z" />
	</g>
</svg>