<svg version="1.1" id="Layer_1" xmlns="http://www.w3.org/2000/svg" xmlns:xlink="http://www.w3.org/1999/xlink" x="0px"
	y="0px" viewBox="0 0 256.5 381" style="enable-background:new 0 0 256.5 381;" xml:space="preserve">
	<g transform="translate(14,-8)">
		<g>
			<style type="text/css">
				.st22 {
					fill: #96303B;
				}

				.st23 {
					fill: #E34B4F;
				}

				.st24 {
					opacity: 0.5;
					fill: #CE4547;
					enable-background: new;
				}

				.st25 {
					opacity: 0.5;
				}

				.st26 {
					fill: #97192E;
				}

				.st27 {
					fill: #EF7C70;
				}
			</style>
			<g>
				<path class="st22"
					d="M107.1,156.7c-0.1-2.2,0.3-4.2,0.8-6.3c0.1-0.8,0.3-1.6,0.4-2.5c0.2-1.5,0.3-2.9-0.6-4.2      c-1.6-2.2-7.2,0.2-8.8,1.2c0,0,0,0,0,0c-4.2,2-7.3,4.8-9.5,9.3c-2.3,4.7-3.4,10.1-3.5,15.3c-0.1,5.3,2.1,6.7,6.8,5.6      c3.7-0.9,8.7-2.4,11.5-5.2c1.2-1.2,2-2.4,2.5-3.6C107.1,163.2,107.2,160.1,107.1,156.7z" />
				<path class="st23"
					d="M96.6,173.7c-1.7,0.6-3.5,1.1-5.2,1.5c-3.9,1-5.2-1.8-5.2-5.6c0-3.7,0.7-7.3,1.8-10.8      c1.4-4.3,3.2-8.3,6.8-11c1-0.8,3.6-2.4,6.3-3.5c2.3-0.8,5.3-1.9,6.5,0c1,1.6,0.1,4.6-0.5,6.9c-0.2,1.3-0.4,2.6-0.5,3.9      c0.4,3.8,0.8,8.3-0.7,11.8C104.2,170.6,100.4,172.4,96.6,173.7z" />
				<path class="st24"
					d="M107.6,144.3c-1.1-1.7-3.5-1.1-5.7-0.4c1.2-0.3,2.4-0.4,3.4,0.2c2.1,1.3-0.1,4.8-0.5,6.4      c-0.8,3.8-0.2,7.9-1.5,11.6c-1,2.8-2.8,4.8-5.6,5.9c-2,0.8-7,3.2-9.1,1.5c-1.9-1.5-1.7-4.7-1.5-6.8c0.2-1.7,0.6-3.4,1.1-5      c-0.1,0.4-0.3,0.8-0.4,1.2c-1.2,3.4-1.8,7.1-1.8,10.8c0,3.8,1.2,6.5,5.2,5.6c1.7-0.4,3.5-0.9,5.2-1.5c3.8-1.3,7.6-3.1,9.2-6.7      c1.6-3.5,1.1-8,0.7-11.8c0.1-1.3,0.3-2.6,0.5-3.9C107.7,149,108.7,146,107.6,144.3z" />
			</g>
			<g class="st25">
				<g>
					<path class="st23"
						d="M90.7,172.4C90.7,172.4,90.7,172.5,90.7,172.4C90.7,172.5,90.7,172.4,90.7,172.4z" />
					<path class="st23"
						d="M96.6,157.6c-1.2,0.8-2.2,1.6-3.2,2.5c0,0-0.1,0-0.2,0.1c0,0.1-0.1,0.1-0.1,0.2c-0.2,0.1-0.3,0.3-0.5,0.4       c-1.2,0.3-2.3,0.8-3.2,1.5c-1.1,0.8-1.7,1.9-2.2,3.1c0,0,0,0,0,0c0.8-1.3,1.5-2.4,2.9-3.2c0.6-0.3,1.3-0.6,1.9-0.8       c-2.4,2.3-4,5-4.5,8.9c0,0,0,0,0,0c0.3-1.3,0.7-2.5,1.2-3.6c0,0.2,0,0.4,0,0.6c0,1.1,0.1,2.5-0.2,3.6c0,0,0,0,0,0       c0.6-1.5,0.3-3.3,0.5-4.9c0.9-1.7,2.1-3.2,3.5-4.5c-0.3,1-0.4,2-0.4,3.1c0,1.8,0.2,6.2-1.4,7.8c1.1-1,1.5-2.6,1.7-4.4       c0.2,0.6,0.4,1.2,0.6,1.8c0.3,1.1,0.4,2.2,0.3,3.4c0,0,0,0,0,0c0.4-2-0.1-4-0.9-5.8c0.2-2.3,0.1-4.8,0.7-6.4       c0,0,0.1-0.1,0.1-0.1c0.1,0,0.2-0.1,0.2-0.1c0,0,0.1-0.1,0-0.1c1-0.9,2-1.8,3.2-2.8C96.8,157.7,96.7,157.6,96.6,157.6z" />
					<path class="st23"
						d="M89.9,173c0.1-0.1,0.2-0.2,0.4-0.2C90.1,172.8,90,172.9,89.9,173C89.8,173,89.8,173,89.9,173z" />
					<path class="st23" d="M90.4,172.7c0,0-0.1,0.1-0.2,0.1C90.3,172.7,90.4,172.7,90.4,172.7z" />
					<path class="st23" d="M90.7,172.5c-0.1,0.1-0.2,0.1-0.2,0.2C90.5,172.6,90.6,172.5,90.7,172.5z" />
				</g>
				<path class="st23"
					d="M97.3,157.1c-1.4,0.3-2.8,0.1-4.2,0.6c-1.6,0.6-2.9,1.4-4,2.6c0,0,0,0,0,0c1.5-1.3,3.3-2.2,5.2-2.6      c1-0.2,2.1,0,3.1-0.5C97.4,157.2,97.4,157.1,97.3,157.1z" />
				<path class="st23"
					d="M106.3,150.9c-0.4,0.2-0.9,0.3-1.3,0.3c-1.8-0.2-2.9-1.9-4.5-2.7c-1.4-0.7-2.7-0.8-4.2-0.6c0,0,0,0,0,0      c1.4-0.1,2.9,0.2,4.2,0.8c-0.2,0-0.3,0-0.4,0.1c-1,0.2-1.8,0.3-2.8,0.1c0,0,0,0,0,0c0.6,0.2,1.2,0.3,1.9,0.3      c0.3,0,0.6-0.1,0.9-0.2c0.3,0,0.6,0,0.9,0c0.4,0.2,0.8,0.5,1.1,0.9c0.6,0.5,1.2,1,2,1.3c-2.3,0-4.7-0.9-6.9-0.7      c-2.4,0.2-5,1.3-6.3,3.5c0,0,0,0,0,0c1.3-1.7,3-2.5,4.9-2.8c-0.2,0.2-0.5,0.3-0.7,0.6c-0.5,0.4-1,0.8-1.5,1.1      c-0.4,0.3-0.9,0.7-1.4,0.8c0,0,0,0,0,0c0.6,0,1.3-0.5,1.8-0.8c0.5-0.3,0.9-0.6,1.3-1c0.4-0.3,0.7-0.5,1.1-0.8      c1.9-0.2,4,0,5.8,0.2c0.9,0.1,2,0.2,2.9,0c0.2,0,0.4,0,0.5-0.1c0,0,0.1-0.1,0.1-0.1c0.2-0.1,0.4-0.2,0.6-0.3      C106.4,151,106.3,150.9,106.3,150.9z" />
				<path class="st23"
					d="M107.5,149.5c-1.1-0.3-1.3-1.4-1.8-2.2c-0.3-0.7-0.9-1.2-1.5-1.6c-1-0.8-2.6-0.8-3.7-0.3      c0,0-0.1,0.1,0,0.1c2.1-0.5,3.8,0.2,4.9,2c0.2,0.3,0.3,0.5,0.5,0.8c-0.4-0.3-0.8-0.3-1.5-0.2c-1.8,0.1-3.6,0-4.9-1.5      c0,0,0,0,0,0c0.6,0.8,1.4,1.5,2.4,1.7c0.7,0.1,1.4,0.2,2.1,0.1c1-0.1,1.5-0.1,2.3,0.4C106.5,149.2,106.8,149.5,107.5,149.5      C107.5,149.6,107.5,149.5,107.5,149.5z" />
				<path class="st23"
					d="M105.8,160.8C105.8,160.8,105.8,160.8,105.8,160.8c-0.1-0.7-0.7-1.3-1.2-1.7c-0.3-0.3-0.7-0.5-1-0.8      c-0.2-0.1-0.3-0.3-0.3-0.5c0.1-1.2,0.4-2.4,1.2-3.8c0,0,0,0,0,0c-1,1.3-1.9,3-1.8,4.7c0,0.8,0.1,1.4,0.3,2.1      c-0.7,1.2-0.4,2.7,0,4c0,0,0,0,0,0c-0.2-1.2-0.3-2.4,0.1-3.6c0,0.2,0.1,0.3,0.1,0.5c0.8,2.7,1.1,4.5,0.2,7.3      c0,0.1,0.1,0.1,0.1,0c0.9-2,1-3.7,0.6-5.8c-0.1-0.5-0.2-1-0.3-1.4c0.2,0.2,0.3,0.4,0.5,0.7c0.9,1.3,1.4,2.7,1.2,4.3c0,0,0,0,0,0      c0.2-1.3,0.1-2.4-0.5-3.5c-0.4-0.8-0.9-1.4-1.3-2.1c-0.2-1-0.3-1.9-0.3-2.8C104,159.1,105.4,159.6,105.8,160.8z" />
				<path class="st23"
					d="M98.5,163.7c0.6-1.1,1.2-2.2,1.6-3.4c0-0.1-0.1-0.1-0.1,0c-1.9,3.7-5.5,7.7-3,11.9c0,0,0,0,0,0      c-1.5-3.2-0.1-5.5,1.3-7.9c-0.1,0.8,0.1,1.6,0.3,2.4c0.3,1.4,0.4,2.7,0.2,4.1c0,0,0,0,0,0c0.2-0.9,0.3-1.8,0.2-2.8      C98.8,166.5,98.3,165.1,98.5,163.7z" />
			</g>
			<g>
				<path class="st23"
					d="M104,144.4c-4.2,1.5-7.4,3-10.7,6.3c-3.8,3.8-5.3,9.1-5.2,14.4c0,0.1,0.2,0,0.2-0.1      c1-5.2,2.9-10.8,6.7-14.5C97.5,147.8,100.7,146.2,104,144.4C104,144.4,104,144.4,104,144.4z" />
				<path class="st23"
					d="M103.6,167.7c-2.6,3.5-13,7.9-16.4,4.6c0,0-0.1,0,0,0C90.5,177.6,101.2,171.7,103.6,167.7      C103.7,167.7,103.6,167.7,103.6,167.7z" />
			</g>
		</g>
		<g>
			<g>
				<path class="st22"
					d="M111.6,166.4c0.5,1.2,1.3,2.4,2.5,3.6c2.8,2.8,7.8,4.3,11.5,5.2c4.6,1.1,6.9-0.3,6.8-5.6      c-0.1-5.2-1.2-10.7-3.5-15.3c-2.2-4.5-5.3-7.3-9.5-9.3c0,0,0,0,0,0c-1.5-1-7.2-3.5-8.8-1.2c-0.9,1.3-0.9,2.7-0.6,4.2      c0.1,0.8,0.3,1.7,0.4,2.5c0.6,2,0.9,4.1,0.8,6.3C111,160.1,111.1,163.2,111.6,166.4z" />
				<path class="st23"
					d="M112.4,167c-1.6-3.5-1.1-8-0.7-11.8c-0.1-1.3-0.3-2.6-0.5-3.9c-0.7-2.3-1.6-5.3-0.5-6.9      c1.3-2,4.3-0.9,6.5,0c2.7,1.1,5.3,2.7,6.3,3.5c3.6,2.7,5.3,6.7,6.8,11c1.2,3.4,1.8,7.1,1.8,10.8c0,3.8-1.2,6.5-5.2,5.6      c-1.7-0.4-3.5-0.9-5.2-1.5C117.8,172.4,114.1,170.6,112.4,167z" />
				<path class="st24"
					d="M110.6,144.3c1.1-1.7,3.5-1.1,5.7-0.4c-1.2-0.3-2.4-0.4-3.4,0.2c-2.1,1.3,0.1,4.8,0.5,6.4      c0.8,3.8,0.2,7.9,1.5,11.6c1,2.8,2.8,4.8,5.6,5.9c2,0.8,7,3.2,9.1,1.5c1.9-1.5,1.7-4.7,1.4-6.8c-0.2-1.7-0.6-3.4-1.1-5      c0.1,0.4,0.3,0.8,0.4,1.2c1.2,3.4,1.8,7.1,1.8,10.8c0,3.8-1.2,6.5-5.2,5.6c-1.7-0.4-3.5-0.9-5.2-1.5c-3.8-1.3-7.6-3.1-9.2-6.7      c-1.6-3.5-1.1-8-0.7-11.8c-0.1-1.3-0.3-2.6-0.5-3.9C110.5,149,109.6,146,110.6,144.3z" />
			</g>
			<g class="st25">
				<g>
					<path class="st23"
						d="M127.5,172.4C127.5,172.4,127.5,172.5,127.5,172.4C127.5,172.5,127.5,172.4,127.5,172.4z" />
					<path class="st23"
						d="M121.6,157.6c1.2,0.8,2.2,1.6,3.2,2.5c0,0,0.1,0,0.2,0.1c0,0.1,0.1,0.1,0.1,0.2c0.2,0.1,0.3,0.3,0.5,0.4       c1.2,0.3,2.3,0.8,3.2,1.5c1.1,0.8,1.7,1.9,2.2,3.1c0,0,0,0,0,0c-0.8-1.3-1.5-2.4-2.9-3.2c-0.6-0.3-1.3-0.6-1.9-0.8       c2.4,2.3,4,5,4.5,8.9c0,0,0,0,0,0c-0.3-1.3-0.7-2.5-1.2-3.6c0,0.2,0,0.4,0,0.6c0,1.1-0.1,2.5,0.2,3.6c0,0,0,0,0,0       c-0.6-1.5-0.3-3.3-0.5-4.9c-0.9-1.7-2.1-3.2-3.5-4.5c0.3,1,0.4,2,0.4,3.1c0,1.8-0.2,6.2,1.4,7.8c-1.1-1-1.5-2.6-1.7-4.4       c-0.2,0.6-0.4,1.2-0.6,1.8c-0.3,1.1-0.4,2.2-0.3,3.4c0,0,0,0,0,0c-0.4-2,0.1-4,0.9-5.8c-0.2-2.3-0.1-4.8-0.7-6.4       c0,0-0.1-0.1-0.1-0.1c-0.1,0-0.2-0.1-0.2-0.1c0,0-0.1-0.1,0-0.1c-1-0.9-2-1.8-3.2-2.8C121.5,157.7,121.5,157.6,121.6,157.6z" />
					<path class="st23"
						d="M128.3,173c-0.1-0.1-0.2-0.2-0.4-0.2C128.1,172.8,128.2,172.9,128.3,173C128.4,173,128.4,173,128.3,173z" />
					<path class="st23" d="M127.8,172.7c0.1,0,0.1,0.1,0.2,0.1C127.9,172.7,127.9,172.7,127.8,172.7z" />
					<path class="st23" d="M127.6,172.5c0.1,0.1,0.2,0.1,0.2,0.2C127.7,172.6,127.6,172.5,127.6,172.5z" />
				</g>
				<path class="st23"
					d="M120.9,157.1c1.4,0.3,2.8,0.1,4.2,0.6c1.6,0.6,2.9,1.4,4,2.6c0,0,0,0,0,0c-1.5-1.3-3.3-2.2-5.2-2.6      c-1-0.2-2.1,0-3.1-0.5C120.8,157.2,120.8,157.1,120.9,157.1z" />
				<path class="st23"
					d="M112,150.9c0.4,0.2,0.9,0.3,1.3,0.3c1.8-0.2,2.9-1.9,4.5-2.7c1.4-0.7,2.7-0.8,4.2-0.6c0,0,0,0,0,0      c-1.4-0.1-2.9,0.2-4.2,0.8c0.2,0,0.3,0,0.4,0.1c1,0.2,1.8,0.3,2.8,0.1c0,0,0,0,0,0c-0.6,0.2-1.2,0.3-1.9,0.3      c-0.3,0-0.6-0.1-0.9-0.2c-0.3,0-0.6,0-0.9,0c-0.4,0.2-0.8,0.5-1.1,0.9c-0.6,0.5-1.2,1-2,1.3c2.3,0,4.7-0.9,6.9-0.7      c2.4,0.2,5,1.3,6.3,3.5c0,0,0,0,0,0c-1.3-1.7-3-2.5-4.9-2.8c0.2,0.2,0.5,0.3,0.7,0.6c0.5,0.4,1,0.8,1.5,1.1      c0.4,0.3,0.9,0.7,1.4,0.8c0,0,0,0,0,0c-0.6,0-1.3-0.5-1.8-0.8c-0.5-0.3-0.9-0.6-1.3-1c-0.4-0.3-0.7-0.5-1.1-0.8      c-1.9-0.2-4,0-5.8,0.2c-0.9,0.1-2,0.2-2.9,0c-0.2,0-0.4,0-0.5-0.1c0,0-0.1-0.1-0.1-0.1c-0.2-0.1-0.4-0.2-0.6-0.3      C111.9,151,111.9,150.9,112,150.9z" />
				<path class="st23"
					d="M110.7,149.5c1.1-0.3,1.3-1.4,1.8-2.2c0.3-0.7,0.9-1.2,1.5-1.6c1-0.8,2.6-0.8,3.7-0.3c0,0,0.1,0.1,0,0.1      c-2.1-0.5-3.8,0.2-4.9,2c-0.2,0.3-0.3,0.5-0.5,0.8c0.4-0.3,0.8-0.3,1.5-0.2c1.8,0.1,3.6,0,4.9-1.5c0,0,0,0,0,0      c-0.6,0.8-1.4,1.5-2.4,1.7c-0.7,0.1-1.4,0.2-2.1,0.1c-1-0.1-1.5-0.1-2.3,0.4C111.7,149.2,111.4,149.5,110.7,149.5      C110.7,149.6,110.7,149.5,110.7,149.5z" />
				<path class="st23"
					d="M112.4,160.8C112.4,160.8,112.4,160.8,112.4,160.8c0.1-0.7,0.7-1.3,1.2-1.7c0.3-0.3,0.7-0.5,1-0.8      c0.1-0.1,0.2-0.3,0.3-0.5c-0.1-1.2-0.4-2.4-1.2-3.8c0,0,0,0,0,0c1,1.3,1.9,3,1.8,4.7c0,0.8-0.1,1.4-0.3,2.1c0.7,1.2,0.4,2.7,0,4      c0,0,0,0,0,0c0.2-1.2,0.3-2.4-0.1-3.6c0,0.2-0.1,0.3-0.1,0.5c-0.8,2.7-1.1,4.5-0.2,7.3c0,0.1-0.1,0.1-0.1,0      c-0.9-2-1-3.7-0.6-5.8c0.1-0.5,0.2-1,0.3-1.4c-0.2,0.2-0.3,0.4-0.5,0.7c-0.9,1.3-1.4,2.7-1.2,4.3c0,0,0,0,0,0      c-0.2-1.3-0.1-2.4,0.5-3.5c0.4-0.8,0.9-1.4,1.3-2.1c0.2-1,0.3-1.9,0.3-2.8C114.2,159.1,112.8,159.6,112.4,160.8z" />
				<path class="st23"
					d="M119.8,163.7c-0.6-1.1-1.2-2.2-1.6-3.4c0-0.1,0.1-0.1,0.1,0c1.9,3.7,5.5,7.7,3,11.9c0,0,0,0,0,0      c1.5-3.2,0.1-5.5-1.3-7.9c0.1,0.8-0.1,1.6-0.3,2.4c-0.3,1.4-0.4,2.7-0.1,4.1c0,0,0,0,0,0c-0.2-0.9-0.3-1.8-0.2-2.8      C119.4,166.5,119.9,165.1,119.8,163.7z" />
			</g>
			<g>
				<path class="st23"
					d="M114.3,144.4c4.2,1.5,7.4,3,10.7,6.3c3.8,3.8,5.3,9.1,5.2,14.4c0,0.1-0.2,0-0.2-0.1      c-1-5.2-2.9-10.8-6.7-14.5C120.7,147.8,117.5,146.2,114.3,144.4C114.2,144.4,114.2,144.4,114.3,144.4z" />
				<path class="st23"
					d="M114.6,167.7c2.6,3.5,13,7.9,16.4,4.6c0,0,0.1,0,0,0C127.7,177.6,117,171.7,114.6,167.7      C114.5,167.7,114.6,167.7,114.6,167.7z" />
			</g>
		</g>
		<g>
			<g>
				<path class="st26"
					d="M130.2,166.9c-0.1-0.9-0.3-1.8-0.5-2.8c-1.5-3.4-4.7-6-8.1-8c-0.3-0.2-0.6-0.5-0.9-0.7      c-0.8-0.9-1.6-1.7-2.5-2.5c0,0,0,0,0,0c1,0.2,2.1,0.2,3.1,0.3c0.6,0.1,1.2,0.2,1.8,0.2c0.2,0.5,0.8,0.9,1.2,1.3      c0.7,0.6,1.5,1.1,2.2,1.7c0,0,0,0,0,0c-1.1-0.9-2.4-1.8-3.2-2.9c1.3,0.2,2.5,0.6,3.6,1.3c0,0,0,0,0.1,0.1      c-0.3-0.3-0.7-0.7-1.1-1c-2.9-1.6-6.7-1.6-9.9-2.8c-2.1-1.7-4.2-3.4-5-6c-0.9-2.9-0.8-6-0.7-9.1l0,0c0,0,0-0.1,0-0.1      c-0.1-0.2-0.2-0.5-0.2-0.7c0,0-0.1-0.1-0.2-0.2c-0.3-0.2-0.7-0.2-1.1-0.2c-0.2,0.1-0.5,0.2-0.6,0.4c0,0,0,0,0-0.1      c-0.1,0.1-0.1,0.3-0.2,0.4c0,0.1,0,0.1,0,0.2c0,0,0,0,0,0c0,0.1,0,0.2,0,0.2c0,0.2-0.1,0.5,0,0.7c0.1,2.8,0.1,5.6-0.7,8.2      c-0.8,2.6-2.9,4.3-5,6c-3.2,1.2-7,1.2-9.9,2.8c-0.4,0.3-0.8,0.6-1.1,1c0,0,0,0,0.1-0.1c1.1-0.7,2.3-1.1,3.6-1.3      c-0.8,1.1-2.2,2-3.2,2.9v0c0.8-0.5,1.5-1,2.2-1.7c0.4-0.4,1-0.8,1.2-1.3c0.6-0.1,1.2-0.2,1.8-0.2c1-0.1,2.1-0.1,3.1-0.3      c0,0,0,0,0,0c-0.9,0.8-1.7,1.6-2.5,2.5c-0.3,0.2-0.6,0.5-0.9,0.7c-3.4,2-6.6,4.6-8.1,8c-0.3,0.9-0.5,1.8-0.5,2.8      c0.9-4.2,4.2-7.3,7.8-9.9c-0.1,0.1-0.2,0.2-0.3,0.3c-0.5,0.7-0.8,1.3-1,1.9c-0.5,0.8-1,1.7-1.4,2.6c-0.4,1.1-0.7,2.3-0.9,3.5      c0.1-0.2,0.2-0.5,0.3-0.7c0.5-1.6,1.1-3.1,1.9-4.5c0,0.2,0,0.5,0,0.8c0,0.4-0.1,0.9-0.1,1.3c0,1.6-0.2,3.2-0.4,4.8      c0.2-0.5,0.3-1,0.5-1.6c0.1-0.5,0.1-0.9,0.2-1.4c0-0.5,0-0.9,0-1.4c0-0.5,0.1-1,0.1-1.5c0-0.4,0.1-0.8,0.2-1.2      c1-2.7,4.2-5,7-6.4c-0.2,0.2-0.5,0.3-0.7,0.5c-0.8,0.7-1.5,1.6-2,2.5c-2.1,3.2-2.4,7.2-0.9,10.8c0.2,0.3,0.4,0.6,0.6,0.8      c-0.4-2.5-0.4-4.9,0.1-7.1c0,0.6,0.1,1.2,0.3,2c0.3,1.3,1,2.5,1.3,3.8c0-0.5-0.1-1.1-0.3-1.6c-0.1-0.3-0.2-0.7-0.3-1      c-0.6-1.3-1.2-2.9-0.8-4.2c0.2-0.6,0.4-1.2,0.8-1.7c0.7-1.3,1.5-2.6,2.7-3.9c1.7-1.9,4.2-3.1,5.5-5.2c0-0.1,0.1-0.2,0.1-0.3      c0.3-0.4,0.6-0.9,0.8-1.4c0.1,0.2,0.2,0.5,0.3,0.7c0.4,0.7,0.9,1.3,1.4,1.9c1.3,1.6,3.3,2.7,4.8,4.3c1.2,1.2,2,2.5,2.7,3.9      c0.3,0.5,0.6,1.1,0.7,1.7c0.4,1.4-0.2,3-0.8,4.2c-0.1,0.3-0.2,0.7-0.3,1c-0.2,0.6-0.2,1.1-0.3,1.6c0.4-1.3,1.1-2.6,1.3-3.8      c0.2-0.8,0.3-1.4,0.3-2c0.5,2.2,0.6,4.6,0.1,7.1c0.2-0.3,0.4-0.5,0.6-0.8c1.5-3.6,1.1-7.6-0.9-10.8c-0.5-0.9-1.2-1.8-2-2.5      c-0.2-0.2-0.4-0.3-0.7-0.5c2.7,1.4,5.9,3.7,7,6.4c0.1,0.4,0.2,0.8,0.2,1.2c0,0.5,0.1,1,0.1,1.5c0,0.5,0,0.9,0,1.4      c0,0.5,0.1,0.9,0.2,1.4c0.1,0.5,0.3,1.1,0.5,1.6c-0.2-1.6-0.3-3.1-0.4-4.8c0-0.5,0-0.9-0.1-1.3c0-0.3,0-0.5,0-0.8      c0.8,1.4,1.4,2.9,1.9,4.5c0.1,0.2,0.2,0.5,0.3,0.7c-0.2-1.2-0.5-2.4-0.9-3.5c-0.4-0.9-0.9-1.7-1.4-2.6c-0.2-0.7-0.5-1.2-1-1.9      c-0.1-0.1-0.2-0.2-0.3-0.3C126,159.6,129.3,162.6,130.2,166.9z" />
				<path class="st27"
					d="M108.2,135.6c0.1-0.4,0.4-0.5,0.7-0.5c0.3,0,0.6,0.2,0.8,0.3c0.1,0.1,0.2,0.3,0.3,0.4c0,0.4,0,0.7-0.1,1.1      c-0.1,0-0.2,0.1-0.3,0.1c-0.3,0-0.7,0-1,0c-0.2,0-0.4-0.1-0.5-0.2c0-0.3,0-0.7-0.1-1C108.2,135.8,108.2,135.7,108.2,135.6z" />
				<path class="st27"
					d="M108.8,140.5c0.4,0.1,0.8,0,1.2-0.2c0,0.3,0,0.5,0,0.8c-0.3,0.2-0.5,0.3-1,0.3c-0.3,0-0.6-0.1-0.7-0.4      c0-0.3,0-0.5,0-0.8C108.4,140.3,108.5,140.4,108.8,140.5z" />
				<path class="st27"
					d="M108.3,138.8c0.2,0.2,0.5,0.2,0.8,0.3c0.1,0,0.5,0,0.8-0.2c0,0.4,0,0.7,0,1.1c0,0,0,0,0,0      c-0.2,0.2-0.5,0.2-0.8,0.2c-0.4,0-0.7-0.1-0.8-0.4C108.3,139.5,108.3,139.1,108.3,138.8z" />
				<path class="st27"
					d="M109.9,138.6c-0.3,0.2-0.8,0.2-1.2,0.1c-0.3-0.1-0.4-0.3-0.5-0.5c0-0.3,0-0.7,0-1c0.1,0,0.1,0.1,0.2,0.1      c0.2,0.1,1.1,0.2,1.5,0C109.9,137.7,109.9,138.2,109.9,138.6z" />
				<path class="st27"
					d="M108.2,141.3c0.1,0.2,0.3,0.3,0.6,0.3c0.4,0.1,0.8,0,1.2-0.3c0,0.3,0,0.6,0.1,0.8c-0.3,0.3-0.6,0.4-1,0.4      c-0.3,0-0.7-0.1-0.9-0.4C108.2,141.9,108.2,141.6,108.2,141.3z" />
				<path class="st27"
					d="M108.1,142.5c0.3,0.6,1.5,0.5,2,0c0,0.3,0.1,0.7,0.2,1c0,0,0,0,0,0c-0.3,0.8-2,0.8-2.3-0.1      C108,143.1,108.1,142.8,108.1,142.5z" />
				<path class="st27"
					d="M107.9,143.7c0.1,0.5,0.7,0.6,1.2,0.6c0.4,0,1-0.2,1.2-0.6c0.1,0.5,0.2,0.9,0.4,1.3c0,0,0,0-0.1,0      c-0.3,0.3-1,0.4-1.4,0.4c-0.5,0-1.3,0-1.7-0.5C107.7,144.6,107.8,144.2,107.9,143.7z" />
				<path class="st27"
					d="M107.5,145.2c0.3,0.6,1.2,0.6,1.8,0.6c0.3,0,1.2-0.2,1.4-0.5c0.1,0.2,0.2,0.5,0.3,0.7      c-0.5,0.6-1.2,0.9-2,0.9c0,0,0,0,0,0c0,0,0,0,0,0c0,0,0,0,0,0c-0.6,0-1.4-0.4-1.8-1C107.3,145.7,107.4,145.4,107.5,145.2z" />
				<path class="st27"
					d="M108.8,147.3c-0.2,0.3-0.3,0.7-0.5,1c-2.2,4-7.3,5.9-9,10.4c-0.8,2.2-1.3,4.7-1,7.1      c-0.7-3.2-0.5-6.4,1.1-9.2c0.9-1.2,1.7-2.2,2.9-3.2c0.1-0.1,0.1-0.1,0.2-0.2c0,0,0-0.1,0.1-0.1c0.1-0.1,0.2-0.3,0.3-0.4      c0,0,0,0,0,0c-1.6,0.6-3.2,1.8-4.5,2.8c-1.4,1-3,2.5-3.5,4.2c0,0,0,0.1,0,0.1c0-0.3,0.1-0.8,0.2-1.1c0.6-1.8,1.3-1.8,2.1-2.8      c0.1,0,1.9-1.8,3.2-2.8c0.2-0.2,0.3-0.4,0.5-0.6c0,0,0.1,0,0.1-0.1c-0.2,0-0.3,0-0.5,0c-2.2,0.3-4.6,0.3-6.8,1.1      c1-0.4,2.1-0.7,3.3-1c1.2-0.3,2.4-0.4,3.6-0.7c0,0,0.1,0,0.1,0c0.3-0.1,0.7-0.2,1-0.3c0,0,0,0-0.1,0.1c0.3-0.1,0.6-0.2,0.9-0.3      c1.4-1.1,2.9-2.2,3.9-3.7c0.3-0.5,0.6-1,0.8-1.5c0.1,0.7,1,1,1.7,1.1C108.8,147.2,108.8,147.3,108.8,147.3      C108.8,147.3,108.8,147.3,108.8,147.3z" />
				<path class="st27"
					d="M123.3,158.8c0.1,0.3,0.1,0.8,0.2,1.1c0,0,0-0.1,0-0.1c-0.5-1.8-2.1-3.2-3.5-4.2c-1.3-1-2.9-2.2-4.5-2.8      c0,0,0,0,0,0c0.1,0.1,0.2,0.3,0.3,0.4c0,0,0,0.1,0.1,0.1c0.1,0.1,0.2,0.1,0.2,0.2c1.1,1,2,2.1,2.9,3.2c1.6,2.8,1.8,6,1.1,9.2      c0.2-2.4-0.2-4.9-1-7.1c-1.8-4.5-6.9-6.4-9-10.4c-0.3-0.4-0.5-0.8-0.7-1.2c0.7,0,1.6-0.4,1.9-1c0.2,0.5,0.5,1,0.7,1.5      c1,1.5,2.5,2.6,3.9,3.7c0.3,0.1,0.6,0.2,0.9,0.3c0,0,0,0-0.1-0.1c0.3,0.1,0.7,0.2,1,0.3c0,0,0.1,0,0.1,0      c1.2,0.3,2.4,0.4,3.6,0.7c1.2,0.3,2.3,0.6,3.3,1c-2.1-0.7-4.5-0.8-6.8-1.1c-0.2,0-0.3,0-0.5,0c0,0,0.1,0,0.1,0.1      c0.2,0.2,0.3,0.4,0.5,0.6c1.3,1,3.1,2.8,3.2,2.8C122,157,122.7,157,123.3,158.8z" />
			</g>
			<path class="st27"
				d="M117.1,155.1c-2.4-2.6-5.2-4.4-7-7.5c0,0,0,0,0,0c1.2,2.4,2.9,4.3,5,6c2.8,2.3,4.2,5.1,5,8.6     c0,0.1,0.1,0,0.1,0C119.8,159.6,118.9,157.1,117.1,155.1z" />
			<path class="st27"
				d="M107.8,145.5c-1.3,2.9-3.3,4.8-6.1,6.2c0,0,0,0,0,0C104.8,150.7,106.8,148.6,107.8,145.5     C107.8,145.5,107.8,145.5,107.8,145.5z" />
			<path class="st27"
				d="M99.6,154.1c-0.7,0.5-1.3,0.8-2,1.3c-0.6,0.5-1.1,1.1-1.6,1.7c0,0,0,0.1,0,0c0.6-0.5,1.1-1.2,1.7-1.6     c0.3-0.2,0.5-0.5,0.8-0.7C98.9,154.7,99.3,154.4,99.6,154.1C99.6,154.1,99.6,154.1,99.6,154.1z" />
			<path class="st27"
				d="M99.8,156.3c-1.4,2.3-2,4.6-1.7,7.3c0,0,0.1,0,0.1,0C98.1,160.9,98.6,158.6,99.8,156.3     C99.8,156.3,99.8,156.2,99.8,156.3z" />
			<path class="st27"
				d="M108.6,136.5C108.6,136.5,108.6,136.5,108.6,136.5c-0.2,2.7-0.2,5.3-0.4,8c0,0,0.1,0,0.1,0     C108.8,141.7,108.8,139.3,108.6,136.5z" />
			<path class="st27"
				d="M118.4,154.1C118.4,154.1,118.3,154.1,118.4,154.1c1.3,1.2,2.6,2.3,3.8,3.6c0,0,0.1,0,0.1-0.1     C121.3,156.1,119.8,155.2,118.4,154.1z" />
			<path class="st27"
				d="M110.3,145.8c1.3,3,3.4,5.2,6.5,5.6c-0.3-0.1-0.6-0.2-1-0.3c-2.1-1.7-4.2-3.4-5-6c-0.9-2.9-0.8-6-0.7-9.1     l0,0c0,0,0-0.1,0-0.1c-0.1-0.2-0.2-0.5-0.2-0.7c0,0-0.1-0.1-0.2-0.2c-0.1-0.1-0.3-0.1-0.4-0.2     C109.2,138.5,108.8,142.3,110.3,145.8z" />
			<path class="st27"
				d="M109,145.9c-1.5,3.5-5,5.3-7.3,8.3c-2.6,3.4-4,7.6-3.1,11.6c-0.1-1.7,0-3.3,0.4-4.8c0,0.6,0.1,1.2,0.2,2     c0.3,1.3,1,2.5,1.3,3.8c0-0.5-0.1-1.1-0.3-1.6c-0.1-0.3-0.2-0.7-0.3-1c-0.6-1.3-1.2-2.9-0.8-4.2c0.2-0.6,0.4-1.2,0.7-1.7     c0.7-1.3,1.5-2.6,2.7-3.9c1.7-1.9,4.2-3.1,5.5-5.2c0-0.1,0.1-0.2,0.1-0.3c0.3-0.4,0.5-0.8,0.7-1.3     C109,147.1,109.1,146.5,109,145.9z" />
		</g>
	</g>
</svg>