<svg version="1.1" id="Layer_1" xmlns="http://www.w3.org/2000/svg" xmlns:xlink="http://www.w3.org/1999/xlink" x="0px" y="0px" viewBox="0 0 256.5 381" style="enable-background:new 0 0 256.5 381;" xml:space="preserve">
	<g transform="translate(14,-8)">
		<style type="text/css">
			.st12 {
				fill: #A82B42;
			}

			.st13 {
				fill: #F0A0A2;
			}

			.st14 {
				opacity: 0.7;
			}

			.st15 {
				opacity: 0.6;
				fill: #F0A0A2;
				enable-background: new;
			}
		</style>
		<g>
			<path class="st12"
				d="M126.5,204c-0.7-1-0.2-2.1,0-3.2c0.2-1.2-0.2-2.1-1.6-2.8c-1.5-0.7-3.5,0.3-4.7,1.3        c-1.5,1.2-2.2,2.2-2.4,4c-0.4-0.8-1.1-1.4-2.2-1.6c-0.5-0.1-1-0.1-1.5-0.1c-0.8-1.8-3.2-2-4.9-1.9c-1.1,0.1-2.2,0.8-3.2,1.3        c-2.3,1.2-5,0.5-7.1-0.6c-2-1.1-3.7-1.8-6-1.3c-0.8,0.2-1.6,0.5-2.2,1.1c-0.6,0.6-1.3,1.7-1,2.6c0,0,0,0.1,0,0.2        c0,0-0.1,0.1-0.1,0.2c-0.4,0.6-0.7,1.4-0.8,2.2c-0.1,0.9,0,1.7,0.3,2.5c0.3,0.5,0.8,0.9,1.3,1.1c0,0,0,0.1-0.1,0.2        c-0.7,0.7-1.1,1.8-1.3,2.8c-0.5,1.6-0.6,3.3,1.1,4.1c0.6,0.3,1.6,0.3,2.1,0.8c0,0,0,0,0,0c0,0,0.1,0.1,0.1,0.2        c0,0.1,0,0.1,0.1,0.2c0,0.1,0,0.2,0,0.3c0,0.3-0.1,0.5-0.1,0.8c-0.1,0.2-0.2,0.4-0.3,0.6c-0.1,0.2-0.1,0.4-0.1,0.6        c0,0.2-0.1,0.4-0.1,0.6c0,1.1,0.8,2.8,1.9,3.2c1.6,0.7,3.2,0.5,4.8,0.1c2.9-0.6,5-1,7.7,0.5c2.7,1.6,5.7,1.1,8.2-0.4        c0.6,0.6,2,0.5,2.7,0.2c0.7-0.3,2.1-0.7,2.7-1.4c0.3,0,0.6,0,1-0.2c1.3-0.4,3-1.9,3.3-3.5c0.1-0.2,0.1-0.4,0.1-0.5        c0-0.2,0-0.3-0.1-0.5c1-0.8,1.9-2.1,2.4-2.9c1.2-1.9,1.7-4.1,1.7-6.4C128.3,207,127.5,205.5,126.5,204z" />
			<g>
				<path class="st13"
					d="M126.8,215c-0.1,0.1-0.1,0.2-0.2,0.3c-0.8,1.6-2,3.1-3.7,3.1c-1.9,0.1-2-1.8-1.7-3.3c0,0,0-0.1,0-0.1         c0.1-1.5,0.6-3,0.7-4.5c0-0.3,0-0.7,0-1c0-0.3,0-0.6-0.1-1c0,0,0,0,0,0c-0.3-2.1-1.4-4.2,0.3-6c0,0,0,0,0,0         c-0.4,0.3-0.7,0.8-1,1.2c-0.2-0.3-0.3-0.5-0.3-0.8c0-0.5,0.3-1,0.6-1.3c0,0,0,0,0,0c-0.4,0.3-0.7,0.8-0.8,1.3         c-0.1,0.4-0.1,1,0.4,1.1c-0.1,0.3-0.2,0.5-0.2,0.8c-0.1,0.5,0,1,0.1,1.5c0,0.3,0,0.6,0.2,1c0.2,0.7,0.4,1.3,0.5,2         c0,0,0,0.1,0,0.1c0,0.1,0,0.2,0,0.2c0,0.1,0,0.2,0,0.3c0,0.1,0,0.2,0,0.2c0,0,0,0.1,0,0.2c0,0.3,0,0.7-0.1,1c0,0,0,0,0,0         c0,0.2,0,0.4-0.1,0.5c-0.3,1.3-0.6,2.6-0.8,3.9c-0.3,1.7,0.3,3,2.1,3c0.6,0,1.2-0.2,1.7-0.6c0,0,0,0.1,0,0.1c0,0,0,0.1,0,0.1         c-0.1,1.5-2,3.2-3.3,3.6c-2.8,0.8-3.4-2.3-3.1-4.2c0.2-1.5,1.2-3.3-0.5-4.3c-1.3-0.7-2.6-0.8-3.8-0.3         c0.2-0.1,0.3-0.2,0.5-0.3c0.3-0.2,0.7-0.3,1.1-0.5c0.4-0.2,0.8-0.1,1.3-0.2c0,0,0,0,0,0c-0.8,0-1.3,0.1-2.1,0.4         c-0.7,0.2-1.2,0.7-1.8,1.1c0,0-0.1,0.1-0.2,0.1c-1,0.7-1.8,1.6-2.7,2.3c-0.2,0.2-0.5,0.3-0.7,0.5c-1.1,0.4-2,0.3-3.2-0.3         c-0.1,0-0.2-0.1-0.3-0.2c-0.3-0.2-0.6-0.3-0.8-0.6c-0.4-0.3-0.8-0.8-0.8-1.4c0,0,0,0,0,0c-0.2,0.6,0.1,1,0.5,1.4         c-0.3-0.1-0.6-0.2-1-0.2c0,0,0,0,0,0c0.1,0,0.2,0,0.3,0.1c0.1,0,0.2,0,0.2,0.1c1,0.4,1.8,1.2,3,1.6c0.1,0,0.2,0,0.2,0         c-0.9,0.1-1.8,0-2.7-0.5c0.6,0.5,1.5,0.8,2.2,0.8c0.1,0,0.2,0,0.3,0c1-0.1,2-0.6,2.8-1.1c2.1-1.5,3.4-3.7,6.4-2.9         c2.8,0.7,1.4,3.7,1.2,5.6c0,0.3,0,0.5,0,0.8c-0.9-1.6-2.5-1.8-4.2-1.8c-2.8,0-5.3,4.2-8,3c-1.2-0.5-2.2-1.6-3.3-2.2         c-0.8-0.4-1.7-0.6-2.6-0.7c-0.2,0-0.4-0.1-0.6-0.1c-0.5,0-1,0.1-1.6,0.2c-0.1,0-0.2,0.1-0.3,0.1c-0.3,0-0.5,0.1-0.8,0.1         c-0.8,0.1-1.1-0.8-0.9-1.5c0,0,0,0,0,0c-0.2,0.6-0.2,1.3,0.4,1.6c0.2,0.1,0.3,0.1,0.5,0.1c0,0,0,0,0.1,0         c-0.6,0.4-1.3,1.1-1.4,1.8c0.1-0.1,0.1-0.2,0.2-0.2c0.2-0.4,0.6-0.9,0.7-1c0.4-0.4,0.9-0.6,1.5-0.8c0.1,0,0.2,0,0.2-0.1         c0.1,0,0.1,0,0.2,0c1.6-0.2,3.5,0.3,4.8,1c1.5,0.8,2.6,2.2,4.4,2.2c0.7,0,1.4-0.5,2-1c1.3-0.6,2.5-0.8,3.9-0.6         c0.3,0.1,0.6,0.2,0.8,0.3c0.6,0.3,1.5,0.7,1.7,1.4c0,0,0,0,0,0c-0.1-0.5-0.4-0.9-0.8-1.1c0.3,0,0.7-0.2,0.8-0.5c0,0,0,0,0,0         c-0.2,0.3-0.7,0.4-1,0.4c0,0,0,0,0,0c-0.4-0.2-1-0.4-1.4-0.5c-1.2-0.3-2.3-0.2-3.5,0.3c0.5-0.4,1-0.8,1.4-1.1         c2.3-1.2,5-1,6.8,1c0.2,1.3,1,2.5,2.2,2.7c-0.5,0.3-1,0.6-1.5,0.9c-0.9,0.4-2.3,1-3.3,0.3c0.6-0.3,1.1-0.7,1.6-1.1         c-0.2,0.1-0.5,0.2-0.7,0.2c-1.2,0.8-2.4,1.5-3.8,1.8c-2.3,0.6-4.4-0.3-6.2-1.4c-2.6-1.6-6.1,0.1-8.8,0.4         c-2.5,0.3-4.3-1.2-4.5-3.3l0,0c-0.1-0.9,0.3-1.5,0.5-2.3c0-0.2,0-0.4,0-0.6c0-0.3,0-0.5-0.3-0.7c-0.3-0.2-0.6-0.4-0.8-0.5         c-0.9-0.2-1.9-0.4-2.4-1.3c-0.8-1.3,0-2.9,0.6-4.2c0.1-0.3,0.3-0.7,0.4-1c0.2-0.2,0.3-0.5,0.5-0.7c0.2,0,0.4,0,0.6,0         c0.7-0.1,1.3-0.2,1.9-0.5c0.3-0.1,0.7-0.2,0.9-0.2c1.7,1-0.8,2.9-0.1,4.1c0.9,1.6,3.9,1,3.4,3.4c0,0.1,0.1,0,0.1,0         c0.2-0.5,0.1-0.9,0-1.2c0.3,0.2,0.5,0.3,0.7,0.5c0.2,0.2,0.5,1,0.1,1.2c0,0,0,0,0,0c0.3-0.1,0.3-0.7,0.2-0.9         c-0.1-0.6-0.7-1-1.2-1c-0.3-0.4-0.8-0.7-1.4-0.8c-3.8-0.7,0.6-4.2-1.8-5.2c1.5-0.1,2.1,1,3.2,2c2.5,2,5.9,2.9,9,2         c1-0.3,2.3-0.7,2.8-1.7c0.1-0.2,0.2-0.3,0.3-0.5c0.3-0.2,0.7-0.4,1-0.6c1.3-0.6,2.2-0.2,3.2,0.4c0,0,0,0,0,0         c-0.8-0.6-1.6-1.3-2.7-0.9c-0.5,0.2-0.9,0.4-1.4,0.6c0.3-0.7,0.7-1.3,1.2-1.8c0.8-0.7,2-0.8,3-1.3c-0.1,0-0.2,0-0.3,0         c-0.8,0.4-1.7,0.5-2.5,0.8c-0.2,0.1-0.4,0.3-0.5,0.4c0,0-0.1,0.1-0.1,0.1c-0.2,0.1-0.3,0.3-0.4,0.5c-0.4,0.5-0.7,1.1-1,1.7         c-0.3,0.5-0.8,0.9-1.3,1.2c-0.4,0.3-0.8,0.5-1.3,0.7c-1.6,0.4-3.9,0.7-5.4-0.3c-0.4-0.1-0.8-0.2-1.1-0.4         c-1.5-0.5-2.7-1.5-3.9-2.6c-0.5-0.5-1-0.7-1.8-0.8c-1.1-0.1-2.4,0.8-3.6,0.8c-1.6,0-2.1-1.9-2.1-3.1c0,0,0,0,0,0         c0.1-0.6,0.3-1.3,0.5-1.8c0-0.1,0.1-0.2,0.1-0.2c0.1-0.2,0.2-0.4,0.4-0.6c0.2-0.3,0.5-0.6,0.7-0.9c0.1-0.2,0.2-0.3,0.3-0.5         c-0.1,0.1-0.3,0.2-0.4,0.3c-0.3,0.3-0.6,0.7-0.9,1.1c0-0.7,0.1-1.2,0.4-1.7c0.6-1,1.7-1.6,2.8-1.9c1.5-0.3,3.1,0,4.4,0.5         c0.9,0.3,1.7,1,2.5,1.5c0.8,0.4,1.8,0.5,2.7,0.6c1.7,0.1,3.2-0.5,4.6-1.2c1.8-1,5.4-1.1,6.6,1.1c-1,0.2-2,0.6-2.8,1.3         c-0.8,0.1-1.4,0.3-2,0.7c0.3-0.3,0.4-0.7,0.5-1c0.3-0.3,0.6-0.6,1-0.7c0,0,0,0,0,0c-0.3,0.1-0.7,0.2-1,0.5         c0-0.4,0-0.8-0.2-1.4c0,0,0,0,0,0c0.2,1.3-0.1,2.3-0.8,3.2c0,0,0,0,0,0c-0.1,0.1-0.2,0.2-0.4,0.4c-2,1.7-5.7,2.1-7.9,1.8         c-1.8-0.2-3.5-1-5.2-1.6c-0.3-0.1-0.6-0.2-0.9-0.2c-0.2-0.1-0.4-0.2-0.5-0.4c-0.2-0.3,0-0.7,0-1c0,0,0,0,0,0         c-0.1,0.3-0.3,0.6-0.2,1c0.1,0.2,0.2,0.3,0.3,0.5c-0.3,0.1-0.7,0.2-1,0.5c0,0,0,0.2,0,0.1c1.6-0.9,5,1,6.7,1.3         c1.1,0.2,2.2,0.3,3.3,0.2c0.5,0,0.9,0.1,1.4,0.2c0.2,0,0.5,0.1,0.7,0.3c0.2,0.1,0.2,0.3,0.3,0.4c0,0,0,0,0,0         c-0.2-0.5-0.4-0.6-0.9-0.8c-0.2,0-0.3-0.1-0.4-0.1c0.4-0.1,0.8-0.2,1.2-0.3c0.9-0.2,1.9-0.7,2.8-1.3c-0.3,0.4-0.5,1-0.4,1.4         c0,0,0,0,0,0c-0.1-0.8,0.9-1.8,1.4-2.3c0.6-0.5,1.3-0.8,2.1-1c-1.4,1.1-2.5,2.7-3.1,4.1c-0.2,0.4-0.4,0.8-0.7,1.2         c-0.8,1.2-2.4,2.6-4,1.8c0,0,0,0,0,0c0.6,0.5,1.5,0.4,2.2,0.2c-0.2,0.3-0.3,0.7-0.1,1c0,0,0,0,0,0c0-0.5,0.3-0.8,0.6-1.2         c0.1-0.1,0.3-0.2,0.4-0.3c1.1-0.8,1.3-2,1.8-3.1c0,0,0,0,0,0c0-0.1,0.1-0.2,0.1-0.2c0.2-0.3,0.4-0.6,0.6-0.8         c0,0.1-0.1,0.2-0.1,0.3c-0.1,0.5,0,1.2,0.3,1.6c0,0,0,0,0,0c-0.3-0.4-0.2-1-0.2-1.4c0-0.4,0.2-0.8,0.4-1.1         c0.2-0.2,0.4-0.4,0.6-0.6c1.1-1.3,2.6-2.3,4.2-2.3c1.3,0,2.5,0.3,3.2,1.4c0.3,0.5,0.5,1.1,0.5,1.9c0,0.6-0.5,1.5-0.9,2.4         c-0.2,0.4-0.3,0.8-0.5,1.2c0.1,0.7,0.3,1.3,1,1.6c-0.4-0.4-0.7-0.7-0.7-1.6c0-0.3,0.1-0.6,0.2-0.9c0,0.2,0,0.3,0.2,0.5         c0.2,0.2,0.5,0.4,0.7,0.6c0.2,0.2,0.3,0.4,0.4,0.6c0-0.2,0-0.3,0-0.5c-0.1-0.2-0.2-0.3-0.3-0.5c-0.1-0.2-0.3-0.3-0.5-0.4         c-0.3-0.2-0.3-0.6-0.2-0.9c0.2-0.4,0.5-0.9,0.7-1.2c0.1-0.1,0.1-0.3,0.2-0.4c0,0,0-0.1,0-0.2c0.1-0.7,0-1.4-0.2-2.1         c0,0,0-0.1,0-0.1c0-0.1,0-0.1-0.1-0.2c0.6-2.2,1.8-3.7,3.8-4.7c0.9-0.5,1.9-0.6,2.9-0.3c1.7,0.5,1.5,2,1.2,3.2         c-0.9,1.3-1.7,2.5-1.8,4.1c-0.1,1.4,1.2,3.3,1.6,5c0,0.3,0,0.6,0.1,0.9c-0.1,0.7-0.6,2-1.5,2.1c0,0,0,0,0,0         c0.1,0,0.2,0,0.3,0c0,0,0,0,0,0c0,0,0.1,0,0.1-0.1c0.4-0.2,0.8-0.7,0.9-1c0.1-0.2,0.1-0.4,0.2-0.6c0,0.1,0,0.3,0.1,0.4         c0,0.2,0.3,0.9,0.6,0.9c0,0,0,0,0,0c-0.4-0.2-0.4-1-0.5-1.3c0-0.3-0.1-0.6-0.1-0.8c0-0.3,0-0.5-0.1-0.8c0,0,0,0,0-0.1         c-0.4-1.2-1.1-2.3-1.3-3.5c-0.2-0.8,0-1.5,0.2-2.2c0.2-0.9,0.6-1.7,1.1-2.5c-0.1,0.7,0.3,1.4,0.7,2c1,1.6,1.9,2.6,2.1,4.6         C128.6,211,127.9,213.1,126.8,215z" />
			</g>
			<g class="st14">
				<path class="st13"
					d="M117.7,219.9c-1.8-2-4.4-2.2-6.8-1c-0.4,0.2-0.9,0.6-1.4,1.1c1.1-0.5,2.3-0.7,3.5-0.3         c0.5,0.1,1,0.3,1.4,0.5c0,0,0,0,0,0c0.3,0,0.8-0.1,1-0.4c0,0,0,0,0,0c-0.1,0.3-0.5,0.5-0.8,0.5c0.4,0.3,0.7,0.6,0.8,1.1         c0,0,0,0,0,0c-0.3-0.7-1.1-1.1-1.7-1.4c-0.3-0.1-0.5-0.2-0.8-0.3c-1-0.2-2,0-3,0.3c1.5-0.1,3.7,0.3,2.4,2         c-1.4,1.7-4.4,1-6.1,0.5c-2.2-0.7-4-1.2-6.3-0.7c-1.4,0.3-2.7,0.6-4,0c-1.6-0.7,0.3-2.7,1.2-3.3l0,0c0,0,0,0,0,0         c0,0,0.1,0,0.1-0.1c-0.5,0.2-1,0.4-1.4,0.8c-0.1,0.1-0.5,0.5-0.7,1c-0.1,0.1-0.2,0.2-0.2,0.2c0.1-0.7,0.8-1.5,1.4-1.8         c0,0,0,0-0.1,0c-0.2,0-0.3,0-0.5-0.1c-0.6-0.3-0.6-1-0.4-1.6c-0.1-0.2-0.1-0.4-0.2-0.6c-0.5,0.6-1.2,1-1.9,0.5         c-0.4-0.3-0.7-0.8-0.8-1.3c-0.3-0.7-0.2-1.6-0.3-2.2c-0.2-0.7-0.3-1.3-0.3-1.8c0,0,0-0.1,0-0.1c0-0.7,0.3-1.3,1-1.9         c0.1-0.1,0.2-0.1,0.3-0.1c0.3-0.2,0.5-0.4,0.8-0.3c0.6,0.1,0.9,0.5,0.7,1.1c-0.3,0.8-0.8,1.8-0.4,2.7c0.2,0.5,0.7,0.8,1.1,1         c0.5,0.1,1.2,0.1,1.6,0.5c0.5,0.4,0.9,1,1,1.6c0.3-2.3-2.6-1.7-3.5-3.3c-0.7-1.2,1.8-3.1,0.1-4.1c-0.3,0-0.6,0.1-0.9,0.2         c-0.6,0.2-1.2,0.4-1.9,0.5c-0.2,0-0.4,0-0.6,0c-0.2,0.2-0.4,0.4-0.5,0.7c-0.1,0.3-0.3,0.7-0.4,1c-0.7,1.3-1.4,2.9-0.6,4.2         c0.6,0.9,1.5,1.1,2.4,1.3c0.3,0.1,0.5,0.3,0.8,0.5c0.2,0.2,0.3,0.4,0.3,0.7c0.1,0.2,0.1,0.4,0,0.6c-0.2,0.8-0.6,1.4-0.5,2.3         c0,0,0,0,0,0c0.2,2.1,2,3.6,4.5,3.3c2.7-0.3,6.2-2,8.8-0.4c1.9,1.1,4,2,6.2,1.4c1.4-0.4,2.7-1,3.8-1.8         c0.2-0.1,0.5-0.2,0.7-0.2c-0.5,0.4-1,0.8-1.6,1.1c0.9,0.7,2.4,0.1,3.3-0.3c0.5-0.2,1.1-0.5,1.5-0.9         C118.7,222.4,117.9,221.2,117.7,219.9z M116.4,221.7c-0.2-0.2-0.4-0.5-0.4-0.9c0.1-0.4,0.5-0.6,0.9-0.5c0.1,0,0.1,0,0.1,0.1         c0.2,0,0.4,0.1,0.5,0.3C117.9,221.3,117,222.2,116.4,221.7z" />
				<path class="st13"
					d="M128.4,208.8c-0.2-1.9-1.1-3-2.1-4.6c-0.3-0.5-0.8-1.3-0.7-2c-0.5,0.8-0.9,1.6-1.1,2.5         c-0.2,0.7-0.3,1.4-0.2,2.2c0.2,1.2,0.9,2.3,1.3,3.5c0,0,0,0,0,0.1c0.1,0.3,0.1,0.5,0.1,0.8c0,0.3,0.1,0.6,0.1,0.8         c0,0.3,0.1,1.1,0.5,1.3c0,0,0,0,0,0c-0.3,0-0.5-0.7-0.6-0.9c0-0.1-0.1-0.2-0.1-0.4c0,0.2-0.1,0.4-0.2,0.6         c-0.1,0.3-0.5,0.8-0.9,1c0,0-0.1,0.1-0.1,0.1c0,0,0,0,0,0c-0.1,0-0.2,0-0.3,0c0,0,0,0,0,0c0.8-0.1,1.3-1.3,1.5-2.1         c0-0.3-0.1-0.6-0.1-0.9c-0.4-1.7-1.7-3.6-1.6-5c0.1-1.6,0.9-2.8,1.8-4.1c0.3-1.2,0.5-2.7-1.2-3.2c-1-0.3-2-0.2-2.9,0.3         c-2,1-3.3,2.5-3.8,4.7c0,0.1,0,0.1,0.1,0.2c0,0,0,0.1,0,0.1c0.2,0.7,0.3,1.4,0.2,2.1c0,0,0,0.1,0,0.2         c-0.1,0.1-0.1,0.3-0.2,0.4c-0.2,0.4-0.5,0.8-0.7,1.2c-0.1,0.3-0.1,0.7,0.2,0.9c0.2,0.1,0.3,0.2,0.5,0.4         c0.1,0.2,0.2,0.3,0.3,0.5c0,0.2,0,0.3,0,0.5c-0.1-0.2-0.2-0.5-0.4-0.6c-0.2-0.2-0.5-0.4-0.7-0.6c-0.1-0.1-0.2-0.3-0.2-0.5         c-0.1,0.3-0.2,0.6-0.2,0.9c0,0.9,0.3,1.1,0.7,1.6c-0.6-0.3-0.9-1-1-1.6c0.1-0.4,0.3-0.8,0.5-1.2c0.4-0.9,0.9-1.8,0.9-2.4         c0-0.8-0.2-1.4-0.5-1.9c-0.6-1-1.9-1.4-3.2-1.4c-1.7,0-3.2,1.1-4.2,2.3c-0.2,0.2-0.4,0.4-0.6,0.6c-0.2,0.3-0.4,0.6-0.4,1.1         c0,0.5,0,1,0.2,1.4c0,0,0,0,0,0c-0.3-0.4-0.4-1.1-0.3-1.6c0-0.1,0-0.2,0.1-0.3c-0.2,0.3-0.4,0.6-0.6,0.8         c0,0.1-0.1,0.2-0.1,0.2c0,0,0,0,0,0c-0.5,1.1-0.7,2.3-1.8,3.1c-0.1,0.1-0.3,0.2-0.4,0.3c-0.3,0.4-0.6,0.7-0.6,1.2         c0,0,0,0,0,0c-0.1-0.3,0-0.7,0.1-1c-0.7,0.3-1.6,0.3-2.2-0.2c0,0,0,0,0,0c1.6,0.8,3.1-0.6,4-1.8c0.3-0.4,0.5-0.8,0.7-1.2         c0.6-1.4,1.7-3,3.1-4.1c-0.8,0.2-1.5,0.4-2.1,1c-0.5,0.5-1.6,1.5-1.4,2.3c0,0,0,0,0,0c-0.2-0.4,0.1-0.9,0.4-1.4         c-0.8,0.6-1.8,1.1-2.8,1.3c-0.4,0.1-0.8,0.2-1.2,0.3c0.2,0,0.3,0.1,0.4,0.1c0.5,0.2,0.7,0.3,0.9,0.8c0,0,0,0,0,0         c-0.1-0.1-0.2-0.3-0.3-0.4c-0.2-0.1-0.4-0.2-0.7-0.3c-0.5-0.1-0.9-0.2-1.4-0.2c-1.1,0.1-2.2,0.1-3.3-0.2         c-1.7-0.3-5.1-2.2-6.7-1.3c-0.1,0-0.1-0.1,0-0.1c0.3-0.2,0.7-0.4,1-0.5c-0.2-0.1-0.3-0.2-0.3-0.5c-0.1-0.4,0-0.6,0.2-1         c0,0,0,0,0,0c0,0.3-0.3,0.7,0,1c0.2,0.2,0.3,0.3,0.5,0.4c0.3,0,0.6,0,0.9,0.2c1.7,0.6,3.4,1.4,5.2,1.6c2.2,0.3,6-0.1,7.9-1.8         c0.1-0.2,0.3-0.3,0.4-0.4c0,0,0,0,0,0c0.7-0.8,1.1-1.8,0.8-3.2c0,0,0,0,0,0c0.1,0.6,0.2,1,0.2,1.4c0.3-0.3,0.7-0.4,1-0.5         c0,0,0,0,0,0c-0.4,0.1-0.8,0.4-1,0.7c-0.1,0.4-0.2,0.7-0.5,1c0.6-0.4,1.2-0.6,2-0.7c0.9-0.7,1.8-1.2,2.8-1.3         c-1.2-2.1-4.8-2-6.6-1.1c-1.4,0.8-2.9,1.3-4.6,1.2c-0.9-0.1-1.8-0.2-2.7-0.6c-0.8-0.4-1.7-1.1-2.5-1.5         c-1.2-0.5-2.9-0.7-4.4-0.5c-1.1,0.3-2.2,1-2.8,1.9c-0.2,0.5-0.4,1-0.4,1.7c0.3-0.4,0.6-0.7,0.9-1.1c0.1-0.1,0.2-0.2,0.4-0.3         c-0.1,0.2-0.2,0.3-0.3,0.5c-0.2,0.3-0.5,0.6-0.7,0.9c-0.2,0.2-0.3,0.4-0.4,0.6c0,0.1-0.1,0.2-0.1,0.2         c-0.3,0.6-0.5,1.2-0.5,1.8c0,0,0,0,0,0c0,1.2,0.5,3.1,2.1,3.1c1.2,0,2.4-0.9,3.6-0.8c0.7,0.1,1.2,0.2,1.8,0.8         c1.1,1.1,2.3,2.1,3.9,2.6c0.4,0.1,0.8,0.2,1.1,0.4c1.5,1,3.8,0.7,5.4,0.3c0.5-0.1,0.9-0.4,1.3-0.7c0.5-0.3,1-0.7,1.3-1.2         c0.4-0.5,0.6-1.2,1-1.7c0.1-0.2,0.3-0.3,0.4-0.5c0,0,0.1-0.1,0.1-0.1c0.2-0.1,0.3-0.3,0.5-0.4c0.8-0.3,1.6-0.5,2.5-0.8         c0.1,0,0.2,0,0.3,0c-0.9,0.5-2.2,0.7-3,1.3c-0.5,0.5-0.9,1.2-1.2,1.8c0.5-0.2,0.9-0.5,1.4-0.6c1.1-0.4,1.9,0.2,2.7,0.9         c0,0,0,0,0,0c-1.1-0.7-2-1-3.2-0.4c-0.3,0.2-0.7,0.3-1,0.6c-0.1,0.2-0.2,0.4-0.3,0.5c-0.6,0.9-1.8,1.4-2.8,1.7         c-3.1,0.8-6.5,0-9-2c-1.2-0.9-1.8-2.1-3.2-2c2.4,1-2,4.5,1.8,5.2c0.6,0.1,1.1,0.4,1.4,0.8c0.5,0.1,1.1,0.5,1.2,1         c0,0.2,0.1,0.8-0.2,0.9c0,0,0,0,0,0c0.3-0.2,0.1-0.9-0.1-1.2c-0.2-0.3-0.5-0.4-0.7-0.5c0.2,0.4,0.2,0.8,0,1.2         c0,0-0.1,0.1-0.1,0.1c0,0.2,0,0.5-0.1,0.8c-0.2,0.7-1.2,1.3-1.8,0.9c-0.3-0.2-0.5-0.5-0.6-0.8c-0.1,0.6,0.2,1.4,0.9,1.3         c0.3,0,0.5-0.1,0.8-0.1c0.1,0,0.2-0.1,0.3-0.1c0.5-0.1,1-0.2,1.6-0.2c0.2,0,0.4,0.1,0.6,0.1c0.9,0,1.7,0.2,2.6,0.7         c1.2,0.6,2.2,1.6,3.3,2.2c2.7,1.2,5.2-3,8-3c1.7,0,3.3,0.2,4.2,1.8c0-0.3,0-0.5,0-0.8c0.2-1.9,1.6-4.9-1.2-5.6         c-3-0.8-4.3,1.4-6.4,2.9c-0.8,0.6-1.8,1-2.8,1.1c-0.1,0-0.2,0-0.3,0c-0.6,0-1.6-0.3-2.2-0.8c0.8,0.5,1.7,0.6,2.7,0.5         c-0.1,0-0.2,0-0.2,0c-1.1-0.3-1.9-1.2-3-1.6c0-0.1-0.1-0.1-0.2-0.1c-0.1,0-0.2-0.1-0.3-0.1c0,0,0,0,0,0c0.3,0,0.7,0.1,1,0.2         c-0.4-0.3-0.6-0.8-0.5-1.4c0,0,0,0,0,0c0,0.5,0.4,1,0.8,1.4c0.2,0.2,0.5,0.4,0.8,0.6c0.1,0,0.2,0.1,0.3,0.2         c1.1,0.7,2.1,0.8,3.2,0.3c0.3-0.1,0.5-0.3,0.7-0.5c1-0.7,1.7-1.6,2.7-2.3c0,0,0.1-0.1,0.2-0.1c0.5-0.5,1.1-0.9,1.8-1.1         c0.8-0.3,1.3-0.4,2.1-0.4c0,0,0,0,0,0c-0.4,0.1-0.8,0-1.3,0.2c-0.4,0.2-0.7,0.3-1.1,0.5c-0.2,0.1-0.4,0.2-0.5,0.3         c1.2-0.5,2.5-0.4,3.8,0.3c1.7,1,0.8,2.8,0.5,4.3c-0.3,1.9,0.3,5,3.1,4.2c1.3-0.4,3.2-2.1,3.3-3.6c0,0,0-0.1,0-0.1         c0,0,0-0.1,0-0.1c-0.5,0.4-1.1,0.6-1.7,0.6c-1.8,0-2.4-1.3-2.1-3c0.2-1.3,0.5-2.6,0.8-3.9c0-0.2,0.1-0.4,0.1-0.5c0,0,0,0,0,0         c0.1-0.4,0.1-0.7,0.1-1c0,0,0-0.1,0-0.2c0-0.1,0-0.2,0-0.2c0-0.1,0-0.2,0-0.3c0-0.1,0-0.2,0-0.2c0,0,0-0.1,0-0.1         c-0.1-0.6-0.3-1.2-0.5-2c-0.1-0.3-0.1-0.6-0.2-1c-0.1-0.5-0.2-1-0.1-1.5c0-0.3,0.1-0.5,0.2-0.8c-0.5-0.1-0.5-0.7-0.4-1.1         c0.1-0.5,0.4-0.9,0.8-1.3c0,0,0,0,0,0c-0.3,0.3-0.6,0.8-0.6,1.3c0,0.3,0.1,0.6,0.3,0.8c0.2-0.5,0.6-0.9,1-1.2c0,0,0,0,0,0         c-1.7,1.8-0.6,4-0.3,6c0,0,0,0,0,0c0.1,0.3,0.1,0.7,0.1,1c0,0.3,0,0.7,0,1c-0.2,1.5-0.6,3-0.7,4.5c0,0,0,0.1,0,0.1         c-0.3,1.5-0.2,3.4,1.7,3.3c1.7-0.1,2.9-1.6,3.7-3.1c0.1-0.1,0.1-0.2,0.2-0.3C127.9,213.1,128.6,211,128.4,208.8z M94.8,200.9         c1.9-0.4,3.5,2.4,5.4,2.7c2.3,0.3,4-1.1,6.2-1.1c1,0,1.4,1,0.7,1.7c-0.9,0.9-2.3,1.2-3.7,1.3c-1.7,0.4-3.5,0-5.2-0.3         c-1.3-0.2-2.8-0.5-3.7-1.4c-0.1-0.1-0.2-0.1-0.3-0.2C93.6,202.8,93.4,201.2,94.8,200.9z M101.8,209.9         c-0.5,0.1-1.1,0.2-1.6,0.1c-1,0-1.8-0.2-2.4-0.9l0,0c-0.7-0.5-1.2-1.3-2-1.7c-1.1-0.5-1.9,0.2-3-0.1c-0.2,0-0.2-0.2-0.1-0.4         c-0.1,0-0.2-0.1-0.1-0.2c0.1-1.3,1.6-1.3,2.6-1.2c1.1,0.2,2.3,0.4,3.2,1c1.2,0.5,2.2,0.7,3.5,0.5c0.5-0.1,1.1-0.2,1.6-0.1         c0.1,0,0.2,0,0.2,0c0,0,0,0,0,0c0.4,0.1,0.7,0.3,0.9,0.6c0.4,0.3,0.7,0.8,0.5,1.2c-0.3,0.7-0.8,1.1-1.6,1.1         C103,210,102.5,209.8,101.8,209.9z M104.1,211.3c-0.3,0.3-0.7,0.5-1.2,0.3c-0.1-0.1-0.1-0.2,0-0.3c0.2-0.3,0.3-0.4,0.7-0.5         c0.1,0,0.2,0,0.3,0c0.1,0,0.2,0,0.2,0C104.2,210.9,104.2,211.2,104.1,211.3z M108.5,210.5c-0.3,0.4-0.8,0.6-1.3,0.5         c-0.3-0.1-0.5-0.4-0.4-0.7c0.2-0.8,0.8-1.5,1.3-2c0.2-0.3,0.6-0.2,0.6,0.1c0.3,0.1,0.5,0.5,0.5,0.8         C109.1,209.7,108.8,210.1,108.5,210.5z M103.8,217.8c0.2-0.3,0.6-0.4,1-0.3c0.1,0,0.2,0,0.2,0c0,0,0.1,0.1,0.1,0.1         c0.5,0.2,1,0.4,1.3,0.4c0.1,0,0.2,0,0.2,0.1c0.3,0,0.6,0,1-0.1c1.3-0.4,2.4-1.2,3.5-2.2c0.3-0.2,0.5-0.5,0.8-0.7         c0.9-1.1,2.3-1.9,3.8-1.7c1.3,0.2,2.3,1.2,1.3,2.5c-0.2,0.2-0.4,0.4-0.7,0.5c-0.1,0.1-0.2,0.2-0.3,0.2c-0.2,0-0.5,0-0.7,0.1         c-0.2,0-0.3,0-0.4,0c-0.9,0.1-1.8,0.2-2.7,0.7c-0.8,0.5-1.4,1.1-2.1,1.6c-0.8,0.6-1.6,1.2-2.6,1.3c-0.4,0.1-0.8,0.2-1.2,0.1         c-0.8-0.1-1.7-0.5-2.1-1.3C103.9,218.8,103.5,218.2,103.8,217.8z M102.5,215.8c-0.8,1.6-2.7-0.7-3.3-1.3         c-0.8-0.8-1.7-0.9-2.6-1.6c-0.9-0.6-0.9-1.4-0.7-2.4v0c0.1-0.5,0.4-0.9,0.9-0.7c0.6,0.2,0.5,0.7,0.9,1.2c0.5,0.5,1,0.7,1.7,1         C100.7,212.5,103.6,213.7,102.5,215.8z M112.1,206.8c-0.7,0.2-1.2,0.7-1.9,0.9c-0.3,0.1-0.6-0.2-0.7-0.5         c-0.1-0.5,0-0.9,0.2-1.3c0.2-1.4,1.7-2.5,3.1-2.9c0.9-0.3,2-0.5,2.9,0c0.5,0.2,1.4,0.8,1.1,1.5         C116.2,206.3,113.6,206.5,112.1,206.8z M112.3,212.9c-0.8,0.5-1.6,1.5-2.5,2.1c-0.5,0.5-1.3,0.9-2.1,0.8         c-0.8-0.1-2.5-0.6-2.3-1.7c0.2-1.1,0.9-0.9,1.8-1c1.7-0.3,2.7-2,4.2-2.8c0.7-0.4,2.5-0.4,3.1,0.2         C115.7,211.7,112.8,212.5,112.3,212.9z M115.4,209c-0.4,0-0.8-0.1-1.2-0.2c-0.7-0.2-1.3-0.1-2-0.2c-0.2,0-0.2-0.3-0.1-0.5         c0.6-0.6,1.4-0.9,2.2-1c0.8-0.4,2.1-0.6,2.2,0.3C116.7,208.1,116,208.9,115.4,209z M120.7,207.2c0.3,1,0.5,2.1,0.4,3.2         c0,0,0,0,0,0c0,0,0.1,0.1,0.1,0.2c-0.2,3.3-2.7,6.1,0.5,8.7c0.9,0.7-0.6,1.3-1.1,1.4c-2.1,0.2-2.1-3.1-1.8-4.3         c0.3-1.1,0.5-2.2-0.2-3.3c-0.1-0.2-0.2-0.4-0.2-0.6c0-0.9,0.4-1.7,0.7-2.5v0c0-0.1,0-0.2,0-0.2c-0.4-0.7-1.3-1.5-1.1-2.5         c0.2-0.8,0.6-1.6,0.9-2.3c0-0.9-0.2-1.7,0.3-2.7c0.4-0.7,0.8-1.2,1.4-1.7c0.2-0.1,0.5,0,0.4,0.2         C120.1,203,120.1,205,120.7,207.2z M123.8,216.8c-0.9,1.1-2.1,0.4-2.4-0.8c-0.4-2.3,1.5-4.4,0.9-6.7         c-0.5-1.8-0.7-3.1-0.4-4.5c0.1-1.5,0.6-2.9,1.6-4c0.5-0.6,1.8-0.7,1.6,0.4c-0.2,1.1-1.1,1.7-1.5,2.6         c-0.9,2.1-0.1,3.4,0.8,5.2c0.7,1.3,1.2,3.5-0.5,4.3c-0.5,0.2-1.5,1.1-0.6,1.4c0.4,0.1,0.6,0.2,0.8,0.5         C124.4,215.6,124.1,216.4,123.8,216.8z M127.5,210c-0.1,0.2-0.3,0.3-0.5,0.2c-1.3-0.6-2-2.5-2-3.8c0-0.6,0.4-2.4,1.2-1.4         c0,0.1,0.1,0.1,0,0.2C127.4,206.1,128.2,208.8,127.5,210z" />
			</g>
		</g>
		<path class="st15"
			d="M119.7,209.5c0-0.4-0.4-0.8-0.5-1.2c-0.4-0.9-0.5-1.6-0.1-2.6c0,0,0,0,0,0c-0.8,1-0.9,1.7-0.4,2.9       c0.4,0.9,0.8,1.2,0.2,2.4c-0.1,0.1-0.1,0.2-0.1,0.4c0,0.5,0,0.9,0.2,1.4c0,0.1,0.2,0,0.2-0.1       C118.9,211.5,119.8,210.6,119.7,209.5z" />
		<path class="st15"
			d="M123.4,208.2C123.4,208.2,123.3,208.2,123.4,208.2c0.6,1.4,0.9,3.1,0,4.4c0,0.1,0,0.1,0.1,0.1       c0.7-0.6,0.9-1.4,1-2.3C124.5,209.6,123.9,208.8,123.4,208.2z" />
		<path class="st15"
			d="M115.6,214c-2.6-0.7-3.7,2.3-5.5,3.5c0,0,0,0,0,0c2-1,3-3.3,5.5-3.4C115.6,214.1,115.7,214,115.6,214z" />
		<path class="st15"
			d="M107.1,218.3c-0.6-0.1-1.3,0.2-1.9-0.1c0,0,0,0,0,0c0.5,0.5,1.3,0.6,1.9,0.4       C107.2,218.6,107.2,218.3,107.1,218.3z" />
		<path class="st15"
			d="M102.3,219.7c-0.9-0.8-2.2-1.3-3.4-1c-1.4,0.2-1.8,0.9-2.8,1.8c0,0,0,0.1,0,0c0.8-0.4,1.4-0.9,2.3-1.1       c1.2-0.3,2.6,0.3,3.8,0.6C102.2,219.9,102.4,219.7,102.3,219.7z" />
		<path class="st15"
			d="M111.1,220.6c-0.3-0.3-0.8-0.2-1.2-0.1c-0.2,0.1-0.5,0.2-0.7,0.3c-0.2,0.1-0.5,0.4-0.7,0.5c0,0,0,0,0,0       c0.3-0.1,0.7-0.3,1-0.5c0.2-0.1,0.5-0.1,0.8-0.2c0.2,0,0.5,0.1,0.7,0.1C111.1,220.8,111.2,220.7,111.1,220.6z" />
		<path class="st15"
			d="M93.1,213.4c-0.2-1.2-1-1.8-0.3-3.1c0,0,0,0,0,0c-0.7,0.7-0.8,1.4-0.5,2.3c0.3,0.8,0.4,1.4,0.5,2.3       c0.1,0.5,0.3,1,0.7,1.3c0,0,0.1,0,0,0C92.8,215.4,93.3,214.4,93.1,213.4z" />
		<path class="st15"
			d="M100.3,214c-0.2-0.3-0.5-0.5-0.8-0.6c-1-0.5-2.1-0.4-2.8-1.5c0,0,0,0,0,0c0.3,0.8,1,1.4,1.8,1.5       c0.7,0.1,1.4,0.5,1.8,1.1c0.2,0.3,0.4,0.6,0.7,0.8c0,0,0.1-0.1,0.1-0.1C100.7,214.9,100.6,214.4,100.3,214z" />
		<path class="st15"
			d="M101.5,215.6c0,0-0.1,0-0.2-0.1c-0.1,0-0.2,0.2-0.1,0.2s0.1,0.1,0.2,0       C101.5,215.7,101.6,215.6,101.5,215.6z" />
		<path class="st15"
			d="M101,209.5c-0.6,0-1.1,0-1.7-0.2c-0.4-0.2-0.9-0.6-1.2-0.9c-0.6-0.6-1.1-1.2-2-1.3c0,0-0.1,0.1,0,0.1       c1.1,0.3,1.6,1.6,2.5,2.2c0.7,0.5,1.5,0.6,2.4,0.3C101,209.6,101.1,209.5,101,209.5z" />
		<path class="st15"
			d="M103.1,205c-2.5,0-5.5,0.1-7.6-1.3c0,0,0,0,0,0c1.8,1.7,5.3,1.9,7.6,1.5C103.2,205.2,103.3,205,103.1,205       z" />
		<path class="st15"
			d="M104.5,204.8c-0.2,0.1-0.5,0.2-0.7,0.3c0,0,0,0,0,0c0.3,0.1,0.5,0,0.7-0.1       C104.6,204.9,104.7,204.7,104.5,204.8z" />
		<path class="st15"
			d="M113.6,203.8c-0.8-0.3-1.9,0.4-2.5,0.9c-0.4,0.3-0.6,0.8-0.8,1.2c-0.1,0.3-0.3,0.5-0.2,0.8c0,0,0,0,0,0       c0-0.7,1-1.5,1.5-1.8c0.6-0.3,1.3-0.5,1.9-0.8C113.6,204.1,113.8,203.9,113.6,203.8z" />
		<path class="st15"
			d="M115.4,203.7c-0.3-0.1-0.4,0-0.7,0c0,0,0,0,0,0c0.2,0.1,0.3,0.2,0.5,0.2       C115.4,204,115.6,203.7,115.4,203.7z" />
		<path class="st15"
			d="M107.6,210.3c-0.1-0.1-0.2-0.2-0.3-0.3c0-0.1-0.1,0-0.1,0c-0.1,0.3-0.1,0.6,0.2,0.5       C107.5,210.6,107.7,210.4,107.6,210.3z" />
		<path class="st15"
			d="M112.7,212.4c-0.8,0.2-1.3,0.4-1.9,0.9c-1.1,1.1-2.6,2.5-4.2,1.5c0,0,0,0,0,0       C108.6,217,110.9,213.2,112.7,212.4C112.7,212.5,112.7,212.4,112.7,212.4z" />
		<path class="st15"
			d="M115.9,207.8c-0.4,0.1-0.7,0.8-1.3,0.5l0,0c0.4,0.4,1.4,0.1,1.4-0.5C116,207.9,115.9,207.8,115.9,207.8z" />
		<path class="st15"
			d="M117.4,220.7c0-0.1-0.1-0.1-0.2-0.1c-0.1,0-0.3,0-0.4,0c0,0-0.1,0.1-0.1,0.1c0.1,0.1,0.2,0.2,0.2,0.3       c0,0.1,0.1,0,0.2,0c0,0,0,0,0.1,0C117.4,221,117.5,220.9,117.4,220.7C117.4,220.8,117.4,220.7,117.4,220.7z" />
		<path class="st15"
			d="M120.5,219.9c-0.8-0.9-1.8-2.4-1.3-3.6c0,0,0,0,0,0c-0.6,1.1-0.4,3.7,1.1,4       C120.5,220.2,120.6,220,120.5,219.9z" />
		<path class="st15"
			d="M122,215.9c-0.2-0.3-0.2-0.5-0.2-0.8c0,0,0,0,0,0c-0.2,0.4-0.5,1.4,0.1,1.6c0.2,0.1,0.4-0.2,0.3-0.3       C122.3,216.2,122.2,216,122,215.9z" />
		<path class="st15"
			d="M124.1,200.8c-0.2,0.2-0.4,0.3-0.6,0.4c-0.2,0.2-0.4,0.4-0.5,0.7c-0.3,0.5-0.5,1.1-0.5,1.8       c0,0.2,0.2,0,0.3-0.1c0.1-0.6,0.2-1.2,0.5-1.7c0.2-0.3,0.3-0.5,0.5-0.8C124,201,124.1,200.9,124.1,200.8       C124.2,200.8,124.2,200.7,124.1,200.8z" />
		<path class="st15"
			d="M125.4,206.4C125.4,206.4,125.4,206.4,125.4,206.4c0,0.4,0,0.7,0.2,1c0,0.1,0.1,0,0.1-0.1       C125.7,207,125.5,206.7,125.4,206.4z" />
	</g>
</svg>