<svg version="1.1" id="Layer_1" xmlns="http://www.w3.org/2000/svg" xmlns:xlink="http://www.w3.org/1999/xlink" x="0px" y="0px" viewBox="0 0 256.5 381" style="enable-background:new 0 0 256.5 381;" xml:space="preserve">
<g transform="translate(14,-8)">
<style type="text/css">
	.st8{fill:#D85674;}
	.st9{fill:#F296A6;}
	.st10{opacity:0.4;fill:#F296A6;enable-background:new    ;}
	.st11{opacity:0.5;fill:#F296A6;enable-background:new    ;}
</style>
					<path class="st8" d="M128.7,173.3c-3.5-2.2-7.7-3-11.7-2c-1.5,0.4-3,1-4.1,1.8c-7.2-3-4.4-15.4-3.7-21.6       c0.3-2.3,0.6-4.6,0.9-6.9c0.3-2.4,0.4-4.9,0.3-7.3c0-0.8,0.1-1.7-0.4-2.4c-0.2-0.3-0.4-0.3-0.7-0.3c-0.3-0.1-1,0.3-1.2,0.6       c-0.3,0.4-0.3,1-0.3,1.5c0,1.8,0.1,3.5,0,5.2c-0.2,3.7-0.7,7.4-1.2,11.1c-0.2,2-0.5,4-0.7,6c-0.5,6-0.6,13.7,5,16.9       c-0.8,1.7-0.8,3.7-0.2,5.5c-0.4,0.2-0.7,0.4-1.1,0.7c-2.5,1.7-4.5,4.2-4.7,7.3c0,0,0,0,0,0c-2.6,0.3-5.1,0.9-7,2.7       c-3,2.9,2.1,5.8,4.3,6.6c7.6,2.8,17,0.8,22.9-4.9c3.1-3,5.3-6.5,6.3-10.7C132.1,180.2,131.7,175.2,128.7,173.3z"/>
					<path class="st9" d="M106.6,153.6c0.5-5.6,1.7-11.3,1.2-17c0-0.7,0.3-1.6,1-1.7c0.4-0.1,0.9,0.2,1,0.6c0.1,0.5,0.2,1.4,0.2,2       c0,1.6,0,3-0.2,4.5c-0.1,0.9-0.2,1.8-0.3,2.6c-0.4,4.6-1.1,9.3-1.6,13.9c-0.5,5-1.1,13.1,4.4,15c-0.7,0.6-1.2,1.4-1.5,2.3       C104.3,171.3,106,160.6,106.6,153.6z"/>
					<path class="st10" d="M106.8,158.6c-0.4,6-0.3,12.6,4.5,16.2c0.3-0.5,0.6-0.9,1-1.3c-5.5-1.8-5-10-4.4-15       c0.5-4.6,1.2-9.3,1.6-13.9c0.1-0.9,0.2-1.8,0.3-2.6c0.2-1.6,0.2-2.9,0.2-4.5c0-0.6,0-1.4-0.2-2c-0.1-0.4-0.5-0.7-0.9-0.6       C109.6,142.9,107.3,150.7,106.8,158.6z"/>
					<path class="st9" d="M110.2,172.2c-0.5,0.6-0.9,1.2-1.3,1.8c0.5,0.7,1.2,1.3,1.9,1.8c0.3-0.9,0.8-1.7,1.5-2.3       C111.5,173.2,110.8,172.8,110.2,172.2z"/>
					<path class="st9" d="M130.4,185.2c-1.2,3.3-3.5,6.4-6.2,8.8c-4.8,4.2-11.5,6.1-17.8,5.3c-2.4-0.3-10.4-2.1-8.3-6.2       c0.8-1.4,3.2-2.2,4.6-2.8c1.7-0.7,3.5-0.7,5.2-1c0.2-0.1,0.4-0.2,0.6-0.2c-1.1,0.2-2.3,0.3-3.5,0.5c0,0,0,0,0,0       c0.3-3,2.9-5.5,5.2-7.2c1.2-0.9,2.7-1.3,4.1-1.7c0.2,0,0.4-0.1,0.6-0.1c0.3-0.1,0.5-0.2,0.8-0.2c-0.7,0-1.4,0-2.1,0.1       c-1,0.2-1.9,0.5-2.8,0.9c0-0.2-0.2-0.8-0.2-0.7c-0.2-0.6-0.2-1.4-0.1-2.1c0.1-1,0.2-1.9,0.5-2.8c0.5-1,1.2-1.8,2.1-2.5       c2.2-1.7,5.4-2.4,8.2-2c2.8,0.1,5.8,0.9,7.8,2.9C132.1,177.1,131.6,181.8,130.4,185.2z"/>
					<path class="st11" d="M129.3,174.3c-1-1-2.2-1.7-3.5-2.2c1.7,2.1-0.8,4.5-2.8,5.5c-1.9,0.9-4,1.4-6.1,1.4       c-1.3,0-3.9,0.3-4.6-1.2c-0.9-2,0.4-3.9,2.2-5.2c-0.4,0.2-0.8,0.5-1.2,0.8c-0.9,0.6-1.7,1.4-2.1,2.5c-0.3,0.9-0.4,1.8-0.5,2.8       c-0.1,0.6,0,1.5,0.1,2.1c0-0.1,0.2,0.4,0.2,0.7c0.9-0.4,1.8-0.8,2.8-0.9c0.7-0.1,1.4-0.1,2.1-0.1c-0.3,0.1-0.5,0.1-0.8,0.2       c-0.2,0-0.4,0-0.6,0.1c-1.5,0.3-2.9,0.8-4.1,1.7c-2.3,1.7-4.9,4.2-5.2,7.2c0,0,0,0,0,0c0.3,0,0.6-0.1,0.9-0.1       c1.2-0.3,2.4-0.4,3.6-0.5c-0.2-0.1-0.3-0.2-0.4-0.3c-0.5-0.5-0.7-1.1-0.8-1.7c-0.1-0.3-0.2-0.7-0.1-1.1       c0.2-1.4,1.7-2.8,2.9-3.5c1.8-1.1,3.7-1.7,5.7-2c1.2-0.3,2.5-0.4,3.8-0.4c1.7,0,3.6,0,4.7,1.5c0.1,0.1,0.2,0.3,0.2,0.4       c1.5,2.2-0.8,6.6-2.1,8.2c-2.8,3.6-7,6-11.4,7c-2.3,0.5-4.8,0.6-7.1,0.2c-1.8-0.4-4.4-0.8-4.8-2.9c-0.3-1.6,1.3-3.1,2.5-3.7       c0.6-0.3,1.2-0.5,1.8-0.8c-0.6,0.1-1.2,0.3-1.8,0.5c-1.4,0.6-3.9,1.4-4.6,2.8c-2.1,4,5.9,5.9,8.3,6.2c6.2,0.7,13-1.2,17.8-5.3       c2.7-2.3,5-5.4,6.2-8.8C131.6,181.8,132.1,177.1,129.3,174.3z"/>
					<g>
						<path class="st11" d="M113.2,178C113.2,178,113.3,178,113.2,178c-0.7-3.6,3.6-5.8,6.6-6.1c0,0,0,0,0,0        C116.4,171.9,111.6,173.8,113.2,178z"/>
						<path class="st11" d="M110.7,187.8c0.2-1.5,0.7-2.8,1.6-3.9c0.1-0.2,0.3-0.3,0.4-0.5c0.3-0.4,0.8-0.7,1.2-1        c0.1-0.1,0.2-0.1,0.3-0.2c0,0,0,0,0.1,0c0.9-0.5,1.9-0.9,2.9-1.2c0,0,0,0,0,0c0,0,0.1-0.1,0-0.1c-1.8,0.2-4.2,0.7-5.5,2        C110.4,184.2,109.5,186,110.7,187.8C110.7,187.8,110.7,187.8,110.7,187.8z"/>
						<path class="st11" d="M103.3,192.1c1.3-0.9,2.8-1.2,4.3-1.5c0.5-0.2,1-0.3,1.5-0.4c0,0,0,0,0,0c-2.1,0.1-4.4-0.2-6.3,0.9        c-0.8,0.5-1.3,1.1-1.7,1.9c-0.3,0.6-0.1,1.1,0.3,1.6C101.5,193.6,102.5,192.7,103.3,192.1z"/>
					</g>
					<path class="st11" d="M108,145.9C108,145.9,108,145.9,108,145.9c-1.5,7.9-3.9,18.1-0.3,25.8c0,0.1,0.2,0,0.1-0.1       C105.2,163.6,107,154.1,108,145.9z"/>
				</g>
</svg>