<svg version="1.1" id="Layer_1" xmlns="http://www.w3.org/2000/svg" xmlns:xlink="http://www.w3.org/1999/xlink" x="0px" y="0px" viewBox="0 0 256.5 381" style="enable-background:new 0 0 256.5 381;" xml:space="preserve">
    <g transform="translate(35,-11)">
    <style type="text/css">
        .st13 {
            fill: #D12C32;
        }

        .st14 {
            fill: #A81D2E;
        }

        .st16 {
            opacity: 0.7;
            fill: #D12C32;
            enable-background: new;
        }
    </style>
    <path class="st14"
        d="M66.1,173.6c0,0,0.7,2.6,3.3,5c0,0,0.7,0.5,0.8,2.3c0.1,1.8,1.6,27.5-2.4,38.5c0,0-0.4,3-1.6,2         c-1.2-1-4.1-9.3-4.1-15.8c0-6.6,1.2-24.6,2.6-32.6C64.7,173,64.9,170.6,66.1,173.6z" />
    <path class="st14"
        d="M110,173.6c0,0-0.7,2.6-3.3,5c0,0-0.7,0.5-0.8,2.3c-0.1,1.8-1.6,27.5,2.4,38.5c0,0,0.4,3,1.6,2         c1.2-1,4.1-9.3,4.1-15.8c0-6.6-1.2-24.6-2.6-32.6C111.4,173,111.2,170.6,110,173.6z" />
    <path class="st13"
        d="M87.4,174.9c0,0-0.2-2-1.6-1.3c-1.4,0.7-5.2,3.3-10.9,4.4c0,0-2.7,0.6-3.6,1.3         c-0.1,0.2-0.2,0.4-0.4,0.5c-0.1,0.3,0,0.9,0,1.2c0,0.8,0,1.7,0,2.5c0,1.2,0,2.4,0,3.5c0,0.7-0.2,1.8,0.5,2.3         c0.9,0.6,2.9,0,3.9-0.2c0,0,3.9-0.6,5.9-0.9c1.5-0.2,3-0.5,4.4-0.8c2.8-0.5,2-3.1,1.9-5.3c0-1.9,0-3.9-0.1-5.9         C87.5,175.9,87.5,175.4,87.4,174.9z" />
    <path class="st13"
        d="M88.7,174.9c0,0,0.2-2,1.6-1.3c1.4,0.7,5.2,3.3,10.9,4.4c0,0,2.7,0.6,3.6,1.3c0.1,0.2,0.2,0.4,0.4,0.5         c0.1,0.3,0,0.9,0,1.2c0,0.8,0,1.7,0,2.5c0,1.2,0,2.4,0,3.5c0,0.7,0.2,1.8-0.5,2.3c-0.9,0.6-2.9,0-3.9-0.2         c0,0-3.9-0.6-5.9-0.9c-1.5-0.2-3-0.5-4.4-0.8c-2.8-0.5-2-3.1-1.9-5.3c0-1.9,0-3.9,0.1-5.9C88.6,175.9,88.6,175.4,88.7,174.9z         " />
    <path class="st13"
        d="M87.7,188.7c-0.3-0.4-0.7-0.7-1.2-0.8c-2.3,0.4-4.6,0.9-7,1.2c-1.7,0.2-3.5,0.4-5.2,0.6         c-1.9,0.2-3.4,0.3-3.4,2.5c-0.1,2.6,0.1,5.2,0.1,7.9c0,1.2,2,1.3,2.7,1.2c1.2-0.1,2.4,0,3.6,0c2.5,0,4.9,0,7.4,0         c0.6,0,1.1,0,1.7,0c0.2-0.1,0.5-0.1,0.7-0.2c0.5-0.2,0.7-0.8,0.8-1.2C87.8,195.9,87.7,192.1,87.7,188.7z" />
    <path class="st13"
        d="M88.4,188.7c0.3-0.4,0.7-0.7,1.2-0.8c2.3,0.4,4.6,0.9,7,1.2c1.7,0.2,3.5,0.4,5.2,0.6         c1.9,0.2,3.4,0.3,3.4,2.5c0.1,2.6-0.1,5.2-0.1,7.9c0,1.2-2,1.3-2.7,1.2c-1.2-0.1-2.4,0-3.6,0c-2.5,0-5,0-7.4,0         c-0.6,0-1.1,0-1.7,0c-0.2-0.1-0.5-0.1-0.7-0.2c-0.5-0.2-0.7-0.8-0.8-1.2C88.3,195.9,88.4,192.1,88.4,188.7z" />
    <path class="st13"
        d="M87.8,213.8c0-3.5,0-7,0-10.6c0-0.6-0.4-1-0.9-1.2H71.7c-0.3,0.2-0.5,0.4-0.7,0.7c0,0.1,0,0.1-0.1,0.2         c0,1.5,0,3,0,4.5c0,1.1-0.1,2.4,0,3.6c0,0,0,0,0,0.1c0.1,0.6,0.4,1,0.9,1.3c2.5,0.4,5,0.5,7.5,0.9c0.6,0.1,5.6,0.8,7.7,1.1         C87.4,214.2,87.7,214.1,87.8,213.8z" />
    <path class="st13"
        d="M88.3,213.8c0-3.5,0-7,0-10.6c0-0.6,0.4-1,0.9-1.2h15.3c0.3,0.2,0.5,0.4,0.7,0.7c0,0.1,0,0.1,0.1,0.2         c0,1.5,0,3,0,4.5c0,1.1,0.1,2.4,0,3.6c0,0,0,0,0,0.1c-0.1,0.6-0.4,1-0.9,1.3c-2.5,0.4-5,0.5-7.5,0.9         c-0.6,0.1-5.6,0.8-7.7,1.1C88.6,214.2,88.4,214.1,88.3,213.8z" />
    <path class="st13"
        d="M87.2,215c-5.2-0.6-10.4-1.7-15.7-2.1c-0.2,0.1-0.4,0.3-0.5,0.5c0,2.6,0.1,4.5,0.2,4.9         c0.4,2.2,3.8,15.1,13.4,20.4c0,0,2.5,1.7,3,0.3c0.2-0.6,0.3-11.1,0.3-23.4C87.6,215.4,87.4,215.1,87.2,215z" />
    <path class="st13"
        d="M88.9,215c5.2-0.6,10.4-1.7,15.7-2.1c0.2,0.1,0.4,0.3,0.5,0.5c0,2.6-0.1,4.5-0.2,4.9         c-0.4,2.2-3.8,15.1-13.4,20.4c0,0-2.5,1.7-3,0.3c-0.2-0.6-0.3-11.1-0.3-23.4C88.5,215.4,88.7,215.1,88.9,215z" />

    <path class="st16"
        d="M69.4,187.7c-1.3-4.1-3.5-7.9-4.7-12c0,0,0,0,0,0c0.7,4.4,2.1,8.5,4.3,12.3         C69.2,188.2,69.5,187.9,69.4,187.7z" />
    <path class="st16"
        d="M64.7,179.4c0-0.1-0.1,0-0.1,0.1c0.7,3.9,1.7,8.2,4.3,11.3c0.1,0.2,0.4-0.1,0.3-0.3         C67.7,186.8,65.6,183.3,64.7,179.4z" />
    <path class="st16"
        d="M67.8,189.9c-0.7-1.3-1.4-2.5-2-3.8c0,0-0.1,0,0,0c0.9,2.2,1.4,5.2,3.2,6.9c0.1,0.1,0.3-0.1,0.3-0.2         C68.9,191.8,68.3,190.8,67.8,189.9z" />
    <path class="st16"
        d="M67.3,191.3c-0.9-1.4-1.5-2.9-2.1-4.5c0,0,0,0,0,0c0.5,1.7,0.7,3.4,1.5,5c0.6,1.4,1.1,3.4,2.6,4.2         c0.2,0.1,0.5-0.2,0.4-0.4C69.2,194.2,68.1,192.6,67.3,191.3z" />

    <path class="st16"
        d="M64.5,205.1c-0.3-1.5-0.5-3.1-0.9-4.6c-0.2-1.1-0.2-2.3-0.5-3.4c0,0,0,0,0,0c0.2,1.1,0.1,2.4,0.2,3.6         c0.2,1.8,0.5,3.6,0.7,5.4c0.5,3.6,1.6,7,2.9,10.4c0,0.1,0.2,0,0.2-0.1C66.2,212.6,65.2,208.9,64.5,205.1z" />
    <path class="st16"
        d="M66,196.8c-0.9-3.3-1.7-6.5-1.9-9.9c0,0,0,0,0,0c-0.1,3.5,0.3,6.8,1.2,10.2c0.9,3.6,1.8,7,3.7,10.2         c0.1,0.1,0.2,0,0.2-0.1C67.7,203.9,66.9,200.3,66,196.8z" />
    <path class="st16"
        d="M65.3,200.4c-0.3-1.2-0.6-2.4-0.9-3.6c-0.2-0.8-0.1-1.8-0.4-2.6c0,0,0,0,0,0c0.2,1.1,0,2.4,0.1,3.5         c0.1,1.2,0.3,2.4,0.5,3.6c0.5,2.5,1.5,4.9,2.6,7.1c0.1,0.2,0.4-0.1,0.3-0.2C66.7,205.7,65.9,203,65.3,200.4z" />

    <path class="st16"
        d="M106.7,187.7c1.3-4.1,3.5-7.9,4.7-12c0,0,0,0,0,0c-0.7,4.4-2.1,8.5-4.3,12.3         C106.9,188.2,106.6,187.9,106.7,187.7z" />
    <path class="st16"
        d="M111.4,179.4c0-0.1,0.1,0,0.1,0.1c-0.7,3.9-1.7,8.2-4.3,11.3c-0.1,0.2-0.4-0.1-0.3-0.3         C108.4,186.8,110.5,183.3,111.4,179.4z" />
    <path class="st16"
        d="M108.3,189.9c0.7-1.3,1.4-2.5,2-3.8c0,0,0.1,0,0,0c-0.9,2.2-1.4,5.2-3.2,6.9c-0.1,0.1-0.3-0.1-0.3-0.2         C107.2,191.8,107.8,190.8,108.3,189.9z" />
    <path class="st16"
        d="M108.8,191.3c0.9-1.4,1.5-2.9,2.1-4.5c0,0,0,0,0,0c-0.5,1.7-0.7,3.4-1.5,5c-0.6,1.4-1.2,3.4-2.6,4.2         c-0.2,0.1-0.5-0.2-0.4-0.4C106.9,194.2,108,192.6,108.8,191.3z" />

    <path class="st16"
        d="M111.6,205.1c0.3-1.5,0.5-3.1,0.9-4.6c0.2-1.1,0.2-2.3,0.5-3.4c0,0,0,0,0,0c-0.2,1.1-0.1,2.4-0.2,3.6         c-0.2,1.8-0.5,3.6-0.7,5.4c-0.5,3.6-1.6,7-2.9,10.4c0,0.1-0.2,0-0.2-0.1C109.8,212.6,110.9,208.9,111.6,205.1z" />
    <path class="st16"
        d="M110.1,196.8c0.9-3.3,1.7-6.5,1.9-9.9c0,0,0,0,0,0c0.1,3.5-0.3,6.8-1.2,10.2c-0.9,3.6-1.8,7-3.7,10.2         c-0.1,0.1-0.2,0-0.2-0.1C108.4,203.9,109.2,200.3,110.1,196.8z" />
    <path class="st16"
        d="M110.8,200.4c0.3-1.2,0.6-2.4,0.8-3.6c0.2-0.8,0.1-1.8,0.4-2.6c0,0,0,0,0,0c-0.2,1.1,0,2.4-0.1,3.5         c-0.1,1.2-0.3,2.4-0.5,3.6c-0.5,2.5-1.5,4.9-2.6,7.1c-0.1,0.2-0.4-0.1-0.3-0.2C109.4,205.7,110.2,203,110.8,200.4z" />
</g>
</svg>