<svg version="1.1" id="Layer_1" xmlns="http://www.w3.org/2000/svg" xmlns:xlink="http://www.w3.org/1999/xlink" x="0px" y="0px" viewBox="0 0 256.5 381" style="enable-background:new 0 0 256.5 381;" xml:space="preserve">
    <g transform="translate(35,-11)">
        <style type="text/css">
            .st12 {
                fill: #E08C83;
            }

            .st13 {
                fill: #D12C32;
            }

            .st14 {
                fill: #A81D2E;
            }

            .st16 {
                opacity: 0.7;
                fill: #D12C32;
                enable-background: new;
            }

            .st18 {
                fill: #E28B6B;
            }

            .st19 {
                opacity: 0.5;
            }

            .st20 {
                fill: #E8A975;
            }

            .st21 {
                opacity: 0.5;
                fill: #E8A975;
                enable-background: new;
            }
        </style>
        <path class="st12"
            d="M128.2,56.8c-1.4-2.5-3.2-4.9-5.2-7.1l0,0l0,0c-9.6-9.4-21.9-14.5-34.9-14.5c-12.7,0-24.9,5-34.5,14.2      c-2.2,2.3-4.1,4.8-5.6,7.6c-11.2,19.7-4.8,33.6-0.5,42.8l0.2,0.4l0,0l0,0c0.9,1.6,1.6,3.3,2,5.1c0.2,1,0.4,1.9,0.6,2.7l0,0.1      c0.1,0.5,0.2,0.9,0.3,1.3c0.8,3.8,1.8,5.5,6.8,10.2c2.5,2.3,2.9,4.2,3.4,6.2c0.8,3.1,1.5,6.2,8.9,9.6c0.4,0.2,10.1,4.7,17.8,4.7      c0.2,0,0.5,0,0.6,0c0.2,0,0.5,0,0.7,0c7.7,0,17.4-4.5,17.8-4.7c7.3-3.4,8.1-6.5,8.8-9.6c0.5-2,1-3.9,3.4-6.2      c5.1-4.7,6-6.4,6.9-10.3c0.1-0.4,0.2-0.8,0.3-1.3c0.1-0.7,0.3-1.6,0.6-2.6c0.3-1.4,0.8-2.8,1.5-4.1l0-0.1l0-0.1l0-0.2v0      c0.2-0.4,0.4-0.8,0.5-1.2l0-0.1C133,90.4,139.4,76.6,128.2,56.8z M99.1,127.1c-0.8,0.3-6.8,2.1-11.7,1.8      c-6.4-0.5-9.9-2.9-9.9-2.9s0.5-3.9,3.6-4.4c3.1-0.5,8.5-1.2,13,0s4.7,2.5,5.3,4.2C99.3,125.8,99.8,126.9,99.1,127.1z" />
        <g>
            <g>
                <g>
                    <g>
                        <path class="st13"
                            d="M82.6,53.2c-3.5-5.2-9.7-9.2-18.7-9.3c-0.7,0.1-1.3,0.2-2,0.4c-1.7,1.1-6.3,4.3-9.2,7.6          c0,0-1.1,1-1.2,1.1c1.3,1.1,5.2,5.7,6.8,12.4c0.9,3.7,1.8,7.2,2,11c0.1,3.5-0.1,6.9-0.3,10.4c1.6-2.1,5.3-7.5,11-8.8          c6.8-1.5,12,4.7,13.1,13.3c1,7-2.2,13.3-3.5,20c-0.1,0.6-1.4,3.2-0.1,3.3c1.3,0.2,8.2,0.7,8.2,0.7V71.6          C88.7,71.6,86.3,58.7,82.6,53.2z" />
                        <path class="st13"
                            d="M72.3,78.6c0,0-2.4,0-5.6,2.2S59,88.5,56.6,95.8c-2.4,7.3-0.2,14.2,7.3,14.2          c7.5,0.1,16.6,0.7,19.3-9.9C85.7,89.8,81,78.3,72.3,78.6z M64.5,100.9c-2.7-1.4,1.1-8,5-10s5.5,1.7,5.5,1.7          C77.2,102.9,67.2,102.3,64.5,100.9z" />
                        <path class="st14" d="M64.3,97.5l10.8-2.2c0,0,0.5-4-2.9-4.4C68.5,90.4,65.3,94.9,64.3,97.5z" />
                        <path class="st14" d="M64.1,97.9l10.6-2.2c0,0,0.9,5.5-6,5.7C62.2,101.6,64.1,97.9,64.1,97.9z" />
                        <path class="st13"
                            d="M113.4,126c-5.9,1.8-13.2-7.8-17-9.5s-9.8-1.1-9.8-1.1l0,0.1c-2.2,0-4.7,0.3-6.4,1          c-3.8,1.7-11.2,11.2-17,9.5c0,0-1.2-0.3-1,0.5s3,6,6.5,7.3c0,0,2.8,0.4,5.7-3.3c2.9-3.7,1.5-8.2,6.5-9.5          c5-1.3,10.7-0.8,10.7-0.8c1.4,0.1,2.9,0.4,4.3,0.8c5,1.3,3.6,5.8,6.5,9.5s5.7,3.3,5.7,3.3c3.5-1.3,6.3-6.5,6.5-7.3          C114.6,125.7,113.4,126,113.4,126z" />
                        <path class="st13"
                            d="M100.2,127.6c-13.3,6.3-22.5-0.4-23.6-1.3c-0.3,1.1-0.6,2.2-0.9,3.3c1.6,1.4,6.3,4.8,13.8,4.4          c7-0.3,11-2.3,12.4-3.2C101.2,129.8,100.7,128.7,100.2,127.6z" />
                        <path class="st13"
                            d="M75.6,130.6c-0.2-0.2-0.4-0.3-0.4-0.3c-1.3,2.6-5.1,4.2-5.1,4.2c3.2,1.9,6.6,3,9.6,3.8          C77.8,136.1,76.4,133.5,75.6,130.6z" />
                        <path class="st13"
                            d="M80.2,133.1c-1.6-0.6-2.8-1.3-3.6-1.8c0.7,2.2,1.8,4.2,3.3,6C79.9,135.9,80,134.5,80.2,133.1z" />
                        <path class="st13"
                            d="M89,135c-3.3-0.2-6-0.9-8.1-1.7c-0.2,1.5-0.3,3.1-0.3,4.7c0,0,0,0,0,0.1c0.2,0.2,0.3,0.4,0.5,0.5          c4.6,1,8,0.9,8,0.9L89,135z" />
                        <path class="st14"
                            d="M78.3,116.9c0,0,1.5-6.9,2.2-9c0,0-0.1-0.4-0.9,0s-3.8,2.1-4.5,2.1c-0.7,0,1.4,8.3,1.4,8.3L78.3,116.9          z" />
                        <path class="st14"
                            d="M75.7,118.9l-1.8-8.5c0,0-4.8,0.7-6.7,0.5c0,0,4,7.7,3.9,9.1c-0.2,1.4-5.2-3.9-8.2-8.8          c0,0-3.6-1.1-4.9-2.3c0,0,6.9,10.9,10.7,13.8l1.3,0.9L75.7,118.9z" />
                        <path class="st13"
                            d="M46.3,94.5c0,0-5.4-10-3.5-20.6c0,0,4.7-12.8,10.8-17.4c0,0,3.7,6.8,5.1,13.8          C58.7,70.3,48.4,83.2,46.3,94.5z" />
                        <path class="st13"
                            d="M47,96l2.5-8.5c0,0,3.2,24,16.6,37.2l-2.8,0.1C63.4,124.9,54.7,118.7,47,96z" />
                    </g>
                </g>
                <g>
                    <path class="st16"
                        d="M61.2,62c-0.8-2.1-2.2-4.2-3.4-6c-0.8-1.2-2.1-2.9-3.4-3.7c0,0-0.1,0.1-0.1,0.1c1.3,1,2.3,3.1,3.1,4.6         c1,1.9,2.1,3.7,3,5.7c2.1,4.8,3.8,9.7,4.5,14.9c0,0.1,0.1,0,0.1-0.1C64.7,71.9,63.2,67.1,61.2,62z" />
                    <path class="st16"
                        d="M81,64.1c-1.8-4.2-4.4-8.1-7.4-11.5c-1.6-1.8-3.5-3.4-5.4-4.7c-1.8-1.1-3.8-0.9-5.7-1.6         c0,0-0.1,0,0,0.1c1.7,0.8,3.4,1.2,5,2.3c1.8,1.2,3.3,2.8,4.8,4.3c3.2,3.3,5.8,7.7,7.7,11.9c3.9,8.6,5.5,18.8,5.8,28.1         c0,0.1,0.1,0,0.1,0C85.9,83.3,84.9,73.1,81,64.1z" />
                    <path class="st16"
                        d="M81.3,59c-1.8-3.2-4-6.2-6.6-8.9c-1.1-1.2-2.4-2.1-3.8-2.9c-1.7-1-3.7-1.2-5.6-1.7c0,0,0,0,0,0         c3.2,1.3,6,3.1,8.5,5.6c2.7,2.8,4.8,6,6.7,9.3c3.7,6.3,5,13.5,6.3,20.5c0,0.1,0.1,0,0.1,0C85.8,73.4,85,65.6,81.3,59z" />
                    <path class="st16"
                        d="M68.6,59.1c-1.4-2.4-3.1-4.6-5-6.7c-1.7-1.9-3.7-2.8-6-3.9c0,0,0,0,0,0c1.9,1.2,3.4,2.4,5,4         c1.3,1.4,2.5,3,3.5,4.6c-1.9-2.4-4.1-4.6-6.7-6.4c0,0,0,0,0,0c2.9,2.7,5.2,6.1,7.5,9.4c2.2,3.2,4.2,6.4,5.6,10.1         c0,0,0.1,0,0.1,0c-0.8-2.8-1.8-5.4-3.2-8c2.5,4.3,4.3,8.9,5.3,13.9c0,0.1,0.1,0,0.1,0C73.9,70.2,71.7,64.3,68.6,59.1z" />
                    <path class="st16"
                        d="M76,65.2c-1.7-4.3-4.2-8.5-7.5-11.8c0,0,0,0,0,0c2.9,3.3,5.2,7.4,6.8,11.5c1.7,4.2,3.1,8.7,4,13.2         c0,0.2,0.2,0,0.2-0.1C79.1,73.6,77.6,69.3,76,65.2z" />
                    <path class="st16"
                        d="M65.6,62.6c-0.9-2.4-2.1-4.4-3.3-6.7c-1.1-1.9-3-3.3-4.6-4.7c0,0,0,0,0,0c3.2,3.5,5.4,7.4,7.2,11.8         c1,2.3,2,4.8,2.7,7.2c0.6,2,0.7,4.2,1.4,6.2c0,0.1,0.2,0,0.1-0.1C68.3,71.8,67.4,67.2,65.6,62.6z" />
                    <path class="st16"
                        d="M74,94.8c-3.4,0-6,1.1-9.1,2.2c0,0,0,0,0,0C68,96.6,71,95.4,74,94.8C74,94.9,74.1,94.8,74,94.8z" />
                    <path class="st16"
                        d="M73.9,94.1c-3-0.7-6.5,0.2-8.7,2.4c0,0,0,0.1,0,0c2.6-1.7,5.5-2.6,8.6-2.3C73.9,94.3,74,94.2,73.9,94.1         z" />
                    <path class="st16"
                        d="M74.2,93.7c-2.6-2.2-6.8,0-8.9,2.1c0,0,0,0,0,0c2.5-2.1,5.6-3.2,8.8-1.9C74.2,93.9,74.3,93.8,74.2,93.7         z" />
                    <path class="st16"
                        d="M73.9,96.3c-2.9,1.5-5.9,2.4-9.1,1.9c0,0-0.1,0.1,0,0.1C67.9,99.6,71.3,98.1,73.9,96.3         C74,96.3,74,96.2,73.9,96.3z" />
                    <path class="st16"
                        d="M74.5,96.8c-2.1,2.9-7.2,4.8-10.1,2c0,0,0,0,0,0c2.3,3.7,8.8,1.2,10.3-2C74.6,96.8,74.5,96.8,74.5,96.8         z" />
                    <path class="st16"
                        d="M71.9,98.1c-1.6,0.8-3.9,1.4-5.8,1c0,0,0,0,0,0c1.8,0.9,4.4,0.6,5.9-0.8C72.1,98.2,72,98,71.9,98.1z" />
                    <path class="st16"
                        d="M86.2,116.9c-1.8,0-3.7,0.4-5.5,1.2c1.2-0.6,2.5-1.1,3.9-1.6c0.1,0,0.1-0.2,0-0.2         c-3.9,0.8-6.4,2.7-9.4,5.2c-3.3,2.8-7.2,6.1-11.8,5.4c0,0,0,0,0,0c3.3,0.9,6.2-0.5,9-2.3c1.8-1.1,3.3-2.9,4.9-4.3l0,0         c0,0-0.1,0.1-0.1,0.1c-1.3,1.5-2.6,3-4,4.4c-1.9,1.8-5.1,4.4-8,3.6c0,0,0,0,0,0c3.4,1.5,6.6-1.5,8.8-3.6         c1.5-1.5,2.6-3.5,4.4-4.7c2.4-1.7,4.8-2.9,7.7-3.2C86.2,117.1,86.2,116.9,86.2,116.9z" />
                    <path class="st16"
                        d="M79.7,120.1c1.6-1,3.3-1.7,5.1-2.1c0,0,0,0,0,0c-2.8,0.1-5.3,1.2-7.3,3.1c-1,0.9-1.9,2-2.5,3.2         c-0.7,1-1.4,1.9-2.3,2.8c-1.6,1.7-4.7,3.7-7.2,3.1c0,0,0,0,0,0c1.9,0.9,4.2-0.1,5.8-1.2c0.7-0.5,1.4-1,1.9-1.6         c-0.7,1-1.5,1.8-2.7,2.5c0,0,0,0.1,0,0.1c1.5-0.7,2.5-1.7,3.3-2.9c-0.9,1.8-1.9,3.5-3.7,4.7c0,0,0,0.1,0,0.1         c3-1.5,4.4-4.8,5.8-7.6c2.1-4.3,7.6-5,11.7-5.9c0,0,0,0,0,0C84.8,118.6,82.1,118.9,79.7,120.1z" />
                    <path class="st16"
                        d="M97.5,129.9c-5.7,1.3-10.7,2.1-17.6-1l0,0C86.6,132.8,92.1,131.7,97.5,129.9         C97.5,129.9,97.5,129.9,97.5,129.9z" />
                    <path class="st16"
                        d="M96.5,130.8c-5.1,1.2-9.5,1.9-15.8-0.9l0,0C86.9,133.5,91.7,132.4,96.5,130.8         C96.6,130.9,96.6,130.8,96.5,130.8z" />
                    <path class="st16"
                        d="M94.5,132.2c-3.8,0.9-7.1,1.4-11.8-0.6c0,0,0,0,0,0C87.3,134.2,90.9,133.4,94.5,132.2         C94.6,132.3,94.6,132.2,94.5,132.2z" />
                    <path class="st16"
                        d="M82.7,59.5c0.4,0.6,0.8,1.3,1.2,1.9c0.1,0.1,0.2,0,0.2-0.2c-1.9-5.4-4.3-11.3-9.7-14.1c0,0,0,0,0,0         c1.8,1.4,3.2,3.2,4.4,5.1c-2.4-3.1-5.4-5.6-9.2-6.8c0,0,0,0,0,0c4.1,1.9,7.4,6,9.9,9.6c3,4.4,5,9.1,6.3,14.2         c0,0.1,0.1,0,0.1,0C85,66.2,84,62.8,82.7,59.5z" />
                    <path class="st16"
                        d="M73.3,57.4c-1.3-2.1-2.7-3.9-4.5-5.6c-0.8-0.8-1.7-1.4-2.6-2c-0.3-0.2-3.5-1.9-3.6-1.7c0,0,0-0.1,0,0         l-0.1,0.1c0,0,0,0.1,0,0.1c2,0.9,4.1,2.8,5.7,4.3c1.8,1.8,3.4,3.8,4.7,6c2.6,4.1,4.5,8.4,6,13c0,0.1,0.1,0,0.1-0.1         C77.8,66.6,75.9,61.7,73.3,57.4z" />
                    <path class="st16"
                        d="M66.6,88c-4.3,3.3-5.9,8.6-6.6,13.6c0,0,0,0,0,0c0.9-4.2,2.5-8.7,5.6-11.8c1.6-1.6,3.4-2.7,5.6-3.3         c2.8-0.7,4.8,1.2,5.9,3.5c0,0,0.1,0,0.1-0.1C75.4,85.3,70.2,85.2,66.6,88z" />
                    <path class="st16"
                        d="M69.6,84c-3,0.9-5,3.5-6.7,6c-2.3,3.3-3.3,7.3-4,11.2c0,0,0,0,0,0c1.1-6.2,4.2-14.9,11-16.7         c3.7-1,6.9,2.1,8.6,4.9c1.7,2.8,2.3,6.5,2.7,9.8c0,0.1,0.1,0,0.1,0C81,93.2,78.2,81.5,69.6,84z" />
                    <path class="st16"
                        d="M78.1,85.7c-2.3-4.5-7.6-5-11.5-2.6c-4.5,2.8-7.3,8.9-8.3,13.9c0,0,0,0,0,0c1.1-4.5,3.6-8.7,6.8-12         c1.7-1.7,3.8-2.5,6.1-2.8C74.1,81.8,76.5,83.4,78.1,85.7C78.1,85.8,78.2,85.7,78.1,85.7z" />
                    <path class="st16"
                        d="M80.1,102.9c-2.5,3.7-6.4,4.8-10.6,5.6c-3.6,0.7-10,0-11.8-3.7c0,0,0,0,0,0c1.6,4,7.4,4.7,11.1,4.4         c4.5-0.4,9.3-2.1,11.5-6.2C80.4,102.8,80.2,102.8,80.1,102.9z" />
                    <path class="st16"
                        d="M78.6,103.2c-2.8,2.9-6.2,3.8-10.2,4.1c-3.7,0.3-7.4-0.4-9.9-3.4c0,0,0,0,0,0         C63,110.4,74.1,108.8,78.6,103.2C78.7,103.2,78.6,103.2,78.6,103.2z" />
                    <path class="st16"
                        d="M78.6,100.8c-2.2,3-5.7,4.2-9.2,4.7c-2.9,0.4-6.9,0.2-9.1-1.9c0,0,0,0,0,0c2.3,2.5,6.4,2.6,9.6,2.1         c3.5-0.5,6.8-2,8.8-4.9C78.8,100.8,78.7,100.8,78.6,100.8z" />
                    <path class="st16"
                        d="M76.5,100.2c-3.7,2.9-10.9,4.9-14.8,1.4c0,0,0,0,0,0C65.5,105.7,73.2,103.9,76.5,100.2         C76.7,100.2,76.6,100.2,76.5,100.2z" />
                    <path class="st16"
                        d="M79,82.6c-2.7-3.9-7.8-3.8-11.5-1.4c0,0,0,0.1,0,0.1C72,78.7,77,80,79.4,84.5c2.2,4,2.6,8.6,2.6,13.1         c0,0,0,0,0,0C82.3,92.3,82.1,87,79,82.6z" />
                    <path class="st16"
                        d="M52.1,60.3c-4.7,4.7-8.4,10.2-9,17c0,0.1,0.1,0,0.1,0C44.6,71,48,65.1,52.1,60.3         C52.1,60.3,52.1,60.3,52.1,60.3z" />
                    <path class="st16"
                        d="M52.8,62.5C48.1,67.1,44,72.7,43,79.4c0,0.1,0.1,0.1,0.1,0C45.2,73.1,48.5,67.4,52.8,62.5         C52.9,62.5,52.9,62.4,52.8,62.5z" />
                    <path class="st16"
                        d="M56.3,68.3c-3.2,3.6-6.2,7.9-8.1,12.5c1.7-4.2,3.7-8.2,6-12.2c0,0,0,0,0,0c-4.5,5.9-7.8,12-8.7,19.5         c0,0.1,0.1,0.1,0.1,0c0.6-2.1,1.3-4.2,2.1-6.2c-1,2.7-1.6,5.4-1.7,8.1c0,0.1,0.1,0,0.1,0c0.5-3.7,2.1-7.5,3.8-10.9         C51.8,75.4,53.8,71.6,56.3,68.3C56.3,68.3,56.3,68.3,56.3,68.3z" />
                    <path class="st16"
                        d="M51.8,67.4c-2,2.2-3.8,4.4-5.1,7.1c-0.7,1.4-1.4,2.9-2,4.4c-0.6,1.4-0.7,3-1.1,4.4c0,0.1,0.1,0.1,0.1,0         C45.7,77.7,48.3,72.3,51.8,67.4C51.8,67.4,51.8,67.4,51.8,67.4z" />
                    <path class="st16"
                        d="M50.6,70.5c-3.4,3.7-5.8,9.3-6.3,14.3c0,0.2,0.2,0.1,0.2,0C46.2,80,47.7,74.7,50.6,70.5         C50.6,70.5,50.6,70.5,50.6,70.5z" />
                    <path class="st16"
                        d="M62.9,123c-3.7-3.5-6.5-8.2-8.9-12.7c-2.2-4.3-4.5-8.7-6-13.3c0,0,0,0,0,0c1.2,4.7,3.3,9.3,5.6,13.6         C56.1,115,58.8,119.9,62.9,123C62.9,123.1,63,123.1,62.9,123z" />
                    <path class="st16"
                        d="M61.8,121.4c-2.6-3.9-5.1-7.9-6.9-12.2c-1-2.3-2.1-4.5-3-6.8c-1.1-2.8-1.8-5.5-2.6-8.4c0,0,0,0,0,0         c0.5,2.5,0.6,5,1.4,7.5c0.9,2.7,2,5.2,3.2,7.8c2.1,4.5,4.8,8.4,7.9,12.2C61.8,121.6,61.9,121.5,61.8,121.4z" />
                    <path class="st16"
                        d="M86.8,108.4c-1,0.8-2.1,1.6-3.1,2.5c-0.5,0.4-1,0.8-1.5,1.2c-0.5,0.4-0.7,0.9-1.3,1.3c0,0,0,0.1,0,0.1         c0.3-0.1,0.5-0.3,0.7-0.6c0.6-0.6,1.3-1.1,2.1-1.6c1.1-0.7,2.2-1.7,3.2-2.6C87.1,108.5,87,108.2,86.8,108.4z" />
                    <path class="st16"
                        d="M87.2,106.9c-1.9,1.4-4,2.9-5.6,4.6c0,0,0,0.1,0,0.1c1.9-1.5,4-2.7,5.8-4.4         C87.5,107,87.4,106.8,87.2,106.9z" />
                    <path class="st16"
                        d="M87.1,105.5c-0.7,0.4-1.3,0.8-2,1.3c-0.7,0.5-1.4,1.1-2.1,1.6c0,0,0,0,0,0c0.8-0.4,1.5-0.9,2.2-1.3         c0.7-0.4,1.4-0.8,2-1.4C87.3,105.6,87.3,105.5,87.1,105.5z" />
                    <path class="st16"
                        d="M87.6,102.2c-1.1,0.5-2,1.2-3,2c-0.4,0.3-0.8,0.6-1.1,1c-0.2,0.1-0.8,0.9-0.9,1c0,0,0,0,0,0         c0,0-0.1,0-0.1,0c0,0,0,0,0,0c0,0,0,0.1,0,0.1s0,0.1,0,0c1.7-1.3,3.6-2.3,5.3-3.6C87.9,102.4,87.9,102,87.6,102.2z" />
                    <path class="st16"
                        d="M87.2,101.4c-0.6,0.3-1.2,0.6-1.8,1c-0.6,0.4-1.2,0.9-1.7,1.3c0,0,0,0.1,0,0.1c1.2-0.6,2.5-1.2,3.5-2.1         C87.5,101.6,87.5,101.3,87.2,101.4z" />
                </g>
            </g>
            <g>
                <g>
                    <g>
                        <path class="st18"
                            d="M110.5,41.4c-9.7-4.9-19.5-5.6-19.5-5.6c-1.3-0.2-4.1-0.2-5.5,0c0,0-9.8,0.7-19.5,5.6          c0,0-3.6,1.7-1.7,2C66.1,43.7,82,43,86.7,59.7c0,0,0.2,0.8,0.4,2c0.3,1.4,0.7,3.2,1.1,4.6c0.4-1.4,0.8-3.3,1.1-4.6          c0.3-1.2,0.4-2,0.4-2c4.8-16.7,20.6-16.1,22.5-16.3C114.1,43.1,110.5,41.4,110.5,41.4z" />
                        <path class="st13"
                            d="M93.9,53.2c3.5-5.2,9.7-9.2,18.7-9.3c0.7,0.1,1.3,0.2,2,0.4c1.7,1.1,6.3,4.3,9.2,7.6          c0,0,1.2,1,1.2,1.1c-1.3,1.1-5.2,5.7-6.8,12.4c-0.9,3.7-1.8,7.2-2,11c-0.1,3.5,0.1,6.9,0.3,10.4c-1.6-2.1-5.3-7.5-11-8.8          c-6.8-1.5-12,4.7-13.1,13.3c-1,7,2.2,13.3,3.5,20c0.1,0.6,1.4,3.2,0.1,3.3c-1.3,0.2-8.2,0.7-8.2,0.7V71.6          C87.8,71.6,90.2,58.7,93.9,53.2z" />
                        <path class="st13"
                            d="M93.4,100.1c2.6,10.6,11.8,10,19.3,9.9c7.5-0.1,9.7-7,7.3-14.2c-2.4-7.3-6.8-12.8-10.1-15.1          c-3.3-2.2-5.6-2.2-5.6-2.2C95.5,78.3,90.8,89.8,93.4,100.1z M101.5,92.6c0,0,1.5-3.7,5.5-1.7c4,2,7.7,8.6,5,10          C109.3,102.3,99.3,102.9,101.5,92.6z" />
                        <path class="st14"
                            d="M112.3,97.5l-10.8-2.2c0,0-0.5-4,2.9-4.4C108.1,90.4,111.2,94.9,112.3,97.5z" />
                        <path class="st14"
                            d="M112.4,97.9l-10.6-2.2c0,0-0.9,5.5,6,5.7C114.3,101.6,112.4,97.9,112.4,97.9z" />
                        <path class="st13"
                            d="M102,131.4c-0.5,0.3-1,0.5-1.5,0.6c-0.8,2.3-2,4.5-3.6,6.3c3-0.7,6.3-1.9,9.6-3.8          C106.4,134.6,103.6,133.3,102,131.4z" />
                        <path class="st13"
                            d="M95.9,133.5c1.8-0.3,2.8-0.5,3.6-1.1c-0.7,2.2-1.8,3.5-3.3,5.2C96.3,136.2,96.2,134.9,95.9,133.5z" />
                        <path class="st13"
                            d="M87.6,135c3.3-0.2,6-0.9,8.1-1.7c0.2,1.5,0.3,3.1,0.3,4.7c0,0,0,0,0,0.1c-0.2,0.2-0.3,0.4-0.5,0.5          c-4.6,1-8,0.9-8,0.9L87.6,135z" />
                        <path class="st14"
                            d="M98.2,116.9c0,0-1.5-6.9-2.2-9c0,0,0.1-0.4,0.9,0s3.8,2.1,4.5,2.1c0.7,0-1.4,8.3-1.4,8.3L98.2,116.9z" />
                        <path class="st14"
                            d="M100.8,118.9l1.8-8.5c0,0,4.8,0.7,6.7,0.5c0,0-4,7.7-3.9,9.1c0.2,1.4,5.2-3.9,8.2-8.8          c0,0,3.6-1.1,4.9-2.3c0,0-6.9,10.9-10.7,13.8l-1.3,0.9L100.8,118.9z" />
                        <path class="st13"
                            d="M130.2,94.5c0,0,5.4-10,3.5-20.6c0,0-4.7-12.8-10.8-17.4c0,0-3.7,6.8-5.1,13.8          C117.9,70.3,128.1,83.2,130.2,94.5z" />
                        <path class="st13"
                            d="M129.5,96l-2.5-8.5c0,0-3.2,24-16.6,37.2l2.8,0.1C113.2,124.9,121.8,118.7,129.5,96z" />
                    </g>
                </g>
                <g>
                    <path class="st16"
                        d="M115.4,62c0.8-2.1,2.2-4.2,3.4-6c0.8-1.2,2.1-2.9,3.4-3.7c0,0,0.1,0.1,0.1,0.1c-1.3,1-2.3,3.1-3.1,4.6         c-1,1.9-2.1,3.7-3,5.7c-2.1,4.8-3.8,9.7-4.5,14.9c0,0.1-0.1,0-0.1-0.1C111.9,71.9,113.4,67.1,115.4,62z" />
                    <path class="st16"
                        d="M95.5,64.1c1.8-4.2,4.4-8.1,7.4-11.5c1.6-1.8,3.5-3.4,5.4-4.7c1.8-1.1,3.8-0.9,5.7-1.6c0,0,0.1,0,0,0.1         c-1.7,0.8-3.5,1.2-5,2.3c-1.8,1.2-3.3,2.8-4.8,4.3c-3.2,3.3-5.8,7.7-7.7,11.9C92.7,73.5,91,83.7,90.8,93c0,0.1-0.1,0-0.1,0         C90.6,83.3,91.7,73.1,95.5,64.1z" />
                    <path class="st16"
                        d="M95.3,59c1.8-3.2,4-6.2,6.6-8.9c1.1-1.2,2.4-2.1,3.8-2.9c1.7-1,3.7-1.2,5.6-1.7c0,0,0,0,0,0         c-3.2,1.3-6,3.1-8.5,5.6c-2.7,2.8-4.8,6-6.7,9.3c-3.7,6.3-5,13.5-6.3,20.5c0,0.1-0.1,0-0.1,0C90.7,73.4,91.5,65.6,95.3,59z" />
                    <path class="st16"
                        d="M107.9,59.1c1.4-2.4,3.1-4.6,5-6.7c1.7-1.9,3.7-2.8,6-3.9c0,0,0,0,0,0c-1.9,1.2-3.4,2.4-5,4         c-1.3,1.4-2.5,3-3.5,4.6c1.9-2.4,4.1-4.6,6.7-6.4c0,0,0,0,0,0c-2.9,2.7-5.2,6.1-7.5,9.4c-2.2,3.2-4.2,6.4-5.6,10.1         c0,0-0.1,0-0.1,0c0.8-2.8,1.8-5.4,3.2-8c-2.5,4.3-4.3,8.9-5.3,13.9c0,0.1-0.1,0-0.1,0C102.6,70.2,104.8,64.3,107.9,59.1z" />
                    <path class="st16"
                        d="M100.5,65.2c1.7-4.3,4.2-8.5,7.5-11.8c0,0,0,0,0,0c-2.9,3.3-5.1,7.4-6.8,11.5c-1.7,4.2-3.1,8.7-4,13.2         c0,0.2-0.2,0-0.2-0.1C97.4,73.6,99,69.3,100.5,65.2z" />
                    <path class="st16"
                        d="M110.9,62.6c0.9-2.4,2.1-4.4,3.3-6.7c1.1-1.9,3-3.3,4.6-4.7c0,0,0,0,0,0c-3.2,3.5-5.4,7.4-7.2,11.8         c-1,2.3-2,4.8-2.7,7.2c-0.6,2-0.7,4.2-1.4,6.2c0,0.1-0.2,0-0.1-0.1C108.2,71.8,109.2,67.2,110.9,62.6z" />
                    <path class="st16"
                        d="M102.5,94.8c3.4,0,6,1.1,9.1,2.2c0,0,0,0,0,0C108.6,96.6,105.6,95.4,102.5,94.8         C102.5,94.9,102.4,94.8,102.5,94.8z" />
                    <path class="st16"
                        d="M102.7,94.1c3-0.7,6.5,0.2,8.7,2.4c0,0,0,0.1,0,0c-2.6-1.7-5.5-2.6-8.6-2.3         C102.6,94.3,102.6,94.2,102.7,94.1z" />
                    <path class="st16"
                        d="M102.3,93.7c2.6-2.2,6.8,0,8.9,2.1c0,0,0,0,0,0c-2.5-2.1-5.6-3.2-8.8-1.9         C102.4,93.9,102.2,93.8,102.3,93.7z" />
                    <path class="st16"
                        d="M102.6,96.3c2.9,1.5,5.9,2.4,9.1,1.9c0,0,0.1,0.1,0,0.1C108.7,99.6,105.2,98.1,102.6,96.3         C102.6,96.3,102.6,96.2,102.6,96.3z" />
                    <path class="st16"
                        d="M102.1,96.8c2.1,2.9,7.2,4.8,10.1,2c0,0,0,0,0,0c-2.3,3.7-8.8,1.2-10.3-2         C101.9,96.8,102,96.8,102.1,96.8z" />
                    <path class="st16"
                        d="M104.6,98.1c1.6,0.8,3.9,1.4,5.8,1c0,0,0,0,0,0c-1.8,0.9-4.4,0.6-5.9-0.8         C104.5,98.2,104.5,98,104.6,98.1z" />
                    <path class="st16"
                        d="M90.4,116.9c1.8,0,3.7,0.4,5.5,1.2c-1.2-0.6-2.5-1.1-3.9-1.6c-0.1,0-0.1-0.2,0-0.2         c3.9,0.8,6.4,2.7,9.4,5.2c3.3,2.8,7.2,6.1,11.8,5.4c0,0,0,0,0,0c-3.3,0.9-6.2-0.5-9-2.3c-1.8-1.1-3.3-2.9-4.9-4.3l0,0         c0,0,0.1,0.1,0.1,0.1c1.3,1.5,2.6,3,4,4.4c1.9,1.8,5.1,4.4,8,3.6c0,0,0,0,0,0c-3.4,1.5-6.6-1.5-8.8-3.6         c-1.5-1.5-2.6-3.5-4.4-4.7c-2.4-1.7-4.8-2.9-7.7-3.2C90.4,117.1,90.3,116.9,90.4,116.9z" />
                    <path class="st16"
                        d="M96.9,120.1c-1.6-1-3.3-1.7-5.1-2.1c0,0,0,0,0,0c2.8,0.1,5.3,1.2,7.3,3.1c1,0.9,1.9,2,2.5,3.2         c0.7,1,1.4,1.9,2.3,2.8c1.6,1.7,4.7,3.7,7.2,3.1c0,0,0,0,0,0c-1.9,0.9-4.2-0.1-5.8-1.2c-0.7-0.5-1.3-1-1.9-1.6         c0.7,1,1.5,1.8,2.7,2.5c0,0,0,0.1,0,0.1c-1.4-0.7-2.5-1.7-3.3-2.9c0.9,1.8,1.9,3.5,3.7,4.7c0,0,0,0.1,0,0.1         c-3-1.5-4.4-4.8-5.8-7.6c-2.1-4.3-7.6-5-11.7-5.9c0,0,0,0,0,0C91.8,118.6,94.4,118.9,96.9,120.1z" />
                    <path class="st16"
                        d="M79.1,129.9c5.7,1.3,10.7,2.1,17.6-1l0,0C89.9,132.8,84.5,131.7,79.1,129.9         C79,129.9,79,129.9,79.1,129.9z" />
                    <path class="st16"
                        d="M80,130.8c5.1,1.2,9.5,1.9,15.8-0.9l0,0C89.7,133.5,84.8,132.4,80,130.8C80,130.9,80,130.8,80,130.8z" />
                    <path class="st16"
                        d="M82,132.2c3.8,0.9,7.1,1.4,11.8-0.6c0,0,0,0,0,0C89.2,134.2,85.6,133.4,82,132.2         C82,132.3,82,132.2,82,132.2z" />
                    <path class="st16"
                        d="M93.9,59.5c-0.4,0.6-0.8,1.3-1.2,1.9c-0.1,0.1-0.2,0-0.2-0.2c1.9-5.4,4.3-11.3,9.7-14.1c0,0,0,0,0,0         c-1.8,1.4-3.2,3.2-4.4,5.1c2.4-3.1,5.4-5.6,9.2-6.8c0,0,0,0,0,0c-4.1,1.9-7.4,6-9.9,9.6c-3,4.4-5,9.1-6.3,14.2         c0,0.1-0.1,0-0.1,0C91.6,66.2,92.5,62.8,93.9,59.5z" />
                    <path class="st16"
                        d="M103.2,57.4c1.3-2.1,2.7-3.9,4.5-5.6c0.8-0.8,1.7-1.4,2.6-2c0.3-0.2,3.5-1.9,3.6-1.7c0,0,0-0.1,0,0         l0.1,0.1c0,0,0,0.1,0,0.1c-2,0.9-4.1,2.8-5.7,4.3c-1.8,1.8-3.4,3.8-4.7,6c-2.6,4.1-4.5,8.4-6,13c0,0.1-0.1,0-0.1-0.1         C98.7,66.6,100.6,61.7,103.2,57.4z" />
                    <path class="st16"
                        d="M110,88c4.3,3.3,5.9,8.6,6.6,13.6c0,0,0,0,0,0c-0.9-4.2-2.5-8.7-5.6-11.8c-1.6-1.6-3.4-2.7-5.6-3.3         c-2.8-0.7-4.8,1.2-5.9,3.5c0,0-0.1,0-0.1-0.1C101.2,85.3,106.4,85.2,110,88z" />
                    <path class="st16"
                        d="M106.9,84c3,0.9,5,3.5,6.7,6c2.3,3.3,3.3,7.3,4,11.2c0,0,0,0,0,0c-1.1-6.2-4.2-14.9-11-16.7         c-3.7-1-6.9,2.1-8.6,4.9c-1.7,2.8-2.3,6.5-2.7,9.8c0,0.1-0.1,0-0.1,0C95.6,93.2,98.4,81.5,106.9,84z" />
                    <path class="st16"
                        d="M98.4,85.7c2.3-4.5,7.6-5,11.5-2.6c4.5,2.8,7.3,8.9,8.3,13.9c0,0,0,0,0,0c-1.1-4.5-3.6-8.7-6.8-12         c-1.7-1.7-3.8-2.5-6.1-2.8C102.4,81.8,100,83.4,98.4,85.7C98.5,85.8,98.4,85.7,98.4,85.7z" />
                    <path class="st16"
                        d="M96.4,102.9c2.5,3.7,6.4,4.8,10.6,5.6c3.6,0.7,10,0,11.8-3.7c0,0,0,0,0,0c-1.6,4-7.4,4.7-11.1,4.4         c-4.5-0.4-9.3-2.1-11.5-6.2C96.2,102.8,96.3,102.8,96.4,102.9z" />
                    <path class="st16"
                        d="M98,103.2c2.8,2.9,6.2,3.8,10.2,4.1c3.7,0.3,7.4-0.4,9.9-3.4c0,0,0,0,0,0         C113.6,110.4,102.4,108.8,98,103.2C97.8,103.2,97.9,103.2,98,103.2z" />
                    <path class="st16"
                        d="M97.9,100.8c2.2,3,5.7,4.2,9.2,4.7c2.9,0.4,6.9,0.2,9.1-1.9c0,0,0,0,0,0c-2.3,2.5-6.4,2.6-9.6,2.1         c-3.5-0.5-6.8-2-8.8-4.9C97.7,100.8,97.9,100.8,97.9,100.8z" />
                    <path class="st16"
                        d="M100,100.2c3.7,2.9,10.9,4.9,14.8,1.4c0,0,0,0,0,0C111,105.7,103.4,103.9,100,100.2         C99.9,100.2,99.9,100.2,100,100.2z" />
                    <path class="st16"
                        d="M97.5,82.6c2.7-3.9,7.8-3.8,11.5-1.4c0,0,0,0.1,0,0.1c-4.5-2.6-9.5-1.3-11.9,3.2         c-2.2,4-2.6,8.6-2.6,13.1c0,0,0,0,0,0C94.3,92.3,94.4,87,97.5,82.6z" />
                    <path class="st16"
                        d="M124.4,60.3c4.7,4.7,8.4,10.2,9,17c0,0.1-0.1,0-0.1,0C131.9,71,128.6,65.1,124.4,60.3         C124.4,60.3,124.4,60.3,124.4,60.3z" />
                    <path class="st16"
                        d="M123.7,62.5c4.7,4.7,8.9,10.2,9.8,16.9c0,0.1-0.1,0.1-0.1,0C131.3,73.1,128.1,67.4,123.7,62.5         C123.6,62.5,123.7,62.4,123.7,62.5z" />
                    <path class="st16"
                        d="M120.2,68.3c3.2,3.6,6.2,7.9,8.1,12.5c-1.7-4.2-3.7-8.2-6-12.2c0,0,0,0,0,0c4.5,5.9,7.8,12,8.7,19.5         c0,0.1-0.1,0.1-0.1,0c-0.6-2.1-1.3-4.2-2.1-6.2c1,2.7,1.6,5.4,1.7,8.1c0,0.1-0.1,0-0.1,0c-0.5-3.7-2.1-7.5-3.8-10.9         C124.7,75.4,122.8,71.6,120.2,68.3C120.2,68.3,120.2,68.3,120.2,68.3z" />
                    <path class="st16"
                        d="M124.8,67.4c2,2.2,3.8,4.4,5.1,7.1c0.7,1.4,1.4,2.9,2,4.4c0.6,1.4,0.7,3,1.1,4.4c0,0.1-0.1,0.1-0.1,0         C130.8,77.7,128.2,72.3,124.8,67.4C124.7,67.4,124.8,67.4,124.8,67.4z" />
                    <path class="st16"
                        d="M126,70.5c3.4,3.7,5.8,9.3,6.3,14.3c0,0.2-0.2,0.1-0.2,0C130.3,80,128.8,74.7,126,70.5         C125.9,70.5,125.9,70.5,126,70.5z" />
                    <path class="st16"
                        d="M113.6,123c3.7-3.5,6.5-8.2,8.9-12.7c2.2-4.3,4.5-8.7,6-13.3c0,0,0,0,0,0c-1.2,4.7-3.3,9.3-5.6,13.6         C120.5,115,117.7,119.9,113.6,123C113.6,123.1,113.6,123.1,113.6,123z" />
                    <path class="st16"
                        d="M114.7,121.4c2.6-3.9,5.1-7.9,6.9-12.2c1-2.3,2.1-4.5,3-6.8c1.1-2.8,1.8-5.5,2.6-8.4c0,0,0,0,0,0         c-0.5,2.5-0.6,5-1.4,7.5c-0.9,2.7-2,5.2-3.2,7.8c-2.1,4.5-4.8,8.4-7.9,12.2C114.8,121.6,114.7,121.5,114.7,121.4z" />
                    <path class="st16"
                        d="M89.8,108.4c1,0.8,2.1,1.6,3.1,2.5c0.5,0.4,1,0.8,1.5,1.2c0.5,0.4,0.7,0.9,1.3,1.3c0,0,0,0.1,0,0.1         c-0.3-0.1-0.5-0.3-0.7-0.6c-0.6-0.6-1.3-1.1-2.1-1.6c-1.1-0.7-2.2-1.7-3.2-2.6C89.4,108.5,89.6,108.2,89.8,108.4z" />
                    <path class="st16"
                        d="M89.4,106.9c1.9,1.4,4,2.9,5.6,4.6c0,0,0,0.1,0,0.1c-1.9-1.5-4-2.7-5.8-4.4         C89,107,89.1,106.8,89.4,106.9z" />
                    <path class="st16"
                        d="M89.4,105.5c0.7,0.4,1.3,0.8,2,1.3c0.7,0.5,1.4,1.1,2.1,1.6c0,0,0,0,0,0c-0.8-0.4-1.5-0.9-2.2-1.3         c-0.7-0.4-1.4-0.8-2-1.4C89.2,105.6,89.3,105.5,89.4,105.5z" />
                    <path class="st16"
                        d="M88.9,102.2c1.1,0.5,2,1.2,3,2c0.4,0.3,0.8,0.6,1.1,1c0.2,0.1,0.8,0.9,0.9,1c0,0,0,0,0,0         c0,0,0.1,0,0.1,0c0,0,0,0,0,0c0,0,0,0.1,0,0.1s0,0.1,0,0c-1.7-1.3-3.6-2.3-5.3-3.6C88.6,102.4,88.6,102,88.9,102.2z" />
                    <path class="st16"
                        d="M89.3,101.4c0.6,0.3,1.2,0.6,1.8,1c0.6,0.4,1.2,0.9,1.7,1.3c0,0,0,0.1,0,0.1c-1.2-0.6-2.5-1.2-3.5-2.1         C89.1,101.6,89.1,101.3,89.3,101.4z" />
                </g>
            </g>
        </g>
        <g>
            <g class="st19">
                <path class="st20"
                    d="M81.3,46.1c-3.7-3.3-8.8-4.3-13.6-3.8c0,0,0,0,0,0c4.5,0,9.4,1.6,12.9,4.5c3.6,2.9,6,8,7.1,12.5        c0,0.1,0.2,0,0.2-0.1C87.1,54.5,85,49.4,81.3,46.1z" />
                <path class="st20"
                    d="M80.1,47c-2.6-2.1-5.4-2.9-8.5-3.5c0,0,0,0,0,0c3,0.9,5.6,2.1,8.1,4c2.5,1.9,4,4.6,5.7,7.2        c0,0.1,0.2,0,0.1-0.1C84.1,51.6,82.7,49.1,80.1,47z" />
                <path class="st20"
                    d="M85,46.1c-0.8-1.5-1.7-3.1-2.8-4.4c-1.2-1.5-2.7-2.3-4.5-3c0,0,0,0,0,0c3,1.8,4.8,5,6.4,8        c1.9,3.6,3.5,7.3,4.2,11.3c0,0.1,0.2,0,0.1-0.1C88.1,53.7,86.9,49.9,85,46.1z" />
                <path class="st20"
                    d="M71.1,39.9C71.1,39.9,71,40,71.1,39.9c2.4,0.3,4,1.3,6.1,2.4c1.9,1,3.6,2.1,5,3.7c0,0,0.1,0,0-0.1        C79.5,42.5,75.7,39.7,71.1,39.9z" />
                <path class="st20"
                    d="M86,43.7c-0.6-1.4-1.3-2.8-2.2-3.9c-0.9-1.1-2.1-1.7-3.3-2.4c0,0-0.1,0,0,0c2.2,2,3.6,4,4.9,6.8        c1.4,3.2,2.2,6.3,3.1,9.6c0,0.1,0.1,0,0.1-0.1C88,50.4,87.4,46.9,86,43.7z" />
                <path class="st20"
                    d="M95.4,46.1c3.7-3.3,8.8-4.3,13.6-3.8c0,0,0,0,0,0c-4.5,0-9.4,1.6-12.9,4.5c-3.6,2.9-6,8-7.1,12.5        c0,0.1-0.2,0-0.2-0.1C89.6,54.5,91.8,49.4,95.4,46.1z" />
                <path class="st20"
                    d="M96.6,47c2.6-2.1,5.4-2.9,8.5-3.5c0,0,0,0,0,0c-3,0.9-5.6,2.1-8.1,4c-2.5,1.9-4,4.6-5.7,7.2        c0,0.1-0.2,0-0.1-0.1C92.7,51.6,94,49.1,96.6,47z" />
                <path class="st20"
                    d="M91.7,46.1c0.8-1.5,1.7-3.1,2.8-4.4c1.2-1.5,2.7-2.3,4.5-3c0,0,0,0,0,0c-3,1.8-4.8,5-6.4,8        c-1.9,3.6-3.5,7.3-4.2,11.3c0,0.1-0.2,0-0.1-0.1C88.7,53.7,89.8,49.9,91.7,46.1z" />
                <path class="st20"
                    d="M105.7,39.9C105.7,39.9,105.7,40,105.7,39.9c-2.4,0.3-4,1.3-6.1,2.4c-1.9,1-3.6,2.1-5,3.7        c0,0-0.1,0,0-0.1C97.2,42.5,101,39.7,105.7,39.9z" />
                <path class="st20"
                    d="M90.8,43.7c0.6-1.4,1.3-2.8,2.2-3.9c0.9-1.1,2.1-1.7,3.3-2.4c0,0,0.1,0,0,0c-2.2,2-3.6,4-4.9,6.8        c-1.4,3.2-2.2,6.3-3.1,9.6c0,0.1-0.1,0-0.1-0.1C88.8,50.4,89.4,46.9,90.8,43.7z" />
            </g>
            <path class="st21"
                d="M84.4,37C84.4,37,84.4,37,84.4,37c1,1.8,1.6,3.7,2,5.7c0.5,2,1.2,4,1.6,6.1c0,0.1,0.1,0,0.1-0.1       C87.8,44.7,87,40.2,84.4,37z" />
            <path class="st21"
                d="M87.3,36.7C87.3,36.7,87.2,36.7,87.3,36.7c0.1,0.8,0.1,1.7,0.2,2.5c0.1,1,0.2,2,0.5,3       c0,0.1,0.2,0,0.2-0.1C87.9,40.4,87.9,38.4,87.3,36.7z" />
            <path class="st21"
                d="M92.4,37.3c-2.8,2.8-3.9,6.8-4,10.6c0,0.1,0.1,0,0.1,0C89.2,44.3,90.2,40.3,92.4,37.3       C92.5,37.3,92.5,37.3,92.4,37.3z" />
        </g>
    </g>
</svg>