<svg version="1.1" id="Layer_1" xmlns="http://www.w3.org/2000/svg" xmlns:xlink="http://www.w3.org/1999/xlink" x="0px"
    y="0px" viewBox="0 0 256.5 381" style="enable-background:new 0 0 256.5 381;" xml:space="preserve">
    <g transform="translate(35,-11)">
        <style type="text/css">
            .st13 {
                fill: #D12C32;
            }

            .st15 {
                fill: #E3E0D7;
            }
        </style>
        <path class="st13"
            d="M64.6,327.3c0,0-10,5-13.3,6.3c0,0-4.5,0.9-2.4,2c0,0,0.2,0.4,1.5,0.1c1.2-0.3,15-6.9,15-6.9         s2.5-0.7,0.7,0.9c-1.9,1.6-11.2,6.9-11.2,6.9s-0.7,1.1,2,0.5c2.7-0.5,12.6-7.4,12.6-7.4s2.1-1,0.8,0.8         c-1.3,1.7-10.8,6.1-9.3,6.5c1.5,0.4,11.4-6.1,11.4-6.1s2.1-1.3,1.2-0.1c-0.9,1.2-8.9,6.1-7.4,6.5c1.5,0.4,8.6-4.9,11.3-4.8         c2.7,0.1,5.8,0.6,6.8-1.6c1-2.2-1.3-7.1-1.3-7.1s-0.5-0.8-0.7,0s-2.2,4.5-3,4.7c-0.8,0.2-4.4,1.1-5.3-0.8         c-0.9-1.9,0.4-2.5-0.9-1.9C71.7,326.3,69.4,328.3,64.6,327.3z" />
        <path class="st15"
            d="M84.6,327.9l-0.3-0.6c-1.8-0.3-7.6,0-11.8,0.3c1.7-0.6,3.1-1.5,4.1-2.2c3.4,0.1,6.8-0.1,7-1l-0.4-3.6         c0,0,0.1-0.4-0.6-0.5s-8.4,0-10.6-0.6c-2.2-0.6-2.3-2-2.7-1.3c0,0,0,4.3-1,5.5c0,0-0.9,0.4,1.2,0.9c0.8,0.2,3.1,0.4,5.5,0.5         c-4.9,2.2-10.5,1.6-10.5,1.6l-1.4,0.9c2.1,0.6,4.1,0.7,5.9,0.5C73.6,329.5,84.6,327.9,84.6,327.9z" />
        <path class="st13"
            d="M111.5,327.3c0,0,10,5,13.3,6.3c0,0,4.5,0.9,2.4,2c0,0-0.2,0.4-1.5,0.1c-1.2-0.3-15-6.9-15-6.9         s-2.5-0.7-0.7,0.9c1.9,1.6,11.2,6.9,11.2,6.9s0.7,1.1-2,0.5c-2.7-0.5-12.6-7.4-12.6-7.4s-2.1-1-0.8,0.8         c1.3,1.7,10.8,6.1,9.3,6.5c-1.5,0.4-11.4-6.1-11.4-6.1s-2.1-1.3-1.2-0.1c0.9,1.2,8.9,6.1,7.4,6.5c-1.5,0.4-8.6-4.9-11.3-4.8         c-2.7,0.1-5.8,0.6-6.8-1.6c-1-2.2,1.3-7.1,1.3-7.1s0.5-0.8,0.7,0s2.2,4.5,3,4.7c0.8,0.2,4.4,1.1,5.3-0.8         c0.9-1.9-0.4-2.5,0.9-1.9C104.4,326.3,106.7,328.3,111.5,327.3z" />
        <path class="st15"
            d="M91.5,327.9l0.3-0.6c1.8-0.3,7.6,0,11.8,0.3c-1.7-0.6-3.1-1.5-4.1-2.2c-3.4,0.1-6.8-0.1-7-1l0.4-3.6         c0,0-0.1-0.4,0.6-0.5s8.4,0,10.6-0.6c2.2-0.6,2.3-2,2.7-1.3c0,0,0,4.3,1,5.5c0,0,0.9,0.4-1.2,0.9c-0.8,0.2-3.1,0.4-5.5,0.5         c4.9,2.2,10.5,1.6,10.5,1.6l1.4,0.9c-2.1,0.6-4.1,0.7-5.9,0.5C102.5,329.5,91.5,327.9,91.5,327.9z" />
    </g>
</svg>