<svg version="1.1" id="Layer_1" xmlns="http://www.w3.org/2000/svg" xmlns:xlink="http://www.w3.org/1999/xlink" x="0px"
    y="0px" viewBox="0 0 256.5 381" style="enable-background:new 0 0 256.5 381;" xml:space="preserve">
    <g transform="translate(35,-11)">
        <style type="text/css">
            .st13 {
                fill: #D12C32;
            }

            .st14 {
                fill: #A81D2E;
            }

            .st15 {
                fill: #E3E0D7;
            }
        </style>
        <path class="st13" d="M48.5,180.5l2.7-2.3c0,0-3.5,6.8-4.6,8.5C45.4,188.4,47.8,183.2,48.5,180.5z" />

        <path class="st13"
            d="M42.2,185.1c-0.6-1.2-2,1.2-2.3,1.7c-1.6,2.8-2.6,5.9-3.9,8.8c-2.7,6.5-4.1,13.3-5.6,20.2         c-0.2,0.6-0.5,1.3,0,1.7c0.5,0.4,1.1-0.5,1.3-0.8c1.1-1.6,1.9-3.6,2.7-5.3c1-2.1,2.1-4.3,2.9-6.5c1.4-3.9,2.8-7.8,4.1-11.8         C41.7,192.1,43.6,186.2,42.2,185.1z" />
        <path class="st14"
            d="M47.4,181.8c-0.1-0.1-0.3-0.1-0.4-0.1c-0.7,0.2-2.8,2.1-3.3,2.7c-0.5,0.7-0.6,1.6-0.7,2.4         c-0.3,3.8-1.5,7.5-2.7,11.1c-0.3,1-0.7,2-1,3c-1,2.9-2.1,5.9-3.4,8.7c-0.8,1.9-1.7,3.7-2.5,5.6c-0.6,1-1.8,2.7-0.9,3         c0.2,0.1,1-1.3,1.1-1.4c1.2-1.9,2.3-4,3.2-6.1c0.6-1.4,1.1-2.8,1.5-4.1c2-4.3,3.7-8.9,5.3-13.4c1-2.8,2.2-5.4,3.2-8.2         C46.8,184.6,47.8,182.1,47.4,181.8z" />
        <path class="st15"
            d="M47.6,181.9c-0.4-0.9-2.4,0.9-2.8,1.2c-0.7,0.5-1.3,1-1.8,1.8c-0.2,0.4,0,1.2,0.1,1.8          c-0.2,1.2-0.5,2.4-0.7,3.6c0,0.1,0.1,0.2,0.2,0.1c1.3-0.6,2.3-2.4,3.1-3.5c0.6-0.9,1.1-1.9,1.5-2.9          C47.3,183.4,47.8,182.3,47.6,181.9z" />
        <path class="st14"
            d="M39.6,204.6c0,0-3.1,9.9-3.5,14.5c0,0-0.3,0.7-0.7,0.6c-0.4-0.1-1.9-1.4-1.9-1.4s3.3-6.9,4.4-10.3         C39,204.6,39.7,204.1,39.6,204.6z" />

        <path class="st13" d="M127.6,180.5l-2.7-2.3c0,0,3.5,6.8,4.6,8.5C130.7,188.4,128.3,183.2,127.6,180.5z" />
        <path class="st14"
            d="M129.5,185c1,2.8,2.2,5.4,3.2,8.2c1.6,4.5,3.3,9.1,5.3,13.4c0.5,1.4,1,2.8,1.5,4.1         c0.9,2.1,2,4.2,3.2,6.1c0,0.1,0.8,1.4,1.1,1.4c0.9-0.3-0.3-2-0.9-3c-0.8-1.9-1.7-3.7-2.5-5.6c-1.2-2.9-2.3-5.8-3.4-8.7         c-0.4-1-0.7-2-1-3c-1.2-3.6-2.4-7.3-2.7-11.1c-0.1-0.8-0.2-1.7-0.7-2.4c-0.5-0.6-2.6-2.4-3.3-2.7c-0.1-0.1-0.4,0-0.4,0.1         C128.3,182.1,129.3,184.6,129.5,185z" />
        <path class="st13"
            d="M134.8,193.2c1.2,4,2.7,7.9,4.1,11.8c0.8,2.2,1.9,4.4,2.9,6.5c0.8,1.8,1.6,3.7,2.7,5.3         c0.2,0.3,0.8,1.2,1.3,0.8c0.4-0.4,0.2-1.1,0-1.7c-1.4-6.8-2.9-13.7-5.6-20.2c-1.2-3-2.3-6-3.9-8.8c-0.3-0.6-1.7-3-2.3-1.7         C132.5,186.2,134.4,192.1,134.8,193.2z" />
        <path class="st15"
            d="M128.9,183.8c0.4,1,0.8,2.1,1.5,2.9c0.8,1.1,1.9,2.9,3.1,3.5c0.1,0.1,0.2,0,0.2-0.1          c-0.2-1.2-0.6-2.4-0.7-3.6c0.1-0.6,0.3-1.4,0.1-1.8c-0.4-0.7-1.1-1.3-1.8-1.8c-0.3-0.2-2.4-2-2.8-1.2          C128.3,182.3,128.8,183.4,128.9,183.8z" />
        <path class="st14"
            d="M136.5,204.6c0,0,3.1,9.9,3.5,14.5c0,0,0.3,0.7,0.7,0.6c0.4-0.1,1.9-1.4,1.9-1.4s-3.3-6.9-4.4-10.3         C137.1,204.6,136.4,204.1,136.5,204.6z" />
    </g>
</svg>