<svg version="1.1" id="Layer_1" xmlns="http://www.w3.org/2000/svg" xmlns:xlink="http://www.w3.org/1999/xlink" x="0px"
    y="0px" viewBox="0 0 256.5 381" style="enable-background:new 0 0 256.5 381;" xml:space="preserve">
    <g transform="translate(35,-11)">
        <style type="text/css">
            .st13 {
                fill: #D12C32;
            }

            .st15 {
                fill: #E3E0D7;
            }
        </style>
        <path class="st13"
            d="M36.7,229.8c0,0-1.1-1.1-2.7-0.3s-2.8,4.3-2.7,8c0.1,3.7,2,6.9,1.1,7.4c-0.9,0.5-3.4-3.3-2.7-12         c0,0,0-1.5-0.4-0.4c-0.5,1.1-0.4,7,0.5,10.7c0,0,0.2,0.6-0.5,0.9s-2.7-2.1-2.9-5.7c-0.1-3.6-0.1-7.6,0.2-9         c0,0-2,5.1-0.9,11.3c0,0,0.3,0.9,0,1c-0.4,0.1-2.2-1.7-2.6-5.8c-0.4-4,0.5-7,0.5-7s-1.3,2.1-1.1,5.6s-0.1,3-0.6,2.9         S20,231.7,22,227s6.3-8.7,7.2-8.9c1-0.2,6.9,2.4,8,4.4c1.2,2,2.9,6.1,2.1,10.9s-1.7,4.1-1.8,2.9         C37.4,235.2,37.9,231.9,36.7,229.8z" />
        <path class="st15"
            d="M37.1,228.1c-0.2-0.6-0.5-1.3-0.7-2c-0.1-0.5-0.2-1.1-0.3-1.6c-0.1-0.8-0.1-1.6-0.1-2.5c0,0,0,0,0,0          c0-1.1,0.1-2.1,0.4-3.2c-0.3-0.6-1.3-1.1-1.8-1.5c-0.6-0.5-1.6-0.8-2.3-1.1c-0.5-0.2-1.2-0.7-1.8-0.5c0,0,0,0-0.1,0          c-0.5,1.1-1.3,1.9-2.1,2.8c0,0.1,0,0.1,0,0.2c-0.1,0.1-0.1,0.1-0.2,0.2c-0.3,0.3-0.6,0.6-0.9,0.9c-0.1,0.1-0.2,0.2-0.3,0.3          c-1.5,1.4-2.8,2.9-3.7,4.7c-0.5,1.1-0.9,2.2-1.1,3.4c-0.2,0.9-0.4,1.8-0.4,2.6c0,0.4,0,1.1,0,1.5c0,0,0,0,0,0v0          c0,0,0,0.1,0,0.1c0,0.2,0,0.5,0,0.7c0,0.1,0.2,0,0.2-0.1c0-0.3,0-0.5,0-0.8v0c0.5-3.4,1.7-6.6,4.2-9.1c0,0,0.1-0.1,0.1-0.1          c0.3,0,0.3,0.2,0.4,0.4c-2,3.4-2.8,7.5-2.4,11.6c0,0.5,0.1,1.1,0.3,1.6c0,0,0,0.1,0,0.1c0,0.2,0.1,0.4,0.1,0.7          c0,0.1,0.2,0,0.2-0.1c0-0.2-0.1-0.5-0.1-0.7c0.1-0.6,0-2,0-2c0-2.1,0.8-4.2,1.5-6.2c0.8-2.4,2.3-4.5,3.8-6.5          c0.2-0.1,0.3,0,0.4,0.2c0,0,0,0.1,0,0.1c-0.7,1.3-1.4,2.6-1.9,4.1c-0.6,1.7-1,3.6-1,5.4c-0.2,2.2,0,4.4,0.7,6.6          c0,0.1,0.1,0,0.1-0.1c-0.7-3.7,0.3-7.9,1.8-11.4c0.6-1.3,1.3-2.5,1.9-3.8c0.1,0.1,0.2,0.2,0.3,0.4c-0.6,3-1.6,5.9-1.8,8.9          c-0.3,1.8-0.4,3.6,0,5.4c0,0.1,0.2,0,0.2-0.1c-0.1-3.3,1-7.1,2.3-10.1c0.4-0.9,0.7-1.7,0.9-2.6c0.1-0.3,0.2-0.6,0.4-0.9          c0.2-0.1,0.4,0.1,0.5,0.3c0.1,0.3,0.2,0.5,0.3,0.8c0.1,0.5,0.3,1.1,0.5,1.6c1,2.8,2.2,5.2,2.4,8.3c0,0.1,0.1,0,0.1,0          C38.2,232.5,38,230.4,37.1,228.1z" />
        <path class="st13"
            d="M139.4,229.8c0,0,1.1-1.1,2.7-0.3s2.8,4.3,2.7,8c-0.1,3.7-2,6.9-1.1,7.4c0.9,0.5,3.4-3.3,2.7-12         c0,0,0-1.5,0.4-0.4c0.5,1.1,0.4,7-0.5,10.7c0,0-0.2,0.6,0.5,0.9s2.7-2.1,2.9-5.7c0.1-3.6,0.1-7.6-0.2-9c0,0,2,5.1,0.9,11.3         c0,0-0.3,0.9,0,1c0.4,0.1,2.2-1.7,2.6-5.8c0.4-4-0.5-7-0.5-7s1.3,2.1,1.1,5.6c-0.1,3.5,0.1,3,0.6,2.9s1.8-5.5-0.1-10.2         s-6.3-8.7-7.2-8.9c-1-0.2-6.9,2.4-8,4.4c-1.2,2-2.9,6.1-2.1,10.9s1.7,4.1,1.8,2.9C138.7,235.2,138.2,231.9,139.4,229.8z" />
        <path class="st15"
            d="M138.1,235c0,0,0.1,0.1,0.1,0c0.1-3.1,1.3-5.4,2.4-8.3c0.2-0.5,0.4-1,0.5-1.6c0.1-0.3,0.2-0.5,0.3-0.8          c0.1-0.2,0.4-0.4,0.5-0.3c0.1,0.3,0.2,0.6,0.4,0.9c0.2,0.8,0.5,1.7,0.9,2.6c1.3,3,2.4,6.9,2.3,10.1c0,0.1,0.1,0.2,0.2,0.1          c0.4-1.8,0.4-3.6,0-5.4c-0.2-3-1.2-5.9-1.8-8.9c0-0.2,0.1-0.3,0.3-0.4c0.6,1.3,1.4,2.5,1.9,3.8c1.5,3.4,2.5,7.7,1.8,11.3          c0,0,0.1,0.1,0.1,0.1c0.7-2.2,0.9-4.4,0.7-6.6c0-1.8-0.4-3.7-1-5.4c-0.5-1.4-1.2-2.8-1.9-4.1c0,0,0-0.1,0-0.1          c0-0.2,0.2-0.3,0.4-0.2c1.5,2,3,4.1,3.8,6.5c0.7,1.9,1.4,4.1,1.5,6.2c0,0-0.1,1.4,0,2c0,0.2-0.1,0.5-0.1,0.7          c0,0.1,0.1,0.2,0.2,0.1c0.1-0.2,0.1-0.4,0.1-0.7c0,0,0-0.1,0-0.1c0.1-0.5,0.2-1.1,0.3-1.6c0.3-4.1-0.4-8.1-2.4-11.6          c0.1-0.2,0.1-0.3,0.4-0.4c0,0,0.1,0.1,0.1,0.1c2.4,2.6,3.6,5.7,4.2,9.1v0c0,0.3,0,0.5,0,0.8c0,0.1,0.2,0.1,0.2,0.1          c0-0.2,0-0.5,0-0.7c0,0,0-0.1,0-0.1v0c0,0,0,0,0,0c0-0.4,0.1-1.1,0-1.5c0-0.9-0.2-1.8-0.4-2.6c-0.2-1.2-0.6-2.3-1.1-3.4          c-0.9-1.8-2.2-3.3-3.7-4.7c-0.1-0.1-0.2-0.2-0.3-0.3c-0.3-0.3-0.6-0.6-0.9-0.9c-0.1-0.1-0.1-0.1-0.2-0.2c0-0.1,0-0.1,0-0.2          c-0.8-0.9-1.6-1.7-2.1-2.8c0,0,0,0-0.1,0c-0.6-0.2-1.3,0.3-1.8,0.5c-0.7,0.3-1.7,0.6-2.3,1.1c-0.5,0.4-1.5,0.9-1.8,1.5          c0.2,1.1,0.3,2.1,0.4,3.2c0,0,0,0,0,0c-0.1,0.8-0.1,1.7-0.1,2.5c0,0.5-0.1,1.1-0.3,1.6c-0.2,0.7-0.5,1.3-0.7,2          C138,230.4,137.9,232.5,138.1,235z" />
    </g>
</svg>