<svg version="1.1" id="Layer_1" xmlns="http://www.w3.org/2000/svg" xmlns:xlink="http://www.w3.org/1999/xlink" x="0px"
    y="0px" viewBox="0 0 256.5 381" style="enable-background:new 0 0 256.5 381;" xml:space="preserve">
    <g transform="translate(35,-11)">
        <style type="text/css">
            .st13 {
                fill: #D12C32;
            }

            .st14 {
                fill: #A81D2E;
            }

            .st15 {
                fill: #E3E0D7;
            }

            .st16 {
                opacity: 0.7;
                fill: #D12C32;
                enable-background: new;
            }
        </style>
        <path class="st13"
            d="M71.2,232.7c1-1.6,1.9-3.1,2.7-4.7c-0.5-0.9-1.1-1.9-1.5-2.9c0,0-2.7-6.1-3.3-4.8s-1.9,2.9-0.5,6.6         C69,227.8,69.9,230,71.2,232.7z" />
        <path class="st13"
            d="M76.9,232.7c-0.2-1-0.9-1.6-1.4-2.4c-0.2-0.3-0.7-1.3-1.2-1.4c-0.9-0.1-2.3,3.2-2.5,3.8         c-0.4,1,0.4,2.1,0.9,3c0.3,0.6,0.5,1.2,0.8,1.8c0.1,0.3,0.5,1.6,0.8,1.7c0,0,0.1,0,0.1,0.1c0.8,1.1,1.2-0.9,1.4-1.4         c0.3-0.9,0.6-1.7,0.8-2.6C76.8,234.5,77.1,233.6,76.9,232.7z" />
        <path class="st13"
            d="M76.1,243.1c0.2,0.4,0.4,0.8,0.6,1.2c0.1,0.1,0.2,0.3,0.3,0.5c0.2,0.3,0.8,1.2,1.3,1.4         c0.6-2.8,1.1-5.7,1.5-8.5c0-0.5-0.1-1-0.3-1.5c-0.2-0.6-1.1-2.7-2-2.1c-0.6,2.4-1.3,4.7-2,7.1         C75.7,241.8,75.9,242.4,76.1,243.1z" />
        <path class="st13"
            d="M83.5,240.6c0,0-0.3-1.3-1.2-2.5c-0.2-0.2-0.5-0.5-0.9-1c-0.1,0-0.2-0.1-0.3-0.1c-0.2,0-0.4,0-0.5,0.1         c-0.5,3.4-1.1,6.7-1.8,10.1c0,0.7,0.2,1.3,0.4,1.9c1.7,3.3,3,5.5,3.2,5.5C83.3,254.4,83.7,244.5,83.5,240.6z" />
        <path class="st13"
            d="M64,219.1c0,0-1.2-2-1.6,0c-0.4,2,2.5,8.9,3.6,11.4C67.1,233,79.2,258.1,82,266c0,0,0.4,1.3,0.9,0.3         s0.3-8.4-1.2-11.2C80.2,252.3,64,219.1,64,219.1z" />
        <path class="st13"
            d="M82.5,269.5C82.5,269.5,82.5,269.4,82.5,269.5c-0.1-0.5-0.4-1.3-0.8-2.3c-0.2-0.2-0.5-0.3-0.8-0.3          c-0.9,1.2-2.3,5.4-2.8,7c-0.6,1.9-1.4,2.8-1.4,2.8c-1.5,0.8-1-1.5-1-1.5c0.3-5.7-1.8-24.1-2.1-26.4          c-4.1-9-8.1-17.6-8.1-17.6s-1-1.8-1.4,0.4c-0.4,2.2-1.4,11.1,1.1,21.2c2.5,10.1,7.8,24.1,7.6,24.7s-4.7-4.5-6.8-10.3          c-0.7-2.1-1.3-0.5-0.8,1c0.2,0.7,1.7,5.3,3.4,11.1c0.8,1.6,3.1,5.6,5.5,5.5c3-0.1,5.8-4.4,7-9.2c0-0.2,0.1-0.4,0.2-0.6          c0-0.2,0.1-0.5,0.1-0.7C82.1,272.6,82.5,271.1,82.5,269.5z" />
        <path class="st14"
            d="M64.4,250.9c0,0-0.7-3.2-0.8-0.3c-0.1,2.9,1.8,13.8,3.1,16.5c1.3,2.8,4.8,9.5,5.4,9.1         C72.7,275.8,66.6,261.5,64.4,250.9z" />
        <path class="st14"
            d="M76.2,273.9c0,0-0.2,1.4,0.2,1.7c1.2,0.1,2-3.7,2.3-4.8c0.7-2.3,1.9-4.3,1.8-6.8c0-0.2-0.1-0.5-0.1-0.8         v0c-1.6-4-3.9-8.4-6.2-13.7C74.5,251.9,76.5,268.5,76.2,273.9z" />
        <path class="st16"
            d="M79.4,263.8C79.4,263.8,79.3,263.8,79.4,263.8C79.3,263.8,79.3,263.9,79.4,263.8         c-0.9,0-2.6,9.6-2.8,10.5c0,0.1,0.1,0.1,0.2,0C77.8,270.9,78.9,267.4,79.4,263.8C79.4,263.8,79.4,263.8,79.4,263.8z" />
        <path class="st16"
            d="M77.9,259.7C77.9,259.7,77.9,259.7,77.9,259.7c-0.2,1.2-0.6,2.4-0.9,3.5c0.1-1.5,0.1-3,0.2-4.6         c0,0,0,0,0,0c-0.5,3.3-0.8,6.4-0.6,9.7c0,0.3,0,0.6,0,0.9c0,0.1,0.1,0,0.1,0c0,0,0-0.1,0-0.1c0,0,0.1,0,0.1-0.1         c0-0.2,0-0.4,0-0.6C77.2,265.5,77.8,262.6,77.9,259.7z" />
        <path class="st16"
            d="M70.8,273.3c0,0,0.1-0.1,0.1-0.1c-1.7-5.2-3.4-10.4-5.4-15.5c0,0-0.1,0-0.1,0c0.9,3.2,1.8,6.4,2.9,9.6         c-0.9-2-1.7-4-2.5-6c0,0,0,0,0,0c1.4,4.5,2.7,8.9,5.1,13c0.1,0.1,0.2,0,0.2-0.1C71.1,273.9,71,273.6,70.8,273.3z" />

        <path class="st13"
            d="M104.9,232.7c-1-1.6-1.9-3.1-2.7-4.7c0.5-0.9,1.1-1.9,1.5-2.9c0,0,2.7-6.1,3.3-4.8s1.9,2.9,0.5,6.6         C107.1,227.8,106.2,230,104.9,232.7z" />
        <path class="st13"
            d="M99.2,232.7c0.2-1,0.9-1.6,1.4-2.4c0.2-0.3,0.7-1.3,1.2-1.4c0.9-0.1,2.3,3.2,2.5,3.8         c0.4,1-0.4,2.1-0.9,3c-0.3,0.6-0.5,1.2-0.8,1.8c-0.1,0.3-0.6,1.6-0.8,1.7c0,0-0.1,0-0.1,0.1c-0.8,1.1-1.2-0.9-1.4-1.4         c-0.3-0.9-0.6-1.7-0.8-2.6C99.3,234.5,99,233.6,99.2,232.7z" />
        <path class="st13"
            d="M100,243.1c-0.2,0.4-0.4,0.8-0.6,1.2c-0.1,0.1-0.2,0.3-0.3,0.5c-0.2,0.3-0.8,1.2-1.3,1.4         c-0.6-2.8-1.1-5.7-1.5-8.5c0-0.5,0.1-1,0.3-1.5c0.2-0.6,1.1-2.7,2-2.1c0.6,2.4,1.3,4.7,2,7.1         C100.4,241.8,100.2,242.4,100,243.1z" />
        <path class="st13"
            d="M92.6,240.6c0,0,0.3-1.3,1.2-2.5c0.2-0.2,0.5-0.5,0.9-1c0.1,0,0.2-0.1,0.3-0.1c0.2,0,0.4,0,0.5,0.1         c0.5,3.4,1.1,6.7,1.8,10.1c0,0.7-0.2,1.3-0.4,1.9c-1.7,3.3-3,5.5-3.2,5.5C92.8,254.4,92.4,244.5,92.6,240.6z" />
        <path class="st13"
            d="M112.1,219.1c0,0,1.2-2,1.6,0c0.4,2-2.5,8.9-3.6,11.4C109,233,96.9,258.1,94.1,266c0,0-0.4,1.3-0.9,0.3         s-0.3-8.4,1.2-11.2C95.9,252.3,112.1,219.1,112.1,219.1z" />
        <path class="st13"
            d="M93.6,269.5C93.6,269.5,93.6,269.4,93.6,269.5c0.1-0.5,0.4-1.3,0.8-2.3c0.2-0.2,0.5-0.3,0.8-0.3          c0.9,1.2,2.3,5.4,2.8,7c0.6,1.9,1.4,2.8,1.4,2.8c1.5,0.8,1-1.5,1-1.5c-0.3-5.7,1.8-24.1,2.1-26.4c4.1-9,8.1-17.6,8.1-17.6          s1-1.8,1.4,0.4c0.4,2.2,1.4,11.1-1.1,21.2c-2.5,10.1-7.8,24.1-7.6,24.7s4.7-4.5,6.8-10.3c0.8-2.1,1.3-0.5,0.8,1          c-0.2,0.7-1.7,5.3-3.4,11.1c-0.8,1.6-3.1,5.6-5.5,5.5c-3.1-0.1-5.9-4.4-7-9.2c0-0.2-0.1-0.4-0.2-0.6c0-0.2-0.1-0.5-0.1-0.7          C94,272.6,93.6,271.1,93.6,269.5z" />
        <path class="st14"
            d="M99.9,273.9c0,0,0.2,1.4-0.2,1.7c-1.2,0.1-2-3.7-2.4-4.8c-0.7-2.3-1.9-4.3-1.8-6.8         c0-0.2,0.1-0.5,0.1-0.8v0c1.6-4,3.9-8.4,6.2-13.7C101.6,251.9,99.5,268.5,99.9,273.9z" />
        <path class="st14"
            d="M111.7,250.9c0,0,0.7-3.2,0.8-0.3c0.1,2.9-1.8,13.8-3.1,16.5s-4.8,9.5-5.4,9.1         C103.4,275.8,109.5,261.5,111.7,250.9z" />
        <path class="st16"
            d="M96.7,263.8C96.7,263.8,96.8,263.8,96.7,263.8C96.8,263.8,96.8,263.9,96.7,263.8         c0.9,0,2.6,9.6,2.8,10.5c0,0.1-0.1,0.1-0.2,0C98.3,270.9,97.2,267.4,96.7,263.8C96.7,263.8,96.7,263.8,96.7,263.8z" />
        <path class="st16"
            d="M98.1,259.7C98.1,259.7,98.2,259.7,98.1,259.7c0.2,1.2,0.6,2.4,0.9,3.5c-0.1-1.5-0.1-3-0.2-4.6         c0,0,0,0,0,0c0.5,3.3,0.8,6.4,0.6,9.7c0,0.3,0,0.6,0,0.9c0,0.1-0.1,0-0.1,0c0,0,0-0.1,0-0.1c0,0-0.1,0-0.1-0.1         c0-0.2,0-0.4,0-0.6C98.9,265.5,98.3,262.6,98.1,259.7z" />
        <path class="st16"
            d="M105.2,273.3c0,0-0.1-0.1-0.1-0.1c1.7-5.2,3.4-10.4,5.3-15.5c0,0,0.1,0,0.1,0c-0.9,3.2-1.8,6.4-2.9,9.6         c0.9-2,1.7-4,2.5-6c0,0,0,0,0,0c-1.4,4.5-2.7,8.9-5.1,13c-0.1,0.1-0.2,0-0.2-0.1C105,273.9,105.1,273.6,105.2,273.3z" />

        <path class="st15"
            d="M74.5,283.9c1,0.1,1.7-0.3,2.6-1c2.2-1.9,3.1-4.2,3.8-7c-1,2.1-2.6,4.8-5.2,5          c-3.3,0.3-5.8-2.6-7.2-5.3c-1.1-2-1.9-4.1-2.6-6.2c0.4,1.1,0.9,2.9,1.6,5c0,0,0,0,0,0.1c0.7,2.5,1.5,5.2,3.3,7.2          C71.7,282.8,73.1,283.6,74.5,283.9z" />
        <path class="st15"
            d="M101.6,283.9c-1,0.1-1.7-0.3-2.6-1c-2.2-1.9-3.1-4.2-3.8-7c1,2.1,2.6,4.8,5.2,5          c3.3,0.3,5.8-2.6,7.2-5.3c1.1-2,1.9-4.1,2.6-6.2c-0.4,1.1-0.9,2.9-1.6,5c0,0,0,0,0,0.1c-0.7,2.5-1.5,5.2-3.3,7.2          C104.4,282.8,103,283.6,101.6,283.9z" />
    </g>
</svg>