<svg version="1.1" id="Layer_1" xmlns="http://www.w3.org/2000/svg" xmlns:xlink="http://www.w3.org/1999/xlink" x="0px"
    y="0px" viewBox="0 0 256.5 381" style="enable-background:new 0 0 256.5 381;" xml:space="preserve">
    <g transform="translate(35,-11)">
        <style type="text/css">
            .st13 {
                fill: #D12C32;
            }
        </style>
        <path class="st13"
            d="M76,151.3c0,0-1.3-0.6-2,0.5c-0.7,1.1-3.9,6.7-5.5,8.2c0,0-3.1,2.3-3.1,4.9c0,2.6,0,13.8,7.1,12.9         c7.1-0.9,14-3.9,14.4-8.9s0-11.1,0-11.1s-0.5-2.8-3.4-4.2C80.7,152,76,151.3,76,151.3z">
        </path>
        <path class="st13"
            d="M100.1,151.3c0,0,1.3-0.6,2,0.5c0.7,1.1,3.9,6.7,5.5,8.2c0,0,3.1,2.3,3.1,4.9c0,2.6,0,13.8-7.1,12.9         c-7.1-0.9-14-3.9-14.4-8.9s0-11.1,0-11.1s0.5-2.8,3.4-4.2C95.4,152,100.1,151.3,100.1,151.3z">
        </path>
        <path class="st13"
            d="M72.3,149.5c-1.3-0.9-3-0.4-5.3,0.6c-2.8,1.1-5.4,3-7.6,4.9c-2.7,2.3-5.2,4.7-7.5,7.5         c-0.3,0.4-2.1,2.4-1.9,3c0.3,0.9,2.3,0.7,3,0.6c7.1-0.3,12.8-4.5,17.3-9.6C71.5,155.2,74.6,151.1,72.3,149.5z" />
        <path class="st13"
            d="M105.8,156.6c4.5,5.1,10.1,9.3,17.3,9.6c0.7,0,2.7,0.2,3-0.6c0.2-0.6-1.6-2.7-1.9-3         c-2.2-2.8-4.7-5.2-7.5-7.5c-2.3-1.9-4.9-3.8-7.6-4.9c-2.3-1-4-1.5-5.3-0.6C101.5,151.1,104.5,155.2,105.8,156.6z" />
        <path class="st13"
            d="M43.4,183.9c0.3-0.1,0.6-0.3,0.9-0.5c2.8-2.2,5.2-4.8,7.6-7.5c1.6-1.9,3.3-3.8,5-5.6         c0.4-0.4,4.2-4.3,3.3-5.3c-0.7,0.1-1.6,0.4-2.1,0.6c-1.7,0.6-3.5,0.8-5.3,0.8c-1.4,0.1-2.8,0.2-3.8,1.2         c-1.5,1.5-2.3,3.6-3.3,5.5c-1,1.9-2.2,3.8-3,5.8c-0.4,1-0.7,2-1,3.1c-0.1,0.6-0.6,1.6-0.1,2.1C42,184.6,43,184.1,43.4,183.9z         " />
        <path class="st13"
            d="M132.7,183.9c-0.3-0.1-0.6-0.3-0.9-0.5c-2.8-2.2-5.2-4.8-7.6-7.5c-1.6-1.9-3.3-3.8-5-5.6         c-0.4-0.4-4.2-4.3-3.3-5.3c0.7,0.1,1.6,0.4,2.1,0.6c1.7,0.6,3.5,0.8,5.3,0.8c1.4,0.1,2.8,0.2,3.8,1.2         c1.5,1.5,2.3,3.6,3.3,5.5c1,1.9,2.2,3.8,3,5.8c0.4,1,0.8,2,1,3.1c0.1,0.6,0.6,1.6,0.1,2.1C134,184.6,133.1,184.1,132.7,183.9         z" />
    </g>
</svg>