<svg version="1.1" id="Layer_1" xmlns="http://www.w3.org/2000/svg" xmlns:xlink="http://www.w3.org/1999/xlink" x="0px"
    y="0px" viewBox="0 0 256.5 381" style="enable-background:new 0 0 256.5 381;" xml:space="preserve">
    <g transform="translate(35,-11)">
        <style type="text/css">
            .st13 {
                fill: #D12C32;
            }

            .st14 {
                fill: #A81D2E;
            }

            .st15 {
                fill: #E3E0D7;
            }

            .st16 {
                opacity: 0.7;
                fill: #D12C32;
                enable-background: new;
            }
        </style>
        <path class="st13"
            d="M67.2,275c0,0-0.5-1-0.6,0.5c-0.1,1.5,4.4,37.1,2.4,47.9c0,0-1.1,2.1-3.2,3.1s8.8,1.2,9.1-5.6         C75.2,314.1,76.1,303.9,67.2,275z" />
        <path class="st13"
            d="M79.9,280.3c-0.3,0.6-0.6,1.1-1,1.7c-0.2,0.4-0.5,0.7-0.8,1c-1.1,1.4-2.3,2.3-3.6,2.4          c-2.5,0.1-4.4-3.1-5.2-4.6c1.8,6.1,3.3,12.1,4.5,17.9c2.3,11.3,2.4,23.6,0.8,27.5c0,0-0.4,1.4,0.9,1.8          c1.3,0.4,3.1,0.7,2.5-2.9c-0.1-0.6,0-2.5,0.2-5.2c-0.2-6.8-0.2-13.5,0.2-20.2c0.4-5.9,1.2-11.6,2-17.4          c0.1-0.9,0.2-1.9,0.4-2.8C80.5,278.7,80.1,279.9,79.9,280.3z" />
        <path class="st14"
            d="M83.1,278.1c0,0,0-4.8-0.8-3.5c-0.8,1.3-3.2,20.9-3.5,26.7c-0.3,5.8,0.3,24.7,0.5,26s3.2-3,3.6-8.3         C83.3,313.8,83.6,282.2,83.1,278.1z" />
        <path class="st16"
            d="M81.1,290.2c-1.9,7.8-1.9,15.6-1.5,23.5c0,0.1,0.1,0,0.1,0C80.2,305.9,79.8,297.9,81.1,290.2         C81.1,290.2,81.1,290.2,81.1,290.2z" />
        <path class="st16"
            d="M81.4,302.4c0.1-5.1,0.7-10.2,1-15.4c0,0,0,0,0,0c-0.7,5.2-1.7,10.2-1.7,15.5c0,5.1-0.2,10.5,0.7,15.6         c0,0.1,0.2,0,0.1-0.1C80.9,313,81.2,307.6,81.4,302.4z" />
        <path class="st16"
            d="M82.2,296.1C82.2,296.1,82.1,296.1,82.2,296.1c0,3.1-0.4,6.3-0.5,9.4c-0.1,3,0,5.9,0.1,8.8         c0,0.1,0.1,0,0.1,0c0.1-3.2,0.1-6.4,0.2-9.6C82.3,301.9,82.5,298.9,82.2,296.1z" />
        <path class="st15"
            d="M77.5,301.7c0.4-6.8,0.2-14.3,2.3-21c-0.3,0.5-0.6,1-0.9,1.5c-0.2,0.4-0.5,0.7-0.8,1          c-1.1,1.4-2.3,2.3-3.6,2.4c-1.5,0.1-2.8-1.1-3.8-2.4c3.2,7,5,14.8,5.7,22.4c0.2,2.7,0.5,5.5,0.7,8.2          C77.2,309.8,77.3,305.8,77.5,301.7z" />

        <path class="st13"
            d="M108.9,275c0,0,0.5-1,0.6,0.5c0.1,1.5-4.4,37.1-2.4,47.9c0,0,1.1,2.1,3.2,3.1s-8.8,1.2-9.1-5.6         C100.9,314.1,100,303.9,108.9,275z" />
        <path class="st13"
            d="M96.2,280.3c0.3,0.6,0.6,1.1,1,1.7c0.2,0.4,0.5,0.7,0.8,1c1.1,1.4,2.3,2.3,3.6,2.4          c2.5,0.1,4.4-3.1,5.2-4.6c-1.8,6.1-3.3,12.1-4.5,17.9c-2.3,11.3-2.4,23.6-0.8,27.5c0,0,0.4,1.4-0.9,1.8s-3.1,0.7-2.5-2.9          c0.1-0.6,0-2.5-0.2-5.2c0.2-6.8,0.2-13.5-0.2-20.2c-0.4-5.9-1.2-11.6-2-17.4c-0.1-0.9-0.2-1.9-0.4-2.8          C95.6,278.7,96,279.9,96.2,280.3z" />
        <path class="st14"
            d="M93,278.1c0,0,0-4.8,0.8-3.5c0.8,1.3,3.2,20.9,3.5,26.7c0.3,5.8-0.3,24.7-0.5,26s-3.2-3-3.6-8.3         S92.5,282.2,93,278.1z" />
        <path class="st16"
            d="M95,290.2c1.9,7.8,1.9,15.6,1.5,23.5c0,0.1-0.1,0-0.1,0C95.9,305.9,96.3,297.9,95,290.2         C95,290.2,95,290.2,95,290.2z" />
        <path class="st16"
            d="M94.7,302.4c-0.1-5.1-0.7-10.2-1-15.4c0,0,0,0,0,0c0.7,5.2,1.7,10.2,1.7,15.5c0,5.1,0.2,10.5-0.7,15.6         c0,0.1-0.2,0-0.1-0.1C95.2,313,94.9,307.6,94.7,302.4z" />
        <path class="st16"
            d="M93.9,296.1C93.9,296.1,93.9,296.1,93.9,296.1c0,3.1,0.4,6.3,0.5,9.4c0.1,3,0,5.9-0.1,8.8         c0,0.1-0.1,0-0.1,0c-0.1-3.2-0.1-6.4-0.2-9.6C93.8,301.9,93.6,298.9,93.9,296.1z" />
        <path class="st15"
            d="M98.5,301.7c-0.4-6.8-0.2-14.3-2.3-21c0.3,0.5,0.6,1,0.9,1.5c0.2,0.4,0.5,0.7,0.8,1          c1.1,1.4,2.3,2.3,3.6,2.4c1.5,0.1,2.8-1.1,3.8-2.4c-3.2,7-5,14.8-5.7,22.4c-0.3,2.7-0.5,5.5-0.7,8.2          C98.9,309.8,98.8,305.8,98.5,301.7z" />
    </g>
</svg>