<svg version="1.1" id="Layer_1" xmlns="http://www.w3.org/2000/svg" xmlns:xlink="http://www.w3.org/1999/xlink" x="0px"
    y="0px" viewBox="0 0 256.5 381" style="enable-background:new 0 0 256.5 381;" xml:space="preserve">
    <g transform="translate(35,-11)">
        <style type="text/css">
            .st13 {
                fill: #D12C32;
            }

            .st14 {
                fill: #A81D2E;
            }
        </style>
        <path class="st13"
            d="M72.1,147.9c-0.9,0.9,1.3,2,3.2,2.4c1,0.2,3.8,0.9,6.1,1.7c1.5-2.2,1.3-5.9,1.4-7.3          C79.5,145.2,72.8,147.1,72.1,147.9z" />
        <path class="st14"
            d="M86.4,152.8c-0.3-1.8-0.3-7.9-2.3-8.1c-0.1,0-0.8,0.1-0.9,0.1c0,1.4,0.4,4.4-1.1,7.5          c1.4,0.6,2.7,1.4,3.8,2.4C85.9,154.7,86.7,154.6,86.4,152.8z" />
        <path class="st14"
            d="M89.7,152.8c0.3-1.8,0.3-7.9,2.3-8.1c0.1,0,0.8,0.1,0.9,0.1c0,1.4-0.4,4.4,1.1,7.5          c-1.4,0.6-2.7,1.4-3.8,2.4C90.2,154.7,89.4,154.6,89.7,152.8z" />
        <path class="st13"
            d="M104,147.9c0.9,0.9-1.3,2-3.2,2.4c-1,0.2-3.8,0.9-6.1,1.7c-1.5-2.2-1.3-5.9-1.4-7.3          C96.6,145.2,103.3,147.1,104,147.9z" />
    </g>
</svg>