<?xml version="1.0" encoding="utf-8"?>
<!-- Generator: Adobe Illustrator 26.0.0, SVG Export Plug-In . SVG Version: 6.00 Build 0)  -->
<svg version="1.1" id="Layer_1" xmlns="http://www.w3.org/2000/svg" xmlns:xlink="http://www.w3.org/1999/xlink" x="0px" y="0px"
	 viewBox="0 0 183 363" style="enable-background:new 0 0 183 363;" xml:space="preserve">
<style type="text/css">
	.st0{fill:#F4D9BF;}
	.st1{opacity:0.7;fill:#F4D9BF;enable-background:new    ;}
	.st2{fill:#C39368;}
	.st3{opacity:0.8;fill:#F4D9BF;enable-background:new    ;}
	.st4{opacity:0.5;fill:#F4D9BF;enable-background:new    ;}
	.st5{fill:#333328;}
	.st6{fill:#461A00;}
	.st7{fill:#FFFFFF;}
	.st8{fill:#9DC41A;}
	.st9{fill:#E8E100;}
	.st10{fill:#AD4247;}
	.st11{fill:#F08593;}
	.st12{fill:#CCE100;}
	.st13{fill:#F4A0A0;}
	.st14{fill:#F4A6A4;}
	.st15{opacity:0.5;fill:#F4A6A4;enable-background:new    ;}
	.st16{fill:#EAFF92;}
</style>
<g>
	<g>
		<g>
			<g>
				<g>
					<g>
						<path class="st0" d="M158,221.6c-2.5-6.9-7.6-9.2-7.6-9.2c-3.5-15.1-14.7-46.6-25.9-58.8c-11.2-12.2-30-14.6-30-14.6l0-5.6
							l-4,0l-4,0l0,5.6c0,0-18.8,2.5-30,14.7c-11.1,12.2-22.2,43.8-25.7,58.9c0,0-5.1,2.3-7.6,9.2c-2.5,6.9-0.8,12.6,1.4,12.6
							c0,0,0.9,3.8,3.5,4.1c0,0,1.5,2.8,4.2,2.3c0,0,2,2.2,3.4,0.5s-1.3-4.8-0.6-10.1c0.7-5.3,2.7-6.2,3.3-4s-0.3,7.5,0.9,8.4
							c1.2,0.9,5.1-3.5,4-10.7s-3.7-8.6-3.7-8.6s4.1-34.2,26.9-56.4c0,0-5.2,30.8-2.6,62.5l0.1,4.1c0.1,4.9,0.7,23.2,3.4,41.2
							c0,0,5.1,47.3,2.5,50.8s-20.3,10.8-20.3,10.8s-1.5-0.9-2.3,1.1c-0.8,2,0.7,4.6,3.8,4c0,0,1.3,1.1,4.5,0.1c0,0,2.4,1.3,5.3-0.1
							c0,0,2.1,1.4,5,0.2c0,0,1.7,1.4,5.9,0c4.2-1.4,6.2-2.8,9.4-2.7c3.3,0.1,9.2-0.7,7.8-7.8c-1.4-7.1-2.5-4.8-2.2-11.9
							c0.2-7.1-0.2-44-0.2-44l0.6-31.3c1.1,0.4,3.5,0.9,6.9,0.1l0.7,31.2c0,0-0.3,36.9,0,44c0.3,7.1-0.8,4.8-2.2,11.9
							s4.6,7.9,7.8,7.8c3.2-0.1,5.2,1.2,9.4,2.6c4.2,1.4,5.9,0,5.9,0c3,1.1,5-0.3,5-0.3c2.9,1.5,5.3,0.1,5.3,0.1
							c3.1,1,4.5-0.1,4.5-0.1c3.1,0.5,4.6-2.1,3.8-4.1s-2.3-1.1-2.3-1.1s-17.7-7.3-20.3-10.8c-2.7-3.5,2.3-50.8,2.3-50.8
							c3.2-21.1,3.3-42.5,3.3-42.5l0.3-6.6l0,0c1.8-30.4-3.1-58.7-3.1-58.7c22.8,22.1,27.1,56.4,27.1,56.4s-2.6,1.4-3.7,8.6
							c-1.1,7.2,2.8,11.6,4,10.7c1.2-0.9,0.3-6.2,0.9-8.4s2.6-1.3,3.3,4c0.7,5.3-2,8.4-0.6,10.1c1.4,1.7,3.4-0.5,3.4-0.5
							c2.7,0.5,4.2-2.3,4.2-2.3c2.6-0.3,3.5-4.1,3.5-4.1C158.8,234.2,160.5,228.4,158,221.6z"/>
						<path class="st1" d="M94.5,137.4l0-4l-8,0l0,3.7C88.8,138,91.7,137.9,94.5,137.4z"/>
						<g>
							<g>
								<g>
									<g>
										<path class="st2" d="M150,232.7c0.4-3,0.1-6-1.2-8.8c0,0,0,0,0,0c1.4,2.6,1.8,5.4,1.6,8.3c-0.2,2.7-0.4,6.4-2.2,8.6
											c0,0-0.1,0-0.1-0.1C149.5,238.4,149.7,235.4,150,232.7z"/>
										<path class="st2" d="M152.5,222.5C152.5,222.5,152.6,222.5,152.5,222.5c1.1,2.9,1.8,5.6,1.8,8.7c0,2.6-0.2,5.7-1.9,7.8
											c0,0-0.1,0-0.1-0.1C155.2,234,154.2,227.6,152.5,222.5z"/>
										<path class="st2" d="M155.2,220.9C155.2,220.9,155.2,220.9,155.2,220.9c2.6,4.1,3,9.4,1.1,13.8c0,0-0.1,0-0.1,0
											C157.6,230,157.6,225.4,155.2,220.9z"/>
									</g>
								</g>
								<path class="st2" d="M68.4,151c0,0-1.2,3.9-2,8.9C66.4,159.9,68,154.3,68.4,151z"/>
								<path class="st2" d="M112.5,150.9c0,0,1.3,3.9,2,8.9C114.5,159.8,113,154.3,112.5,150.9z"/>
								<g>
									<g>
										<path class="st2" d="M31.2,232.9c-0.4-3-0.1-6,1.1-8.8c0,0,0,0,0,0c-1.4,2.6-1.8,5.4-1.5,8.3c0.2,2.7,0.4,6.4,2.2,8.5
											c0,0,0.1,0,0.1-0.1C31.7,238.6,31.6,235.6,31.2,232.9z"/>
										<path class="st2" d="M28.6,222.8C28.7,222.8,28.6,222.8,28.6,222.8c-1.1,2.9-1.8,5.6-1.8,8.7c0,2.6,0.2,5.7,1.9,7.7
											c0,0,0.1,0,0.1-0.1C26.1,234.2,27,227.9,28.6,222.8z"/>
										<path class="st2" d="M26,221.2C26,221.2,25.9,221.2,26,221.2c-2.6,4.1-3,9.4-1,13.8c0,0,0.1,0,0.1,0
											C23.6,230.3,23.6,225.6,26,221.2z"/>
									</g>
								</g>
							</g>
							<g>
								<g>
									<g>
										<path class="st2" d="M68.7,327c-1.2,0-2.8,0.4-3.5,1.4c-1.5,2-1.6,6.4,1.6,6.9c0,0,0.1-0.1,0-0.1c-2.5-1-2.8-4.2-1.5-6.3
											c0.9-1.4,2.9-1.6,4.3-1.5c1.2,0.1,1.8,0.6,2.7,1.1l0,0C71.2,327.5,70.2,327,68.7,327z"/>
										<path class="st2" d="M58.8,329.4c-1.2,2,0.5,5.1,2.7,5.4c0,0,0.1-0.1,0-0.1c-2-0.5-3.2-3.1-2.6-5c0.8-2.6,3.7-2.1,5.7-1.7
											c0,0,0,0,0,0C62.5,327.1,60.1,327.1,58.8,329.4z"/>
										<path class="st2" d="M53.9,329.8c-1,1.9,0,4.1,1.8,4.8c0,0,0,0,0,0c-1.3-0.9-2-1.8-2-3.4c0.1-2.3,2.6-3.9,4.6-2.5
											c0,0,0,0,0,0C56.9,327.3,54.8,328.1,53.9,329.8z"/>
										<path class="st2" d="M50.1,330.3c-0.8,1.5,0,4,1.6,4.5c0,0,0.1,0,0-0.1c-1.2-0.7-1.9-2.1-1.7-3.5c0.2-1.9,2-2.8,3.6-2
											c0,0,0,0,0,0C52.4,328.1,50.7,329.1,50.1,330.3z"/>
										<path class="st2" d="M50.3,329.4c-0.2-0.1-0.4-0.2-0.7-0.3c-0.3,0-0.8,0-1,0.1c-0.5,0.1-0.9,0.8-1.1,1.3c0,0,0,0,0.1,0
											c0.1-0.2,0.3-0.5,0.5-0.7c0.3-0.4,0.6-0.3,1-0.4C49.5,329.3,49.8,329.4,50.3,329.4C50.3,329.4,50.3,329.4,50.3,329.4z"/>
									</g>
								</g>
							</g>
							<g>
								<g>
									<g>
										<path class="st2" d="M113,326.9c1.2,0,2.8,0.4,3.6,1.4c1.5,2,1.6,6.3-1.5,6.9c0,0-0.1-0.1,0-0.1c2.5-1,2.8-4.2,1.5-6.3
											c-0.9-1.4-2.9-1.5-4.3-1.5c-1.2,0.1-1.8,0.6-2.7,1.1l0,0C110.4,327.5,111.4,327,113,326.9z"/>
										<path class="st2" d="M122.8,329.2c1.2,2-0.4,5.1-2.7,5.5c0,0-0.1-0.1,0-0.1c2-0.5,3.2-3.1,2.6-5c-0.8-2.6-3.7-2.1-5.7-1.7
											c0,0,0,0,0,0C119.2,327,121.5,327,122.8,329.2z"/>
										<path class="st2" d="M127.8,329.6c1,1.9,0,4.1-1.8,4.9c0,0-0.1,0,0,0c1.3-0.9,2-1.8,2-3.4c-0.1-2.3-2.6-3.9-4.6-2.5
											c0,0,0,0,0,0C124.8,327.2,126.9,328,127.8,329.6z"/>
										<path class="st2" d="M131.6,330.2c0.8,1.5,0,4-1.6,4.5c0,0-0.1,0,0-0.1c1.2-0.7,1.9-2.1,1.7-3.5c-0.2-1.9-2-2.8-3.6-2
											c0,0,0,0,0,0C129.2,328,130.9,328.9,131.6,330.2z"/>
										<path class="st2" d="M131.4,329.2c0.2-0.1,0.4-0.2,0.7-0.3c0.3-0.1,0.8,0,1,0.1c0.5,0.1,0.9,0.8,1.1,1.3c0,0,0,0-0.1,0
											c-0.1-0.2-0.3-0.5-0.5-0.7c-0.3-0.3-0.6-0.3-1-0.4C132.2,329.1,131.9,329.2,131.4,329.2
											C131.4,329.3,131.3,329.2,131.4,329.2z"/>
									</g>
								</g>
							</g>
						</g>
					</g>
					<path class="st3" d="M91.7,212.4c0,0.7-0.3,1.3-0.7,1.3c-0.4,0-0.7-0.6-0.7-1.3c0-0.7,0.3-1.3,0.7-1.3
						C91.4,211.1,91.7,211.7,91.7,212.4z"/>
					<path class="st4" d="M36.1,217.1c6.1,1.2,6.1,13.1,4.9,13.6c-1.2,0.5-1.1-2-1.4-4.2c-0.2-2.2-2-2-2-2c-2.8,0.2-3.3,6.8-3.4,8.2
						c-0.1,1.4-0.2,1.7-1.2,1.8c-1,0-1.1-1.1-1.1-1.1c-1-3.5,0.9-10.1,0.9-10.1c-2,1.9-2.5,7.8-2.6,8.9c0,1.1,0.1,2-0.9,2
						c-1,0-1.4-1.4-1.4-1.4c-1.1-4.5,1.2-10.8,1.2-10.8c-1.6,1.9-2.3,6.4-2.5,7.7c-0.2,1.3-0.7,1.5-0.7,1.5c-1,0.5-1.2-0.8-1.2-0.8
						c-1-4.1,1.1-9.2,1.1-9.2c-2.3,2.9-2.4,7.8-2.5,8.3c-0.1,0.5-0.3,0.4-0.3,0.4c-0.8-0.1-1-1.3-1.1-2.1c-0.2,4,1.1,6.7,2.6,6.7
						c0,0,0.9,3.8,3.5,4.1c0,0,1.5,2.8,4.2,2.3c0,0,2,2.2,3.4,0.5s-1.3-4.8-0.6-10.1c0.7-5.3,2.7-6.2,3.3-4s-0.3,7.5,0.9,8.4
						c1.2,0.9,5.1-3.5,4-10.7s-3.7-8.6-3.7-8.6s4.1-34.2,26.9-56.4l1.4-6.1C39.4,175.7,36.1,217.1,36.1,217.1z"/>
					<path class="st4" d="M134.4,330.3c-0.1-0.3-0.2-0.5-0.4-0.7h-0.2c0,0,0.7,1.3-0.5,1.9s-1.3-1.7-2.5-2.2c0,0,0.9,1.6-0.5,1.9
						s-2.2-1.8-3.6-2.6c0,0,1.5,1.9-0.3,2.7c-1.7,0.8-2.7-2.2-4.7-3.2c0,0,1.1,1.5-0.5,2.3s-3.8-1.9-5.2-2.4c0,0,1.1,2.4-2.1,3.1
						c-3.2,0.7-5.3-2.5-10.6-2.8c-5.2-0.3-6.9-1.4-5.5-5.6c1.4-4.2,2.1-4.9,1.8-8.5c-0.3-3,3-61.8,4-80c-3.8,1.5-7.8,2.2-11.9,2.3
						c-4.8,0.1-10.4-0.2-14.3-3.3c1,16.9,4.6,78,4.3,81.1c-0.3,3.6,0.4,4.2,1.8,8.5c1.4,4.2-0.3,5.3-5.5,5.7
						c-5.2,0.3-7.4,3.5-10.6,2.8s-2.1-3-2.1-3c-1.5,0.5-3.7,3.2-5.2,2.4c-1.6-0.8-0.5-2.3-0.5-2.3c-2,0.9-2.9,4-4.6,3.2
						c-1.7-0.8-0.3-2.7-0.3-2.7c-1.4,0.8-2.1,2.9-3.6,2.6c-1.5-0.3-0.5-1.9-0.5-1.9c-1.2,0.6-1.3,2.8-2.5,2.3s-0.5-1.9-0.5-1.9h-0.1
						c-0.1,0.2-0.3,0.4-0.4,0.7c-0.8,2,0.7,4.6,3.8,4c0,0,1.3,1.1,4.5,0.1c0,0,2.4,1.3,5.3-0.1c0,0,2.1,1.4,5,0.2c0,0,1.7,1.4,5.9,0
						c4.2-1.4,6.2-2.8,9.4-2.7c3.3,0.1,9.2-0.7,7.8-7.8c-1.4-7.1-2.5-4.8-2.2-11.9c0.2-7.1-0.2-44-0.2-44l0.6-31.3
						c1.1,0.4,3.5,0.9,6.9,0.1l0.7,31.2c0,0-0.3,36.9,0,44c0.3,7.1-0.8,4.8-2.2,11.9s4.6,7.9,7.8,7.8c3.2-0.1,5.2,1.2,9.4,2.6
						c4.2,1.4,5.9,0,5.9,0c3,1.1,5-0.3,5-0.3c2.9,1.5,5.3,0.1,5.3,0.1c3.1,1,4.5-0.1,4.5-0.1C133.7,334.9,135.2,332.3,134.4,330.3z"
						/>
					<path class="st4" d="M158.1,229.4c0,0-0.2,0.2-0.3-0.4c-0.2-0.6-0.2-5.4-2.5-8.3c0,0,2.2,5.1,1.2,9.2c0,0-0.2,1.4-1.2,0.8
						c0,0-0.5-0.2-0.7-1.5s-0.9-5.8-2.5-7.7c0,0,2.4,6.2,1.3,10.8c0,0-0.3,1.5-1.3,1.5c-1,0-0.9-0.9-1-2s-0.6-7.1-2.6-8.9
						c0,0,2,6.5,0.9,10.1c0,0-0.1,1.1-1.1,1.1c-1,0-1-0.4-1.2-1.7s-0.7-7.9-3.5-8.2c0,0-1.8-0.2-2,2.1c-0.2,2.2-0.1,4.7-1.3,4.2
						c-1.2-0.5-1.3-12.4,4.9-13.6c0,0-3.4-41.4-31.9-63.1l1.4,6.1c0,0,0.2,0.2,0.4,0.6c22.5,22.1,26.7,56,26.7,56s-2.6,1.4-3.7,8.6
						c-1.1,7.2,2.8,11.6,4,10.7c1.2-0.9,0.3-6.2,0.9-8.4s2.6-1.3,3.3,4c0.7,5.3-2,8.4-0.6,10.1c1.4,1.7,3.4-0.5,3.4-0.5
						c2.7,0.5,4.2-2.3,4.2-2.3c2.6-0.3,3.5-4.1,3.5-4.1c1.5,0,2.8-2.8,2.6-6.8C159.1,228.2,158.8,229.3,158.1,229.4z"/>
				</g>
			</g>
			<g>
				<g>
					<path class="st0" d="M38.3,65.6c0,0-6.1-2.6-16.1,10.2c-10.1,12.8-6.1,38.5-4.5,45.2c0,0,2.1,9.9-1,13.7l1.8,1.4
						c0,0,3-4.1,2.6-9.3c0,0,1.9,10.4,8.1,13.7l4.2-1.4c0,0-4.8-6.4-5-14.5c0,0,3.2,9.4,8.3,13.9l7.4-3c0,0-3.2-3.6-5-9.7
						c0,0,3.5,6.8,7.3,8.5l7.2-4.1c0,0-5.5-5.4-7.2-11.9c0,0,2.7,7,7.2,9.7l1.1-0.8c0,0-7.4-7.7-4.7-27.1
						C52.8,80.8,38.3,65.6,38.3,65.6z"/>
				</g>
				<g>
					<path class="st0" d="M146.7,65.6c0,0,6.1-2.6,16.1,10.2c10.1,12.8,6.1,38.5,4.5,45.2c0,0-2.1,9.9,1,13.7l-1.8,1.4
						c0,0-3-4.1-2.6-9.3c0,0-1.9,10.4-8.2,13.7l-4.2-1.4c0,0,4.8-6.4,5-14.5c0,0-3.2,9.4-8.3,13.9l-7.4-3c0,0,3.2-3.6,5-9.7
						c0,0-3.5,6.8-7.3,8.5l-7.2-4.1c0,0,5.5-5.4,7.2-11.9c0,0-2.7,7-7.2,9.7l-1.1-0.8c0,0,7.4-7.7,4.7-27.1
						C132.2,80.8,146.7,65.6,146.7,65.6z"/>
				</g>
				<path class="st0" d="M135.4,42.6c0,0-20-27.1-69-10.5C17.4,48.7,32,111,53.4,118.4l75.5-1.3c0,0,20-6.8,23.1-33
					C154.9,57.9,135.4,42.6,135.4,42.6z"/>
				<g>
					<g>
						<path class="st0" d="M53.3,98.7c0,0-0.7-3.7-6.6-2c-5.9,1.7-6.1,17,6.6,15.7V98.7z"/>
					</g>
				</g>
				<g>
					<g>
						<path class="st0" d="M128.5,98.7c0,0,0.7-3.7,6.6-2c5.9,1.7,6.1,17-6.6,15.7V98.7z"/>
					</g>
				</g>
				<path class="st0" d="M133,73.9c-3.1-1.3-9.2-3-17.5-3.9c-0.5-6.9-2.4-10-2.4-10c0.6,4.8-0.7,9.7-0.7,9.7l0,0
					c-7.1-0.7-14.7-1.2-20.3-1.4C91.5,62.7,91.7,58,91.7,58c-1.8,4-1.7,10.2-1.7,10.2c-4-0.2-15,0.9-18.8,1.7
					C71,60.8,73.4,55,73.4,55c-3.5,4.4-5.6,15.8-5.6,15.8l0,0c-11,2.8-18.5,6.3-18.5,6.3s-0.9,8.6,1.9,18.6c0,0,2,6.7,0.8,12.3
					c-1.2,5.6-0.4,11.9,9.8,18.6s23.2,9.4,27.3,9.6c0,0,1.8,0.2,3.5,0c4.1-0.4,17.1-2.9,27.3-9.6c10.2-6.7,11-12.9,9.8-18.6
					c-1.2-5.6,0.8-12.3,0.8-12.3C133.2,85.7,133,73.9,133,73.9z"/>
				<g>
					<path class="st5" d="M66.5,87.4c0,0,2.4-5.2,6-4.3c3.6,0.9,5.1,6.9,5.1,6.9S73.3,80.8,66.5,87.4z"/>
					<path class="st5" d="M114.3,86.7c0,0-2.7-5.1-6.3-3.9c-3.6,1.1-4.6,7.2-4.6,7.2S107.1,80.5,114.3,86.7z"/>
					<g>
						<path class="st6" d="M75,98c-0.2,2.7-1.4,4.8-2.6,4.7s-1.9-2.4-1.7-5c0.2-2.7,1.4-4.8,2.6-4.7S75.2,95.3,75,98z"/>
						<path class="st7" d="M72.8,95.8c-0.1,0.8-0.5,1.4-0.9,1.3c-0.3-0.1-0.5-0.8-0.4-1.6c0.1-0.8,0.5-1.4,0.9-1.3
							C72.7,94.2,72.9,95,72.8,95.8z"/>
					</g>
					<g>
						<path class="st6" d="M111.3,97.2c0.1,2.7-0.8,4.9-2,4.9s-2.2-2.1-2.3-4.8c-0.1-2.7,0.8-4.9,2-4.9
							C110.3,92.3,111.3,94.5,111.3,97.2z"/>
						<path class="st7" d="M108.9,95.2c0,0.8-0.4,1.5-0.7,1.4c-0.4,0-0.6-0.7-0.6-1.5c0-0.8,0.4-1.5,0.7-1.4
							C108.7,93.7,108.9,94.4,108.9,95.2z"/>
					</g>
				</g>
			</g>
		</g>
		<g>
			<g>
				<path class="st8" d="M90.8,134.9c-0.2,4.4-2.6,6.9-5.7,8.7c-2.4,0.4-4.9,0.6-7.3,1.1c-3.2,0.7-5.9,1.7-8.9,2.8c0,0,0,0.1,0,0
					c3-0.9,5.8-1.8,8.8-2.4c2.1-0.4,4.1-0.5,6.1-1c-1.5,0.8-3.2,1.5-4.8,2.2c-7.7,2.9-15,6.6-21.3,11.8c-6.2,5.2-10.7,12.6-13.7,20
					c0,0,0,0,0,0c2.7-5.7,6.2-10.9,10.4-15.5c-2.8,4-4.3,8.4-6.5,13.1c0,0,0,0,0,0c1.4-2.4,2.5-4.7,3.5-7.3c1.1-2.8,2.6-5.1,4.5-7.4
					c1.4-1.4,2.8-2.8,4.3-4.1c4-3.4,8.9-6,14-8.3c-3.3,1.9-6.3,4.3-9.3,6.8c-7.3,6-12.8,14.4-17.4,22.5c-0.6,1.1-1.2,2.1-1.8,3.2
					c-6.4,8.6-12.2,17.4-13.6,28.4c0,0,0,0,0,0c1.9-9.6,6.6-17.5,11.9-25.2c-3.6,6.8-6.7,13.8-8.8,21.2c-0.2,0.8-0.4,1.6-0.5,2.4
					c-2.1,4.5-6.7,7.4-9.7,11.3c-2.7,3.6-3.3,8.6-2.5,12.9c0,0,0,0,0,0c-0.8-6.9,1.9-12.4,6.9-17c1.5-1.4,3.1-2.8,4.4-4.4
					c-2.2,3.6-5.4,6.5-7.3,10.4c-2.4,4.9-2.6,9.5-1.1,14.6c0,0,0,0,0,0c-1.6-6.9,0-12.9,4.1-18.6c1.5-2.1,3.3-3.8,4.6-5.8
					c-1.4,4-3.5,7.5-5,11.6c-2,5.4-2.3,10,0.1,15.3c0,0,0,0,0,0c-2.7-6.7-0.9-13.1,2.1-19.3c1.2-2.5,2.5-4.7,3.3-7.2
					c0,0.3,0.1,0.7,0.1,1c-0.8,4-2.4,7.7-3.2,11.7c-1,5.1-0.3,10.9,1.5,15.7c0,0,0,0,0,0c-1.5-5.7-1.8-12.4-0.2-18.2
					c0.7-2.6,1.6-5.3,2.1-8c0.2,0.8,0.4,1.6,0.7,2.4c1,2.9,2.1,5.7,2.9,8.7c0.6,2.5,0.4,5.2,0.5,7.8c0,0.1,0.2,0,0.2-0.1
					c0.1-4.7,0.1-8.9-1.4-13.4c-0.9-2.6-1.9-5.2-2.2-7.9c-0.1-1.2-0.1-2.4,0.1-3.6c0-0.1,0-0.1,0-0.2c0,0,0-0.1,0-0.1
					c0.3-2.1,1-4.2,1.6-6.2c1.4-5.1,4.1-10,6.5-14.6c1.4-2.8,2.9-5.6,4.5-8.3c0.4-0.6,0.8-1.1,1.2-1.7c-1.4,2.8-2.5,5.6-3.6,8.6
					c-1.3,3.6-2.4,7.4-3.5,11.1c-1.1,3.7-2.9,7.1-4.2,10.8c0,0,0,0,0,0c2.7-6.3,5.5-12.3,7.3-19c2.2-7.8,5.5-15.1,10.4-21.6
					c0,0,0,0,0,0c0.5-0.6,0.9-1.2,1.4-1.8c-1.8,3.5-3.1,7.4-5.1,10.8c0,0,0,0,0,0c2.9-4.3,4.4-9.1,7.2-13.3
					c4.7-5.4,10.1-10.1,16.6-13.6c5.9-3.3,14.2-4.9,14.9-12.5L90.8,134.9L90.8,134.9z"/>
				<path class="st8" d="M90.8,141.9c-2.3,7-10.4,9.7-15.7,13.1c-0.3,0.2-0.5,0.4-0.8,0.6c-1.4,0.4-2.7,1.1-3.9,1.9
					c-0.6,0.4-1.3,1.1-1.8,1.7c-0.5,0.6-0.8,1.3-1.2,1.9c0,0,0,0.1,0,0c0.8-0.8,1.5-1.9,2.4-2.7c1.1-1,2.5-1.8,3.8-2.3
					c-2.5,2-4,4.5-5.6,7.7c0,0,0,0,0,0c1.7-2.8,3.1-5,5.6-7c2.1-1.6,4.5-2.8,6.8-4.1c-1.4,1.7-2.8,4.2-4.6,5.1c0,0,0,0.1,0,0
					c1.4-0.5,2.3-1.8,3.3-2.9c1.1-1.3,2.2-2.4,3.4-3.4c0,0,0,0,0.1,0c1.2-0.8,2.6-1.7,3.9-2.7c-0.5,1.6-1.2,3.2-2,4.7
					c0,0.1,0,0.1,0,0c0.5-0.9,1.1-1.7,1.5-2.8c0.3-0.7,0.8-1.5,0.9-2.3c1.7-1.4,3.1-3,3.9-5.1L90.8,141.9L90.8,141.9z"/>
				<path class="st8" d="M90.8,148.8c-1.5,6.9-7,10.9-13.7,11.1c-2.8,0.1-5.2,0.4-7.5,2.3c0,0,0,0.1,0,0.1c2.6-1.8,5.3-1.4,8.3-1.7
					c0.1,0,0.2,0,0.3-0.1c-0.3,0.3-0.7,0.6-1.1,0.9c-0.8,0.5-1.5,1-2.2,1.4c-0.2,0.1-1,0.5-1.1,0.7c0,0,0,0,0,0s0,0,0,0c0,0,0,0,0,0
					c0,0,0,0,0,0.1c0,0,0,0,0,0c1.9-0.8,3.5-2.1,5.2-3.2c2.1-0.3,3.9-1,5.9-1.9c3.3-1.6,5.2-5.2,5.9-8.9L90.8,148.8L90.8,148.8z"/>
				<path class="st8" d="M90.8,156.8c-1.9,6.6-7.8,9.1-14.2,9.9c-0.2,0-0.4,0.1-0.7,0.1c0,0,0,0,0,0c-0.4,0-0.7,0-1.1,0.1
					c-3.5,0.2-8,0-9,4c0,0.1,0.1,0.1,0.2,0c0.9-2.4,3.6-3,6.3-3.3c-0.2,0.1-0.5,0.2-0.7,0.3c-1.2,0.6-1.8,1.8-2.6,2.9c0,0,0,0.1,0,0
					c1-1,1.7-2,3-2.6c0.5-0.3,1.1-0.5,1.7-0.6c1.4-0.1,2.8-0.1,3.9-0.2c2.2-0.3,4.9-0.8,6.9-2c3-1.9,5.3-4.2,6.2-7.4L90.8,156.8
					L90.8,156.8z"/>
				<path class="st8" d="M90.6,163.5c-2.6,7.9-10.9,9.3-17.9,9.6c-3.4,0.2-6.1,1.4-7.5,4.6c0,0.1,0.1,0.1,0.1,0
					c3.1-5.8,11.4-3.5,16.7-5.3C86.2,171,89.6,168.1,90.6,163.5C90.7,163.4,90.6,163.4,90.6,163.5z"/>
				<path class="st8" d="M90.8,169.6c-3.2,5.4-11.2,7.6-16.8,8.5c-3.4,0.5-7,0.7-9,3.9c0,0,0,0.1,0,0c2.2-2.8,5.8-2.8,8.9-3.3
					c2.6-0.4,5.2-1.1,7.6-2c3.6-1.4,7.4-3.3,9.2-6.9L90.8,169.6L90.8,169.6z"/>
				<path class="st8" d="M90.8,174.8c-3.3,5.8-11.5,7.4-17.2,8.9c-2.8,0.8-6.8,0.9-8.2,4.1c0,0.1,0.1,0.1,0.1,0
					c1.9-3.1,6.8-3.2,10-4c2.5-0.7,4.9-1.3,7.3-2.3c3.1-1.3,6.4-3.4,8.1-6.5L90.8,174.8L90.8,174.8z"/>
				<path class="st8" d="M90.7,178.6c-3.4,5.7-11.6,7.8-17.3,10.1c-2.9,1.2-6.5,2.5-7.7,5.8c0,0.1,0.1,0.1,0.1,0
					c2.5-5,11.4-6.4,16-8.6C85.2,184.1,89,182.4,90.7,178.6C90.8,178.6,90.7,178.6,90.7,178.6z"/>
				<path class="st8" d="M90.5,181.6c-2.2,4.5-8,5.8-12.1,8c-0.5,0.3-1,0.6-1.5,0.9c-3.9,1.2-7,3.6-9.2,7.1c0,0,0,0,0,0
					c1.4-1.9,2.9-3.4,4.8-4.8c1.1-0.8,2.3-1.2,3.5-1.8c-1.7,1.3-3,2.9-4.3,5c0,0,0,0,0,0c3-4.7,7.5-6.4,12.2-8.7
					C86.7,186.1,89.4,184.5,90.5,181.6C90.6,181.6,90.5,181.6,90.5,181.6z"/>
				<path class="st8" d="M90.8,185.3c-0.5,2.9-2.8,5.4-5.5,7.5c-4,1.8-8.6,2.6-12.1,5.6c0,0,0,0.1,0,0c3.2-2.5,7.2-2.8,10.6-4.5
					c-3,2.1-6.4,3.7-8.6,5.2c-3.2,2.1-6,4.9-7,8.9c0,0.1,0.1,0.1,0.1,0c1.6-6.3,7.8-8.7,12.8-11.8c-1.6,1.3-3.4,2.3-4.9,3.7
					c-1.8,1.6-2.7,3.7-3.5,6.1c0,0,0,0,0,0c1.1-3,2.6-5,5-7.1c1.2-1,2.6-1.9,3.8-3c0.5-0.3,0.9-0.6,1.3-0.9c3-2.1,7.3-5.1,8-9.1
					L90.8,185.3L90.8,185.3z"/>
				<path class="st8" d="M90.8,192.4c-3.7,8.3-15,9.6-17.8,18.5c0,0.1,0.1,0.1,0.1,0c3.2-8.5,14.4-9.7,17.7-18.2L90.8,192.4
					L90.8,192.4z"/>
				<path class="st8" d="M90.7,210.9c-2.2,3.3-6.3,5.1-9.3,7.5c-2.9,2.3-4.6,5.3-6,9c-4.2,6.8-6.4,13.4-6.7,22
					c-0.4,10.1,2.1,20.1,2.5,30.2c0,0.1,0.1,0,0.1-0.1c0-8.8-1.6-17.4-2-26.2c-0.4-9.5,1.8-17.4,5.8-25.3c-3,8.4-2.7,18.2-2.2,27.1
					c0.5,11.6,1.4,23.2,2.6,34.8c-0.7,10.2-5,20.3-3.2,30.4c0,0,0,0,0,0c-1-9.4,2.7-18.3,3.5-27.6c0.5,5,0.9,10,1.3,15
					c0.3,3.7,0.7,8,0.2,12c-2.8,5.1-8.6,4-12.9,6.1c-0.6,0.3-1.2,0.6-1.8,0.9c-3.3,0.6-6.2,1.9-8.2,5.4c0,0,0,0,0,0
					c1.2-1.8,2.6-3.1,4.5-3.9c0.9-0.4,1.8-0.7,2.8-0.9c-1.8,1.2-3.5,2.6-4.8,4.6c0,0.1,0,0.1,0.1,0.1c3.7-5,8.8-5.9,14-7.2
					c2.5-0.6,5-2.2,6.3-4.8c0,0.2,0,0.3-0.1,0.5c-0.5,1.9-1.5,3.2-2.7,4.2c-5.1,2.2-10.7,1.1-14.5,6.8c0,0,0,0.1,0,0
					c2.5-3.4,6-4.6,9.7-5.2c1.1-0.2,2.1-0.3,3.1-0.5c-1.5,0.8-3.1,1.3-4.6,2.1c-2.9,1.4-4.5,2.8-6.4,5.6c0,0,0,0.1,0,0
					c1.7-2.2,3.3-3.4,5.7-4.5c1.9-0.9,4-1.4,5.9-2.4c1.6-0.8,2.8-2.1,3.5-3.8c0,0,0.1-0.1,0.1-0.1c0-0.1,0.1-0.3,0.1-0.4
					c0.2-0.5,0.3-1,0.4-1.5c0.5-2.4,0.5-5.1,0.4-7.4c0-0.5,0-1,0-1.5c0.5,2.5,1.1,4.9,2,7.2c0.9,2.2,1.9,4.1,1.8,6.8
					c-0.1,3.5-3.8,3.8-5.8,4c-2.1,0.2-4.1,1.6-5.7,3.1c0,0,0,0.2,0,0.1c1.9-1.7,4-2.7,6.5-2.8c0.9,0,1.8-0.2,2.7-0.6
					c1.4-0.7,2.9-2,3-4c0.1-3.6-1.6-6.5-3-9.6c-0.8-1.7-1.3-3.8-1.7-5.9c-0.2-4.2-0.4-8.5-0.8-12.7c-0.7-8.1-1.8-16.3-2.5-24.5
					c0.8,3.6,2.2,7.1,3.4,10.6c2.8,8.2,3,16.9,2.5,25.7c0,0.1,0.1,0.1,0.1,0c0.7-7.1,0.5-14.8-0.9-21.8c-1.2-6.4-4.8-12.1-5.5-18.6
					c-0.2-2.8-0.3-5.6-0.3-8.4c0-9.7-1.1-19.3,1-28.9c0.6-2.6,1.5-5.1,2.6-7.4c1.4-3,3.6-4.3,5.8-6.3
					C86.2,215.3,88.7,214.5,90.7,210.9C90.7,210.9,90.7,210.9,90.7,210.9z"/>
				<path class="st8" d="M90.2,215.8c-2,4.6-6.2,6.7-9,10.4c-0.3,0.4-0.5,0.8-0.8,1.1c-2.2,1.5-3.6,4-4.2,6.9c0,0,0,0,0,0
					c0.5-1.6,1.1-2.9,2.1-4.2c0.5-0.7,1.1-1.2,1.6-1.8c-1.6,2.9-2.3,6-2.9,9.5c-1.7,10.5,0.9,21.9,2,32.3c0,0,0,0,0,0
					c-0.4-7.5-1.3-15-1.5-22.5c0.8,3.7,2.6,6.9,3.6,10.9c1.6,6.6,0.9,13.4,0.3,20.1c0,0.1,0.1,0,0.1,0c0.7-5.9,1.2-11.5,0.6-17.5
					c-0.6-5.4-3.5-9.6-4.6-14.6c0-2.4,0-4.9,0.2-7.3c0.5-7.1,3.3-12.3,8-16.5c1.8-1.7,4-4,4.8-6.6C90.5,215.6,90.3,215.6,90.2,215.8
					z"/>
				<path class="st8" d="M90.6,220.5c-2,3.8-5,6.2-6.7,10.5c-0.3,0.9-0.6,1.9-0.8,2.9c-1,1.6-1.9,3-2.5,4.9
					c-0.6,2.2-0.5,4.6-0.3,6.9c0,0,0,0,0,0c-0.1-2.6,0.1-5.1,0.9-7.6c0.4-1.2,1.2-2.3,1.7-3.4c-0.5,3.1-0.5,6.5-0.1,9.6c0,0,0,0,0,0
					c-0.2-4.4,0.2-9,1.7-13.1C86,227,89.1,224.4,90.6,220.5C90.8,220.5,90.7,220.5,90.6,220.5z"/>
				<path class="st8" d="M90.7,224.2c-0.8,2.4-2.8,4.2-3.9,6.5c-1,2.1-1.4,4.3-1.5,6.6c0,0.1,0.1,0,0.1,0c0.3-2.8,1.1-5.4,2.4-7.8
					C88.9,227.7,90.3,226.4,90.7,224.2C90.8,224.2,90.7,224.2,90.7,224.2z"/>
				<path class="st8" d="M90.8,202.7c-2.5,6.6-10.3,10.3-15,14.9c-4.7,4.7-8.1,10.2-8.8,17.3c0,0,0,0,0,0c0.9-6.8,4.4-11.9,8.7-16.3
					c-1.5,2.7-1.8,6.2-3.3,8.9c0,0,0,0,0,0c1.9-3.1,2.5-6.9,4.4-9.9c1.2-1.2,2.5-2.3,3.8-3.4c3.8-3.2,8.5-5.9,10.2-11.1L90.8,202.7
					L90.8,202.7z"/>
				<path class="st8" d="M90.8,197.1c-2.8,7-9.7,10.5-15.5,15c-4.5,1.9-8.6,4.1-10.7,9.4c0,0,0,0,0,0c1.5-3.1,3.5-5.2,6.3-6.9
					c1.1-0.7,2.2-1.2,3.3-1.7c-3.4,2.8-6.3,6.1-7.4,10.9c0,0.1,0.1,0.1,0.1,0c1.7-5.5,5.8-9.1,10.1-12.3c0.1-0.1,0.2-0.1,0.3-0.2
					c0,0,0.1-0.1,0.1-0.1c1.8-1.4,3.7-2.7,5.4-4.1c3.1-2.5,6.4-5.5,7.8-9.6L90.8,197.1L90.8,197.1z"/>
			</g>
			<g>
				<path class="st8" d="M90.3,134.9c0.2,4.4,2.6,6.9,5.7,8.7c2.4,0.4,4.9,0.6,7.3,1.1c3.2,0.7,5.9,1.7,8.9,2.8c0,0,0,0.1,0,0
					c-3-0.9-5.8-1.8-8.8-2.4c-2.1-0.4-4.1-0.5-6.1-1c1.5,0.8,3.2,1.5,4.8,2.2c7.7,2.9,15,6.6,21.3,11.8c6.2,5.2,10.7,12.6,13.7,20
					c0,0,0,0,0,0c-2.7-5.7-6.2-10.9-10.4-15.5c2.8,4,4.3,8.4,6.5,13.1c0,0,0,0,0,0c-1.4-2.4-2.5-4.7-3.5-7.3
					c-1.1-2.8-2.6-5.1-4.5-7.4c-1.4-1.4-2.8-2.8-4.3-4.1c-4-3.4-8.9-6-14-8.3c3.3,1.9,6.3,4.3,9.3,6.8c7.3,6,12.8,14.4,17.4,22.5
					c0.6,1.1,1.2,2.1,1.8,3.2c6.4,8.6,12.2,17.4,13.6,28.4c0,0,0,0,0,0c-1.9-9.6-6.6-17.5-11.9-25.2c3.6,6.8,6.7,13.8,8.8,21.2
					c0.2,0.8,0.4,1.6,0.5,2.4c2.1,4.5,6.7,7.4,9.7,11.3c2.7,3.6,3.3,8.6,2.5,12.9c0,0,0,0,0,0c0.8-6.9-1.9-12.4-6.9-17
					c-1.5-1.4-3.2-2.8-4.3-4.4c2.2,3.6,5.4,6.5,7.3,10.4c2.4,4.9,2.6,9.5,1.1,14.6c0,0,0,0,0,0c1.6-6.9,0-12.9-4.1-18.6
					c-1.5-2.1-3.3-3.8-4.6-5.8c1.4,4,3.5,7.5,5,11.6c2,5.4,2.3,10-0.1,15.3c0,0,0,0,0,0c2.7-6.7,0.9-13.1-2.1-19.3
					c-1.2-2.5-2.5-4.7-3.3-7.2c0,0.3-0.1,0.7-0.1,1c0.8,4,2.4,7.7,3.2,11.7c1,5.1,0.3,10.9-1.5,15.7c0,0,0,0,0,0
					c1.5-5.7,1.8-12.4,0.2-18.2c-0.7-2.6-1.6-5.3-2.1-8c-0.2,0.8-0.4,1.6-0.7,2.4c-1,2.9-2.1,5.7-2.9,8.7c-0.6,2.5-0.4,5.2-0.5,7.8
					c0,0.1-0.2,0-0.2-0.1c-0.1-4.7-0.1-8.9,1.5-13.4c0.9-2.6,1.9-5.2,2.2-7.9c0.1-1.2,0.1-2.4-0.1-3.6c0-0.1,0-0.1,0-0.2
					c0,0,0-0.1,0-0.1c-0.3-2.1-1-4.2-1.6-6.2c-1.4-5.1-4.1-10-6.5-14.6c-1.4-2.8-2.9-5.6-4.5-8.3c-0.4-0.6-0.8-1.1-1.2-1.7
					c1.4,2.8,2.5,5.6,3.6,8.6c1.3,3.6,2.4,7.4,3.5,11.1c1.1,3.7,2.9,7.1,4.2,10.8c0,0,0,0,0,0c-2.7-6.3-5.5-12.3-7.3-19
					c-2.2-7.8-5.5-15.1-10.4-21.6c0,0,0,0,0,0c-0.5-0.6-0.9-1.2-1.4-1.8c1.8,3.5,3.1,7.4,5.1,10.8c0,0,0,0,0,0
					c-2.9-4.3-4.4-9.1-7.2-13.3c-4.7-5.4-10.1-10.1-16.6-13.6c-5.9-3.3-14.2-4.9-14.9-12.5L90.3,134.9L90.3,134.9z"/>
				<path class="st8" d="M90.3,141.9c2.3,7,10.4,9.7,15.7,13.1c0.3,0.2,0.5,0.4,0.8,0.6c1.4,0.4,2.7,1.1,3.9,1.9
					c0.6,0.4,1.3,1.1,1.8,1.7c0.5,0.6,0.8,1.3,1.2,1.9c0,0,0,0.1,0,0c-0.8-0.8-1.5-1.9-2.4-2.7c-1.1-1-2.5-1.8-3.8-2.3
					c2.5,2,4,4.5,5.6,7.7c0,0,0,0,0,0c-1.7-2.8-3.1-5-5.6-7c-2.1-1.6-4.5-2.8-6.8-4.1c1.4,1.7,2.8,4.2,4.6,5.1c0,0,0,0.1,0,0
					c-1.4-0.5-2.3-1.8-3.3-2.9c-1.1-1.3-2.2-2.4-3.4-3.4c0,0,0,0,0,0c-1.2-0.8-2.6-1.7-3.9-2.7c0.5,1.6,1.2,3.2,2,4.7
					c0,0.1,0,0.1,0,0c-0.5-0.9-1.1-1.7-1.5-2.8c-0.3-0.7-0.8-1.5-1-2.3c-1.7-1.4-3.1-3-3.9-5.1L90.3,141.9L90.3,141.9z"/>
				<path class="st8" d="M90.3,148.8c1.5,6.9,7,10.9,13.7,11.1c2.8,0.1,5.2,0.4,7.5,2.3c0,0,0,0.1,0,0.1c-2.6-1.8-5.3-1.4-8.3-1.7
					c-0.1,0-0.2,0-0.4-0.1c0.3,0.3,0.7,0.6,1.1,0.9c0.8,0.5,1.5,1,2.2,1.4c0.2,0.1,1,0.5,1.1,0.7c0,0,0,0,0,0s0,0,0,0c0,0,0,0,0,0
					c0,0,0,0,0,0.1c0,0,0,0,0,0c-1.9-0.8-3.5-2.1-5.2-3.2c-2.1-0.3-3.9-1-5.9-1.9c-3.3-1.6-5.2-5.2-5.9-8.9L90.3,148.8L90.3,148.8z"
					/>
				<path class="st8" d="M90.3,156.8c1.9,6.6,7.8,9.1,14.2,9.9c0.2,0,0.4,0.1,0.7,0.1c0,0,0,0,0,0c0.4,0,0.7,0,1.1,0.1
					c3.5,0.2,8,0,9,4c0,0.1-0.1,0.1-0.2,0c-0.9-2.4-3.6-3-6.3-3.3c0.2,0.1,0.5,0.2,0.7,0.3c1.2,0.6,1.8,1.8,2.6,2.9c0,0,0,0.1,0,0
					c-1-1-1.7-2-3-2.6c-0.5-0.3-1.1-0.5-1.7-0.6c-1.4-0.1-2.8-0.1-3.9-0.2c-2.2-0.3-4.9-0.8-6.9-2c-3-1.9-5.3-4.2-6.2-7.4
					L90.3,156.8L90.3,156.8z"/>
				<path class="st8" d="M90.4,163.5c2.6,7.9,10.9,9.3,17.9,9.6c3.4,0.2,6.1,1.4,7.5,4.6c0,0.1-0.1,0.1-0.1,0
					c-3.1-5.8-11.4-3.5-16.7-5.3C94.8,171,91.4,168.1,90.4,163.5C90.4,163.4,90.4,163.4,90.4,163.5z"/>
				<path class="st8" d="M90.3,169.6c3.2,5.4,11.2,7.6,16.8,8.5c3.4,0.5,7,0.7,9,3.9c0,0,0,0.1,0,0c-2.2-2.8-5.8-2.8-8.9-3.3
					c-2.6-0.4-5.2-1.1-7.6-2c-3.6-1.4-7.4-3.3-9.2-6.9L90.3,169.6L90.3,169.6z"/>
				<path class="st8" d="M90.3,174.8c3.3,5.8,11.5,7.4,17.2,8.9c2.8,0.8,6.8,0.9,8.2,4.1c0,0.1-0.1,0.1-0.1,0c-1.9-3.1-6.8-3.2-10-4
					c-2.5-0.7-4.9-1.3-7.3-2.3c-3.1-1.3-6.4-3.4-8.1-6.5L90.3,174.8L90.3,174.8z"/>
				<path class="st8" d="M90.3,178.6c3.4,5.7,11.6,7.8,17.3,10.1c2.9,1.2,6.5,2.5,7.7,5.8c0,0.1-0.1,0.1-0.1,0
					c-2.5-5-11.4-6.4-16-8.6C95.8,184.1,92.1,182.4,90.3,178.6C90.3,178.6,90.3,178.6,90.3,178.6z"/>
				<path class="st8" d="M90.5,181.6c2.2,4.5,8,5.8,12.1,8c0.5,0.3,1,0.6,1.5,0.9c3.9,1.2,7,3.6,9.2,7.1c0,0,0,0,0,0
					c-1.4-1.9-2.9-3.4-4.8-4.8c-1.1-0.8-2.3-1.2-3.6-1.8c1.7,1.3,3,2.9,4.3,5c0,0,0,0,0,0c-3-4.7-7.5-6.4-12.2-8.7
					C94.3,186.1,91.6,184.5,90.5,181.6C90.5,181.6,90.5,181.6,90.5,181.6z"/>
				<path class="st8" d="M90.3,185.3c0.5,2.9,2.8,5.4,5.5,7.5c4,1.8,8.6,2.6,12.1,5.6c0,0,0,0.1,0,0c-3.2-2.5-7.2-2.8-10.6-4.5
					c3,2.1,6.4,3.7,8.6,5.2c3.2,2.1,6,4.9,7,8.9c0,0.1-0.1,0.1-0.1,0c-1.6-6.3-7.8-8.7-12.8-11.8c1.6,1.3,3.4,2.3,4.9,3.7
					c1.8,1.6,2.7,3.7,3.5,6.1c0,0,0,0,0,0c-1.1-3-2.6-5-5-7.1c-1.2-1-2.6-1.9-3.8-3c-0.5-0.3-0.9-0.6-1.3-0.9c-3-2.1-7.3-5.1-8-9.1
					L90.3,185.3L90.3,185.3z"/>
				<path class="st8" d="M90.3,192.4c3.7,8.3,15,9.6,17.8,18.5c0,0.1-0.1,0.1-0.1,0c-3.2-8.5-14.4-9.7-17.7-18.2L90.3,192.4
					L90.3,192.4z"/>
				<path class="st8" d="M90.4,210.9c2.2,3.3,6.3,5.1,9.3,7.5c2.9,2.3,4.6,5.3,6,9c4.2,6.8,6.4,13.4,6.7,22
					c0.4,10.1-2.1,20.1-2.5,30.2c0,0.1-0.1,0-0.1-0.1c0-8.8,1.6-17.4,2-26.2c0.4-9.5-1.8-17.4-5.8-25.3c3,8.4,2.6,18.2,2.2,27.1
					c-0.5,11.6-1.4,23.2-2.6,34.8c0.7,10.2,5,20.3,3.2,30.4c0,0,0,0,0,0c1-9.4-2.7-18.3-3.5-27.6c-0.5,5-0.9,10-1.3,15
					c-0.3,3.7-0.7,8-0.2,12c2.8,5.1,8.6,4,12.9,6.1c0.6,0.3,1.2,0.6,1.8,0.9c3.3,0.6,6.2,1.9,8.2,5.4c0,0,0,0,0,0
					c-1.2-1.8-2.6-3.1-4.5-3.9c-0.9-0.4-1.8-0.7-2.8-0.9c1.8,1.2,3.5,2.6,4.8,4.6c0,0.1,0,0.1-0.1,0.1c-3.7-5-8.8-5.9-14-7.2
					c-2.5-0.6-5-2.2-6.3-4.8c0,0.2,0,0.3,0.1,0.5c0.5,1.9,1.5,3.2,2.7,4.2c5.1,2.2,10.7,1.1,14.5,6.8c0,0,0,0.1,0,0
					c-2.5-3.4-6-4.6-9.7-5.2c-1.1-0.2-2.1-0.3-3.1-0.5c1.5,0.8,3.1,1.3,4.6,2.1c2.9,1.4,4.5,2.8,6.4,5.6c0,0,0,0.1,0,0
					c-1.7-2.2-3.3-3.4-5.7-4.5c-2-0.9-4-1.4-5.9-2.4c-1.6-0.8-2.8-2.1-3.5-3.8c0,0-0.1-0.1-0.1-0.1c0-0.1-0.1-0.3-0.1-0.4
					c-0.2-0.5-0.3-1-0.4-1.5c-0.5-2.4-0.5-5.1-0.4-7.4c0-0.5,0-1,0-1.5c-0.5,2.5-1.1,4.9-2,7.2c-0.9,2.2-1.9,4.1-1.8,6.8
					c0.1,3.5,3.8,3.8,5.8,4c2.1,0.2,4.1,1.6,5.7,3.1c0.1,0,0,0.2,0,0.1c-1.9-1.7-4-2.7-6.5-2.8c-0.9,0-1.8-0.2-2.7-0.6
					c-1.4-0.7-2.9-2-3-4c-0.1-3.6,1.6-6.5,3-9.6c0.8-1.7,1.3-3.8,1.7-5.9c0.2-4.2,0.4-8.5,0.8-12.7c0.7-8.1,1.8-16.3,2.5-24.5
					c-0.8,3.6-2.2,7.1-3.4,10.6c-2.8,8.2-3,16.9-2.5,25.7c0,0.1-0.1,0.1-0.1,0c-0.7-7.1-0.5-14.8,0.9-21.8
					c1.2-6.4,4.8-12.1,5.5-18.6c0.2-2.8,0.3-5.6,0.3-8.4c0-9.7,1.1-19.3-1-28.9c-0.6-2.6-1.5-5.1-2.6-7.4c-1.4-3-3.6-4.3-5.8-6.3
					C94.9,215.3,92.3,214.5,90.4,210.9C90.3,210.9,90.4,210.9,90.4,210.9z"/>
				<path class="st8" d="M90.8,215.8c2,4.6,6.2,6.7,9,10.4c0.3,0.4,0.5,0.8,0.8,1.1c2.2,1.5,3.6,4,4.2,6.9c0,0,0,0,0,0
					c-0.5-1.6-1.1-2.9-2.1-4.2c-0.5-0.7-1.1-1.2-1.6-1.8c1.6,2.9,2.3,6,2.9,9.5c1.7,10.5-0.9,21.9-2,32.3c0,0,0,0,0,0
					c0.4-7.5,1.3-15,1.5-22.5c-0.8,3.7-2.6,6.9-3.6,10.9c-1.6,6.6-0.9,13.4-0.3,20.1c0,0.1-0.1,0-0.1,0c-0.7-5.9-1.2-11.5-0.6-17.5
					c0.6-5.4,3.5-9.6,4.6-14.6c0-2.4,0-4.9-0.2-7.3c-0.5-7.1-3.3-12.3-8-16.5c-1.8-1.7-4-4-4.8-6.6
					C90.5,215.6,90.8,215.6,90.8,215.8z"/>
				<path class="st8" d="M90.4,220.5c2,3.8,5,6.2,6.7,10.5c0.4,0.9,0.6,1.9,0.8,2.9c1,1.6,1.9,3,2.5,4.9c0.6,2.2,0.5,4.6,0.3,6.9
					c0,0,0,0,0,0c0.1-2.6-0.1-5.1-0.9-7.6c-0.4-1.2-1.2-2.3-1.7-3.4c0.5,3.1,0.5,6.5,0.1,9.6c0,0,0,0,0,0c0.2-4.4-0.2-9-1.7-13.1
					C95,227,92,224.4,90.4,220.5C90.3,220.5,90.4,220.5,90.4,220.5z"/>
				<path class="st8" d="M90.3,224.2c0.8,2.4,2.8,4.2,3.9,6.5c1,2.1,1.5,4.3,1.5,6.6c0,0.1-0.1,0-0.1,0c-0.3-2.8-1.1-5.4-2.4-7.8
					C92.1,227.7,90.8,226.4,90.3,224.2C90.3,224.2,90.3,224.2,90.3,224.2z"/>
				<path class="st8" d="M90.3,202.7c2.5,6.6,10.3,10.3,15,14.9c4.7,4.7,8.1,10.2,8.8,17.3c0,0,0,0,0,0c-0.9-6.8-4.4-11.9-8.7-16.3
					c1.5,2.7,1.8,6.2,3.3,8.9c0,0,0,0,0,0c-1.9-3.1-2.5-6.9-4.4-9.9c-1.2-1.2-2.5-2.3-3.8-3.4c-3.8-3.2-8.5-5.9-10.2-11.1
					L90.3,202.7L90.3,202.7z"/>
				<path class="st8" d="M90.3,197.1c2.8,7,9.7,10.5,15.5,15c4.5,1.9,8.6,4.1,10.7,9.4c0,0,0,0,0,0c-1.5-3.1-3.5-5.2-6.3-6.9
					c-1.1-0.7-2.2-1.2-3.3-1.7c3.4,2.8,6.3,6.1,7.4,10.9c0,0.1-0.1,0.1-0.1,0c-1.7-5.5-5.8-9.1-10.1-12.3c-0.1-0.1-0.2-0.1-0.3-0.2
					c0,0-0.1-0.1-0.1-0.1c-1.8-1.4-3.7-2.7-5.4-4.1c-3.1-2.5-6.4-5.5-7.8-9.6L90.3,197.1L90.3,197.1z"/>
			</g>
			<g>
				<g>
					<path class="st8" d="M95.3,74.3c-1.8-0.7-3.9-0.9-5.9-0.5c0,0,0,0,0,0c-3.4,0.7-7.8,1.8-6.8,5.7c0.2,0.8,0.6,1.5,1.1,2.1l0,0
						c0,0,2.2,2.5,3.9,12.9c0,0.1,2.3,13.4,2.5,26.4c0.2,13,0,97.9,0,98.8c0,0.4,0.2,8.4,0.7,12c0,0,0.1,0,0.1,0.1
						c0.1,0.2,0.3,0.4,0.5,0.2c0.1-0.1,0.2-0.2,0.3-0.4c0.5-3.6,0.7-11.6,0.7-11.9c0-0.9-0.2-85.8,0-98.8c0.2-13,2.4-26.3,2.5-26.4
						c1.7-10.4,3.9-12.8,3.9-12.9l0,0c0.5-0.7,1-1.4,1.2-2.2C100.7,76.4,98.1,75.1,95.3,74.3z"/>
					<path class="st9" d="M94.2,94.5c0,0.1-2.3,13.5-2.5,26.5c-0.2,13,0,97.9,0,98.8c0,0.1-0.2,7-0.6,10.9
						c-0.4-3.9-0.6-10.8-0.6-10.9c0-0.9,0.2-85.8,0-98.8c-0.2-13-2.4-26.3-2.5-26.5c-1-6.4-2.3-9.9-3.1-11.6
						c0.2,0.2,0.5,0.4,0.7,0.6c0.5,0.4,1.1,0.7,1.7,0.9c1.3,0.5,2.5,0.7,3.6,0.7c0.1,0,0.1,0,0.2,0s0.1,0,0.2,0
						c1.2,0,2.3-0.2,3.6-0.7c0.5-0.2,0.9-0.4,1.3-0.7c0.3-0.2,0.6-0.5,0.9-0.7C96.5,84.8,95.3,88.3,94.2,94.5z"/>
					<path class="st10" d="M95.3,74.3c-1.8-0.7-3.9-0.9-5.9-0.5c0,0,0,0,0,0c-3.4,0.7-7.8,1.8-6.8,5.7c0.2,0.8,0.6,1.5,1.1,2.1l0,0
						c0,0,0.1,0.1,0.2,0.3c0.9,0.6,1.8,1.3,2.7,1.9c0.1,0,0.1,0.1,0.1,0.1c0.2,0.1,0.5,0.2,0.8,0.3c1.3,0.5,2.5,0.7,3.6,0.7
						c0.1,0,0.1,0,0.2,0s0.1,0,0.2,0c1.2,0,2.3-0.2,3.6-0.7c0.5-0.2,0.9-0.4,1.3-0.7c0.3-0.2,0.6-0.5,0.9-0.7c0,0,0,0.1,0,0.1
						c0.1-0.1,0.2-0.2,0.3-0.3c0,0,0.1-0.1,0.1-0.1c0.3-0.2,0.6-0.5,0.9-0.7c0.1-0.2,0.2-0.3,0.2-0.3l0,0c0.5-0.7,1-1.4,1.2-2.2
						C100.7,76.4,98.1,75.1,95.3,74.3z M87.9,74.5c1-0.2,2.1-0.2,3.2-0.2c1.4,0,2.8,0.3,4.2,0.4c0.1,0,0.2,0.1,0.3,0.1
						c-2.9,0.6-6.3,0.8-9.3,0.3C86.8,74.9,87.3,74.7,87.9,74.5z M86,75.2c1.6,0.6,4.1,0.4,5.7,0.4c1.3-0.1,3.2,0,4.3-0.6
						c0.7,0.3,1.4,0.6,2,1c-2.1,0.8-4.9,0.8-7.1,0.8c-1.8,0-4.9,0.2-6.6-0.6C84.7,75.9,85.3,75.5,86,75.2z M84.2,76.3
						c3.5,1.5,10.7,1.5,14-0.1c0.4,0.3,0.7,0.6,1,1c-4.2,2.4-11.4,1.7-15.7-0.1C83.6,76.8,83.9,76.5,84.2,76.3z M98.2,81.2
						c-1.8,2.2-4.3,3.1-7,3.2c-2.6-0.1-5.2-1-7-3.2c-0.3-0.3-0.5-0.6-0.6-0.9c3.7,3.8,10.6,3.7,14.8,0.6
						C98.4,81,98.3,81.1,98.2,81.2z M98.8,80.4C94.4,83.6,87.6,84,83.5,80C83.2,79.5,83,79,83,78.5c2.8,4.5,12.9,4,16.4,0.4
						C99.4,79.3,99.2,79.8,98.8,80.4z M83,78.3c0-0.4,0.1-0.7,0.3-1.1c2.2,1.8,6.5,1.7,9.1,1.7c2.2,0,4.9-0.3,6.8-1.5
						c0.1,0.3,0.2,0.7,0.2,1C95.8,82,86.5,82.5,83,78.3z"/>
				</g>
				<g>
					<path class="st11" d="M87.9,74.5c1-0.2,2.1-0.2,3.2-0.2c1.4,0,2.8,0.3,4.2,0.4c0.1,0,0.2,0.1,0.3,0.1c-2.9,0.6-6.3,0.8-9.3,0.3
						C86.8,74.9,87.3,74.7,87.9,74.5z"/>
					<path class="st11" d="M86,75.2c1.6,0.6,4.1,0.4,5.7,0.4c1.3-0.1,3.2,0,4.3-0.6c0.7,0.3,1.4,0.6,2,1c-2.1,0.8-4.9,0.8-7.1,0.8
						c-1.8,0-4.9,0.2-6.6-0.6C84.7,75.9,85.3,75.5,86,75.2z"/>
					<path class="st11" d="M84.2,76.3c3.5,1.5,10.7,1.5,14-0.1c0.4,0.3,0.7,0.6,1,1c-4.2,2.4-11.4,1.7-15.7-0.1
						C83.6,76.8,83.9,76.5,84.2,76.3z"/>
					<path class="st11" d="M98.2,81.2c-1.8,2.2-4.3,3.1-7,3.2c-2.6-0.1-5.2-1-7-3.2c-0.3-0.3-0.5-0.6-0.6-0.9
						c3.7,3.8,10.6,3.7,14.8,0.6C98.4,81,98.3,81.1,98.2,81.2z"/>
					<path class="st11" d="M98.8,80.4C94.4,83.6,87.6,84,83.5,80C83.2,79.5,83,79,83,78.5c2.8,4.5,12.9,4,16.4,0.4
						C99.4,79.3,99.2,79.8,98.8,80.4z"/>
					<path class="st11" d="M83,78.3c0-0.4,0.1-0.7,0.3-1.1c2.2,1.8,6.5,1.7,9.1,1.7c2.2,0,4.9-0.3,6.8-1.5c0.1,0.3,0.2,0.7,0.2,1
						C95.8,82,86.5,82.5,83,78.3z"/>
				</g>
			</g>
			<path class="st12" d="M95.3,85.8c0,0-3.2,14.2-3.6,32.1c-0.4,17.9,0,57.8,0,57.8l-0.1,30.2c0,0-0.5-57.9-0.5-64
				C91.1,135.8,90,95.8,95.3,85.8z"/>
			<g>
				<path class="st10" d="M134.4,70.9c0-0.4,0.1-0.8,0.1-1.3c0-0.3,0.1-0.5,0.1-0.8c0.5-2.6-2.2-6.2-3.7-8.5c-0.2-0.9-0.6-1.9-1-2.6
					c-0.4-0.9-0.8-1.6-1.3-2.2c-0.5-0.6-1.6-1.6-2.4-1.7c-0.3-0.2-0.6-0.4-0.8-0.6c-0.3-0.6-0.7-1.1-1.1-1.7
					c-0.7-1.3-1.4-2.6-2.3-3.8c-1.3-1.8-4.2-4-6.6-5.4c-0.7-0.5-1.5-1.1-2.3-1.5c-0.1-0.1-0.3-0.3-0.5-0.3c-0.5-0.2-1-0.5-1.5-0.4
					c-0.2,0-0.4,0-0.6,0c-0.3-0.1-0.5-0.2-0.8-0.3c-1.2-0.5-2.4-0.9-3.5-1.4c-2.2-1-4.4-2.4-6.8-3.2c-1.7-0.6-4.2-1.5-5.9-0.7
					c-0.1,0-0.2,0-0.3,0.1c-0.4,0.1-0.7,0.4-1,0.8c-0.6,0.5-0.8,1.1-0.8,2.3c-0.1,2.7,0.1,5.4-0.1,8.1c0,0.4,0,0.8,0,1.2
					c0-0.4,0-0.8,0-1.2c-0.2-2.7,0-5.4-0.1-8.1c0-1.2-0.2-1.8-0.8-2.3c-0.2-0.4-0.5-0.7-1-0.8c-0.1,0-0.2,0-0.3-0.1
					c-1.7-0.8-4.2,0.1-5.9,0.7c-2.3,0.8-4.5,2.2-6.7,3.2c-1.2,0.5-2.3,1-3.5,1.4c-0.3,0.1-0.5,0.2-0.8,0.3c-0.2,0-0.5,0-0.6,0
					c-0.5,0-1.1,0.2-1.5,0.4c-0.2,0.1-0.3,0.2-0.5,0.3c-0.8,0.4-1.6,1-2.3,1.5c-2.4,1.4-5.2,3.6-6.6,5.4c-0.9,1.2-1.5,2.5-2.3,3.8
					c-0.4,0.5-0.8,1.1-1.1,1.7c-0.2,0.2-0.5,0.4-0.8,0.6c-0.8,0.1-1.9,1.1-2.4,1.7s-1,1.3-1.3,2.2c-0.4,0.8-0.8,1.7-1,2.6
					c-1.5,2.3-4.2,5.9-3.7,8.5c0,0.3,0.1,0.5,0.1,0.8c0,0.4,0,0.8,0.1,1.3c0,0.4,0,0.7,0.1,1.1c0,1.9-0.1,3.8-0.3,5.7
					c-0.2,1.8,0.3,3.1,1.5,4.4c0.9,1,3.8,1.7,5,2.2c1.3,0.5,2.8,0.9,4.2,0.8c1.4-0.2,1.9-0.7,3-1.5c1.9-1.4,4.2-2.1,6.5-2.5
					c1.5-0.2,3-0.1,4.4-0.4c1.7-0.4,2.5-1.5,3.7-2.6c0.1-0.1,3.7,2.1,4.2,2.3c0.2,0.1,0.4,0.2,0.6,0.3c0,0,0,0,0.1,0
					c2.6,1,5.5,1.6,7.8,0.2c0.4-0.4,0.8-0.8,1.1-1.2c0.7-1,1-2,1.2-3.1c0.2,1.1,0.4,2.1,1.2,3.1c0.3,0.4,0.7,0.8,1.1,1.2
					c2.2,1.4,5.2,0.8,7.8-0.2c0,0,0,0,0.1,0c0.2-0.1,0.4-0.2,0.6-0.3c0.5-0.2,4.2-2.4,4.2-2.3c1.2,1.1,2.1,2.2,3.7,2.6
					c1.5,0.3,3,0.2,4.4,0.4c2.3,0.4,4.6,1.1,6.5,2.5c1.1,0.8,1.7,1.4,3,1.5c1.4,0.2,2.9-0.3,4.2-0.8c1.3-0.5,4.1-1.2,5-2.2
					c1.2-1.3,1.6-2.6,1.5-4.4c-0.2-1.9-0.3-3.8-0.3-5.7C134.3,71.6,134.4,71.3,134.4,70.9z"/>
				<g>
					<g>
						<g>
							<path class="st13" d="M73.2,45.1c0.1-1.2,0-2.2,0-3.3c0-1.1,0.4-2,1.5-2c0.3-0.1,0.5-0.2,0.8-0.4c1.7-0.9,4.7-2.7,7.5-3.9
								c-0.1,0.1-0.2,0.2-0.3,0.3c-0.4,0.4-1,0.6-1.4,1c-0.7,0.7-1,1.2-1,2.1c0,0.5-0.2,1.7,0.2,2.1c0,0,0,0,0,0
								c-0.2-0.4,0.1-1.3,0.1-1.7c0,0,0-0.1,0-0.1c0.1,0.4,0.4,0.8,0.7,1c0.7,0.6,0.8,1.4,1,2.3c0,0,0,0,0,0c-0.1-0.7-0.1-1.4-0.5-2
								c-0.2-0.5-0.6-0.7-0.8-1.2c-0.2-0.7,0.2-1.2,0.5-1.8c0.3-0.3,0.7-0.5,1.1-0.8c0.5-0.3,0.9-0.9,1.5-1.2
								c0.6-0.3,1.3-0.5,1.9-0.7c0.1,0,0.3,0,0.4,0c0.6,0,1-0.2,1.6-0.1c0.7,0.1,1.2,0.1,1.7,0.6c0.4,0.4,0.5,0.9,0.7,1.4
								c0.2,1.5-0.2,3.2-0.3,4.6c-0.1,1.9,0.3,3.7,0.2,5.6c0,1.1-0.4,1.6-0.6,2.3c-0.3-0.5-0.7-1-0.9-1.5c-0.2-0.4-0.5-0.9-0.9-1.3
								c-0.2-0.3-0.3-0.6-0.5-0.8c-0.7-0.9-1.2-1.5-1-2.7c0,0,0,0,0,0c-0.3,0.8-0.4,1.8,0.1,2.5c0.1,0.1,0.1,0.2,0.2,0.3
								c-1.2-0.3-2.4,0-3.4-0.9c0,0-0.1,0-0.1,0.1c0.4,0.5,0.8,0.8,1.4,1c0.2,0.1,1.7,0.3,1.6,0.3c0.8,0.2,1.3,1.1,1.6,1.7
								c0.5,0.9,1,1.8,1.5,2.7c0.1,0.2,0.3,0.4,0.4,0.7c0,0.1,0,0.2,0.1,0.4c-0.6-0.5-1.5-0.8-2.3-1c0,0,0,0,0,0
								c1.1,0.5,2,1.3,2.5,2.3c0.1,0.8,0.2,1.5,0.2,2.8c0.1,1.6,0.1,3.2,0.1,4.8c-0.1,0.3-0.3,0.6-0.7,0.8c-0.7,0.1-1.4,0-2.1-0.2
								c-0.2-0.1-0.3-0.2-0.5-0.3c-0.9-0.3-1.6-0.8-2.2-1.4c0.2,0.1,0.5,0.2,0.8,0.2c0.8,0.1,2.3,0.3,2.9-0.5c0,0,0,0,0,0
								c-0.7,0.6-2.4,0.1-3.1-0.2c-0.7-0.2-1.2-0.8-1.7-1.3c0,0,0,0,0,0c-1-1.2-1.1-3.1-1.2-4.9c-0.1-0.9-0.2-1.8-0.2-2.7
								c0-0.1-0.2,0-0.2,0.1c0,0.8,0,1.5,0,2.2c-0.2-0.3-0.4-0.6-0.5-0.9c-0.5-0.9-1.4-1.3-2.5-1.3c0,0-0.1,0.1,0,0.1
								c2,0.3,2.5,2.2,3,3.8c0,1.4,0.1,2.8,0.6,4.2c0.8,2.3,6,2.8,5.3,5.5c0,0.2,0.1,0.2,0.2,0c0.4-0.7,0.3-1.5-0.2-2.1
								c0.8,0.3,1.7,0.4,2.3,0c0,1.1,0,2.2,0.1,3.3c0,0.2,0,0.4-0.1,0.5c-0.2,0-0.3,0-0.6,0c-4.1,0.5-8.6-1.3-11.5-4.3
								c0,0,0,0,0-0.1c-0.1-0.3-0.3-0.6-0.5-0.9c0.5,0.2,0.9,0.3,1.4,0.4c-0.3-0.3-0.7-0.6-1-0.8c-0.5-0.3-1-0.5-1.3-1
								c-0.2-0.3-0.3-0.6-0.5-0.9c-0.2-0.5-0.3-1.1-0.4-1.6c-0.1-0.3-0.2-0.7-0.2-1.1c-0.2-1.6-0.4-3.5,0.2-5.1
								c0.7-1.9,2.5-3.4,2.4-5.5C78.4,46,77.3,47,76.5,48c-0.1-0.3-0.2-0.7-0.2-1.1c-0.2-1.1,0.6-2.8,1.2-3.7c0-0.1,0-0.1-0.1,0
								c-0.6,0.9-1.3,2.1-1.5,3.2c-0.1,0.6-0.1,1.6,0.2,2.2c-0.2,0.3-0.3,0.6-0.4,0.9c-0.3,1.2-0.4,2.2-0.3,3.4
								c0.1,1.1,0.2,2.2,0.4,3.2c-0.9-2.4-1.6-5-2-7.5C73.4,47.5,73,46.3,73.2,45.1z"/>
							<path class="st11" d="M75,78.6c-0.2,0.2-0.3,0.4-0.5,0.6c-1.6,0.9-3,0.7-5,0.5c-1-0.1-2.2-0.3-3.2-0.7
								c-0.3,0-0.6-0.1-0.8-0.1c1.1,0.6,2.3,1,3.6,1.3c-0.3,0.1-0.6,0.2-0.8,0.3c-1.3,0.2-2.7,0.6-3.9,1c-0.7,0.3-1.4,0.6-2,0.9
								c-0.9,0.7-1.9,1.4-3,1.6c-0.5,0.1-1,0.1-1.5,0.1c-1,0-2-0.2-3.2-0.7c-1.4-0.6-3.5-0.9-4.7-1.9c-1.1-0.9-1.1-2-1-3.3
								c-0.1-1.3,0.2-2.7,0.3-3.9c0.4,0.6,0.8,1.2,1.5,1.8c1.2,1,2.7,1.6,4.1,2c0.1,0.3,0.3,0.6,0.5,0.9c0.1,0.4,0.3,0.8,0.7,1
								c0.4,0.2,0.9,0.5,1.3,0.6c0,0,0.1,0,0.1,0c0.3,0,0.5,0,0.8,0c0,0,0,0,0,0c-0.1,0.1-0.8-0.3-0.9-0.4c-0.4-0.2-0.9-0.5-1.2-0.9
								c-0.2-0.3-0.3-0.8-0.4-1.1c0.7,0.1,1.4,0,2,0c1,0,1.9,0.4,2.9,0.7c0,0,0.1-0.1,0-0.1c-1-0.4-1.5-0.8-2.8-1
								c-0.6-0.1-1.2-0.2-1.7-0.2c-1.8-0.2-3.6-0.8-5-1.9c-1.7-1.3-2.2-3.7-2.3-5.8c-0.1-0.7-0.2-1.4-0.2-2.1c0.1-0.5,0.2-1,0.4-1.5
								c0.4-1,1.2-3.1,2.2-3.8c0,0,0,0,0,0c0,0,0,0,0,0s0,0,0,0c0.8-0.5,1,0.4,1,1c0.2,0.4,0.4,0.8,0.6,1.3
								c-0.5-0.3-1.1-0.2-1.8,0.1c0,0-0.1,0.1,0,0.1c1.4-0.2,2,0.7,2.7,1.7c0.1,0.2,0.2,0.4,0.2,0.6c0.8,2.2,2,4,3.5,5.3
								c0,0,0,0,0,0c-1.1-0.6-1.9-1.2-3.1-0.8c0,0,0,0,0,0c1.2-0.2,2.5,1.1,3.5,1.7c0.6,0.4,1.4,0.7,2.2,0.8
								c1.7,0.9,3.7,1.3,5.9,1.2l0,0c-0.6,0.4-0.9,1.1-1.3,1.8c0.1-0.1,0.2-0.2,0.4-0.3c0.6-0.7,1.2-1.1,2.1-1.5
								c0.9-0.4,2-0.2,2.8-0.5c1.9-0.2,3.7-0.1,5.1,1.6c0.2,0.3,0.5,0.5,0.8,0.8C75.5,77.8,75.2,78.3,75,78.6z"/>
							<path class="st14" d="M90.9,76.3c-0.2,1.2-0.6,2.4-1.3,3.2c-0.5,0.3-1,0.6-1.5,0.8c-0.1,0-0.2,0-0.3,0.1c-0.1,0-0.2,0-0.3,0
								c-0.8,0.2-1.6,0-2.3-0.4c-1.1-0.7-1.5-1.8-1.7-3c-0.4,1.8,0.3,3.2,2,3.9c-1.6,0-3.1-0.4-4.6-1.1c-0.8-0.1-1.5-0.6-2-1.4
								c-0.7-1.1-0.3-2.2-0.2-3.4c-0.3,0.9-0.8,1.8-0.7,2.7c-0.1,0-0.1-0.1-0.2-0.1c-0.1-0.1-0.2-0.2-0.3-0.3
								c-0.3-0.3-0.6-0.6-1-0.9c-1-0.6-1.6-1.7-2.1-2.7c-0.5-1.1-0.6-2-0.5-2.9c0-0.6,0.1-1.2,0.5-1.8c0-0.1,0.1-0.3,0.2-0.4
								c-0.5,0.2-0.8,0.6-1,0.9c-0.7-3.3-1.2-6.8-3-9c-0.2-0.3-0.5-0.6-0.9-0.9c-1.8-1.5-2.9-3.4-2-5.7c0-0.1,0-0.1-0.1,0
								c-0.8,1.5-0.9,2.6-0.2,4.2c0.1,0.2,0.2,0.4,0.4,0.6c-0.5-0.2-1.1-0.3-1.8-0.4c0,0,0,0,0,0c0.9,0.2,1.6,0.4,2.3,0.8
								c0.4,0.3,0.7,0.6,1,0.9c0.4,0.5,0.8,0.8,1.1,1.3c0.6,1.1,1,2.4,1.2,3.8c-0.6-0.8-1.3-1.4-2.4-1.8c-0.9-0.3-1.9-0.6-2.8-1
								c-1.1-0.5-1.8-1.7-2.3-2.8c0,0,0,0,0,0c0.6,1.8,1.3,2.8,3,3.5c0,0,0,0,0.1,0c-0.4,0-0.6,0.3-1,0.5c0,0,0,0,0,0
								c0.4-0.1,0.7-0.3,1.1-0.3c0.4,0,0.7,0.1,1,0.2c0.5,0.1,0.9,0.3,1.3,0.5c0.9,0.4,1.5,1.1,1.9,1.9c0.3,1.8,0.5,3.7,1.1,5.3
								c0.5,1.4,1.1,2.8,1.9,4c-1.1-0.6-2.4-1.1-3.4-0.9c-1.9,0.2-3.7,0.4-5.4,0.5c-0.9-0.1-1.8-0.1-2.5-0.5c-0.6-0.3-1-0.8-1.2-1.4
								c-0.2-0.3-0.3-0.7-0.4-1.1c-0.2,0.8-0.1,1.8,0.5,2.4c0.2,0.2,0.3,0.3,0.5,0.4c-1.9-0.3-3.8-1.1-5.7-2.7
								c-0.1-0.1-0.2-0.2-0.4-0.4c-0.5-0.6-0.8-1.4-1.1-2.1c-0.5-1.1-0.6-2.3-0.2-3.4c-0.5,0.6-0.6,1.3-0.6,2c0-0.1,0-0.1-0.1-0.2
								c-0.2-0.6-0.5-1.2-0.8-1.7c-0.2-0.8-0.4-1.5-0.6-2.2c-0.2-0.9-0.6-1.5-0.8-2.1c0-1.2,0.3-2.4,0.7-3.5c0-0.1,0.1-0.2,0.1-0.2
								c0,0,0-0.1,0-0.1c0.1-0.3,0.3-0.5,0.5-0.8c0.6-1,1.3-1.9,2.1-2.6c0.3-0.1,0.7,0,1,0.3c0,0.2-0.1,0.3-0.1,0.4
								c0,1.2,0.4,2.3,1.1,3.5c1.4,2.4,3.5,3.9,4.7,6.2c0,0,0,0,0,0c-0.2-0.3-0.8-0.9-1.1-1c-0.5-0.2-1-0.3-1.6-0.3
								c-0.3,0-0.6,0.1-0.9,0.2c0.2,0.1,0.3,0.1,0.5,0.2c0.3,0,0.6,0,0.9,0.1c0.5,0.1,1.1,0.2,1.5,0.6c0.3,0.3,0.6,0.7,0.8,1
								c0.1,0.1,0.2,0.1,0.3,0.2c0,0.1,0.1,0.2,0.1,0.2c0.3,0.9,0.8,1.8,1.4,2.7c0.3,0.5,0.6,1,1,1.4c0.6,0.6,1.4,1.1,1.8,1.8
								c0.1,0.1,0.3,0.2,0.4,0.3c0-0.6-0.3-1-0.7-1.4c1,0.4,2.2,0.1,3.1-0.3c-0.9,0.3-1.9,0.3-2.7,0.1c-0.5-0.1-0.9-0.4-1.3-0.8
								c0,0,0,0-0.1,0c-0.2-0.2-0.4-0.3-0.5-0.5c-0.3-0.4-0.6-0.9-1-1.3c-0.4-0.7-0.8-1.4-1.2-2c0-0.1-0.1-0.2-0.1-0.3
								c0,0,0-0.1,0-0.1c0,0,0,0,0,0c-0.2-0.7-0.5-1.4-0.7-2c-0.5-1.2-1.5-2.2-2.4-3.3c0,0,0-0.1,0-0.1c-0.2-0.7-0.6-1.2-0.7-1.9
								c-0.1-1.2-0.1-2.1,0.4-3.2c0,0,0,0,0,0c-0.8,1-1.1,2.7-0.8,4c-0.1-0.1-0.1-0.2-0.2-0.3c-0.4-0.7-0.7-1.4-0.9-2.1
								c-0.7-1.1-0.5-2.3,0-3.4c0.1-0.4,0.2-0.9,0.4-1.4c0.2-0.3,0.4-0.6,0.6-0.9c0.2-0.2,0.3-0.5,0.5-0.7c0.6-1.3,1.5-2.6,2.7-3.5
								c0.2,0.2,0.3,0.7,0.3,0.9c0,0.4,0.2,0.7,0.3,1.2c0.1,0.3,0.3,0.6,0.5,0.8c0.1,0.1,0.2,0.2,0.3,0.3c1.9,1.3,4.7,0.5,6.5,2.3
								c0.5,0.5,0.9,1.1,1.2,1.7c0.7,0.9,1.1,2,1,3.1c0,0.1,0.1,0.3,0.1,0.4c0.2-0.7,0.1-1.3,0-2c0,0,0,0,0,0
								c-0.3-1.4-0.8-2.7-1.8-3.8c-1.7-1.9-4.7-1.8-3.4-5.3c0,0,0,0,0,0c-0.8,1.5-1.2,2.7,0.2,3.9c0.1,0.1,0.3,0.2,0.5,0.3
								c-0.2-0.1-0.3-0.1-0.4-0.1c-0.8-0.2-2.5-0.7-2.9-0.9c-0.7-0.5-1.1-1.2-1.2-1.9c-0.9-1.9,1.2-3.5,3.1-4.7
								c0.9-0.8,2.1-1.4,3-1.9c0.6-0.3,1.7-1.3,2.5-0.9c0.5,0.2,0.6,0.6,0.5,0.9c0.2,1-0.1,2-0.2,3.2c-0.2,1.5,0.3,2.8,0.7,4.2
								c1,3.2,1.9,6.5,3.4,9.6c0,0.1,0.1,0.2,0.1,0.3c-0.7-0.3-1.3-0.3-1.8,0.5c0,0.1,0,0.1,0.1,0c0.8-0.8,1.6-0.3,2.3,0.5
								c0.3,0.5,0.5,1,0.8,1.5c1.7,2.6,5.1,3.8,7.9,4.9c1.1,0.4,1.8,0.5,3,0.4c0.5-0.1,1-0.1,1.3-0.2c0,0,0,0,0,0l0.2,0
								c0,0,0,0,0-0.1l0,0c0.6,0.7,0.5,2.2,0.5,3.1c0,1.2,0.3,2.7-0.4,3.7c-0.5,0-1.3-0.3-1.8-0.5c-0.5-0.4-1.1-0.7-1.7-0.9
								c-0.2-0.3-0.5-0.7-0.8-1c-1.4-1.5-4.4-1.9-6.2-2.8c-0.8-0.4-1.5-0.9-2.2-1.4c-0.1-0.2-0.3-0.5-0.3-0.8
								c-0.1-0.5,0.2-1.1,0.2-1.6c0,0,0,0-0.1,0c-0.2,0.5-0.5,1.2-0.5,1.8c-1.2-1.1-2-2.4-2.9-4.1c0,0,0,0,0,0
								c1.3,2.9,2.4,4.9,5.2,6.4c0,0-0.1,0-0.1,0c-0.7-0.1-1.7,0.1-2.1,0.7c-0.1,0-0.2,0.1,0,0c0,0,0,0,0,0
								c-0.1,0.1,0.1,0.1,0.1,0.1c0,0,0-0.1,0-0.1c0.1,0,0.3-0.1,0.5-0.2c0.7-0.2,1.3-0.1,2,0.1c0.8,0.2,1.5,0.6,2.3,0.6
								c3.6,1.6,7.8,3.8,5.1,8.2c0.1,0,0.2-0.1,0.3-0.1c1.2-1.9,1-3.5,0.1-5.1c0.2,0.1,0.5,0.2,0.7,0.4c0.3,0.2,0.5,0.5,0.8,0.8
								c0.2,0.2,0.8,1,0.6,1.3c0,0.1,0,0.1,0.1,0c0.4-0.5-0.2-1.5-0.5-2c0.6,0.4,1.4,0.7,1.8,0.4C90.9,74.4,91,75.4,90.9,76.3z"/>
						</g>
						<path class="st15" d="M55.8,76.7c-1.7-0.8-3.1-1.6-4.3-3.2c-1.4-1.8-1.4-4.1-1.9-6.2c0,0-0.1,0,0,0c0.2,2.2-0.1,4.3,1,6.3
							c1.1,2.1,3,2.6,5.2,3.3C55.7,76.9,55.9,76.8,55.8,76.7z"/>
						<path class="st15" d="M57.6,77c-0.2,0-0.8,0.1-0.9-0.1c0-0.1-0.1,0-0.1,0.1C56.7,77.4,57.8,77.6,57.6,77
							C57.7,77.1,57.7,77,57.6,77z"/>
						<path class="st15" d="M53.7,82.4c-1.6-1-4-1.9-3.7-4.3c0,0,0,0,0,0c-0.8,2.5,1.4,4.1,3.6,4.5C53.7,82.6,53.8,82.4,53.7,82.4z"
							/>
						<path class="st15" d="M58.1,79.9c-0.3-0.1-0.5-0.1-0.8-0.2c-0.3-0.1-0.5-0.3-0.7-0.6c0,0,0,0,0,0c0.3,0.6,0.7,1.5,1.5,1.1
							C58.1,80.1,58.3,79.9,58.1,79.9z"/>
						<path class="st15" d="M73.3,78.8c-2.2,0.5-4.6,0.5-6.5-1c0,0,0,0,0,0c1.5,2.1,4.3,2.2,6.5,1.2C73.4,78.9,73.5,78.7,73.3,78.8z
							"/>
						<path class="st15" d="M64,80.9c-0.9,0-1.5,0.2-2.3,0.6c-1.4,0.6-2.2,1.9-4,1.7c0,0,0,0,0,0c0.9,0.3,1.5,0.3,2.3-0.1
							c0.6-0.3,1.1-0.8,1.7-1.2c0.7-0.4,1.5-0.5,2.2-0.7C64,81.1,64.2,80.9,64,80.9z"/>
						<path class="st15" d="M60.1,72.6c-2-1.8-3.7-4.1-3.6-6.9c0,0,0,0-0.1,0c-0.6,1.5-0.7,2.8,0.1,4.3c0.7,1.2,2.2,2.2,3.4,2.7
							C60.1,72.9,60.2,72.7,60.1,72.6z"/>
						<path class="st15" d="M53.7,61.5c-0.3-0.5-0.4-1.1-0.4-1.7c0,0,0,0,0,0c-0.1,0.6-0.3,1-0.1,1.6c0.2,0.7,0.4,1.4,0.8,1.9
							c0.1,0.1,0.3,0,0.3-0.2C54.1,62.6,54,62,53.7,61.5z"/>
						<path class="st15" d="M62.9,62.4c-0.5-0.9-1.1-1.8-1.7-2.7c-0.7-1.1-0.5-2.4-0.4-3.6c0-0.1-0.1,0-0.1,0
							c-0.5,1.4-0.6,2.3-0.3,3.8c0.3,1.3,1.4,2,2.3,2.8C62.8,62.7,63,62.5,62.9,62.4z"/>
						<path class="st15" d="M69.2,70.2C67.9,70,66.7,69.2,66,68c-0.4-0.6-0.8-1.1-1.1-1.7c-0.2-0.3-0.3-0.7-0.6-1c0,0,0,0,0,0
							c0.2,0.6,0.2,1.3,0.5,1.9c0.3,0.6,0.6,1.2,1,1.8c0.8,1,2.2,1.5,3.5,1.4C69.3,70.4,69.3,70.2,69.2,70.2z"/>
						<path class="st15" d="M70.8,70.2c-0.1,0-0.2,0-0.4-0.1c-0.1,0-0.3,0.2-0.1,0.2c0.2,0.1,0.3,0.1,0.5,0.1
							C70.8,70.4,70.9,70.2,70.8,70.2z"/>
						<path class="st15" d="M76.7,75.4c-0.4-0.9-0.8-1.8-1.1-2.7c-0.3-0.9-0.2-1.8-0.3-2.7c0,0,0,0,0,0c-0.2,1.1-0.5,1.9-0.3,3.1
							c0.2,1,0.8,1.9,1.5,2.6C76.5,75.7,76.8,75.5,76.7,75.4z"/>
						<path class="st15" d="M81.2,78.9c-0.5-0.7-1.1-1.2-1.4-1.9c-0.4-0.8-0.7-2-0.4-2.9c0,0,0,0,0,0c-1.1,1.9-0.1,4.1,1.6,5.1
							C81,79.3,81.3,79,81.2,78.9z"/>
						<path class="st15" d="M84.3,71.3c-1.3-0.9-2.7-0.9-4.2-1.2c0,0-0.1,0.1,0,0.1c1.2,0.4,2.4,0.7,3.5,1.4c1,0.6,2.1,1.6,2.7,2.6
							c0.1,0.1,0.2,0,0.2-0.1C86.2,73,85.2,71.9,84.3,71.3z"/>
						<path class="st15" d="M71,59.4c-0.5-0.8-1.4-1.4-1.8-2.2c-0.5-0.8-0.7-1.8-0.8-2.7c0,0,0,0,0,0c-0.1,1,0,1.8,0.3,2.8
							c0.3,1,1.3,1.7,2.2,2.3C70.9,59.6,71,59.5,71,59.4z"/>
						<path class="st15" d="M72.2,61.3c-0.1-0.2-0.3-0.4-0.5-0.6c0,0-0.1,0-0.1,0c0.1,0.2,0.2,0.5,0.3,0.7c0,0.2,0.1,0.5,0.2,0.7
							c0.1,0.2,0.3,0,0.3-0.2C72.5,61.7,72.3,61.5,72.2,61.3z"/>
						<path class="st15" d="M68.9,62.1c-0.3-0.3-0.7-0.3-1-0.3c-0.5,0-1-0.5-1.5-0.7c0,0,0,0,0,0c0.3,0.3,0.6,0.7,1,1
							c0.4,0.2,0.8,0.3,1.2,0.3C68.8,62.5,69,62.2,68.9,62.1z"/>
						<path class="st15" d="M65.5,48.8c-0.4-0.4-0.9-0.8-1-1.4c-0.1-0.6-0.2-1.1-0.2-1.6c0,0-0.1,0-0.1,0C64,46.5,63.8,47.2,64,48
							c0.1,0.6,0.6,1.2,1.3,1.2C65.4,49.2,65.6,49,65.5,48.8z"/>
						<path class="st15" d="M67.7,46.8C67.7,46.8,67.6,46.8,67.7,46.8c-0.2,1.3-0.1,2,0.9,2.9c0.6,0.6,1.3,1.1,1.9,1.6
							c0.8,0.7,1.2,1.6,1.7,2.5c0,0.1,0.2,0,0.2-0.1C71.9,50.6,67.6,50.1,67.7,46.8z"/>
						<path class="st15" d="M74.4,41.2C74.4,41.2,74.4,41.2,74.4,41.2c-1.2,2.1-1,5.4-0.2,7.6c0,0.1,0.2,0,0.2-0.1
							C74.2,46.4,73.6,43.5,74.4,41.2z"/>
						<path class="st15" d="M78.6,58.4c-1.6-2.9-2.2-6.4-0.8-9.6c0,0,0,0,0,0c-2.2,3.1-2,7,0.7,9.7C78.5,58.7,78.6,58.5,78.6,58.4z"
							/>
						<path class="st15" d="M79.8,59.5c-0.2-0.1-0.4-0.3-0.6-0.4c-0.1-0.1-0.3,0.1-0.2,0.2c0.2,0.2,0.2,0.5,0.5,0.6
							C79.7,59.9,79.9,59.7,79.8,59.5z"/>
						<path class="st15" d="M85.8,57.7c-1.4-1-2.2-2.4-2.4-4.1c0,0,0,0,0,0c-0.1,1.6,0.5,3.9,2.3,4.3C85.7,57.9,85.9,57.8,85.8,57.7
							z"/>
						<path class="st15" d="M87.7,64.3c-1.4-0.3-3.3-0.2-4.4-1.3c0,0-0.1,0,0,0c0.8,1.3,2.9,1.8,4.3,1.6
							C87.8,64.7,87.9,64.4,87.7,64.3z"/>
						<path class="st15" d="M83.6,36.7c-1.7,0.7-2,3.2-0.5,4.2c0.1,0.1,0.3-0.1,0.3-0.2c-0.2-0.5-0.6-1.1-0.7-1.6
							C82.5,38.1,82.9,37.5,83.6,36.7C83.7,36.8,83.7,36.7,83.6,36.7z"/>
						<path class="st15" d="M85.7,44.8c-0.5-0.3-1-0.3-1.5-0.6c-0.6-0.3-1.2-0.9-1.3-1.5c0,0,0,0,0,0c-0.1,0.6,0.1,1.2,0.5,1.7
							c0.5,0.7,1.4,0.7,2.2,0.8C85.6,45.1,85.9,44.9,85.7,44.8z"/>
						<path class="st15" d="M87.7,42.4c-0.2-0.9,0-1.6,0.2-2.5c0,0,0,0,0,0c-0.3,0.8-0.8,1.5-0.8,2.4c0.1,1.1,0.4,2.1,1.2,2.8
							c0.1,0.1,0.3-0.1,0.3-0.2C88.4,44,87.9,43.2,87.7,42.4z"/>
						<path class="st15" d="M76.7,64.1c-0.4-0.4-0.8-0.6-0.9-1.2c0,0,0,0,0,0c0,0.5,0.1,1.7,0.8,1.4C76.7,64.3,76.8,64.2,76.7,64.1z
							"/>
						<path class="st15" d="M86.7,69.2c-0.4-0.3-0.8-0.6-1.3-0.5c0,0-0.1,0.1,0,0.1c0.5,0.1,0.9,0.6,1.2,1c0.2,0.2,0.4,0.4,0.5,0.7
							c0.1,0.2,0.2,0.4,0.5,0.4c0.1,0,0.3-0.2,0.3-0.3C87.6,69.9,87.1,69.6,86.7,69.2z"/>
						<path class="st15" d="M88.7,71.2c0,0-0.1-0.1-0.1-0.1c0-0.1-0.2,0-0.2,0.1c0.1,0.1,0,0.1,0.2,0.2
							C88.7,71.4,88.8,71.3,88.7,71.2z"/>
					</g>
					<g>
						<g>
							<path class="st13" d="M108.9,48.7c-0.4,2.6-1.1,5.2-2,7.5c0.2-1.1,0.3-2.1,0.4-3.2c0.1-1.2,0-2.2-0.3-3.4
								c-0.1-0.3-0.2-0.6-0.4-0.9c0.3-0.7,0.3-1.6,0.2-2.2c-0.2-1.1-0.8-2.3-1.5-3.2c0,0-0.1,0-0.1,0c0.5,0.9,1.4,2.6,1.2,3.7
								c-0.1,0.3-0.2,0.7-0.2,1.1c-0.8-1.1-1.9-2-2.2-3.5c-0.1,2.1,1.7,3.6,2.4,5.5c0.6,1.6,0.5,3.4,0.2,5.1c0,0.4-0.1,0.8-0.2,1.1
								c-0.1,0.5-0.2,1.1-0.4,1.6c-0.2,0.3-0.3,0.6-0.5,0.9c-0.4,0.6-0.8,0.8-1.3,1c-0.3,0.3-0.6,0.6-1,0.8c0.5-0.1,0.9-0.2,1.4-0.4
								c-0.2,0.3-0.4,0.6-0.5,0.9c0,0,0,0,0,0.1c-2.8,3.1-7.4,4.8-11.5,4.3c-0.2,0-0.4,0-0.6,0c0-0.1,0-0.3-0.1-0.5
								c0-1.1,0.1-2.2,0.1-3.3c0.6,0.4,1.5,0.3,2.3,0c-0.4,0.6-0.6,1.4-0.2,2.1c0.1,0.1,0.2,0.1,0.2,0c-0.7-2.7,4.5-3.2,5.3-5.5
								c0.5-1.4,0.6-2.8,0.6-4.2c0.6-1.6,1.1-3.5,3-3.8c0,0,0-0.1,0-0.1c-1,0-1.9,0.4-2.5,1.3c-0.2,0.3-0.4,0.6-0.5,0.9
								c0-0.7,0-1.5,0-2.2c0-0.1-0.2-0.2-0.2-0.1c-0.1,0.9-0.1,1.8-0.2,2.7c0,1.8-0.1,3.7-1.2,4.9c0,0,0,0,0,0
								c-0.5,0.5-1,1.1-1.7,1.3c-0.7,0.2-2.5,0.7-3.1,0.2c0,0,0,0,0,0c0.6,0.8,2.1,0.6,2.9,0.5c0.3-0.1,0.5-0.1,0.8-0.2
								c-0.6,0.6-1.3,1.1-2.2,1.4c-0.2,0.1-0.4,0.2-0.5,0.3c-0.7,0.2-1.4,0.3-2.1,0.2c-0.4-0.2-0.6-0.5-0.7-0.8c0-1.6,0-3.2,0.1-4.8
								c0.1-1.3,0.1-2,0.2-2.8c0.5-1,1.4-1.8,2.5-2.3c0,0,0,0,0,0c-0.7,0.2-1.6,0.5-2.3,1c0-0.1,0-0.2,0.1-0.4
								c0.1-0.2,0.2-0.4,0.4-0.7c0.6-0.9,1-1.8,1.5-2.7c0.4-0.6,0.9-1.5,1.6-1.7c0,0,1.5-0.2,1.6-0.3c0.6-0.2,1-0.5,1.4-1
								c0,0,0-0.1-0.1-0.1c-1,0.9-2.2,0.7-3.4,0.9c0.1-0.1,0.2-0.2,0.2-0.3c0.5-0.8,0.3-1.7,0.1-2.5c0,0-0.1,0,0,0
								c0.1,1.2-0.4,1.8-1,2.7c-0.2,0.2-0.4,0.5-0.5,0.8c-0.4,0.4-0.7,0.9-0.9,1.3c-0.2,0.5-0.6,0.9-0.9,1.5
								c-0.2-0.6-0.6-1.2-0.6-2.3c0-1.9,0.3-3.7,0.2-5.6c0-1.4-0.5-3.1-0.3-4.6c0.2-0.5,0.4-1,0.7-1.4c0.5-0.5,1-0.5,1.7-0.6
								c0.6-0.1,1,0.1,1.6,0.1c0.1,0,0.3,0,0.4,0c0.6,0.2,1.3,0.4,1.9,0.7c0.6,0.3,1,0.8,1.5,1.2c0.4,0.3,0.8,0.5,1.1,0.8
								c0.4,0.5,0.8,1.1,0.5,1.8c-0.2,0.6-0.5,0.8-0.8,1.2c-0.3,0.6-0.3,1.3-0.5,2c0,0,0,0.1,0,0c0.2-0.8,0.3-1.6,1-2.3
								c0.3-0.3,0.6-0.6,0.7-1c0,0,0,0,0,0.1c0.1,0.4,0.3,1.3,0.1,1.7l0,0c0.4-0.4,0.2-1.6,0.2-2.1c-0.1-1-0.3-1.5-1-2.1
								c-0.4-0.4-1-0.6-1.4-1c-0.1-0.1-0.2-0.2-0.3-0.3c2.9,1.2,5.8,3,7.5,3.9c0.2,0.1,0.5,0.2,0.8,0.4c1.2-0.1,1.5,0.9,1.5,2
								c0,1.2-0.1,2.2,0,3.3C109.7,46.3,109.3,47.5,108.9,48.7z"/>
							<path class="st11" d="M106.9,77.5c0.3-0.3,0.6-0.5,0.8-0.8c1.4-1.7,3.2-1.8,5.1-1.6c0.9,0.3,1.9,0.2,2.8,0.5
								c1,0.4,1.5,0.8,2.1,1.5c0.1,0.1,0.2,0.2,0.4,0.3c-0.3-0.6-0.7-1.3-1.3-1.8l0,0c2.2,0.1,4.2-0.4,5.9-1.2
								c0.8-0.2,1.5-0.4,2.2-0.8c1-0.6,2.3-1.8,3.5-1.7c0,0,0,0,0,0c-1.3-0.4-2,0.2-3.1,0.8c0,0,0,0,0,0c1.5-1.4,2.6-3.2,3.5-5.3
								c0.1-0.2,0.2-0.4,0.2-0.6c0.7-1,1.3-1.9,2.7-1.7c0.1,0,0-0.1,0-0.1c-0.7-0.2-1.3-0.3-1.8-0.1c0.2-0.4,0.4-0.9,0.6-1.3
								c0-0.6,0.2-1.4,1-1c0,0,0,0,0,0c0,0,0,0,0,0c0,0,0,0,0,0c1,0.7,1.8,2.8,2.2,3.8c0.2,0.5,0.3,1,0.4,1.5c0,0.7-0.1,1.4-0.2,2.1
								c-0.1,2.1-0.5,4.6-2.3,5.8c-1.4,1-3.2,1.7-5,1.9c-0.5,0.1-1,0.2-1.7,0.2c-1.3,0.2-1.8,0.5-2.8,1c0,0,0,0.1,0,0.1
								c1-0.2,1.8-0.7,2.9-0.7c0.6,0,1.3,0.1,2,0c-0.1,0.4-0.2,0.8-0.4,1.1c-0.3,0.4-0.8,0.7-1.2,0.9c-0.1,0.1-0.8,0.4-0.9,0.4
								c0,0,0,0,0,0c0.3,0,0.5,0,0.8,0c0,0,0.1,0,0.1,0c0.4-0.1,0.9-0.4,1.3-0.6c0.4-0.2,0.5-0.6,0.7-1c0.1-0.3,0.3-0.6,0.5-0.9
								c1.5-0.4,3-1,4.1-2c0.6-0.5,1.1-1.1,1.5-1.8c0.1,1.2,0.3,2.6,0.3,3.9c0.2,1.3,0.1,2.3-1,3.3c-1.2,1-3.3,1.3-4.7,1.9
								c-1.2,0.5-2.3,0.7-3.2,0.7c-0.5,0.1-1,0-1.5-0.1c-1.1-0.3-2-0.9-3-1.6c-0.7-0.3-1.3-0.6-2-0.9c-1.2-0.4-2.5-0.8-3.9-1
								c-0.3-0.2-0.5-0.2-0.8-0.3c1.2-0.3,2.5-0.8,3.6-1.3c-0.3,0-0.6,0.1-0.8,0.1c-1.1,0.3-2.3,0.6-3.2,0.7c-2,0.2-3.4,0.4-5-0.5
								c-0.2-0.2-0.3-0.4-0.5-0.6C107.4,78.3,107.2,77.8,106.9,77.5z"/>
							<path class="st14" d="M91.8,73.5c0.5,0.2,1.2-0.1,1.9-0.4c-0.3,0.4-0.9,1.4-0.5,2c0,0.1,0.1,0,0.1,0
								c-0.2-0.4,0.4-1.1,0.6-1.3c0.2-0.3,0.5-0.6,0.8-0.8c0.2-0.1,0.5-0.2,0.7-0.4c-1,1.6-1.1,3.3,0.1,5.1c0.1,0,0.2,0.1,0.3,0.1
								c-2.7-4.4,1.5-6.6,5.1-8.2c0.8,0,1.6-0.5,2.3-0.6c0.7-0.1,1.3-0.3,2-0.1c0.2,0.1,0.4,0.1,0.5,0.2c0,0.1,0,0.1,0,0.1
								c0.1,0.1,0.2,0.1,0.1-0.1c0,0,0,0,0,0c0.2,0,0.1,0,0,0c-0.4-0.7-1.3-0.8-2.1-0.7c0,0-0.1,0-0.1,0c2.8-1.5,3.8-3.6,5.2-6.4
								c0,0,0,0,0,0c-1,1.7-1.8,3-2.9,4.1c0-0.6-0.4-1.3-0.5-1.8c0,0-0.1-0.1-0.1,0c0.1,0.5,0.3,1.1,0.2,1.6
								c-0.1,0.3-0.2,0.5-0.3,0.8c-0.6,0.5-1.3,0.9-2.2,1.4c-1.8,0.9-4.8,1.3-6.2,2.8c-0.3,0.3-0.6,0.7-0.8,1
								c-0.6,0.2-1.2,0.5-1.7,0.9c-0.5,0.2-1.3,0.5-1.8,0.5c-0.7-1-0.4-2.5-0.4-3.7c0-0.9-0.1-2.4,0.5-3.1l0,0c0,0,0,0.1,0,0.1
								l0.2,0c0,0,0,0,0,0c0.3,0.1,0.7,0.1,1.3,0.2c1.2,0.1,1.9,0,3-0.4c2.7-1.1,6.2-2.3,7.9-4.9c0.3-0.5,0.6-1,0.8-1.5
								c0.7-0.8,1.6-1.4,2.3-0.5c0,0,0.1,0,0.1,0c-0.5-0.8-1.2-0.8-1.8-0.5c0-0.1,0.1-0.2,0.1-0.3c1.4-3.1,2.4-6.4,3.4-9.6
								c0.4-1.4,0.9-2.7,0.7-4.2c-0.1-1.2-0.5-2.2-0.2-3.2c-0.1-0.4,0.1-0.7,0.5-0.9c0.7-0.4,1.9,0.5,2.5,0.9c0.9,0.5,2.1,1.1,3,1.9
								c1.9,1.1,4,2.8,3.1,4.7c-0.1,0.7-0.4,1.4-1.2,1.9c-0.3,0.2-2.1,0.7-2.9,0.9c-0.2,0-0.3,0.1-0.4,0.1c0.2-0.1,0.3-0.2,0.5-0.3
								c1.4-1.2,1-2.4,0.2-3.9c0,0,0,0,0,0c1.3,3.5-1.7,3.4-3.4,5.3c-1,1.1-1.5,2.4-1.8,3.8c0,0,0,0,0,0c-0.2,0.7-0.2,1.3,0,2
								c0-0.2,0-0.3,0.1-0.4c0-1,0.4-2.1,1-3.1c0.3-0.6,0.7-1.2,1.2-1.7c1.8-1.8,4.6-1.1,6.5-2.3c0.1-0.1,0.2-0.2,0.3-0.3
								c0.2-0.2,0.4-0.4,0.5-0.8c0.2-0.4,0.3-0.7,0.3-1.2c0-0.2,0.1-0.8,0.3-0.9c1.1,0.9,2,2.2,2.7,3.5c0.2,0.2,0.4,0.4,0.5,0.7
								c0.2,0.3,0.4,0.6,0.6,0.9c0.2,0.5,0.3,0.9,0.4,1.4c0.5,1.1,0.7,2.3,0,3.4c-0.2,0.7-0.5,1.4-0.9,2.1c-0.1,0.1-0.1,0.2-0.2,0.3
								c0.4-1.3,0-3-0.8-4c0,0-0.1,0,0,0c0.6,1.1,0.5,2,0.4,3.2c0,0.7-0.4,1.2-0.7,1.9c0,0,0,0.1,0,0.1c-0.9,1.1-2,2.1-2.4,3.3
								c-0.2,0.6-0.5,1.3-0.7,2c0,0,0,0,0,0c0,0,0,0.1,0,0.1c0,0.1-0.1,0.2-0.1,0.3c-0.5,0.6-0.8,1.3-1.2,2c-0.3,0.4-0.6,0.9-1,1.3
								c-0.2,0.2-0.3,0.3-0.5,0.5c0,0,0,0-0.1,0c-0.3,0.4-0.8,0.7-1.3,0.8c-0.8,0.2-1.8,0.2-2.7-0.1c1,0.4,2.1,0.6,3.1,0.3
								c-0.4,0.4-0.6,0.8-0.7,1.4c0.1-0.1,0.3-0.2,0.4-0.3c0.4-0.7,1.2-1.3,1.8-1.8c0.4-0.4,0.7-0.9,1-1.4c0.6-0.8,1.1-1.8,1.4-2.7
								c0-0.1,0.1-0.2,0.1-0.2c0.1-0.1,0.2-0.1,0.3-0.2c0.2-0.4,0.5-0.7,0.8-1c0.5-0.4,1-0.5,1.5-0.6c0.3-0.1,0.6-0.1,0.9-0.1
								c0.2,0,0.4-0.1,0.5-0.2c-0.3-0.1-0.6-0.3-0.9-0.2c-0.5,0.1-1.1,0.1-1.6,0.3c-0.3,0.1-0.9,0.8-1.1,1c0,0,0,0,0,0
								c1.2-2.4,3.3-3.9,4.7-6.2c0.7-1.2,1.1-2.3,1.1-3.5c0-0.2-0.1-0.3-0.1-0.4c0.3-0.3,0.6-0.4,1-0.3c0.9,0.7,1.5,1.6,2.1,2.6
								c0.2,0.2,0.3,0.5,0.5,0.8c0,0,0,0.1,0,0.1c0,0.1,0.1,0.2,0.1,0.2c0.4,1.1,0.7,2.3,0.7,3.5c-0.2,0.5-0.6,1.1-0.8,2.1
								c-0.2,0.7-0.4,1.5-0.6,2.2c-0.3,0.5-0.6,1.2-0.8,1.7c0,0.1,0,0.1-0.1,0.2c0-0.7-0.1-1.4-0.6-2c0.4,1.2,0.3,2.4-0.2,3.4
								c-0.3,0.8-0.7,1.5-1.1,2.1c-0.1,0.1-0.2,0.2-0.4,0.4c-2,1.6-3.8,2.4-5.7,2.7c0.2-0.1,0.3-0.3,0.5-0.4
								c0.5-0.7,0.7-1.6,0.5-2.4c0,0.4-0.2,0.8-0.4,1.1c-0.2,0.6-0.6,1.2-1.2,1.4c-0.8,0.4-1.7,0.4-2.5,0.5
								c-1.7-0.1-3.4-0.3-5.4-0.5c-1-0.1-2.2,0.3-3.4,0.9c0.8-1.2,1.4-2.6,1.9-4c0.5-1.6,0.8-3.5,1.1-5.3c0.5-0.8,1-1.5,1.9-1.9
								c0.4-0.2,0.9-0.3,1.3-0.5c0.3,0,0.7-0.1,1-0.2c0.5,0,0.7,0.2,1.1,0.3c0,0,0,0,0,0c-0.4-0.2-0.6-0.4-1-0.5c0,0,0,0,0.1,0
								c1.8-0.7,2.4-1.8,3-3.5c0,0,0-0.1,0,0c-0.5,1.1-1.2,2.2-2.3,2.8c-0.9,0.4-1.8,0.7-2.8,1c-1,0.4-1.8,1-2.4,1.8
								c0.3-1.4,0.6-2.7,1.2-3.8c0.3-0.4,0.7-0.8,1.1-1.3c0.3-0.3,0.7-0.6,1-0.9c0.6-0.4,1.4-0.7,2.3-0.8c0,0,0,0,0,0
								c-0.7,0.1-1.3,0.2-1.8,0.4c0.2-0.2,0.3-0.4,0.4-0.6c0.7-1.6,0.6-2.7-0.2-4.2c0,0-0.1,0-0.1,0c0.9,2.3-0.2,4.2-2,5.7
								c-0.3,0.3-0.6,0.6-0.9,0.9c-1.8,2.2-2.3,5.7-3,9c-0.2-0.4-0.5-0.7-1-0.9c0,0.2,0.1,0.3,0.2,0.4c0.3,0.6,0.5,1.2,0.5,1.8
								c0.1,0.9,0,1.8-0.5,2.9c-0.5,1-1.1,2.1-2.1,2.7c-0.4,0.3-0.7,0.6-1,0.9c-0.1,0.1-0.2,0.2-0.3,0.3c0,0-0.1,0.1-0.2,0.1
								c0.1-0.9-0.3-1.8-0.7-2.7c0,1.2,0.5,2.3-0.2,3.4c-0.5,0.8-1.2,1.2-2,1.4c-1.5,0.7-3,1.1-4.6,1.1c1.8-0.7,2.5-2.1,2-3.9
								c-0.2,1.2-0.6,2.3-1.7,3c-0.7,0.5-1.6,0.7-2.3,0.4c-0.1,0-0.2,0-0.3,0c-0.1,0-0.2,0-0.3-0.1c-0.5-0.2-1.1-0.5-1.5-0.8
								c-0.7-0.8-1.1-2-1.3-3.2C91.7,75.4,91.8,74.4,91.8,73.5z"/>
						</g>
						<path class="st15" d="M126.9,76.7c1.7-0.8,3.1-1.6,4.3-3.2c1.4-1.8,1.4-4.1,1.9-6.2c0,0,0.1,0,0,0c-0.2,2.2,0.1,4.3-1,6.3
							c-1.2,2.1-3,2.6-5.2,3.3C127,76.9,126.8,76.8,126.9,76.7z"/>
						<path class="st15" d="M125.1,77c0.2,0,0.8,0.1,0.9-0.1c0-0.1,0.1,0,0.1,0.1C126,77.4,124.9,77.6,125.1,77
							C125,77.1,125,77,125.1,77z"/>
						<path class="st15" d="M129,82.4c1.6-1,4-1.9,3.7-4.3c0,0,0,0,0,0c0.8,2.5-1.4,4.1-3.6,4.5C129,82.6,128.9,82.4,129,82.4z"/>
						<path class="st15" d="M124.6,79.9c0.3-0.1,0.5-0.1,0.8-0.2c0.3-0.1,0.5-0.3,0.7-0.6c0,0,0,0,0,0c-0.3,0.6-0.7,1.5-1.5,1.1
							C124.6,80.1,124.4,79.9,124.6,79.9z"/>
						<path class="st15" d="M109.3,78.8c2.2,0.5,4.6,0.5,6.5-1c0,0,0,0,0,0c-1.5,2.1-4.3,2.2-6.5,1.2
							C109.2,78.9,109.2,78.7,109.3,78.8z"/>
						<path class="st15" d="M118.7,80.9c0.9,0,1.5,0.2,2.3,0.6c1.4,0.6,2.2,1.9,4,1.7c0,0,0,0,0,0c-0.9,0.3-1.5,0.3-2.3-0.1
							c-0.6-0.3-1.1-0.8-1.7-1.2c-0.7-0.4-1.5-0.5-2.2-0.7C118.7,81.1,118.5,80.9,118.7,80.9z"/>
						<path class="st15" d="M122.6,72.6c2-1.8,3.7-4.1,3.6-6.9c0,0,0,0,0.1,0c0.6,1.5,0.7,2.8-0.1,4.3c-0.7,1.2-2.2,2.2-3.4,2.7
							C122.6,72.9,122.5,72.7,122.6,72.6z"/>
						<path class="st15" d="M129,61.5c0.3-0.5,0.4-1.1,0.4-1.7c0,0,0,0,0,0c0.1,0.6,0.3,1,0.1,1.6c-0.2,0.7-0.4,1.4-0.8,1.9
							c-0.1,0.1-0.3,0-0.3-0.2C128.6,62.6,128.7,62,129,61.5z"/>
						<path class="st15" d="M119.8,62.4c0.5-0.9,1.1-1.8,1.7-2.7c0.7-1.1,0.5-2.4,0.4-3.6c0-0.1,0.1,0,0.1,0
							c0.5,1.4,0.6,2.3,0.3,3.8c-0.3,1.3-1.4,2-2.3,2.8C119.9,62.7,119.7,62.5,119.8,62.4z"/>
						<path class="st15" d="M113.5,70.2c1.3-0.3,2.5-1.1,3.3-2.2c0.4-0.6,0.8-1.1,1.1-1.7c0.2-0.3,0.3-0.7,0.6-1c0,0,0,0,0,0
							c-0.2,0.6-0.2,1.3-0.5,1.9c-0.3,0.6-0.6,1.2-1,1.8c-0.8,1-2.2,1.5-3.5,1.4C113.4,70.4,113.4,70.2,113.5,70.2z"/>
						<path class="st15" d="M111.9,70.2c0.1,0,0.2,0,0.4-0.1c0.1,0,0.3,0.2,0.1,0.2c-0.2,0.1-0.3,0.1-0.5,0.1
							C111.9,70.4,111.8,70.2,111.9,70.2z"/>
						<path class="st15" d="M106,75.4c0.4-0.9,0.8-1.8,1.1-2.7c0.3-0.9,0.2-1.8,0.3-2.7c0,0,0,0,0,0c0.2,1.1,0.5,1.9,0.3,3.1
							c-0.2,1-0.8,1.9-1.5,2.6C106.2,75.7,105.9,75.5,106,75.4z"/>
						<path class="st15" d="M101.5,78.9c0.5-0.7,1.1-1.2,1.4-1.9c0.4-0.8,0.7-2,0.4-2.9c0,0,0,0,0.1,0c1.1,1.9,0.1,4.1-1.6,5.1
							C101.7,79.3,101.4,79,101.5,78.9z"/>
						<path class="st15" d="M98.4,71.3c1.3-0.9,2.7-0.9,4.2-1.2c0,0,0.1,0.1,0,0.1c-1.2,0.4-2.4,0.7-3.5,1.4c-1,0.6-2.1,1.6-2.7,2.6
							c-0.1,0.1-0.2,0-0.2-0.1C96.5,73,97.5,71.9,98.4,71.3z"/>
						<path class="st15" d="M111.7,59.4c0.5-0.8,1.4-1.4,1.8-2.2c0.5-0.8,0.7-1.8,0.8-2.7c0,0,0,0,0,0c0.1,1,0,1.8-0.3,2.8
							c-0.3,1-1.3,1.7-2.2,2.3C111.8,59.6,111.7,59.5,111.7,59.4z"/>
						<path class="st15" d="M110.5,61.3c0.1-0.2,0.3-0.4,0.5-0.6c0,0,0.1,0,0.1,0c-0.1,0.2-0.2,0.5-0.3,0.7c0,0.2-0.1,0.5-0.2,0.7
							c-0.1,0.2-0.3,0-0.3-0.2C110.2,61.7,110.4,61.5,110.5,61.3z"/>
						<path class="st15" d="M113.8,62.1c0.3-0.3,0.7-0.3,1-0.3c0.5,0,1-0.5,1.5-0.7c0,0,0,0,0,0c-0.3,0.3-0.6,0.7-1,1
							c-0.4,0.2-0.8,0.3-1.2,0.3C113.9,62.5,113.7,62.2,113.8,62.1z"/>
						<path class="st15" d="M117.2,48.8c0.4-0.4,0.9-0.8,1-1.4c0.1-0.6,0.2-1.1,0.2-1.6c0,0,0.1,0,0.1,0c0.2,0.8,0.3,1.4,0.2,2.2
							c-0.1,0.6-0.6,1.2-1.3,1.2C117.3,49.2,117.1,49,117.2,48.8z"/>
						<path class="st15" d="M115,46.8C115,46.8,115.1,46.8,115,46.8c0.2,1.3,0.1,2-0.9,2.9c-0.6,0.6-1.3,1.1-1.9,1.6
							c-0.8,0.7-1.2,1.6-1.7,2.5c0,0.1-0.2,0-0.2-0.1C110.8,50.6,115.1,50.1,115,46.8z"/>
						<path class="st15" d="M108.3,41.2C108.3,41.2,108.3,41.2,108.3,41.2c1.2,2.1,1,5.4,0.2,7.6c0,0.1-0.2,0-0.2-0.1
							C108.5,46.4,109.1,43.5,108.3,41.2z"/>
						<path class="st15" d="M104.1,58.4c1.6-2.9,2.2-6.4,0.8-9.6c0,0,0,0,0,0c2.2,3.1,2,7-0.7,9.7C104.2,58.7,104.1,58.5,104.1,58.4
							z"/>
						<path class="st15" d="M102.9,59.5c0.2-0.1,0.4-0.3,0.6-0.4c0.1-0.1,0.3,0.1,0.2,0.2c-0.2,0.2-0.2,0.5-0.5,0.6
							C103,59.9,102.8,59.7,102.9,59.5z"/>
						<path class="st15" d="M96.9,57.7c1.4-1,2.2-2.4,2.4-4.1c0,0,0,0,0,0c0.1,1.6-0.5,3.9-2.3,4.3C97,57.9,96.8,57.8,96.9,57.7z"/>
						<path class="st15" d="M95,64.3c1.4-0.3,3.3-0.2,4.4-1.3c0,0,0.1,0,0,0c-0.8,1.3-2.9,1.8-4.3,1.6C94.9,64.7,94.8,64.4,95,64.3z
							"/>
						<path class="st15" d="M99.1,36.7c1.7,0.7,2,3.2,0.5,4.2c-0.1,0.1-0.3-0.1-0.3-0.2c0.2-0.5,0.6-1.1,0.7-1.6
							C100.1,38.1,99.8,37.5,99.1,36.7C99,36.8,99,36.7,99.1,36.7z"/>
						<path class="st15" d="M97,44.8c0.5-0.3,1-0.3,1.5-0.6c0.6-0.3,1.2-0.9,1.3-1.5c0,0,0,0,0,0c0.1,0.6-0.1,1.2-0.5,1.7
							C98.8,45,98,45,97.2,45.1C97.1,45.1,96.8,44.9,97,44.8z"/>
						<path class="st15" d="M95,42.4c0.2-0.9,0-1.6-0.2-2.5c0,0,0,0,0,0c0.3,0.8,0.8,1.5,0.8,2.4c-0.1,1.1-0.4,2.1-1.2,2.8
							c-0.1,0.1-0.3-0.1-0.3-0.2C94.3,44,94.8,43.2,95,42.4z"/>
						<path class="st15" d="M106,64.1c0.4-0.4,0.8-0.6,0.9-1.2c0,0,0,0,0,0c0,0.5-0.1,1.7-0.8,1.4C106,64.3,106,64.2,106,64.1z"/>
						<path class="st15" d="M96,69.2c0.4-0.3,0.8-0.6,1.3-0.5c0,0,0.1,0.1,0,0.1c-0.5,0.1-0.9,0.6-1.2,1c-0.2,0.2-0.4,0.4-0.5,0.7
							c-0.1,0.2-0.2,0.4-0.5,0.4c-0.1,0-0.3-0.2-0.3-0.3C95,69.9,95.6,69.6,96,69.2z"/>
						<path class="st15" d="M94,71.2c0,0,0.1-0.1,0.1-0.1c0-0.1,0.2,0,0.2,0.1c-0.1,0.1,0,0.1-0.2,0.2C94,71.4,93.9,71.3,94,71.2z"
							/>
					</g>
				</g>
			</g>
			<path class="st16" d="M86.9,84.8c0,0,3.2,14.2,3.6,32.2c0.4,17.9,0,57.8,0,57.8l0.1,30.2c0,0,0.5-57.9,0.5-64
				C91.2,134.8,92.2,94.8,86.9,84.8z"/>
		</g>
	</g>
</g>
</svg>
