<svg height="512" viewBox="0 0 52 58" width="512" xmlns="http://www.w3.org/2000/svg"><g id="Page-1" fill="none" fill-rule="evenodd"><g id="028---Body-Nerves" fill-rule="nonzero"><path id="Shape" d="m51.67 57.13c-.0626778.4985375-.4875415.8719026-.99.87h-3.51c-.3773574.001676-.722712-.2117454-.89-.55l-.37-.74c-1.5068437-2.974729-2.3108172-6.2556252-2.35-9.59v-.12c.0334137-1.535339-.0233507-3.0713155-.17-4.6-.3427219-2.525182-.9562557-5.0061384-1.83-7.4 0 0-4 5-2 14 .4881178 2.9018859-.0305667 5.8834396-1.47 8.45-.1710655.3395038-.5198431.5526457-.9.55h-22.38c-.3801569.0026457-.7289345-.2104962-.9-.55-1.4394333-2.5665604-1.9581178-5.5481141-1.47-8.45 2-9-2-14-2-14-.78631314 2.1924321-1.37204835 4.4516964-1.75 6.75-.21402184 1.7413269-.29758796 3.4962155-.25 5.25v.12c-.03918282 3.3343748-.84315633 6.615271-2.35 9.59l-.37.74c-.16728795.3382546-.51264259.551676-.89.55h-3.51c-.50245847.0019026-.92732222-.3714625-.99-.87-.46451331-4.3665235-.42760635-8.771872.11-13.13.52765195-3.6463993.86145451-7.3182274 1-11 0-4 3-6 2-8s-2-9 7-12 10-3 10-7c.0216125-1.56814373-.3242882-3.11955993-1.01-4.53-.1648161-.3095239-.1554601-.68276327.024657-.9836407.1801171-.30087742.5046743-.48542493.855343-.4863593h11.38c.3506687.00093437.6752259.18548188.855343.4863593.1801171.30087743.1894731.6741168.024657.9836407-.6857118 1.41044007-1.0316125 2.96185627-1.01 4.53 0 4 1 4 10 7s8 10 7 12 2 4 2 8c.1385455 3.6817726.472348 7.3536007 1 11 .5376064 4.358128.5745133 8.7634765.11 13.13z" fill="#802d40"/><path id="Shape" d="m49 50.8c.0026655.2652204-.1001435.5206356-.2858074.7100502-.1856638.1894147-.4389719.2973109-.7041926.2999498h-.01c-.2639714.0015955-.5177363-.1018756-.7053313-.2875946-.187595-.1857191-.2936112-.4384313-.2946687-.7024054-.0169503-2.0220623-.1438041-4.0417085-.38-6.05-.0116131-.0694404-.0182964-.1396158-.02-.21l-.04-.17v-.02l-.02-.14c-.04-.3-.1-.73-.16-1.26v-.01c-.03-.24-.07-.52-.1-.83-.4036467-3.0282097-.6439944-6.0759522-.72-9.13-.0821056-.8732801-.3662631-1.7154817-.83-2.46-.816909-1.4492522-1.2859072-3.0684944-1.37-4.73-.0000217-1.0599412.2500899-2.1049277.73-3.05.1750111-.7263824.1154997-1.489529-.17-2.18-.51-1.18-1.84-2.14-3.95-2.84l-3.4-1.12c-4.13-1.34-7.54-2.46-9.57-4.71v9.09c0 1.98 1.41 3.26 4.2 3.8.5016946.1017716.8455194.5659873.796621 1.0755596-.0488983.5095722-.4747278.8999323-.986621.9044404-.0637574-.0017103-.1272839-.0083973-.19-.02-1.3832915-.231123-2.6922762-.7862422-3.82-1.62v13.86c0 1.75 1.12 2.96 3.32 3.59.4777444.1393421.7803279.6087726.7099495 1.1014214-.0703784.4926487-.4922991.8585786-.9899495.8585786-.0948095.0007585-.1891953-.0127252-.28-.04-.9992789-.2706184-1.9365858-.7324797-2.76-1.36v2.85c0 2.67-1.69 4.63-4.76 5.51-.0908047.0272748-.1851905.0407585-.28.04-.4976504 0-.9195711-.3659299-.9899495-.8585786-.0703784-.4926488.2322051-.9620793.7099495-1.1014214 2.2-.63 3.32-1.84 3.32-3.59v-13.86c-1.1277238.8337578-2.4367085 1.388877-3.82 1.62-.0627161.0116027-.1262426.0182897-.19.02-.5118932-.0045081-.9377227-.3948682-.986621-.9044404-.0488984-.5095723.2949264-.973788.796621-1.0755596 2.79-.54 4.2-1.82 4.2-3.8v-16.09c-2.03 2.25-5.44 3.37-9.57 4.71l-3.41 1.12c-2.1.7-3.43 1.66-3.94 2.84-.29593169.7099821-.34522628 1.4986955-.14 2.24 1.59 3.16.14 6.08-.63 7.64-.48249826.7680064-.78030058 1.6374523-.87 2.54 0 1.64-.14 3.65-.32 5.5l-.33 3.13-.17 1.35c-.06.52-.12.95-.16 1.25l-.02.14c.00149638.014096-.00204626.0282665-.01.04l-.03.23c-.00898235.0429453-.01565857.0863407-.02.13-.23619592 2.0082915-.36304973 4.0279377-.38 6.05-.00105746.2639741-.10707367.5166863-.29466869.7024054-.18759503.185719-.44135987.2891901-.70533131.2875946h-.01c-.26522069-.0026389-.51852878-.1105351-.70419264-.2999498-.18566386-.1894146-.28847283-.4448298-.28580736-.7100502.01856615-2.0957425.15210015-4.1888881.4-6.27 0-.01.01-.13.04-.33l.2-1.48v-.01c.43790857-3.2202728.70494927-6.4614793.8-9.71.07005986-1.1875846.42691312-2.3404952 1.04-3.36.74-1.49 1.82-3.65.65-5.98-.4591223-1.2600935-.41977607-2.6479423.11-3.88.75-1.72 2.48-3.04 5.15-3.94l3.42-1.12c7.07-2.3 10.19-3.53 10.19-8.72v-6h2v6c0 5.19 3.12 6.42 10.19 8.72l3.41 1.12c2.68.9 4.41 2.22 5.16 3.94.5206848 1.2149793.5705902 2.5802482.14 3.83-1.2 2.38-.12 4.54.58 5.96.6340057 1.0382985 1.0047534 2.2157657 1.08 3.43.0933501 3.2519364.3603975 6.4965618.8 9.72l.2 1.48c.0201196.1191485.0334743.239341.04.36.2488962 2.0709775.3824357 4.1541935.4 6.24z" fill="#ff5364"/><g fill="#fb7b76"><circle id="Oval" cx="34" cy="26" r="3"/><circle id="Oval" cx="18" cy="33" r="3"/><circle id="Oval" cx="33" cy="44" r="3"/><circle id="Oval" cx="19" cy="51" r="3"/></g></g></g></svg>