<svg version="1.1" id="Layer_1" xmlns="http://www.w3.org/2000/svg" xmlns:xlink="http://www.w3.org/1999/xlink" x="0px" y="0px"
	 viewBox="0 0 194 397" style="enable-background:new 0 0 194 397;" xml:space="preserve">
<g>
    <style type="text/css">
	.st0{fill:#F4D9BF;}
	.st1{opacity:0.7;fill:#F4D9BF;enable-background:new    ;}
	.st2{fill:#C39368;}
	.st3{opacity:0.8;fill:#F4D9BF;enable-background:new    ;}
	.st4{opacity:0.5;fill:#F4D9BF;enable-background:new    ;}
	.st5{fill:#842B33;}
    </style>
    <g>
        <g>
            <g>
                <g>
                    <path class="st0" d="M190.5,214.8c-2.5-6.9-7.6-9.2-7.6-9.2c-3.5-15.1-14.7-46.6-25.9-58.8c-11.2-12.2-30-14.6-30-14.6l0-5.6
            l-4,0l-4,0l0,5.6c0,0-18.8,2.5-30,14.7c-11.1,12.2-22.2,43.8-25.7,58.9c0,0-5.1,2.3-7.6,9.2s-0.8,12.6,1.4,12.6
            c0,0,0.9,3.8,3.5,4.1c0,0,1.5,2.8,4.2,2.3c0,0,2,2.2,3.4,0.5s-1.3-4.8-0.6-10.1c0.7-5.3,2.7-6.2,3.3-4c0.6,2.2-0.3,7.5,0.9,8.4
            c1.2,0.9,5.1-3.5,4-10.7s-3.7-8.6-3.7-8.6s4.1-34.2,26.9-56.4c0,0-5.2,30.8-2.6,62.5l0.1,4.1c0.1,4.9,0.7,23.2,3.4,41.2
            c0,0,5.1,47.3,2.5,50.8c-2.7,3.5-20.3,10.8-20.3,10.8s-1.5-0.9-2.3,1.1c-0.8,2,0.7,4.6,3.8,4c0,0,1.3,1.1,4.4,0.1
            c0,0,2.4,1.3,5.3-0.1c0,0,2.1,1.4,5.1,0.3c0,0,1.7,1.4,5.9,0c4.2-1.4,6.2-2.8,9.4-2.7c3.3,0.1,9.2-0.7,7.8-7.8
            c-1.4-7.1-2.5-4.8-2.2-11.9c0.2-7.1-0.2-44-0.2-44l0.6-31.3c1.1,0.4,3.4,0.9,6.9,0.1l0.7,31.2c0,0-0.3,36.9,0,44
            c0.3,7.1-0.8,4.8-2.2,11.9c-1.4,7.1,4.6,7.9,7.8,7.8c3.2-0.1,5.2,1.2,9.4,2.6c4.2,1.4,5.9,0,5.9,0c3,1.1,5.1-0.3,5.1-0.3
            c2.9,1.5,5.3,0.1,5.3,0.1c3.1,1,4.4-0.1,4.4-0.1c3.1,0.5,4.6-2.1,3.8-4.1s-2.3-1.1-2.3-1.1s-17.7-7.3-20.4-10.8
            c-2.7-3.5,2.3-50.8,2.3-50.8c3.1-21.1,3.3-42.5,3.3-42.5l0.3-6.6l0,0c1.8-30.4-3.1-58.7-3.1-58.7
            c22.8,22.1,27.1,56.4,27.1,56.4s-2.6,1.4-3.7,8.6c-1.1,7.2,2.8,11.6,4,10.6c1.2-0.9,0.3-6.2,0.9-8.4c0.6-2.2,2.6-1.3,3.3,4
            s-2,8.4-0.6,10.1c1.4,1.7,3.4-0.5,3.4-0.5c2.7,0.5,4.2-2.3,4.2-2.3c2.6-0.3,3.5-4.1,3.5-4.1C191.3,227.5,193,221.7,190.5,214.8
            z" />
                    <path class="st1" d="M127,130.7l0-4l-8.1,0l0,3.7C121.3,131.3,124.2,131.2,127,130.7z" />
                    <g>
                        <g>
                            <g>
                                <g>
                                    <path class="st2" d="M182.5,226c0.4-3,0.1-6-1.2-8.7c0,0,0,0,0,0c1.4,2.6,1.8,5.4,1.6,8.3c-0.2,2.7-0.4,6.4-2.1,8.6
                            c0,0-0.1,0-0.1-0.1C182,231.7,182.1,228.6,182.5,226z" />
                                    <path class="st2" d="M185,215.8C185,215.8,185.1,215.8,185,215.8c1.1,2.9,1.8,5.6,1.8,8.7c0.1,2.6-0.2,5.7-1.9,7.8
                            c0,0-0.1,0-0.1-0.1C187.7,227.3,186.6,220.9,185,215.8z" />
                                    <path class="st2" d="M187.7,214.2C187.7,214.2,187.7,214.2,187.7,214.2c2.6,4.1,3,9.4,1.1,13.8c0,0-0.1,0-0.1,0
                            C190.1,223.3,190.1,218.6,187.7,214.2z" />
                                </g>
                            </g>
                            <path class="st2" d="M100.8,144.3c0,0-1.2,3.9-2,8.9C98.9,153.2,100.5,147.6,100.8,144.3z" />
                            <path class="st2" d="M145,144.2c0,0,1.3,3.9,2,8.9C147.1,153.1,145.4,147.6,145,144.2z" />
                            <g>
                                <g>
                                    <path class="st2" d="M63.7,226.2c-0.4-3-0.1-6,1.1-8.8c0,0,0,0,0,0c-1.4,2.6-1.8,5.4-1.5,8.3c0.2,2.7,0.4,6.4,2.2,8.6
                            c0,0,0.1,0,0.1-0.1C64.2,231.9,64.1,228.9,63.7,226.2z" />
                                    <path class="st2" d="M61.1,216.1C61.1,216,61.1,216,61.1,216.1c-1.1,2.9-1.8,5.6-1.8,8.7c0,2.6,0.2,5.7,1.9,7.7
                            c0,0,0.1,0,0.1-0.1C58.5,227.5,59.5,221.2,61.1,216.1z" />
                                    <path class="st2" d="M58.4,214.5C58.5,214.4,58.4,214.4,58.4,214.5c-2.6,4.1-3,9.4-1,13.8c0,0,0.1,0,0.1,0
                            C56.1,223.6,56.1,218.9,58.4,214.5z" />
                                </g>
                            </g>
                        </g>
                        <g>
                            <g>
                                <g>
                                    <path class="st2" d="M101.2,320.3c-1.2,0-2.8,0.4-3.6,1.4c-1.5,2-1.6,6.4,1.6,6.9c0,0,0.1-0.1,0-0.1
                            c-2.5-1-2.8-4.2-1.5-6.3c0.9-1.4,2.9-1.6,4.3-1.5c1.2,0.1,1.8,0.6,2.7,1.1l0,0C103.7,320.8,102.7,320.3,101.2,320.3z" />
                                    <path class="st2" d="M91.3,322.6c-1.2,2,0.4,5.1,2.7,5.4c0,0,0.1-0.1,0-0.1c-2-0.5-3.2-3.1-2.6-5c0.8-2.6,3.7-2.1,5.7-1.7
                            c0,0,0,0,0,0C94.9,320.4,92.6,320.4,91.3,322.6z" />
                                    <path class="st2" d="M86.4,323c-1,1.9,0,4.1,1.8,4.8c0,0,0.1,0,0,0c-1.3-0.9-2-1.8-2-3.4c0.1-2.3,2.6-3.9,4.6-2.5
                            c0,0,0,0,0,0C89.3,320.6,87.3,321.4,86.4,323z" />
                                    <path class="st2" d="M82.6,323.6c-0.8,1.5,0,4,1.6,4.5c0,0,0.1,0,0-0.1c-1.2-0.7-1.9-2.1-1.7-3.5c0.2-1.9,2-2.8,3.6-2
                            c0,0,0,0,0,0C84.9,321.4,83.2,322.4,82.6,323.6z" />
                                    <path class="st2" d="M82.8,322.6c-0.2-0.1-0.4-0.2-0.7-0.3c-0.3,0-0.8,0-1,0.1c-0.5,0.1-0.9,0.8-1.1,1.3c0,0,0,0,0.1,0
                            c0.1-0.2,0.3-0.5,0.5-0.7c0.3-0.4,0.6-0.3,1-0.4C81.9,322.5,82.3,322.7,82.8,322.6C82.8,322.7,82.8,322.7,82.8,322.6z" />
                                </g>
                            </g>
                        </g>
                        <g>
                            <g>
                                <g>
                                    <path class="st2" d="M145.5,320.2c1.2,0,2.8,0.4,3.6,1.4c1.5,2,1.6,6.4-1.5,6.9c0,0-0.1-0.1,0-0.1c2.5-1,2.8-4.2,1.5-6.3
                            c-0.9-1.4-2.9-1.5-4.4-1.5c-1.2,0.1-1.8,0.6-2.7,1.1l0,0C142.9,320.7,143.9,320.3,145.5,320.2z" />
                                    <path class="st2" d="M155.3,322.5c1.2,2-0.4,5.1-2.7,5.5c0,0-0.1-0.1,0-0.1c2-0.5,3.2-3.1,2.6-5c-0.8-2.6-3.7-2.1-5.7-1.7
                            c0,0,0,0,0,0C151.7,320.3,154,320.3,155.3,322.5z" />
                                    <path class="st2" d="M160.2,322.9c1,1.9,0.1,4.1-1.8,4.9c0,0-0.1,0,0,0c1.3-0.9,2-1.8,1.9-3.4c-0.1-2.3-2.6-3.9-4.6-2.5
                            c0,0,0,0,0,0C157.3,320.5,159.4,321.3,160.2,322.9z" />
                                    <path class="st2" d="M164.1,323.5c0.8,1.5,0.1,4-1.6,4.5c0,0-0.1,0-0.1-0.1c1.2-0.7,1.9-2.1,1.7-3.5c-0.2-1.9-2-2.8-3.6-2
                            c0,0,0,0,0,0C161.7,321.2,163.4,322.2,164.1,323.5z" />
                                    <path class="st2" d="M163.9,322.5c0.2-0.1,0.4-0.2,0.7-0.3c0.3-0.1,0.8,0,1,0.1c0.5,0.1,0.9,0.8,1.1,1.3c0,0,0,0-0.1,0
                            c-0.1-0.2-0.3-0.5-0.5-0.7c-0.3-0.4-0.6-0.3-1-0.4C164.7,322.4,164.3,322.5,163.9,322.5
                            C163.9,322.6,163.8,322.5,163.9,322.5z" />
                                </g>
                            </g>
                        </g>
                    </g>
                </g>
                <path class="st3" d="M124.2,205.6c0,0.7-0.3,1.3-0.7,1.3s-0.7-0.6-0.7-1.3c0-0.7,0.3-1.3,0.7-1.3
        C123.9,204.4,124.2,204.9,124.2,205.6z" />
                <path class="st4" d="M68.6,210.4c6.1,1.2,6.1,13.1,4.9,13.6c-1.2,0.4-1.2-2-1.3-4.2c-0.2-2.2-2.1-2-2.1-2
        c-2.8,0.2-3.3,6.8-3.4,8.2c-0.2,1.4-0.2,1.7-1.2,1.8c-1,0.1-1.1-1.1-1.1-1.1c-1-3.5,0.9-10.1,0.9-10.1c-2,1.9-2.5,7.8-2.6,8.9
        c0,1.1,0.1,2-0.9,2.1c-1,0-1.3-1.4-1.3-1.4c-1.2-4.5,1.2-10.8,1.2-10.8c-1.6,1.9-2.3,6.4-2.5,7.7c-0.2,1.3-0.7,1.5-0.7,1.5
        c-1,0.6-1.2-0.8-1.2-0.8c-1-4.1,1.2-9.2,1.2-9.2c-2.3,2.9-2.3,7.8-2.5,8.3c-0.2,0.6-0.3,0.4-0.3,0.4c-0.8-0.1-1-1.3-1.1-2.1
        c-0.2,3.9,1.1,6.7,2.6,6.7c0,0,0.9,3.8,3.5,4.1c0,0,1.5,2.8,4.2,2.3c0,0,2,2.2,3.4,0.5s-1.3-4.8-0.6-10.1c0.7-5.3,2.7-6.2,3.3-4
        c0.6,2.2-0.3,7.5,0.9,8.4c1.2,0.9,5.1-3.5,4-10.7s-3.7-8.6-3.7-8.6s4.1-34.2,26.9-56.4l1.4-6.1C71.9,169,68.6,210.4,68.6,210.4z
        " />
                <path class="st4" d="M166.9,323.6c-0.1-0.3-0.2-0.5-0.4-0.7h-0.2c0,0,0.7,1.3-0.5,1.9s-1.3-1.7-2.5-2.2c0,0,0.9,1.6-0.5,1.9
        c-1.5,0.3-2.2-1.8-3.6-2.6c0,0,1.5,1.9-0.3,2.7c-1.7,0.8-2.7-2.2-4.7-3.2c0,0,1.1,1.5-0.5,2.3c-1.6,0.8-3.8-1.9-5.2-2.4
        c0,0,1.1,2.4-2.1,3.1c-3.2,0.7-5.3-2.5-10.6-2.8c-5.2-0.3-6.9-1.4-5.5-5.6c1.4-4.2,2.1-4.9,1.8-8.5c-0.3-3,2.9-61.8,4-80
        c-3.8,1.5-7.8,2.2-11.9,2.3c-4.8,0.1-10.4-0.2-14.3-3.3c1,16.9,4.6,78,4.3,81.1c-0.3,3.6,0.4,4.2,1.8,8.5
        c1.4,4.2-0.3,5.3-5.5,5.7c-5.2,0.3-7.4,3.5-10.6,2.8c-3.2-0.7-2.1-3-2.1-3c-1.5,0.5-3.7,3.2-5.2,2.4c-1.6-0.8-0.5-2.3-0.5-2.3
        c-2,0.9-2.9,4-4.6,3.2c-1.7-0.8-0.3-2.7-0.3-2.7c-1.4,0.8-2.1,2.9-3.6,2.6s-0.5-1.9-0.5-1.9c-1.2,0.6-1.3,2.8-2.5,2.3
        c-1.3-0.5-0.5-1.9-0.5-1.9h-0.1c-0.2,0.2-0.3,0.4-0.4,0.7c-0.8,2,0.7,4.6,3.8,4c0,0,1.3,1.1,4.4,0.1c0,0,2.4,1.3,5.3-0.1
        c0,0,2.1,1.4,5.1,0.3c0,0,1.7,1.4,5.9,0c4.2-1.4,6.2-2.8,9.4-2.7c3.3,0.1,9.2-0.7,7.8-7.8c-1.4-7.1-2.5-4.8-2.2-11.9
        c0.2-7.1-0.2-44-0.2-44l0.6-31.3c1.1,0.4,3.4,0.9,6.9,0.1l0.7,31.2c0,0-0.3,36.9,0,44c0.3,7.1-0.8,4.8-2.2,11.9
        c-1.4,7.1,4.6,7.9,7.8,7.8c3.2-0.1,5.2,1.2,9.4,2.6c4.2,1.4,5.9,0,5.9,0c3,1.1,5.1-0.3,5.1-0.3c2.9,1.5,5.3,0.1,5.3,0.1
        c3.1,1,4.4-0.1,4.4-0.1C166.2,328.2,167.7,325.6,166.9,323.6z" />
                <path class="st4" d="M190.6,222.7c0,0-0.1,0.2-0.3-0.4c-0.1-0.6-0.2-5.4-2.5-8.3c0,0,2.2,5.1,1.2,9.2c0,0-0.2,1.4-1.2,0.8
        c0,0-0.5-0.2-0.7-1.5s-0.9-5.8-2.5-7.7c0,0,2.4,6.2,1.3,10.8c0,0-0.3,1.4-1.3,1.4c-1,0-0.9-0.9-0.9-2s-0.6-7.1-2.6-8.9
        c0,0,1.9,6.5,0.9,10.1c0,0-0.1,1.1-1.1,1.1c-1-0.1-1.1-0.4-1.2-1.7c-0.1-1.4-0.7-7.9-3.4-8.2c0,0-1.8-0.2-2,2.1
        c-0.2,2.2-0.1,4.7-1.3,4.2c-1.2-0.4-1.3-12.4,4.9-13.6c0,0-3.4-41.4-31.9-63.1l1.4,6.1c0,0,0.2,0.2,0.4,0.6
        c22.5,22.1,26.7,56,26.7,56s-2.6,1.4-3.7,8.6c-1.1,7.2,2.8,11.6,4,10.6c1.2-0.9,0.3-6.2,0.9-8.4c0.6-2.2,2.6-1.3,3.3,4
        s-2,8.4-0.6,10.1c1.4,1.7,3.4-0.5,3.4-0.5c2.7,0.5,4.2-2.3,4.2-2.3c2.6-0.3,3.5-4.1,3.5-4.1c1.5,0,2.8-2.8,2.6-6.8
        C191.6,221.5,191.3,222.6,190.6,222.7z" />
            </g>
        </g>
        <g>
            <g>
                <path class="st0 all" d="M70.8,58.8c0,0-6.1-2.6-16.1,10.2c-10.1,12.8-6.1,38.5-4.5,45.2c0,0,2.1,9.9-1,13.7l1.8,1.4
        c0,0,3-4.2,2.6-9.3c0,0,1.9,10.4,8.2,13.7l4.2-1.4c0,0-4.8-6.3-5-14.5c0,0,3.2,9.3,8.3,13.9l7.4-3c0,0-3.2-3.6-5-9.7
        c0,0,3.5,6.8,7.3,8.5l7.2-4.1c0,0-5.5-5.4-7.2-11.9c0,0,2.7,7,7.2,9.7l1.1-0.8c0,0-7.4-7.7-4.7-27.1
        C85.2,74,70.8,58.8,70.8,58.8z" />
                <g class="st5">
                    <path class="st0" d="M69.8,100.5c0,0,4.1,8.1,13.4,11.9c-1.2-4.3-1.9-10.5-0.7-19C85.2,74,70.8,58.8,70.8,58.8S68.7,58,65,59.8
            C64.6,61.2,58.5,80.5,69.8,100.5z" />
                </g>
            </g>
            <g>
                <path class="st0" d="M179.2,58.8c0,0,6.1-2.6,16.1,10.2c10.1,12.8,6.1,38.5,4.5,45.2c0,0-2.1,9.9,1,13.7l-1.8,1.4
        c0,0-3-4.2-2.6-9.3c0,0-1.9,10.4-8.1,13.7l-4.2-1.4c0,0,4.8-6.3,5-14.5c0,0-3.2,9.3-8.3,13.9l-7.4-3c0,0,3.2-3.6,5-9.7
        c0,0-3.5,6.8-7.3,8.5l-7.2-4.1c0,0,5.5-5.4,7.2-11.9c0,0-2.6,7-7.2,9.7l-1.1-0.8c0,0,7.4-7.7,4.7-27.1
        C164.7,74,179.2,58.8,179.2,58.8z" />
                <g>
                    <path class="st4" d="M180.1,100.5c0,0-4.1,8.1-13.4,11.9c1.2-4.3,1.9-10.5,0.7-19c-2.8-19.4,11.7-34.6,11.7-34.6
            s2.1-0.8,5.8,0.9C185.4,61.2,191.5,80.5,180.1,100.5z" />
                </g>
            </g>
            <path class="st0" d="M167.9,35.8c0,0-20-27.1-69-10.5c-49,16.6-34.4,78.9-13.1,86.3l75.4-1.3c0,0,20.1-6.8,23.1-33
    C187.4,51.2,167.9,35.8,167.9,35.8z" />
            <path class="st0" d="M165.5,67.2c-3.1-1.3-9.1-3-17.5-3.9c-0.6-6.9-2.4-10-2.4-10c0.6,4.8-0.7,9.7-0.7,9.7l0,0
    c-7.1-0.7-14.7-1.2-20.3-1.4c-0.6-5.5-0.4-10.3-0.4-10.3c-1.8,4-1.7,10.2-1.7,10.2c-4-0.2-15,0.9-18.8,1.7
    c-0.3-9.1,2.1-14.9,2.1-14.9c-3.5,4.4-5.6,15.8-5.6,15.8l0,0c-10.9,2.8-18.5,6.3-18.5,6.3s-0.9,8.6,1.9,18.6c0,0,2,6.7,0.8,12.3
    c-1.2,5.6-0.4,11.9,9.8,18.6s23.2,9.3,27.3,9.6c0,0,1.8,0.2,3.5,0c4.1-0.4,17.1-2.9,27.3-9.6c10.2-6.7,11-12.9,9.8-18.6
    c-1.2-5.6,0.8-12.3,0.8-12.3C165.7,78.9,165.5,67.2,165.5,67.2z" />
        </g>
    </g>
</g>
</svg>