<svg version="1.1" id="Layer_1" xmlns="http://www.w3.org/2000/svg" xmlns:xlink="http://www.w3.org/1999/xlink" x="0px" y="0px" viewBox="0 0 256.5 381" style="enable-background:new 0 0 256.5 381;" xml:space="preserve">
	<g transform="translate(33,-8)">>
		<style type="text/css">
			.st10 {
				fill: #AD4247;
			}

			.st11 {
				fill: #F08593;
			}

			.st13 {
				fill: #F4A0A0;
			}

			.st14 {
				fill: #F4A6A4;
			}

			.st15 {
				opacity: 0.5;
				fill: #F4A6A4;
				enable-background: new;
			}
		</style>
		<path class="st10"
			d="M134.4,70.9c0-0.4,0.1-0.8,0.1-1.3c0-0.3,0.1-0.5,0.1-0.8c0.5-2.6-2.2-6.2-3.7-8.5c-0.2-0.9-0.6-1.9-1-2.6      c-0.4-0.9-0.8-1.6-1.3-2.2c-0.5-0.6-1.6-1.6-2.4-1.7c-0.3-0.2-0.6-0.4-0.8-0.6c-0.3-0.6-0.7-1.1-1.1-1.7      c-0.7-1.3-1.4-2.6-2.3-3.8c-1.3-1.8-4.2-4-6.6-5.4c-0.7-0.5-1.5-1.1-2.3-1.5c-0.1-0.1-0.3-0.3-0.5-0.3c-0.5-0.2-1-0.5-1.5-0.4      c-0.2,0-0.4,0-0.6,0c-0.3-0.1-0.5-0.2-0.8-0.3c-1.2-0.5-2.4-0.9-3.5-1.4c-2.2-1-4.4-2.4-6.8-3.2c-1.7-0.6-4.2-1.5-5.9-0.7      c-0.1,0-0.2,0-0.3,0.1c-0.4,0.1-0.7,0.4-1,0.8c-0.6,0.5-0.8,1.1-0.8,2.3c-0.1,2.7,0.1,5.4-0.1,8.1c0,0.4,0,0.8,0,1.2      c0-0.4,0-0.8,0-1.2c-0.2-2.7,0-5.4-0.1-8.1c0-1.2-0.2-1.8-0.8-2.3c-0.2-0.4-0.5-0.7-1-0.8c-0.1,0-0.2,0-0.3-0.1      c-1.7-0.8-4.2,0.1-5.9,0.7c-2.3,0.8-4.5,2.2-6.7,3.2c-1.2,0.5-2.3,1-3.5,1.4c-0.3,0.1-0.5,0.2-0.8,0.3c-0.2,0-0.5,0-0.6,0      c-0.5,0-1.1,0.2-1.5,0.4c-0.2,0.1-0.3,0.2-0.5,0.3c-0.8,0.4-1.6,1-2.3,1.5c-2.4,1.4-5.2,3.6-6.6,5.4c-0.9,1.2-1.5,2.5-2.3,3.8      c-0.4,0.5-0.8,1.1-1.1,1.7c-0.2,0.2-0.5,0.4-0.8,0.6c-0.8,0.1-1.9,1.1-2.4,1.7s-1,1.3-1.3,2.2c-0.4,0.8-0.8,1.7-1,2.6      c-1.5,2.3-4.2,5.9-3.7,8.5c0,0.3,0.1,0.5,0.1,0.8c0,0.4,0,0.8,0.1,1.3c0,0.4,0,0.7,0.1,1.1c0,1.9-0.1,3.8-0.3,5.7      c-0.2,1.8,0.3,3.1,1.5,4.4c0.9,1,3.8,1.7,5,2.2c1.3,0.5,2.8,0.9,4.2,0.8c1.4-0.2,1.9-0.7,3-1.5c1.9-1.4,4.2-2.1,6.5-2.5      c1.5-0.2,3-0.1,4.4-0.4c1.7-0.4,2.5-1.5,3.7-2.6c0.1-0.1,3.7,2.1,4.2,2.3c0.2,0.1,0.4,0.2,0.6,0.3c0,0,0,0,0.1,0      c2.6,1,5.5,1.6,7.8,0.2c0.4-0.4,0.8-0.8,1.1-1.2c0.7-1,1-2,1.2-3.1c0.2,1.1,0.4,2.1,1.2,3.1c0.3,0.4,0.7,0.8,1.1,1.2      c2.2,1.4,5.2,0.8,7.8-0.2c0,0,0,0,0.1,0c0.2-0.1,0.4-0.2,0.6-0.3c0.5-0.2,4.2-2.4,4.2-2.3c1.2,1.1,2.1,2.2,3.7,2.6      c1.5,0.3,3,0.2,4.4,0.4c2.3,0.4,4.6,1.1,6.5,2.5c1.1,0.8,1.7,1.4,3,1.5c1.4,0.2,2.9-0.3,4.2-0.8c1.3-0.5,4.1-1.2,5-2.2      c1.2-1.3,1.6-2.6,1.5-4.4c-0.2-1.9-0.3-3.8-0.3-5.7C134.3,71.6,134.4,71.3,134.4,70.9z" />
		<g>
			<g>
				<g>
					<path class="st13"
						d="M73.2,45.1c0.1-1.2,0-2.2,0-3.3c0-1.1,0.4-2,1.5-2c0.3-0.1,0.5-0.2,0.8-0.4c1.7-0.9,4.7-2.7,7.5-3.9         c-0.1,0.1-0.2,0.2-0.3,0.3c-0.4,0.4-1,0.6-1.4,1c-0.7,0.7-1,1.2-1,2.1c0,0.5-0.2,1.7,0.2,2.1c0,0,0,0,0,0         c-0.2-0.4,0.1-1.3,0.1-1.7c0,0,0-0.1,0-0.1c0.1,0.4,0.4,0.8,0.7,1c0.7,0.6,0.8,1.4,1,2.3c0,0,0,0,0,0c-0.1-0.7-0.1-1.4-0.5-2         c-0.2-0.5-0.6-0.7-0.8-1.2c-0.2-0.7,0.2-1.2,0.5-1.8c0.3-0.3,0.7-0.5,1.1-0.8c0.5-0.3,0.9-0.9,1.5-1.2         c0.6-0.3,1.3-0.5,1.9-0.7c0.1,0,0.3,0,0.4,0c0.6,0,1-0.2,1.6-0.1c0.7,0.1,1.2,0.1,1.7,0.6c0.4,0.4,0.5,0.9,0.7,1.4         c0.2,1.5-0.2,3.2-0.3,4.6c-0.1,1.9,0.3,3.7,0.2,5.6c0,1.1-0.4,1.6-0.6,2.3c-0.3-0.5-0.7-1-0.9-1.5c-0.2-0.4-0.5-0.9-0.9-1.3         c-0.2-0.3-0.3-0.6-0.5-0.8c-0.7-0.9-1.2-1.5-1-2.7c0,0,0,0,0,0c-0.3,0.8-0.4,1.8,0.1,2.5c0.1,0.1,0.1,0.2,0.2,0.3         c-1.2-0.3-2.4,0-3.4-0.9c0,0-0.1,0-0.1,0.1c0.4,0.5,0.8,0.8,1.4,1c0.2,0.1,1.7,0.3,1.6,0.3c0.8,0.2,1.3,1.1,1.6,1.7         c0.5,0.9,1,1.8,1.5,2.7c0.1,0.2,0.3,0.4,0.4,0.7c0,0.1,0,0.2,0.1,0.4c-0.6-0.5-1.5-0.8-2.3-1c0,0,0,0,0,0         c1.1,0.5,2,1.3,2.5,2.3c0.1,0.8,0.2,1.5,0.2,2.8c0.1,1.6,0.1,3.2,0.1,4.8c-0.1,0.3-0.3,0.6-0.7,0.8c-0.7,0.1-1.4,0-2.1-0.2         c-0.2-0.1-0.3-0.2-0.5-0.3c-0.9-0.3-1.6-0.8-2.2-1.4c0.2,0.1,0.5,0.2,0.8,0.2c0.8,0.1,2.3,0.3,2.9-0.5c0,0,0,0,0,0         c-0.7,0.6-2.4,0.1-3.1-0.2c-0.7-0.2-1.2-0.8-1.7-1.3c0,0,0,0,0,0c-1-1.2-1.1-3.1-1.2-4.9c-0.1-0.9-0.2-1.8-0.2-2.7         c0-0.1-0.2,0-0.2,0.1c0,0.8,0,1.5,0,2.2c-0.2-0.3-0.4-0.6-0.5-0.9c-0.5-0.9-1.4-1.3-2.5-1.3c0,0-0.1,0.1,0,0.1         c2,0.3,2.5,2.2,3,3.8c0,1.4,0.1,2.8,0.6,4.2c0.8,2.3,6,2.8,5.3,5.5c0,0.2,0.1,0.2,0.2,0c0.4-0.7,0.3-1.5-0.2-2.1         c0.8,0.3,1.7,0.4,2.3,0c0,1.1,0,2.2,0.1,3.3c0,0.2,0,0.4-0.1,0.5c-0.2,0-0.3,0-0.6,0c-4.1,0.5-8.6-1.3-11.5-4.3         c0,0,0,0,0-0.1c-0.1-0.3-0.3-0.6-0.5-0.9c0.5,0.2,0.9,0.3,1.4,0.4c-0.3-0.3-0.7-0.6-1-0.8c-0.5-0.3-1-0.5-1.3-1         c-0.2-0.3-0.3-0.6-0.5-0.9c-0.2-0.5-0.3-1.1-0.4-1.6c-0.1-0.3-0.2-0.7-0.2-1.1c-0.2-1.6-0.4-3.5,0.2-5.1         c0.7-1.9,2.5-3.4,2.4-5.5C78.4,46,77.3,47,76.5,48c-0.1-0.3-0.2-0.7-0.2-1.1c-0.2-1.1,0.6-2.8,1.2-3.7c0-0.1,0-0.1-0.1,0         c-0.6,0.9-1.3,2.1-1.5,3.2c-0.1,0.6-0.1,1.6,0.2,2.2c-0.2,0.3-0.3,0.6-0.4,0.9c-0.3,1.2-0.4,2.2-0.3,3.4         c0.1,1.1,0.2,2.2,0.4,3.2c-0.9-2.4-1.6-5-2-7.5C73.4,47.5,73,46.3,73.2,45.1z" />
					<path class="st11"
						d="M75,78.6c-0.2,0.2-0.3,0.4-0.5,0.6c-1.6,0.9-3,0.7-5,0.5c-1-0.1-2.2-0.3-3.2-0.7         c-0.3,0-0.6-0.1-0.8-0.1c1.1,0.6,2.3,1,3.6,1.3c-0.3,0.1-0.6,0.2-0.8,0.3c-1.3,0.2-2.7,0.6-3.9,1c-0.7,0.3-1.4,0.6-2,0.9         c-0.9,0.7-1.9,1.4-3,1.6c-0.5,0.1-1,0.1-1.5,0.1c-1,0-2-0.2-3.2-0.7c-1.4-0.6-3.5-0.9-4.7-1.9c-1.1-0.9-1.1-2-1-3.3         c-0.1-1.3,0.2-2.7,0.3-3.9c0.4,0.6,0.8,1.2,1.5,1.8c1.2,1,2.7,1.6,4.1,2c0.1,0.3,0.3,0.6,0.5,0.9c0.1,0.4,0.3,0.8,0.7,1         c0.4,0.2,0.9,0.5,1.3,0.6c0,0,0.1,0,0.1,0c0.3,0,0.5,0,0.8,0c0,0,0,0,0,0c-0.1,0.1-0.8-0.3-0.9-0.4c-0.4-0.2-0.9-0.5-1.2-0.9         c-0.2-0.3-0.3-0.8-0.4-1.1c0.7,0.1,1.4,0,2,0c1,0,1.9,0.4,2.9,0.7c0,0,0.1-0.1,0-0.1c-1-0.4-1.5-0.8-2.8-1         c-0.6-0.1-1.2-0.2-1.7-0.2c-1.8-0.2-3.6-0.8-5-1.9c-1.7-1.3-2.2-3.7-2.3-5.8c-0.1-0.7-0.2-1.4-0.2-2.1c0.1-0.5,0.2-1,0.4-1.5         c0.4-1,1.2-3.1,2.2-3.8c0,0,0,0,0,0c0,0,0,0,0,0s0,0,0,0c0.8-0.5,1,0.4,1,1c0.2,0.4,0.4,0.8,0.6,1.3         c-0.5-0.3-1.1-0.2-1.8,0.1c0,0-0.1,0.1,0,0.1c1.4-0.2,2,0.7,2.7,1.7c0.1,0.2,0.2,0.4,0.2,0.6c0.8,2.2,2,4,3.5,5.3         c0,0,0,0,0,0c-1.1-0.6-1.9-1.2-3.1-0.8c0,0,0,0,0,0c1.2-0.2,2.5,1.1,3.5,1.7c0.6,0.4,1.4,0.7,2.2,0.8         c1.7,0.9,3.7,1.3,5.9,1.2l0,0c-0.6,0.4-0.9,1.1-1.3,1.8c0.1-0.1,0.2-0.2,0.4-0.3c0.6-0.7,1.2-1.1,2.1-1.5         c0.9-0.4,2-0.2,2.8-0.5c1.9-0.2,3.7-0.1,5.1,1.6c0.2,0.3,0.5,0.5,0.8,0.8C75.5,77.8,75.2,78.3,75,78.6z" />
					<path class="st14"
						d="M90.9,76.3c-0.2,1.2-0.6,2.4-1.3,3.2c-0.5,0.3-1,0.6-1.5,0.8c-0.1,0-0.2,0-0.3,0.1c-0.1,0-0.2,0-0.3,0         c-0.8,0.2-1.6,0-2.3-0.4c-1.1-0.7-1.5-1.8-1.7-3c-0.4,1.8,0.3,3.2,2,3.9c-1.6,0-3.1-0.4-4.6-1.1c-0.8-0.1-1.5-0.6-2-1.4         c-0.7-1.1-0.3-2.2-0.2-3.4c-0.3,0.9-0.8,1.8-0.7,2.7c-0.1,0-0.1-0.1-0.2-0.1c-0.1-0.1-0.2-0.2-0.3-0.3         c-0.3-0.3-0.6-0.6-1-0.9c-1-0.6-1.6-1.7-2.1-2.7c-0.5-1.1-0.6-2-0.5-2.9c0-0.6,0.1-1.2,0.5-1.8c0-0.1,0.1-0.3,0.2-0.4         c-0.5,0.2-0.8,0.6-1,0.9c-0.7-3.3-1.2-6.8-3-9c-0.2-0.3-0.5-0.6-0.9-0.9c-1.8-1.5-2.9-3.4-2-5.7c0-0.1,0-0.1-0.1,0         c-0.8,1.5-0.9,2.6-0.2,4.2c0.1,0.2,0.2,0.4,0.4,0.6c-0.5-0.2-1.1-0.3-1.8-0.4c0,0,0,0,0,0c0.9,0.2,1.6,0.4,2.3,0.8         c0.4,0.3,0.7,0.6,1,0.9c0.4,0.5,0.8,0.8,1.1,1.3c0.6,1.1,1,2.4,1.2,3.8c-0.6-0.8-1.3-1.4-2.4-1.8c-0.9-0.3-1.9-0.6-2.8-1         c-1.1-0.5-1.8-1.7-2.3-2.8c0,0,0,0,0,0c0.6,1.8,1.3,2.8,3,3.5c0,0,0,0,0.1,0c-0.4,0-0.6,0.3-1,0.5c0,0,0,0,0,0         c0.4-0.1,0.7-0.3,1.1-0.3c0.4,0,0.7,0.1,1,0.2c0.5,0.1,0.9,0.3,1.3,0.5c0.9,0.4,1.5,1.1,1.9,1.9c0.3,1.8,0.5,3.7,1.1,5.3         c0.5,1.4,1.1,2.8,1.9,4c-1.1-0.6-2.4-1.1-3.4-0.9c-1.9,0.2-3.7,0.4-5.4,0.5c-0.9-0.1-1.8-0.1-2.5-0.5c-0.6-0.3-1-0.8-1.2-1.4         c-0.2-0.3-0.3-0.7-0.4-1.1c-0.2,0.8-0.1,1.8,0.5,2.4c0.2,0.2,0.3,0.3,0.5,0.4c-1.9-0.3-3.8-1.1-5.7-2.7         c-0.1-0.1-0.2-0.2-0.4-0.4c-0.5-0.6-0.8-1.4-1.1-2.1c-0.5-1.1-0.6-2.3-0.2-3.4c-0.5,0.6-0.6,1.3-0.6,2c0-0.1,0-0.1-0.1-0.2         c-0.2-0.6-0.5-1.2-0.8-1.7c-0.2-0.8-0.4-1.5-0.6-2.2c-0.2-0.9-0.6-1.5-0.8-2.1c0-1.2,0.3-2.4,0.7-3.5c0-0.1,0.1-0.2,0.1-0.2         c0,0,0-0.1,0-0.1c0.1-0.3,0.3-0.5,0.5-0.8c0.6-1,1.3-1.9,2.1-2.6c0.3-0.1,0.7,0,1,0.3c0,0.2-0.1,0.3-0.1,0.4         c0,1.2,0.4,2.3,1.1,3.5c1.4,2.4,3.5,3.9,4.7,6.2c0,0,0,0,0,0c-0.2-0.3-0.8-0.9-1.1-1c-0.5-0.2-1-0.3-1.6-0.3         c-0.3,0-0.6,0.1-0.9,0.2c0.2,0.1,0.3,0.1,0.5,0.2c0.3,0,0.6,0,0.9,0.1c0.5,0.1,1.1,0.2,1.5,0.6c0.3,0.3,0.6,0.7,0.8,1         c0.1,0.1,0.2,0.1,0.3,0.2c0,0.1,0.1,0.2,0.1,0.2c0.3,0.9,0.8,1.8,1.4,2.7c0.3,0.5,0.6,1,1,1.4c0.6,0.6,1.4,1.1,1.8,1.8         c0.1,0.1,0.3,0.2,0.4,0.3c0-0.6-0.3-1-0.7-1.4c1,0.4,2.2,0.1,3.1-0.3c-0.9,0.3-1.9,0.3-2.7,0.1c-0.5-0.1-0.9-0.4-1.3-0.8         c0,0,0,0-0.1,0c-0.2-0.2-0.4-0.3-0.5-0.5c-0.3-0.4-0.6-0.9-1-1.3c-0.4-0.7-0.8-1.4-1.2-2c0-0.1-0.1-0.2-0.1-0.3         c0,0,0-0.1,0-0.1c0,0,0,0,0,0c-0.2-0.7-0.5-1.4-0.7-2c-0.5-1.2-1.5-2.2-2.4-3.3c0,0,0-0.1,0-0.1c-0.2-0.7-0.6-1.2-0.7-1.9         c-0.1-1.2-0.1-2.1,0.4-3.2c0,0,0,0,0,0c-0.8,1-1.1,2.7-0.8,4c-0.1-0.1-0.1-0.2-0.2-0.3c-0.4-0.7-0.7-1.4-0.9-2.1         c-0.7-1.1-0.5-2.3,0-3.4c0.1-0.4,0.2-0.9,0.4-1.4c0.2-0.3,0.4-0.6,0.6-0.9c0.2-0.2,0.3-0.5,0.5-0.7c0.6-1.3,1.5-2.6,2.7-3.5         c0.2,0.2,0.3,0.7,0.3,0.9c0,0.4,0.2,0.7,0.3,1.2c0.1,0.3,0.3,0.6,0.5,0.8c0.1,0.1,0.2,0.2,0.3,0.3c1.9,1.3,4.7,0.5,6.5,2.3         c0.5,0.5,0.9,1.1,1.2,1.7c0.7,0.9,1.1,2,1,3.1c0,0.1,0.1,0.3,0.1,0.4c0.2-0.7,0.1-1.3,0-2c0,0,0,0,0,0         c-0.3-1.4-0.8-2.7-1.8-3.8c-1.7-1.9-4.7-1.8-3.4-5.3c0,0,0,0,0,0c-0.8,1.5-1.2,2.7,0.2,3.9c0.1,0.1,0.3,0.2,0.5,0.3         c-0.2-0.1-0.3-0.1-0.4-0.1c-0.8-0.2-2.5-0.7-2.9-0.9c-0.7-0.5-1.1-1.2-1.2-1.9c-0.9-1.9,1.2-3.5,3.1-4.7         c0.9-0.8,2.1-1.4,3-1.9c0.6-0.3,1.7-1.3,2.5-0.9c0.5,0.2,0.6,0.6,0.5,0.9c0.2,1-0.1,2-0.2,3.2c-0.2,1.5,0.3,2.8,0.7,4.2         c1,3.2,1.9,6.5,3.4,9.6c0,0.1,0.1,0.2,0.1,0.3c-0.7-0.3-1.3-0.3-1.8,0.5c0,0.1,0,0.1,0.1,0c0.8-0.8,1.6-0.3,2.3,0.5         c0.3,0.5,0.5,1,0.8,1.5c1.7,2.6,5.1,3.8,7.9,4.9c1.1,0.4,1.8,0.5,3,0.4c0.5-0.1,1-0.1,1.3-0.2c0,0,0,0,0,0l0.2,0         c0,0,0,0,0-0.1l0,0c0.6,0.7,0.5,2.2,0.5,3.1c0,1.2,0.3,2.7-0.4,3.7c-0.5,0-1.3-0.3-1.8-0.5c-0.5-0.4-1.1-0.7-1.7-0.9         c-0.2-0.3-0.5-0.7-0.8-1c-1.4-1.5-4.4-1.9-6.2-2.8c-0.8-0.4-1.5-0.9-2.2-1.4c-0.1-0.2-0.3-0.5-0.3-0.8         c-0.1-0.5,0.2-1.1,0.2-1.6c0,0,0,0-0.1,0c-0.2,0.5-0.5,1.2-0.5,1.8c-1.2-1.1-2-2.4-2.9-4.1c0,0,0,0,0,0         c1.3,2.9,2.4,4.9,5.2,6.4c0,0-0.1,0-0.1,0c-0.7-0.1-1.7,0.1-2.1,0.7c-0.1,0-0.2,0.1,0,0c0,0,0,0,0,0         c-0.1,0.1,0.1,0.1,0.1,0.1c0,0,0-0.1,0-0.1c0.1,0,0.3-0.1,0.5-0.2c0.7-0.2,1.3-0.1,2,0.1c0.8,0.2,1.5,0.6,2.3,0.6         c3.6,1.6,7.8,3.8,5.1,8.2c0.1,0,0.2-0.1,0.3-0.1c1.2-1.9,1-3.5,0.1-5.1c0.2,0.1,0.5,0.2,0.7,0.4c0.3,0.2,0.5,0.5,0.8,0.8         c0.2,0.2,0.8,1,0.6,1.3c0,0.1,0,0.1,0.1,0c0.4-0.5-0.2-1.5-0.5-2c0.6,0.4,1.4,0.7,1.8,0.4C90.9,74.4,91,75.4,90.9,76.3z" />
				</g>
				<path class="st15"
					d="M55.8,76.7c-1.7-0.8-3.1-1.6-4.3-3.2c-1.4-1.8-1.4-4.1-1.9-6.2c0,0-0.1,0,0,0c0.2,2.2-0.1,4.3,1,6.3        c1.1,2.1,3,2.6,5.2,3.3C55.7,76.9,55.9,76.8,55.8,76.7z" />
				<path class="st15"
					d="M57.6,77c-0.2,0-0.8,0.1-0.9-0.1c0-0.1-0.1,0-0.1,0.1C56.7,77.4,57.8,77.6,57.6,77        C57.7,77.1,57.7,77,57.6,77z" />
				<path class="st15"
					d="M53.7,82.4c-1.6-1-4-1.9-3.7-4.3c0,0,0,0,0,0c-0.8,2.5,1.4,4.1,3.6,4.5C53.7,82.6,53.8,82.4,53.7,82.4z" />
				<path class="st15"
					d="M58.1,79.9c-0.3-0.1-0.5-0.1-0.8-0.2c-0.3-0.1-0.5-0.3-0.7-0.6c0,0,0,0,0,0c0.3,0.6,0.7,1.5,1.5,1.1        C58.1,80.1,58.3,79.9,58.1,79.9z" />
				<path class="st15"
					d="M73.3,78.8c-2.2,0.5-4.6,0.5-6.5-1c0,0,0,0,0,0c1.5,2.1,4.3,2.2,6.5,1.2C73.4,78.9,73.5,78.7,73.3,78.8z        " />
				<path class="st15"
					d="M64,80.9c-0.9,0-1.5,0.2-2.3,0.6c-1.4,0.6-2.2,1.9-4,1.7c0,0,0,0,0,0c0.9,0.3,1.5,0.3,2.3-0.1        c0.6-0.3,1.1-0.8,1.7-1.2c0.7-0.4,1.5-0.5,2.2-0.7C64,81.1,64.2,80.9,64,80.9z" />
				<path class="st15"
					d="M60.1,72.6c-2-1.8-3.7-4.1-3.6-6.9c0,0,0,0-0.1,0c-0.6,1.5-0.7,2.8,0.1,4.3c0.7,1.2,2.2,2.2,3.4,2.7        C60.1,72.9,60.2,72.7,60.1,72.6z" />
				<path class="st15"
					d="M53.7,61.5c-0.3-0.5-0.4-1.1-0.4-1.7c0,0,0,0,0,0c-0.1,0.6-0.3,1-0.1,1.6c0.2,0.7,0.4,1.4,0.8,1.9        c0.1,0.1,0.3,0,0.3-0.2C54.1,62.6,54,62,53.7,61.5z" />
				<path class="st15"
					d="M62.9,62.4c-0.5-0.9-1.1-1.8-1.7-2.7c-0.7-1.1-0.5-2.4-0.4-3.6c0-0.1-0.1,0-0.1,0        c-0.5,1.4-0.6,2.3-0.3,3.8c0.3,1.3,1.4,2,2.3,2.8C62.8,62.7,63,62.5,62.9,62.4z" />
				<path class="st15"
					d="M69.2,70.2C67.9,70,66.7,69.2,66,68c-0.4-0.6-0.8-1.1-1.1-1.7c-0.2-0.3-0.3-0.7-0.6-1c0,0,0,0,0,0        c0.2,0.6,0.2,1.3,0.5,1.9c0.3,0.6,0.6,1.2,1,1.8c0.8,1,2.2,1.5,3.5,1.4C69.3,70.4,69.3,70.2,69.2,70.2z" />
				<path class="st15"
					d="M70.8,70.2c-0.1,0-0.2,0-0.4-0.1c-0.1,0-0.3,0.2-0.1,0.2c0.2,0.1,0.3,0.1,0.5,0.1        C70.8,70.4,70.9,70.2,70.8,70.2z" />
				<path class="st15"
					d="M76.7,75.4c-0.4-0.9-0.8-1.8-1.1-2.7c-0.3-0.9-0.2-1.8-0.3-2.7c0,0,0,0,0,0c-0.2,1.1-0.5,1.9-0.3,3.1        c0.2,1,0.8,1.9,1.5,2.6C76.5,75.7,76.8,75.5,76.7,75.4z" />
				<path class="st15"
					d="M81.2,78.9c-0.5-0.7-1.1-1.2-1.4-1.9c-0.4-0.8-0.7-2-0.4-2.9c0,0,0,0,0,0c-1.1,1.9-0.1,4.1,1.6,5.1        C81,79.3,81.3,79,81.2,78.9z" />
				<path class="st15"
					d="M84.3,71.3c-1.3-0.9-2.7-0.9-4.2-1.2c0,0-0.1,0.1,0,0.1c1.2,0.4,2.4,0.7,3.5,1.4c1,0.6,2.1,1.6,2.7,2.6        c0.1,0.1,0.2,0,0.2-0.1C86.2,73,85.2,71.9,84.3,71.3z" />
				<path class="st15"
					d="M71,59.4c-0.5-0.8-1.4-1.4-1.8-2.2c-0.5-0.8-0.7-1.8-0.8-2.7c0,0,0,0,0,0c-0.1,1,0,1.8,0.3,2.8        c0.3,1,1.3,1.7,2.2,2.3C70.9,59.6,71,59.5,71,59.4z" />
				<path class="st15"
					d="M72.2,61.3c-0.1-0.2-0.3-0.4-0.5-0.6c0,0-0.1,0-0.1,0c0.1,0.2,0.2,0.5,0.3,0.7c0,0.2,0.1,0.5,0.2,0.7        c0.1,0.2,0.3,0,0.3-0.2C72.5,61.7,72.3,61.5,72.2,61.3z" />
				<path class="st15"
					d="M68.9,62.1c-0.3-0.3-0.7-0.3-1-0.3c-0.5,0-1-0.5-1.5-0.7c0,0,0,0,0,0c0.3,0.3,0.6,0.7,1,1        c0.4,0.2,0.8,0.3,1.2,0.3C68.8,62.5,69,62.2,68.9,62.1z" />
				<path class="st15"
					d="M65.5,48.8c-0.4-0.4-0.9-0.8-1-1.4c-0.1-0.6-0.2-1.1-0.2-1.6c0,0-0.1,0-0.1,0C64,46.5,63.8,47.2,64,48        c0.1,0.6,0.6,1.2,1.3,1.2C65.4,49.2,65.6,49,65.5,48.8z" />
				<path class="st15"
					d="M67.7,46.8C67.7,46.8,67.6,46.8,67.7,46.8c-0.2,1.3-0.1,2,0.9,2.9c0.6,0.6,1.3,1.1,1.9,1.6        c0.8,0.7,1.2,1.6,1.7,2.5c0,0.1,0.2,0,0.2-0.1C71.9,50.6,67.6,50.1,67.7,46.8z" />
				<path class="st15"
					d="M74.4,41.2C74.4,41.2,74.4,41.2,74.4,41.2c-1.2,2.1-1,5.4-0.2,7.6c0,0.1,0.2,0,0.2-0.1        C74.2,46.4,73.6,43.5,74.4,41.2z" />
				<path class="st15"
					d="M78.6,58.4c-1.6-2.9-2.2-6.4-0.8-9.6c0,0,0,0,0,0c-2.2,3.1-2,7,0.7,9.7C78.5,58.7,78.6,58.5,78.6,58.4z" />
				<path class="st15"
					d="M79.8,59.5c-0.2-0.1-0.4-0.3-0.6-0.4c-0.1-0.1-0.3,0.1-0.2,0.2c0.2,0.2,0.2,0.5,0.5,0.6        C79.7,59.9,79.9,59.7,79.8,59.5z" />
				<path class="st15"
					d="M85.8,57.7c-1.4-1-2.2-2.4-2.4-4.1c0,0,0,0,0,0c-0.1,1.6,0.5,3.9,2.3,4.3C85.7,57.9,85.9,57.8,85.8,57.7        z" />
				<path class="st15"
					d="M87.7,64.3c-1.4-0.3-3.3-0.2-4.4-1.3c0,0-0.1,0,0,0c0.8,1.3,2.9,1.8,4.3,1.6        C87.8,64.7,87.9,64.4,87.7,64.3z" />
				<path class="st15"
					d="M83.6,36.7c-1.7,0.7-2,3.2-0.5,4.2c0.1,0.1,0.3-0.1,0.3-0.2c-0.2-0.5-0.6-1.1-0.7-1.6        C82.5,38.1,82.9,37.5,83.6,36.7C83.7,36.8,83.7,36.7,83.6,36.7z" />
				<path class="st15"
					d="M85.7,44.8c-0.5-0.3-1-0.3-1.5-0.6c-0.6-0.3-1.2-0.9-1.3-1.5c0,0,0,0,0,0c-0.1,0.6,0.1,1.2,0.5,1.7        c0.5,0.7,1.4,0.7,2.2,0.8C85.6,45.1,85.9,44.9,85.7,44.8z" />
				<path class="st15"
					d="M87.7,42.4c-0.2-0.9,0-1.6,0.2-2.5c0,0,0,0,0,0c-0.3,0.8-0.8,1.5-0.8,2.4c0.1,1.1,0.4,2.1,1.2,2.8        c0.1,0.1,0.3-0.1,0.3-0.2C88.4,44,87.9,43.2,87.7,42.4z" />
				<path class="st15"
					d="M76.7,64.1c-0.4-0.4-0.8-0.6-0.9-1.2c0,0,0,0,0,0c0,0.5,0.1,1.7,0.8,1.4C76.7,64.3,76.8,64.2,76.7,64.1z        " />
				<path class="st15"
					d="M86.7,69.2c-0.4-0.3-0.8-0.6-1.3-0.5c0,0-0.1,0.1,0,0.1c0.5,0.1,0.9,0.6,1.2,1c0.2,0.2,0.4,0.4,0.5,0.7        c0.1,0.2,0.2,0.4,0.5,0.4c0.1,0,0.3-0.2,0.3-0.3C87.6,69.9,87.1,69.6,86.7,69.2z" />
				<path class="st15"
					d="M88.7,71.2c0,0-0.1-0.1-0.1-0.1c0-0.1-0.2,0-0.2,0.1c0.1,0.1,0,0.1,0.2,0.2        C88.7,71.4,88.8,71.3,88.7,71.2z" />
			</g>
			<g>
				<g>
					<path class="st13"
						d="M108.9,48.7c-0.4,2.6-1.1,5.2-2,7.5c0.2-1.1,0.3-2.1,0.4-3.2c0.1-1.2,0-2.2-0.3-3.4         c-0.1-0.3-0.2-0.6-0.4-0.9c0.3-0.7,0.3-1.6,0.2-2.2c-0.2-1.1-0.8-2.3-1.5-3.2c0,0-0.1,0-0.1,0c0.5,0.9,1.4,2.6,1.2,3.7         c-0.1,0.3-0.2,0.7-0.2,1.1c-0.8-1.1-1.9-2-2.2-3.5c-0.1,2.1,1.7,3.6,2.4,5.5c0.6,1.6,0.5,3.4,0.2,5.1c0,0.4-0.1,0.8-0.2,1.1         c-0.1,0.5-0.2,1.1-0.4,1.6c-0.2,0.3-0.3,0.6-0.5,0.9c-0.4,0.6-0.8,0.8-1.3,1c-0.3,0.3-0.6,0.6-1,0.8c0.5-0.1,0.9-0.2,1.4-0.4         c-0.2,0.3-0.4,0.6-0.5,0.9c0,0,0,0,0,0.1c-2.8,3.1-7.4,4.8-11.5,4.3c-0.2,0-0.4,0-0.6,0c0-0.1,0-0.3-0.1-0.5         c0-1.1,0.1-2.2,0.1-3.3c0.6,0.4,1.5,0.3,2.3,0c-0.4,0.6-0.6,1.4-0.2,2.1c0.1,0.1,0.2,0.1,0.2,0c-0.7-2.7,4.5-3.2,5.3-5.5         c0.5-1.4,0.6-2.8,0.6-4.2c0.6-1.6,1.1-3.5,3-3.8c0,0,0-0.1,0-0.1c-1,0-1.9,0.4-2.5,1.3c-0.2,0.3-0.4,0.6-0.5,0.9         c0-0.7,0-1.5,0-2.2c0-0.1-0.2-0.2-0.2-0.1c-0.1,0.9-0.1,1.8-0.2,2.7c0,1.8-0.1,3.7-1.2,4.9c0,0,0,0,0,0         c-0.5,0.5-1,1.1-1.7,1.3c-0.7,0.2-2.5,0.7-3.1,0.2c0,0,0,0,0,0c0.6,0.8,2.1,0.6,2.9,0.5c0.3-0.1,0.5-0.1,0.8-0.2         c-0.6,0.6-1.3,1.1-2.2,1.4c-0.2,0.1-0.4,0.2-0.5,0.3c-0.7,0.2-1.4,0.3-2.1,0.2c-0.4-0.2-0.6-0.5-0.7-0.8c0-1.6,0-3.2,0.1-4.8         c0.1-1.3,0.1-2,0.2-2.8c0.5-1,1.4-1.8,2.5-2.3c0,0,0,0,0,0c-0.7,0.2-1.6,0.5-2.3,1c0-0.1,0-0.2,0.1-0.4         c0.1-0.2,0.2-0.4,0.4-0.7c0.6-0.9,1-1.8,1.5-2.7c0.4-0.6,0.9-1.5,1.6-1.7c0,0,1.5-0.2,1.6-0.3c0.6-0.2,1-0.5,1.4-1         c0,0,0-0.1-0.1-0.1c-1,0.9-2.2,0.7-3.4,0.9c0.1-0.1,0.2-0.2,0.2-0.3c0.5-0.8,0.3-1.7,0.1-2.5c0,0-0.1,0,0,0         c0.1,1.2-0.4,1.8-1,2.7c-0.2,0.2-0.4,0.5-0.5,0.8c-0.4,0.4-0.7,0.9-0.9,1.3c-0.2,0.5-0.6,0.9-0.9,1.5         c-0.2-0.6-0.6-1.2-0.6-2.3c0-1.9,0.3-3.7,0.2-5.6c0-1.4-0.5-3.1-0.3-4.6c0.2-0.5,0.4-1,0.7-1.4c0.5-0.5,1-0.5,1.7-0.6         c0.6-0.1,1,0.1,1.6,0.1c0.1,0,0.3,0,0.4,0c0.6,0.2,1.3,0.4,1.9,0.7c0.6,0.3,1,0.8,1.5,1.2c0.4,0.3,0.8,0.5,1.1,0.8         c0.4,0.5,0.8,1.1,0.5,1.8c-0.2,0.6-0.5,0.8-0.8,1.2c-0.3,0.6-0.3,1.3-0.5,2c0,0,0,0.1,0,0c0.2-0.8,0.3-1.6,1-2.3         c0.3-0.3,0.6-0.6,0.7-1c0,0,0,0,0,0.1c0.1,0.4,0.3,1.3,0.1,1.7l0,0c0.4-0.4,0.2-1.6,0.2-2.1c-0.1-1-0.3-1.5-1-2.1         c-0.4-0.4-1-0.6-1.4-1c-0.1-0.1-0.2-0.2-0.3-0.3c2.9,1.2,5.8,3,7.5,3.9c0.2,0.1,0.5,0.2,0.8,0.4c1.2-0.1,1.5,0.9,1.5,2         c0,1.2-0.1,2.2,0,3.3C109.7,46.3,109.3,47.5,108.9,48.7z" />
					<path class="st11"
						d="M106.9,77.5c0.3-0.3,0.6-0.5,0.8-0.8c1.4-1.7,3.2-1.8,5.1-1.6c0.9,0.3,1.9,0.2,2.8,0.5         c1,0.4,1.5,0.8,2.1,1.5c0.1,0.1,0.2,0.2,0.4,0.3c-0.3-0.6-0.7-1.3-1.3-1.8l0,0c2.2,0.1,4.2-0.4,5.9-1.2         c0.8-0.2,1.5-0.4,2.2-0.8c1-0.6,2.3-1.8,3.5-1.7c0,0,0,0,0,0c-1.3-0.4-2,0.2-3.1,0.8c0,0,0,0,0,0c1.5-1.4,2.6-3.2,3.5-5.3         c0.1-0.2,0.2-0.4,0.2-0.6c0.7-1,1.3-1.9,2.7-1.7c0.1,0,0-0.1,0-0.1c-0.7-0.2-1.3-0.3-1.8-0.1c0.2-0.4,0.4-0.9,0.6-1.3         c0-0.6,0.2-1.4,1-1c0,0,0,0,0,0c0,0,0,0,0,0c0,0,0,0,0,0c1,0.7,1.8,2.8,2.2,3.8c0.2,0.5,0.3,1,0.4,1.5c0,0.7-0.1,1.4-0.2,2.1         c-0.1,2.1-0.5,4.6-2.3,5.8c-1.4,1-3.2,1.7-5,1.9c-0.5,0.1-1,0.2-1.7,0.2c-1.3,0.2-1.8,0.5-2.8,1c0,0,0,0.1,0,0.1         c1-0.2,1.8-0.7,2.9-0.7c0.6,0,1.3,0.1,2,0c-0.1,0.4-0.2,0.8-0.4,1.1c-0.3,0.4-0.8,0.7-1.2,0.9c-0.1,0.1-0.8,0.4-0.9,0.4         c0,0,0,0,0,0c0.3,0,0.5,0,0.8,0c0,0,0.1,0,0.1,0c0.4-0.1,0.9-0.4,1.3-0.6c0.4-0.2,0.5-0.6,0.7-1c0.1-0.3,0.3-0.6,0.5-0.9         c1.5-0.4,3-1,4.1-2c0.6-0.5,1.1-1.1,1.5-1.8c0.1,1.2,0.3,2.6,0.3,3.9c0.2,1.3,0.1,2.3-1,3.3c-1.2,1-3.3,1.3-4.7,1.9         c-1.2,0.5-2.3,0.7-3.2,0.7c-0.5,0.1-1,0-1.5-0.1c-1.1-0.3-2-0.9-3-1.6c-0.7-0.3-1.3-0.6-2-0.9c-1.2-0.4-2.5-0.8-3.9-1         c-0.3-0.2-0.5-0.2-0.8-0.3c1.2-0.3,2.5-0.8,3.6-1.3c-0.3,0-0.6,0.1-0.8,0.1c-1.1,0.3-2.3,0.6-3.2,0.7c-2,0.2-3.4,0.4-5-0.5         c-0.2-0.2-0.3-0.4-0.5-0.6C107.4,78.3,107.2,77.8,106.9,77.5z" />
					<path class="st14"
						d="M91.8,73.5c0.5,0.2,1.2-0.1,1.9-0.4c-0.3,0.4-0.9,1.4-0.5,2c0,0.1,0.1,0,0.1,0         c-0.2-0.4,0.4-1.1,0.6-1.3c0.2-0.3,0.5-0.6,0.8-0.8c0.2-0.1,0.5-0.2,0.7-0.4c-1,1.6-1.1,3.3,0.1,5.1c0.1,0,0.2,0.1,0.3,0.1         c-2.7-4.4,1.5-6.6,5.1-8.2c0.8,0,1.6-0.5,2.3-0.6c0.7-0.1,1.3-0.3,2-0.1c0.2,0.1,0.4,0.1,0.5,0.2c0,0.1,0,0.1,0,0.1         c0.1,0.1,0.2,0.1,0.1-0.1c0,0,0,0,0,0c0.2,0,0.1,0,0,0c-0.4-0.7-1.3-0.8-2.1-0.7c0,0-0.1,0-0.1,0c2.8-1.5,3.8-3.6,5.2-6.4         c0,0,0,0,0,0c-1,1.7-1.8,3-2.9,4.1c0-0.6-0.4-1.3-0.5-1.8c0,0-0.1-0.1-0.1,0c0.1,0.5,0.3,1.1,0.2,1.6         c-0.1,0.3-0.2,0.5-0.3,0.8c-0.6,0.5-1.3,0.9-2.2,1.4c-1.8,0.9-4.8,1.3-6.2,2.8c-0.3,0.3-0.6,0.7-0.8,1         c-0.6,0.2-1.2,0.5-1.7,0.9c-0.5,0.2-1.3,0.5-1.8,0.5c-0.7-1-0.4-2.5-0.4-3.7c0-0.9-0.1-2.4,0.5-3.1l0,0c0,0,0,0.1,0,0.1         l0.2,0c0,0,0,0,0,0c0.3,0.1,0.7,0.1,1.3,0.2c1.2,0.1,1.9,0,3-0.4c2.7-1.1,6.2-2.3,7.9-4.9c0.3-0.5,0.6-1,0.8-1.5         c0.7-0.8,1.6-1.4,2.3-0.5c0,0,0.1,0,0.1,0c-0.5-0.8-1.2-0.8-1.8-0.5c0-0.1,0.1-0.2,0.1-0.3c1.4-3.1,2.4-6.4,3.4-9.6         c0.4-1.4,0.9-2.7,0.7-4.2c-0.1-1.2-0.5-2.2-0.2-3.2c-0.1-0.4,0.1-0.7,0.5-0.9c0.7-0.4,1.9,0.5,2.5,0.9c0.9,0.5,2.1,1.1,3,1.9         c1.9,1.1,4,2.8,3.1,4.7c-0.1,0.7-0.4,1.4-1.2,1.9c-0.3,0.2-2.1,0.7-2.9,0.9c-0.2,0-0.3,0.1-0.4,0.1c0.2-0.1,0.3-0.2,0.5-0.3         c1.4-1.2,1-2.4,0.2-3.9c0,0,0,0,0,0c1.3,3.5-1.7,3.4-3.4,5.3c-1,1.1-1.5,2.4-1.8,3.8c0,0,0,0,0,0c-0.2,0.7-0.2,1.3,0,2         c0-0.2,0-0.3,0.1-0.4c0-1,0.4-2.1,1-3.1c0.3-0.6,0.7-1.2,1.2-1.7c1.8-1.8,4.6-1.1,6.5-2.3c0.1-0.1,0.2-0.2,0.3-0.3         c0.2-0.2,0.4-0.4,0.5-0.8c0.2-0.4,0.3-0.7,0.3-1.2c0-0.2,0.1-0.8,0.3-0.9c1.1,0.9,2,2.2,2.7,3.5c0.2,0.2,0.4,0.4,0.5,0.7         c0.2,0.3,0.4,0.6,0.6,0.9c0.2,0.5,0.3,0.9,0.4,1.4c0.5,1.1,0.7,2.3,0,3.4c-0.2,0.7-0.5,1.4-0.9,2.1c-0.1,0.1-0.1,0.2-0.2,0.3         c0.4-1.3,0-3-0.8-4c0,0-0.1,0,0,0c0.6,1.1,0.5,2,0.4,3.2c0,0.7-0.4,1.2-0.7,1.9c0,0,0,0.1,0,0.1c-0.9,1.1-2,2.1-2.4,3.3         c-0.2,0.6-0.5,1.3-0.7,2c0,0,0,0,0,0c0,0,0,0.1,0,0.1c0,0.1-0.1,0.2-0.1,0.3c-0.5,0.6-0.8,1.3-1.2,2c-0.3,0.4-0.6,0.9-1,1.3         c-0.2,0.2-0.3,0.3-0.5,0.5c0,0,0,0-0.1,0c-0.3,0.4-0.8,0.7-1.3,0.8c-0.8,0.2-1.8,0.2-2.7-0.1c1,0.4,2.1,0.6,3.1,0.3         c-0.4,0.4-0.6,0.8-0.7,1.4c0.1-0.1,0.3-0.2,0.4-0.3c0.4-0.7,1.2-1.3,1.8-1.8c0.4-0.4,0.7-0.9,1-1.4c0.6-0.8,1.1-1.8,1.4-2.7         c0-0.1,0.1-0.2,0.1-0.2c0.1-0.1,0.2-0.1,0.3-0.2c0.2-0.4,0.5-0.7,0.8-1c0.5-0.4,1-0.5,1.5-0.6c0.3-0.1,0.6-0.1,0.9-0.1         c0.2,0,0.4-0.1,0.5-0.2c-0.3-0.1-0.6-0.3-0.9-0.2c-0.5,0.1-1.1,0.1-1.6,0.3c-0.3,0.1-0.9,0.8-1.1,1c0,0,0,0,0,0         c1.2-2.4,3.3-3.9,4.7-6.2c0.7-1.2,1.1-2.3,1.1-3.5c0-0.2-0.1-0.3-0.1-0.4c0.3-0.3,0.6-0.4,1-0.3c0.9,0.7,1.5,1.6,2.1,2.6         c0.2,0.2,0.3,0.5,0.5,0.8c0,0,0,0.1,0,0.1c0,0.1,0.1,0.2,0.1,0.2c0.4,1.1,0.7,2.3,0.7,3.5c-0.2,0.5-0.6,1.1-0.8,2.1         c-0.2,0.7-0.4,1.5-0.6,2.2c-0.3,0.5-0.6,1.2-0.8,1.7c0,0.1,0,0.1-0.1,0.2c0-0.7-0.1-1.4-0.6-2c0.4,1.2,0.3,2.4-0.2,3.4         c-0.3,0.8-0.7,1.5-1.1,2.1c-0.1,0.1-0.2,0.2-0.4,0.4c-2,1.6-3.8,2.4-5.7,2.7c0.2-0.1,0.3-0.3,0.5-0.4         c0.5-0.7,0.7-1.6,0.5-2.4c0,0.4-0.2,0.8-0.4,1.1c-0.2,0.6-0.6,1.2-1.2,1.4c-0.8,0.4-1.7,0.4-2.5,0.5         c-1.7-0.1-3.4-0.3-5.4-0.5c-1-0.1-2.2,0.3-3.4,0.9c0.8-1.2,1.4-2.6,1.9-4c0.5-1.6,0.8-3.5,1.1-5.3c0.5-0.8,1-1.5,1.9-1.9         c0.4-0.2,0.9-0.3,1.3-0.5c0.3,0,0.7-0.1,1-0.2c0.5,0,0.7,0.2,1.1,0.3c0,0,0,0,0,0c-0.4-0.2-0.6-0.4-1-0.5c0,0,0,0,0.1,0         c1.8-0.7,2.4-1.8,3-3.5c0,0,0-0.1,0,0c-0.5,1.1-1.2,2.2-2.3,2.8c-0.9,0.4-1.8,0.7-2.8,1c-1,0.4-1.8,1-2.4,1.8         c0.3-1.4,0.6-2.7,1.2-3.8c0.3-0.4,0.7-0.8,1.1-1.3c0.3-0.3,0.7-0.6,1-0.9c0.6-0.4,1.4-0.7,2.3-0.8c0,0,0,0,0,0         c-0.7,0.1-1.3,0.2-1.8,0.4c0.2-0.2,0.3-0.4,0.4-0.6c0.7-1.6,0.6-2.7-0.2-4.2c0,0-0.1,0-0.1,0c0.9,2.3-0.2,4.2-2,5.7         c-0.3,0.3-0.6,0.6-0.9,0.9c-1.8,2.2-2.3,5.7-3,9c-0.2-0.4-0.5-0.7-1-0.9c0,0.2,0.1,0.3,0.2,0.4c0.3,0.6,0.5,1.2,0.5,1.8         c0.1,0.9,0,1.8-0.5,2.9c-0.5,1-1.1,2.1-2.1,2.7c-0.4,0.3-0.7,0.6-1,0.9c-0.1,0.1-0.2,0.2-0.3,0.3c0,0-0.1,0.1-0.2,0.1         c0.1-0.9-0.3-1.8-0.7-2.7c0,1.2,0.5,2.3-0.2,3.4c-0.5,0.8-1.2,1.2-2,1.4c-1.5,0.7-3,1.1-4.6,1.1c1.8-0.7,2.5-2.1,2-3.9         c-0.2,1.2-0.6,2.3-1.7,3c-0.7,0.5-1.6,0.7-2.3,0.4c-0.1,0-0.2,0-0.3,0c-0.1,0-0.2,0-0.3-0.1c-0.5-0.2-1.1-0.5-1.5-0.8         c-0.7-0.8-1.1-2-1.3-3.2C91.7,75.4,91.8,74.4,91.8,73.5z" />
				</g>
				<path class="st15"
					d="M126.9,76.7c1.7-0.8,3.1-1.6,4.3-3.2c1.4-1.8,1.4-4.1,1.9-6.2c0,0,0.1,0,0,0c-0.2,2.2,0.1,4.3-1,6.3        c-1.2,2.1-3,2.6-5.2,3.3C127,76.9,126.8,76.8,126.9,76.7z" />
				<path class="st15"
					d="M125.1,77c0.2,0,0.8,0.1,0.9-0.1c0-0.1,0.1,0,0.1,0.1C126,77.4,124.9,77.6,125.1,77        C125,77.1,125,77,125.1,77z" />
				<path class="st15"
					d="M129,82.4c1.6-1,4-1.9,3.7-4.3c0,0,0,0,0,0c0.8,2.5-1.4,4.1-3.6,4.5C129,82.6,128.9,82.4,129,82.4z" />
				<path class="st15"
					d="M124.6,79.9c0.3-0.1,0.5-0.1,0.8-0.2c0.3-0.1,0.5-0.3,0.7-0.6c0,0,0,0,0,0c-0.3,0.6-0.7,1.5-1.5,1.1        C124.6,80.1,124.4,79.9,124.6,79.9z" />
				<path class="st15"
					d="M109.3,78.8c2.2,0.5,4.6,0.5,6.5-1c0,0,0,0,0,0c-1.5,2.1-4.3,2.2-6.5,1.2        C109.2,78.9,109.2,78.7,109.3,78.8z" />
				<path class="st15"
					d="M118.7,80.9c0.9,0,1.5,0.2,2.3,0.6c1.4,0.6,2.2,1.9,4,1.7c0,0,0,0,0,0c-0.9,0.3-1.5,0.3-2.3-0.1        c-0.6-0.3-1.1-0.8-1.7-1.2c-0.7-0.4-1.5-0.5-2.2-0.7C118.7,81.1,118.5,80.9,118.7,80.9z" />
				<path class="st15"
					d="M122.6,72.6c2-1.8,3.7-4.1,3.6-6.9c0,0,0,0,0.1,0c0.6,1.5,0.7,2.8-0.1,4.3c-0.7,1.2-2.2,2.2-3.4,2.7        C122.6,72.9,122.5,72.7,122.6,72.6z" />
				<path class="st15"
					d="M129,61.5c0.3-0.5,0.4-1.1,0.4-1.7c0,0,0,0,0,0c0.1,0.6,0.3,1,0.1,1.6c-0.2,0.7-0.4,1.4-0.8,1.9        c-0.1,0.1-0.3,0-0.3-0.2C128.6,62.6,128.7,62,129,61.5z" />
				<path class="st15"
					d="M119.8,62.4c0.5-0.9,1.1-1.8,1.7-2.7c0.7-1.1,0.5-2.4,0.4-3.6c0-0.1,0.1,0,0.1,0        c0.5,1.4,0.6,2.3,0.3,3.8c-0.3,1.3-1.4,2-2.3,2.8C119.9,62.7,119.7,62.5,119.8,62.4z" />
				<path class="st15"
					d="M113.5,70.2c1.3-0.3,2.5-1.1,3.3-2.2c0.4-0.6,0.8-1.1,1.1-1.7c0.2-0.3,0.3-0.7,0.6-1c0,0,0,0,0,0        c-0.2,0.6-0.2,1.3-0.5,1.9c-0.3,0.6-0.6,1.2-1,1.8c-0.8,1-2.2,1.5-3.5,1.4C113.4,70.4,113.4,70.2,113.5,70.2z" />
				<path class="st15"
					d="M111.9,70.2c0.1,0,0.2,0,0.4-0.1c0.1,0,0.3,0.2,0.1,0.2c-0.2,0.1-0.3,0.1-0.5,0.1        C111.9,70.4,111.8,70.2,111.9,70.2z" />
				<path class="st15"
					d="M106,75.4c0.4-0.9,0.8-1.8,1.1-2.7c0.3-0.9,0.2-1.8,0.3-2.7c0,0,0,0,0,0c0.2,1.1,0.5,1.9,0.3,3.1        c-0.2,1-0.8,1.9-1.5,2.6C106.2,75.7,105.9,75.5,106,75.4z" />
				<path class="st15"
					d="M101.5,78.9c0.5-0.7,1.1-1.2,1.4-1.9c0.4-0.8,0.7-2,0.4-2.9c0,0,0,0,0.1,0c1.1,1.9,0.1,4.1-1.6,5.1        C101.7,79.3,101.4,79,101.5,78.9z" />
				<path class="st15"
					d="M98.4,71.3c1.3-0.9,2.7-0.9,4.2-1.2c0,0,0.1,0.1,0,0.1c-1.2,0.4-2.4,0.7-3.5,1.4c-1,0.6-2.1,1.6-2.7,2.6        c-0.1,0.1-0.2,0-0.2-0.1C96.5,73,97.5,71.9,98.4,71.3z" />
				<path class="st15"
					d="M111.7,59.4c0.5-0.8,1.4-1.4,1.8-2.2c0.5-0.8,0.7-1.8,0.8-2.7c0,0,0,0,0,0c0.1,1,0,1.8-0.3,2.8        c-0.3,1-1.3,1.7-2.2,2.3C111.8,59.6,111.7,59.5,111.7,59.4z" />
				<path class="st15"
					d="M110.5,61.3c0.1-0.2,0.3-0.4,0.5-0.6c0,0,0.1,0,0.1,0c-0.1,0.2-0.2,0.5-0.3,0.7c0,0.2-0.1,0.5-0.2,0.7        c-0.1,0.2-0.3,0-0.3-0.2C110.2,61.7,110.4,61.5,110.5,61.3z" />
				<path class="st15"
					d="M113.8,62.1c0.3-0.3,0.7-0.3,1-0.3c0.5,0,1-0.5,1.5-0.7c0,0,0,0,0,0c-0.3,0.3-0.6,0.7-1,1        c-0.4,0.2-0.8,0.3-1.2,0.3C113.9,62.5,113.7,62.2,113.8,62.1z" />
				<path class="st15"
					d="M117.2,48.8c0.4-0.4,0.9-0.8,1-1.4c0.1-0.6,0.2-1.1,0.2-1.6c0,0,0.1,0,0.1,0c0.2,0.8,0.3,1.4,0.2,2.2        c-0.1,0.6-0.6,1.2-1.3,1.2C117.3,49.2,117.1,49,117.2,48.8z" />
				<path class="st15"
					d="M115,46.8C115,46.8,115.1,46.8,115,46.8c0.2,1.3,0.1,2-0.9,2.9c-0.6,0.6-1.3,1.1-1.9,1.6        c-0.8,0.7-1.2,1.6-1.7,2.5c0,0.1-0.2,0-0.2-0.1C110.8,50.6,115.1,50.1,115,46.8z" />
				<path class="st15"
					d="M108.3,41.2C108.3,41.2,108.3,41.2,108.3,41.2c1.2,2.1,1,5.4,0.2,7.6c0,0.1-0.2,0-0.2-0.1        C108.5,46.4,109.1,43.5,108.3,41.2z" />
				<path class="st15"
					d="M104.1,58.4c1.6-2.9,2.2-6.4,0.8-9.6c0,0,0,0,0,0c2.2,3.1,2,7-0.7,9.7C104.2,58.7,104.1,58.5,104.1,58.4        z" />
				<path class="st15"
					d="M102.9,59.5c0.2-0.1,0.4-0.3,0.6-0.4c0.1-0.1,0.3,0.1,0.2,0.2c-0.2,0.2-0.2,0.5-0.5,0.6        C103,59.9,102.8,59.7,102.9,59.5z" />
				<path class="st15"
					d="M96.9,57.7c1.4-1,2.2-2.4,2.4-4.1c0,0,0,0,0,0c0.1,1.6-0.5,3.9-2.3,4.3C97,57.9,96.8,57.8,96.9,57.7z" />
				<path class="st15"
					d="M95,64.3c1.4-0.3,3.3-0.2,4.4-1.3c0,0,0.1,0,0,0c-0.8,1.3-2.9,1.8-4.3,1.6C94.9,64.7,94.8,64.4,95,64.3z        " />
				<path class="st15"
					d="M99.1,36.7c1.7,0.7,2,3.2,0.5,4.2c-0.1,0.1-0.3-0.1-0.3-0.2c0.2-0.5,0.6-1.1,0.7-1.6        C100.1,38.1,99.8,37.5,99.1,36.7C99,36.8,99,36.7,99.1,36.7z" />
				<path class="st15"
					d="M97,44.8c0.5-0.3,1-0.3,1.5-0.6c0.6-0.3,1.2-0.9,1.3-1.5c0,0,0,0,0,0c0.1,0.6-0.1,1.2-0.5,1.7        C98.8,45,98,45,97.2,45.1C97.1,45.1,96.8,44.9,97,44.8z" />
				<path class="st15"
					d="M95,42.4c0.2-0.9,0-1.6-0.2-2.5c0,0,0,0,0,0c0.3,0.8,0.8,1.5,0.8,2.4c-0.1,1.1-0.4,2.1-1.2,2.8        c-0.1,0.1-0.3-0.1-0.3-0.2C94.3,44,94.8,43.2,95,42.4z" />
				<path class="st15"
					d="M106,64.1c0.4-0.4,0.8-0.6,0.9-1.2c0,0,0,0,0,0c0,0.5-0.1,1.7-0.8,1.4C106,64.3,106,64.2,106,64.1z" />
				<path class="st15"
					d="M96,69.2c0.4-0.3,0.8-0.6,1.3-0.5c0,0,0.1,0.1,0,0.1c-0.5,0.1-0.9,0.6-1.2,1c-0.2,0.2-0.4,0.4-0.5,0.7        c-0.1,0.2-0.2,0.4-0.5,0.4c-0.1,0-0.3-0.2-0.3-0.3C95,69.9,95.6,69.6,96,69.2z" />
				<path class="st15"
					d="M94,71.2c0,0,0.1-0.1,0.1-0.1c0-0.1,0.2,0,0.2,0.1c-0.1,0.1,0,0.1-0.2,0.2C94,71.4,93.9,71.3,94,71.2z" />
			</g>
		</g>
	</g>
</svg>