<?xml version="1.0" encoding="utf-8"?>
<!-- Generator: Adobe Illustrator 26.0.0, SVG Export Plug-In . SVG Version: 6.00 Build 0)  -->
<svg version="1.1" id="Layer_1" xmlns="http://www.w3.org/2000/svg" xmlns:xlink="http://www.w3.org/1999/xlink" x="0px" y="0px"
	 viewBox="0 0 197 371" style="enable-background:new 0 0 197 371;" xml:space="preserve">
<style type="text/css">
	.st0{fill:#F4D9BF;}
	.st1{opacity:0.7;fill:#F4D9BF;enable-background:new    ;}
	.st2{fill:#C39368;}
	.st3{opacity:0.8;fill:#F4D9BF;enable-background:new    ;}
	.st4{opacity:0.5;fill:#F4D9BF;enable-background:new    ;}
	.st5{fill:#842B33;}
	.st6{fill:#E34B4F;}
	.st7{opacity:0.5;fill:#CE4547;enable-background:new    ;}
	.st8{opacity:0.5;}
	.st9{fill:#97192E;}
	.st10{fill:#EF7C70;}
	.st11{fill:#333328;}
	.st12{opacity:0.5;fill:#444437;enable-background:new    ;}
	.st13{fill:#4D4D3F;}
	.st14{fill:#444437;}
	.st15{fill:#E3C19E;}
	.st16{fill:#F9CBC0;}
	.st17{fill:#461A00;}
	.st18{fill:#FFFFFF;}
	.st19{fill:#050800;}
	.st20{fill:#EF7B80;}
	.st21{fill:#E94B49;}
</style>
<g>
	<g>
		<g>
			<g>
				<g>
					<path class="st0" d="M165.7,218.4c-2.5-6.9-7.6-9.2-7.6-9.2c-3.5-15.1-14.7-46.6-25.9-58.8c-11.2-12.2-30-14.6-30-14.6l0-5.6
						l-4,0l-4,0l0,5.6c0,0-18.8,2.5-30,14.7c-11.1,12.2-22.2,43.8-25.7,58.9c0,0-5.1,2.3-7.5,9.2c-2.5,6.9-0.8,12.6,1.4,12.6
						c0,0,0.9,3.8,3.5,4.1c0,0,1.5,2.8,4.2,2.3c0,0,2,2.2,3.4,0.5s-1.3-4.8-0.6-10.1c0.7-5.3,2.7-6.2,3.3-4c0.6,2.2-0.3,7.5,0.9,8.4
						c1.2,0.9,5.1-3.5,4-10.7c-1.1-7.2-3.7-8.6-3.7-8.6s4.1-34.2,26.9-56.4c0,0-5.2,30.8-2.6,62.5l0.1,4.1
						c0.1,4.9,0.7,23.2,3.4,41.2c0,0,5.1,47.3,2.5,50.8s-20.3,10.8-20.3,10.8s-1.5-0.9-2.3,1.1s0.7,4.6,3.8,4c0,0,1.3,1.1,4.5,0.1
						c0,0,2.4,1.3,5.3-0.1c0,0,2.1,1.4,5,0.2c0,0,1.7,1.4,5.9,0c4.2-1.4,6.2-2.8,9.4-2.7c3.2,0.1,9.2-0.7,7.8-7.8
						c-1.4-7.1-2.5-4.8-2.2-11.9c0.2-7.1-0.2-44-0.2-44l0.6-31.3c1.1,0.4,3.5,0.9,6.9,0.1l0.7,31.2c0,0-0.3,36.9,0,44
						c0.3,7.1-0.8,4.8-2.2,11.9s4.6,7.9,7.8,7.8c3.2-0.1,5.2,1.2,9.4,2.6c4.2,1.4,5.9,0,5.9,0c3,1.1,5-0.3,5-0.3
						c2.9,1.5,5.3,0.1,5.3,0.1c3.1,1,4.5-0.1,4.5-0.1c3.1,0.5,4.6-2.1,3.8-4.1s-2.3-1.1-2.3-1.1s-17.7-7.3-20.3-10.8
						c-2.7-3.5,2.3-50.8,2.3-50.8c3.2-21.1,3.3-42.5,3.3-42.5l0.3-6.6l0,0c1.8-30.4-3.1-58.7-3.1-58.7
						c22.8,22.1,27.1,56.4,27.1,56.4s-2.6,1.4-3.7,8.6c-1.1,7.2,2.8,11.6,4,10.7c1.2-0.9,0.3-6.2,0.9-8.4c0.6-2.2,2.6-1.3,3.3,4
						c0.7,5.3-2,8.4-0.6,10.1c1.4,1.7,3.4-0.5,3.4-0.5c2.7,0.5,4.2-2.3,4.2-2.3c2.6-0.3,3.5-4.1,3.5-4.1
						C166.5,231,168.2,225.2,165.7,218.4z"/>
					<path class="st1" d="M102.2,134.2l0-4l-8,0l0,3.7C96.5,134.8,99.4,134.8,102.2,134.2z"/>
					<g>
						<g>
							<g>
								<g>
									<path class="st2" d="M157.7,229.5c0.4-3,0.1-6-1.2-8.8c0,0,0,0,0,0c1.4,2.6,1.8,5.4,1.6,8.3c-0.2,2.7-0.4,6.4-2.2,8.6
										c0,0-0.1,0-0.1-0.1C157.2,235.2,157.3,232.2,157.7,229.5z"/>
									<path class="st2" d="M160.2,219.4C160.2,219.3,160.3,219.3,160.2,219.4c1.1,2.9,1.8,5.6,1.8,8.7c0,2.6-0.2,5.7-1.9,7.8
										c0,0-0.1,0-0.1-0.1C162.9,230.8,161.8,224.5,160.2,219.4z"/>
									<path class="st2" d="M162.9,217.8C162.9,217.7,162.9,217.7,162.9,217.8c2.6,4.1,3,9.4,1.1,13.8c0,0-0.1,0-0.1,0
										C165.3,226.9,165.2,222.2,162.9,217.8z"/>
								</g>
							</g>
							<path class="st2" d="M76,147.8c0,0-1.2,3.9-2,8.9C74.1,156.7,75.7,151.2,76,147.8z"/>
							<path class="st2" d="M120.2,147.8c0,0,1.3,3.9,2,8.9C122.2,156.6,120.6,151.1,120.2,147.8z"/>
							<g>
								<g>
									<path class="st2" d="M38.9,229.7c-0.4-3-0.1-6,1.2-8.8c0,0,0,0,0,0c-1.4,2.6-1.8,5.4-1.5,8.3c0.2,2.7,0.4,6.4,2.2,8.5
										c0,0,0.1,0,0.1-0.1C39.4,235.4,39.3,232.4,38.9,229.7z"/>
									<path class="st2" d="M36.3,219.6C36.3,219.6,36.3,219.6,36.3,219.6c-1.1,2.9-1.8,5.6-1.8,8.7c0,2.6,0.2,5.7,1.9,7.7
										c0,0,0.1,0,0.1-0.1C33.7,231,34.7,224.7,36.3,219.6z"/>
									<path class="st2" d="M33.6,218C33.7,218,33.6,218,33.6,218c-2.6,4.1-3,9.4-1,13.8c0,0,0.1,0,0.1,0
										C31.3,227.1,31.3,222.4,33.6,218z"/>
								</g>
							</g>
						</g>
						<g>
							<g>
								<g>
									<path class="st2" d="M76.4,323.8c-1.2,0-2.8,0.4-3.5,1.4c-1.5,2-1.6,6.4,1.6,6.9c0,0,0.1-0.1,0-0.1c-2.5-1-2.8-4.2-1.5-6.3
										c0.9-1.4,2.9-1.6,4.3-1.5c1.2,0.1,1.8,0.6,2.7,1.1l0,0C78.9,324.3,77.9,323.9,76.4,323.8z"/>
									<path class="st2" d="M66.5,326.2c-1.2,2,0.5,5.1,2.7,5.4c0,0,0.1-0.1,0-0.1c-2-0.5-3.2-3.1-2.6-5c0.8-2.6,3.7-2.1,5.7-1.7
										c0,0,0,0,0,0C70.1,324,67.8,324,66.5,326.2z"/>
									<path class="st2" d="M61.6,326.6c-1,1.9,0,4.1,1.8,4.8c0,0,0,0,0,0c-1.3-0.9-2-1.8-2-3.4c0.1-2.3,2.6-3.9,4.6-2.5
										c0,0,0,0,0,0C64.5,324.1,62.5,325,61.6,326.6z"/>
									<path class="st2" d="M57.8,327.1c-0.8,1.5,0,4,1.6,4.5c0,0,0.1,0,0-0.1c-1.2-0.7-1.9-2.1-1.7-3.5c0.2-1.9,2-2.8,3.6-2
										c0,0,0,0,0,0C60.1,324.9,58.4,325.9,57.8,327.1z"/>
									<path class="st2" d="M58,326.2c-0.2-0.1-0.4-0.2-0.7-0.3c-0.3,0-0.8,0-1,0.1c-0.5,0.1-0.9,0.8-1.1,1.3c0,0,0,0,0.1,0
										c0.1-0.2,0.3-0.5,0.5-0.7c0.3-0.4,0.6-0.3,1-0.4C57.1,326.1,57.5,326.2,58,326.2C58,326.2,58,326.2,58,326.2z"/>
								</g>
							</g>
						</g>
						<g>
							<g>
								<g>
									<path class="st2" d="M120.7,323.7c1.2,0,2.8,0.4,3.6,1.4c1.5,2,1.6,6.3-1.5,6.9c0,0-0.1-0.1,0-0.1c2.5-1,2.8-4.2,1.5-6.3
										c-0.9-1.4-2.9-1.5-4.3-1.5c-1.2,0.1-1.8,0.6-2.7,1.1l0,0C118.1,324.3,119.1,323.8,120.7,323.7z"/>
									<path class="st2" d="M130.5,326c1.2,2-0.4,5.1-2.7,5.5c0,0-0.1-0.1,0-0.1c2-0.5,3.2-3.1,2.6-5c-0.8-2.6-3.7-2.1-5.7-1.7
										c0,0,0,0,0,0C126.9,323.9,129.2,323.9,130.5,326z"/>
									<path class="st2" d="M135.4,326.4c1,1.9,0,4.1-1.8,4.9c0,0-0.1,0,0,0c1.3-0.9,2-1.8,2-3.4c-0.1-2.3-2.6-3.9-4.6-2.5
										c0,0,0,0,0,0C132.5,324,134.6,324.8,135.4,326.4z"/>
									<path class="st2" d="M139.3,327c0.8,1.5,0,4-1.6,4.5c0,0-0.1,0,0-0.1c1.2-0.7,1.9-2.1,1.7-3.5c-0.2-1.9-2-2.8-3.6-2
										c0,0,0,0,0,0C136.9,324.8,138.6,325.7,139.3,327z"/>
									<path class="st2" d="M139.1,326c0.2-0.1,0.4-0.2,0.7-0.3c0.3-0.1,0.8,0,1,0.1c0.5,0.1,0.9,0.8,1.1,1.3c0,0,0,0-0.1,0
										c-0.1-0.2-0.3-0.5-0.5-0.7c-0.3-0.3-0.6-0.3-1-0.4C139.9,325.9,139.5,326,139.1,326C139.1,326.1,139,326,139.1,326z"/>
								</g>
							</g>
						</g>
					</g>
				</g>
				<path class="st3" d="M99.4,209.2c0,0.7-0.3,1.3-0.7,1.3c-0.4,0-0.7-0.6-0.7-1.3c0-0.7,0.3-1.3,0.7-1.3
					C99.1,207.9,99.4,208.5,99.4,209.2z"/>
				<path class="st4" d="M43.8,213.9c6.1,1.2,6.1,13.1,4.9,13.6s-1.2-2-1.3-4.2c-0.2-2.2-2-2-2-2c-2.8,0.2-3.3,6.8-3.4,8.2
					c-0.2,1.4-0.2,1.7-1.2,1.8c-1,0-1.1-1.1-1.1-1.1c-1-3.5,0.9-10.1,0.9-10.1c-2,1.9-2.5,7.8-2.6,8.9c0,1.1,0.1,2-0.9,2
					c-1,0-1.3-1.4-1.3-1.4c-1.2-4.5,1.2-10.8,1.2-10.8c-1.6,1.9-2.3,6.4-2.5,7.7c-0.2,1.3-0.7,1.5-0.7,1.5c-1,0.5-1.2-0.8-1.2-0.8
					c-1-4.1,1.2-9.2,1.2-9.2c-2.3,2.9-2.3,7.8-2.5,8.3c-0.2,0.5-0.3,0.4-0.3,0.4c-0.8-0.1-1-1.3-1.1-2.1c-0.2,4,1.1,6.7,2.6,6.7
					c0,0,0.9,3.8,3.5,4.1c0,0,1.5,2.8,4.2,2.3c0,0,2,2.2,3.4,0.5s-1.3-4.8-0.6-10.1c0.7-5.3,2.7-6.2,3.3-4c0.6,2.2-0.3,7.5,0.9,8.4
					c1.2,0.9,5.1-3.5,4-10.7c-1.1-7.2-3.7-8.6-3.7-8.6s4.1-34.2,26.9-56.4l1.4-6.1C47,172.5,43.8,213.9,43.8,213.9z"/>
				<path class="st4" d="M142.1,327.1c-0.1-0.3-0.2-0.5-0.4-0.7h-0.2c0,0,0.7,1.3-0.5,1.9s-1.3-1.7-2.5-2.2c0,0,0.9,1.6-0.5,1.9
					s-2.2-1.8-3.6-2.6c0,0,1.5,1.9-0.3,2.7c-1.7,0.8-2.7-2.2-4.7-3.2c0,0,1.1,1.5-0.5,2.3s-3.8-1.9-5.2-2.4c0,0,1.1,2.4-2,3.1
					c-3.2,0.7-5.3-2.5-10.6-2.8c-5.2-0.3-6.9-1.4-5.5-5.6c1.4-4.2,2.1-4.9,1.8-8.5c-0.3-3,3-61.8,4-80c-3.8,1.5-7.8,2.2-11.9,2.3
					c-4.8,0.1-10.4-0.2-14.3-3.3c1,16.9,4.6,78,4.3,81.1c-0.3,3.6,0.4,4.2,1.8,8.5s-0.3,5.3-5.5,5.7c-5.2,0.3-7.4,3.5-10.6,2.8
					s-2.1-3-2.1-3c-1.5,0.5-3.7,3.2-5.2,2.4c-1.6-0.8-0.5-2.3-0.5-2.3c-2,0.9-2.9,4-4.6,3.2c-1.7-0.8-0.3-2.7-0.3-2.7
					c-1.4,0.8-2.1,2.9-3.6,2.6c-1.5-0.3-0.5-1.9-0.5-1.9c-1.2,0.6-1.3,2.8-2.5,2.3s-0.5-1.9-0.5-1.9h-0.1c-0.1,0.2-0.3,0.4-0.4,0.7
					c-0.8,2,0.7,4.6,3.8,4c0,0,1.3,1.1,4.5,0.1c0,0,2.4,1.3,5.3-0.1c0,0,2.1,1.4,5,0.2c0,0,1.7,1.4,5.9,0c4.2-1.4,6.2-2.8,9.4-2.7
					c3.2,0.1,9.2-0.7,7.8-7.8c-1.4-7.1-2.5-4.8-2.2-11.9c0.2-7.1-0.2-44-0.2-44l0.6-31.3c1.1,0.4,3.5,0.9,6.9,0.1l0.7,31.2
					c0,0-0.3,36.9,0,44c0.3,7.1-0.8,4.8-2.2,11.9s4.6,7.9,7.8,7.8c3.2-0.1,5.2,1.2,9.4,2.6c4.2,1.4,5.9,0,5.9,0c3,1.1,5-0.3,5-0.3
					c2.9,1.5,5.3,0.1,5.3,0.1c3.1,1,4.5-0.1,4.5-0.1C141.4,331.7,142.9,329.1,142.1,327.1z"/>
				<path class="st4" d="M165.8,226.2c0,0-0.2,0.2-0.3-0.4c-0.2-0.5-0.2-5.4-2.5-8.3c0,0,2.2,5.1,1.2,9.2c0,0-0.2,1.4-1.2,0.8
					c0,0-0.5-0.2-0.7-1.5s-0.9-5.8-2.5-7.7c0,0,2.4,6.2,1.3,10.8c0,0-0.3,1.5-1.3,1.5c-1,0-0.9-0.9-1-2s-0.6-7.1-2.6-8.9
					c0,0,2,6.5,0.9,10.1c0,0-0.1,1.1-1.1,1.1c-1,0-1-0.4-1.2-1.7s-0.7-7.9-3.5-8.2c0,0-1.8-0.2-2,2.1c-0.2,2.2-0.1,4.7-1.3,4.2
					c-1.2-0.5-1.3-12.4,4.9-13.6c0,0-3.4-41.4-31.9-63.1l1.4,6.1c0,0,0.2,0.2,0.4,0.6c22.5,22.1,26.7,56,26.7,56s-2.6,1.4-3.7,8.6
					c-1.1,7.2,2.8,11.6,4,10.7c1.2-0.9,0.3-6.2,0.9-8.4c0.6-2.2,2.6-1.3,3.3,4c0.7,5.3-2,8.4-0.6,10.1c1.4,1.7,3.4-0.5,3.4-0.5
					c2.7,0.5,4.2-2.3,4.2-2.3c2.6-0.3,3.5-4.1,3.5-4.1c1.5,0,2.8-2.8,2.6-6.8C166.8,225,166.5,226.1,165.8,226.2z"/>
			</g>
		</g>
		<g>
			<g>
				<g>
					<path class="st5" d="M96,153c-0.1-2.2,0.3-4.2,0.8-6.3c0.1-0.8,0.3-1.6,0.4-2.5c0.2-1.5,0.3-2.9-0.6-4.2
						c-1.6-2.2-7.2,0.2-8.8,1.2c0,0,0,0,0,0c-4.2,1.9-7.3,4.8-9.5,9.3c-2.3,4.7-3.4,10.1-3.5,15.3c-0.1,5.3,2.1,6.7,6.8,5.6
						c3.7-0.9,8.7-2.4,11.5-5.2c1.2-1.2,2-2.4,2.5-3.6C96,159.4,96.1,156.4,96,153z"/>
					<path class="st6" d="M85.5,169.9c-1.7,0.6-3.5,1.1-5.2,1.5c-3.9,0.9-5.2-1.8-5.2-5.6c0-3.6,0.7-7.3,1.8-10.8
						c1.4-4.3,3.2-8.3,6.8-11c1-0.8,3.6-2.4,6.3-3.5c2.3-0.9,5.3-1.9,6.5,0.1c1,1.6,0.1,4.6-0.5,6.9c-0.2,1.3-0.4,2.6-0.5,3.9
						c0.4,3.8,0.8,8.3-0.7,11.8C93.1,166.9,89.3,168.6,85.5,169.9z"/>
					<path class="st7" d="M96.5,140.6c-1.1-1.7-3.5-1.1-5.7-0.4c1.2-0.3,2.4-0.4,3.4,0.2c2.1,1.3-0.1,4.8-0.5,6.4
						c-0.8,3.8-0.2,7.9-1.5,11.6c-1,2.8-2.8,4.8-5.6,5.9c-2,0.9-7,3.2-9.1,1.4c-1.9-1.5-1.7-4.7-1.4-6.9c0.2-1.7,0.6-3.4,1.1-5.1
						c-0.1,0.4-0.3,0.8-0.4,1.1c-1.2,3.4-1.8,7.1-1.8,10.8c0,3.8,1.2,6.5,5.2,5.6c1.7-0.4,3.5-0.9,5.2-1.5c3.8-1.3,7.6-3.1,9.2-6.7
						c1.6-3.5,1.1-8,0.7-11.8c0.1-1.3,0.3-2.6,0.5-3.9C96.6,145.2,97.6,142.2,96.5,140.6z"/>
				</g>
				<g class="st8">
					<g>
						<path class="st6" d="M79.7,168.6C79.6,168.7,79.6,168.7,79.7,168.6C79.6,168.7,79.6,168.7,79.7,168.6z"/>
						<path class="st6" d="M85.5,153.9c-1.2,0.8-2.2,1.6-3.2,2.5c0,0-0.1,0-0.2,0.1c0,0.1-0.1,0.1-0.1,0.2c-0.2,0.1-0.3,0.3-0.5,0.4
							c-1.2,0.4-2.3,0.8-3.2,1.5c-1.1,0.8-1.7,1.9-2.2,3.1c0,0,0,0,0,0c0.8-1.3,1.5-2.4,2.9-3.2c0.6-0.3,1.3-0.6,1.9-0.8
							c-2.4,2.3-4,5-4.5,8.9c0,0,0,0,0,0c0.3-1.3,0.7-2.5,1.2-3.6c0,0.2,0,0.4,0,0.6c0,1.1,0.1,2.5-0.2,3.6c0,0,0,0,0,0
							c0.6-1.5,0.3-3.3,0.5-4.9c0.9-1.7,2.1-3.2,3.5-4.5c-0.3,1-0.4,2-0.4,3.1c0,1.8,0.2,6.2-1.4,7.8c1.1-1,1.5-2.6,1.7-4.4
							c0.2,0.6,0.4,1.2,0.6,1.8c0.3,1.1,0.4,2.2,0.3,3.4c0,0,0,0,0,0c0.4-2-0.1-4-0.9-5.8c0.2-2.3,0.1-4.8,0.7-6.4
							c0,0,0.1-0.1,0.1-0.1c0.1,0,0.2-0.1,0.2-0.1c0,0,0.1-0.1,0-0.1c1-0.9,2-1.8,3.2-2.8C85.7,153.9,85.6,153.8,85.5,153.9z"/>
						<path class="st6" d="M78.8,169.3c0.1-0.1,0.2-0.1,0.4-0.2C79,169.1,78.9,169.1,78.8,169.3C78.8,169.2,78.8,169.3,78.8,169.3z"
							/>
						<path class="st6" d="M79.3,168.9c0,0-0.1,0.1-0.2,0.1C79.2,169,79.3,169,79.3,168.9z"/>
						<path class="st6" d="M79.6,168.7c-0.1,0.1-0.2,0.1-0.2,0.2C79.4,168.9,79.5,168.8,79.6,168.7z"/>
					</g>
					<path class="st6" d="M86.2,153.4c-1.4,0.4-2.8,0.1-4.2,0.6c-1.6,0.6-2.9,1.4-4,2.6c0,0,0,0,0,0c1.5-1.3,3.3-2.2,5.2-2.6
						c1-0.2,2.1-0.1,3.1-0.5C86.3,153.5,86.3,153.3,86.2,153.4z"/>
					<path class="st6" d="M95.2,147.2c-0.4,0.2-0.9,0.3-1.3,0.3c-1.8-0.2-2.9-1.9-4.5-2.7c-1.4-0.7-2.7-0.8-4.2-0.6c0,0,0,0,0,0
						c1.4-0.1,2.9,0.2,4.2,0.9c-0.2,0-0.3,0-0.4,0.1c-1,0.2-1.8,0.3-2.8,0.1c0,0,0,0,0,0c0.6,0.2,1.2,0.3,1.9,0.3
						c0.3,0,0.6-0.1,0.9-0.2c0.3-0.1,0.6,0,0.9,0c0.4,0.2,0.8,0.5,1.1,0.9c0.6,0.6,1.2,1.1,2,1.3c-2.3,0-4.7-0.9-6.9-0.7
						c-2.4,0.2-5,1.3-6.3,3.5c0,0,0,0,0,0c1.3-1.7,3-2.5,4.9-2.8c-0.2,0.2-0.5,0.4-0.7,0.6c-0.5,0.4-1,0.8-1.5,1.1
						c-0.4,0.3-0.9,0.7-1.4,0.8c0,0,0,0,0,0c0.6,0,1.3-0.5,1.8-0.8c0.5-0.3,0.9-0.6,1.3-1c0.4-0.3,0.7-0.6,1.1-0.8
						c1.9-0.2,4,0,5.8,0.2c0.9,0.1,2,0.2,2.9,0c0.2,0,0.4,0,0.5-0.1c0,0,0.1-0.1,0.1-0.1c0.2-0.1,0.4-0.2,0.6-0.3
						C95.3,147.3,95.3,147.1,95.2,147.2z"/>
					<path class="st6" d="M96.4,145.8c-1.1-0.3-1.3-1.4-1.8-2.2c-0.3-0.7-0.9-1.2-1.5-1.6c-1-0.8-2.6-0.8-3.7-0.3c0,0-0.1,0.1,0,0.1
						c2.1-0.5,3.8,0.2,4.9,2c0.2,0.3,0.3,0.5,0.5,0.8c-0.4-0.3-0.8-0.3-1.5-0.2c-1.8,0.1-3.6,0-4.9-1.5c0,0,0,0,0,0
						c0.6,0.8,1.4,1.5,2.4,1.7c0.7,0.1,1.4,0.2,2.1,0.1c1-0.1,1.5-0.1,2.3,0.4C95.4,145.4,95.8,145.7,96.4,145.8
						C96.4,145.8,96.4,145.8,96.4,145.8z"/>
					<path class="st6" d="M94.7,157C94.7,157,94.7,157,94.7,157c-0.1-0.7-0.7-1.3-1.2-1.7c-0.3-0.3-0.7-0.5-1-0.8
						c-0.2-0.1-0.3-0.3-0.3-0.5c0.1-1.2,0.4-2.4,1.2-3.8c0,0,0,0,0,0c-1,1.3-1.9,3-1.8,4.7c0,0.8,0.1,1.4,0.3,2.1
						c-0.7,1.2-0.4,2.7,0,4c0,0,0,0,0,0c-0.2-1.2-0.3-2.4,0-3.6c0,0.2,0.1,0.3,0.1,0.5c0.8,2.7,1.1,4.5,0.2,7.3c0,0.1,0.1,0.1,0.1,0
						c0.9-2,1-3.7,0.6-5.8c-0.1-0.5-0.2-1-0.3-1.4c0.2,0.2,0.3,0.4,0.5,0.7c0.9,1.3,1.4,2.7,1.2,4.3c0,0,0,0,0,0
						c0.2-1.3,0.1-2.4-0.5-3.5c-0.4-0.8-0.9-1.4-1.3-2.1c-0.2-1-0.3-1.9-0.3-2.8C92.9,155.4,94.3,155.8,94.7,157z"/>
					<path class="st6" d="M87.4,159.9c0.6-1.1,1.2-2.2,1.6-3.4c0-0.1-0.1-0.1-0.1,0c-1.9,3.7-5.5,7.6-3,11.9c0,0,0,0,0,0
						c-1.5-3.2-0.1-5.5,1.3-7.9c-0.1,0.8,0.1,1.6,0.3,2.4c0.3,1.4,0.4,2.7,0.1,4.1c0,0,0,0,0,0c0.2-0.9,0.3-1.9,0.2-2.8
						C87.8,162.7,87.2,161.3,87.4,159.9z"/>
				</g>
				<g>
					<path class="st6" d="M92.9,140.6c-4.2,1.6-7.4,3-10.7,6.3c-3.8,3.8-5.3,9.1-5.2,14.4c0,0.1,0.2,0,0.2-0.1
						c1-5.2,2.9-10.8,6.7-14.5C86.4,144.1,89.7,142.4,92.9,140.6C92.9,140.7,92.9,140.6,92.9,140.6z"/>
					<path class="st6" d="M92.5,164c-2.6,3.5-13,7.9-16.4,4.6c0,0-0.1,0-0.1,0.1C79.4,173.9,90.1,168,92.5,164
						C92.6,163.9,92.5,163.9,92.5,164z"/>
				</g>
			</g>
			<g>
				<g>
					<path class="st5" d="M100.5,162.7c0.5,1.2,1.3,2.4,2.5,3.6c2.8,2.8,7.8,4.3,11.5,5.2c4.6,1.1,6.9-0.3,6.8-5.6
						c-0.1-5.2-1.2-10.6-3.5-15.3c-2.2-4.5-5.3-7.3-9.5-9.3c0,0,0,0,0,0c-1.5-1-7.2-3.5-8.8-1.2c-0.9,1.3-0.9,2.7-0.6,4.2
						c0.1,0.8,0.3,1.6,0.4,2.5c0.6,2,0.9,4.1,0.8,6.3C99.9,156.4,100,159.4,100.5,162.7z"/>
					<path class="st6" d="M101.3,163.2c-1.6-3.5-1.1-8-0.7-11.8c-0.1-1.3-0.3-2.6-0.5-3.9c-0.7-2.3-1.6-5.3-0.5-6.9
						c1.3-2,4.3-0.9,6.5-0.1c2.7,1.1,5.3,2.7,6.3,3.5c3.6,2.7,5.3,6.7,6.8,11c1.2,3.4,1.8,7.1,1.8,10.8c0,3.8-1.2,6.5-5.2,5.6
						c-1.7-0.4-3.5-0.9-5.2-1.5C106.8,168.6,103,166.9,101.3,163.2z"/>
					<path class="st7" d="M99.5,140.6c1.1-1.7,3.5-1.1,5.7-0.4c-1.2-0.3-2.4-0.4-3.4,0.2c-2.1,1.3,0.1,4.8,0.5,6.4
						c0.8,3.8,0.2,7.9,1.5,11.6c1,2.8,2.8,4.8,5.6,5.9c2,0.9,7,3.2,9.1,1.4c1.9-1.5,1.7-4.7,1.4-6.9c-0.2-1.7-0.6-3.4-1.1-5.1
						c0.1,0.4,0.3,0.8,0.4,1.1c1.2,3.4,1.8,7.1,1.8,10.8c0,3.8-1.2,6.5-5.2,5.6c-1.7-0.4-3.5-0.9-5.2-1.5c-3.8-1.3-7.6-3.1-9.2-6.7
						c-1.6-3.5-1.1-8-0.7-11.8c-0.1-1.3-0.3-2.6-0.5-3.9C99.4,145.2,98.5,142.2,99.5,140.6z"/>
				</g>
				<g class="st8">
					<g>
						<path class="st6" d="M116.4,168.6C116.4,168.7,116.4,168.7,116.4,168.6C116.5,168.7,116.4,168.7,116.4,168.6z"/>
						<path class="st6" d="M110.5,153.9c1.2,0.8,2.2,1.6,3.2,2.5c0,0,0.1,0,0.2,0.1c0,0.1,0.1,0.1,0.1,0.2c0.2,0.1,0.3,0.3,0.5,0.4
							c1.2,0.4,2.3,0.8,3.2,1.5c1.1,0.8,1.7,1.9,2.2,3.1c0,0,0,0,0,0c-0.8-1.3-1.5-2.4-2.9-3.2c-0.6-0.3-1.3-0.6-1.9-0.8
							c2.4,2.3,4,5,4.5,8.9c0,0,0,0,0,0c-0.3-1.3-0.7-2.5-1.2-3.6c0,0.2,0,0.4,0,0.6c0,1.1-0.1,2.5,0.2,3.6c0,0,0,0,0,0
							c-0.6-1.5-0.3-3.3-0.5-4.9c-0.9-1.7-2.1-3.2-3.5-4.5c0.3,1,0.4,2,0.4,3.1c0,1.8-0.2,6.2,1.4,7.8c-1.1-1-1.5-2.6-1.7-4.4
							c-0.2,0.6-0.4,1.2-0.6,1.8c-0.3,1.1-0.4,2.2-0.3,3.4c0,0,0,0,0,0c-0.4-2,0.1-4,0.9-5.8c-0.2-2.3-0.1-4.8-0.7-6.4
							c0,0-0.1-0.1-0.1-0.1c-0.1,0-0.2-0.1-0.2-0.1c0,0-0.1-0.1,0-0.1c-1-0.9-2-1.8-3.2-2.8C110.4,153.9,110.4,153.8,110.5,153.9z"
							/>
						<path class="st6" d="M117.2,169.3c-0.1-0.1-0.2-0.1-0.4-0.2C117,169.1,117.1,169.1,117.2,169.3
							C117.3,169.2,117.3,169.3,117.2,169.3z"/>
						<path class="st6" d="M116.7,168.9c0.1,0,0.1,0.1,0.2,0.1C116.8,169,116.8,169,116.7,168.9z"/>
						<path class="st6" d="M116.5,168.7c0.1,0.1,0.2,0.1,0.2,0.2C116.6,168.9,116.5,168.8,116.5,168.7z"/>
					</g>
					<path class="st6" d="M109.8,153.4c1.4,0.4,2.8,0.1,4.2,0.6c1.6,0.6,2.9,1.4,4,2.6c0,0,0,0,0,0c-1.5-1.3-3.3-2.2-5.2-2.6
						c-1-0.2-2.1-0.1-3.1-0.5C109.8,153.5,109.7,153.3,109.8,153.4z"/>
					<path class="st6" d="M100.9,147.2c0.4,0.2,0.9,0.3,1.3,0.3c1.8-0.2,2.9-1.9,4.5-2.7c1.4-0.7,2.7-0.8,4.2-0.6c0,0,0,0,0,0
						c-1.4-0.1-2.9,0.2-4.2,0.9c0.2,0,0.3,0,0.4,0.1c1,0.2,1.8,0.3,2.8,0.1c0,0,0,0,0,0c-0.6,0.2-1.2,0.3-1.9,0.3
						c-0.3,0-0.6-0.1-0.9-0.2c-0.3-0.1-0.6,0-0.9,0c-0.4,0.2-0.8,0.5-1.1,0.9c-0.6,0.6-1.2,1.1-2,1.3c2.3,0,4.7-0.9,6.9-0.7
						c2.4,0.2,5,1.3,6.3,3.5c0,0,0,0,0,0c-1.3-1.7-3-2.5-4.9-2.8c0.2,0.2,0.5,0.4,0.7,0.6c0.5,0.4,1,0.8,1.5,1.1
						c0.4,0.3,0.9,0.7,1.4,0.8c0,0,0,0,0,0c-0.6,0-1.3-0.5-1.8-0.8c-0.5-0.3-0.9-0.6-1.3-1c-0.4-0.3-0.7-0.6-1.1-0.8
						c-1.9-0.2-4,0-5.8,0.2c-0.9,0.1-2,0.2-2.9,0c-0.2,0-0.4,0-0.5-0.1c0,0-0.1-0.1-0.1-0.1c-0.2-0.1-0.4-0.2-0.6-0.3
						C100.8,147.3,100.8,147.1,100.9,147.2z"/>
					<path class="st6" d="M99.6,145.8c1.1-0.3,1.3-1.4,1.8-2.2c0.3-0.7,0.9-1.2,1.5-1.6c1-0.8,2.6-0.8,3.7-0.3c0,0,0.1,0.1,0,0.1
						c-2.1-0.5-3.8,0.2-4.9,2c-0.2,0.3-0.3,0.5-0.5,0.8c0.4-0.3,0.8-0.3,1.5-0.2c1.8,0.1,3.6,0,4.9-1.5c0,0,0,0,0,0
						c-0.6,0.8-1.4,1.5-2.4,1.7c-0.7,0.1-1.4,0.2-2.1,0.1c-1-0.1-1.5-0.1-2.3,0.4C100.6,145.4,100.3,145.7,99.6,145.8
						C99.6,145.8,99.6,145.8,99.6,145.8z"/>
					<path class="st6" d="M101.3,157C101.3,157,101.3,157,101.3,157c0.1-0.7,0.7-1.3,1.2-1.7c0.3-0.3,0.7-0.5,1-0.8
						c0.2-0.1,0.3-0.3,0.3-0.5c-0.1-1.2-0.4-2.4-1.2-3.8c0,0,0,0,0,0c1,1.3,1.9,3,1.8,4.7c0,0.8-0.1,1.4-0.3,2.1
						c0.7,1.2,0.4,2.7,0,4c0,0,0,0,0,0c0.2-1.2,0.3-2.4-0.1-3.6c0,0.2-0.1,0.3-0.1,0.5c-0.8,2.7-1.1,4.5-0.2,7.3
						c0,0.1-0.1,0.1-0.1,0c-0.9-2-1-3.7-0.6-5.8c0.1-0.5,0.2-1,0.3-1.4c-0.2,0.2-0.3,0.4-0.5,0.7c-0.9,1.3-1.4,2.7-1.2,4.3
						c0,0,0,0,0,0c-0.2-1.3-0.1-2.4,0.5-3.5c0.4-0.8,0.9-1.4,1.3-2.1c0.2-1,0.3-1.9,0.3-2.8C103.2,155.4,101.7,155.8,101.3,157z"/>
					<path class="st6" d="M108.7,159.9c-0.6-1.1-1.2-2.2-1.6-3.4c0-0.1,0.1-0.1,0.1,0c1.9,3.7,5.5,7.6,3,11.9c0,0,0,0,0,0
						c1.5-3.2,0.1-5.5-1.3-7.9c0.1,0.8-0.1,1.6-0.3,2.4c-0.3,1.4-0.4,2.7-0.1,4.1c0,0,0,0,0,0c-0.2-0.9-0.3-1.9-0.2-2.8
						C108.3,162.7,108.8,161.3,108.7,159.9z"/>
				</g>
				<g>
					<path class="st6" d="M103.2,140.6c4.2,1.6,7.4,3,10.7,6.3c3.8,3.8,5.3,9.1,5.2,14.4c0,0.1-0.2,0-0.2-0.1
						c-1-5.2-2.9-10.8-6.7-14.5C109.6,144.1,106.4,142.4,103.2,140.6C103.2,140.7,103.2,140.6,103.2,140.6z"/>
					<path class="st6" d="M103.5,164c2.6,3.5,13,7.9,16.4,4.6c0,0,0.1,0,0,0.1C116.6,173.9,105.9,168,103.5,164
						C103.4,163.9,103.5,163.9,103.5,164z"/>
				</g>
			</g>
			<g>
				<g>
					<path class="st9" d="M119.1,163.1c-0.1-0.9-0.3-1.8-0.5-2.8c-1.5-3.4-4.7-6-8.1-8c-0.3-0.2-0.6-0.5-0.9-0.7
						c-0.8-0.9-1.6-1.7-2.5-2.5c0,0,0,0,0,0c1,0.2,2.1,0.2,3.1,0.3c0.6,0.1,1.2,0.1,1.8,0.2c0.2,0.5,0.8,0.9,1.2,1.3
						c0.7,0.6,1.5,1.1,2.2,1.6c0,0,0,0,0,0c-1.1-0.9-2.4-1.8-3.2-2.9c1.3,0.2,2.5,0.6,3.6,1.3c0,0,0,0,0.1,0.1
						c-0.3-0.3-0.7-0.7-1.1-1c-2.9-1.6-6.7-1.6-9.9-2.8c-2.1-1.7-4.2-3.4-5-6c-0.9-2.9-0.8-6.1-0.7-9.1v0c0,0,0-0.1,0-0.1
						c-0.1-0.2-0.2-0.4-0.2-0.7c0-0.1-0.1-0.1-0.2-0.2c-0.3-0.2-0.7-0.2-1.1-0.1c-0.2,0.1-0.5,0.2-0.6,0.4c0,0,0-0.1,0-0.1
						c-0.1,0.1-0.1,0.3-0.2,0.4c0,0.1,0,0.1,0,0.2c0,0,0,0,0,0.1c0,0.1,0,0.2,0,0.2c0,0.2-0.1,0.5,0,0.7c0.1,2.8,0.1,5.6-0.7,8.2
						c-0.8,2.6-2.9,4.3-5,6c-3.2,1.2-7,1.2-9.9,2.8c-0.4,0.3-0.8,0.6-1.1,1c0,0,0,0,0.1-0.1c1.1-0.7,2.3-1.1,3.6-1.3
						c-0.8,1.1-2.2,2-3.2,2.9v0c0.8-0.6,1.5-1,2.2-1.6c0.4-0.4,1-0.8,1.2-1.3c0.6-0.1,1.2-0.2,1.8-0.2c1-0.1,2.1-0.1,3.1-0.3
						c0,0,0,0,0,0c-0.9,0.8-1.7,1.6-2.5,2.5c-0.3,0.2-0.6,0.5-0.9,0.7c-3.4,2-6.6,4.6-8.1,8c-0.3,0.9-0.5,1.8-0.5,2.8
						c0.9-4.2,4.2-7.3,7.8-9.9c-0.1,0.1-0.2,0.2-0.3,0.3c-0.5,0.6-0.8,1.3-1,1.9c-0.5,0.8-1,1.7-1.4,2.6c-0.4,1.1-0.7,2.3-0.9,3.5
						c0.1-0.2,0.2-0.5,0.3-0.7c0.5-1.6,1.1-3.1,1.9-4.6c0,0.2,0,0.5,0,0.8c0,0.4,0,0.9-0.1,1.3c0,1.6-0.2,3.2-0.4,4.8
						c0.2-0.5,0.3-1.1,0.5-1.6c0.1-0.5,0.1-0.9,0.2-1.4c0-0.5,0-0.9,0-1.4c0-0.5,0.1-1,0.1-1.5c0-0.4,0.1-0.8,0.2-1.2
						c1-2.7,4.2-5,7-6.4c-0.2,0.2-0.5,0.3-0.7,0.5c-0.8,0.7-1.5,1.6-2,2.5c-2.1,3.2-2.4,7.2-0.9,10.8c0.2,0.3,0.4,0.6,0.6,0.8
						c-0.4-2.5-0.4-4.9,0.1-7.1c0,0.6,0.1,1.2,0.3,2c0.3,1.3,1,2.5,1.3,3.9c0-0.5-0.1-1.1-0.3-1.6c-0.1-0.3-0.2-0.7-0.3-1
						c-0.6-1.3-1.2-2.9-0.8-4.2c0.2-0.6,0.4-1.2,0.7-1.7c0.7-1.4,1.5-2.6,2.7-3.9c1.7-1.9,4.2-3.1,5.5-5.2c0-0.1,0.1-0.2,0.1-0.3
						c0.3-0.4,0.6-0.9,0.8-1.4c0.1,0.2,0.2,0.5,0.3,0.7c0.4,0.7,0.9,1.3,1.4,1.9c1.3,1.6,3.3,2.7,4.8,4.3c1.2,1.2,2,2.5,2.7,3.9
						c0.3,0.5,0.6,1.1,0.7,1.7c0.4,1.4-0.2,2.9-0.8,4.2c-0.1,0.3-0.2,0.7-0.3,1c-0.2,0.6-0.2,1.1-0.3,1.6c0.4-1.3,1.1-2.6,1.3-3.9
						c0.2-0.8,0.3-1.4,0.3-2c0.5,2.2,0.6,4.6,0.1,7.1c0.2-0.3,0.4-0.5,0.6-0.8c1.5-3.6,1.1-7.6-0.9-10.8c-0.5-0.9-1.2-1.8-2-2.5
						c-0.2-0.2-0.4-0.4-0.7-0.5c2.7,1.4,5.9,3.7,7,6.4c0.1,0.4,0.2,0.8,0.2,1.2c0,0.5,0.1,1,0.1,1.5c0,0.5,0,0.9,0,1.4
						c0,0.5,0.1,0.9,0.2,1.4c0.1,0.5,0.3,1.1,0.5,1.6c-0.2-1.6-0.3-3.1-0.4-4.8c0-0.4,0-0.9-0.1-1.3c0-0.3,0-0.5,0-0.8
						c0.8,1.4,1.4,2.9,1.9,4.6c0.1,0.2,0.2,0.5,0.3,0.7c-0.2-1.2-0.5-2.4-0.9-3.5c-0.4-0.9-0.9-1.7-1.4-2.6c-0.2-0.6-0.5-1.2-1-1.9
						c-0.1-0.1-0.2-0.2-0.3-0.3C115,155.8,118.2,158.9,119.1,163.1z"/>
					<path class="st10" d="M97.1,131.9c0.1-0.4,0.4-0.4,0.7-0.5c0.3,0,0.6,0.1,0.8,0.3c0.1,0.1,0.2,0.3,0.3,0.4c0,0.4,0,0.7-0.1,1.1
						c-0.1,0-0.2,0.1-0.3,0.1c-0.3,0.1-0.7,0-1,0c-0.2,0-0.4-0.1-0.5-0.2c0-0.3,0-0.7-0.1-1C97.1,132,97.1,131.9,97.1,131.9z"/>
					<path class="st10" d="M97.7,136.7c0.4,0.1,0.8,0,1.2-0.2c0,0.3,0,0.5,0,0.8c-0.3,0.2-0.5,0.3-1,0.3c-0.3,0-0.6-0.1-0.7-0.4
						c0-0.3,0-0.6,0-0.8C97.3,136.6,97.5,136.7,97.7,136.7z"/>
					<path class="st10" d="M97.2,135c0.2,0.2,0.5,0.2,0.8,0.3c0.1,0,0.5,0,0.8-0.1c0,0.4,0,0.7,0,1.1c0,0,0,0,0,0
						c-0.2,0.2-0.5,0.2-0.8,0.2c-0.4,0-0.7-0.1-0.8-0.4C97.2,135.7,97.2,135.4,97.2,135z"/>
					<path class="st10" d="M98.8,134.9c-0.3,0.2-0.8,0.2-1.2,0.1c-0.3-0.1-0.4-0.3-0.5-0.5c0-0.3,0-0.7,0-1c0.1,0.1,0.1,0.1,0.2,0.1
						c0.1,0.1,1.1,0.1,1.5,0C98.9,134,98.8,134.4,98.8,134.9z"/>
					<path class="st10" d="M97.2,137.6c0.1,0.2,0.3,0.3,0.6,0.3c0.4,0.1,0.8,0,1.2-0.3c0,0.3,0,0.6,0.1,0.8c-0.3,0.3-0.6,0.4-1,0.4
						c-0.3,0-0.7-0.1-0.9-0.4C97.1,138.1,97.1,137.9,97.2,137.6z"/>
					<path class="st10" d="M97,138.7c0.3,0.6,1.5,0.5,2,0c0,0.4,0.1,0.7,0.2,1c0,0,0,0,0,0c-0.3,0.8-2,0.8-2.3-0.1
						C96.9,139.4,97,139.1,97,138.7z"/>
					<path class="st10" d="M96.8,140c0.1,0.5,0.7,0.6,1.2,0.6c0.4,0,1-0.2,1.2-0.6c0.1,0.4,0.2,0.9,0.4,1.3c0,0,0,0-0.1,0
						c-0.3,0.3-1,0.4-1.4,0.4c-0.5,0-1.3,0-1.7-0.5C96.6,140.9,96.7,140.4,96.8,140z"/>
					<path class="st10" d="M96.4,141.4c0.3,0.6,1.2,0.6,1.8,0.6c0.3,0,1.2-0.2,1.4-0.5c0.1,0.2,0.2,0.5,0.3,0.7
						c-0.5,0.6-1.2,0.9-2,0.9c0,0,0,0,0,0c0,0,0,0,0,0c0,0,0,0,0,0c-0.6,0-1.4-0.4-1.8-1C96.2,141.9,96.3,141.7,96.4,141.4z"/>
					<path class="st10" d="M97.7,143.6c-0.2,0.4-0.3,0.7-0.5,1.1c-2.2,4-7.3,5.9-9,10.4c-0.8,2.2-1.3,4.7-1,7.1
						c-0.7-3.2-0.5-6.4,1.1-9.2c0.9-1.2,1.7-2.2,2.9-3.2c0.1-0.1,0.1-0.1,0.2-0.2c0,0,0-0.1,0.1-0.1c0.1-0.1,0.2-0.3,0.3-0.4
						c0,0,0,0,0,0c-1.6,0.6-3.2,1.9-4.5,2.8c-1.4,1-3,2.5-3.5,4.2c0,0,0,0.1,0,0.1c0.1-0.3,0.1-0.8,0.2-1.1c0.6-1.8,1.3-1.8,2.1-2.8
						c0.1-0.1,1.9-1.8,3.2-2.8c0.2-0.2,0.3-0.4,0.5-0.6c0,0,0.1,0,0.1-0.1c-0.2,0-0.3,0-0.5,0c-2.2,0.3-4.6,0.3-6.8,1.1
						c1-0.4,2.1-0.7,3.3-1c1.2-0.3,2.4-0.4,3.6-0.7c0,0,0.1,0,0.1,0c0.3-0.1,0.7-0.2,1-0.3c0,0,0,0-0.1,0.1c0.3-0.1,0.6-0.2,0.9-0.3
						c1.4-1.1,2.9-2.2,3.9-3.7c0.3-0.5,0.6-1,0.8-1.6c0.1,0.7,1,1.1,1.7,1.1C97.7,143.5,97.7,143.5,97.7,143.6
						C97.7,143.6,97.7,143.6,97.7,143.6z"/>
					<path class="st10" d="M112.2,155c0.1,0.3,0.1,0.8,0.2,1.1c0,0,0-0.1,0-0.1c-0.5-1.8-2.1-3.2-3.5-4.2c-1.3-0.9-2.9-2.2-4.5-2.8
						c0,0,0,0,0,0c0.1,0.1,0.2,0.3,0.3,0.4c0,0,0,0.1,0.1,0.1c0.1,0.1,0.2,0.1,0.2,0.2c1.1,1,2,2.1,2.9,3.2c1.6,2.8,1.8,6,1.1,9.2
						c0.2-2.4-0.2-4.9-1-7.1c-1.8-4.5-6.9-6.4-9-10.4c-0.3-0.4-0.5-0.8-0.7-1.2c0.7,0,1.6-0.4,1.9-1c0.2,0.5,0.5,1,0.7,1.4
						c1,1.5,2.5,2.6,3.9,3.7c0.3,0.1,0.6,0.2,0.9,0.3c0,0,0,0-0.1-0.1c0.3,0.1,0.7,0.2,1,0.3c0,0,0.1,0,0.1,0
						c1.2,0.3,2.4,0.4,3.6,0.7c1.2,0.3,2.3,0.6,3.3,1c-2.1-0.7-4.5-0.8-6.8-1.1c-0.2,0-0.3,0-0.5,0c0,0,0.1,0,0.1,0.1
						c0.2,0.2,0.3,0.4,0.5,0.6c1.3,1,3.1,2.8,3.2,2.8C110.9,153.3,111.6,153.3,112.2,155z"/>
				</g>
				<path class="st10" d="M106,151.4c-2.4-2.6-5.2-4.4-7-7.5c0,0,0,0,0,0c1.2,2.4,2.9,4.3,5,6c2.8,2.3,4.2,5.1,5,8.6
					c0,0.1,0.1,0,0.1,0C108.7,155.8,107.8,153.4,106,151.4z"/>
				<path class="st10" d="M96.7,141.8c-1.3,2.9-3.3,4.8-6.1,6.2c0,0,0,0.1,0,0C93.7,146.9,95.7,144.9,96.7,141.8
					C96.8,141.8,96.8,141.8,96.7,141.8z"/>
				<path class="st10" d="M88.5,150.4c-0.7,0.5-1.3,0.8-2,1.4c-0.6,0.5-1.1,1.1-1.6,1.7c0,0,0,0.1,0,0c0.6-0.5,1.1-1.2,1.7-1.6
					c0.3-0.2,0.5-0.5,0.8-0.7C87.8,150.9,88.2,150.7,88.5,150.4C88.5,150.4,88.5,150.4,88.5,150.4z"/>
				<path class="st10" d="M88.7,152.5c-1.4,2.3-2,4.6-1.7,7.3c0,0,0.1,0,0.1,0C87,157.2,87.5,154.8,88.7,152.5
					C88.8,152.5,88.7,152.5,88.7,152.5z"/>
				<path class="st10" d="M97.5,132.8C97.5,132.7,97.5,132.8,97.5,132.8c-0.2,2.7-0.2,5.3-0.4,8c0,0.1,0.1,0,0.1,0
					C97.7,138,97.7,135.5,97.5,132.8z"/>
				<path class="st10" d="M107.3,150.4C107.3,150.4,107.2,150.4,107.3,150.4c1.3,1.2,2.6,2.3,3.8,3.6c0,0,0.1,0,0.1-0.1
					C110.2,152.4,108.8,151.4,107.3,150.4z"/>
				<path class="st10" d="M99.2,142c1.3,3,3.4,5.2,6.5,5.6c-0.3-0.1-0.6-0.2-1-0.3c-2.1-1.7-4.2-3.4-5-6c-0.9-2.9-0.8-6.1-0.7-9.1
					l0,0c0,0,0-0.1,0-0.1c-0.1-0.2-0.2-0.4-0.2-0.7c0-0.1-0.1-0.1-0.2-0.2c-0.1-0.1-0.3-0.1-0.4-0.2C98.1,134.7,97.7,138.6,99.2,142
					z"/>
				<path class="st10" d="M98,142.2c-1.5,3.5-5,5.3-7.3,8.3c-2.6,3.4-4,7.6-3.1,11.6c-0.1-1.7,0-3.3,0.4-4.8c0,0.6,0.1,1.2,0.2,2
					c0.3,1.3,1,2.5,1.3,3.9c0-0.5-0.1-1.1-0.3-1.6c-0.1-0.3-0.2-0.7-0.3-1c-0.6-1.3-1.2-2.9-0.8-4.2c0.2-0.6,0.4-1.2,0.8-1.7
					c0.7-1.4,1.5-2.6,2.7-3.9c1.7-1.9,4.2-3.1,5.5-5.2c0-0.1,0.1-0.2,0.1-0.3c0.3-0.4,0.5-0.8,0.7-1.3C97.9,143.3,98,142.7,98,142.2
					z"/>
			</g>
		</g>
		<g>
			<g>
				<path class="st11" d="M46,62.4c0,0-6.1-2.6-16.1,10.2c-10.1,12.8-6.1,38.5-4.5,45.2c0,0,2.1,9.9-1,13.7l1.8,1.4
					c0,0,3-4.1,2.6-9.3c0,0,1.9,10.4,8.2,13.7l4.2-1.4c0,0-4.8-6.4-5-14.5c0,0,3.2,9.4,8.3,13.9l7.4-3c0,0-3.2-3.6-5-9.7
					c0,0,3.5,6.8,7.3,8.5l7.2-4.1c0,0-5.5-5.4-7.2-11.9c0,0,2.7,7,7.2,9.7l1.1-0.8c0,0-7.4-7.7-4.7-27.1C60.4,77.6,46,62.4,46,62.4z
					"/>
				<g>
					<path class="st11" d="M27.3,115.5c-0.1-1-0.3-2.1-0.5-3.2C26.8,112.3,27,113.5,27.3,115.5z"/>
					<path class="st12" d="M61.3,124.9l1.1-0.8c0,0-7.4-7.7-4.7-27.1S46,62.4,46,62.4s-2.8-1.2-7.8,2.1c-6.5,29.2,8.7,52.4,8.7,52.4
						c-6.2-7.3-9.2-20.6-9.2-20.6c-0.5,12,9,33.5,9,33.5l-3.2,1.7C34.3,121.2,32,97.6,32,97.6c-6.2,15.9,4.4,37.6,4.4,37.6
						c-5.7-4.6-8.1-14.6-9.1-19.7c1.2,9.4-0.8,14.5-2.1,16.7l1,0.8c0,0,3-4.1,2.6-9.3c0,0,1.9,10.4,8.2,13.7l4.2-1.4
						c0,0-4.8-6.4-5-14.5c0,0,3.2,9.4,8.3,13.9l7.4-3c0,0-3.2-3.6-5-9.7c0,0,3.5,6.8,7.3,8.5l7.2-4.1c0,0-5.5-5.4-7.2-11.9
						C54.1,115.2,56.8,122.3,61.3,124.9z"/>
				</g>
				<g>
					<path class="st11" d="M45,104c0,0,4.1,8.1,13.4,11.9c-1.2-4.3-1.9-10.5-0.7-19C60.4,77.6,46,62.4,46,62.4s-2.1-0.8-5.8,0.9
						C39.8,64.7,33.6,84.1,45,104z"/>
				</g>
			</g>
			<g>
				<path class="st11" d="M154.4,62.4c0,0,6.1-2.6,16.1,10.2c10.1,12.8,6.1,38.5,4.5,45.2c0,0-2.1,9.9,1,13.7l-1.8,1.4
					c0,0-3-4.1-2.6-9.3c0,0-1.9,10.4-8.2,13.7l-4.2-1.4c0,0,4.8-6.4,5-14.5c0,0-3.2,9.4-8.3,13.9l-7.4-3c0,0,3.2-3.6,5-9.7
					c0,0-3.5,6.8-7.3,8.5l-7.2-4.1c0,0,5.5-5.4,7.2-11.9c0,0-2.7,7-7.2,9.7l-1.1-0.8c0,0,7.4-7.7,4.7-27.1
					C139.9,77.6,154.4,62.4,154.4,62.4z"/>
				<g>
					<path class="st11" d="M173,115.5c0.1-1,0.3-2.1,0.5-3.2C173.5,112.3,173.4,113.5,173,115.5z"/>
					<path class="st12" d="M139.1,124.9l-1.1-0.8c0,0,7.4-7.7,4.7-27.1s11.7-34.6,11.7-34.6s2.8-1.2,7.8,2.1
						c6.5,29.2-8.7,52.4-8.7,52.4c6.2-7.3,9.2-20.6,9.2-20.6c0.5,12-9,33.5-9,33.5l3.2,1.7c9.3-10.4,11.6-33.9,11.6-33.9
						c6.2,15.9-4.4,37.6-4.4,37.6c5.7-4.6,8.1-14.6,9.1-19.7c-1.2,9.4,0.8,14.5,2.1,16.7l-1,0.8c0,0-3-4.1-2.6-9.3
						c0,0-1.9,10.4-8.2,13.7l-4.2-1.4c0,0,4.8-6.4,5-14.5c0,0-3.2,9.4-8.3,13.9l-7.4-3c0,0,3.2-3.6,5-9.7c0,0-3.5,6.8-7.3,8.5
						l-7.2-4.1c0,0,5.5-5.4,7.2-11.9C146.3,115.2,143.6,122.3,139.1,124.9z"/>
				</g>
				<g>
					<path class="st11" d="M155.3,104c0,0-4.1,8.1-13.4,11.9c1.2-4.3,1.9-10.5,0.7-19c-2.8-19.4,11.7-34.6,11.7-34.6
						s2.1-0.8,5.8,0.9C160.6,64.7,166.7,84.1,155.3,104z"/>
				</g>
			</g>
			<path class="st13" d="M143.1,39.4c0,0-20-27.1-69-10.5C25,45.5,39.7,107.8,61,115.2l75.5-1.3c0,0,20-6.8,23.1-33
				C162.6,54.7,143.1,39.4,143.1,39.4z"/>
			<path class="st13" d="M143.1,39.4c0,0-20-27.1-69-10.5C25,45.5,39.7,107.8,61,115.2l75.5-1.3c0,0,20-6.8,23.1-33
				C162.6,54.7,143.1,39.4,143.1,39.4z"/>
			<g class="st8">
				<path class="st14" d="M149.3,82.4c-4.5-1.3-4.9-7.3-4.9-7.3l2.5,1.1c1.9-28.4-15.7-29-15.7-29c11,6.1,10.8,20.2,10.8,20.2
					c-7.6-3.3-17.9-3.8-17.9-3.8c-1.6-13.4-10-17.5-10-17.5c4.7,7.3,3.3,17.3,3.3,17.3c-8.1-1.7-15.4-1.6-15.4-1.6
					c-1.6-13.2,1.3-20.7,1.3-20.7c-8,7.3-8.2,20.3-8.2,20.3c-3.7-0.8-13.5,0.7-13.5,0.7c-0.4-11.2,3.7-18.7,3.7-18.7
					c-13.5,5-14.9,21.1-14.9,21.1c-9.2,2.3-15,5.6-15,5.6c-1.2-11.8,4.5-19.7,4.5-19.7C48,57,49,78.9,49,78.9l4.7-2.1
					c0,0,0.9,5.6-5.3,8.5c-3.6,1.7-9.7-8.8-4.9-26.1c-7.2,23.5,3.8,51.3,17.6,56.1l75.5-1.3c0,0,20-6.8,23.1-33
					c1.3-11.3-1.5-20.5-5.2-27.4C161.6,72.8,153.8,83.7,149.3,82.4z"/>
			</g>
			<g>
				<g>
					<path class="st15" d="M61,95.5c0,0-0.7-3.7-6.6-2c-5.9,1.7-6.1,17,6.6,15.7V95.5z"/>
					<path class="st2" d="M57.4,97.8c-1-0.4-2.2,0.2-2.7,1c-0.8,1.1-0.6,2.5-0.5,3.8c0,0,0.1,0,0.1,0c0.1-1,0.1-2,0.6-2.9
						c0.9-1.7,2.5-1,3.5,0c0.1,0.1,0.3,0.3,0.4,0.5c0,0.9-0.1,1.7-0.6,2.4c-0.4,0.7-1.5,1.9-2.4,2c0,0-0.1,0.1,0,0.1
						c1.1,0.2,2.3-1,2.9-1.7c0.3-0.4,0.7-1.1,0.8-1.8c0.8,1.3,1.3,2.8,1.6,4.2c0,0.2,0.3,0,0.3-0.1C61.3,102.5,60.2,98.9,57.4,97.8z
						"/>
				</g>
				<path class="st0" d="M57.1,93.1c1.1,3.1,2.2,8.8-0.1,15.9c1.2,0.3,2.5,0.4,4.1,0.2V95.5C61,95.5,60.5,93,57.1,93.1z"/>
			</g>
			<g>
				<g>
					<path class="st15" d="M136.2,95.5c0,0,0.7-3.7,6.6-2c5.9,1.7,6.1,17-6.6,15.7V95.5z"/>
					<path class="st2" d="M139.8,97.8c1-0.4,2.2,0.2,2.7,1c0.8,1.1,0.6,2.5,0.5,3.8c0,0-0.1,0-0.1,0c-0.1-1-0.1-2-0.6-2.9
						c-0.9-1.7-2.5-1-3.5,0c-0.1,0.1-0.3,0.3-0.4,0.5c0,0.9,0.1,1.7,0.6,2.4c0.4,0.7,1.5,1.9,2.4,2c0,0,0.1,0.1,0,0.1
						c-1.1,0.2-2.3-1-2.9-1.7c-0.3-0.4-0.7-1.1-0.8-1.8c-0.8,1.3-1.3,2.8-1.6,4.2c0,0.2-0.3,0-0.3-0.1
						C135.9,102.5,137,98.9,139.8,97.8z"/>
				</g>
				<path class="st0" d="M140.1,93.1c-3.4,0-3.9,2.5-3.9,2.5v13.7c1.3,0.1,2.4,0.1,3.4-0.1C138.2,101.9,139.3,96,140.1,93.1z"/>
			</g>
			<path class="st0" d="M140.7,70.8c-3.1-1.3-9.2-3-17.5-3.9c-0.5-6.9-2.4-10-2.4-10c0.6,4.8-0.7,9.7-0.7,9.7l0,0
				c-7.1-0.7-14.7-1.2-20.3-1.4c-0.6-5.6-0.4-10.3-0.4-10.3c-1.8,4-1.7,10.2-1.7,10.2c-4-0.2-15,0.9-18.8,1.7
				C78.6,57.6,81,51.8,81,51.8c-3.5,4.4-5.6,15.8-5.6,15.8l0,0c-11,2.8-18.5,6.3-18.5,6.3s-0.9,8.6,1.9,18.6c0,0,2,6.7,0.8,12.3
				c-1.2,5.6-0.4,11.9,9.8,18.6s23.2,9.4,27.3,9.6c0,0,1.8,0.2,3.5,0c4.1-0.4,17.1-2.9,27.3-9.6c10.2-6.7,11-12.9,9.8-18.6
				c-1.2-5.6,0.8-12.3,0.8-12.3C140.9,82.5,140.7,70.8,140.7,70.8z"/>
			<g>
				<path class="st16" d="M129.6,102.4c0.2,1.1-1.8,2.3-4.5,2.6s-4.9-0.2-5-1.3s1.8-2.3,4.5-2.6
					C127.2,100.7,129.5,101.3,129.6,102.4z"/>
				<path class="st16" d="M67.8,102.4c-0.2,1.1,1.8,2.3,4.5,2.6s4.9-0.2,5-1.3s-1.8-2.3-4.5-2.6C70.2,100.7,67.9,101.3,67.8,102.4z"
					/>
			</g>
			<g>
				<path class="st11" d="M74.2,84.3c0,0,2.4-5.2,6-4.3c3.6,0.9,5.1,6.9,5.1,6.9S81,77.6,74.2,84.3z"/>
				<path class="st11" d="M122,83.6c0,0-2.7-5.1-6.3-3.9c-3.6,1.1-4.6,7.2-4.6,7.2S114.8,77.4,122,83.6z"/>
				<g>
					<path class="st17" d="M82.7,94.8c-0.2,2.7-1.4,4.8-2.6,4.7s-1.9-2.4-1.7-5c0.2-2.7,1.4-4.8,2.6-4.7S82.9,92.2,82.7,94.8z"/>
					<path class="st18" d="M80.4,92.6c-0.1,0.8-0.5,1.4-0.9,1.3c-0.3-0.1-0.5-0.8-0.4-1.6c0.1-0.8,0.5-1.4,0.9-1.3
						C80.4,91.1,80.6,91.8,80.4,92.6z"/>
				</g>
				<g>
					<path class="st17" d="M119,94c0.1,2.7-0.8,4.9-2,4.9s-2.2-2.1-2.3-4.8c-0.1-2.7,0.8-4.9,2-4.9C118,89.2,119,91.3,119,94z"/>
					<path class="st18" d="M116.5,92c0,0.8-0.4,1.5-0.7,1.4c-0.4,0-0.6-0.7-0.6-1.5c0-0.8,0.4-1.5,0.7-1.4
						C116.3,90.5,116.6,91.2,116.5,92z"/>
				</g>
			</g>
			<path class="st2" d="M95.3,107.5c1,0.4,2.2,0.4,3.3,0.2c-2.1,0-4.4-0.7-4.9-3.1c-0.3-1.7,1.6-2.1,2.8-2.2
				c1.2-0.1,2.5,0.4,3.5,1.1c0,0,0,0,0,0c-0.9-0.9-2.5-1.5-3.9-1.5c0.2-0.4,0.3-0.9,0.3-1.2c0.2-1.2-0.4-2.1-0.9-3.2h0
				c0.4,1.4,1,3.1,0.2,4.4c-1,0.1-1.9,0.6-2.4,1.5c-0.5,1-0.1,2.1,0.6,3C94.3,107,94.8,107.3,95.3,107.5z"/>
			<g>
				<path class="st19" d="M61,48.9c0,0-10.2,6.9-10.4,27.8l6.2-2.9l-5.3,1.7C51.5,75.5,50.9,60.2,61,48.9z"/>
				<path class="st19" d="M140.7,70.8l4.1,1.6c0,0,0.8-16.6-8.5-22.1c0,0,8,4.7,7.9,21.3L140.7,70.8z"/>
			</g>
			<g>
				<path class="st2" d="M113.8,109.9c0,0.6,0.1,1.1,0.3,1.7c-4.5,2.5-9.5,3.9-14.6,4.6c-3,0.4-6,0.5-9,0.3c-2.6-0.2-6-0.4-7.9-2.4
					c-0.1-0.1-0.2-0.1-0.3-0.2c0.4,0.5,0.8,1,1.4,1.4c0.3,0.3,0.6,0.6,0.9,1c0.2,0.2,0.5,0.5,0.8,0.7c1,1.3,1.6,3,2.4,4.3
					c0.9,1.5,1.9,2.9,3.2,4.1c2.7,2.6,6.7,2.5,10,1.8c7.7-1.7,9.6-9.5,13.4-15.2c0.4,0.6,1,0.9,1.6,1.1
					C115,112.4,114.2,111.1,113.8,109.9z"/>
				<path class="st20" d="M110.2,119.2c-2.1,4.1-5.7,6.9-10.1,7.9c-4,0.9-7.6-0.3-10.2-3.3c-1.6-1.8-2.5-4.6-4.1-6.6
					c-0.2-0.4-0.5-0.7-0.9-1c-0.1-0.1-0.2-0.2-0.3-0.3c3.6,1.8,9.3,1.5,12.4,1.2c5.4-0.6,12.4-1.9,17.1-5.2
					C112.6,114.2,111.5,116.7,110.2,119.2z"/>
				<path class="st21" d="M91.4,125.2c2.5,1.9,5.5,2.6,8.7,1.9c2.6-0.6,4.9-1.8,6.8-3.6C102.1,120.7,94.9,120.9,91.4,125.2z"/>
				<path class="st18" d="M108.7,119.1c0.9-0.8,1.7-1.8,2.3-2.8c0.6-1.1,1.1-2.2,1.3-3.3c-4.5,2.5-10.5,3.6-15.3,4.1
					c-2.5,0.3-6.5,0.5-9.8-0.3c2,4.8,6.7,6.1,11.9,5.7C102.8,122.2,106,121.1,108.7,119.1z"/>
				<g>
					<path class="st20" d="M99,123.6C99,123.6,99,123.6,99,123.6c-0.2-1.3-2.5-0.4-3-0.2c-1.7,0.6-0.4,1.6,0.8,1.6
						C97.3,125,99,124.5,99,123.6z"/>
					<path class="st20" d="M94.3,124.6C94.3,124.6,94.3,124.5,94.3,124.6c-0.2-0.5-1.1,0-1.3,0.1c-0.7,0.4-0.1,0.7,0.4,0.6
						C93.7,125.2,94.3,124.9,94.3,124.6z"/>
				</g>
			</g>
		</g>
	</g>
</g>
</svg>
