<svg id="Capa_1" enable-background="new 0 0 512 512" height="512" viewBox="0 0 512 512" width="512" xmlns="http://www.w3.org/2000/svg"><g><path d="m165.49 198.109c-1.317-2.398-3.837-3.888-6.573-3.888h-34.305l-15 15h44.868l39.123 71.204 14.383-4.974z" fill="#b3dafe"/><g><path d="m306.302 261.2v-13.153c0-6.227 5.048-11.275 11.275-11.275h36.91c22.997 0 41.64-18.643 41.64-41.64v-19.711c0-5.347 4.334-9.681 9.681-9.681h5.817c5.347 0 9.681-4.334 9.681-9.681 0-2.472-.946-4.85-2.643-6.647l-19.458-20.603c-1.977-2.093-3.078-4.863-3.078-7.742v-11.321c0-37.856-19.086-73.502-51.289-93.401-17.64-10.9-38.592-16.952-60.999-16.297-59.331 1.736-106.135 49.59-106.63 108.944-.293 35.164 15.929 66.548 41.373 86.871 2.706 2.161 4.33 5.397 4.33 8.861v56.476c0 4.807-3.047 9.085-7.59 10.656l-91.74 31.726c-32.999 11.412-55.136 42.49-55.136 77.407v118.336c0 7.001 5.675 12.676 12.676 12.676h366.969c7.001 0 12.676-5.675 12.676-12.676v-118.337c0-34.917-22.136-65.995-55.136-77.407l-91.74-31.726c-4.542-1.57-7.589-5.848-7.589-10.655z" fill="#ffbd86"/></g><g><path d="m405.173 366.405h-55.538c-4.143 0-7.5-3.358-7.5-7.5s3.357-7.5 7.5-7.5h51.56l63.787-94.161c2.322-3.429 6.986-4.325 10.415-2.003 3.43 2.323 4.326 6.986 2.003 10.416l-66.018 97.455c-1.395 2.059-3.721 3.293-6.209 3.293z" fill="#b3dafe"/></g><path d="m112.299 392.988c0-34.917 22.136-65.995 55.136-77.407l91.74-31.726c4.542-1.571 7.59-5.849 7.59-10.656v-56.476c0-3.463-1.624-6.699-4.33-8.861-25.444-20.324-44.728-51.707-44.435-86.871.46-55.092 30.879-103.121 96-109.991 7-1 12-1 18.147-1.375-14.678-6.598-31.058-10.082-48.308-9.577-59.331 1.736-106.135 49.589-106.63 108.944-.293 35.164 15.929 66.548 41.373 86.871 2.706 2.161 4.33 5.397 4.33 8.861v56.476c0 4.807-3.047 9.085-7.59 10.656l-91.74 31.726c-32.999 11.412-55.136 42.49-55.136 77.407v118.336c0 7.001 5.675 12.676 12.676 12.676h31.177z" fill="#f6a96c"/><g><g><path d="m226.772 348.976v110.513c0 11.853-9.609 21.462-21.462 21.462h-60.837c-12.404 0-22.223-10.474-21.421-22.852 1.94-29.925 13.817-83.583 69.176-126.148 14.11-10.849 34.544-.774 34.544 17.025z" fill="#fe653b"/></g><g><path d="m148.907 458.099c1.941-29.925 13.817-83.583 69.176-126.148.051-.039.103-.071.154-.11-7.23-5.408-17.711-6.27-26.009.11-55.359 42.565-67.236 96.223-69.176 126.148-.803 12.378 9.017 22.852 21.421 22.852h25.855c-12.404 0-22.223-10.474-21.421-22.852z" fill="#ef4424"/></g><g><path d="m302.441 348.976v110.513c0 11.853 9.609 21.462 21.462 21.462h60.837c12.404 0 22.223-10.474 21.421-22.852-1.94-29.925-13.817-83.583-69.176-126.148-14.11-10.849-34.544-.774-34.544 17.025z" fill="#fe653b"/></g><g fill="#ef4424"><path d="m328.395 382.008v-33.032c0-7.308 3.448-13.309 8.485-17.099-14.106-10.721-34.439-.656-34.439 17.099v14.176z"/><path d="m328.395 459.489v-44.535l-25.954-18.857v63.391c0 11.853 9.609 21.462 21.462 21.462h25.954c-11.853.001-21.462-9.608-21.462-21.461z"/></g><g fill="#fff3de"><path d="m271.956 320.794c2.18 0 4.219.601 5.977 1.631v-28.587c-1.758 1.03-3.797 1.631-5.977 1.631h-14.698c-2.181 0-4.22-.601-5.978-1.631v28.587c1.758-1.03 3.797-1.631 5.978-1.631z"/><path d="m257.258 271.714h14.698c2.18 0 4.219.601 5.977 1.631v-28.58c0-.002 0-.005 0-.007-1.758 1.03-3.796 1.63-5.977 1.63h-14.698c-2.181 0-4.22-.601-5.978-1.631v28.587c1.758-1.029 3.797-1.63 5.978-1.63z"/><path d="m344.981 394.058-67.048-48.713v-2.428c-1.758 1.03-3.797 1.631-5.977 1.631h-14.698c-2.181 0-4.22-.601-5.978-1.631v2.428l-67.372 48.949c-5.954 4.326-7.275 12.66-2.947 18.615 4.325 5.954 12.659 7.276 18.615 2.949l62.004-45.049c1.805-1.312 4.25-1.312 6.055 0l62.004 45.049c2.365 1.718 5.107 2.546 7.822 2.546 4.348 0 8.634-2.122 11.211-6.105 3.88-5.998 2.088-14.041-3.691-18.241z"/></g><g fill="#ffe5c2"><path d="m257.257 296.469c-2.159 0-4.19-.538-5.978-1.477v26.28c1.787-.939 3.819-1.477 5.978-1.477h4.287v-23.325h-4.287z"/><path d="m257.257 345.549c-2.159 0-4.19-.538-5.978-1.477v1.274l-67.372 48.949c-5.954 4.326-7.275 12.66-2.947 18.615 3.292 4.532 8.905 6.371 14.026 5.087-1.94-1.202-3.62-2.922-4.794-5.154-3.108-5.91-1.129-13.24 4.273-17.165l62.957-45.741c1.548-1.125 2.708-2.657 3.399-4.388z"/><path d="m257.257 270.714h4.287v-23.325h-4.287c-2.159 0-4.19-.538-5.978-1.477v26.28c1.788-.94 3.819-1.478 5.978-1.478z"/></g></g><g><path d="m260.075 164.221h-5.051c-17.502 0-31.741-14.239-31.741-31.741s14.239-31.741 31.741-31.741h5.051c4.143 0 7.5 3.358 7.5 7.5s-3.357 7.5-7.5 7.5h-5.051c-9.231 0-16.741 7.51-16.741 16.741s7.51 16.741 16.741 16.741h5.051c4.143 0 7.5 3.358 7.5 7.5s-3.357 7.5-7.5 7.5z" fill="#fe8a56"/></g><path d="m358.166 198.045h37.848c.067-.964.113-1.933.113-2.913v-12.087h-37.96c-4.143 0-7.5 3.358-7.5 7.5s3.356 7.5 7.499 7.5z" fill="#fe8a56"/><g><path d="m351.401 120.249c-4.143 0-7.5-3.358-7.5-7.5v-11.275c0-4.142 3.357-7.5 7.5-7.5s7.5 3.358 7.5 7.5v11.275c0 4.142-3.357 7.5-7.5 7.5z" fill="#fe8a56"/></g><g><g fill="#463b84"><path d="m447.941 76.823h48.538v15h-48.538z"/><path d="m447.941 120.408c0 1.043.067 2.08.194 3.105h48.151c.126-1.026.194-2.062.194-3.105v-11.895h-48.538v11.895z"/><path d="m496.479 198.801c0-1.377-.121-2.742-.339-4.085h-47.859c-.219 1.344-.339 2.708-.339 4.085v10.915h48.538v-10.915z"/><path d="m447.941 226.407h48.538v15h-48.538z"/></g><g><path d="m502.979 257.508c-4.143 0-7.5-3.358-7.5-7.5v-51.207c0-7.745-3.699-15.144-9.896-19.792l-35.745-26.809c-9.954-7.466-15.896-19.351-15.896-31.792v-51.642c0-4.142 3.357-7.5 7.5-7.5s7.5 3.358 7.5 7.5v51.643c0 7.745 3.699 15.144 9.896 19.792l35.746 26.809c9.953 7.466 15.896 19.351 15.896 31.792v51.207c-.001 4.141-3.358 7.499-7.501 7.499z" fill="#fe653b"/></g><g><path d="m441.441 257.508c-4.143 0-7.5-3.358-7.5-7.5v-51.207c0-12.441 5.942-24.326 15.896-31.792l35.746-26.809c6.196-4.648 9.896-12.047 9.896-19.792v-51.642c0-4.142 3.357-7.5 7.5-7.5s7.5 3.358 7.5 7.5v51.643c0 12.441-5.942 24.326-15.896 31.792l-35.746 26.81c-6.197 4.648-9.896 12.047-9.896 19.792v51.207c0 4.14-3.357 7.498-7.5 7.498z" fill="#6e61b6"/></g></g><g><g><path d="m271.956 247.388h-14.698c-7.112 0-12.877-5.765-12.877-12.877s5.766-12.877 12.877-12.877h14.698c7.112 0 12.877 5.765 12.877 12.877s-5.766 12.877-12.877 12.877z" fill="#ffe5c2"/></g></g><path d="m261 234.511c0-6.788 5.255-12.336 11.917-12.829-.318-.024-.636-.049-.961-.049h-14.698c-7.112 0-12.877 5.765-12.877 12.877s5.766 12.877 12.877 12.877h14.698c.324 0 .643-.025.961-.049-6.662-.491-11.917-6.039-11.917-12.827z" fill="#fed2a4"/><g><g><path d="m271.956 296.468h-14.698c-7.112 0-12.877-5.765-12.877-12.877s5.766-12.877 12.877-12.877h14.698c7.112 0 12.877 5.765 12.877 12.877s-5.766 12.877-12.877 12.877z" fill="#ffe5c2"/></g></g><path d="m261 283.591c0-6.788 5.255-12.336 11.917-12.829-.318-.024-.636-.049-.961-.049h-14.698c-7.112 0-12.877 5.765-12.877 12.877s5.766 12.877 12.877 12.877h14.698c.324 0 .643-.025.961-.049-6.662-.491-11.917-6.039-11.917-12.827z" fill="#fed2a4"/><g><g><path d="m271.956 345.549h-14.698c-7.112 0-12.877-5.765-12.877-12.877s5.766-12.877 12.877-12.877h14.698c7.112 0 12.877 5.765 12.877 12.877s-5.766 12.877-12.877 12.877z" fill="#ffe5c2"/></g></g><path d="m261 332.671c0-6.788 5.255-12.336 11.917-12.829-.318-.024-.636-.049-.961-.049h-14.698c-7.112 0-12.877 5.765-12.877 12.877s5.766 12.877 12.877 12.877h14.698c.324 0 .643-.025.961-.049-6.662-.491-11.917-6.039-11.917-12.827z" fill="#fed2a4"/><g><path d="m285.523 36.761c-26.231 0-47.773 15.424-50.105 35.113-.224 1.892 1.28 3.55 3.185 3.55h93.84c1.905 0 3.409-1.658 3.185-3.55-2.332-19.689-23.875-35.113-50.105-35.113z" fill="#fe653b"/></g><g><path d="m270.118 71.874c1.79-15.111 14.9-27.7 32.755-32.742-5.41-1.528-11.251-2.371-17.35-2.371-26.231 0-47.773 15.424-50.105 35.113-.224 1.892 1.28 3.55 3.185 3.55h34.7c-1.905 0-3.409-1.658-3.185-3.55z" fill="#ef4424"/></g><g><g><path d="m144.03 129.633c-12.864-12.864-33.721-12.864-46.585 0l-15.836 15.836-15.836-15.836c-12.864-12.864-33.721-12.864-46.585 0-12.864 12.864-12.864 33.721 0 46.585l60.22 60.22c1.216 1.216 3.187 1.216 4.402 0l60.22-60.22c12.863-12.865 12.863-33.721 0-46.585z" fill="#fe653b"/></g><g><g><path d="m53.518 176.218c-12.864-12.864-12.864-33.721 0-46.585 1.886-1.886 3.948-3.488 6.127-4.821-12.685-7.759-29.48-6.157-40.458 4.821-12.864 12.864-12.864 33.721 0 46.585l60.22 60.22c1.216 1.216 3.187 1.216 4.402 0l14.964-14.964z" fill="#ef4424"/></g></g><g><path d="m84.071 205.569c-3.141 0-5.956-1.959-7.041-4.918l-7.655-20.876-4.134 10.827c-1.135 2.973-4.045 4.903-7.205 4.822-3.182-.084-5.963-2.167-6.939-5.196l-2.903-9.002h-39.173c-4.143 0-7.5-3.358-7.5-7.5s3.357-7.5 7.5-7.5h44.635c1.585 0 3.082.498 4.316 1.366l4.539-11.889c1.11-2.906 3.898-4.824 7.007-4.824h.05c3.128.021 5.915 1.981 6.991 4.918l7.059 19.247 1.331-4.127c.999-3.098 3.883-5.198 7.138-5.198h12.919c4.143 0 7.5 3.358 7.5 7.5s-3.357 7.5-7.5 7.5h-7.457l-6.338 19.653c-.982 3.046-3.789 5.133-6.989 5.197-.051-.001-.101 0-.151 0z" fill="#f6a96c"/></g></g><g><path d="m139.007 243.141h-19.91c-4.143 0-7.5-3.358-7.5-7.5s3.357-7.5 7.5-7.5h19.91c4.143 0 7.5 3.358 7.5 7.5s-3.358 7.5-7.5 7.5z" fill="#b3dafe"/></g><g><path d="m40.504 243.141h-19.909c-4.143 0-7.5-3.358-7.5-7.5s3.357-7.5 7.5-7.5h19.909c4.143 0 7.5 3.358 7.5 7.5s-3.358 7.5-7.5 7.5z" fill="#b3dafe"/></g><g><path d="m139.007 268.097h-118.412c-4.143 0-7.5-3.358-7.5-7.5s3.357-7.5 7.5-7.5h118.412c4.143 0 7.5 3.358 7.5 7.5s-3.358 7.5-7.5 7.5z" fill="#b3dafe"/></g><g><path d="m99.187 293.052h-78.592c-4.143 0-7.5-3.358-7.5-7.5s3.357-7.5 7.5-7.5h78.592c4.143 0 7.5 3.358 7.5 7.5s-3.358 7.5-7.5 7.5z" fill="#b3dafe"/></g></g></svg>