<svg version="1.1" id="Layer_1" xmlns="http://www.w3.org/2000/svg" xmlns:xlink="http://www.w3.org/1999/xlink" x="0px" y="0px" viewBox="90 135 70 70" xml:space="preserve">
	<g transform="translate(33,-10)">
		<style type="text/css">
			.st12 {
				fill: #FFFFFF;
			}

			.st15 {
				fill: #D1D1D1;
			}

			.st16 {
				fill: #F6F6F6;
			}

			.st17 {
				fill: #E8E8E8;
			}
		</style>
		<g>
			<path class="st15"
				d="M94.6,192.5c-0.6-0.1-1.1,0.4-1.5,0.8c0-0.1-0.1-0.2-0.1-0.3c0.1-0.1,0.2-0.2,0.3-0.4          c0.2-0.3,0.2-0.7,0.2-1.1c0.1-0.1,0.1-0.2,0.2-0.3c0.3-0.3,0.7-0.5,1.1-0.7c0.4-0.3,0.6-0.6,0.4-1.1          c-0.2-0.5-0.4-0.8-0.9-0.7c-0.1,0-1,0.4-1.2,0.6c-0.1-0.5-0.3-1-0.5-1.3c-0.7-0.7-1.7-0.6-2.6-0.6c-1.1,0-1.9,0.5-2.4,1.2          c0,0,0,0,0,0c0,0,0,0,0,0c0,0,0,0.1-0.1,0.2c-0.1,0.2-0.2,0.4-0.3,0.6c0,0,0,0,0,0c0.1-0.1-1.1-0.6-1.3-0.6          c-0.5,0-0.8,0.2-0.9,0.7c-0.2,0.5,0,0.8,0.4,1.1c0.4,0.2,0.8,0.4,1.1,0.7c0.1,0.1,0.1,0.2,0.2,0.3c0,0.4,0,0.8,0.2,1.1          c0.1,0.2,0.2,0.3,0.3,0.4c0,0.1-0.1,0.2-0.1,0.3c-0.4-0.4-0.9-0.8-1.5-0.8c-0.4,0-0.6,0.7-0.6,1c0,0.6,0.8,0.9,1.2,1.2          c0.3,0.2,0.6,0.5,0.8,0.7c0,0.1,0.1,0.2,0.1,0.2c0.1,0.1,0.1,0.1,0.2,0.2c-0.1,0.4-0.2,0.8-0.3,1.3          c-0.4-0.3-0.8-0.7-1.2-0.6c-0.4,0.1-0.4,0.5-0.4,0.8c0,0.6,0.6,0.7,1,0.9c0.3,0.2,0.6,0.5,0.9,0.8c0.1,0.1,0.3,0.2,0.4,0.3          c-0.1,0.5-0.4,1-0.6,1.6c-0.2-0.1-0.4-0.2-0.5-0.3c-0.2-0.1-0.3-0.3-0.5-0.3c-0.5-0.1-0.6,0.7-0.6,1          c-0.1,0.6,0.2,0.6,0.6,0.9c0.4,0.2,0.7,0.4,1.1,0.5c0.2,0.1,0.4,0.1,0.5,0.3c0,0.1,0.1,0.1,0.1,0.1c-0.1,0.3-0.2,0.7-0.3,1          c-0.2,0-0.5-0.2-0.6-0.3c-0.2-0.1-0.5-0.1-0.7-0.1c-0.4,0-0.5,0.5-0.6,0.8c-0.2,0.5,0.3,0.6,0.6,0.7          c0.6,0.2,1.1,0.6,1.8,0.8h0c0,0,0,0,0,0c-0.2,0.4-0.2,0.8-0.4,1.2c0,0,0,0,0,0c-0.2,0-0.6-0.3-0.6-0.3          c-0.2-0.1-0.5-0.2-0.7-0.2c-0.4,0-0.6,0.4-0.6,0.7c-0.1,0.5,0.5,0.6,0.8,0.7c0.3,0.1,0.6,0.2,0.9,0.4          c0.2,0.1,0.4,0.3,0.7,0.4c-0.3,0.8-1.1,1.9-0.5,2.6c0,0,0,0,0,0c-0.5,0.7-0.9,1.7-0.3,2.4c0.3,0.3,0.8,0.4,1.2,0.4          c0.3,0,0.6,0.2,0.9,0.3c0.2,0.3,0.5,0.6,0.9,0.5c0.4-0.1,0.8-0.4,1.1-0.7c0.2-0.1,0.3-0.1,0.5-0.1c0.4,0,0.9-0.1,1.2-0.4          c0.6-0.8,0.2-1.7-0.3-2.4c0,0,0,0,0,0c0.6-0.7-0.2-1.8-0.5-2.6c0.3-0.1,0.4-0.2,0.7-0.4c0.3-0.2,0.6-0.3,0.9-0.4          c0.3-0.1,0.9-0.2,0.8-0.7c-0.1-0.3-0.3-0.7-0.6-0.7c-0.3,0-0.5,0.1-0.7,0.2c-0.1,0-0.5,0.3-0.6,0.3c0,0,0,0,0,0          c-0.1-0.4-0.2-0.8-0.4-1.2c0,0,0,0,0,0c0,0,0,0,0,0c0.6-0.2,1.1-0.6,1.8-0.8c0.3-0.1,0.8-0.2,0.6-0.7          c-0.1-0.3-0.2-0.8-0.6-0.8c-0.2,0-0.5,0-0.7,0.1c-0.1,0-0.4,0.2-0.6,0.3c-0.1-0.3-0.2-0.7-0.3-1c0,0,0.1-0.1,0.1-0.1          c0.1-0.2,0.3-0.2,0.5-0.3c0.4-0.2,0.7-0.3,1.1-0.5c0.5-0.3,0.7-0.3,0.6-0.9c0-0.3-0.2-1.1-0.6-1c-0.2,0-0.4,0.2-0.5,0.3          c-0.2,0.1-0.4,0.2-0.5,0.3c-0.2-0.5-0.5-1-0.6-1.6c0.2-0.1,0.3-0.2,0.4-0.3c0.3-0.2,0.6-0.5,0.9-0.8c0.4-0.3,1-0.3,1-0.9          c0-0.3-0.1-0.7-0.4-0.8c-0.5-0.1-0.9,0.3-1.2,0.6c-0.1-0.4-0.2-0.9-0.3-1.3c0.1-0.1,0.1-0.1,0.2-0.2c0-0.1,0.1-0.2,0.1-0.2          c0.3-0.2,0.5-0.5,0.8-0.7c0.4-0.3,1.2-0.5,1.2-1.2C95.2,193.1,95,192.5,94.6,192.5z" />
			<path class="st16"
				d="M93.8,189.3c0.3-0.1,0.9-0.3,1,0.1c0.1,0.3,0.1,0.6-0.2,0.8c-0.4,0.3-0.8,0.5-1.1,0.9          c-0.1-0.4-0.2-0.8-0.3-1.1c0-0.2-0.1-0.3-0.1-0.5C93.4,189.5,93.6,189.3,93.8,189.3z" />
			<path class="st16"
				d="M87,189.7c-0.2,0.5-0.3,0.9-0.4,1.4c-0.3-0.4-0.7-0.6-1.1-0.9c-0.3-0.2-0.3-0.5-0.2-0.8          c0.1-0.5,0.8-0.2,1-0.1c0.2,0.1,0.5,0.2,0.8,0.2C87,189.5,87,189.6,87,189.7z" />
			<path class="st16"
				d="M86.7,194.8c-0.2-0.2-0.5-0.4-0.7-0.6c-0.5-0.3-1.2-0.6-0.6-1.4c0.3-0.4,1.3,0.4,1.6,0.5          C86.7,193.8,86.6,194.3,86.7,194.8z" />
			<path class="st16"
				d="M86.8,198.3c-0.2-0.2-0.5-0.4-0.7-0.5c-0.3-0.1-0.6-0.2-0.6-0.7c0-0.3,0.1-0.3,0.3-0.3          c0.4,0,0.7,0.3,1,0.4C86.8,197.6,86.8,197.9,86.8,198.3z" />
			<path class="st16"
				d="M87.2,205.5c-0.1-0.1-0.3-0.2-0.5-0.2c-0.2-0.1-0.5-0.2-0.7-0.2c-0.2,0-0.6-0.1-0.4-0.5          c0.1-0.2,0.2-0.3,0.5-0.3c0.3,0,0.5,0.1,0.8,0.2c0.1,0,0.2,0.1,0.3,0c0,0,0,0.1,0,0.2C87.1,204.8,87.1,205.2,87.2,205.5z" />
			<path class="st16"
				d="M87.4,208.3c-0.1,0-0.2-0.1-0.2-0.1c-0.2-0.1-0.5-0.2-0.7-0.3c-0.2-0.1-0.7-0.2-0.7-0.5          c0.1-0.9,1.2,0.2,1.7,0C87.4,207.8,87.3,208.1,87.4,208.3z" />
			<path class="st16"
				d="M94.3,207.5c0,0.3-0.5,0.4-0.7,0.5c-0.2,0.1-0.5,0.2-0.7,0.3c-0.1,0-0.2,0.1-0.2,0.1          c0-0.3,0-0.6-0.1-0.8C93.1,207.6,94.3,206.6,94.3,207.5z" />
			<path class="st16"
				d="M93.1,204.3c0.3-0.1,0.5-0.2,0.8-0.2c0.3,0,0.4,0.1,0.5,0.3c0.2,0.4-0.2,0.5-0.4,0.5          c-0.2,0.1-0.5,0.2-0.7,0.2c-0.2,0-0.3,0.1-0.5,0.2c0.1-0.3,0.1-0.6,0-0.9c0,0,0-0.1,0-0.2C92.9,204.4,93,204.4,93.1,204.3z" />
			<path class="st16"
				d="M94.2,196.8c0.2,0,0.3,0.1,0.3,0.3c0,0.5-0.2,0.5-0.6,0.7c-0.3,0.1-0.5,0.3-0.7,0.5c0-0.3,0-0.7-0.1-1          C93.5,197,93.8,196.8,94.2,196.8z" />
			<path class="st16"
				d="M85.8,201.7c-0.2-0.1-0.3-0.1-0.2-0.4c0-0.3,0.1-0.9,0.5-0.6c0.2,0.2,0.5,0.3,0.8,0.4          c-0.1,0.4-0.1,0.8,0.2,1.2C86.7,202.2,86.3,202,85.8,201.7z" />
			<path class="st16"
				d="M92.6,213c-0.2,0.6-0.5,0.6-1,0.8c-0.3,0.1-0.5,0.3-0.7,0.5c-0.2,0.1-0.4,0.2-0.6,0.3          c-0.3,0.2-0.6,0.1-0.9,0c-0.3-0.3-0.6-0.6-1-0.8c-0.5-0.2-0.8-0.2-1-0.8c-0.1-0.4,0-0.8,0.1-1.3c0.5,0.3,1.3,0.4,1.9,0.3          c0.1,0,0.1,0,0.2,0c0.4,0,0.7,0,1,0c0.6,0.1,1.4,0,1.9-0.3C92.6,212.1,92.8,212.6,92.6,213z" />
			<path class="st16"
				d="M92.2,211c-0.3,0.2-0.6,0.4-0.9,0.5c-0.4,0.1-0.8,0.2-1.3,0.2c-0.2,0-0.4,0-0.7,0          c-0.5-0.1-1.1-0.4-1.5-0.7c-0.2-0.2,0-1.2,0.1-1.4c0-0.2,0-0.4,0-0.6c0,0,0,0,0,0c0.2,0.1,0.5,0.1,0.6,0.1          c0.4,0.1,0.7,0,1,0c0.1,0,0.2,0,0.3,0c0.2,0,0.4,0,0.6,0c0.3,0,0.6,0,0.9,0c0.1,0,0.4-0.1,0.6-0.1c0,0,0,0,0,0          c0,0.2,0,0.4,0,0.6C92.1,209.9,92.5,210.8,92.2,211z" />
			<path class="st16"
				d="M92.2,207.3c0,0.2,0.2,0.9-0.1,1.1c-0.8,0.2-1.5,0.4-2.3,0.4c-0.5,0-0.9-0.1-1.3-0.2          c-0.2-0.1-0.3-0.1-0.5-0.2c-0.3-0.1-0.2-0.9-0.1-1.1c0.1-0.4,0.1-0.8,0.1-1.2c0.5,0.3,1.2,0.4,1.8,0.4c0.1,0,0.2,0,0.3,0          s0.2,0,0.3,0c0.6,0,1.3-0.2,1.8-0.4C92.2,206.5,92.1,206.9,92.2,207.3z" />
			<path class="st16"
				d="M92.2,205.4c-0.6,0.5-1.4,0.6-2.2,0.8c-0.8-0.1-1.6-0.3-2.2-0.8c-0.4-0.3-0.2-1-0.1-1.5          c0-0.1,0-0.2,0-0.3c0,0,0.1-0.1,0.1-0.2c0.1-0.1,0.1-0.2,0.2-0.2c0.6,0.4,1.6,0.3,2.2,0.3c0.5,0,1.1-0.2,1.6-0.4          c0.1,0.1,0.2,0.2,0.3,0.3c0,0.2,0,0.4,0.1,0.6C92.4,204.4,92.6,205,92.2,205.4z" />
			<path class="st16"
				d="M93.1,201.2c0.3-0.1,0.5-0.2,0.8-0.4c0.4-0.3,0.5,0.3,0.5,0.6c0,0.2-0.1,0.3-0.2,0.4          c-0.4,0.2-0.8,0.5-1.3,0.7C93.2,202,93.2,201.6,93.1,201.2z" />
			<path class="st16"
				d="M92.5,201.9c-0.1,0.1-0.2,0.2-0.4,0.3c-1.1,1.1-3.7,1-4.4-0.3c0,0,0,0,0,0c-0.5-0.5,0-1.7,0.1-2.5          c0.4,0.2,1,0.1,1.4,0c0.2,0,0.4,0,0.6,0c0.4,0,0.7,0,1,0c0.5,0.1,1.1,0.2,1.6,0C92.4,200.2,93,201.4,92.5,201.9z" />
			<path class="st16"
				d="M92.6,198.3c-0.3,0.6-1,0.7-1.7,0.7c-0.3,0-0.5,0-0.8,0c-0.1,0-0.2,0-0.4,0c-0.8,0-1.9,0-2.3-0.7          c-0.2-0.5-0.1-1.2-0.1-1.7c0-0.2,0-0.5,0-0.7c0.6,0.3,1.5,0.2,2.1,0.1c0.1,0,0.3,0,0.4,0c0.1,0,0.3,0,0.5,0          c0.7,0.1,1.7,0.3,2.3-0.1c0,0.2,0,0.5,0,0.7C92.7,197.1,92.9,197.8,92.6,198.3z" />
			<path class="st16"
				d="M92.5,195.2c-0.4,0.3-0.9,0.4-1.4,0.4c-0.3,0-0.5,0-0.8,0c-0.1,0-0.2,0-0.3,0l0,0          c-0.7-0.1-1.7,0-2.3-0.5c-0.3-0.3-0.4-0.8-0.4-1.2c0-0.3,0-0.5,0-0.8c0,0,0-0.1,0-0.2c0.8,0.5,1.9,0,2.8,0c0,0,0,0,0,0          c0,0,0,0,0,0c0.9,0,2,0.5,2.8,0c0,0.1,0,0.2,0,0.2c0,0.3,0,0.5,0,0.8C92.9,194.4,92.8,194.9,92.5,195.2z" />
			<path class="st16"
				d="M92.3,192.5c-0.8,0.2-1.5,0-2.3,0.2c-0.7-0.2-1.5,0.1-2.3-0.2c-0.9-0.3-0.6-2.1-0.4-3.2          c0.3-0.5,0.6-0.9,1.2-1.2c0.7-0.4,1.5-0.2,2.2-0.2c1.3,0,1.7,0.7,2,1.6C93,190.5,93.2,192.2,92.3,192.5z" />
			<path class="st16"
				d="M94.1,194.2c-0.3,0.2-0.5,0.4-0.7,0.6c0.1-0.5,0-1-0.2-1.5c0.3-0.1,1.3-0.9,1.6-0.5          C95.3,193.6,94.6,193.9,94.1,194.2z" />
		</g>
		<g>
			<g>
				<path class="st15"
					d="M116.8,189C116.8,189,116.8,189,116.8,189c0.1-1.7-1.3-3.3-2.6-4.2c0.7-0.5,1.2-1.2,1.3-2           c0,0,0-0.1,0-0.1c0.1-0.4,0.1-0.8-0.1-1.1c-0.3-1.1-1.1-1.9-2.1-2.7c0.2-0.3,0.5-0.6,0.7-1c0,0,0,0,0,0           c0.3-0.5,0.4-0.9,0.3-1.3c0-0.5,0-1.1-0.2-1.7c-0.1-0.3-0.6-1.3-1-1.6c0.3-0.3,0.5-0.7,0.5-1.1c0.4-1.5-0.7-3.2-1.9-4.3           c0,0,0-0.1,0.1-0.1c0.4-0.7,0.5-1.5,0.2-2.3c-0.4-0.9-0.9-1.7-1.5-2.4c-0.2-0.2-0.6-0.6-0.9-0.8c0.1-0.2,0.1-0.5,0.1-0.8           c0-0.5-0.1-1-0.3-1.6c-0.5-1-1.5-2.2-2.7-2.3c0.1-0.1,0.1-0.3,0.1-0.5c0-0.1,0-0.1,0-0.2c0.3-1.2-0.6-2.3-1.5-3.1           c-0.9-0.8-2.4-2-3.7-2.2c0,0,0,0,0,0c-0.1,0-0.1-0.1-0.2-0.1c1.8,0.1,3.6,0.3,5.4,0.6c0.8,0.1,1.8,0.2,2.5,0.4           c0.7,0.2,0.9,0.7,1.5,1c1.4,0.7,3.6,1,3.7-1.2c0-1.7-3.6-2.5-4.6-2.8c-2.9-0.9-6.3-1.4-9.3-1.5c-2.7,0-5.9,0.5-7.8,2.7           c-1,1.1-2.7,2.6-1.8,4.2c0,0.4,0.2,0.8,0.4,1c-0.5,0.2-1,0.6-1.4,0.5c-0.3,0-0.6-0.2-0.9-0.4c0.4-0.1,0.6-0.6,0.6-1.2           c0.8-1.6-0.9-3.1-1.8-4.2c-1.9-2.2-5.1-2.7-7.8-2.7c-3.1,0-6.4,0.5-9.3,1.5c-1.1,0.3-4.7,1.1-4.6,2.8c0,0.4,0.1,0.7,0.2,1           c0.2,0.3,0.5,0.5,0.8,0.7c0.8,0.2,1.8,0,2.6-0.4c0.6-0.3,0.8-0.7,1.5-1c0.8-0.3,1.7-0.3,2.5-0.4c1.8-0.3,3.6-0.5,5.4-0.6           c-0.1,0-0.1,0.1-0.2,0.1c0,0,0,0,0,0c-1.3,0.3-2.7,1.5-3.7,2.2c-0.9,0.8-1.8,1.9-1.5,3.1c0,0.1,0,0.1,0,0.2           c0,0.2,0.1,0.3,0.1,0.5c-1.1,0.2-2.2,1.4-2.7,2.3c-0.3,0.5-0.4,1.1-0.3,1.6c0,0.3,0,0.5,0.1,0.8c-0.4,0.2-0.7,0.6-0.9,0.8           c-0.7,0.7-1.2,1.5-1.5,2.4c-0.3,0.8-0.2,1.6,0.2,2.3c0,0,0,0.1,0.1,0.1c-1.2,1.1-2.4,2.8-1.9,4.3c0,0.4,0.2,0.7,0.5,1.1           c-0.5,0.3-1,1.4-1,1.6c-0.2,0.6-0.3,1.2-0.2,1.7c-0.1,0.3,0,0.8,0.3,1.3c0,0,0,0,0,0c0.2,0.3,0.5,0.6,0.7,1           c-0.9,0.8-1.8,1.6-2.1,2.7c-0.2,0.3-0.2,0.7-0.1,1.1c0,0,0,0.1,0,0.1c0,0.8,0.6,1.5,1.3,2c-1.3,0.9-2.7,2.4-2.6,4.1           c0,0,0,0,0,0c0,0.5,0.1,0.9,0.2,1.4c0.1,0.2,0.3,0.4,0.5,0.6c0,0,0,0,0,0c0.2,0.2,0.4,0.4,0.6,0.6c0,0,0,0,0-0.1           c0.1,0.1,0.3,0.2,0.4,0.3c-1.6,2.3-1.5,5.5-0.6,8.1c0.8,2.2,2.4,2.5,4,1.9c0.7-0.2,1.4-0.5,2.1-1.1c0.8-0.6,1.6-1.3,2.4-2           c1-1.1,1.9-2.3,2.8-3.2c2.5-2.7,5.1-5,8.1-7.2c1-0.7,2-1.3,2.9-2c0,0,0,0.1,0,0.1c-0.1,0.3-0.1,0.7,0.1,1           c0.6,0.7,1.2,1.3,1.7,2.1c0.4,0.5,0.8,0.9,1.4,1c0.3,0,0.5-0.1,0.7-0.3c0,0,0,0,0,0c0.3-0.2,0.5-0.5,0.6-0.7           c0.4-0.5,0.8-1,1.2-1.5c0.5-0.5,0.6-1.1,0.6-1.7c0.9,0.8,2,1.4,3,2.1c3,2.1,5.6,4.4,8.1,7.2c0.9,1,1.8,2.1,2.8,3.2           c0.8,0.7,1.6,1.4,2.4,2c0.7,0.5,1.4,0.9,2.1,1.1c1.6,0.6,3.2,0.2,4-1.9c1-2.6,1.1-5.8-0.6-8.1c0.1-0.1,0.3-0.2,0.4-0.3           c0,0,0,0,0,0.1c0.2-0.2,0.4-0.4,0.6-0.6c0,0,0,0,0,0c0.2-0.2,0.3-0.4,0.5-0.6C116.7,189.9,116.8,189.5,116.8,189z            M115,181.4L115,181.4c0.3,0.5,0.4,1.1,0.1,1.8c-0.3,0.7-1,1.2-1.7,1.6c-0.3,0.2-0.6,0.4-0.9,0.6c-0.1,0.1-0.2,0.1-0.3,0.2           c-3.4,1.7-7.8,0.3-11.2-1.3c-2.1-1.1-4.2-2.2-6.1-3.7c-1.2-0.7-2.3-1.5-3-2.5c-0.5-0.8,0.2-1.3,0.9-1.1           c0.9,0.2,1.9,1,2.6,1.7c1.1,0.6,2.2,1.2,3.3,1.8c1.8,1,3.6,1.9,5.5,2.6c1.8,0.7,3.4,1.3,5.3,1.1c0.7-0.1,1.8-1.3,2.4-1.6           c0.1-0.1,0.7-0.5,1.1-0.7c0.1-0.1,0.1-0.2,0.2-0.2c0.2-0.2,0.4-0.4,0.7-0.5c-0.5,0.1-1,0.3-1.5,0.6c0-0.1-0.1-0.3-0.2-0.4           c-0.1-0.2-0.3-0.3-0.5-0.5c0.1-0.1,0.1-0.1,0.2-0.2c0.1-0.2,0.6-0.6,1.1-1.2c0.1-0.2,0.2-0.3,0.3-0.4           C113.8,179.7,114.6,180.5,115,181.4z M112,186.1c0.6,0.7,1.3,1.6,1.2,2.6c-0.5,0.3-0.9,0.6-1.2,0.8c-2,1.1-3.8-0.5-5.5-1.5           c-1.3-0.8-2.6-1.6-3.9-2.5C105.7,186.8,109.1,187.4,112,186.1z M94.2,180.6c-0.1,0-0.3-0.1-0.4-0.1c-0.2,0-1,0.1-1.6,0.3           c0-0.1-0.1-0.2-0.2-0.2c0-0.7,0-1.4,0-2C92.5,179.3,93.4,180,94.2,180.6z M93.8,171.9c2.5,1.3,5,2.8,7.8,3.5s6.1,1.3,8.8,0           c0.1-0.1,0.3-0.2,0.5-0.2c0.1,0.2,0.4,0.4,0.4,0.7c0.1,0.5,0,0.8-0.2,1.2c0,0,0,0,0,0c-2.1,1.2-3.9,1.5-6.2,0.6           c-2.8-1.1-5.6-2.3-8.5-3.3c-1.4-0.9-3.2-1.7-4.6-1.1c0-0.5-0.1-1-0.1-1.5c0-0.5-0.1-1-0.1-1.6           C92.1,170.9,93.1,171.5,93.8,171.9z M91.5,167.9c0-0.7,0-1.5,0.1-2.2c0-0.1,0-0.2,0-0.2c0.2,0.5,0.5,0.8,0.8,1.1           c2,1.4,4.4,2,6.6,3c2.4,1,5.1,2.1,7.7,1.3c0.8-0.2,1.9-0.6,2.8-1.1c0.2,0.3,0.4,0.7,0.6,1c0.2,0.5,0.3,0.8,0.1,1.3           c-0.5,0.3-0.9,0.6-1.3,0.8c-3.2,1.3-7.1,0.1-10.1-1.5c-1.2-0.6-2.4-1.3-3.6-1.9c-0.9-0.4-2.1-1.6-3.2-1.5           c-0.1,0-0.3,0.1-0.5,0.2C91.7,168,91.6,167.9,91.5,167.9z M91.8,174.9c1.1,1,2.9,2,3.2,2.1c2.8,1.5,6.1,2.5,9.1,3.6           c2.1,0.7,5.3,1.9,7.4,0.3c0.1,0.2,0.3,0.3,0.3,0.5c0.1,0.2,0.1,0.3,0.1,0.5c-0.5,0.3-1,0.7-1.4,0.9c-2,1.3-3.7,0.9-5.8,0.1           c-3-1.2-6-2.6-8.8-4.2c-0.8-0.7-3-2.5-4.1-2.2C91.9,175.9,91.9,175.4,91.8,174.9z M114,176.1           C114,176.1,114,176.2,114,176.1c0.1,0.6,0.1,1.1-0.2,1.6c0,0.1-0.1,0.1-0.1,0.2c-0.1,0.2-0.1,0.3-0.2,0.5           c-0.2,0.3-0.4,0.6-0.7,0.9c-1,1-1.9,1.9-3.4,2c-1.6,0-3-0.3-4.4-0.9c-1.9-0.8-3.9-1.4-5.8-2.2c-2-0.8-4.1-1.5-5.8-2.7           c-0.3-0.2-1.5-1.1-1.4-1.6c0-0.3,0.3-0.5,0.9-0.5c1.1,0.1,2,0.6,3,1.1c0.4,0.1,0.6,0.2,0.6,0.2c0.2,0.1,0.4,0.2,0.6,0.2           c0.2,0.1,0.3,0.2,0.5,0.2c0,0,0.1,0,0.1,0c0.5,0.2,1.1,0.4,1.6,0.7c1.9,0.8,3.8,1.5,5.7,2.2c1.4,0.5,3,1,4.4,0.4           c0.5-0.2,1-0.5,1.5-0.8c0.3-0.1,0.5-0.3,0.7-0.5c0.2-0.1,0.5-0.3,0.7-0.4c0,0,0,0,0.1,0c0.2-0.1,0.5-0.2,0.8-0.3           c-0.2,0-0.4,0-0.6,0c-0.2,0.1-0.5,0.2-0.7,0.3c0-0.1,0.1-0.2,0-0.4c0-0.6-0.3-0.8-0.7-1.2c0.3-0.2,0.6-0.4,1-0.6           c0,0,0,0,0,0c0,0,0,0,0,0c0,0,0.1,0,0.1-0.1c0,0,0,0,0,0c0.1,0,0.1-0.1,0.2-0.1c0-0.1,0-0.1,0.1-0.2           c0.1-0.1,0.3-0.2,0.4-0.3c0,0,0,0,0,0c0,0,0.1-0.1,0.1-0.1C113.5,174,113.9,175.7,114,176.1z M113,171c0,0.1,0,0.2,0,0.3           c0.1,0.1,0.1,0.2,0,0.3c0,0.1,0,0.3,0,0.4c0,0.3-0.1,0.5-0.2,0.7c-0.1,0.2-0.2,0.4-0.3,0.6c-0.1,0.1-0.2,0.2-0.3,0.2           c0,0,0,0,0,0c0,0,0,0,0,0c0,0,0,0,0,0c-0.9,0.9-1.9,1.5-3.1,1.8c-2.3,0.6-4.7,0.3-6.9-0.2c-1.6-0.4-11.4-3.9-10.4-6.7           c0.3-0.3,0.8-0.3,1.5,0.1c0.2,0.1,0.4,0.2,0.6,0.3c0.4,0.2,0.7,0.4,1.1,0.7c0.8,0.3,1.5,0.8,2.2,1.1c1.6,0.8,3.3,1.4,5,2.1           c2.5,1,5.5,1.4,7.9-0.2c0.1-0.1,0.2-0.2,0.3-0.2c0.2-0.2,0.5-0.5,0.8-0.6c0.4-0.3,0.7-0.5,1.1-0.7c0,0,0,0,0,0           c-0.1,0-0.2,0-0.4,0c0,0,0,0,0,0c-0.2,0.1-0.5,0.2-0.7,0.3c-0.2,0.1-0.3,0.2-0.5,0.3c0-0.2,0-0.4-0.1-0.6           c-0.2-0.5-0.6-1.1-1-1.5c0.2-0.1,0.4-0.2,0.5-0.3c0,0,0-0.1,0.1-0.1c0,0,0,0,0,0c0.1,0,0.2-0.1,0.2-0.2           c0.2-0.1,0.3-0.2,0.5-0.3c0,0,0,0,0,0c0.1-0.1,0.2-0.3,0.3-0.4C112.1,169,112.7,170,113,171z M110.8,164.7           c0.7,0.8,0.9,2,0.6,2.9c-0.2,0.6-0.6,1-1.1,1.2c0,0-0.1,0-0.1,0.1c-0.3,0.2-0.6,0.3-0.9,0.5c-3,1.7-6.4,1.4-9.7,0           c-1.2-0.5-6.2-2-7.7-4c-0.1-0.1-0.2-0.2-0.3-0.3c-0.2-0.3-0.4-0.6-0.3-1c0.1-0.3,0.3-0.4,0.5-0.4c0.9-0.3,2.9,0.7,3.4,0.9           
									c0.6,0.3,1.2,0.5,1.8,0.8c1.4,0.7,2.8,1.5,4.2,1.9c0.8,0.3,1.6,0.5,2.4,0.5c0.9-0.1,1.7-0.2,2.5-0.5           c0.3-0.1,0.6-0.2,0.9-0.4c0.5-0.3,1-0.6,1.6-0.8l0,0c0,0,0.1,0,0.1,0c0.1,0,0.1,0,0.2-0.1c0.1,0,0.2,0,0.4-0.1           c0.5-0.2,1-0.2,1.5,0c0,0,0-0.1,0-0.1c-0.2-0.1-0.5-0.2-0.8-0.2c-0.3,0-0.6,0-0.9,0c0,0-0.1,0-0.1,0c0-0.2-0.1-0.5-0.2-0.7           c-0.2-0.4-0.5-0.7-0.9-0.9c0.1-0.1,0.3-0.2,0.5-0.4c0,0,0,0,0,0c0.2-0.2,0.3-0.3,0.5-0.5c0,0,0,0,0,0           c0.1-0.2,0.3-0.4,0.3-0.7C109.8,163,110.4,163.9,110.8,164.7z M93.1,156c0-0.1,0.1-0.1,0.3-0.1c1.9,0.4,3.3-1.8,4.8-3           c0.9-0.7,1.6-0.9,2.3-0.7c1.1,0.8-1.5,3.1-2,3.7c-0.8,1-1.9,2.2-3.2,2.3C94.6,158.2,92.5,157,93.1,156z M92.8,155.5           c0.8-0.7,1.4-1.7,2.3-2.4c1.2-0.9,2.5-1.3,3.9-1.5C97,152.7,95.2,156.1,92.8,155.5z M100.9,153.7c0,0,0.1,0,0.1,0.1           c0.4,0.2,0.8,0.4,1.1,0.7c0.4,0.2,0.8,0.5,1,0.9c0,0.1,0.1,0.2,0.1,0.3c0,0.2-0.1,0.4-0.2,0.6c-0.5,0.2-1,0.5-1.2,0.6           c-1,0.6-1.9,1.2-2.9,1.7c-1,0.5-2,0.2-2.9,0c0.9-0.3,1.5-0.7,2.2-1.5c0.8-1,1.8-1.9,2.5-2.9           C100.7,154,100.8,153.8,100.9,153.7z M93.5,162.5c0.8,1.3,3.5,1.4,4.7,1.9c2.7,1.1,6.5,1.9,9.2,0.2c0,0,0,0,0,0           c0.2-0.1,0.3-0.2,0.5-0.3c0,0,0,0,0,0c0.2,0.2,0.4,0.4,0.5,0.6c0.1,0.2,0.2,0.4,0.3,0.6c0.1,0.2,0,0.3,0,0.4           c-1.2,0.3-2.4,1.1-3.6,1.3c-1.5,0.2-2.9-0.1-4.4-0.5c-2.8-0.8-5.1-2.8-7.9-3.5c-0.3-0.1-0.5,0-0.7,0c0,0,0-0.1,0-0.1           c0,0,0,0,0,0c0.3-0.4,0.7-0.9,1-1.3C93.2,162,93.4,162.3,93.5,162.5z M108.5,160c0.4,0.6,0.7,1.3,0.5,2c-0.2,1-1,1.7-1.9,2           c-0.4,0.2-0.8,0.5-1.2,0.7c-1.6,0.6-3.4,0.5-5,0.1c-1.2-0.3-2.4-1-3.6-1.2c-0.9-0.2-5.1-1.2-3.3-3c0.1,0,0.1,0,0.2,0           c0.9,0.5,2.1,0.7,3,0.8c0.3,0.1,0.5,0.2,0.7,0.2c0.9,0.3,1.9,0.8,2.9,0.9c0.4,0.1,0.9,0.2,1.3,0.2c0.4,0,0.7,0,1.1-0.1           c0.9-0.2,1.7-0.6,2.5-1c0.4-0.3,0.7-0.6,1.1-0.9c0.4-0.3,0.8-0.5,1.2-0.5c0,0,0,0,0,0c-0.2,0-0.4,0-0.6,0.1c0,0,0,0,0,0           c0,0,0,0-0.1,0c-0.1,0.1-0.3,0.2-0.5,0.2c0,0,0,0,0,0c-0.1-0.2-0.2-0.3-0.2-0.5c-0.3-0.4-0.7-0.7-1.1-0.9           c0.1-0.1,0.2-0.2,0.3-0.2c0.1-0.2,0.3-0.4,0.5-0.6c0,0,0,0,0,0c0-0.1,0.1-0.2,0.1-0.2C107.2,158.4,108,159.1,108.5,160z            M99,161.5c1.5,0,3-0.4,4.4-1.1c0.7-0.3,1.4-0.7,1.9-1.1c0.1,0.3,0.5,0.5,0.6,0.7c0.1,0.2,0.2,0.3,0.3,0.5           c0.1,0.1,0.1,0.2,0.1,0.3c-0.6,0.3-1.2,0.6-1.5,0.8C102.9,162.3,100.9,162.1,99,161.5z M105.8,155.6           c0.3,0.3,0.5,0.8,0.5,1.2c0,0.3,0,0.5-0.1,0.7c-0.1,0.3-0.4,0.7-0.7,0.9c-0.1,0.1-0.2,0.2-0.3,0.3c-0.6,0.5-1.3,0.8-2,1.1           c-1,0.5-2.5,1.2-3.6,1.2c-0.3,0-0.8,0-1.3-0.1c-1,0.1-2.1-0.2-3-0.6c0,0-0.1,0-0.2-0.1c-0.1,0-0.1,0-0.2,0           c-0.2-0.1-0.5-0.3-0.6-0.4c-0.4-0.3-0.7-0.6-0.6-1c0.4-0.8,1.6-0.4,2.6,0.2c0.4,0.1,0.7,0.2,0.9,0.2           c0.7,0.1,1.4,0.1,2.1-0.2c1.4-0.7,2.9-2,4.5-2.6c0.3-0.2,0.6-0.4,0.9-0.6c-0.1,0-0.2,0-0.3,0c0,0,0,0,0,0c0,0-0.1,0-0.1,0           c0,0,0,0,0,0.1c-0.2,0-0.4,0.1-0.5,0.2c0.1-0.1,0.1-0.2,0.1-0.3c0-0.3-0.1-0.6-0.3-0.9c-0.2-0.4-0.8-0.7-1.2-0.9           c-0.3-0.1-0.5-0.3-0.8-0.3c-0.1,0-0.3,0-0.5-0.1c0.1-0.3,0.2-0.6,0.2-0.9c0-0.2,0-0.4-0.1-0.6c0,0,0,0,0,0           C102.5,152.7,104.9,153.9,105.8,155.6z M91,154.8c-0.2-0.7,0.2-1.3,0.6-1.8c0.7-0.8,1.4-1.6,2.2-2.3c0,0,0.1,0,0.1,0           c0.5-0.3,0.9-0.7,1.5-0.9c2-0.9,4.2-1,6.3-0.9c2.2,0.1,4.5,0.3,6.6,0.8c1,0.3,2.2,0.5,3.2,1c0.8,0.2,1.6,0.4,2.1,1.1           c0.3,0.5,0.4,1.1,0.1,1.4c0,0.4-0.4,0.6-1.2,0.6c-0.8,0-1.5-0.3-2.1-0.8c-1.3-1-3-1.1-4.6-1.3c-2-0.3-4.2-0.7-6.3-0.5           c-1.6,0.1-3,0.3-4.3,1.2c-0.8,0.5-1.6,1.2-2.2,1.9c-0.1,0.1-0.2,0.2-0.2,0.2c-0.3,0.5-0.6,1.1-1.2,1.1           C91,155.8,90.9,155.3,91,154.8z M74.3,151.8c-1.6,0.2-3.3,0.2-4.6,1.3c-0.6,0.5-1.3,0.7-2.1,0.8c-1.1,0.1-1.9-1-1.2-2           c0.5-0.7,1.3-1,2.1-1.1c1-0.5,2.2-0.7,3.2-1c2.1-0.5,4.5-0.8,6.6-0.8c2.1-0.1,4.3,0,6.3,0.9c0.5,0.2,1,0.5,1.5,0.9           c0,0,0.1,0,0.1,0c0.9,0.7,1.5,1.5,2.2,2.3c0.4,0.5,0.9,1.2,0.6,1.9c0,0.3-0.2,0.5-0.5,0.6c-0.3,0.1-0.5,0-0.6-0.3           c-0.2-0.1-0.3-0.3-0.5-0.4c-0.2-0.1-0.3-0.3-0.5-0.5c-0.6-0.7-1.4-1.3-2.2-1.9c-1.3-1-2.7-1.1-4.3-1.2           C78.5,151.1,76.3,151.5,74.3,151.8z M84.8,158.1c-1.4-0.1-2.4-1.3-3.2-2.3c-0.5-0.6-3.1-2.9-2-3.7c0.7-0.2,1.5,0,2.3,0.7           c1.5,1.2,2.9,3.4,4.8,3c0.1,0,0.2,0.1,0.3,0.1C87.6,157,85.4,158.2,84.8,158.1z M86.9,161.7c0.3,0.5,0.7,0.9,1,1.3           c0,0,0,0,0,0c0,0,0,0.1,0,0.1c-0.2-0.1-0.4-0.1-0.7,0c-2.8,0.7-5.1,2.7-7.9,3.5c-1.5,0.4-2.8,0.7-4.4,0.5           c-1.3-0.1-2.4-0.9-3.6-1.3c-0.1-0.1-0.1-0.2,0-0.4c0.1-0.2,0.2-0.4,0.3-0.6c0.1-0.2,0.3-0.4,0.5-0.6c0,0,0,0,0,0           c0.1,0.1,0.3,0.2,0.5,0.3c0,0,0,0,0,0c2.7,1.7,6.5,0.9,9.2-0.2c1.2-0.5,3.9-0.6,4.7-1.9C86.7,162.3,86.8,162,86.9,161.7z            M84.1,158.5c-1,0.3-1.9,0.5-2.9,0c-1-0.5-2-1.1-2.9-1.7c-0.2-0.2-0.7-0.4-1.2-0.6c-0.1-0.2-0.2-0.4-0.2-0.6           c0-0.1,0.1-0.2,0.1-0.3c0.2-0.4,0.6-0.7,1-0.9c0.4-0.2,0.8-0.5,1.1-0.7c0,0,0.1,0,0.1-0.1c0.1,0.1,0.1,0.3,0.2,0.4           c0.7,1.1,1.7,1.9,2.5,2.9C82.5,157.8,83.2,158.3,84.1,158.5z M81.1,151.7c1.4,0.1,2.7,0.6,3.9,1.5c0.9,0.6,1.5,1.6,2.3,2.4           C84.8,156.1,83.1,152.7,81.1,151.7z M74.3,155.6c0.9-1.6,3.2-2.9,4.7-3.6c0,0,0,0,0,0c0,0.2,0,0.4-0.1,0.6           c0,0.3,0.1,0.6,0.2,0.9c-0.2,0-0.4,0-0.5,0.1c-0.3,0.1-0.5,0.2-0.8,0.3c-0.4,0.2-1,0.5-1.2,0.9c-0.2,0.3-0.4,0.6-0.3,0.9           c0,0.1,0.1,0.2,0.1,0.3c-0.2-0.1-0.4-0.1-0.5-0.2c0,0,0,0,0-0.1c0,0-0.1,0-0.1,0c0,0,0,0,0,0c-0.1,0-0.2,0-0.3,0           c0.3,0.2,0.6,0.4,0.9,0.6c1.6,0.6,3.1,1.9,4.5,2.6c0.7,0.3,1.3,0.4,2.1,0.2c0.2,0,0.5-0.1,0.9-0.2c1-0.5,2.3-1,2.6-0.2           c0.2,0.4-0.2,0.8-0.6,1c-0.2,0.2-0.4,0.3-0.6,0.4c-0.1,0-0.1,0-0.2,0c-0.1,0-0.1,0.1-0.2,0.1c-1,0.4-2,0.7-3,0.6           c-0.5,0-1,0.1-1.3,0.1c-1.1,0-2.6-0.7-3.6-1.2c-0.7-0.3-1.4-0.7-2-1.1c-0.1-0.1-0.2-0.2-0.3-0.3c-0.3-0.3-0.6-0.6-0.7-0.9           c-0.1-0.2-0.2-0.5-0.1-0.7C73.8,156.3,74,155.9,74.3,155.6z M81.1,161.5c-2,0.6-3.9,0.9-5.9,0c-0.3-0.1-0.9-0.5-1.5-0.8           c0-0.1,0-0.2,0.1-0.3c0.1-0.2,0.2-0.3,0.3-0.5c0.2-0.2,0.5-0.4,0.6-0.7c0.6,0.5,1.2,0.8,1.9,1.1           C78.1,161,79.6,161.5,81.1,161.5z M71.5,160c0.5-0.8,1.4-1.6,2.2-2c0,0.1,0.1,0.2,0.1,0.2c0,0,0,0,0,0           c0.2,0.2,0.4,0.4,0.5,0.6c0.1,0.1,0.2,0.2,0.3,0.2c-0.4,0.2-0.8,0.5-1.1,0.9c-0.1,0.2-0.2,0.3-0.2,0.5c0,0,0,0,0,0           c-0.2-0.1-0.3-0.1-0.5-0.2c0,0,0,0-0.1,0c0,0,0,0,0,0c-0.2-0.1-0.4-0.1-0.6-0.1c0,0,0,0,0,0c0.4,0,0.8,0.2,1.2,0.5           c0.4,0.3,0.8,0.6,1.1,0.9c0.8,0.4,1.6,0.8,2.5,1c0.4,0.1,0.8,0.1,1.1,0.1c0.5,0,0.9-0.1,1.3-0.2c1-0.2,2-0.6,2.9-0.9           c0.1-0.1,0.4-0.2,0.7-0.2c0.9-0.1,2.1-0.4,3-0.8c0.1,0,0.1,0,0.2,0c1.9,1.8-2.4,2.8-3.3,3c-1.2,0.2-2.4,0.9-3.6,1.2           c-1.7,0.4-3.4,0.5-5-0.1c-0.4-0.2-0.8-0.4-1.2-0.7c-0.9-0.3-1.7-1-1.9-2C70.8,161.2,71.1,160.5,71.5,160z M69.3,164.7           c0.4-0.8,1-1.6,1.5-2.1c0.1,0.2,0.2,0.4,0.3,0.7c0,0,0,0,0,0c0.1,0.2,0.3,0.4,0.5,0.5c0,0,0,0,0,0c0.1,0.2,0.3,0.3,0.5,0.4           c-0.4,0.2-0.6,0.5-0.9,0.9c-0.1,0.2-0.2,0.5-0.2,0.7c0,0-0.1,0-0.1,0c-0.3,0-0.6,0-0.9,0c-0.3,0-0.5,0.1-0.8,0.2           c0,0,0,0.1,0,0.1c0.5-0.2,1-0.2,1.5,0c0.1,0,0.3,0,0.4,0.1c0.1,0,0.1,0.1,0.2,0.1c0,0,0.1,0,0.1,0l0,0           c0.6,0.2,1,0.5,1.6,0.8c0.3,0.1,0.6,0.2,0.9,0.4c0.8,0.3,1.7,0.5,2.5,0.5c0.8,0,1.7-0.3,2.4-0.5c1.4-0.5,2.8-1.3,4.2-1.9           c0.6-0.3,1.2-0.5,1.8-0.8c0.5-0.2,2.5-1.2,3.4-0.9c0.3,0,0.5,0.1,0.5,0.4c0.1,0.4-0.1,0.7-0.3,1c-0.1,0.1-0.2,0.2-0.3,0.3           c-1.4,2-6.5,3.5-7.7,4c-3.2,1.3-6.7,1.7-9.7,0c-0.3-0.1-0.6-0.2-0.9-0.5c0,0-0.1,0-0.1-0.1c-0.5-0.3-1-0.7-1.1-1.2           C68.4,166.6,68.6,165.4,69.3,164.7z M88.3,168.1c-0.2-0.1-0.3-0.2-0.5-0.2c-1.1-0.1-2.3,1.1-3.2,1.5           c-1.2,0.6-2.4,1.2-3.6,1.9c-2.9,1.6-6.9,2.8-10.1,1.5c-0.3-0.1-0.8-0.5-1.3-0.8c-0.1-0.4-0.1-0.8,0.1-1.3           c0.2-0.3,0.4-0.7,0.6-1c1,0.5,2.1,0.9,2.8,1.1c2.6,0.8,5.3-0.3,7.7-1.3c2.2-0.9,4.6-1.6,6.6-3c0.3-0.2,0.6-0.6,0.8-1.1           c0,0.1,0,0.2,0,0.2c0,0.7,0,1.5,0.1,2.2C88.5,167.9,88.4,168,88.3,168.1z M88.5,170.1c0,0.5,0,1-0.1,1.6           c0,0.5-0.1,1-0.1,1.5c-1.4-0.6-3.2,0.2-4.6,1.1c-2.9,1-5.6,2.2-8.5,3.3c-2.3,0.9-4.1,0.6-6.2-0.6c0,0,0,0,0,0           c-0.2-0.3-0.4-0.7-0.2-1.2c0.1-0.2,0.3-0.4,0.4-0.7c0.2,0.1,0.3,0.2,0.5,0.2c2.7,1.4,6,0.7,8.8,0c2.8-0.7,5.2-2.2,7.8-3.5           C87,171.5,88,170.9,88.5,170.1z M67,172.1c0-0.1,0-0.3,0-0.4c-0.1-0.1,0-0.2,0-0.3c0-0.1,0-0.2,0-0.3c0.2-1,0.8-2,1.5-2.9           c0.1,0.2,0.2,0.3,0.3,0.4c0,0,0,0,0,0c0.1,0.1,0.3,0.2,0.5,0.3c0.1,0.1,0.2,0.1,0.2,0.2c0,0,0,0,0,0c0.1,0,0.1,0.1,0.1,0.1           c0.2,0.1,0.4,0.2,0.5,0.3c-0.4,0.4-0.8,0.9-1,1.5c-0.1,0.2-0.1,0.4-0.1,0.6c-0.2-0.1-0.3-0.2-0.5-0.3           c-0.2-0.1-0.5-0.2-0.7-0.3c0,0,0,0,0,0c-0.1,0-0.3,0-0.4,0c0,0,0,0,0,0c0.4,0.2,0.8,0.4,1.1,0.7c0.3,0.1,0.6,0.4,0.8,0.6           c0.1,0.1,0.2,0.2,0.3,0.2c2.4,1.6,5.4,1.2,7.9,0.2c1.7-0.7,3.4-1.3,5-2.1c0.8-0.4,1.5-0.8,2.2-1.1c0.4-0.2,0.7-0.4,1.1-0.7           c0.2-0.1,0.4-0.2,0.6-0.3c0.7-0.4,1.2-0.5,1.5-0.1c1,2.9-8.8,6.3-10.4,6.7c-2.3,0.6-4.7,0.8-6.9,0.2           c-1.2-0.3-2.2-0.9-3.1-1.8c0,0,0,0,0,0c0,0,0,0,0,0c0,0,0,0,0,0c-0.1-0.1-0.2-0.2-0.3-0.2c-0.1-0.2-0.2-0.4-0.3-0.6           C67.1,172.5,67,172.3,67,172.1z M66.7,178.4c-0.1-0.2-0.1-0.3-0.2-0.5c0-0.1-0.1-0.1-0.1-0.2c-0.3-0.5-0.3-1.1-0.2-1.6           c0,0,0,0,0-0.1c0-0.4,0.5-2.1,1.1-2.6c0,0,0.1,0.1,0.1,0.1c0,0,0,0,0,0c0.1,0.1,0.3,0.2,0.4,0.3c0.1,0,0.1,0.1,0.1,0.2           c0.1,0,0.1,0.1,0.2,0.1c0,0,0,0,0,0c0,0,0.1,0,0.1,0.1c0,0,0,0,0,0c0,0,0,0,0,0c0.3,0.2,0.7,0.5,1,0.6           c-0.3,0.3-0.6,0.6-0.7,1.2c0,0.2,0,0.3,0,0.4c-0.2-0.1-0.5-0.2-0.7-0.3c-0.2,0-0.4,0-0.6,0c0.3,0.1,0.5,0.2,0.8,0.3           c0,0,0,0,0.1,0c0.2,0.1,0.5,0.2,0.7,0.4c0.2,0.2,0.4,0.3,0.7,0.5c0.5,0.3,0.9,0.6,1.5,0.8c1.5,0.6,3,0.1,4.4-0.4           c1.9-0.7,3.8-1.4,5.7-2.2c0.5-0.2,1.1-0.5,1.6-0.7c0,0,0,0,0.1,0c0.2-0.1,0.3-0.2,0.5-0.2c0.2-0.1,0.4-0.2,0.6-0.2           c0,0,0.2-0.1,0.6-0.2c0.9-0.5,1.9-1,3-1.1c0.6,0,0.9,0.2,0.9,0.5c0.1,0.5-1.1,1.4-1.4,1.6c-1.8,1.3-3.9,1.9-5.8,2.7           c-1.9,0.8-3.9,1.5-5.8,2.2c-1.5,0.6-2.8,0.9-4.4,0.9c-1.5,0-2.5-0.9-3.4-2C67.1,179,66.9,178.7,66.7,178.4z M88.2,174.9           
									c0,0.5,0,1-0.1,1.5c-1.1-0.3-3.3,1.5-4.1,2.2c-2.8,1.6-5.8,3-8.8,4.2c-2.1,0.8-3.8,1.2-5.8-0.1c-0.4-0.2-0.8-0.6-1.4-0.9           c0.1-0.2,0.1-0.3,0.1-0.5c0.1-0.2,0.2-0.3,0.3-0.5c2.1,1.5,5.2,0.4,7.4-0.3c3-1,6.3-2,9.1-3.6           C85.3,176.9,87.2,175.9,88.2,174.9z M65,183.2c-0.3-0.7-0.2-1.3,0.1-1.8h0c0.4-0.9,1.2-1.7,1.8-2.3           c0.1,0.1,0.2,0.3,0.3,0.4c0.5,0.6,1,1,1.1,1.2c0.1,0.1,0.1,0.1,0.2,0.2c-0.2,0.1-0.4,0.3-0.5,0.5c-0.1,0.1-0.1,0.2-0.2,0.4           c-0.5-0.3-1-0.5-1.5-0.6c0.2,0.1,0.5,0.3,0.7,0.5c0.1,0.1,0.1,0.2,0.2,0.2c0.4,0.2,0.9,0.6,1.1,0.7           c0.6,0.4,1.6,1.5,2.4,1.6c1.9,0.3,3.6-0.4,5.3-1.1c1.9-0.8,3.7-1.7,5.5-2.6c1.1-0.6,2.2-1.2,3.3-1.8           c0.8-0.7,1.7-1.5,2.6-1.7c0.7-0.2,1.4,0.3,0.9,1.1c-0.7,1-1.8,1.9-3,2.5c-1.9,1.5-4,2.7-6.1,3.7c-3.4,1.7-7.8,3-11.2,1.3           c-0.1-0.1-0.2-0.1-0.3-0.2c-0.3-0.2-0.6-0.4-0.9-0.6C66,184.5,65.3,183.9,65,183.2z M88.1,178.6c0,0.7,0,1.4,0,2           c-0.1,0-0.2,0.1-0.2,0.2c-0.5-0.2-1.3-0.4-1.6-0.3c-0.1,0-0.3,0-0.4,0.1C86.7,180,87.5,179.3,88.1,178.6z M77.5,185.5           c-1.3,0.9-2.6,1.7-3.9,2.5c-1.7,1-3.5,2.7-5.5,1.5c-0.4-0.2-0.8-0.5-1.2-0.8c-0.1-0.9,0.5-1.9,1.2-2.6           C70.9,187.4,74.3,186.8,77.5,185.5z M64.8,191.2C64.8,191.2,64.8,191.2,64.8,191.2c-0.5-0.4-0.9-0.7-1-1.2           c-0.1-0.1-0.1-0.2-0.2-0.4c0,0,0-0.1,0-0.1c-0.1-0.3-0.1-0.6,0-0.9c0.1-0.5,0.3-1,0.6-1.5c0.1-0.2,0.1-0.3,0.2-0.5           c0.4-0.7,1-1.2,1.6-1.8c0.2,0.1,0.3,0.2,0.5,0.3c0.5,0.3,0.9,0.6,1.4,0.9c-0.6,0.5-1.4,1.5-1.5,2.3           c-0.5-0.3-0.9-0.5-1.4-0.6c0.3,0.2,0.5,0.4,0.8,0.7c0,0,0.1,0.1,0.1,0.1c1.1,0.8,2.2,2,3.4,1.9c1.9-0.2,3.4-1.4,5-2.5           c1.8-1.1,3.6-2.2,5.4-3.4c0.8-0.5,1.6-1,2.4-1.5c0.2-0.1,0.4-0.3,0.6-0.4c0.2-0.1,0.3-0.2,0.5-0.3c0.5-0.3,0.9-0.6,1.4-0.8           c0.5-0.3,1.1-0.5,1.7-0.7c0.7-0.2,1.2,0,1.7,0.5c-0.1,1.5-3.8,3.1-4.8,3.8c-1.9,1.2-3.7,2.5-5.6,3.7c-2.2,1.5-4.4,3.4-7,4           c-0.9,0.2-2,0.1-2.9-0.3c0,0,0,0,0,0c-0.3-0.1-0.6-0.2-0.9-0.4c-0.3-0.2-0.7-0.4-1-0.6h0c-0.1-0.1-0.3-0.2-0.4-0.3           C65,191.4,64.9,191.3,64.8,191.2z M79.6,188.2c-0.8,0.7-1.7,1.5-2.5,2.2c-1.4,1.4-2.8,2.7-4.2,4c-1.7,1.5-3.6,2-5.6,1.6           c-0.3-0.4-0.3-1-0.2-1.5c0.1-0.5,0.3-1,0.4-1.5c0.1,0.1,0.3,0.1,0.4,0.1c3,0.9,5.6-0.9,8-2.6           C77,189.7,78.3,188.9,79.6,188.2z M82.4,188.3c-0.2,0.1-0.3,0.2-0.5,0.4c-2,1.6-3.9,3.4-5.6,5.4c-1.5,1.7-3.4,4.7-5.8,5.9           c-0.9,0.8-1.9,1.5-2.8,1.7c0,0,0,0-0.1,0c-0.7,0.1-1.4,0-1.8-0.5c-0.8-0.7-1.2-1.8-1.3-2.9c-0.1-0.3-0.1-0.6-0.2-0.9           c-0.1-0.7-0.2-1.3-0.1-2c0,0,0-0.1,0-0.1c0-0.2,0-0.4,0.1-0.6c0.1-1,0.4-1.9,0.8-2.7c0.8,0.5,1.6,0.9,2.2,1.1           c-0.1,0.2-0.3,0.4-0.4,0.6c-0.2,0.5-0.3,1-0.3,1.5c0,0.2,0,0.5,0.1,0.7c-0.2-0.1-0.4-0.1-0.6-0.2c-0.2-0.1-0.7-0.4-1.1-0.5           c0.6,0.7,1.3,1.1,2.1,1.4c0.9,0.2,1.7,0.3,2.6,0.1c2-0.4,3.6-2,5-3.3c1.9-1.7,3.8-3.5,5.8-5c0.8-0.6,1.5-1.2,2.3-1.7           c0.9-0.7,1.8-1.3,2.8-1.9c1.1-0.9,2.5-2,2.7-1.2c0,0,0,0,0,0c-0.1,0.3-0.1,0.5-0.3,0.7c-0.1,0.1-0.2,0.2-0.2,0.3           C86.4,186.1,83.9,187.2,82.4,188.3z M91.5,188.4c-0.2,0.2-0.4,0.5-0.5,0.8c-0.3,0.3-0.5,0.5-0.7,0.6c-0.5,0-1-0.4-1.4-0.8           c-0.2-0.2-0.4-0.5-0.5-0.7c-0.5-0.9-1.6-1.1-1-2.5c0,0,0.1-0.1,0.1-0.1c0.8-0.5,1.2-1.5,1.3-2.5c0,0,0-0.1,0-0.1           c0-1,0.1-2,0.1-3c0-2.1,0.1-4.2,0.2-6.2c0-0.1,0-0.2,0-0.2c0-0.3,0-0.6,0-0.9c0-2.9,0.3-5.8,0.1-8.7c0-0.1,0-0.2,0-0.3           c-0.3-0.8-0.7-1.5-1.2-2.2c-0.7-1-1-1.9-0.8-3c0-0.4,0.1-0.8,0.2-1.2c0.1-0.3,0.3-0.5,0.4-0.8c0,0,0,0,0,0           c0.2,0,0.4,0.2,0.6,0.5c0.3,0.3,0.6,0.4,1,0.5c1.3,0.2,1.8-1.2,3-1.3c0,0.1,0,0.2,0.1,0.4c0.1,0.3,0.2,0.6,0.4,0.8           c0.1,0.4,0.1,0.8,0.2,1.2c0.2,1.1,0,2-0.8,3c-0.5,0.8-0.9,1.5-1.2,2.2c0,0.1,0,0.2,0,0.3c-0.1,2.9,0.2,5.8,0.1,8.7           c0,0.3,0,0.6,0,0.9c0,0.1,0,0.2,0,0.2c0,2.1,0.2,4.2,0.2,6.2c0,0.9,0.1,2,0.1,3c0,0,0,0.1,0,0.1c0,0.9,0.4,1.7,1,2.3           c0.1,0.2,0.1,0.3,0.2,0.5C92.8,186.9,92,187.8,91.5,188.4z M115.7,194.6c0,0.2,0.1,0.4,0.1,0.6c0,0,0,0.1,0,0.1           c0.1,0.7,0,1.4-0.1,2c0,0.3-0.1,0.6-0.2,0.9c-0.2,1.1-0.6,2.2-1.4,2.9c-0.5,0.5-1.2,0.6-1.8,0.5c0,0,0,0-0.1,0           c-0.5-0.1-1-0.4-1.5-0.7c-3-0.9-5.2-4.7-7.1-6.8c-1.8-2-3.7-3.7-5.9-5.1c-1.6-1.1-3.2-2.1-4.6-3.6           c-0.3-0.3-0.6-0.6-0.9-0.9c-0.3-0.3-0.6-0.7-0.5-1c0.2-0.8,1.6,0.2,2.7,1.2c1,0.6,1.9,1.2,2.8,1.9c0.8,0.6,1.5,1.2,2.3,1.7           c2,1.6,3.9,3.3,5.8,5c1.5,1.3,3.1,3,5,3.3c0.9,0.2,1.8,0.1,2.6-0.1c0.8-0.3,1.5-0.7,2.1-1.4c-0.4,0.1-0.9,0.4-1.1,0.5           c-0.2,0.1-0.4,0.2-0.6,0.2c0.1-0.2,0.1-0.5,0.1-0.7c0-0.5-0.1-1-0.3-1.5c-0.1-0.2-0.2-0.4-0.4-0.6c0.6-0.2,1.5-0.6,2.2-1.1           C115.3,192.7,115.6,193.6,115.7,194.6z M100.5,188.2c1.3,0.8,2.6,1.5,3.8,2.4c2.4,1.7,5,3.5,8,2.6c0.1,0,0.2-0.1,0.4-0.1           c0.1,0.5,0.4,0.9,0.4,1.5c0.1,0.5,0.1,1.1-0.2,1.5c-2,0.5-3.9-0.1-5.6-1.6c-1.5-1.3-2.9-2.6-4.2-4           C102.1,189.6,101.3,188.9,100.5,188.2z M116.4,189.7c0,0.1-0.1,0.2-0.2,0.4c-0.1,0.5-0.5,0.8-1,1.1c0,0,0,0-0.1,0.1           c-0.1,0.1-0.2,0.2-0.4,0.2c-0.1,0.1-0.3,0.2-0.4,0.3c0,0,0,0,0,0c-0.3,0.2-0.7,0.4-1,0.6c-0.3,0.2-0.6,0.3-0.9,0.4           c0,0,0,0,0,0c-0.9,0.3-2,0.5-2.9,0.3c-2.6-0.6-4.8-2.5-7-4c-1.9-1.2-3.8-2.5-5.6-3.7c-1-0.7-4.7-2.2-4.8-3.8           c0.4-0.5,1-0.7,1.7-0.5c0.6,0.2,1.1,0.4,1.7,0.7c0.5,0.3,0.9,0.5,1.4,0.8c0.2,0.1,0.3,0.2,0.5,0.3c0.2,0.1,0.4,0.3,0.6,0.4           c0.8,0.5,1.6,1,2.4,1.5c1.8,1.1,3.6,2.2,5.4,3.4c1.6,1,3,2.3,5,2.5c1.2,0.1,2.3-1.1,3.4-1.9c0,0,0.1-0.1,0.1-0.1           c0.2-0.3,0.5-0.6,0.8-0.7c-0.4,0.1-0.9,0.3-1.4,0.6c-0.1-0.8-0.9-1.9-1.5-2.3c0.5-0.2,1-0.5,1.4-0.9           c0.2-0.1,0.3-0.2,0.5-0.3c0.5,0.6,1.2,1.1,1.6,1.8c0.1,0.2,0.1,0.3,0.2,0.5c0.3,0.4,0.5,0.9,0.6,1.5           C116.5,189,116.5,189.3,116.4,189.7C116.4,189.6,116.4,189.6,116.4,189.7z" />
				<path class="st12"
					d="M112.9,179.5c-0.5,0.6-1,1-1.1,1.2c-0.1,0.1-0.1,0.1-0.2,0.2c0.2,0.1,0.4,0.3,0.5,0.5           c0.1,0.1,0.1,0.2,0.2,0.4c0.5-0.3,1-0.5,1.5-0.6c-0.2,0.1-0.5,0.3-0.7,0.5c-0.1,0.1-0.1,0.2-0.2,0.2           c-0.4,0.2-0.9,0.6-1.1,0.7c-0.6,0.4-1.6,1.5-2.4,1.6c-1.9,0.3-3.6-0.4-5.3-1.1c-1.9-0.8-3.7-1.7-5.5-2.6           c-1.1-0.6-2.2-1.2-3.3-1.8c-0.8-0.7-1.7-1.5-2.6-1.7c-0.7-0.2-1.4,0.3-0.9,1.1c0.7,1,1.8,1.9,3,2.5c1.9,1.5,4,2.7,6.1,3.7           c3.4,1.7,7.8,3,11.2,1.3c0.1-0.1,0.2-0.1,0.3-0.2c0.3-0.2,0.6-0.4,0.9-0.6c0.7-0.4,1.3-0.9,1.7-1.6s0.2-1.3-0.1-1.8h0           c-0.4-0.9-1.2-1.7-1.8-2.3C113.1,179.2,113,179.4,112.9,179.5z" />
				<path class="st12"
					d="M92,178.6c0,0.7,0,1.4,0,2c0.1,0,0.2,0.1,0.2,0.2c0.5-0.2,1.3-0.4,1.6-0.3c0.1,0,0.3,0,0.4,0.1           C93.4,180,92.5,179.3,92,178.6z" />
				<path class="st12"
					d="M112.8,173.6C112.8,173.7,112.8,173.7,112.8,173.6c-0.1,0.1-0.2,0.2-0.4,0.3c-0.1,0-0.1,0.1-0.1,0.2           c-0.1,0-0.1,0.1-0.2,0.1c0,0,0,0,0,0c0,0-0.1,0-0.1,0.1c0,0,0,0,0,0c0,0,0,0,0,0c-0.3,0.2-0.7,0.5-1,0.6           c0.3,0.3,0.6,0.6,0.7,1.2c0,0.2,0,0.3,0,0.4c0.2-0.1,0.5-0.2,0.7-0.3c0.2,0,0.4,0,0.6,0c-0.3,0.1-0.5,0.2-0.8,0.3           c0,0,0,0-0.1,0c-0.2,0.1-0.5,0.2-0.7,0.4c-0.2,0.2-0.4,0.3-0.7,0.5c-0.5,0.3-0.9,0.6-1.5,0.8c-1.5,0.6-3,0.1-4.4-0.4           c-1.9-0.7-3.8-1.4-5.7-2.2c-0.5-0.2-1.1-0.5-1.6-0.7c0,0,0,0-0.1,0c-0.2-0.1-0.3-0.2-0.5-0.2c-0.2-0.1-0.4-0.2-0.6-0.2           c0,0-0.2-0.1-0.6-0.2c-0.9-0.5-1.9-1-3-1.1c-0.6,0-0.9,0.2-0.9,0.5c-0.1,0.5,1.1,1.4,1.4,1.6c1.8,1.3,3.9,1.9,5.8,2.7           c1.9,0.8,3.9,1.5,5.8,2.2c1.5,0.6,2.8,0.9,4.4,0.9c1.5,0,2.5-0.9,3.4-2c0.2-0.3,0.5-0.6,0.7-0.9c0.1-0.2,0.2-0.3,0.2-0.5           c0-0.1,0.1-0.1,0.1-0.2c0.3-0.5,0.3-1.1,0.2-1.6c0,0,0,0,0-0.1c0-0.4-0.5-2.1-1.1-2.6C112.9,173.6,112.8,173.6,112.8,173.6           z" />
				<path class="st12"
					d="M111.1,168.6C111.1,168.6,111.1,168.6,111.1,168.6c-0.1,0.2-0.3,0.2-0.5,0.4           c-0.1,0.1-0.2,0.1-0.2,0.2c0,0,0,0,0,0c-0.1,0-0.1,0.1-0.1,0.1c-0.2,0.1-0.4,0.2-0.5,0.3c0.4,0.4,0.8,0.9,1,1.5           c0.1,0.2,0.1,0.4,0.1,0.6c0.2-0.1,0.3-0.2,0.5-0.3c0.2-0.1,0.5-0.2,0.7-0.3c0,0,0,0,0,0c0.1,0,0.3,0,0.4,0c0,0,0,0,0,0           c-0.4,0.2-0.8,0.4-1.1,0.7c-0.3,0.1-0.6,0.4-0.8,0.6c-0.1,0.1-0.2,0.2-0.3,0.2c-2.4,1.6-5.4,1.2-7.9,0.2           c-1.7-0.7-3.4-1.3-5-2.1c-0.8-0.4-1.5-0.8-2.2-1.1c-0.4-0.2-0.7-0.4-1.1-0.7c-0.2-0.1-0.4-0.2-0.6-0.3           c-0.7-0.4-1.2-0.5-1.5-0.1c-1,2.9,8.8,6.3,10.4,6.7c2.3,0.6,4.7,0.8,6.9,0.2c1.2-0.3,2.2-0.9,3.1-1.8c0,0,0,0,0,0           c0,0,0,0,0,0c0,0,0,0,0,0c0.1-0.1,0.2-0.2,0.3-0.2c0.1-0.2,0.2-0.4,0.3-0.6c0.1-0.2,0.2-0.5,0.2-0.7c0-0.1,0-0.3,0-0.4           c0.1-0.1,0-0.2,0-0.3c0-0.1,0-0.2,0-0.3c-0.2-1-0.8-2-1.5-2.9C111.4,168.3,111.2,168.5,111.1,168.6z" />
				<path class="st12"
					d="M108.9,163.3c-0.1,0.2-0.3,0.4-0.5,0.5c0,0,0,0,0,0c-0.1,0.2-0.3,0.3-0.5,0.4           c0.4,0.2,0.6,0.5,0.9,0.9c0.1,0.2,0.2,0.5,0.2,0.7c0,0,0.1,0,0.1,0c0.3,0,0.6,0,0.9,0c0.3,0,0.5,0.1,0.8,0.2           c0,0,0,0.1,0,0.1c-0.5-0.2-1-0.2-1.5,0c-0.1,0-0.3,0-0.4,0.1c-0.1,0-0.1,0.1-0.2,0.1c0,0-0.1,0-0.1,0l0,0           c-0.6,0.2-1,0.5-1.6,0.8c-0.3,0.1-0.6,0.2-0.9,0.4c-0.8,0.3-1.7,0.5-2.5,0.5c-0.8,0-1.7-0.3-2.4-0.5           c-1.4-0.5-2.8-1.3-4.2-1.9c-0.6-0.3-1.2-0.5-1.8-0.8c-0.5-0.2-2.5-1.2-3.4-0.9c-0.3,0-0.5,0.1-0.5,0.4           c-0.1,0.4,0.1,0.7,0.3,1c0.1,0.1,0.2,0.2,0.3,0.3c1.4,2,6.5,3.5,7.7,4c3.2,1.3,6.7,1.7,9.7,0c0.3-0.1,0.6-0.2,0.9-0.5           c0,0,0.1,0,0.1-0.1c0.5-0.3,1-0.7,1.1-1.2c0.3-1,0-2.2-0.6-2.9c-0.4-0.8-1-1.6-1.5-2.1           C109.2,162.8,109.1,163.1,108.9,163.3C108.9,163.3,108.9,163.3,108.9,163.3z" />
				<path class="st12"
					d="M95.3,158.1c1.4-0.1,2.4-1.3,3.2-2.3c0.5-0.6,3.1-2.9,2-3.7c-0.7-0.2-1.5,0-2.3,0.7           c-1.5,1.2-2.9,3.4-4.8,3c-0.1,0-0.2,0.1-0.3,0.1C92.5,157,94.6,158.2,95.3,158.1z" />
				<path class="st12"
					d="M99,151.7c-1.4,0.1-2.7,0.6-3.9,1.5c-0.9,0.6-1.5,1.6-2.3,2.4C95.2,156.1,97,152.7,99,151.7z" />
				<path class="st12"
					d="M106.2,158.2c-0.2,0.2-0.4,0.4-0.5,0.6c-0.1,0.1-0.2,0.2-0.3,0.2c0.4,0.2,0.8,0.5,1.1,0.9           c0.1,0.2,0.2,0.3,0.2,0.5c0,0,0,0,0,0c0.2-0.1,0.3-0.1,0.5-0.2c0,0,0,0,0.1,0c0,0,0,0,0,0c0.2-0.1,0.4-0.1,0.6-0.1           c0,0,0,0,0,0c-0.4,0-0.8,0.2-1.2,0.5c-0.4,0.3-0.8,0.6-1.1,0.9c-0.8,0.4-1.6,0.8-2.5,1c-0.4,0.1-0.8,0.1-1.1,0.1           c-0.5,0-0.9-0.1-1.3-0.2c-1-0.2-2-0.6-2.9-0.9c-0.1-0.1-0.4-0.2-0.7-0.2c-0.9-0.1-2.1-0.4-3-0.8c-0.1,0-0.1,0-0.2,0           c-1.9,1.8,2.4,2.8,3.3,3c1.2,0.2,2.4,0.9,3.6,1.2c1.7,0.4,3.4,0.5,5-0.1c0.4-0.2,0.8-0.4,1.2-0.7c0.9-0.3,1.7-1,1.9-2           c0.2-0.7-0.1-1.4-0.5-2c-0.5-0.8-1.4-1.6-2.2-2C106.3,158,106.2,158.1,106.2,158.2C106.2,158.2,106.2,158.2,106.2,158.2z" />
				<path class="st12"
					d="M101.1,152c0,0.2,0,0.4,0.1,0.6c0,0.3-0.1,0.6-0.2,0.9c0.2,0,0.4,0,0.5,0.1c0.3,0.1,0.5,0.2,0.8,0.3           c0.4,0.2,1,0.5,1.2,0.9c0.2,0.3,0.4,0.6,0.3,0.9c0,0.1-0.1,0.2-0.1,0.3c0.2-0.1,0.4-0.1,0.5-0.2c0,0,0,0,0-0.1           c0,0,0.1,0,0.1,0c0,0,0,0,0,0c0.1,0,0.2,0,0.3,0c-0.3,0.2-0.6,0.4-0.9,0.6c-1.6,0.6-3.1,1.9-4.5,2.6           c-0.7,0.3-1.3,0.4-2.1,0.2c-0.2,0-0.5-0.1-0.9-0.2c-1-0.5-2.3-1-2.6-0.2c-0.2,0.4,0.2,0.8,0.6,1c0.2,0.2,0.4,0.3,0.6,0.4           c0.1,0,0.1,0,0.2,0c0.1,0,0.1,0.1,0.2,0.1c1,0.4,2,0.7,3,0.6c0.5,0,1,0.1,1.3,0.1c1.1,0,2.6-0.7,3.6-1.2           c0.7-0.3,1.4-0.7,2-1.1c0.1-0.1,0.2-0.2,0.3-0.3c0.3-0.3,0.6-0.6,0.7-0.9c0.1-0.2,0.2-0.5,0.1-0.7c0-0.4-0.2-0.8-0.5-1.2           C104.9,153.9,102.6,152.7,101.1,152C101.1,152,101.1,152,101.1,152z" />
				<path class="st12"
					d="M91.6,155.7c0.5-0.1,0.9-0.6,1.2-1.1c0.1-0.1,0.2-0.2,0.2-0.2c0.6-0.7,1.4-1.3,2.2-1.9           c1.3-1,2.7-1.1,4.3-1.2c2.1-0.1,4.3,0.3,6.3,0.5c1.6,0.2,3.3,0.2,4.6,1.3c0.6,0.5,1.3,0.7,2.1,0.8c0.9,0,1.2-0.2,1.2-0.6           c0.4-0.3,0.2-1-0.1-1.4c-0.5-0.7-1.3-1-2.1-1.1c-1-0.5-2.2-0.7-3.2-1c-2.1-0.5-4.5-0.8-6.6-0.8c-2.1-0.1-4.3,0-6.3,0.9           c-0.5,0.2-1,0.5-1.5,0.9c0,0-0.1,0-0.1,0c-0.9,0.7-1.5,1.5-2.2,2.3c-0.4,0.5-0.8,1.1-0.6,1.8           C90.9,155.3,91,155.8,91.6,155.7z" />
				<path class="st12"
					d="M80.6,151.2c1.6,0.1,3,0.3,4.3,1.2c0.8,0.5,1.6,1.2,2.2,1.9c0.1,0.2,0.3,0.3,0.5,0.5           c0.1,0.2,0.3,0.3,0.5,0.4c0.1,0.2,0.3,0.3,0.6,0.3c0.3-0.1,0.4-0.3,0.5-0.6c0.3-0.7-0.1-1.4-0.6-1.9           c-0.7-0.8-1.4-1.6-2.2-2.3c0,0-0.1,0-0.1,0c-0.5-0.3-0.9-0.7-1.5-0.9c-2-0.9-4.2-1-6.3-0.9c-2.2,0.1-4.5,0.3-6.6,0.8           c-1,0.3-2.2,0.5-3.2,1c-0.8,0.2-1.6,0.4-2.1,1.1c-0.7,1.1,0,2.1,1.2,2c0.8,0,1.5-0.3,2.1-0.8c1.3-1,3-1.1,4.6-1.3           C76.3,151.5,78.5,151.1,80.6,151.2z" />
				<path class="st12"
					d="M87,156c0-0.1-0.1-0.1-0.3-0.1c-1.9,0.4-3.3-1.8-4.8-3c-0.9-0.7-1.6-0.9-2.3-0.7           c-1.1,0.8,1.5,3.1,2,3.7c0.8,1,1.9,2.2,3.2,2.3C85.4,158.2,87.6,157,87,156z" />
				<path class="st12"
					d="M85,153.2c-1.2-0.9-2.5-1.3-3.9-1.5c2,1,3.7,4.4,6.2,3.8C86.5,154.8,85.9,153.8,85,153.2z" />
				<path class="st12"
					d="M74.7,158.4c0.1,0.1,0.2,0.2,0.3,0.3c0.6,0.5,1.3,0.8,2,1.1c1,0.5,2.5,1.2,3.6,1.2           c0.3,0,0.8,0,1.3-0.1c1,0.1,2.1-0.2,3-0.6c0,0,0.1,0,0.2-0.1c0.1,0,0.1,0,0.2,0c0.2-0.1,0.5-0.3,0.6-0.4           c0.4-0.3,0.7-0.6,0.6-1c-0.4-0.8-1.6-0.4-2.6,0.2c-0.4,0.1-0.7,0.2-0.9,0.2c-0.7,0.1-1.4,0.1-2.1-0.2           c-1.4-0.7-2.9-2-4.5-2.6c-0.3-0.2-0.6-0.4-0.9-0.6c0.1,0,0.2,0,0.3,0c0,0,0,0,0,0c0,0,0.1,0,0.1,0c0,0,0,0,0,0.1           c0.2,0,0.4,0.1,0.5,0.2c-0.1-0.1-0.1-0.2-0.1-0.3c0-0.3,0.1-0.6,0.3-0.9c0.2-0.4,0.8-0.7,1.2-0.9c0.3-0.1,0.5-0.3,0.8-0.3           c0.1,0,0.3,0,0.5-0.1c-0.1-0.3-0.2-0.6-0.2-0.9c0-0.2,0-0.4,0.1-0.6c0,0,0,0,0,0c-1.5,0.7-3.8,2-4.7,3.6           c-0.3,0.3-0.5,0.8-0.5,1.2c0,0.3,0,0.5,0.1,0.7C74.1,157.8,74.4,158.2,74.7,158.4z" />
				<path class="st12"
					d="M72.9,163.9c0.4,0.2,0.8,0.5,1.2,0.7c1.6,0.6,3.4,0.5,5,0.1c1.2-0.3,2.4-1,3.6-1.2           c0.9-0.2,5.1-1.2,3.3-3c0,0-0.1,0-0.2,0c-0.9,0.5-2.1,0.7-3,0.8c-0.3,0.1-0.5,0.2-0.7,0.2c-0.9,0.3-1.9,0.8-2.9,0.9           c-0.4,0.1-0.9,0.2-1.3,0.2c-0.4,0-0.7,0-1.1-0.1c-0.9-0.2-1.7-0.6-2.5-1c-0.4-0.3-0.7-0.6-1.1-0.9           c-0.4-0.3-0.8-0.5-1.2-0.5c0,0,0,0,0,0c0.2,0,0.4,0,0.6,0.1c0,0,0,0,0,0c0,0,0,0,0.1,0c0.1,0.1,0.3,0.2,0.5,0.2           c0,0,0,0,0,0c0.1-0.2,0.2-0.3,0.2-0.5c0.3-0.4,0.7-0.7,1.1-0.9c-0.1-0.1-0.2-0.2-0.3-0.2c-0.1-0.2-0.3-0.4-0.5-0.6           c0,0,0,0,0,0c0-0.1-0.1-0.2-0.1-0.2c-0.9,0.4-1.7,1.2-2.2,2c-0.4,0.6-0.7,1.3-0.5,2C71.2,163,72,163.6,72.9,163.9z" />
				<path class="st12"
					d="M69.8,168.8C69.8,168.9,69.8,168.9,69.8,168.8c0.4,0.3,0.7,0.4,1,0.5c3,1.7,6.4,1.4,9.7,0           c1.2-0.5,6.2-2,7.7-4c0.1-0.1,0.2-0.2,0.3-0.3c0.2-0.3,0.4-0.6,0.3-1c-0.1-0.3-0.3-0.4-0.5-0.4c-0.9-0.3-2.9,0.7-3.4,0.9           c-0.6,0.3-1.2,0.5-1.8,0.8c-1.4,0.7-2.8,1.5-4.2,1.9c-0.8,0.3-1.6,0.5-2.4,0.5c-0.9-0.1-1.7-0.2-2.5-0.5           c-0.3-0.1-0.6-0.2-0.9-0.4c-0.5-0.3-1-0.6-1.6-0.8l0,0c0,0-0.1,0-0.1,0c-0.1,0-0.1,0-0.2-0.1c-0.1,0-0.2,0-0.4-0.1           c-0.5-0.2-1-0.2-1.5,0c0,0,0-0.1,0-0.1c0.2-0.1,0.5-0.2,0.8-0.2c0.3,0,0.6,0,0.9,0c0,0,0.1,0,0.1,0c0-0.2,0.1-0.5,0.2-0.7           c0.2-0.4,0.5-0.7,0.9-0.9c-0.1-0.1-0.3-0.2-0.5-0.4c0,0,0,0,0,0c-0.2-0.2-0.3-0.3-0.5-0.5c0,0,0,0,0,0           c-0.1-0.2-0.3-0.4-0.3-0.7c-0.5,0.4-1.1,1.3-1.5,2.1c-0.7,0.8-0.9,2-0.6,2.9C68.8,168.2,69.3,168.6,69.8,168.8z" />
				<path class="st12"
					d="M67.6,173.3c0.1,0.1,0.2,0.2,0.3,0.2c0,0,0,0,0,0c0,0,0,0,0,0c0,0,0,0,0,0c0.9,0.9,1.9,1.5,3.1,1.8           c2.3,0.6,4.7,0.3,6.9-0.2c1.6-0.4,11.4-3.9,10.4-6.7c-0.3-0.3-0.8-0.3-1.5,0.1c-0.2,0.1-0.4,0.2-0.6,0.3           c-0.4,0.2-0.7,0.4-1.1,0.7c-0.8,0.3-1.5,0.8-2.2,1.1c-1.6,0.8-3.3,1.4-5,2.1c-2.5,1-5.5,1.4-7.9-0.2           c-0.1-0.1-0.2-0.2-0.3-0.2c-0.2-0.2-0.5-0.5-0.8-0.6c-0.4-0.3-0.7-0.5-1.1-0.7c0,0,0,0,0,0c0.1,0,0.2,0,0.4,0c0,0,0,0,0,0           c0.2,0.1,0.5,0.2,0.7,0.3c0.2,0.1,0.3,0.2,0.5,0.3c0-0.2,0-0.4,0.1-0.6c0.2-0.5,0.6-1.1,1-1.5c-0.2-0.1-0.4-0.2-0.5-0.3           c0,0,0-0.1-0.1-0.1c0,0,0,0,0,0c-0.1,0-0.2-0.1-0.2-0.2c-0.2-0.1-0.3-0.2-0.5-0.3c0,0,0,0,0,0c-0.1-0.1-0.2-0.3-0.3-0.4           c-0.7,0.8-1.3,1.8-1.5,2.9c0,0.1,0,0.2,0,0.3c-0.1,0.1-0.1,0.2,0,0.3c0,0.1,0,0.3,0,0.4c0,0.3,0.1,0.5,0.2,0.7           C67.3,173,67.4,173.2,67.6,173.3z" />
				<path class="st12"
					d="M70.8,181.2c1.6,0,2.9-0.3,4.4-0.9c1.9-0.8,3.9-1.4,5.8-2.2c2-0.8,4.1-1.5,5.8-2.7           c0.3-0.2,1.5-1.1,1.4-1.6c0-0.3-0.3-0.5-0.9-0.5c-1.1,0.1-2,0.6-3,1.1c-0.4,0.1-0.6,0.2-0.6,0.2c-0.2,0.1-0.4,0.2-0.6,0.2           c-0.2,0.1-0.3,0.2-0.5,0.2c0,0-0.1,0-0.1,0c-0.5,0.2-1.1,0.4-1.6,0.7c-1.9,0.8-3.8,1.5-5.7,2.2c-1.4,0.5-3,1-4.4,0.4           c-0.5-0.2-1-0.5-1.5-0.8c-0.3-0.1-0.5-0.3-0.7-0.5c-0.2-0.1-0.5-0.3-0.7-0.4c0,0,0,0-0.1,0c-0.2-0.1-0.5-0.2-0.8-0.3           c0.2,0,0.4,0,0.6,0c0.2,0.1,0.5,0.2,0.7,0.3c0-0.1-0.1-0.2,0-0.4c0-0.6,0.3-0.8,0.7-1.2c-0.3-0.2-0.6-0.4-1-0.6           c0,0,0,0,0,0c0,0,0,0,0,0c0,0-0.1,0-0.1-0.1c0,0,0,0,0,0c-0.1,0-0.1-0.1-0.2-0.1c0-0.1,0-0.1-0.1-0.2           c-0.1-0.1-0.3-0.2-0.4-0.3c0,0,0,0,0,0c0,0-0.1-0.1-0.1-0.1c-0.6,0.5-1,2.2-1.1,2.6c0,0,0,0,0,0.1c-0.1,0.5-0.1,1,0.2,1.6           c0,0.1,0.1,0.1,0.1,0.2c0.1,0.2,0.1,0.3,0.2,0.5c0.2,0.3,0.4,0.6,0.7,0.9C68.4,180.3,69.3,181.2,70.8,181.2z" />
				<path class="st12"
					d="M67.5,185.5c0.1,0.1,0.2,0.1,0.3,0.2c3.4,1.7,7.8,0.3,11.2-1.3c2.1-1.1,4.2-2.2,6.1-3.7           c1.2-0.7,2.3-1.5,3-2.5c0.5-0.8-0.2-1.3-0.9-1.1c-0.9,0.2-1.9,1-2.6,1.7c-1.1,0.6-2.2,1.2-3.3,1.8c-1.8,1-3.6,1.9-5.5,2.6           c-1.8,0.7-3.4,1.3-5.3,1.1c-0.7-0.1-1.8-1.3-2.4-1.6c-0.2-0.1-0.7-0.5-1.1-0.7c-0.1-0.1-0.1-0.2-0.2-0.2           c-0.2-0.2-0.4-0.4-0.7-0.5c0.5,0.1,1,0.3,1.5,0.6c0-0.1,0.1-0.3,0.2-0.4c0.1-0.2,0.3-0.3,0.5-0.5c-0.1-0.1-0.1-0.1-0.2-0.2           c-0.1-0.2-0.6-0.6-1.1-1.2c-0.1-0.2-0.2-0.3-0.3-0.4c-0.5,0.7-1.4,1.5-1.8,2.3c0,0,0,0,0,0c-0.3,0.5-0.4,1.1-0.1,1.8           c0.3,0.7,1,1.2,1.7,1.6C66.9,185.1,67.2,185.3,67.5,185.5z" />
				<path class="st12"
					d="M86.2,180.5c0.2,0,1,0.1,1.6,0.3c0-0.1,0.1-0.2,0.2-0.2c0-0.7,0-1.4,0-2c-0.6,0.7-1.4,1.4-2.2,2           C86,180.6,86.1,180.5,86.2,180.5z" />
				<path class="st12"
					d="M65.6,191.7C65.6,191.7,65.6,191.7,65.6,191.7c0.4,0.2,0.7,0.4,1,0.6c0.3,0.2,0.6,0.3,0.9,0.4           c0,0,0,0,0,0c0.9,0.3,2,0.5,2.9,0.3c2.6-0.6,4.8-2.5,7-4c1.9-1.2,3.8-2.5,5.6-3.7c1-0.7,4.7-2.2,4.8-3.8           c-0.4-0.5-1-0.7-1.7-0.5c-0.6,0.2-1.1,0.4-1.7,0.7c-0.5,0.3-0.9,0.5-1.4,0.8c-0.2,0.1-0.3,0.2-0.5,0.3           c-0.2,0.1-0.4,0.3-0.6,0.4c-0.8,0.5-1.6,1-2.4,1.5c-1.8,1.1-3.6,2.2-5.4,3.4c-1.6,1-3,2.3-5,2.5c-1.2,0.1-2.3-1.1-3.4-1.9           c0,0-0.1-0.1-0.1-0.1c-0.2-0.3-0.5-0.6-0.8-0.7c0.4,0.1,0.9,0.3,1.4,0.6c0.1-0.8,0.9-1.9,1.5-2.3c-0.5-0.2-1-0.5-1.4-0.9           c-0.2-0.1-0.3-0.2-0.5-0.3c-0.5,0.6-1.2,1.1-1.6,1.8c-0.1,0.2-0.1,0.3-0.2,0.5c-0.3,0.4-0.5,0.9-0.6,1.5           c-0.1,0.3,0,0.6,0,0.9c0,0,0,0.1,0,0.1c0,0.1,0.1,0.2,0.2,0.4c0.1,0.5,0.5,0.8,1,1.1c0,0,0,0,0.1,0.1           c0.1,0.1,0.2,0.2,0.4,0.2C65.3,191.5,65.5,191.6,65.6,191.7z" />
				<path class="st12"
					d="M87.7,184.4c0.1-0.1,0.2-0.2,0.2-0.3c0.1-0.2,0.2-0.5,0.3-0.7l0,0c-0.2-0.8-1.6,0.2-2.7,1.1           c-1,0.6-1.9,1.2-2.8,1.9c-0.8,0.6-1.5,1.2-2.3,1.7c-2,1.6-3.9,3.3-5.8,5c-1.5,1.3-3.1,3-5,3.3c-0.9,0.2-1.8,0.1-2.6-0.1           c-0.8-0.3-1.5-0.7-2.1-1.4c0.4,0.1,0.9,0.4,1.1,0.5c0.2,0.1,0.4,0.2,0.6,0.2c-0.1-0.2-0.1-0.5-0.1-0.7c0-0.5,0.1-1,0.3-1.5           c0.1-0.2,0.2-0.4,0.4-0.6c-0.6-0.2-1.4-0.6-2.2-1.1c-0.4,0.9-0.6,1.8-0.8,2.7c0,0.2-0.1,0.4-0.1,0.6c0,0,0,0.1,0,0.1           c-0.1,0.7,0,1.4,0.1,2c0,0.3,0.1,0.6,0.2,0.9c0.2,1.1,0.6,2.2,1.3,2.9c0.5,0.5,1.2,0.6,1.8,0.5c0,0,0,0,0.1,0           c0.9-0.2,1.9-0.9,2.8-1.7c2.3-1.2,4.2-4.2,5.8-5.9c1.7-2,3.6-3.8,5.6-5.4c0.2-0.1,0.3-0.2,0.5-0.4           C83.9,187.2,86.4,186.1,87.7,184.4z" />
				<path class="st12"
					d="M92.4,185.5c-0.6-0.6-1-1.4-1-2.3c0,0,0-0.1,0-0.1c0-1-0.1-2-0.1-3c0-2.1-0.1-4.2-0.2-6.2           c0-0.1,0-0.2,0-0.2c0-0.3,0-0.6,0-0.9c0-2.9-0.3-5.8-0.1-8.7c0-0.1,0-0.2,0-0.3c0.3-0.8,0.7-1.5,1.2-2.2c0.7-1,1-1.9,0.8-3           c0-0.4-0.1-0.8-0.2-1.2c-0.1-0.3-0.3-0.5-0.4-0.8c-0.1-0.2-0.1-0.3-0.1-0.4c-1.2,0.1-1.6,1.5-3,1.3c-0.4-0.1-0.7-0.2-1-0.5           c-0.2-0.2-0.4-0.5-0.6-0.5c0,0,0,0,0,0c-0.1,0.3-0.2,0.6-0.4,0.8c-0.1,0.4-0.1,0.8-0.2,1.2c-0.2,1.1,0,2,0.8,3           c0.5,0.8,0.9,1.5,1.2,2.2c0,0.1,0,0.2,0,0.3c0.1,2.9-0.2,5.8-0.1,8.7c0,0.3,0,0.6,0,0.9c0,0.1,0,0.2,0,0.2           c0,2.1-0.2,4.2-0.2,6.2c0,0.9-0.1,2-0.1,3c0,0,0,0.1,0,0.1c0,1-0.5,2-1.3,2.5c0,0-0.1,0.1-0.1,0.1c-0.6,1.3,0.5,1.5,1,2.5           c0.2,0.2,0.4,0.5,0.5,0.7c0.4,0.4,0.9,0.8,1.4,0.8c0.2-0.1,0.5-0.3,0.7-0.6c0.1-0.3,0.3-0.6,0.5-0.8           c0.5-0.6,1.4-1.6,1.1-2.4C92.6,185.8,92.5,185.7,92.4,185.5z" />
				<path class="st12"
					d="M112.8,193c0.1,0.2,0.3,0.4,0.4,0.6c0.2,0.5,0.3,1,0.3,1.5c0,0.2,0,0.5-0.1,0.7           c0.2-0.1,0.4-0.1,0.6-0.2c0.2-0.1,0.7-0.4,1.1-0.5c-0.6,0.7-1.3,1.1-2.1,1.4c-0.9,0.2-1.7,0.3-2.6,0.1c-2-0.4-3.6-2-5-3.3           c-1.9-1.7-3.8-3.5-5.8-5c-0.8-0.6-1.5-1.2-2.3-1.7c-0.9-0.7-1.8-1.3-2.8-1.9c-1.1-0.9-2.5-2-2.7-1.2           c-0.1,0.3,0.2,0.7,0.5,1c0.2,0.3,0.5,0.6,0.9,0.9c1.3,1.5,2.9,2.6,4.6,3.6c2.2,1.5,4.1,3.1,5.9,5.1c1.9,2.2,4.1,6,7.1,6.8           c0.5,0.3,1,0.6,1.5,0.7c0,0,0,0,0.1,0c0.7,0.1,1.4,0,1.8-0.5c0.8-0.7,1.2-1.8,1.4-2.9c0.1-0.3,0.1-0.6,0.2-0.9           c0.1-0.7,0.2-1.3,0.1-2c0,0,0-0.1,0-0.1c0-0.2,0-0.4-0.1-0.6c-0.1-1-0.4-1.9-0.8-2.7C114.2,192.3,113.4,192.7,112.8,193z" />
				<path class="st12"
					d="M116.5,188.6c-0.1-0.5-0.3-1-0.6-1.5c-0.1-0.2-0.1-0.3-0.2-0.5c-0.4-0.7-1-1.2-1.6-1.8           c-0.2,0.1-0.3,0.2-0.5,0.3c-0.5,0.3-0.9,0.6-1.4,0.9c0.6,0.5,1.4,1.5,1.5,2.3c0.5-0.3,0.9-0.5,1.4-0.6           c-0.3,0.2-0.5,0.4-0.8,0.7c0,0-0.1,0.1-0.1,0.1c-1.1,0.8-2.2,2-3.4,1.9c-1.9-0.2-3.4-1.4-5-2.5c-1.8-1.1-3.6-2.2-5.4-3.4           c-0.8-0.5-1.6-1-2.4-1.5c-0.2-0.1-0.4-0.3-0.6-0.4c-0.2-0.1-0.3-0.2-0.5-0.3c-0.5-0.3-0.9-0.6-1.4-0.8           c-0.5-0.3-1.1-0.5-1.7-0.7c-0.7-0.2-1.2,0-1.7,0.5c0.1,1.5,3.8,3.1,4.8,3.8c1.9,1.2,3.7,2.5,5.6,3.7c2.2,1.5,4.4,3.4,7,4           c0.9,0.2,2,0.1,2.9-0.3c0,0,0,0,0,0c0.3-0.1,0.6-0.2,0.9-0.4c0.3-0.2,0.7-0.4,1-0.6h0c0.1-0.1,0.3-0.2,0.4-0.3           c0.1-0.1,0.2-0.2,0.4-0.2c0,0,0,0,0.1-0.1c0.4-0.3,0.8-0.7,1-1.1c0.1-0.1,0.1-0.2,0.2-0.4c0,0,0-0.1,0-0.1           C116.5,189.3,116.5,189,116.5,188.6z" />
			</g>
		</g>
		<path class="st17"
			d="M92.2,157.5c0-0.1-0.1-0.1-0.2-0.1c-0.4,0-0.7,0.4-1,0.5c-0.2,0.1-0.5,0.2-0.8,0.2c0,0-0.1,0-0.1,0         c-0.7,0-1.2-0.4-1.9-0.6c-0.1,0-0.3,0.1-0.3,0.2c0,1,0,1.8,0.2,2.8c0.3,0.9,1.3,1.2,2.1,1.1c0.8-0.1,1.2-0.8,1.5-1.5         C92,159.5,92.4,158.3,92.2,157.5z" />
	</g>
</svg>