<svg version="1.1" id="Layer_1" xmlns="http://www.w3.org/2000/svg" xmlns:xlink="http://www.w3.org/1999/xlink" x="0px" y="0px" viewBox="0 0 256.5 381" style="enable-background:new 0 0 256.5 381;" xml:space="preserve">
	<g transform="translate(33,-10)">
		<style type="text/css">
			.st12 {
				fill: #FFFFFF;
			}

			.st15 {
				fill: #D1D1D1;
			}

			.st16 {
				fill: #F6F6F6;
			}

			.st17 {
				fill: #E8E8E8;
			}
		</style>
		<g>
			<path class="st15"
				d="M85.5,327.2c-0.6-1.2-1.7-1.9-2.3-3.1c0.1-0.2,0.2-0.3,0.3-0.5c0.6-1.6-1.5-3.9-2.2-5.2         c-1.4-2.4-1.5-5.6-1.6-8.3c-0.1-2.4-0.5-4.9-0.5-7.3c-0.2-5.8-0.5-11.6-0.5-17.3c0-2.6,1.1-4.7,2.3-6.9         c0.8-1.3,0.2-2.7-0.1-4c0,0,0,0,0-0.1c0.4-0.9,0.4-1.6,0.1-2.2c-0.1-0.5-0.3-1.1-0.7-1.7c-1-1.5-2.8-2.5-3.9-4         c-0.3-0.6-0.6-1.2-0.8-1.8c0-0.1-0.1-0.2-0.1-0.3c-0.2-1.7-0.3-3.4-0.4-4.8c-0.3-3.1-0.3-6.2-0.6-9.2         c-0.2-1.8-0.3-3.5-0.4-5.2c0-0.3,0-0.6-0.1-0.9c0,0,0,0,0,0c0.1-0.5,0.3-0.9,0.5-1.3c0.3-0.5,1.2-0.4,1.7-0.6         c0.6-0.3,1-0.7,1.2-1.4c0.2-0.6,0-1.1-0.3-1.7c-0.1-0.2-0.6-0.4-0.8-0.5c-0.3-0.2-0.6-0.3-0.8-0.5c0.8-1.2,2.4-0.9,3.3-2.1         c0.5-0.6,0.3-1.6-0.3-2.1c-0.5-0.5-1.2-0.9-1.8-1.4c-0.9-0.8-1.6-1.6-2.4-2.5c0,0,0,0-0.1,0c0,0,0,0,0,0c0,0,0.1-0.1,0-0.1         c-1-1.5-2.4,0.6-2.7,1.5c-0.1,0.4,0,1.5,0,1.8c0,2-2.4,1.6-3.5,1.4c-0.8-0.2-2-0.2-2.7,0.4c-1.8,1.7-1.9,4.1,0.3,5.5         c0.7,0.4,1.4,0.8,2.1,1.2c0.5,0.7,0.6,1.9,0.8,2.6c0.3,2,0.5,4,0.8,5.9c0.6,3.7,0.7,7.4,1.1,11.1c0.2,1.8,0.3,3.6,0.3,5.4         c0,2.2-1,3.7-2.1,5.5c-0.3,0.5-0.6,1.6-0.3,2.2c0.2,0.3,0.3,0.6,0.5,0.7c-0.3,1.6-1.2,2.4,0.2,3.8c0.9,0.8,1.9,1,2.4,2.3         c0.5,1.5,1,3,1.3,4.5c0.6,2.7,0.7,5.6,1,8.4c0.3,3,0.5,6.3,0.6,9.3c0.1,5.2,0.6,10.3-1.6,15.2c-0.6,1.3-1.9,3.3-1.4,4.8         c0.1,0.2,0.2,0.4,0.3,0.5c-0.8,0.2-1.9,0.9-2.7,1.7c-0.3,0.1-0.5,0.2-0.7,0.4c-0.1,0.1-0.2,0.3-0.3,0.5c-0.1,0-0.3,0-0.4,0.1         c-0.2,0.1-0.4,0.2-0.6,0.4c-1.3,0.4-2.7,1-3.9,1.5c-2.2,0.8-4.3,1.6-6.5,2.4c-0.8,0.3-1.5,0.5-1.7,1.4c0,0.1,0,0.1,0,0.2         c-1.2-0.4-2.5,1.2-3,2c-0.4,0.5-0.8,1.1-0.4,1.7c0.1,0.2,0.5,0.5,0.7,0.6c0.5,0.2,1-0.1,1.5,0.2c0.1,0,0.1,0,0.2,0         c0.1,0.2,0.3,0.4,0.5,0.5c0.8,0.3,1.6-0.1,2.4-0.2c0.3,0.1,0.6,0.1,0.9,0.2c0.4,0,0.8,0,1.2-0.1c0.2,0,0.5,0,0.7-0.1         c0.1,0,0.2,0,0.3,0.1c0.2,0.3,0.5,0.6,0.8,0.8c0.4,0.2,0.8,0.2,1.1,0c0.7-0.3,1.3-0.8,2-1.1c1.4-0.6,1.8-1,2.1-2.5         c0,0,0-0.1,0-0.1c0.6-0.2,1.1-0.5,1.8-1c1.5-0.9,3.2-1.5,4.9-2.1c0.7-0.3,1.5-0.5,2.2-0.7c-1.2,0.9-2.5,1.9-3.8,2.3         c-0.9,0.3-1.7-0.1-2.5,0.5c-0.1,0.1-0.2,0.2-0.1,0.3c0,0,0.1,0.1,0.1,0.1c0,0,0,0,0,0c-0.9,0.6-2,0.6-2.7,1.7         c-0.6,0.9-0.8,2-0.1,3c0.6,0.9,2.6-0.3,3.3-0.5c1.2-0.3,2.9-0.5,3.8-1.4c0,0,0,0,0,0c0.7-0.6,1.1-1.3,1.9-1.7         c0.8-0.5,1.8-0.7,2.7-1c0.8-0.3,2-0.6,2.7-1.2c0.5,0.2,1.2,0.3,1.9,0.5c1.5,0.5,4-1.1,4.1-2.7         C86.2,329.5,86,328.2,85.5,327.2z" />
			<path class="st12"
				d="M68.9,273.5c0.2-0.8,0.6-1.5,1-2.2c0.2-0.4,0.4-0.9,0.5-1.2c0.5-1.3,0.7-2.7,0.8-4.2         c0.2-2.7,0-5.6-0.3-8.3c-0.4-3.6-0.8-7.2-1.4-10.7c-0.2-1.5-0.4-3-0.8-4.4c-0.1-0.2-0.2-0.4-0.2-0.5c0.4,0.2,0.8,0.5,1.2,0.8         c0.1,0,0.1,0.1,0.2,0.2c0-0.1-0.1-0.3-0.1-0.4c-0.4-0.4-0.8-0.8-1.2-1.2c-0.1,0-0.2-0.1-0.3-0.1c-0.4-0.2-0.8-0.4-1.2-0.6         c-0.9-0.3-1.7-0.8-2.2-1.6c-0.6-1-0.3-2.4,0.6-3.1c0.3-0.5,0.8-0.8,1.5-1c1.2-0.3,3.5,1.1,4.5,0.1c0.4-0.3,0.6-0.8,0.7-1.3         c0-0.3,0.1-0.5,0.1-0.8c0-1.2-0.3-2.8,1.2-3c0.2,0,0.2,0.1,0.2,0.2c0.5,0.3,0.8,1.1,1.2,1.5c0.4,0.5,5,3.8,3.2,4.5         c-1,0.4-2.4,0.7-3,1.7c-0.3-0.5-0.4-1.1-0.3-1.8c0,0,0,0,0,0c-0.6,1.3-0.6,2.4,0.3,3.1c0.7,0.3,1.7,0.2,1.8,1.1         c0.1,0.4-0.1,0.7-0.3,0.9c0,0.5-0.3,0.7-0.9,0.7c-0.3,0.1-0.7,0.1-1,0.2c-0.2,0-0.4,0.2-0.5,0.4c-0.4,0.5-0.5,1.1-0.5,1.8         c-0.1,0.9,0,2,0,2.7c0,3.2,0.4,6.5,0.7,9.6c0.1,1.6,0.2,3.2,0.4,4.8c0,1.5,0.2,3,0.6,4.4c0.5,1.7,1.8,2.8,3.1,3.9         c0.3,0.3,0.7,0.7,1,1c0.3,0.3,0.5,0.6,0.7,0.9c0,0,0,0.1,0.1,0.1c0,0,0,0,0,0c0.5,0.8,0.7,1.7,0.2,2.6         c-0.3,0.5-0.6,0.9-1.1,1.1c-0.5,0.2-1-0.1-1.4-0.3c-0.1,0-0.1-0.1-0.1-0.2c0,0,0,0,0,0c0.1-0.2,0.3-0.5,0.4-0.7         c0.2,0.1,0.4,0.3,0.7,0.3c0.1,0,0.1-0.1,0.1-0.1c-0.2-0.1-0.5-0.3-0.7-0.5c0,0,0,0-0.1,0c-0.5-0.5-1-1-1.5-1.4         c-0.6-0.4-1.3-0.5-2-0.5c-1.9-0.1-2.6,1.2-4,2.1c0,0,0,0.1,0,0.1c0.1,0,0.3-0.1,0.4-0.1c0,0,0,0,0,0.1         c0.1,0.4,0.2,0.8,0.3,1.2c-0.1,0-0.2,0-0.3,0.1c0,0,0,0,0,0c-0.2,0-0.4-0.1-0.6-0.2C69.5,275,68.6,274.7,68.9,273.5z" />
			<path class="st16"
				d="M75.8,276.1c-2.1,1.2-3.8-0.5-4.6-2.3c0,0,0,0,0,0c1.2-0.5,2.1-1.1,3.6-1c0.7,0,1.5,0.4,2.2,0.6         c0.4,0.1,0.6,0.3,0.9,0.5C77.1,274.7,76.8,275.6,75.8,276.1z" />
			<path class="st12"
				d="M73,319.3c0.8-1.9,1.5-3.7,1.9-5.8c0.7-4.4,0-9.1-0.1-13.6c-0.2-5.1-0.2-10.7-1.6-15.7         c-0.5-1.7-0.8-3.6-2-4.9c-0.7-0.7-2.1-1.1-2.1-2.3c0-0.4,0.2-0.8,0.2-1.2c0-0.2,0-0.4-0.1-0.4c0,0,0,0,0,0         c0.2,0.1,0.5,0.2,0.8,0.2c0.4,0.2,1,0.1,1.4,0c0.6,1.2,1.6,1.9,3.2,1.7c1.4-0.2,2.2-1,2.9-2.1c0.5,0.4,0.9,0.7,1.6,0.7         c0,0,0,0,0.1,0c0.5,0.1,1-0.3,1.4-0.8c0.1,1.5,0.2,2.8-0.8,4.2c-0.9,1.3-1.4,2.8-1.7,4.4c-0.4,2.3-0.1,4.3,0.1,6.6         c0.2,2.5,0.3,5,0.4,7.5c0.1,4.3,0,8.6,0.4,12.9c0.2,2.5,0.6,4.7,1.4,7.1c0.2,0.8,3.3,4.8,2.5,6.3c0,0,0,0,0,0         c-1.7,0.3-3-0.2-4.7-0.7c-1.4-0.4-2.5-0.3-3.9-0.1c0,0-0.1,0.1,0,0.1c0.9,0,1.7,0.2,2.5,0.4c0,0-0.1,0-0.1,0         c-0.2,0-0.4,0-0.6,0c0,0,0,0-0.1,0c-0.9,0-1.7,0.2-2.6,0.2C70.9,323.6,72.8,320,73,319.3z" />
			<path class="st16"
				d="M59.9,332.4c-0.4,0.2-0.9,0.5-1,0.9c-0.4-0.1-0.8-0.3-1.3-0.3c0-0.3,0-0.6,0.1-0.8         c0.4-0.2,0.9-0.4,1.3-0.6c0.7-0.3,1.5-0.5,2.2-0.8c1-0.3,2-0.7,3-1.1c1.4-0.7,2.9-1.7,4.4-2.2c0.3,0.2,0.7,0.2,1.1,0.2         C66.5,329.6,63.3,331,59.9,332.4z" />
			<path class="st16"
				d="M70,327.7c0.2,0,0.3,0,0.5,0c0.7,0,1.4-0.1,2.1-0.1c-0.2,0.1-0.3,0.3-0.5,0.4c-0.8,0.8-1.5,1.1-2.4,1.7         c-1.9,1.2-4.4,2.2-6.5,2.9c-0.7,0.2-1.4,0.4-1.7,1.1c-0.5-0.3-1.1-0.3-1.7-0.3c0.3,0,1.8-0.9,2.1-1c0.6-0.2,1.2-0.5,1.8-0.7         C65.9,330.8,68.3,329.4,70,327.7z" />
			<path class="st16"
				d="M56.1,331.4c1.2-0.4,2.5-0.9,3.7-1.4c1.4-0.6,2.9-1.1,4.3-1.6c1.2-0.5,2.5-1,3.7-1.5         c0.1,0,0.2,0,0.2,0.1c0.1,0,0.2,0,0.2-0.1l0,0c0,0.2,0.1,0.3,0.2,0.5c-1.7,0.4-3.4,1.2-5,1.9c-2,0.9-4,1.6-5.9,2.5         c-0.5,0.2-0.9,0.5-1,1c-0.1,0-0.2,0-0.4-0.1C55.6,332.8,55.5,332.3,56.1,331.4z" />
			<path class="st16"
				d="M53.6,335.7c0,0.2,0,0.4,0.1,0.7c-0.2,0-0.4,0-0.7,0c-1.1,0.2-1.5-0.7-0.9-1.6c0.8-1.2,1.7-2,3.1-1.9         c0.3,0.2,0.7,0.3,1.1,0.4C55.1,333.8,53.7,334.3,53.6,335.7z" />
			<path class="st16"
				d="M56.2,336.6c0,0.1,0,0.2,0,0.2c-0.1,0-0.2,0-0.4,0c-0.9,0-1.4,0-1.6-0.9c-0.4-1.3,1.3-2,2.3-2.6         c0.1,0,0.2,0,0.3,0.1c0.4,0.2,1.2,0.3,1.9,0.4c-0.5,0.2-1,0.6-1.5,0.9C56.5,335.1,56.1,335.7,56.2,336.6z" />
			<path class="st16"
				d="M59.6,335c-0.3,0.7-0.2,1.4,0,2c-0.1,0-0.3,0-0.5,0c-0.6,0-1.2,0.1-1.7-0.2c-0.9-0.4-0.6-1.4,0.1-1.8         c0.5-0.3,1-0.8,1.5-1.1c0,0,0,0,0.1,0c0.5,0.3,1.8,0,2.3,0.2C60.7,334.2,59.9,334.4,59.6,335z" />
			<path class="st16"
				d="M65.6,334.6c-0.1,0.4-0.1,0.6-0.2,1.1c-0.2,0.8-1,0.9-1.6,1c-0.6,0.2-1.1,0.4-1.6,0.7         c-1.3,0.7-2-0.2-2.2-1.3c-0.2-1,1-1.4,1.8-1.8c0.9,0.3,2.1,0.2,3,0.3C65,334.6,65.3,334.6,65.6,334.6         C65.6,334.5,65.6,334.5,65.6,334.6z" />
			<path class="st16"
				d="M73.2,330.5c-1.4,0.5-2.8,0.9-4.1,1.6c-0.9,0.4-1.8,0.8-2.6,1.4c-1.1,0.8-2.8,0.6-4.1,0.6         c-2,0,1.6-1.3,2.1-1.5c1.2-0.5,2.3-1.1,3.5-1.6c1.1-0.5,2.2-0.9,3.2-1.5c1-0.6,1.5-1.7,2.5-2c0.2,0,0.5,0,0.8,0         c0.1,0,0.2,0,0.3,0c0,0,0.1,0,0-0.1c1.1,0,2.3,0.2,2.9,1c-0.6,0.2-1.1,0.7-1.6,1.2C75.3,330,74.2,330.2,73.2,330.5z" />
			<path class="st16"
				d="M68.1,337.8c-0.8,0.3-1.9,1-2.3-0.4c-0.3-1.2,0.8-2.2,1.7-2.7c0.4-0.2,0.8-0.3,1-0.6c0,0,0,0,0,0         c0.2,0.2,0.5,0.3,0.8,0.4c1,0.3,1.7,0.8,2,1.8c0.1,0.2,0.3,0.4,0.5,0.6C70.5,337,69.3,337.3,68.1,337.8z" />
			<path class="st16"
				d="M79.4,330.7c-0.4,0.7-0.4,1.2-0.1,1.6c-1.8,0.7-3.8,1.1-5.3,2.2c-0.5,0.4-1.8,2.5-2.3,1.5         c-0.4-0.8-0.5-1.4-1.5-1.8c-0.3-0.1-0.8-0.2-1.1-0.3c-0.5-0.2,1.2-0.5,1.3-0.5c1.2-0.2,2.1-0.9,3.2-1.5c1.1-0.6,2-0.9,3-1.7         c0.4-0.3,1.1-0.9,1.7-1c0.4,0.4,1,0.5,1.3,1C79.5,330.3,79.5,330.5,79.4,330.7z" />
			<path class="st16"
				d="M79.1,328.8c-0.1-0.1-0.3-0.2-0.4-0.3c-0.2-0.3-0.2-0.6-0.6-1s-1-0.4-1.5-0.4c-0.7,0-1.5,0-2.2,0         c-0.3-0.1-0.7-0.1-1.1,0c-0.7,0-1.4,0.1-2.1,0.1c-0.4,0-0.7,0-1.1,0c-0.3,0-0.5-0.1-0.7-0.2c-0.2,0-0.5-0.1-0.7-0.3         c-0.1-0.2,0-0.4,0.1-0.5c0.1-0.1,0.2-0.2,0.4-0.3c0.1-0.1,0.2-0.2,0.3-0.3c0.5-0.4,1.5-1.2,2.3-1.5c0.8,0.6,2.1,0.1,3.2-0.2         c0.5,0.1,0.9,0,1.4,0.1c0.4,0.1,0.9,0,1.4-0.1c0.8,0.2,1.5,0.5,2.3,0.7c0.5,0.1,1,0.2,1.5,0.2c0,0,0,0,0,0         c0.2,0.1,0.5,0.1,0.7,0c-1,1.3-1.5,2.8-2.1,4.3c-0.1-0.1-0.2-0.1-0.3-0.2C79.5,329,79.3,328.9,79.1,328.8z" />
			<path class="st16"
				d="M85.2,331.2c-0.4,1-1.7,1.6-3.1,1.4c-0.7-0.1-2.3-0.4-2.3-1.3c0-0.4,0.1-0.8,0.4-1.2c0-0.1,0-0.2,0-0.2         c0.2-0.5,0.4-0.8,0.3-0.7c0.4-0.7,0.7-1.5,0.9-2.3c0.3-1.1,1.1-1.6,1.6-2.5c0,0,0,0,0,0c0,0,0,0,0-0.1         c0.4,1.4,1.5,2.4,1.9,3.8C85.3,328.9,85.8,330.3,85.2,331.2z" />
		</g>
		<path class="st17"
			d="M70.7,239.1c-0.7-0.6-2.6-1.7-0.9-2.6c0.3-0.2,0.5-0.3,0.6-0.6c0-0.1,0-0.2-0.1-0.3        c-1-0.3-1.8-0.5-2.5-0.2c0,0-0.1,0-0.2,0c-0.5,0.1-0.9,0.4-1.3,0.7c-0.5,0.4-1.2,1.4-0.8,2.1c0.6,1,1.5,1.4,2.5,1.9        c0.8,0.3,1.5,0.6,2.2,1.1c0.5,0.3,0.7,0.9,1.2,1.2c0.2,0.2,0.5-0.1,0.5-0.3C72,240.7,71.7,239.9,70.7,239.1z" />
	</g>
</svg>