<svg version="1.1" id="Layer_1" xmlns="http://www.w3.org/2000/svg" xmlns:xlink="http://www.w3.org/1999/xlink" x="0px" y="0px" viewBox="0 0 256.5 381" style="enable-background:new 0 0 256.5 381;" xml:space="preserve">
	<g transform="translate(33,-10)">
		<style type="text/css">
			.st12 {
				fill: #FFFFFF;
			}

			.st15 {
				fill: #D1D1D1;
			}

			.st17 {
				fill: #E8E8E8;
			}
		</style>
		<g>
			<path class="st15"
				d="M67.3,155.4c-0.2-1.1-1-2-1.9-2.5c-1.3-0.8-3.6,0.4-4.7,1.3c-0.3,0.2-0.7,0.5-0.7,1         c-0.2,1.2-0.9,1.9-1.6,2.8c-1.4,1.6-2.8,3.1-4.1,4.7c-2.9,3.3-4.5,7.4-6.5,11.3c-1,1.8-1.8,3.7-2.6,5.7         c-0.7,1.6-1.6,3.2-2.1,4.9c-0.1,0.3-0.2,0.5-0.4,0.8c-0.3,0.6-1.1,1.5-1,2.3c0,0.2,0.1,0.3,0.1,0.4c-1.1,0.3-1.8,1-1.6,2.4         c0.2,1.5-0.8,3.5-1.3,4.9c-0.6,1.5-1.4,3-2.1,4.5c-1.3,2.9-2.2,5.8-3.2,8.8c-0.4,1.2-0.7,2.6-1,3.9c0,0-0.1,0.1-0.1,0.1         c-0.2,0.5-0.3,1-0.4,1.5c-0.2,0.5-0.4,1-0.3,1.7c-0.2,0.6-0.4,1.2-0.6,1.8c-0.6,0.1-1.2,0.7-1.6,1.2         c-0.4,0.1-1.1-0.2-1.6,0.2c-0.1,0.1-0.2,0.2-0.3,0.3c-0.3,1-0.4,1.4-1.1,2.4c-1.7,2.2-2.8,4.6-3.8,7.2         c-0.1,0.3-0.1,0.5,0,0.7c-0.4,0.9-0.4,1.8-0.4,2.8c0,0.4,0,1.2,0.3,1.6c0,0,0,0,0,0c-0.2,0.2-0.2,0.5-0.2,0.8         c0.1,0.4,0.3,0.7,0.5,1c0.2,0.4,0.4,0.8,0.7,1.1c0.6,0.6,0.6-0.8,0.6-1c0-0.5,0-1.1-0.1-1.7c0-0.2-0.2-0.3-0.3-0.4         c0.1-0.2,0.1-0.3,0.1-0.4c0.1-1.5,0.1-2.9,0.5-4.3c0.6-1,0.9-2.5,1.4-3.6c0.6-1.1,1.3-2.1,2.2-3c-0.2,0.5-0.4,1-0.5,1.2         c-1.1,2-3.3,4.8-2.9,7.3c0,0,0,0,0,0c-0.2,0.4-0.4,0.8-0.2,1.3c0.5,1.2,0.2,2.9,0.4,4.1c0.1,0.5,0.2,2,0.7,2.8         c0.1,0.5,0.2,1,0.5,1.4c0.1,0.3,0.6,1,1,0.8c0.8-0.3,0-2-0.1-2.4c0-0.6-0.2-1.4-0.3-1.6c-0.3-1.8-0.5-3.3,0.1-5.1         c0.2-0.6,0.4-0.8,0-1.2c0,0,0,0,0,0c0.6-2,1-3.8,2.1-5.7c0.3-0.6,0.9-1,1.3-1.6c0,0.7-0.2,1.2-0.5,1.9         c-0.7,1.8-1.4,3.6-1.8,5.4c-0.1,0.6-0.2,1,0,1.5c-0.2,0.2-0.3,0.5-0.3,0.8c0,0.4,0.2,1.1,0.2,1.2c0,0.6,0,1.2,0,1.9         c0,0.6,0.1,4.4,1.2,4.8c0.2,0.8,0.7,1.5,1.2,2.1c0.3,0.3,1.2,1,1.5,0.4c0.3-0.5-0.1-1.2-0.3-1.6c-0.4-1-0.8-2.1-1.2-3.1         c0,0,0,0,0,0c-0.2-1.5-0.4-2.9-0.4-4.4c0-0.9,0.7-1.4,0.3-2.2c0.1-0.2,0.2-0.5,0.2-0.7c0.1-1.8,1.1-3.3,1.8-5         c0.2-0.5,0.5-0.9,0.7-1.4c-0.2,2.1-0.5,4.4-1,6.4c-0.2,0.8-0.3,1.5,0,1.9c-0.2,0.2-0.5,0.4-0.4,0.8c0.2,1.3,0.2,2.5,0.4,3.8         c0.1,0.8,0.1,2.9,1,3.7c0,1,0.5,2,1,2.8c0.3,0.5,1,0.5,1.3,0.1c0.4-0.6,0.1-1.3-0.1-1.9c-0.2-0.5-0.4-1-0.5-1.5         c0-0.1,0-0.1,0-0.2c0-0.4-0.1-0.9-0.2-1.4c-0.4-1.7-0.4-3.6,0.1-5.2c0.1-0.2,0-0.4-0.2-0.5c0,0,0-0.1,0.1-0.1         c0.4-0.6-0.2-1.6-0.2-2.3c0.2-2,0.5-4.2,1.1-6.1c0.2-0.7,1.5-2,0.9-2.8c-0.1-0.1-0.3-0.5-0.5-0.5c0,0-0.1,0-0.1,0         c0.2-0.2,0.4-0.4,0.5-0.6c0.2,1.9,1.9,3.3,2.4,5.4c0.1,0.4,0.2,1.7,0.7,2.3c-0.1,0.1-0.2,0.3-0.3,0.5c-0.1,0.7,0.6,1,0.6,1.8         c0,0.5-0.1,2.2,0.4,2.9c-0.3,0.2-0.5,0.7-0.5,1.1c-0.1,0.7-0.1,1.4-0.1,2.1c0,0.4,0,0.9,0.4,1.1c0.8,0.3,1.6-1.9,1.8-2.3         c0.4-0.7,0.9-1.9,0.1-2.5c0.3-0.7,0.3-1.7,0.3-2.4c0-0.3,0.7-2.6,0.3-3.1c0.1-0.6-0.2-1.3-0.4-1.7c-0.6-1.6-1.3-3.6-2.4-4.9         c-0.4-0.4-0.9-1-1.1-1.6c-0.1-0.4-0.2-0.8-0.4-1.1c-0.2-0.2-0.4-0.3-0.6-0.2c0.1-0.7-0.1-1.7-0.3-2.3         c-0.5-1.6-1.2-2.8-0.8-4.5c0.3-1.3,0.8-2.6,1.3-3.9c1.1-2.9,2.1-5.8,3.5-8.6c1.1-2.2,3.1-3.8,4.2-5.9         c0.3-0.5,0.9-1.2,0.8-1.9c-0.1-0.5-0.3-0.8-0.6-1c1.4-0.1,1.6-2.5,1.6-3.5c-0.2-3.8,1.7-7.3,3.4-10.6c1.5-2.9,3.5-5.6,5.6-8         c1-1.2,2.2-2.4,3.3-3.6c1.5-1.5,2.8-3.2,5.1-3.4c1.6-0.1,2.5-1.7,2.7-3.2C67.4,157.3,67.5,156.3,67.3,155.4z" />
			<path class="st12"
				d="M24,234.5c0,0.4,0.1,0.8,0.1,1.2c0,0.2,0.1,0.9-0.2,0.6c-0.2-0.2-0.4-0.5-0.5-0.8         c-0.2-0.3-0.8-1.3-0.5-1.7c0.1,0.1,0.2,0.2,0.3,0.2c0.3,0.1,0.5,0,0.6-0.2C24,234,24,234.2,24,234.5z" />
			<path class="st12"
				d="M23.7,232.4c0,0.3,0.1,0.7,0,1c0,0.2-0.5,0.6-0.6,0.3c-0.2-0.4-0.2-0.9-0.1-1.4c0-0.7,0-1.4,0.1-2.1v0         c0-0.3,0-0.7,0.1-0.9c0.3,0.2,0.9,0.2,1.2-0.1C23.9,230.3,23.7,231.3,23.7,232.4z" />
			<path class="st12"
				d="M25.7,225.1c-0.3,0.5-0.5,1-0.7,1.6c-0.3,1.1-0.5,2.7-1.8,2.2c-0.1,0-0.1-0.2-0.1-0.3         c0.1-0.2,0.1-0.4,0.2-0.6c0,0,0-0.1,0.1-0.1c0.1-0.3,0.3-0.7,0.4-1c0-0.1,0.1-0.2,0.1-0.2c1-2.3,2.4-4.2,3.8-6.3         c0.6-0.9,0.5-1.8,1.9-1.8c-0.1,0.1-0.1,0.2-0.1,0.2c-0.4,0.7-0.3,1.3,0,1.9c-0.3,0.1-0.6,0.4-0.8,0.8         C27.3,222.5,26.5,223.8,25.7,225.1z" />
			<path class="st12"
				d="M26.9,239.3c0,0.1,0.1,0.3,0.1,0.4c0.1,0.3,0.1,0.6,0.1,1c0,0.6-0.8-0.5-0.9-0.7         c-0.1-0.3-0.3-0.6-0.4-0.9c0.2,0.2,0.5,0.3,0.8,0.3C26.8,239.5,26.9,239.4,26.9,239.3z" />
			<path class="st12"
				d="M26.1,234.4c0.1,1.3,0.4,2.5,0.6,3.7c0,0,0,0,0,0c0,0.1,0,0.1,0,0.2c0,0.1,0,0.2,0.1,0.3c0,0,0,0-0.1,0         c0,0,0,0.1,0,0.2c-0.1,0.2-0.3,0.4-0.5,0.4c-0.8-0.2-0.7-1.2-0.8-1.9c0-0.1,0-0.2,0.1-0.2c0-0.2-0.1-0.3-0.1-0.5         c-0.1-0.7-0.1-1.4-0.2-2c-0.1-0.7,0-1.5-0.1-2.2c0-0.4-0.2-0.7-0.2-1c0.4,0.7,1.2,0.6,1.7,0.1         C26.7,232.1,26,233.6,26.1,234.4z" />
			<path class="st12"
				d="M29.4,223.5c-0.5,0.6-0.8,1.4-1.2,2.1c-0.4,0.9-0.8,1.7-1.1,2.6c-0.3,0.8-0.3,3.1-1.4,2.9         c-2-0.4,1.3-6.3,1.7-6.9c0.4-0.6,1.4-2.7,2-3.3c0.3,0.5,0.7,0.8,1.1,1.2c0,0,0,0-0.1,0.1C30.2,222.8,29.8,223.1,29.4,223.5z" />
			<path class="st12"
				d="M30.2,240c0.2,0.8,0.6,1.6,0.9,2.5c0.1,0.2,0.2,0.5,0.2,0.8c0,0.3-1-0.6-1.1-0.7         c-0.4-0.5-0.8-1-1.1-1.6C30,241,30.2,240.6,30.2,240z" />
			<path class="st12"
				d="M29.5,235c0,1.5,0.2,2.9,0.5,4.3l0,0c0,0.3,0,0.6-0.2,0.8c-0.4,0.5-1,0.2-1.2-0.3         c-0.2-0.5-0.2-1-0.2-1.5c-0.1-0.8-0.2-1.6-0.2-2.3c0-0.7,0-1.5,0-2.2c0.1-0.8-0.7-0.2-0.1-1.4c0,0.1,0.1,0.1,0.2,0.2         c0.6,0.5,1.2,0.3,1.6-0.2C29.9,233,29.4,234.5,29.5,235z" />
			<path class="st12"
				d="M32.5,224.4c-0.5,0.9-1,1.9-1.5,2.9c-0.4,1-0.9,2-1.1,3.2c0,0.2,0,0.4,0,0.6c0,0.3,0,0.5-0.2,0.6         c-0.1,0.3-0.3,0.5-0.5,0.6c-0.4,0.2-1.1,0.1-1.1-0.5c0-0.3,0.1-0.6,0.3-0.9c0.1-0.4,0.2-0.8,0.4-1.2c0.4-1.1,0.7-2.2,1.1-3.3         c0.2-0.7,0.6-1.3,0.8-2c0,0,0,0,0-0.1c0-0.2,0-0.3,0-0.5c-0.1-0.2-0.1-0.3-0.1-0.5c0.1-0.2,0.2-0.4,0.3-0.7         c0,0,0-0.1,0.1-0.1c0.4,0.3,0.8,0.4,1.3,0.5c0.1,0,0.1-0.1,0.2,0c0.1,0,0.2,0,0.3,0.1c0.1,0,0.2,0,0.3,0         c0,0.1-0.1,0.2-0.1,0.4c0,0,0,0,0,0C32.8,223.7,32.6,224.1,32.5,224.4z" />
			<path class="st12"
				d="M34.5,242c0.1,0.5,0.3,0.9,0.4,1.4c0,0.1,0,0.3,0,0.4c-0.3,0.4-0.6,0.5-0.8,0.1         c-0.2-0.3-0.3-0.5-0.5-0.8c-0.3-0.5-0.6-1.1-0.8-1.7c0.2,0.2,0.4,0.2,0.7,0.2c0.4,0,0.6-0.1,0.8-0.3         C34.4,241.6,34.5,241.8,34.5,242z" />
			<path class="st12"
				d="M34.1,239.9c0,0.2,0,0.3,0,0.5c-0.1,0-0.1,0.1,0,0.2c0,0,0,0,0,0c-0.1,0.8-0.7,1.3-1.4,0         c-0.6-1.2-0.6-3.3-0.6-4.6c0-0.9-0.2-1.8-0.1-2.8c0.2,0.2,0.4,0.3,0.8,0.4c0.3,0.1,0.7,0.2,1,0.2c0.4,0.4-0.1,2-0.1,2.7         c0,0.8,0.2,1.7,0.2,2.5C34,239.3,34.1,239.6,34.1,239.9z" />
			<path class="st12"
				d="M35.4,223.4c-0.5,0.5-0.5,1.2-0.6,1.8c-0.4,2.2-0.8,4.3-1.1,6.5c0.3,0.6,0.6,1.4,0,1.7         c-0.4,0.2-1-0.1-1.3-0.4c-0.2-0.2-0.3-0.4-0.3-0.7c0-0.2,0-0.4,0-0.6c0.1-0.6,0.3-1.2,0.3-1.9c0.1-1.4,0.3-2.8,0.5-4.1         c0-0.2,0.1-1,0.2-1.8c0.1-0.3,0.2-0.7,0.2-1c0,0,0-0.1,0.1-0.1c0,0,0,0,0,0c0.2-0.1,0.5-0.1,0.7-0.2c0.3-0.1,0.5-0.3,0.8-0.4         C35.7,222.2,36.6,222.3,35.4,223.4z" />
			<path class="st12"
				d="M35.1,221.7C35,221.7,35,221.7,35.1,221.7c-1,1-2.6,1-3.7,0.4c-0.7-0.4-1.5-1-1.7-1.8         c0-0.1,0-0.2-0.1-0.2v0c0-0.4,0-0.8,0.2-1.2c0.1-0.1,0.2-0.2,0.3-0.2l0,0c0,0,0.5-0.5,0.9-0.8c0,0,0,0.1,0,0.1         c-0.4,1.5,0.6,2.6,2,2.1c1.1-0.3,1.7-0.8,2.8-0.2C36,220.7,35.6,221.3,35.1,221.7z" />
			<path class="st12"
				d="M40.2,237.6c-0.5,0.7-0.5-0.5-0.5-0.7c0-0.4,0-0.7,0.1-1.1c0-0.5,0-1.2,0.4-1.5         c0.1,0.1,0.3,0.1,0.5,0.1c0.3,0,0.5-0.2,0.7-0.4C42.1,234.8,40.6,236.9,40.2,237.6z" />
			<path class="st12"
				d="M41.5,230c-0.1,0.7-0.2,1.5-0.2,2.2c0,0.3,0,0.7-0.1,0.9v0l0,0c-0.1,0.4-0.3,0.6-0.6,0.7         c-0.8,0.1-0.7-1.3-0.7-1.8c0-0.5,0.2-1.1-0.2-1.5c-0.3-0.3-0.5-0.6-0.5-1c0-0.1,0.1-0.2,0.2-0.3c0,0,0,0,0-0.1         c0,0,0.1,0,0.1,0c0.1,0,0.2-0.1,0.2,0c0.1,0,0.2,0.1,0.2,0.1c0.5,0,1.2,0,1.7-0.3C41.7,229.2,41.6,229.6,41.5,230z" />
			<path class="st12"
				d="M37.2,218.8c0.8-0.2,0.7,1.1,0.8,1.8c0,0.3,0.7,0.9,0.8,1c1,1.2,2,3.2,2.5,4.9c0.1,0.3,0.2,0.6,0.2,0.9         c0,0.1,0.1,0.3,0.1,0.4c-0.1,0.6-0.3,0.8-0.8,0.8c-0.1,0-0.1,0-0.2,0c-0.4,0.2-0.9,0.2-1.2-0.2c-0.5-0.6-0.5-1.1-0.6-1.9         c-0.1-1.1-0.5-1.8-1.2-2.7c-0.3-0.4-0.6-0.9-0.7-1.3c-0.5-0.8-0.7-1.8-0.5-2.8c0.1-0.1,0.2-0.2,0.3-0.2         C37,219.3,37.2,219.1,37.2,218.8z" />
			<path class="st12"
				d="M45.5,191.5c0.1,0.6-0.2,1.2-0.6,1.6c-0.7,0.7-1.4,1.4-2,2.1c-0.9,1.4-1.7,3-2.4,4.5         c-1.8,3.6-3.3,7.5-4.5,11.3c-0.3,0.9-0.6,2.2-0.4,3.3c0.6,1.2,1.4,2.4,1.3,3.7c0,0.1,0,0.2,0,0.3c0,0,0,0,0,0         c0,0,0,0.1,0,0.1c-0.1,0.3-0.3,0.6-0.7,0.7c-0.3,0.1-0.6,0-0.9-0.1c-0.6-0.2-1.1,0-1.6,0.2c-0.5,0.2-1.4,0.6-1.9,0.1         c-0.6-0.6-0.2-1.3,0-2.1c0,0,0,0,0,0c0.2-0.5,0.4-1,0.6-1.4c0-1.4,0.3-2.9,1.1-4.1c0.2-0.7,0.4-1.3,0.5-2         c0.6-2.8,1.6-5.6,2.6-8.2c0.9-2.4,2.1-4.7,3.1-7.1c0.4-0.9,0.7-1.8,1.1-2.6c-0.1-0.8-0.2-1.7,0.1-2.5c0.1-0.5,0.6-1,1.1-1.2         c0.1,0,0.1-0.1,0.2-0.2c0.6,0.2,1.6-0.3,2.1,1.4c0.2,0.7,0.5,0.9,1.1,1C45.5,190.9,45.6,191.1,45.5,191.5z" />
			<path class="st12"
				d="M65,160.8c-0.5,0.2-1,0.1-1.5,0.1c-0.5,0-1,0.2-1.5,0.4c-0.7,0.5-1.3,1.1-1.9,1.7         c-3.3,3.4-6.2,6.8-8.9,10.7c-1.2,1.8-2.2,3.9-3.1,5.9c-0.8,1.7-1.9,3.9-1.9,5.9c0,0.3,0,1.2-0.1,2c0,0.1,0,0.3,0,0.4         c0.1,0.6,0.1,1.3-0.3,1.8c-0.2,0.3-0.8,0.4-1.1,0.1c-0.2-0.2-0.3-0.5-0.3-0.9c-0.3-0.3-0.6-0.6-1-0.8c0,0-0.1,0-0.1,0         c-0.6-0.1-1.7-0.4-1.2-1.3c0.3-0.5,0.8-0.9,1.1-1.4c0.3-0.8,0.6-1.6,0.8-2.5c0,0,0,0,0,0c0.3-0.6,0.6-1.3,0.9-1.9         c0.7-1.7,1.4-3.4,2.2-5.1c1.5-3.2,3.1-6.5,4.9-9.6c1.8-3,4.3-5.4,6.5-8.1c0.4-0.5,1.2-1.1,1.8-1.7c0.3-0.8,0.4-1.6,1.3-2.1         c0.9-0.6,1.9-0.9,3-1.1c1.7-0.2,2.2,2.1,2.2,3.4C66.8,158,66.6,160.3,65,160.8z" />
		</g>
		<path class="st17"
			d="M61,155.8c-0.5,0.6-0.8,1.5-1,2.2c-0.8,1-2,1.9-2.7,2.7c-1,1.1-1.9,2.3-2.6,3.6c0,0.1,0,0.2,0.1,0.1        c0.8-0.5,1.5-1.4,2.1-2c1.4-1.3,3.1-2.2,4.9-2.8c1.7-0.6,3-1.5,3.6-3.4C66.6,152.7,62.3,153.8,61,155.8z" />
		<path class="st17"
			d="M42.9,190.3c-0.2-0.4-0.2-0.9-0.5-1.2c-0.1-0.1-0.2-0.1-0.3,0c-0.3,0.2-0.5,0.4-0.5,0.7        c-0.4,0.5-0.5,1.2-0.4,1.9c0.1,1.4-1.3,2.8-1.4,4.2c0,0.2,0.2,0.1,0.2,0c1.1-1.3,1.9-3,3.5-3.7c0.1-0.1,0.2-0.2,0.2-0.3        C43.6,191.3,43.1,190.8,42.9,190.3z" />
	</g>
</svg>