<svg version="1.1" id="Layer_1" xmlns="http://www.w3.org/2000/svg" xmlns:xlink="http://www.w3.org/1999/xlink" x="0px" y="0px" viewBox="0 0 256.5 381" style="enable-background:new 0 0 256.5 381;" xml:space="preserve">
	<g transform="translate(33,-10)">
		<style type="text/css">
			.st12 {
				fill: #FFFFFF;
			}

			.st15 {
				fill: #D1D1D1;
			}

			.st16 {
				fill: #F6F6F6;
			}
		</style>
		<path class="st15"
			d="M94.2,148.5c-0.5,0-1.3,0-2,0.2c0.2-0.1,0.3-0.2,0.4-0.3c0.7-0.8,0.5-2,0.2-3c0.4-0.6,0.2-1.5,0-2.2         c0,0,0,0,0-0.1c0.4-0.8,0.1-1.8,0.1-2.6c0-0.7,0.1-1.4-0.5-1.9c-0.2-0.2-0.4-0.2-0.6-0.2c-0.5-0.1-1,0-1.5,0         c-0.4,0-0.8,0.1-1.1,0.1v0c0,0,0,0,0,0c-0.1,0-0.2,0-0.4,0s-0.2,0-0.4,0c-0.4-0.1-0.8-0.2-1.1,0.1c-0.6,0.5-0.5,1.1-0.5,1.9         c0,0.8-0.3,1.8,0.1,2.6c0,0,0,0,0,0.1c-0.2,0.7-0.5,1.6,0,2.2c-0.4,0.9-0.6,2.2,0.2,3c0.1,0.1,0.3,0.2,0.4,0.3         c-0.7-0.1-1.5-0.1-2-0.2c-0.5,0-2.5-0.2-1.6,0.8c0.4,0.5,1.2,0.7,1.8,0.9c1.2,0.4,2.1,1.1,2.7,2.3c0.3,0.6,0.3,1.5,0.7,2         c0.2,0.2,0.6,0.1,0.8,0c0,0,0,0,0,0c0,0,0,0,0,0c0.2,0.1,0.6,0.3,0.8,0c0.4-0.5,0.4-1.4,0.7-2c0.6-1.2,1.5-1.9,2.7-2.3         c0.6-0.2,1.4-0.4,1.8-0.9C96.8,148.2,94.7,148.5,94.2,148.5z" />
		<g>
			<path class="st12"
				d="M87.3,140c0-0.7,0.2-1.1,0.8-1.3c0.2,0,0.4,0.1,0.5,0.1c0.4,0,0.8,0,1.2,0c0.8,0,1.5-0.2,2.1,0.1          c0.2,0.2,0.4,0.6,0.4,1c0,0.7,0.2,1.5,0.1,2.3c-0.1,0.7-0.8,0.9-1.4,1c-0.6,0.1-1.3,0.2-2,0.1c0,0,0,0,0,0          c-0.7-0.1-1.8-0.2-2-1.2C87.1,141.6,87.3,140.7,87.3,140z" />
			<path class="st12"
				d="M87.2,143.5c0.2,0.1,0.4,0.2,0.7,0.3c0.1,0,0.2,0,0.2,0c0.1,0,0.2,0.1,0.3,0.1c0.1,0,0.3,0,0.4,0          c0.2,0.1,0.4,0.1,0.5,0.2c1,0.1,2.1-0.2,2.9-0.5c0.1,0,0.1,0,0.2,0c0,0,0.1,0,0.1-0.1c0,0.5,0.1,1.2-0.4,1.5          c-0.1,0-0.1,0.1-0.2,0.1c-1.2,0.9-4.6,1-4.8-0.6c0,0,0-0.1,0-0.1C87.2,144.1,87.2,143.8,87.2,143.5z" />
			<path class="st12"
				d="M87.1,146.9c-0.1-0.5-0.1-1-0.1-1.5c0.1,0.1,0.1,0.1,0.2,0.2c0.3,0.2,0.6,0.2,1,0.3          c0.9,0.5,2.2,0.4,3.2,0c0.4-0.1,0.7-0.2,1-0.3c0.1,0,0.2-0.1,0.2-0.2c0,0.2,0,0.5,0,0.7c0,0,0,0,0,0          C93.3,149.6,87.1,149.9,87.1,146.9z" />
			<path class="st16"
				d="M90.3,149.8c-0.2,0.3-0.6,0.4-0.9,0.2c0,0-0.1,0-0.1-0.1c0,0,0,0,0-0.1c0,0,0,0,0,0l0,0          c-0.1-0.3-0.3-0.5-0.5-0.7c0.3,0.1,0.6,0.1,0.9,0.1c0.5,0,0.9-0.1,1.4-0.2c-0.1,0.1-0.2,0.1-0.3,0.2          c-0.1,0.1-0.2,0.1-0.3,0.2c0,0,0,0-0.1,0.1C90.4,149.6,90.4,149.7,90.3,149.8z" />
			<path class="st12"
				d="M95.4,149.2c-0.3,0.3-0.7,0.3-1.1,0.4c-0.2,0.1-0.5,0.1-0.8,0.2c-0.2,0-0.4,0.1-0.5,0.2          c-0.9,0.4-1.7,1.3-2.1,2.2c-0.1,0.3-0.5,1.9-0.9,1.8c-0.1,0.1-0.2,0.1-0.4,0c0,0,0,0,0,0c0,0,0,0-0.1,0          c-0.2-0.2-0.3-0.4-0.4-0.7c-0.1-0.4-0.3-0.9-0.4-1.1c-0.2-0.4-0.5-0.9-0.8-1.2c-0.6-0.5-1.3-0.9-2.1-1.1          c-0.6-0.2-1.3-0.3-1.8-0.7c-0.2-0.2,0.2-0.5,0.3-0.5c1.2,0,4.1-0.1,4.6,1.5c0.2,0.2,0.4,0.4,0.7,0.4c0.3,0,0.6-0.1,0.9-0.3          c0,0,0,0,0-0.1c0.7-0.8,1.8-1.2,2.8-1.3c0.4,0,2-0.5,2.1,0C95.6,149,95.5,149.1,95.4,149.2z" />
		</g>
	</g>
</svg>