<svg version="1.1" id="Layer_1" xmlns="http://www.w3.org/2000/svg" xmlns:xlink="http://www.w3.org/1999/xlink" x="0px" y="0px" viewBox="0 0 256.5 381" style="enable-background:new 0 0 256.5 381;" xml:space="preserve">
	<g transform="translate(33,-10)">
		<style type="text/css">
			.st12 {
				fill: #FFFFFF;
			}

			.st15 {
				fill: #D1D1D1;
			}

			.st17 {
				fill: #E8E8E8;
			}

			.st18 {
				fill: none;
			}
		</style>
		<g>
			<path class="st18"
				d="M93.6,224.7c-0.6,0.3-1.3,0.4-1.9,0.7c-0.5,0.2-0.9,0.5-1.5,0.5c-0.7,0-1-0.4-1.6-0.6         c-0.4-0.2-0.7-0.3-1-0.4c-0.5-0.1-1-0.3-1.4-0.6c-0.8-0.7-1.1-1.6-1.3-2.5c0,0,0,0,0,0c-2.1-0.4-4.8-1.1-5.2,2c0,0,0,0,0,0.1         c-1.4,4.1,2.6,7.8,6.5,8.7c0,0,0.1,0,0.2,0c2.4,0.7,5,0.7,7.2,0.2c0.2-0.1,0.5-0.1,0.7-0.2c2.4-0.4,4.7-1.4,5.8-3.5         c0,0,0.1-0.1,0.1-0.2c0.5-0.6,0.8-1.3,1.1-2.2c0.3-1.2,0.4-3.1-0.5-4.1c0-0.1,0-0.1,0-0.2c-0.1-0.1-0.2-0.2-0.3-0.3         c0,0,0-0.1-0.1-0.1c-0.5-0.5-1-0.8-1.8-0.9c-0.7-0.1-1.5,0.1-2,0.5c-0.2,0-0.4,0.1-0.7,0.1c0,0,0,0,0,0         c-0.3,0.9-0.5,1.8-1.3,2.5C94.2,224.4,93.9,224.6,93.6,224.7z" />
			<path class="st15"
				d="M116.3,215.3c-0.5-1.5-1.3-3.5-2.8-4.4c-1.4-0.9-2.7-0.8-4.4-0.6c-4.1,0.6-8.2,5-12.5,3.9         c0,0-0.1-0.1-0.1-0.2c-0.6-0.7-1.6-0.9-2.5-1c-0.3,0-0.7,0-1,0.2c0,0,0,0,0,0c0,0,0,0,0,0c-0.6,0-1.2,0.2-1.8,0.2         c-1.2,0.1-2.3,0-3.5-0.1c-0.1,0-0.2-0.1-0.4-0.1l0,0c0,0,0,0,0,0c0,0,0,0,0,0c-0.4-0.1-0.7-0.2-1-0.2c-0.9,0.1-1.8,0.3-2.5,1         c0,0-0.1,0.1-0.1,0.2c-4.3,1.1-8.4-3.3-12.5-3.9c-1.6-0.2-2.9-0.3-4.4,0.6c-1.5,0.9-2.3,2.9-2.8,4.4         c-0.7,2.4-1.2,6.2,0.5,8.3c1.3,1.7,3.4,1.3,5,2.5c1.7,1.2,3.3,2.6,4.6,4.2c1.5,2.5,3,5,5.9,5.7c1.8,0.4,3.7-0.2,5.4-0.7         c0.5-0.2,1.1-0.3,1.6-0.4c0.6,0,1.3,0,2,0c0.3,0,0.6,0.1,1,0c0.1,0,0.2,0,0.4,0c0.1,0,0.2,0,0.4,0c1.5,0.1,3,0.2,4.4,0.5         c1.6,0.5,3.4,1.1,5.1,0.7c2.9-0.7,4.4-3.3,5.9-5.7c1.3-1.6,2.9-3,4.6-4.2c1.6-1.2,3.7-0.8,5-2.5         C117.5,221.5,117,217.7,116.3,215.3z M88.5,213.7C88.5,213.7,88.5,213.7,88.5,213.7c0.7,0.1,1.4,0.2,2.1,0.2         c1.1,0,2.3-0.1,3.4-0.1c1.4,0.1,2.5,0.5,3.1,2.4c0.4,1.2,0.1,2.4-0.6,3.5c-0.5,1.5-1.2,2.8-2.2,3.9c-0.8,0.8-2.1,1-3,1.6         c0,0,0,0,0,0c-0.4,0.1-0.8,0.2-1.1,0.2c-0.4,0-0.9-0.4-1.3-0.5c-0.1,0-0.2-0.1-0.4-0.1c-0.8-0.3-1.6-0.5-2.2-1.2         c-0.9-1-1.7-2.4-2.2-3.9c-0.6-1.1-1-2.3-0.6-3.5C84.4,213.5,86.1,213.8,88.5,213.7z M95.8,221.7c0.2,0,0.4-0.1,0.7-0.1         c0.6-0.4,1.4-0.5,2-0.5c0.7,0.1,1.3,0.4,1.8,0.9c0,0,0.1,0.1,0.1,0.1c0.1,0.1,0.2,0.2,0.3,0.3c0,0,0,0.1,0,0.2         c0.9,1,0.8,2.9,0.5,4.1c-0.2,0.8-0.6,1.5-1.1,2.2c0,0,0,0.1-0.1,0.2c-1.1,2.1-3.5,3-5.8,3.5c-0.2,0.1-0.5,0.1-0.7,0.2         c-2.2,0.5-4.8,0.5-7.2-0.2c-0.1,0-0.1,0-0.2,0c-4-0.9-7.9-4.5-6.5-8.7c0,0,0,0,0-0.1c0.4-3.2,3.1-2.5,5.2-2c0,0,0,0,0,0         c0.3,0.9,0.5,1.8,1.3,2.5c0.4,0.3,0.9,0.5,1.4,0.6c0.4,0.1,0.7,0.2,1,0.4c0.6,0.3,1,0.6,1.6,0.6c0.6,0,1-0.2,1.5-0.5         c0.6-0.3,1.3-0.4,1.9-0.7c0.3-0.1,0.6-0.2,0.8-0.5C95.3,223.5,95.5,222.6,95.8,221.7C95.8,221.7,95.8,221.7,95.8,221.7z          M115.4,223.4c-0.6,0.7-1.3,0.9-2.2,1.2c-0.3,0.1-0.5,0.2-0.8,0.3c0,0,0,0,0,0c-1.5,0.8-3,1.6-4.3,2.8         c-0.1,0.1-0.2,0.2-0.4,0.3c-2,2.5-3.5,5.6-6.4,7.1c-1.6,0.8-3.4,0.3-5,0c-1.4-0.3-2.7-0.5-4-0.5c-0.1,0-0.3,0-0.4,0         c-1.1,0-2.2,0-3.3,0c-1.4-0.1-2.8,0.2-4.3,0.5c-1.6,0.3-3.4,0.8-5,0c-2.9-1.5-4.4-4.6-6.4-7.1c-0.1-0.1-0.3-0.2-0.4-0.3         c-1.3-1.1-2.7-1.9-4.1-2.7c-0.3-0.1-0.6-0.2-0.9-0.2c-0.5-0.1-1.2-0.2-1.6-0.6c-1-0.8-1.4-1.8-1.6-3.1         c-0.4-2.2-0.1-4.2,0.8-6.1c0.7-2.3,2.2-4.4,4.8-4.2c2.2,0.2,4.2,1.1,6.1,2.2c2.2,1.2,5.1,2.1,7.7,1.3c-1.2,1.5-1,3.1-0.2,4.9         c0.2,0.5,0.5,1.1,1,1.8c-0.6-0.2-1.3-0.5-1.5-0.5c-1-0.2-2.1,0.2-2.9,0.9c-1.5,1.2-1.4,3.8-1,5.4c0.4,1.5,1.3,2.7,2.5,3.5         c3.5,3.4,9.4,3.5,13.9,2.1c2.2-0.6,4.1-1.8,5.4-3.7c0.6-0.8,0.9-1.6,1-2.5c0-0.5,0-1.1,0-1.7c-0.1-1-0.3-1.8-0.8-2.7         c-0.1-0.2-0.3-0.4-0.5-0.5c-0.8-0.6-1.9-1.1-2.9-0.9c-0.2,0-0.9,0.3-1.5,0.5c0.5-0.7,0.8-1.3,1-1.8c0.8-1.8,0.9-3.4-0.2-4.9         c2.5,0.8,5.5-0.2,7.7-1.3c1.9-1,3.9-1.9,6.1-2.2c3.1-0.3,4.7,2.8,5.2,5.5c0.1,0.5,0.2,1,0.2,1.6         C116.6,219.7,116.6,222,115.4,223.4z" />
			<path class="st12"
				d="M84,219.7c0.5,1.5,1.2,2.8,2.2,3.9c0.5,0.6,1.4,0.8,2.2,1.2c0.1,0,0.2,0,0.4,0.1         c0.4,0.1,0.9,0.5,1.3,0.5c0.3,0,0.7-0.1,1.1-0.2c0,0,0,0,0,0c0.9-0.6,2.3-0.7,3-1.6c0.9-1,1.7-2.4,2.2-3.9         c0.6-1.1,1-2.3,0.6-3.5c-0.6-1.9-1.7-2.3-3.1-2.4c-1.1,0-2.3,0.1-3.4,0.1c-0.7,0-1.4-0.1-2-0.2c0,0,0,0,0,0         c-2.4,0.1-4.1-0.2-5,2.5C83.1,217.4,83.4,218.6,84,219.7z" />
			<path class="st12"
				d="M116.1,217.9c-0.1-0.5-0.1-1-0.2-1.6c-0.5-2.6-2-5.8-5.2-5.5c-2.2,0.2-4.2,1.1-6.1,2.2         c-2.2,1.2-5.1,2.1-7.7,1.3c1.2,1.5,1,3.1,0.2,4.9c-0.2,0.5-0.5,1.1-1,1.8c0.6-0.2,1.3-0.5,1.5-0.5c1-0.2,2.1,0.2,2.9,0.9         c0.2,0.2,0.4,0.3,0.5,0.5c0.5,0.9,0.7,1.6,0.8,2.7c0,0.5,0,1.1,0,1.7c-0.1,0.9-0.4,1.7-1,2.5c-1.3,1.8-3.2,3-5.4,3.7         c-4.5,1.3-10.4,1.2-13.9-2.1c-1.2-0.8-2.1-2-2.5-3.5c-0.4-1.6-0.4-4.2,1-5.4c0.8-0.6,1.9-1.1,2.9-0.9c0.2,0,0.9,0.3,1.5,0.5         c-0.5-0.7-0.8-1.3-1-1.8c-0.8-1.8-0.9-3.4,0.2-4.9c-2.5,0.8-5.5-0.2-7.7-1.3c-1.9-1-3.9-1.9-6.1-2.2         c-2.6-0.3-4.1,1.9-4.8,4.2c-0.8,1.9-1.2,3.8-0.8,6.1c0.2,1.3,0.6,2.2,1.6,3.1c0.4,0.3,1.1,0.4,1.6,0.6         c0.3,0.1,0.6,0.2,0.9,0.2c1.4,0.8,2.9,1.6,4.1,2.7c0.1,0.1,0.2,0.2,0.4,0.3c2,2.5,3.5,5.6,6.4,7.1c1.6,0.8,3.4,0.3,5,0         c1.5-0.3,2.9-0.5,4.3-0.5c1.1,0,2.2,0,3.3,0c0.1,0,0.3,0,0.4,0c1.3,0,2.6,0.2,4,0.5c1.6,0.3,3.4,0.8,5,0         c2.9-1.5,4.4-4.6,6.4-7.1c0.1-0.1,0.3-0.2,0.4-0.3c1.3-1.2,2.8-2,4.3-2.8c0,0,0,0,0,0c0.3-0.1,0.5-0.2,0.8-0.3         c0.9-0.3,1.5-0.5,2.2-1.2C116.6,222,116.6,219.7,116.1,217.9z M83.7,234.4c-0.6,0.9-2.4,0.7-3.3,0.5         c-1.1-0.2-1.9-1.1-2.1-2.2c0,0,0,0,0,0c-0.1-0.6-0.4-1.4,0.4-1.8c0.7-0.3,2,0.3,2.6,0.6C82,232,84.6,233.2,83.7,234.4z          M102.2,232.8C102.2,232.8,102.2,232.8,102.2,232.8c-0.2,1.1-1.1,2-2.2,2.2c-0.9,0.2-2.7,0.3-3.3-0.5         c-0.9-1.3,1.7-2.4,2.5-2.8c0.6-0.3,1.8-0.9,2.6-0.6C102.6,231.3,102.4,232.1,102.2,232.8z" />
			<path class="st15"
				d="M81.2,231.6c-0.6-0.3-1.8-0.9-2.6-0.6s-0.5,1.2-0.4,1.8c0,0,0,0,0,0c0.2,1,1,2,2.1,2.2         c0.9,0.2,2.7,0.3,3.3-0.5C84.6,233.2,82,232,81.2,231.6z M83.4,234.1c0,0.2-0.2,0.3-0.6,0.4c-0.7,0.2-1.5,0.1-2.1,0         c-1.1-0.2-1.7-1.2-1.9-2.3c0-0.1,0-0.2,0-0.2c0-0.2,0-0.3,0-0.5c0,0,0,0,0,0c0.2-0.1,0.5-0.1,0.7,0c0.6,0,1.2,0.4,1.8,0.6         C81.8,232.4,83.9,233.2,83.4,234.1z" />
			<path class="st15"
				d="M101.9,231c-0.7-0.3-2,0.3-2.6,0.6c-0.8,0.4-3.4,1.6-2.5,2.8c0.6,0.9,2.4,0.7,3.3,0.5         c1.1-0.2,1.9-1.1,2.1-2.2c0,0,0,0,0,0C102.4,232.1,102.6,231.3,101.9,231z M101.8,231.8c0,1.2-0.6,2.5-1.9,2.7         c-0.7,0.1-1.5,0.2-2.1,0c-0.7-0.2-0.7-0.5-0.5-0.8c0.1-0.3,0.4-0.7,0.6-0.9c1-1,2.5-1.5,3.9-1.4         C102,231.4,102,231.6,101.8,231.8z" />
		</g>
		<path class="st17"
			d="M81.3,216c-0.2,0.1-0.5,0.1-0.8,0.2c-1,0-2.3-0.6-3-0.8c-1.1-0.4-2.2-0.9-3.3-1.4        c-2-0.9-3.7-1.6-5.8-0.8c-3.5,1.2-3.6,6.7-2.5,9.5c0.1,0.2,0.3,0,0.3-0.2c0.4-2.2,2.4-3.4,4.4-3.9c1.7-0.4,3.4,0.1,5.1-0.1        c1.9-0.2,4.6-0.4,5.7-2.2C81.4,216.1,81.4,215.9,81.3,216z" />
		<path class="st17"
			d="M77.2,232.8c0-0.7-0.3-1.6-0.8-2.2c-0.5-0.6-1-0.8-1.8-0.9c0,0-0.1,0,0,0.1c0.1,0,0.2,0.1,0.2,0.1        c0,0,0,0.1,0,0.1c0.3,0.4,0.5,0.9,0.8,1.3c0.2,0.3,0.4,0.5,0.6,0.8c0,0,0.1,0.1,0.1,0.2c0.1,0.3,0.2,0.5,0.5,0.8        C77,233.2,77.2,233,77.2,232.8C77.2,232.9,77.2,232.8,77.2,232.8z" />
		<path class="st17"
			d="M87.6,218.8c-0.2-0.3-0.6-0.6-0.9-0.9c-0.3-0.3-0.3-0.8-0.7-1c-0.4-0.2-0.6-0.1-0.8,0.1        c-0.1,0-0.3,0.2-0.4,0.3c0,0,0,0,0,0.1c0,0,0,0-0.1,0.1s0,0.1,0,0.1c0,0,0,0,0,0.1l0,0c-0.4,1.1,0,2.3,0.8,3.2        c0.5,0.5,1.2,0.6,1.8,0.8c0.4,0.1,0.8,0.4,1,0.7c0.3,0.4,0.2,0.6,0.5,0.8c0.2,0.1,0.4,0,0.5-0.2        C90,221.3,88.4,219.9,87.6,218.8z" />
		<path class="st17"
			d="M99,216.1c1.1,1.8,3.9,2,5.7,2.2c1.7,0.2,3.4-0.3,5.1,0.1c2,0.5,4,1.7,4.4,3.9c0,0.1,0.3,0.3,0.3,0.2        c1.1-2.8,1-8.3-2.5-9.5c-2.1-0.7-3.8-0.1-5.8,0.8c-1.1,0.5-2.1,1-3.3,1.4c-0.8,0.3-2,0.8-3,0.8c-0.3,0-0.5-0.1-0.8-0.2        C99,215.9,99,216.1,99,216.1z" />
		<path class="st17"
			d="M103.2,232.8c0-0.7,0.3-1.6,0.8-2.2c0.5-0.6,1-0.8,1.8-0.9c0,0,0.1,0,0,0.1c-0.1,0-0.2,0.1-0.2,0.1        c0,0,0,0.1,0,0.1c-0.3,0.4-0.5,0.9-0.8,1.3c-0.2,0.3-0.4,0.5-0.6,0.8c0,0-0.1,0.1-0.1,0.2c-0.1,0.3-0.2,0.5-0.5,0.8        C103.4,233.2,103.2,233,103.2,232.8C103.2,232.9,103.2,232.8,103.2,232.8z" />
		<path class="st17"
			d="M91.1,222.9c0.1,0.2,0.3,0.4,0.5,0.2c0.3-0.2,0.2-0.4,0.5-0.8c0.3-0.3,0.6-0.6,1-0.7        c0.6-0.2,1.3-0.3,1.8-0.8c0.8-0.8,1.2-2.1,0.8-3.2h0c0,0,0,0,0-0.1c0,0,0-0.1,0-0.1c0,0,0,0-0.1-0.1c0,0,0,0,0-0.1        c0-0.1-0.2-0.3-0.4-0.3c-0.2-0.2-0.5-0.3-0.8-0.1c-0.4,0.2-0.4,0.7-0.7,1c-0.3,0.3-0.7,0.6-0.9,0.9        C92,219.9,90.5,221.3,91.1,222.9z" />
	</g>
</svg>