<svg version="1.1" id="Layer_1" xmlns="http://www.w3.org/2000/svg" xmlns:xlink="http://www.w3.org/1999/xlink" x="0px" y="0px" viewBox="0 0 256.5 381" style="enable-background:new 0 0 256.5 381;" xml:space="preserve">
	<g transform="translate(33,-10)">
		<style type="text/css">
			.st12 {
				fill: #FFFFFF;
			}

			.st15 {
				fill: #D1D1D1;
			}

			.st17 {
				fill: #E8E8E8;
			}
		</style>
		<g>
			<path class="st15"
				d="M113.1,158.2c0.2,1.4,1.1,3,2.7,3.2c2.4,0.2,3.6,1.8,5.1,3.4c1.2,1.1,2.3,2.3,3.3,3.6         c2.1,2.5,4.1,5.2,5.6,8c1.7,3.3,3.6,6.8,3.4,10.6c0,1,0.2,3.4,1.6,3.5c-0.2,0.3-0.5,0.5-0.6,1c-0.1,0.7,0.5,1.3,0.8,1.9         c1.2,2.1,3.1,3.7,4.2,5.9c1.4,2.8,2.5,5.7,3.5,8.6c0.5,1.3,1,2.6,1.3,3.9c0.4,1.8-0.2,2.9-0.8,4.5c-0.2,0.6-0.5,1.5-0.3,2.3         c-0.2-0.1-0.4,0-0.6,0.2c-0.3,0.3-0.4,0.7-0.4,1.1c-0.1,0.5-0.7,1.2-1.1,1.6c-1.1,1.3-1.8,3.3-2.4,4.9         c-0.2,0.4-0.4,1.1-0.4,1.7c-0.5,0.5,0.3,2.8,0.3,3.1c0,0.7,0,1.7,0.3,2.4c-0.7,0.6-0.2,1.7,0.1,2.5c0.2,0.4,1.1,2.6,1.8,2.3         c0.4-0.2,0.4-0.7,0.4-1.1c0-0.7,0-1.4-0.1-2.1c-0.1-0.4-0.2-0.8-0.5-1.1c0.5-0.8,0.4-2.5,0.4-2.9c0-0.8,0.7-1,0.7-1.8         c0-0.2-0.1-0.3-0.3-0.5c0.5-0.6,0.6-1.9,0.7-2.3c0.5-2,2.2-3.5,2.4-5.4c0.1,0.2,0.3,0.4,0.5,0.6c0,0-0.1,0-0.1,0         c-0.2,0-0.4,0.4-0.5,0.5c-0.5,0.8,0.7,2.2,0.9,2.8c0.5,1.9,0.8,4.1,1.1,6.1c0.1,0.7-0.5,1.7-0.2,2.3c0,0,0,0.1,0.1,0.1         c-0.2,0.1-0.3,0.2-0.2,0.5c0.5,1.7,0.5,3.5,0.1,5.2c-0.1,0.4-0.2,0.9-0.2,1.4c0,0.1,0,0.1,0,0.2c0,0.5-0.3,1-0.5,1.5         c-0.2,0.6-0.5,1.3-0.1,1.9c0.3,0.5,1.1,0.4,1.3-0.1c0.5-0.8,1-1.8,1-2.8c0.8-0.8,0.8-2.9,1-3.7c0.2-1.2,0.2-2.5,0.4-3.8         c0-0.4-0.2-0.5-0.4-0.8c0.3-0.5,0.2-1.1,0-1.9c-0.5-2-0.7-4.3-1-6.4c0.2,0.5,0.5,1,0.7,1.4c0.7,1.7,1.7,3.2,1.8,5         c0,0.2,0.1,0.5,0.2,0.7c-0.3,0.8,0.3,1.4,0.3,2.2c0,1.6-0.2,3-0.4,4.4c0,0,0,0-0.1,0c-0.4,1-0.8,2.1-1.2,3.1         c-0.2,0.4-0.6,1.2-0.3,1.6c0.3,0.6,1.3-0.1,1.5-0.4c0.5-0.7,0.9-1.3,1.2-2.1c1.1-0.3,1.2-4.2,1.2-4.8c0-0.6,0-1.2,0-1.9         c0,0,0.2-0.8,0.2-1.2c0-0.4-0.1-0.6-0.3-0.8c0.3-0.4,0.2-0.9,0-1.5c-0.5-1.8-1.2-3.7-1.8-5.4c-0.2-0.7-0.5-1.2-0.5-1.9         c0.4,0.5,1,1,1.3,1.6c1,1.9,1.4,3.7,2.1,5.7c0,0,0,0,0,0c-0.3,0.4-0.1,0.6,0,1.2c0.6,1.8,0.4,3.3,0.1,5.1         c0,0.2-0.3,1-0.3,1.6c-0.1,0.5-0.9,2.1-0.1,2.4c0.4,0.2,0.8-0.5,1-0.8c0.2-0.5,0.4-0.9,0.5-1.4c0.5-0.8,0.6-2.2,0.7-2.8         c0.2-1.2-0.1-2.9,0.4-4.1c0.2-0.5,0-0.8-0.2-1.3c0,0,0,0,0,0c0.5-2.5-1.8-5.3-2.9-7.3c-0.1-0.2-0.3-0.7-0.5-1.2         c0.8,0.9,1.6,1.8,2.2,3c0.5,1,0.8,2.6,1.4,3.6c0.4,1.5,0.5,2.8,0.5,4.3c0,0.1,0,0.3,0.1,0.4c-0.2,0.1-0.3,0.2-0.3,0.4         c-0.1,0.5-0.1,1.1-0.1,1.7c0,0.2,0,1.6,0.6,1c0.3-0.3,0.6-0.7,0.8-1.1c0.1-0.3,0.4-0.7,0.5-1c0-0.3,0-0.6-0.2-0.8         c0,0,0,0,0,0c0.2-0.5,0.2-1.2,0.3-1.6c0-1,0-1.9-0.4-2.8c0.1-0.2,0.2-0.4,0-0.7c-1-2.6-2.1-5-3.8-7.2c-0.7-1-0.8-1.4-1.1-2.4         c0-0.1-0.2-0.2-0.3-0.3c-0.5-0.3-1.2-0.1-1.6-0.2c-0.4-0.5-1.1-1.1-1.6-1.2c-0.2-0.6-0.4-1.2-0.6-1.8         c0.1-0.6-0.1-1.1-0.3-1.7c-0.1-0.5-0.2-1-0.4-1.5c0,0,0-0.1-0.1-0.1c-0.3-1.3-0.6-2.6-1-3.9c-1-3-1.9-5.9-3.2-8.8         c-0.7-1.5-1.5-3-2.1-4.5c-0.5-1.4-1.5-3.3-1.3-4.9c0.2-1.3-0.5-2.1-1.6-2.4c0.1-0.1,0.1-0.2,0.1-0.4c0.1-0.8-0.7-1.7-1-2.3         c-0.1-0.3-0.2-0.6-0.4-0.8c-0.5-1.7-1.4-3.3-2.1-4.9c-0.8-1.9-1.6-3.8-2.6-5.7c-2-3.8-3.6-8-6.5-11.3         c-1.4-1.5-2.8-3.1-4.1-4.7c-0.7-0.9-1.4-1.6-1.6-2.8c-0.1-0.4-0.5-0.7-0.7-1c-1.1-0.8-3.4-2.1-4.7-1.3         c-0.9,0.6-1.6,1.5-1.9,2.5C112.9,156.3,113,157.3,113.1,158.2z" />
			<path class="st12"
				d="M156.6,233.9c0.1,0.2,0.4,0.3,0.6,0.2c0.1,0,0.2-0.1,0.3-0.2c0.3,0.4-0.4,1.4-0.5,1.7         c-0.1,0.3-0.3,0.6-0.5,0.8c-0.3,0.3-0.2-0.5-0.2-0.6c0-0.4,0.1-0.8,0.1-1.2C156.4,234.2,156.4,234,156.6,233.9z" />
			<path class="st12"
				d="M156.1,229.2c0.4,0.3,0.9,0.3,1.2,0.1c0,0.2,0,0.6,0.1,0.9v0c0.1,0.7,0.1,1.4,0.1,2.1         c0,0.5,0.1,0.9-0.1,1.4c-0.2,0.3-0.6-0.1-0.6-0.3c-0.1-0.3-0.1-0.7,0-1C156.7,231.3,156.5,230.3,156.1,229.2z" />
			<path class="st12"
				d="M151.9,221.6c-0.2-0.4-0.5-0.7-0.8-0.8c0.3-0.6,0.4-1.2,0-1.9c0-0.1-0.1-0.1-0.1-0.2         c1.4,0,1.3,0.9,1.9,1.8c1.4,2.1,2.7,4,3.8,6.3c0,0.1,0.1,0.2,0.1,0.2c0.2,0.3,0.3,0.6,0.4,1c0,0,0,0,0.1,0.1         c0.1,0.2,0.1,0.4,0.2,0.6c0,0.1,0,0.2-0.1,0.3c-1.3,0.5-1.5-1.1-1.8-2.2c-0.2-0.5-0.4-1.1-0.7-1.6         C154,223.8,153.1,222.5,151.9,221.6z" />
			<path class="st12"
				d="M153.7,239.5c0.3,0.1,0.6,0,0.8-0.3c-0.1,0.3-0.2,0.6-0.4,0.9c-0.1,0.1-0.9,1.3-0.9,0.7         c0-0.4,0-0.7,0.1-1c0-0.1,0.1-0.3,0.1-0.4C153.5,239.4,153.6,239.5,153.7,239.5z" />
			<path class="st12"
				d="M153.8,231.3c0.5,0.5,1.3,0.6,1.7-0.1c0,0.3-0.1,0.6-0.2,1c-0.1,0.7,0,1.5-0.1,2.2         c-0.1,0.7-0.1,1.4-0.2,2c0,0.2-0.1,0.3-0.1,0.5c0.1,0.1,0.1,0.2,0.1,0.2c-0.1,0.7,0,1.6-0.8,1.9c-0.2,0.1-0.5-0.2-0.5-0.4         c0,0,0-0.1,0-0.2c0,0,0,0-0.1,0c0-0.1,0-0.2,0.1-0.3c0-0.1,0-0.1,0-0.2c0,0,0,0,0,0c0.2-1.2,0.5-2.5,0.6-3.7         C154.4,233.6,153.7,232.1,153.8,231.3z" />
			<path class="st12"
				d="M149.9,222.2C149.9,222.2,149.8,222.2,149.9,222.2c0.4-0.4,0.8-0.8,1-1.3c0.7,0.5,1.6,2.7,2,3.3         c0.4,0.6,3.7,6.5,1.7,6.9c-1.1,0.2-1.1-2.2-1.4-2.9c-0.3-0.9-0.7-1.7-1.1-2.6c-0.4-0.7-0.7-1.5-1.2-2.1         C150.6,223.1,150.1,222.8,149.9,222.2z" />
			<path class="st12"
				d="M151.2,241c-0.3,0.6-0.7,1.1-1.1,1.6c-0.1,0.1-1.1,0.9-1.1,0.7c0-0.3,0.1-0.5,0.2-0.8         c0.3-0.8,0.7-1.6,0.9-2.5C150.2,240.6,150.4,241,151.2,241z" />
			<path class="st12"
				d="M150.6,232.4c0.4,0.5,1,0.7,1.6,0.2c0.1-0.1,0.1-0.1,0.2-0.2c0.5,1.1-0.2,0.5-0.1,1.4         c0,0.7,0,1.5,0,2.2c0,0.8,0,1.6-0.2,2.3c0,0.5,0,1.1-0.2,1.5c-0.2,0.5-0.9,0.8-1.2,0.3c-0.2-0.2-0.2-0.5-0.2-0.8l0,0         c0.3-1.5,0.5-2.8,0.5-4.3C151,234.5,150.5,233,150.6,232.4z" />
			<path class="st12"
				d="M147.6,223.3C147.6,223.3,147.6,223.3,147.6,223.3c0-0.2,0-0.3-0.1-0.4c0.1,0,0.2,0,0.3,0         c0.1,0,0.1-0.1,0.3-0.1c0.1,0,0.1,0,0.2,0c0.4-0.1,0.9-0.2,1.3-0.5c0,0,0,0.1,0.1,0.1c0.1,0.2,0.2,0.5,0.3,0.7         c0,0.2,0,0.3-0.1,0.5c0,0.2,0,0.3,0,0.5c0,0,0,0,0,0.1c0.2,0.7,0.6,1.3,0.8,2c0.4,1.1,0.8,2.2,1.1,3.3         c0.1,0.4,0.2,0.8,0.4,1.2c0.2,0.3,0.3,0.6,0.3,0.9c0,0.6-0.7,0.7-1.1,0.5c-0.3-0.1-0.4-0.4-0.5-0.6c-0.1-0.1-0.2-0.3-0.2-0.6         c0-0.2,0-0.4,0-0.6c-0.2-1.1-0.6-2.1-1.1-3.2c-0.5-1-1-1.9-1.5-2.9C147.8,224.1,147.6,223.7,147.6,223.3z" />
			<path class="st12"
				d="M146,241.4c0.1,0.2,0.4,0.3,0.8,0.3c0.3,0,0.5-0.1,0.7-0.2c-0.2,0.6-0.5,1.2-0.8,1.7         c-0.2,0.3-0.3,0.5-0.5,0.8c-0.2,0.3-0.5,0.3-0.8-0.1c0-0.2,0-0.3,0-0.4c0.1-0.5,0.3-0.9,0.4-1.4         C145.9,241.8,146,241.6,146,241.4z" />
			<path class="st12"
				d="M146.5,239c0.1-0.8,0.2-1.7,0.2-2.5c0-0.6-0.4-2.2-0.1-2.7c0.3,0,0.6-0.1,1-0.2         c0.4-0.1,0.6-0.3,0.8-0.4c0.1,0.9-0.1,1.8-0.1,2.8c0,1.3,0,3.4-0.6,4.6c-0.7,1.3-1.3,0.8-1.4,0c0,0,0,0,0,0         c0.1,0,0-0.1,0-0.2c0-0.2,0-0.3,0-0.5C146.3,239.6,146.4,239.3,146.5,239z" />
			<path class="st12"
				d="M145.4,222.2c0.2,0.1,0.5,0.3,0.8,0.4c0.2,0.1,0.5,0.2,0.7,0.2c0,0,0,0,0,0c0,0,0,0,0.1,0.1         c0,0.3,0.1,0.7,0.2,1c0.1,0.7,0.1,1.6,0.2,1.8c0.3,1.3,0.4,2.7,0.5,4.1c0.1,0.7,0.2,1.2,0.3,1.9c0.1,0.2,0.1,0.4,0,0.6         c0,0.2,0,0.5-0.3,0.7c-0.3,0.3-0.9,0.6-1.3,0.4c-0.6-0.3-0.3-1.1,0-1.7c-0.3-2.2-0.7-4.4-1.1-6.5c-0.1-0.6-0.1-1.3-0.6-1.8         C143.8,222.3,144.7,222.2,145.4,222.2z" />
			<path class="st12"
				d="M144.6,219.9c1-0.6,1.7-0.1,2.8,0.2c1.4,0.4,2.4-0.6,2-2.1c0,0,0-0.1,0-0.1c0.4,0.3,1,0.8,0.9,0.8l0,0         c0.1,0,0.3,0.1,0.3,0.2c0.2,0.4,0.3,0.8,0.2,1.2v0c0,0.1,0,0.2-0.1,0.2c-0.2,0.7-1,1.3-1.7,1.8c-1.1,0.7-2.7,0.7-3.6-0.3         c0,0,0,0,0-0.1C144.8,221.3,144.5,220.7,144.6,219.9z" />
			<path class="st12"
				d="M139.1,234c0.2,0.2,0.4,0.3,0.7,0.4c0.2,0,0.3,0,0.5-0.1c0.4,0.4,0.4,1,0.4,1.5c0,0.4,0.1,0.7,0.1,1.1         c0,0.2,0,1.4-0.5,0.7C139.8,236.9,138.3,234.8,139.1,234z" />
			<path class="st12"
				d="M138.7,228.9c0.5,0.3,1.1,0.3,1.7,0.3c0.1,0,0.1-0.1,0.2-0.1c0.1,0,0.2,0,0.2,0c0,0,0.1,0,0.1,0         c0,0,0,0,0,0.1c0.1,0.1,0.2,0.2,0.2,0.3c0,0.4-0.2,0.7-0.5,1c-0.4,0.5-0.2,1-0.2,1.5c0,0.4,0,1.8-0.7,1.8         c-0.4,0-0.5-0.3-0.6-0.7l0,0l0,0c-0.1-0.3-0.1-0.6-0.1-0.9c0-0.8-0.1-1.5-0.2-2.2C138.8,229.6,138.7,229.2,138.7,228.9z" />
			<path class="st12"
				d="M143.6,219.4c0.1,0.1,0.2,0.2,0.3,0.2c0.2,1,0,1.9-0.5,2.8c-0.2,0.5-0.4,0.9-0.7,1.3         c-0.6,0.9-1.1,1.6-1.2,2.7c-0.1,0.7-0.1,1.3-0.6,1.9c-0.3,0.4-0.8,0.3-1.2,0.2c0,0-0.1,0-0.2,0c-0.5,0.1-0.7-0.2-0.8-0.8         c0-0.1,0.1-0.3,0.1-0.4c0-0.3,0.1-0.6,0.2-0.9c0.5-1.7,1.5-3.7,2.5-4.9c0.1-0.2,0.7-0.7,0.8-1c0.1-0.6,0-1.9,0.8-1.8         C143.2,219.1,143.4,219.3,143.6,219.4z" />
			<path class="st12"
				d="M135.1,190.5c0.6,0,1-0.3,1.1-1c0.5-1.7,1.5-1.2,2.1-1.4c0.1,0,0.2,0.1,0.2,0.2c0.5,0.1,1,0.7,1.1,1.2         c0.2,0.8,0.2,1.7,0.1,2.5c0.4,0.9,0.7,1.8,1.1,2.6c1,2.4,2.1,4.7,3.1,7.1c1,2.6,2,5.4,2.6,8.2c0.2,0.7,0.4,1.3,0.5,2         c0.7,1.2,1,2.7,1.1,4.1c0.2,0.4,0.4,0.9,0.6,1.4c0,0,0,0,0,0c0.3,0.7,0.6,1.4,0,2.1c-0.5,0.5-1.4,0.1-1.9-0.1         c-0.6-0.3-1-0.4-1.6-0.2c-0.3,0.1-0.6,0.1-0.9,0.1c-0.4-0.1-0.6-0.4-0.7-0.7c0,0,0-0.1,0-0.1c0,0,0,0,0,0c0-0.1,0-0.2,0-0.3         c-0.1-1.3,0.7-2.5,1.3-3.7c0.2-1-0.1-2.4-0.4-3.3c-1.3-3.8-2.7-7.7-4.5-11.3c-0.7-1.5-1.5-3.1-2.4-4.5         c-0.6-0.7-1.3-1.4-2-2.1c-0.4-0.4-0.7-1-0.6-1.6C134.8,191.1,134.9,190.9,135.1,190.5z" />
			<path class="st12"
				d="M113.6,156.6c0-1.3,0.5-3.6,2.2-3.4c1.1,0.1,2,0.5,3,1.1c0.9,0.5,1,1.3,1.3,2.1         c0.5,0.6,1.3,1.2,1.8,1.7c2.2,2.7,4.7,5.1,6.5,8.1c1.8,3,3.4,6.3,4.9,9.6c0.8,1.7,1.5,3.4,2.2,5.1c0.3,0.6,0.6,1.3,0.9,1.9         c0,0,0,0,0,0c0.2,0.8,0.5,1.7,0.8,2.5c0.3,0.5,0.8,0.9,1.1,1.4c0.4,0.9-0.6,1.1-1.2,1.3c0,0-0.1,0-0.1,0         c-0.4,0.2-0.7,0.5-1,0.8c0,0.3-0.1,0.6-0.3,0.9c-0.3,0.3-0.8,0.2-1.1-0.1c-0.4-0.5-0.4-1.2-0.3-1.8c0-0.1,0-0.3,0-0.4         c-0.1-0.9-0.1-1.8-0.1-2c0-2-1.1-4.1-1.9-5.9c-0.9-2-1.8-4.1-3.1-5.9c-2.7-3.9-5.6-7.3-8.9-10.7c-0.6-0.6-1.2-1.2-1.9-1.7         c-0.5-0.2-0.9-0.3-1.5-0.4c-0.5,0-1,0-1.5-0.1C113.8,160.3,113.6,158,113.6,156.6z" />
		</g>
		<path class="st17"
			d="M119.4,155.8c0.5,0.6,0.8,1.5,1,2.2c0.8,1,2,1.9,2.7,2.7c1,1.1,1.9,2.3,2.6,3.6c0,0.1,0,0.2-0.1,0.1        c-0.8-0.5-1.5-1.4-2.1-2c-1.4-1.3-3.1-2.2-4.9-2.8c-1.7-0.6-3-1.5-3.6-3.4C113.8,152.7,118.1,153.8,119.4,155.8z" />
		<path class="st17"
			d="M137.5,190.3c0.2-0.4,0.2-0.9,0.5-1.2c0.1-0.1,0.2-0.1,0.3,0c0.3,0.2,0.5,0.4,0.5,0.7        c0.4,0.5,0.5,1.2,0.4,1.9c-0.1,1.4,1.3,2.8,1.4,4.2c0,0.2-0.2,0.1-0.2,0c-1.1-1.3-1.9-3-3.5-3.7c-0.1-0.1-0.2-0.2-0.2-0.3        C136.8,191.3,137.3,190.8,137.5,190.3z" />
	</g>
</svg>