<svg version="1.1" id="Layer_1" xmlns="http://www.w3.org/2000/svg" xmlns:xlink="http://www.w3.org/1999/xlink" x="0px" y="0px" viewBox="0 0 256.5 381" style="enable-background:new 0 0 256.5 381;" xml:space="preserve">
	<g transform="translate(33,-10)">
		<style type="text/css">
			.st12 {
				fill: #FFFFFF;
			}

			.st15 {
				fill: #D1D1D1;
			}

			.st16 {
				fill: #F6F6F6;
			}

			.st17 {
				fill: #E8E8E8;
			}
		</style>
		<g>
			<path class="st15"
				d="M94.8,330.6c0.1,1.6,2.6,3.2,4.1,2.7c0.6-0.2,1.3-0.3,1.9-0.5c0.8,0.6,1.9,0.8,2.7,1.2         c0.9,0.4,1.8,0.6,2.7,1c0.9,0.5,1.2,1.1,1.9,1.7c0,0,0,0,0,0c0.9,1,2.6,1.2,3.8,1.4c0.6,0.1,2.7,1.4,3.3,0.5         c0.7-1,0.5-2-0.1-3c-0.7-1-1.7-1-2.7-1.7c0,0,0,0,0,0c0,0,0.1-0.1,0.1-0.1c0.1-0.1,0-0.2-0.1-0.3c-0.8-0.6-1.5-0.2-2.5-0.5         c-1.4-0.4-2.6-1.5-3.8-2.3c0.7,0.3,1.4,0.5,2.2,0.7c1.7,0.6,3.4,1.2,4.9,2.1c0.7,0.4,1.2,0.8,1.8,1c0,0,0,0.1,0,0.1         c0.4,1.5,0.7,1.9,2.1,2.5c0.7,0.3,1.4,0.8,2,1.1c0.4,0.2,0.8,0.2,1.1,0c0.3-0.2,0.6-0.5,0.8-0.8c0.1,0,0.2-0.1,0.3-0.1         c0.2,0,0.5,0,0.7,0.1c0.4,0.1,0.8,0.1,1.2,0.1c0.3,0,0.6,0,0.9-0.2c0.8,0.1,1.6,0.5,2.4,0.2c0.2-0.1,0.4-0.2,0.5-0.5         c0.1,0,0.1,0,0.2,0c0.5-0.3,1,0,1.5-0.2c0.2-0.1,0.6-0.4,0.7-0.6c0.4-0.6-0.1-1.2-0.4-1.7c-0.6-0.8-1.8-2.4-3-2         c0-0.1,0-0.1,0-0.2c-0.2-0.9-0.8-1.1-1.7-1.4c-2.2-0.8-4.3-1.6-6.5-2.4c-1.2-0.4-2.6-1.1-3.9-1.5c-0.2-0.1-0.4-0.3-0.6-0.4         c-0.1,0-0.3-0.1-0.4-0.1c-0.1-0.2-0.2-0.4-0.3-0.5c-0.2-0.2-0.4-0.3-0.7-0.4c-0.7-0.7-1.8-1.4-2.7-1.7         c0.1-0.1,0.2-0.3,0.3-0.5c0.5-1.5-0.8-3.5-1.4-4.8c-2.2-4.9-1.8-10-1.6-15.2c0.1-3.1,0.3-6.3,0.6-9.3c0.3-2.8,0.4-5.7,1-8.4         c0.3-1.5,0.8-3,1.3-4.5c0.5-1.3,1.5-1.4,2.4-2.3c1.3-1.3,0.5-2.2,0.2-3.8c0.2-0.2,0.3-0.4,0.5-0.7c0.3-0.6,0-1.7-0.3-2.2         c-1-1.8-2.1-3.4-2.1-5.5c0-1.8,0.1-3.7,0.3-5.4c0.4-3.7,0.6-7.4,1.1-11.1c0.3-2,0.5-4,0.8-5.9c0.1-0.8,0.2-2,0.8-2.6         c0.7-0.4,1.5-0.8,2.1-1.2c2.2-1.4,2.1-3.8,0.3-5.5c-0.7-0.6-1.9-0.6-2.7-0.4c-1.1,0.2-3.6,0.7-3.5-1.4c0-0.3,0.1-1.4,0-1.8         c-0.3-1-1.7-3-2.7-1.5c0,0,0,0.1,0,0.1c0,0,0,0,0,0c0,0,0,0-0.1,0c-0.8,0.9-1.5,1.8-2.4,2.5c-0.6,0.5-1.2,0.9-1.8,1.4         c-0.5,0.6-0.7,1.5-0.3,2.1c0.9,1.2,2.5,0.9,3.3,2.1c-0.2,0.2-0.5,0.4-0.8,0.5c-0.2,0.1-0.6,0.3-0.8,0.5         c-0.3,0.5-0.5,1-0.3,1.7c0.2,0.6,0.7,1.1,1.2,1.4c0.4,0.2,1.4,0.1,1.7,0.6c0.2,0.4,0.4,0.9,0.5,1.3c0,0,0,0,0,0         c0,0.3,0,0.6-0.1,0.9c-0.1,1.8-0.2,3.5-0.4,5.2c-0.3,3.1-0.3,6.2-0.6,9.2c-0.1,1.5-0.2,3.2-0.4,4.8c0,0.1,0,0.2-0.1,0.3         c-0.2,0.7-0.5,1.3-0.8,1.8c-1.1,1.5-2.8,2.5-3.9,4c-0.4,0.6-0.6,1.2-0.7,1.7c-0.2,0.7-0.3,1.3,0.1,2.2c0,0,0,0.1,0,0.1         c-0.3,1.3-0.9,2.7-0.1,4c1.2,2.2,2.3,4.3,2.3,6.9c0,5.8-0.3,11.6-0.5,17.3c-0.1,2.5-0.4,4.9-0.5,7.3         c-0.1,2.7-0.3,5.9-1.6,8.3c-0.7,1.3-2.8,3.5-2.2,5.2c0.1,0.2,0.2,0.4,0.3,0.5c-0.6,1.2-1.8,1.9-2.3,3.1         C94.9,328.2,94.7,329.5,94.8,330.6z" />
			<path class="st12"
				d="M110.5,275.1c-0.2,0.1-0.4,0.1-0.6,0.2c0,0,0,0,0,0c-0.1,0-0.2,0-0.3-0.1c0.1-0.4,0.3-0.8,0.3-1.2         c0,0,0,0,0-0.1c0.1,0,0.3,0.1,0.4,0.1c0,0,0,0,0-0.1c-1.4-0.9-2-2.2-4-2.1c-0.7,0-1.4,0.1-2,0.5c-0.5,0.4-1,1-1.5,1.4         c0,0,0,0-0.1,0c-0.2,0.2-0.4,0.3-0.7,0.5c-0.1,0,0,0.1,0.1,0.1c0.3-0.1,0.5-0.2,0.7-0.3c0.1,0.2,0.3,0.5,0.4,0.7c0,0,0,0,0,0         c0,0.1,0,0.1-0.1,0.2c-0.4,0.2-1,0.5-1.4,0.3c-0.5-0.2-0.9-0.6-1.1-1.1c-0.5-0.9-0.3-1.8,0.2-2.6c0,0,0,0,0,0         c0,0,0-0.1,0.1-0.1c0.2-0.3,0.4-0.6,0.7-0.9c0.3-0.4,0.7-0.7,1-1c1.3-1.1,2.6-2.2,3.1-3.9c0.4-1.4,0.6-2.9,0.6-4.4         c0.1-1.6,0.2-3.2,0.4-4.8c0.3-3.2,0.6-6.4,0.7-9.6c0-0.7,0.1-1.8,0-2.7c0-0.6-0.1-1.3-0.5-1.8c-0.1-0.1-0.3-0.3-0.5-0.4         c-0.3-0.1-0.7-0.1-1-0.2c-0.5,0-0.8-0.2-0.9-0.7c-0.2-0.2-0.4-0.5-0.3-0.9c0.2-0.9,1.1-0.8,1.8-1.1c0.9-0.7,0.9-1.8,0.3-3.1         c0,0,0,0,0,0c0.2,0.7,0,1.3-0.3,1.8c-0.5-1-2-1.3-3-1.7c-1.8-0.7,2.8-4,3.2-4.5c0.3-0.4,0.7-1.2,1.2-1.5c0-0.1,0-0.2,0.2-0.2         c1.5,0.2,1.2,1.7,1.2,3c0,0.2,0,0.5,0.1,0.8c0.1,0.5,0.3,0.9,0.7,1.3c1,1,3.4-0.4,4.5-0.1c0.7,0.1,1.2,0.5,1.5,1         c0.9,0.8,1.2,2.1,0.6,3.1c-0.5,0.8-1.3,1.3-2.2,1.6c-0.4,0.2-0.8,0.4-1.2,0.6c-0.1,0-0.2,0.1-0.3,0.1         c-0.4,0.4-0.8,0.8-1.2,1.2c0,0.1-0.1,0.3-0.1,0.4c0.1,0,0.1-0.1,0.2-0.2c0.4-0.3,0.8-0.5,1.2-0.8c-0.1,0.2-0.2,0.3-0.2,0.5         c-0.5,1.5-0.6,2.9-0.8,4.4c-0.5,3.6-1,7.1-1.4,10.7c-0.3,2.7-0.5,5.5-0.3,8.3c0.1,1.4,0.3,2.8,0.8,4.2         c0.1,0.4,0.3,0.8,0.5,1.2c0.4,0.7,0.8,1.4,1,2.2C112.3,274.7,111.4,275,110.5,275.1z" />
			<path class="st16"
				d="M103,274c0.3-0.2,0.6-0.4,0.9-0.5c0.7-0.2,1.5-0.5,2.2-0.6c1.5-0.1,2.4,0.6,3.6,1c0,0,0,0,0,0         c-0.9,1.8-2.5,3.4-4.6,2.3C104.1,275.6,103.8,274.7,103,274z" />
			<path class="st12"
				d="M107.7,323.6c-0.9,0-1.7-0.2-2.6-0.2c0,0,0,0-0.1,0c-0.2,0-0.4-0.1-0.6,0c0,0-0.1,0-0.1,0         c0.8-0.2,1.6-0.4,2.5-0.4c0,0,0-0.1,0-0.1c-1.4-0.2-2.5-0.3-3.9,0.1c-1.6,0.5-3,1-4.7,0.7c0,0,0,0,0,0         c-0.8-1.4,2.3-5.5,2.5-6.3c0.8-2.4,1.1-4.6,1.4-7.1c0.4-4.3,0.3-8.6,0.4-12.9c0-2.5,0.1-5,0.4-7.5c0.2-2.3,0.5-4.3,0.1-6.6         c-0.3-1.6-0.8-3.1-1.7-4.4c-1-1.5-0.9-2.7-0.8-4.2c0.3,0.5,0.8,0.9,1.4,0.8c0,0,0,0,0.1,0c0.6,0.1,1.1-0.3,1.6-0.7         c0.7,1,1.5,1.9,2.9,2.1c1.6,0.2,2.6-0.5,3.2-1.7c0.5,0.2,1,0.2,1.4,0c0.3,0,0.6,0,0.8-0.2c0,0,0,0,0,0         c-0.1,0-0.1,0.2-0.1,0.4c0.1,0.4,0.2,0.8,0.2,1.2c0,1.2-1.4,1.6-2.1,2.3c-1.2,1.3-1.6,3.2-2,4.9c-1.4,5-1.4,10.5-1.6,15.7         c-0.2,4.5-0.9,9.1-0.1,13.6c0.3,2.1,1,3.9,1.9,5.8C108.1,320,110,323.6,107.7,323.6z" />
			<path class="st16"
				d="M111.2,327.7c0.4,0,0.8,0,1.1-0.2c1.5,0.5,3,1.6,4.4,2.2c1,0.5,2,0.8,3,1.1c0.8,0.2,1.5,0.5,2.2,0.8         c0.4,0.2,0.9,0.4,1.3,0.6c0,0.3,0,0.6,0.1,0.8c-0.5,0-0.9,0.1-1.3,0.3c0-0.5-0.5-0.8-1-0.9         C117.6,331,114.4,329.6,111.2,327.7z" />
			<path class="st16"
				d="M117.2,331.7c0.6,0.2,1.1,0.5,1.8,0.7c0.3,0.1,1.9,0.9,2.1,1c-0.6,0-1.2,0-1.7,0.3         c-0.3-0.7-1-0.8-1.7-1.1c-2.1-0.7-4.6-1.7-6.5-2.9c-0.9-0.6-1.6-0.9-2.4-1.7c-0.1-0.2-0.3-0.3-0.5-0.4c0.7,0,1.4,0.1,2.1,0.1         c0.1,0,0.3,0,0.5,0C112.6,329.4,115,330.8,117.2,331.7z" />
			<path class="st16"
				d="M124.7,332.8c-0.1,0-0.2,0-0.4,0.1c-0.1-0.5-0.6-0.8-1-1c-2-1-4-1.6-5.9-2.5c-1.6-0.7-3.2-1.6-5-1.9         c0.1-0.1,0.2-0.3,0.2-0.5l0,0c0.1,0,0.2,0.1,0.2,0.1c0.1,0,0.2-0.1,0.2-0.1c1.2,0.5,2.5,1,3.7,1.5c1.4,0.5,2.9,1,4.3,1.6         c1.2,0.5,2.4,1,3.7,1.4C125.4,332.3,125.3,332.8,124.7,332.8z" />
			<path class="st16"
				d="M124.6,333.3c0.4-0.1,0.9-0.2,1.1-0.4c1.4-0.1,2.4,0.7,3.1,1.9c0.6,0.9,0.2,1.8-0.9,1.6         c-0.3,0-0.5,0-0.7,0c0.1-0.2,0.1-0.5,0.1-0.7C127.2,334.3,125.8,333.8,124.6,333.3z" />
			<path class="st16"
				d="M123.7,334.7c-0.5-0.2-1-0.6-1.5-0.9c0.7-0.1,1.5-0.2,1.9-0.4c0.1,0,0.2,0,0.3-0.1         c1,0.7,2.6,1.3,2.3,2.6c-0.2,0.9-0.8,1-1.6,0.9c-0.1,0-0.3,0-0.4,0c0-0.1,0-0.2,0-0.2C124.8,335.7,124.4,335.1,123.7,334.7z" />
			<path class="st16"
				d="M119.4,334.1c0.5-0.2,1.8,0.1,2.3-0.2c0,0,0,0,0.1,0c0.5,0.3,1,0.8,1.5,1.1c0.7,0.5,1,1.4,0.1,1.8         c-0.6,0.3-1.1,0.3-1.7,0.2c-0.2,0-0.4,0-0.5,0c0.3-0.6,0.4-1.3,0-2C121,334.4,120.1,334.2,119.4,334.1z" />
			<path class="st16"
				d="M115.3,334.5c0.3,0,0.5,0.1,0.9,0c0.9-0.1,2.1,0,3-0.3c0.8,0.4,2,0.7,1.8,1.8c-0.2,1.2-0.9,2-2.2,1.3         c-0.5-0.3-1.1-0.5-1.6-0.7c-0.6-0.2-1.4-0.3-1.6-1C115.4,335.2,115.4,335,115.3,334.5C115.3,334.5,115.3,334.5,115.3,334.5z" />
			<path class="st16"
				d="M104.6,329.6c-0.5-0.4-1-1-1.6-1.2c0.6-0.8,1.8-1,2.9-1c0,0,0,0.1,0,0.1c0.1,0,0.2,0,0.3,0         c0.3,0,0.5,0,0.8,0c1,0.3,1.5,1.4,2.5,2c1,0.6,2.1,1.1,3.2,1.5c1.2,0.5,2.3,1.1,3.5,1.6c0.5,0.2,4.1,1.5,2.1,1.5         c-1.3,0-3,0.2-4.1-0.6c-0.8-0.6-1.7-1-2.6-1.4c-1.3-0.6-2.7-1.1-4.1-1.6C106.7,330.2,105.6,330,104.6,329.6z" />
			<path class="st16"
				d="M109.1,336.7c0.2-0.1,0.4-0.3,0.5-0.6c0.4-1,1-1.5,2-1.8c0.3-0.1,0.6-0.2,0.8-0.4c0,0,0,0,0,0         c0.3,0.3,0.7,0.5,1,0.6c0.9,0.5,2,1.5,1.7,2.7c-0.4,1.4-1.5,0.7-2.3,0.4C111.6,337.3,110.3,337,109.1,336.7z" />
			<path class="st16"
				d="M101.2,330.1c0.3-0.5,0.9-0.6,1.3-1c0.6,0.1,1.3,0.7,1.7,1c1,0.8,1.9,1.2,3,1.7c1.1,0.6,2,1.2,3.2,1.5         c0.2,0,1.8,0.3,1.3,0.5c-0.4,0.1-0.8,0.2-1.1,0.3c-0.9,0.3-1,1-1.5,1.8c-0.6,1-1.8-1.1-2.3-1.5c-1.5-1.1-3.5-1.5-5.3-2.2         c0.2-0.3,0.3-0.8-0.1-1.6C101.4,330.5,101.3,330.3,101.2,330.1z" />
			<path class="st16"
				d="M101.2,329c-0.1,0-0.2,0.1-0.3,0.2c-0.6-1.5-1.2-3-2.1-4.3c0.2,0,0.4,0,0.7,0c0,0,0,0,0,0         c0.5,0,1-0.1,1.5-0.2c0.8-0.2,1.5-0.5,2.3-0.7c0.4,0.2,0.9,0.2,1.4,0.1c0.5-0.1,0.9,0,1.4-0.1c1,0.3,2.4,0.8,3.2,0.2         c0.8,0.3,1.8,1.2,2.3,1.5c0.1,0.1,0.2,0.2,0.3,0.3c0.1,0.1,0.2,0.2,0.4,0.3c0.1,0.1,0.3,0.3,0.1,0.5         c-0.2,0.2-0.4,0.3-0.7,0.3c-0.2,0.1-0.4,0.2-0.7,0.2c-0.4,0-0.7,0-1.1,0c-0.7,0-1.4-0.1-2.1-0.1c-0.4-0.1-0.7-0.2-1.1,0         c-0.7,0-1.4,0-2.2,0c-0.5,0-1.1,0.1-1.5,0.4c-0.4,0.4-0.4,0.7-0.6,1c-0.1,0.1-0.3,0.2-0.4,0.3         C101.6,328.9,101.4,329,101.2,329z" />
			<path class="st16"
				d="M95.8,328c0.4-1.4,1.5-2.4,1.9-3.8c0,0,0,0,0,0.1c0,0,0,0,0,0c0.5,0.9,1.3,1.4,1.6,2.5         c0.2,0.8,0.5,1.6,0.9,2.3c-0.1-0.1,0.1,0.2,0.3,0.7c0,0.1,0,0.2,0,0.2c0.2,0.4,0.4,0.8,0.4,1.2c0,1-1.6,1.2-2.3,1.3         c-1.4,0.2-2.6-0.3-3.1-1.4C95,330.3,95.5,328.9,95.8,328z" />
		</g>
		<path class="st17"
			d="M109.1,242c0,0.2,0.3,0.5,0.5,0.3c0.5-0.3,0.7-0.9,1.2-1.2c0.7-0.5,1.4-0.7,2.2-1.1        c1-0.5,1.9-0.9,2.5-1.9c0.4-0.7-0.3-1.7-0.8-2.1c-0.4-0.3-0.8-0.5-1.3-0.7c-0.1,0-0.1,0-0.2,0c-0.7-0.3-1.6-0.1-2.5,0.2        c-0.1,0-0.1,0.2-0.1,0.3c0.1,0.3,0.3,0.5,0.6,0.6c1.6,0.9-0.3,2-0.9,2.6C109.2,239.9,108.9,240.7,109.1,242z" />
	</g>
</svg>