<svg version="1.1" id="Layer_1" xmlns="http://www.w3.org/2000/svg" xmlns:xlink="http://www.w3.org/1999/xlink" x="0px" y="0px" viewBox="45 20 160 120" xml:space="preserve">
	<g transform="translate(33,-10)">
		<style type="text/css">
			.st12 {
				fill: #FFFFFF;
			}

			.st15 {
				fill: #D1D1D1;
			}

			.st17 {
				fill: #E8E8E8;
			}

			.st18 {
				fill: none;
			}

			.st19 {
				opacity: 0.5;
				fill: #E8E8E8;
				enable-background: new;
			}
		</style>
		<g>
			<g>
				<path class="st18"
					d="M109.7,86c-7-1.9-7.8,5.3-7.8,5.3s-0.3,2.1,0.6,8.1c0.9,6,9.2,8.3,15.8,4.8        C124.8,100.8,116.7,88,109.7,86z" />
				<path class="st18"
					d="M91.8,97.3L91.8,97.3c0,0-0.6-0.8-1.5-0.8c-0.9,0-1.5,0.8-1.5,0.8v0c-0.3,0.3-0.6,0.7-1,1.3        c-2.3,3.7-6.9,14.2-4.6,15.7c4.5,2.9,9.8,2.9,14.3,0c2.3-1.5-2.4-12-4.6-15.7C92.4,98,92.1,97.6,91.8,97.3z" />
				<path class="st18"
					d="M70.8,86c-7,1.9-15.1,14.8-8.5,18.2s14.9,1.2,15.8-4.8c0.9-6,0.6-8.1,0.6-8.1S77.9,84.1,70.8,86z" />
			</g>
			<path class="st12"
				d="M129.3,57.3c-1.4-2.5-3.1-4.8-5-6.9c-9-8.8-20.9-14.2-34-14.2c-12.9,0-24.7,5.2-33.6,13.8       c-2.1,2.2-3.9,4.6-5.4,7.3c-11.1,19.5-4.4,33.3-0.3,42.1c0.9,1.5,1.7,3.3,2.2,5.5c0.4,1.7,0.6,3,0.9,4.1       c0.8,3.5,1.5,4.9,6.5,9.5c6.6,6.1,0.4,10.2,12,15.5c0,0,10.4,4.8,17.9,4.6c7.5,0.3,17.9-4.6,17.9-4.6c11.6-5.3,5.4-9.4,12-15.5       c5-4.7,5.8-6.1,6.5-9.7c0.2-1.1,0.5-2.3,0.8-3.9c0.4-1.6,0.9-3.1,1.6-4.3c0,0,0,0,0,0C133.1,91.8,140.9,77.7,129.3,57.3z        M101.9,91.4c0,0,0.8-7.2,7.8-5.3c7,1.9,15.1,14.8,8.5,18.2s-14.9,1.2-15.8-4.8C101.6,93.4,101.9,91.4,101.9,91.4z M87.8,98.6       c0.4-0.6,0.7-1,1-1.3v0c0,0,0.6-0.8,1.5-0.8c0.9,0,1.5,0.8,1.5,0.8v0c0.3,0.3,0.6,0.7,1,1.3c2.3,3.7,6.9,14.2,4.6,15.7       c-4.5,2.9-9.8,2.9-14.3,0C80.9,112.8,85.5,102.3,87.8,98.6z M70.8,86c7-1.9,7.8,5.3,7.8,5.3s0.3,2.1-0.6,8.1       c-0.9,6-9.1,8.3-15.8,4.8C55.7,100.8,63.8,88,70.8,86z M69,117L69,117c1.4-0.1,3.5-0.3,5.7-1.2c0,0,3.8-2.2,4.3-1.2       c0.5,1-2.5,5.2-1.4,12C72.8,125,69.4,117.9,69,117z M103.1,126.6c1.1-6.8-1.9-11-1.4-12s4.3,1.2,4.3,1.2       c2.2,0.8,4.2,1.1,5.7,1.2l0,0C111.3,117.8,107.8,124.9,103.1,126.6z" />
			<path class="st19"
				d="M129.3,57.3c-1.4-2.5-3.1-4.8-5-6.9c-9-8.8-20.9-14.2-34-14.2c-12.9,0-24.7,5.2-33.6,13.8       c-2.1,2.2-3.9,4.6-5.4,7.3c-11.1,19.5-4.4,33.3-0.3,42.1c0.9,1.5,1.7,3.3,2.2,5.5c0.4,1.7,0.6,3,0.9,4.1       c0.8,3.5,1.5,4.9,6.5,9.5c6.6,6.1,0.4,10.2,12,15.5c0,0,10.4,4.8,17.9,4.6c7.5,0.3,17.9-4.6,17.9-4.6c11.6-5.3,5.4-9.4,12-15.5       c5-4.7,5.8-6.1,6.5-9.7c0.2-1.1,0.5-2.3,0.8-3.9c0.4-1.6,0.9-3.1,1.6-4.3c0,0,0,0,0,0C133.1,91.8,140.9,77.7,129.3,57.3z        M69,117L69,117c1.4-0.1,3.5-0.3,5.7-1.2c0,0,3.8-2.2,4.3-1.2c0.5,1-2.5,5.2-1.4,12C72.8,125,69.4,117.9,69,117z M79.9,117.2       c0.1-0.3,0.2-0.6,0.3-1c0.1-0.2,0.1-0.4,0.2-0.6c0-0.1,0.1-0.1,0.2-0.2c0.1-0.3,0.2-0.5,0.4-0.8c0.1-0.1,0.4-0.4,0.5-0.2       c2.9,2.2,6.3,3.1,9.9,2.7c2.4-0.2,6.3-0.5,7.8-2.7c0.1-0.2,0.5-0.5,0.6-0.1c0.9,1.9,1.8,3.8,2.1,5.8c0,0.3-0.4,0.7-0.6,0.5       c-0.5-0.5-1.1-0.5-1.8,0c-0.1,0.2-0.5,0.4-0.6,0.2c-1-1.7-3.1-1.3-4.2,0.2c-0.1,0.2-0.4,0.3-0.5,0.1c-0.9-1-2.2-1.6-3.4-0.3       c-0.1,0.1-0.4,0.3-0.5,0.1c-1.3-1.1-2.8-0.9-4.1,0.3c-0.1,0.1-0.4,0.2-0.5,0c-0.9-1.5-3.1-1.7-4,0c-0.1,0.2-0.4,0.4-0.6,0.2       c-0.4-0.6-0.9-1-1.6-1.2c-0.1,0-0.2-0.2-0.2-0.3c0.2-0.8,0.4-1.7,0.7-2.5C79.9,117.3,79.9,117.2,79.9,117.2z M88.8,97.2       c0,0,0.6-0.8,1.5-0.8c0.9,0,1.5,0.8,1.5,0.8v0c0.3,0.3,0.6,0.7,1,1.3c2.3,3.7,6.9,14.2,4.6,15.7c-4.5,2.9-9.8,2.9-14.3,0       c-2.3-1.5,2.4-12,4.6-15.7C88.1,98,88.4,97.6,88.8,97.2L88.8,97.2z M99.7,124.4c0.1-0.6,0.6-2.1,1.3-1.7       c1.7,0.1,2.3,3.8,0.4,4.1C100.1,127,99.6,125.5,99.7,124.4z M100.9,128.3c0,0.7-0.6,1.4-1.3,1.4c-0.1,0-0.2,0-0.2-0.1       c-0.2-0.7,0.2-1.5,0.9-1.7c0.2-0.1,0.3,0,0.3,0.2c0,0,0,0,0,0C100.8,128.1,100.9,128.1,100.9,128.3z M97.3,126.9       c-0.7,0.1-1.5,0-1.9-0.6c-0.5-0.6-0.2-1.6,0-2.2c0.2-0.5,0.6-1.1,1-1.4c0.1-0.2,0.2-0.3,0.4-0.3c1-0.1,1.5,1.3,1.7,2.1       C98.8,125.4,98.5,126.6,97.3,126.9z M97.3,129.3c-0.1,0.6-0.5,1-1.1,1.2c-0.8,0.2-1.4-0.5-1.3-1.3c0-0.6,0.4-1.1,0.9-1.1       c0.2-0.2,0.5-0.3,0.8-0.2C97.3,128.1,97.5,128.7,97.3,129.3z M93.9,126.8c-0.5,0.4-1.4,0.7-2,0.5c-0.9-0.2-1.3-0.9-1.4-1.6       c-0.1,0-0.1-0.1-0.1-0.2c0,0,0-0.1,0-0.2c0-0.5,0.1-0.9,0.2-1.4c0,0,0,0,0-0.1c0.2-0.9,0.5-1.8,1.5-1.9c1.4-0.1,1.9,2,2.1,3.1       C94.3,125.7,94.4,126.4,93.9,126.8z M93.7,129.9c-0.4,0.5-1.2,0.9-1.8,0.4c-0.5-0.4-0.8-1.1-0.6-1.7c0-0.2,0.2-0.3,0.4-0.3       c0,0,0,0,0.1,0c0.6-0.3,1.3-0.3,1.9,0.1C94.2,128.6,94.1,129.4,93.7,129.9z M89.5,127.1c-1.3,1-2.9,0.2-3-1.3       c0-1.2,0.1-3.1,1.3-3.8c1.3-0.8,2.3,0.7,2.4,1.9C90.5,125,90.5,126.3,89.5,127.1z M90,128c0,1-0.5,2.1-1.5,2.3       c-1.1,0.2-1.5-0.9-1.6-1.8c0-0.2,0.3-0.4,0.5-0.4c0.1-0.1,0.2-0.2,0.3-0.1c0.7,0.1,1.4-0.1,2.1-0.1C89.9,127.8,90,127.9,90,128       z M84.8,128c0.5,0.2,1.1,0.7,1.2,1.2c0.1,0.4-0.1,0.8-0.5,0.8c-0.2,0-0.4,0-0.6,0c0,0,0,0-0.1,0c-0.6,0-1.4-0.5-1.3-1.2       C83.7,128.3,84.2,127.8,84.8,128z M81.9,125.8c-0.2-1,0.3-2.8,1.2-3.4c1.1-0.7,1.7,0.5,2,1.5c0.4,1,0.7,2.1-0.2,2.8       C83.9,127.6,82.1,127.1,81.9,125.8z M81.6,129.5c0,0.2-0.2,0.4-0.5,0.4c-0.9,0-1.6-0.7-1.5-1.5c0-0.2,0.3-0.5,0.5-0.4       c0.1,0,0.2,0,0.2,0.1c0.1-0.1,0.3-0.2,0.4-0.1C81.3,128.3,81.6,128.9,81.6,129.5z M79.8,123.1c0.8-0.4,1.4-0.2,1.4,0.8       c0,0,0,0.1,0,0.1c0.3,0.9,0.4,2-0.5,2.5c-0.9,0.6-2.5,0.2-2.5-1.1C78.2,124.5,78.9,123.5,79.8,123.1z M105.1,130.4       c-2.2,5.3-9.3,6.9-14.5,7.1c-4.3,0.2-12.4-0.9-13.2-6.2c0-0.3,0.3-0.7,0.6-0.5c2.4,1.4,5.2,2.4,8.1,2.9c2,0.2,4,0,5.8-0.1       c2.2-0.2,4.4-0.4,6.5-1.1c2.1-0.7,4.2-1.6,6.3-2.3C105,130.1,105.2,130.2,105.1,130.4z M111.7,117c-0.4,0.8-3.8,7.9-8.6,9.6       c1.1-6.8-1.9-11-1.4-12s4.3,1.2,4.3,1.2C108.2,116.6,110.2,116.9,111.7,117C111.7,117,111.7,117,111.7,117z M117.3,111.9       c-7,2.6-17,0.2-17-8.7c0-0.3,0.4-0.6,0.7-0.4c2.9,3.2,6,5.5,10.4,5.3c14.1-0.5,14.9-16.5,5.3-24c-2.1-1.7-5.7-3.5-8.4-3.6       c-6-0.2-9.7,7-10.5,12.1c-0.2,1.2-0.3,2.5-0.8,3.6c0.1,0.1,0.1,0.2,0.2,0.3c0.2,0.3-0.4,0.8-0.6,0.5c-0.1-0.1-0.1-0.2-0.2-0.4       c-0.1,0-0.1-0.1-0.1-0.2c-1.8-3.2-4.9-7.8-8.9-5c-3.2,2.2-4.8,6-7.3,8.9c-0.2,0.2-0.7,0.3-0.6-0.1c1.4-4.7,2.3-10.9,0.6-15.6       c-2.3-6.3-9.1-4.1-13-0.6c-4.3,3.9-9.4,10.5-8.7,16.7c0.4,3.7,3.3,6,6.8,6.8c5,1.1,9.1-1,13.2-3.8c0.1-0.1,0.5-0.1,0.4,0.1       c0,0.2,0,0.4-0.1,0.5c-0.5,3.2-1.9,6.4-4.9,8.1c-3.1,1.8-7.5,2.5-11,1.7c-4-1-5.9-3.6-6.7-7.5c-1.2-5.8-4.4-10.5-6.4-16       c-3.5-10-2.8-21.8,2.4-31.1c2.4-4.2,5.5-8,8.9-11.5c2.2-2.2,4.7-4.4,7.6-5.6c5.9-3.2,13.6-3.8,20-3.4       c10.2,0.6,20.6,3.8,28.7,10.2c7.5,5.8,12.5,14.7,13.6,24.1c0.6,5.3,0.2,11.4-1.7,16.8C127.8,98.5,125.5,108.9,117.3,111.9z        M101.9,91.4c0,0,0.8-7.2,7.8-5.3c7,1.9,15.1,14.8,8.5,18.2s-14.9,1.2-15.8-4.8C101.6,93.4,101.9,91.4,101.9,91.4z M78,99.4       c-0.9,6-9.1,8.3-15.8,4.8c-6.6-3.5,1.5-16.3,8.5-18.2c7-1.9,7.8,5.3,7.8,5.3S78.9,93.4,78,99.4z" />
			<path class="st19"
				d="M73.5,133.4c-1.8-1.8-3.4-4-4.4-6.5c-1.3-3.2-2.4-6.4-4.6-9.1c-0.1-0.2,0.1-0.4,0.2-0.5       c0.6-0.3,1.1-0.6,1.7-0.8c-5.7-0.6-10.1-4.4-12.8-9.1c0.1,0.6,0.2,1.2,0.4,1.7c0.8,3.5,1.5,4.9,6.5,9.5       c6.6,6.1,0.4,10.2,12,15.5c0,0,1.6,0.7,3.9,1.6C75.3,135,74.4,134.3,73.5,133.4z" />
			<path class="st19"
				d="M121.7,111.7c-2.8,2-6,3.7-9.4,4.2c1.6,0.7,3.5,0.7,5.2,0.4c0.2,0,0.3,0.1,0.2,0.3c-0.4,1.2-1,2.1-1.9,3       c-1.2,1.4-2.1,2.9-2.9,4.5c-1.3,2.9-2.6,5.7-4.7,8.1c-1,1.2-2.1,2.2-3.3,3.2c2-0.8,3.2-1.3,3.2-1.3c11.6-5.3,5.4-9.4,12-15.5       c5-4.7,5.8-6.1,6.5-9.7c0.1-0.6,0.3-1.4,0.5-2.2C125.7,108.7,123.7,110.3,121.7,111.7z" />
			<g>
				<path class="st17"
					d="M77.6,113.8c-3.9,1.8-7.9,2.6-12.2,2.1c-1.9-0.2-3.8-0.9-5.5-1.8c-2.1-1-3.2-2.2-4.7-3.9c0,0,0,0,0,0        c1.2,1.6,2.1,2.9,3.9,4c1.9,1.2,3.8,2.1,6,2.6c4.1,0.9,9.3-0.1,12.6-2.7C77.8,114.1,77.8,113.7,77.6,113.8z" />
				<path class="st17"
					d="M103.4,113.8c3.9,1.8,7.9,2.6,12.2,2.1c1.9-0.2,3.8-0.9,5.5-1.8c2.1-1,3.2-2.2,4.7-3.9c0,0,0,0,0,0        c-1.2,1.6-2.1,2.9-3.9,4c-1.9,1.2-3.8,2.1-6,2.6c-4.1,0.9-9.3-0.1-12.6-2.7C103.1,114.1,103.1,113.7,103.4,113.8z" />
				<path class="st17"
					d="M103.4,126.4C103.4,126.4,103.4,126.4,103.4,126.4c0-1.6-0.3-3.4-1.6-4.4c-1.2-1-2.2,0.3-2.5,1.5        c-0.2-1-0.7-1.9-1.7-2.2c-1.6-0.5-2.8,1.8-2.5,3.1c0,0,0,0,0,0c-0.2-1.6,2.2-4.4,3.5-2.1c0.7,1.3,0.8,2.7,0.9,4.2        c-0.1,0.2-0.1,0.5-0.3,0.6c-0.4,0.1-0.8,0.2-1.2,0.2c-0.9,0.1-2.3,0.2-2.7-0.7c0.1-1.6-0.2-3.5-1.3-4.8c-0.9-1.1-2-1.1-2.8,0        c0,0,0,0,0,0c0.1-0.1,0.2-0.1,0.3-0.2c0,0,0,0-0.1,0.1c-0.2,0.2-0.4,0.5-0.5,0.8c-0.1,0.3-0.3,0.6-0.4,1        c0-0.6-0.2-1.2-0.6-1.7c0,0,0,0,0,0c-0.9-1.1-1.9-1.1-2.8,0c-1.1,1.3-1.4,3.4-1.2,5.1c-0.9,0.3-1.7,0.4-2.7,0.3        c-0.4-0.1-0.9-0.1-1.2-0.4c0,0,0-0.1-0.1-0.1c-0.1-0.1-0.2-0.3-0.2-0.5c0-0.1,0-0.2,0-0.3c0.1-1.3,0.2-2.5,0.9-3.7        c1.2-2.3,3.7,0.5,3.5,2.1c0,0,0,0,0,0c0.3-1.3-0.9-3.7-2.5-3.1c-1,0.3-1.5,1.2-1.7,2.2c-0.3-1.2-1.3-2.4-2.5-1.5        c-1.2,1-1.6,2.6-1.6,4.2c0,0.3,0,0.6,0,0.8c0,0.1,0.1,0.2,0.1,0.2c0,0,0.1,0,0.1,0.1c0,0,0.1,0.1,0.2,0.1c0,0,0.1,0,0.1,0        c0,0,0,0,0,0c0,0,0.1,0,0.1,0.1c0,0,0,0,0-0.1c0,0,0,0,0.1,0c0.1,2,4.2,5.3,5.3,2.7c0,0.1,0.1,0.1,0.1,0.2        c0.1,0.1,0.1,0.1,0.2,0.2c0.2,0.1,0.4,0.2,0.5,0.4c0.9,0.5,2.4,0.6,3.2,0.2c0.4,0.4,0.8,0.6,1.4,0.4c0.9-0.2,1.3-0.9,1.6-1.7        c0-0.2,0.1-0.4,0.1-0.7c0.1,0.4,0.2,0.8,0.4,1.1c0.3,0.7,0.9,1.4,1.8,1.2c1-0.2,1.6-1.2,1.9-2.2c0,0.3,0,0.6,0,0.8        c0.1,0.9,0.8,1.2,1.7,1.2c0.8,0,1.5-0.4,2-1c0.5,1.2,1.8,0.7,2.7,0.2c0.6-0.4,1-1.1,1.4-1.6c0.2-0.3,0.4-0.7,0.6-1        c0.1-0.3,0.1-0.6,0.3-0.8c0,0,0-0.1,0-0.1c0,0,0.1-0.1,0.1-0.1c0,0,0,0,0,0c0,0,0,0,0.1,0        C103.4,126.6,103.4,126.5,103.4,126.4z M89,121.4c1,0.8,0.9,2,1,3.2c0.1,0.8-0.1,1.8,0,2.6c-0.3,0-0.7,0-0.9,0        c-0.5,0-1,0-1.5,0c-0.4,0-0.7,0-1.1,0c-0.5,0-0.6-0.3-0.7-0.6C86.1,124.5,86.8,120.3,89,121.4z M77.5,126.4        c0.1-1.2,0.4-2.1,0.9-3.2c0.4-0.9,1.4-1.5,2.3-0.9c0.4,0.3,0.6,0.8,0.8,1.2c-0.2,1-0.2,2.2-0.2,3.1c0,0,0,0,0,0c0,0,0,0,0,0.1        c-0.2,0-0.5,0.1-0.8,0.2c-0.4,0-0.8,0.1-1.2,0c-0.4,0-0.8,0-1.2,0C77.8,126.9,77.6,126.7,77.5,126.4z M83.7,130.1        c-0.8-0.8-1.2-1.6-1.6-2.6c0,0,0,0,0,0c0.2,0.9,0.5,1.8,1.1,2.5c0,0,0.1,0,0.1,0c0,0,0,0,0,0c-0.8,1.7-2.5,0.3-3.4-0.4        c-0.3-0.2-1.5-1.6-1.6-2.2c0.1,0,0.2,0,0.2,0c0.3,0.1,0.8,0.1,1.2,0.1c0,0,0,0,0,0c0,0,0.1,0,0.1,0c0,0,0,0,0,0        c0.7,0,1.4-0.1,1.8-0.4c0.2,0.2,0.6,0.3,0.9,0.4c0.8,0.2,2.9,0.5,3.4-0.4c0,0,0,0.1,0.1,0.1c0.1,0.1,0.2,0.2,0.3,0.2        c0,1,0.3,2.5,1,3.4C86,131.1,84.6,131,83.7,130.1z M88.7,131.2c-0.4,0-0.7-0.1-1-0.4l0,0c-0.8-0.7-1.3-2.3-1.4-3.3        c0.3,0.1,0.7,0.1,1,0.1c0.9,0.1,2.2,0.3,3.1-0.1c0,0.3,0,0.6,0,0.9C90.2,129.5,90,131.2,88.7,131.2z M99.2,123.6        c0.2-0.5,0.4-0.9,0.8-1.2c0.9-0.6,1.9-0.1,2.3,0.9c0.5,1.1,0.8,2.1,0.9,3.3c-0.6,0.2-1.2,0.3-1.8,0.4        c-0.5,0.1-1.3,0.2-1.6-0.4c-0.1-0.3-0.3-0.6-0.4-1C99.4,124.9,99.4,124.2,99.2,123.6z M92.5,131.2c-1.2,0-1.6-1.4-1.9-2.6        c0,0,0-0.1,0-0.2c0-0.2,0-0.5,0-0.8c0,0,0,0,0,0c0.7,0.4,1.8,0.4,2.5,0.3c0.3,0,1-0.1,1.4-0.3C94.3,129.1,94,131.2,92.5,131.2        z M93.3,127.3c-0.4,0.1-1.9,0.2-2.6-0.2c0,0,0,0,0-0.1c0-0.1,0-0.2-0.1-0.2c0,0,0-0.1,0-0.1s0,0,0-0.1c0-0.7-0.1-1.5,0-2.2        c0.2-1.2,0.1-2.3,1-3.2c2.3-1.1,3,3.4,3.2,5.3c0,0,0,0,0,0C94.8,127.4,93.8,127.3,93.3,127.3z M96.6,131        c-1.2,0.3-1.9-0.6-1.8-1.7c0-0.3,0-0.6,0-0.9c0-0.3,0.1-0.5,0.1-0.8c0.1-0.1,0.2-0.1,0.2-0.2c0,0,0,0,0.1,0        c0.8,0.4,1.6,0.4,2.5,0.3c0.4,0,1-0.1,1.5-0.3C98.7,128.9,98.3,130.6,96.6,131z M102.7,127.5c-0.1,0.5-0.5,1.1-0.8,1.5        c-0.7,1-2.5,2.8-3.6,1.2c0,0,0,0,0,0c0.6-0.9,1-2.1,1.2-3c0-0.1,0.1-0.1,0.1-0.2c0,0.1,0.1,0.1,0.2,0.2        c0.3,0.3,0.9,0.4,1.3,0.4c0.5,0,1.2-0.1,1.7-0.4C102.8,127.3,102.7,127.4,102.7,127.5z" />
			</g>
			<g>
				<path class="st17"
					d="M126,71.4c0,0-8.6,7-5.4,13.1s5.2,12.4,5.2,12.4s-2-6.4,0.4-12.2C128.6,79,130.2,69,126,71.4z" />
				<path class="st17"
					d="M54.7,71.1c0,0,8.6,7,5.4,13.1s-5.2,12.4-5.2,12.4s2-6.4-0.4-12.2S50.5,68.7,54.7,71.1z" />
			</g>
		</g>
		<path class="st15"
			d="M91,139.1L91,139.1c-0.2,0-0.5,0-0.7,0c-0.2,0-0.4,0-0.6,0c-7.5,0-17-4.4-17.4-4.6c-7-3.2-7.7-6-8.4-9      c-0.5-2-1-4.1-3.6-6.6c-5-4.6-5.8-6.1-6.6-9.8c-0.1-0.4-0.2-0.9-0.3-1.4c-0.2-0.8-0.3-1.7-0.6-2.7c-0.4-1.9-1.1-3.7-2.1-5.3      l-0.2-0.5c-4.2-9-10.5-22.7,0.5-42.1c1.5-2.7,3.4-5.2,5.5-7.4c9.4-9,21.4-14,33.9-14c12.7,0,24.9,5.1,34.3,14.3      c2,2.2,3.7,4.6,5.1,7c11,19.4,4.7,33.1,0.5,42.1c-0.2,0.5-0.4,0.9-0.6,1.4v0l0,0.2c-0.7,1.4-1.2,2.8-1.5,4.2      c-0.2,1-0.4,1.9-0.6,2.7c-0.1,0.5-0.2,0.9-0.3,1.3c-0.8,3.7-1.7,5.3-6.6,9.9c-2.6,2.4-3.1,4.5-3.6,6.6c-0.7,3-1.5,5.8-8.4,9      C108,134.7,98.5,139.1,91,139.1z M90.3,138.3c0.2,0,0.5,0,0.7,0c7.3,0,17-4.5,17.1-4.5c6.6-3,7.2-5.6,8-8.5c0.5-2,1.1-4.4,3.9-7      c4.9-4.5,5.6-6,6.4-9.5c0.1-0.4,0.2-0.8,0.3-1.3c0.2-0.8,0.3-1.7,0.6-2.7c0.3-1.5,0.9-2.9,1.5-4.3l0-0.1c0.2-0.5,0.5-1,0.7-1.5      c4.1-8.9,10.3-22.4-0.5-41.4c-1.4-2.4-3-4.7-5-6.8c-9.2-9.1-21.2-14.1-33.7-14.1c-12.3,0-24.1,4.9-33.3,13.7      c-2.1,2.1-3.9,4.6-5.4,7.2C40.7,76.6,47,90,51.1,98.9l0.2,0.4c1,1.7,1.8,3.6,2.2,5.5c0.2,1,0.4,1.9,0.6,2.7      c0.1,0.5,0.2,1,0.3,1.4c0.8,3.4,1.5,4.8,6.4,9.3c2.8,2.6,3.4,4.9,3.9,7c0.7,2.9,1.4,5.5,8,8.5C72.7,133.8,82.9,138.6,90.3,138.3      z M78.1,127.2l-0.6-0.2c-5-1.7-8.5-9-8.9-9.8L69,117l0-0.4c1.3-0.1,3.3-0.3,5.6-1.2c0.2-0.1,2.6-1.5,3.9-1.5      c0.6,0,0.8,0.3,0.9,0.5c0.2,0.5,0,1.2-0.4,2.3c-0.6,2-1.7,5.3-1,9.8L78.1,127.2z M69.6,117.4c0.9,1.8,3.8,6.9,7.6,8.6      c-0.6-4.3,0.5-7.5,1.1-9.5c0.2-0.7,0.5-1.5,0.4-1.7c0,0,0,0-0.2,0c-0.9,0-2.8,1-3.5,1.4C72.8,117,70.9,117.3,69.6,117.4z       M102.5,127.2l0.1-0.7c0.7-4.5-0.3-7.8-1-9.8c-0.4-1.1-0.6-1.8-0.4-2.3c0.1-0.2,0.4-0.5,0.9-0.5c1.3,0,3.6,1.4,3.9,1.5      c1.8,0.6,3.6,1,5.5,1.1l0.6,0l-0.2,0.5c-0.4,0.8-3.9,8.1-8.8,9.8L102.5,127.2z M102.3,114.8c-0.2,0-0.2,0-0.2,0      c-0.1,0.2,0.2,1,0.4,1.7c0.6,2,1.6,5.2,1.1,9.5c3.8-1.7,6.6-6.8,7.5-8.6c-1.7-0.1-3.5-0.5-5.2-1.2      C105.1,115.8,103.2,114.8,102.3,114.8z M90.3,116.8c-2.5,0-5.1-0.8-7.4-2.2c-2.8-1.8,2.8-13.4,4.5-16.2c0.3-0.5,0.6-0.9,1-1.3      l0-0.1c0,0,0.7-0.9,1.8-0.9h0.1l0,0c1.1,0,1.8,0.9,1.8,0.9l0.1,0.1c0.3,0.3,0.6,0.8,0.9,1.2c1.7,2.8,7.4,14.4,4.5,16.2      C95.3,116.1,92.8,116.8,90.3,116.8z M89.2,97.4L89.2,97.4L89,97.6c-0.3,0.3-0.6,0.7-0.9,1.2c-2.7,4.4-6.5,14-4.8,15.1      c4.3,2.8,9.6,2.8,13.8,0c1.7-1.1-2.1-10.7-4.8-15.1c-0.3-0.5-0.6-0.9-0.9-1.2l-0.1-0.1v0c-0.2-0.2-0.5-0.5-1-0.5h-0.1l0-0.4v0.4      C89.7,96.9,89.3,97.2,89.2,97.4z M111.7,106.3c-5.2,0-9-2.7-9.6-6.8c-0.9-6-0.6-8.1-0.6-8.2c0,0,0.7-6,6-6      c0.7,0,1.5,0.1,2.3,0.3c5,1.4,10.7,8.2,11.2,13.5c0.3,2.5-0.6,4.4-2.6,5.5C116.3,105.7,114,106.3,111.7,106.3z M107.4,86.1      c-4.6,0-5.1,5.1-5.2,5.3c0,0-0.3,2.1,0.6,8c0.5,3.6,4.1,6.1,8.8,6.1c2.2,0,4.4-0.5,6.3-1.6c1.7-0.9,2.4-2.5,2.2-4.7      c-0.5-5-5.9-11.5-10.6-12.8C108.8,86.2,108.1,86.1,107.4,86.1z M68.8,106.3c-2.3,0-4.6-0.6-6.7-1.7c-2-1-2.9-2.9-2.6-5.5      c0.6-5.3,6.2-12.1,11.2-13.5c0.8-0.2,1.6-0.3,2.3-0.3c5.3,0,6,5.9,6,6c0,0.1,0.3,2.2-0.6,8.2C77.9,103.5,74,106.3,68.8,106.3z       M73.1,86.1c-0.7,0-1.4,0.1-2.1,0.3c-4.7,1.3-10.1,7.8-10.6,12.8c-0.2,2.2,0.5,3.8,2.2,4.7c2,1,4.2,1.6,6.3,1.6      c4.8,0,8.3-2.5,8.8-6.1c0.9-5.8,0.6-7.9,0.6-8C78.2,91.2,77.6,86.1,73.1,86.1z" />
	</g>
</svg>